# PSX Racing car model — generated by tools/carmodels/export_models.mjs
mtllib supra_a80_wheels_f.mtl
v 0.931255 0.340615 1.296095
v 0.931255 -0.009385 1.296095
v 0.931255 0.093128 1.048608
v 0.931255 0.340615 0.946095
v 0.594562 0.093128 1.543583
v 0.594562 0.340615 1.646095
v 0.594562 0.340615 1.296095
v 0.594562 -0.009385 1.296095
v 0.594562 0.340615 0.946095
v 0.594562 0.093128 1.048608
v 0.931255 0.340615 1.646095
v 0.931255 0.093128 1.543583
v 0.594562 0.588102 1.543583
v 0.594562 0.690615 1.296095
v 0.931255 0.690615 1.296095
v 0.931255 0.588102 1.543583
v 0.594562 0.588102 1.048608
v 0.931255 0.588102 1.048608
v -0.931255 0.340615 1.296095
v -0.931255 0.340615 0.946095
v -0.931255 0.093128 1.048608
v -0.931255 -0.009385 1.296095
v -0.594562 0.093128 1.543583
v -0.594562 -0.009385 1.296095
v -0.594562 0.340615 1.296095
v -0.594562 0.340615 1.646095
v -0.594562 0.340615 0.946095
v -0.594562 0.093128 1.048608
v -0.931255 0.093128 1.543583
v -0.931255 0.340615 1.646095
v -0.594562 0.588102 1.543583
v -0.594562 0.690615 1.296095
v -0.931255 0.588102 1.543583
v -0.931255 0.690615 1.296095
v -0.594562 0.588102 1.048608
v -0.931255 0.588102 1.048608
vt 0.125000 0.875000
vt 0.248031 0.824039
vt 0.248031 0.925961
vt 0.175961 0.998032
vt 0.248031 0.824039
vt 0.248031 0.925961
vt 0.125000 0.875000
vt 0.175961 0.751969
vt 0.847472 0.968651
vt 0.867049 0.968651
vt 0.867049 0.984227
vt 0.847472 0.984227
vt 0.867049 0.999802
vt 0.847472 0.999802
vt 0.074039 0.751969
vt 0.175961 0.751969
vt 0.175961 0.998032
vt 0.074039 0.998032
vt 0.847472 0.875198
vt 0.867049 0.875198
vt 0.867049 0.890773
vt 0.847472 0.890773
vt 0.867049 0.906349
vt 0.847472 0.906349
vt 0.001968 0.925961
vt 0.001969 0.824039
vt 0.001969 0.925961
vt 0.001969 0.824039
vt 0.867049 0.921924
vt 0.847472 0.921924
vt 0.867049 0.937500
vt 0.847472 0.937500
vt 0.074039 0.998031
vt 0.867049 0.953076
vt 0.847472 0.953076
vt 0.074039 0.751969
vt 0.125000 0.875000
vt 0.175961 0.998032
vt 0.248031 0.925961
vt 0.248031 0.824039
vt 0.248031 0.824039
vt 0.175961 0.751969
vt 0.125000 0.875000
vt 0.248031 0.925961
vt 0.847472 0.968651
vt 0.847472 0.984227
vt 0.867049 0.984227
vt 0.867049 0.968651
vt 0.847472 0.999802
vt 0.867049 0.999802
vt 0.175961 0.751969
vt 0.074039 0.751969
vt 0.175961 0.998032
vt 0.074039 0.998032
vt 0.847472 0.875198
vt 0.847472 0.890773
vt 0.867049 0.890773
vt 0.867049 0.875198
vt 0.847472 0.906349
vt 0.867049 0.906349
vt 0.001969 0.824039
vt 0.001968 0.925961
vt 0.001969 0.925961
vt 0.001969 0.824039
vt 0.847472 0.921924
vt 0.867049 0.921924
vt 0.847472 0.937500
vt 0.867049 0.937500
vt 0.074039 0.998031
vt 0.847472 0.953076
vt 0.867049 0.953076
vt 0.074039 0.751969
vn 1.000000 0.000000 0.000000
vn -1.000000 0.000000 0.000000
vn 0.000000 -0.382700 -0.923900
vn 0.000000 -0.923900 -0.382700
vn 0.000000 -0.923900 0.382700
vn 0.000000 -0.382700 0.923900
vn 0.000000 0.382700 0.923900
vn 0.000000 0.923900 0.382700
vn 0.000000 0.923900 -0.382700
vn 0.000000 0.382700 -0.923900
vn -1.000000 0.000000 0.000000
vn 1.000000 0.000000 0.000000
vn 0.000000 -0.382700 -0.923900
vn 0.000000 -0.923900 -0.382700
vn 0.000000 -0.923900 0.382700
vn 0.000000 -0.382700 0.923900
vn 0.000000 0.382700 0.923900
vn 0.000000 0.923900 0.382700
vn 0.000000 0.923900 -0.382700
vn 0.000000 0.382700 -0.923900
o supra_a80_wheels_f
usemtl supra_a80_wheels_f
f 1/1/1 2/2/1 3/3/1 4/4/1
f 5/5/2 6/6/2 7/7/2 8/8/2
f 9/9/3 4/10/3 3/11/3 10/12/3
f 10/12/4 3/11/4 2/13/4 8/14/4
f 1/1/1 11/15/1 12/16/1 2/2/1
f 13/17/2 14/18/2 7/7/2 6/6/2
f 8/19/5 2/20/5 12/21/5 5/22/5
f 5/22/6 12/21/6 11/23/6 6/24/6
f 1/1/1 15/25/1 16/26/1 11/15/1
f 17/27/2 9/28/2 7/7/2 14/18/2
f 6/24/7 11/23/7 16/29/7 13/30/7
f 13/30/8 16/29/8 15/31/8 14/32/8
f 1/1/1 4/4/1 18/33/1 15/25/1
f 14/32/9 15/31/9 18/34/9 17/35/9
f 17/35/10 18/34/10 4/10/10 9/9/10
f 10/36/2 8/8/2 7/7/2 9/28/2
f 19/37/11 20/38/11 21/39/11 22/40/11
f 23/41/12 24/42/12 25/43/12 26/44/12
f 27/45/13 28/46/13 21/47/13 20/48/13
f 28/46/14 24/49/14 22/50/14 21/47/14
f 19/37/11 22/40/11 29/51/11 30/52/11
f 31/53/12 26/44/12 25/43/12 32/54/12
f 24/55/15 23/56/15 29/57/15 22/58/15
f 23/56/16 26/59/16 30/60/16 29/57/16
f 19/37/11 30/52/11 33/61/11 34/62/11
f 35/63/12 32/54/12 25/43/12 27/64/12
f 26/59/17 31/65/17 33/66/17 30/60/17
f 31/65/18 32/67/18 34/68/18 33/66/18
f 19/37/11 34/62/11 36/69/11 20/38/11
f 32/67/19 35/70/19 36/71/19 34/68/19
f 35/70/20 27/45/20 20/48/20 36/71/20
f 28/72/12 27/64/12 25/43/12 24/42/12
