# PSX Racing car model — generated by tools/carmodels/export_models.mjs
mtllib supra_a80.mtl
v 0.686550 1.025479 -1.245149
v 0.770166 0.937451 -1.649495
v 0.000000 1.057858 -1.649495
v 0.000000 1.161844 -1.241441
v 0.650179 0.544696 2.019526
v 0.769860 0.725559 1.806589
v 0.000000 0.777970 1.860723
v 0.000000 0.544696 2.236403
v 0.623901 0.904544 -2.053762
v 0.000000 1.053252 -2.054380
v 0.842135 0.843323 1.299871
v 0.000000 0.882086 1.299871
v 0.000000 0.194317 1.657037
v 0.486975 0.194317 1.657037
v 0.586593 0.194317 2.104895
v 0.000000 0.194317 2.257500
v 0.770166 0.937451 -1.242583
v 0.608400 1.169554 -0.797139
v 0.770166 0.937451 -0.892559
v 0.000000 1.264562 -0.797678
v 0.866369 0.194317 1.657037
v 0.881630 0.518042 1.657037
v 0.612663 0.448988 1.997153
v 0.000000 0.395247 -2.257500
v 0.000000 0.638650 -2.257500
v 0.625965 0.638650 -2.224537
v 0.625965 0.395247 -2.224537
v 0.524322 1.246724 -0.442169
v 0.000000 1.309160 -0.444712
v 0.000000 0.882052 -2.086582
v 0.929955 0.730018 1.299871
v 0.929955 0.560263 0.909003
v 0.887507 0.814109 0.726174
v 0.929955 0.560263 -0.467603
v 0.929955 0.560263 -0.943427
v 0.887507 0.837472 -0.917993
v 0.887507 0.821609 -0.455690
v 0.866369 0.194317 0.008222
v 0.929955 0.560263 0.008222
v 0.866369 0.194317 0.909003
v 0.000000 0.194317 0.008222
v 0.486975 0.194317 0.909003
v 0.000000 0.194317 0.909003
v 0.794541 0.888057 0.543344
v 0.000000 0.926209 0.731981
v 0.464977 0.226898 -1.649495
v 0.000000 0.226898 -1.649495
v 0.929955 0.576553 -1.526563
v 0.866369 0.226898 -1.649495
v 0.574019 1.216513 0.008222
v 0.000000 1.241661 0.049171
v 0.929955 0.705752 -1.241441
v 0.000000 0.194317 -0.892559
v 0.464977 0.194317 -0.892559
v 0.866369 0.194317 -0.442169
v 0.794541 0.903058 -0.443778
v 0.794541 0.894563 0.008222
v 0.000000 0.369507 2.185083
v 0.000000 0.194317 1.283020
v 0.486975 0.194317 1.283020
v 0.486975 0.560263 -0.943427
v 0.486975 0.705752 -1.241441
v 0.486975 0.730018 1.299871
v 0.486975 0.560263 0.909003
v 0.486975 0.576553 -1.526563
v 0.486975 0.518042 1.657037
v 0.866369 0.194317 -0.892559
v 0.887507 0.817362 0.008222
v 0.502101 1.094374 -2.001465
v 0.372987 1.167941 -2.076816
v 0.428439 1.206635 -2.088599
v 0.540767 1.098876 -2.001664
v 0.600762 1.091671 -1.805990
v 0.490410 1.190510 -1.895346
v 0.451861 1.141106 -1.869504
v 0.545947 1.090961 -1.809970
v 0.000000 1.218903 -1.933166
v 0.000000 1.176598 -1.899972
v 0.559623 0.958332 -1.984681
v 0.614833 0.959225 -1.637168
v 0.000000 1.248830 -2.155215
v 0.578176 0.952471 -1.984031
v 0.670862 0.959225 -1.645464
v 0.000000 1.196334 -2.119341
v 0.813509 0.930703 0.376151
v 0.836804 0.994507 0.360505
v 0.836804 0.994507 0.287989
v 0.813509 0.930703 0.287989
v 0.976703 0.994507 0.201455
v 1.001150 0.946020 0.201455
v 0.976703 0.994507 0.267324
v 1.001150 0.946020 0.273589
v 0.783962 0.849777 0.287989
v 0.975139 0.884522 0.201455
v 0.975139 0.884522 0.281535
v 0.783962 0.849777 0.395996
v -0.686550 1.025479 -1.245149
v -0.770166 0.937451 -1.649495
v -0.650179 0.544696 2.019526
v -0.769860 0.725559 1.806589
v -0.623901 0.904544 -2.053762
v -0.842135 0.843323 1.299871
v -0.586593 0.194317 2.104895
v -0.486975 0.194317 1.657037
v -0.770166 0.937451 -1.242583
v -0.770166 0.937451 -0.892559
v -0.608400 1.169554 -0.797139
v -0.866369 0.194317 1.657037
v -0.612663 0.448988 1.997153
v -0.881630 0.518042 1.657037
v -0.625965 0.395247 -2.224537
v -0.625965 0.638650 -2.224537
v -0.524322 1.246724 -0.442169
v -0.929955 0.730018 1.299871
v -0.887507 0.814109 0.726174
v -0.929955 0.560263 0.909003
v -0.929955 0.560263 -0.467603
v -0.887507 0.821609 -0.455690
v -0.887507 0.837472 -0.917993
v -0.929955 0.560263 -0.943427
v -0.866369 0.194317 0.008222
v -0.866369 0.194317 0.909003
v -0.929955 0.560263 0.008222
v -0.486975 0.194317 0.909003
v -0.794541 0.888057 0.543344
v -0.464977 0.226898 -1.649495
v -0.866369 0.226898 -1.649495
v -0.929955 0.576553 -1.526563
v -0.574019 1.216513 0.008222
v -0.929955 0.705752 -1.241441
v -0.464977 0.194317 -0.892559
v -0.866369 0.194317 -0.442169
v -0.794541 0.903058 -0.443778
v -0.794541 0.894563 0.008222
v -0.486975 0.194317 1.283020
v -0.486975 0.705752 -1.241441
v -0.486975 0.560263 -0.943427
v -0.486975 0.560263 0.909003
v -0.486975 0.730018 1.299871
v -0.486975 0.576553 -1.526563
v -0.486975 0.518042 1.657037
v -0.866369 0.194317 -0.892559
v -0.887507 0.817362 0.008222
v -0.502101 1.094374 -2.001465
v -0.540767 1.098876 -2.001664
v -0.428439 1.206635 -2.088599
v -0.372987 1.167941 -2.076816
v -0.600762 1.091671 -1.805990
v -0.545947 1.090961 -1.809970
v -0.451861 1.141106 -1.869504
v -0.490410 1.190510 -1.895346
v -0.559623 0.958332 -1.984681
v -0.614833 0.959225 -1.637168
v -0.578176 0.952471 -1.984031
v -0.670862 0.959225 -1.645464
v -0.813509 0.930703 0.376151
v -0.813509 0.930703 0.287989
v -0.836804 0.994507 0.287989
v -0.836804 0.994507 0.360505
v -1.001150 0.946020 0.201455
v -0.976703 0.994507 0.201455
v -1.001150 0.946020 0.273589
v -0.976703 0.994507 0.267324
v -0.783962 0.849777 0.287989
v -0.783962 0.849777 0.395996
v -0.975139 0.884522 0.281535
v -0.975139 0.884522 0.201455
vt 0.852614 0.852610
vt 0.732242 0.877646
vt 0.737881 0.650704
vt 0.860500 0.648917
vt 0.934658 0.447521
vt 0.851686 0.478345
vt 0.864400 0.253435
vt 0.993141 0.256679
vt 0.614468 0.834103
vt 0.620009 0.647403
vt 0.700124 0.498934
vt 0.698279 0.253435
vt 0.978390 0.956942
vt 0.956552 0.956942
vt 0.952084 0.936858
vt 0.978390 0.930014
vt 0.060463 0.173652
vt 0.026664 0.163247
vt 0.023212 0.024363
vt 0.092507 0.076885
vt 0.989100 0.826683
vt 0.993141 0.647403
vt 0.418049 0.822915
vt 0.447736 0.912504
vt 0.320996 0.929455
vt 0.270502 0.866264
vt 0.227187 0.438196
vt 0.156309 0.439089
vt 0.154010 0.256557
vt 0.224888 0.255664
vt 0.023212 0.286146
vt 0.123054 0.726712
vt 0.018026 0.754280
vt 0.018026 0.574955
vt 0.121615 0.572945
vt 0.069708 0.437562
vt 0.018977 0.437428
vt 0.061983 0.255664
vt 0.993141 0.060492
vt 0.881085 0.113663
vt 0.824996 0.040819
vt 0.480493 0.129447
vt 0.342029 0.135199
vt 0.346020 0.053319
vt 0.480796 0.052182
vt 0.623276 0.231987
vt 0.618984 0.123911
vt 0.885314 0.221714
vt 0.878561 0.907012
vt 0.917413 0.907012
vt 0.900399 0.947407
vt 0.878561 0.947407
vt 0.479356 0.486184
vt 0.532400 0.254091
vt 0.978390 0.928884
vt 0.950316 0.927462
vt 0.957538 0.900593
vt 0.978390 0.900593
vt 0.326700 0.245421
vt 0.396957 0.254824
vt 0.349666 0.472181
vt 0.254030 0.418824
vt 0.331204 0.008270
vt 0.300283 0.199590
vt 0.134234 0.223421
vt 0.093126 0.008270
vt 0.384722 0.556331
vt 0.464492 0.436013
vt 0.466667 0.554494
vt 0.878561 0.866617
vt 0.899413 0.866617
vt 0.492277 0.237226
vt 0.343344 0.643596
vt 0.425056 0.650512
vt 0.414789 0.986821
vt 0.330954 0.958429
vt 0.706523 0.636577
vt 0.695269 0.509760
vt 0.827469 0.513468
vt 0.837802 0.626641
vt 0.565045 0.945160
vt 0.567743 0.986821
vt 0.470179 0.310576
vt 0.461642 0.686312
vt 0.476892 0.765748
vt 0.290437 0.741262
vt 0.285128 0.686312
vt 0.978390 0.973714
vt 0.956552 0.973714
vt 0.939538 0.956942
vt 0.917413 0.947407
vt 0.978390 0.990487
vt 0.956552 0.990487
vt 1.000371 0.897276
vt 1.000371 0.912147
vt 0.980506 0.912147
vt 0.980506 0.897276
vt 0.938408 0.883028
vt 0.938408 0.902138
vt 0.918543 0.902138
vt 0.918543 0.883028
vt 1.000371 0.883238
vt 0.980506 0.883238
vt 0.936241 0.920763
vt 0.918543 0.920763
vt 0.997520 0.866617
vt 0.979520 0.866617
vt 0.917413 0.866617
vt 0.917413 0.886815
vt 0.939538 0.900591
vt 0.997520 0.928716
vt 0.979520 0.928716
vt 0.900832 0.982513
vt 0.884899 0.977680
vt 0.884505 0.951522
vt 0.900832 0.948537
vt 0.878561 0.965154
vt 0.978390 0.866617
vt 0.957538 0.866617
vt 0.918543 0.866617
vt 0.935556 0.866617
vt 0.918543 0.935280
vt 0.935556 0.935280
vt 0.925985 0.948537
vt 0.925985 0.965310
vt 0.901962 0.964554
vt 0.911468 0.948537
vt 0.925985 0.982082
vt 0.909575 0.982082
vt 0.575253 0.636577
vt 0.595215 0.551950
vt 0.361288 0.242609
vt 0.615991 0.048109
vt 0.254431 0.741899
vt 0.266771 0.574603
vt 0.485032 0.795285
vt 0.285434 0.794189
vt 0.993141 0.614028
vt 0.352025 0.008270
vt 0.483044 0.016068
vt 0.470179 0.656368
vt 0.614697 0.012926
vt 0.770473 0.008270
vt 0.991342 0.018808
vt 0.517422 0.880123
vt 0.520999 0.860990
vt 0.528077 0.864757
vt 0.519921 0.883922
vt 0.497902 0.835520
vt 0.505124 0.854397
vt 0.497258 0.855305
vt 0.494958 0.841226
vt 0.546422 0.860143
vt 0.543585 0.880777
vt 0.529093 0.861919
vt 0.531058 0.841804
vt 0.482569 0.907350
vt 0.477038 0.904372
vt 0.558264 0.846633
vt 0.585924 0.816225
vt 0.583645 0.842757
vt 0.568908 0.860355
vt 0.551124 0.748529
vt 0.555209 0.799256
vt 0.529129 0.797037
vt 0.529129 0.739481
vt 0.557249 0.846049
vt 0.529093 0.816225
vt 0.506139 0.893325
vt 0.506499 0.895570
vt 0.585924 0.856839
vt 0.572833 0.879419
vt 0.523611 0.784773
vt 0.499957 0.795808
vt 0.499957 0.742738
vt 0.525617 0.740838
vt 0.480995 0.816225
vt 0.477038 0.821528
vt 0.506139 0.819596
vt 0.512759 0.816225
vt 0.737093 0.897580
vt 0.752605 0.901153
vt 0.752605 0.917713
vt 0.737093 0.917713
vt 0.669500 0.900261
vt 0.676395 0.886366
vt 0.713454 0.892525
vt 0.716627 0.904513
vt 0.736121 0.930668
vt 0.748521 0.930668
vt 0.748521 0.945711
vt 0.736121 0.947142
vt 0.720080 0.931512
vt 0.717858 0.943796
vt 0.679819 0.948956
vt 0.671284 0.935520
vt 0.672935 0.949748
vt 0.721200 0.955243
vt 0.711918 0.971000
vt 0.660416 0.971000
vt 0.707142 0.884312
vt 0.669597 0.885575
vt 0.660416 0.871792
vt 0.698803 0.871792
vt 0.711918 0.918505
vt 0.660416 0.918505
vt 0.720872 0.930668
vt 0.720872 0.948956
vt 0.660416 0.917713
vt 0.708992 0.917713
vt 0.717418 0.893048
vt 0.717418 0.917713
vn 0.169200 0.962900 -0.210200
vn 0.141700 0.795800 0.588700
vn 0.189000 0.978800 -0.079500
vn 0.062200 0.976300 0.207100
vn 0.000000 -1.000000 0.000000
vn 0.788500 0.614100 -0.033700
vn 0.169800 0.953500 -0.249000
vn 0.817700 0.048400 0.573700
vn 0.052600 0.000000 -0.998600
vn 0.725000 0.688700 0.000000
vn 0.136500 0.978900 -0.152200
vn 0.045000 0.184700 -0.981800
vn 0.990500 0.126200 -0.054800
vn 0.987800 0.155500 0.002600
vn 0.985200 -0.171200 0.000000
vn 0.054300 0.996400 0.064900
vn 0.008200 -0.962100 -0.272700
vn 0.918300 -0.016400 -0.395700
vn 0.116100 0.886600 0.447700
vn 0.884300 0.459000 -0.085700
vn 0.987000 0.144700 0.070600
vn 0.835000 -0.102100 0.540700
vn 0.804700 0.593300 -0.018900
vn 0.868400 0.410700 0.278000
vn 0.033700 0.556900 -0.829900
vn 0.896500 0.258900 -0.359400
vn 0.232000 0.364000 0.902000
vn 0.000000 -0.898600 -0.438700
vn 0.000000 -0.917200 0.398400
vn 0.000000 -0.910900 0.412700
vn 0.000000 -0.860000 -0.510400
vn 0.000000 -0.331700 0.943400
vn 0.000000 -0.959700 -0.281000
vn 0.000000 -0.137700 -0.990500
vn 0.998100 -0.061100 -0.002200
vn 1.000000 0.000000 0.000000
vn 0.000000 -0.999100 -0.043000
vn 0.000000 0.000000 1.000000
vn 0.000000 0.000000 -1.000000
vn 0.801800 0.596900 0.027800
vn 0.986900 0.161600 0.000700
vn 0.082500 0.991700 0.098300
vn 0.308700 -0.289200 0.906100
vn 0.825000 0.565100 0.006900
vn 0.986500 0.164000 0.000300
vn 0.655500 0.754800 0.024100
vn 0.762300 0.642600 -0.077600
vn 0.627200 0.778800 0.006100
vn 0.649400 0.760300 0.010600
vn 0.709300 0.704600 0.020200
vn 0.145200 -0.545400 -0.825500
vn -0.137200 0.599600 0.788400
vn 0.745800 0.636800 -0.195700
vn -0.023400 0.548100 0.836100
vn -0.932100 -0.319800 0.169800
vn 0.064900 0.992800 0.100400
vn 0.943700 0.191600 -0.269500
vn 0.005000 -0.119300 -0.992800
vn -0.527200 -0.844100 0.098200
vn -0.068400 -0.993100 -0.095700
vn 0.019000 0.787400 0.616200
vn 0.074000 -0.496900 -0.864700
vn -0.939300 0.343000 0.000000
vn -0.467000 -0.004800 -0.884200
vn 0.892900 0.450200 0.000000
vn 0.499600 0.170800 0.849300
vn 0.178800 -0.983900 0.000000
vn 0.000000 1.000000 0.000000
vn 0.499500 -0.025900 0.865900
vn 0.921000 -0.389500 0.000000
vn -0.427900 0.166900 -0.888300
vn -0.169200 0.962900 -0.210200
vn -0.141700 0.795800 0.588700
vn -0.189000 0.978800 -0.079500
vn -0.062200 0.976300 0.207100
vn -0.788500 0.614100 -0.033700
vn -0.169800 0.953500 -0.249000
vn -0.817700 0.048400 0.573700
vn -0.052600 0.000000 -0.998600
vn -0.725000 0.688700 0.000000
vn -0.136500 0.978900 -0.152200
vn -0.045000 0.184700 -0.981800
vn -0.990500 0.126200 -0.054800
vn -0.987800 0.155500 0.002600
vn -0.985200 -0.171200 0.000000
vn -0.054300 0.996400 0.064900
vn -0.008200 -0.962100 -0.272700
vn -0.918300 -0.016400 -0.395700
vn -0.116100 0.886600 0.447700
vn -0.884300 0.459000 -0.085700
vn -0.987000 0.144700 0.070600
vn -0.835000 -0.102100 0.540700
vn -0.804700 0.593300 -0.018900
vn -0.868400 0.410700 0.278000
vn -0.033700 0.556900 -0.829900
vn -0.896500 0.258900 -0.359400
vn -0.232000 0.364000 0.902000
vn -0.998100 -0.061100 -0.002200
vn -1.000000 0.000000 0.000000
vn -0.801800 0.596900 0.027800
vn -0.986900 0.161600 0.000700
vn -0.082500 0.991700 0.098300
vn -0.308700 -0.289200 0.906100
vn -0.825000 0.565100 0.006900
vn -0.986500 0.164000 0.000300
vn -0.655500 0.754800 0.024100
vn -0.762300 0.642600 -0.077600
vn -0.627200 0.778800 0.006100
vn -0.649400 0.760300 0.010600
vn -0.709300 0.704600 0.020200
vn -0.145200 -0.545400 -0.825500
vn 0.137200 0.599600 0.788400
vn -0.745800 0.636800 -0.195700
vn 0.023400 0.548100 0.836100
vn 0.932100 -0.319800 0.169800
vn -0.064900 0.992800 0.100400
vn -0.943700 0.191600 -0.269500
vn -0.005000 -0.119300 -0.992800
vn 0.527200 -0.844100 0.098200
vn 0.068400 -0.993100 -0.095700
vn -0.019000 0.787400 0.616200
vn -0.074000 -0.496900 -0.864700
vn 0.939300 0.343000 0.000000
vn 0.467000 -0.004800 -0.884200
vn -0.892900 0.450200 0.000000
vn -0.499600 0.170800 0.849300
vn -0.178800 -0.983900 0.000000
vn -0.499500 -0.025900 0.865900
vn -0.921000 -0.389500 0.000000
vn 0.427900 0.166900 -0.888300
o supra_a80
usemtl supra_a80
f 1/1/1 2/2/1 3/3/1 4/4/1
f 5/5/2 6/6/2 7/7/2 8/8/2
f 2/2/3 9/9/3 10/10/3 3/3/3
f 6/6/4 11/11/4 12/12/4 7/7/4
f 13/13/5 14/14/5 15/15/5 16/16/5
f 17/17/6 1/18/6 18/19/6 19/20/6
f 18/21/7 1/1/7 4/4/7 20/22/7
f 21/23/8 22/24/8 23/25/8 15/26/8
f 24/27/9 25/28/9 26/29/9 27/30/9
f 2/31/10 1/18/10 17/17/10
f 28/32/11 18/33/11 20/34/11 29/35/11
f 30/36/12 10/37/12 9/38/12
f 31/39/13 32/40/13 33/41/13
f 34/42/14 35/43/14 36/44/14 37/45/14
f 38/46/15 39/47/15 32/40/15 40/48/15
f 41/49/5 38/50/5 42/51/5 43/52/5
f 11/11/16 44/53/16 45/54/16 12/12/16
f 24/55/17 27/56/17 46/57/17 47/58/17
f 27/59/18 26/60/18 48/61/18 49/62/18
f 44/63/19 50/64/19 51/65/19 45/66/19
f 52/67/20 48/61/20 2/68/20 17/69/20
f 53/70/5 54/71/5 38/50/5 41/49/5
f 55/72/15 34/42/15 39/47/15 38/46/15
f 35/73/21 52/67/21 36/74/21
f 23/25/22 22/24/22 6/75/22 5/76/22
f 56/77/23 28/78/23 50/79/23 57/80/23
f 22/24/24 31/81/24 11/82/24 6/75/24
f 26/29/25 25/28/25 30/36/25 9/38/25
f 48/61/26 26/60/26 9/83/26 2/68/26
f 15/84/27 23/85/27 58/86/27 16/87/27
f 59/88/5 60/89/5 14/14/5 13/13/5
f 15/15/5 14/14/5 21/90/5
f 42/51/5 38/50/5 40/91/5
f 43/92/5 42/93/5 60/89/5 59/88/5
f 52/94/28 35/95/28 61/96/28 62/97/28
f 32/98/29 31/99/29 63/100/29 64/101/29
f 48/102/30 52/94/30 62/97/30 65/103/30
f 31/99/31 22/104/31 66/105/31 63/100/31
f 49/106/32 48/102/32 65/103/32 46/107/32
f 38/50/5 54/71/5 67/108/5 55/109/5
f 46/57/33 27/56/33 49/110/33
f 67/111/34 54/112/34 61/96/34 35/95/34
f 46/113/35 65/114/35 61/115/35 54/116/35
f 62/117/36 61/115/36 65/114/36
f 53/118/37 47/58/37 46/57/37 54/119/37
f 32/98/38 64/101/38 42/120/38 40/121/38
f 14/122/39 66/105/39 22/104/39 21/123/39
f 14/124/36 60/125/36 63/126/36 66/127/36
f 60/125/36 42/128/36 64/129/36 63/126/36
f 19/130/40 18/131/40 28/78/40 56/77/40
f 67/132/15 35/43/15 34/42/15 55/72/15
f 39/47/41 34/42/41 37/45/41 68/133/41
f 50/134/42 28/32/42 29/35/42 51/135/42
f 58/86/43 23/85/43 5/136/43 8/137/43
f 44/138/44 57/80/44 50/79/44
f 32/40/45 39/47/45 68/133/45 33/41/45
f 37/45/46 36/44/46 19/139/46 56/140/46
f 36/74/47 52/67/47 17/69/47 19/141/47
f 33/41/48 68/133/48 57/142/48 44/143/48
f 68/133/49 37/45/49 56/140/49 57/142/49
f 33/41/50 44/143/50 11/144/50 31/39/50
f 69/145/51 70/146/51 71/147/51 72/148/51
f 73/149/52 74/150/52 75/151/52 76/152/52
f 72/153/53 71/154/53 74/155/53 73/156/53
f 75/151/54 74/150/54 77/157/54 78/158/54
f 79/159/55 80/160/55 76/161/55 69/162/55
f 71/163/56 81/164/56 77/165/56 74/166/56
f 82/167/57 72/153/57 73/156/57 83/168/57
f 79/169/58 69/145/58 72/148/58 82/170/58
f 69/162/59 76/161/59 75/171/59 70/172/59
f 70/173/60 75/174/60 78/175/60 84/176/60
f 83/177/61 73/149/61 76/152/61 80/178/61
f 84/179/62 81/180/62 71/147/62 70/146/62
f 85/181/63 86/182/63 87/183/63 88/184/63
f 88/185/64 87/186/64 89/187/64 90/188/64
f 90/189/65 89/190/65 91/191/65 92/192/65
f 92/193/66 91/194/66 86/195/66 85/196/66
f 93/197/67 94/198/67 95/199/67 96/200/67
f 89/201/68 87/202/68 86/203/68 91/204/68
f 95/205/69 92/193/69 85/196/69 96/206/69
f 94/207/70 90/189/70 92/192/70 95/208/70
f 93/209/71 88/185/71 90/188/71 94/210/71
f 96/211/63 85/181/63 88/184/63 93/212/63
f 97/1/72 4/4/72 3/3/72 98/2/72
f 99/5/73 8/8/73 7/7/73 100/6/73
f 98/2/74 3/3/74 10/10/74 101/9/74
f 100/6/75 7/7/75 12/12/75 102/11/75
f 13/13/5 16/16/5 103/15/5 104/14/5
f 105/17/76 106/20/76 107/19/76 97/18/76
f 107/21/77 20/22/77 4/4/77 97/1/77
f 108/23/78 103/26/78 109/25/78 110/24/78
f 24/27/79 111/30/79 112/29/79 25/28/79
f 98/31/80 105/17/80 97/18/80
f 113/32/81 29/35/81 20/34/81 107/33/81
f 30/36/82 101/38/82 10/37/82
f 114/39/83 115/41/83 116/40/83
f 117/42/84 118/45/84 119/44/84 120/43/84
f 121/46/85 122/48/85 116/40/85 123/47/85
f 41/49/5 43/52/5 124/51/5 121/50/5
f 102/11/86 12/12/86 45/54/86 125/53/86
f 24/55/87 47/58/87 126/57/87 111/56/87
f 111/59/88 127/62/88 128/61/88 112/60/88
f 125/63/89 45/66/89 51/65/89 129/64/89
f 130/67/90 105/69/90 98/68/90 128/61/90
f 53/70/5 41/49/5 121/50/5 131/71/5
f 132/72/85 121/46/85 123/47/85 117/42/85
f 120/73/91 119/74/91 130/67/91
f 109/25/92 99/76/92 100/75/92 110/24/92
f 133/77/93 134/80/93 129/79/93 113/78/93
f 110/24/94 100/75/94 102/82/94 114/81/94
f 112/29/95 101/38/95 30/36/95 25/28/95
f 128/61/96 98/68/96 101/83/96 112/60/96
f 103/84/97 16/87/97 58/86/97 109/85/97
f 59/88/5 13/13/5 104/14/5 135/89/5
f 103/15/5 108/90/5 104/14/5
f 124/51/5 122/91/5 121/50/5
f 43/92/5 59/88/5 135/89/5 124/93/5
f 130/94/28 136/97/28 137/96/28 120/95/28
f 116/98/29 138/101/29 139/100/29 114/99/29
f 128/102/30 140/103/30 136/97/30 130/94/30
f 114/99/31 139/100/31 141/105/31 110/104/31
f 127/106/32 126/107/32 140/103/32 128/102/32
f 121/50/5 132/109/5 142/108/5 131/71/5
f 126/57/33 127/110/33 111/56/33
f 142/111/34 120/95/34 137/96/34 131/112/34
f 126/113/98 131/116/98 137/115/98 140/114/98
f 136/117/99 140/114/99 137/115/99
f 53/118/37 131/119/37 126/57/37 47/58/37
f 116/98/38 122/121/38 124/120/38 138/101/38
f 104/122/39 108/123/39 110/104/39 141/105/39
f 104/124/99 141/127/99 139/126/99 135/125/99
f 135/125/99 139/126/99 138/129/99 124/128/99
f 106/130/100 133/77/100 113/78/100 107/131/100
f 142/132/85 132/72/85 117/42/85 120/43/85
f 123/47/101 143/133/101 118/45/101 117/42/101
f 129/134/102 51/135/102 29/35/102 113/32/102
f 58/86/103 8/137/103 99/136/103 109/85/103
f 125/138/104 129/79/104 134/80/104
f 116/40/105 115/41/105 143/133/105 123/47/105
f 118/45/106 133/140/106 106/139/106 119/44/106
f 119/74/107 106/141/107 105/69/107 130/67/107
f 115/41/108 125/143/108 134/142/108 143/133/108
f 143/133/109 134/142/109 133/140/109 118/45/109
f 115/41/110 114/39/110 102/144/110 125/143/110
f 144/145/111 145/148/111 146/147/111 147/146/111
f 148/149/112 149/152/112 150/151/112 151/150/112
f 145/153/113 148/156/113 151/155/113 146/154/113
f 150/151/114 78/158/114 77/157/114 151/150/114
f 152/159/115 144/162/115 149/161/115 153/160/115
f 146/163/116 151/166/116 77/165/116 81/164/116
f 154/167/117 155/168/117 148/156/117 145/153/117
f 152/169/118 154/170/118 145/148/118 144/145/118
f 144/162/119 147/172/119 150/171/119 149/161/119
f 147/173/120 84/176/120 78/175/120 150/174/120
f 155/177/121 153/178/121 149/152/121 148/149/121
f 84/179/122 147/146/122 146/147/122 81/180/122
f 156/181/123 157/184/123 158/183/123 159/182/123
f 157/185/124 160/188/124 161/187/124 158/186/124
f 160/189/125 162/192/125 163/191/125 161/190/125
f 162/193/126 156/196/126 159/195/126 163/194/126
f 164/197/127 165/200/127 166/199/127 167/198/127
f 161/201/68 163/204/68 159/203/68 158/202/68
f 166/205/128 165/206/128 156/196/128 162/193/128
f 167/207/129 166/208/129 162/192/129 160/189/129
f 164/209/130 167/210/130 160/188/130 157/185/130
f 165/211/123 164/212/123 157/184/123 156/181/123
