# PSX Racing car model — generated by tools/carmodels/export_models.mjs
mtllib supra_a80_wheels_r.mtl
v 0.931255 0.340615 -1.251064
v 0.931255 -0.009385 -1.251064
v 0.931255 0.093128 -1.498551
v 0.931255 0.340615 -1.601064
v 0.594562 0.093128 -1.003577
v 0.594562 0.340615 -0.901064
v 0.594562 0.340615 -1.251064
v 0.594562 -0.009385 -1.251064
v 0.594562 0.340615 -1.601064
v 0.594562 0.093128 -1.498551
v 0.931255 0.340615 -0.901064
v 0.931255 0.093128 -1.003577
v 0.594562 0.588102 -1.003577
v 0.594562 0.690615 -1.251064
v 0.931255 0.690615 -1.251064
v 0.931255 0.588102 -1.003577
v 0.594562 0.588102 -1.498551
v 0.931255 0.588102 -1.498551
v -0.931255 0.340615 -1.251064
v -0.931255 0.340615 -1.601064
v -0.931255 0.093128 -1.498551
v -0.931255 -0.009385 -1.251064
v -0.594562 0.093128 -1.003577
v -0.594562 -0.009385 -1.251064
v -0.594562 0.340615 -1.251064
v -0.594562 0.340615 -0.901064
v -0.594562 0.340615 -1.601064
v -0.594562 0.093128 -1.498551
v -0.931255 0.093128 -1.003577
v -0.931255 0.340615 -0.901064
v -0.594562 0.588102 -1.003577
v -0.594562 0.690615 -1.251064
v -0.931255 0.588102 -1.003577
v -0.931255 0.690615 -1.251064
v -0.594562 0.588102 -1.498551
v -0.931255 0.588102 -1.498551
vt 0.125000 0.875000
vt 0.175961 0.751969
vt 0.248031 0.824039
vt 0.248031 0.925961
vt 0.248031 0.824039
vt 0.248031 0.925961
vt 0.125000 0.875000
vt 0.175961 0.751969
vt 0.867390 0.906349
vt 0.847813 0.906349
vt 0.847813 0.890773
vt 0.867390 0.890773
vt 0.847813 0.875198
vt 0.867390 0.875198
vt 0.001969 0.824039
vt 0.074039 0.751969
vt 0.175961 0.998031
vt 0.074039 0.998032
vt 0.867390 0.999802
vt 0.847813 0.999802
vt 0.847813 0.984227
vt 0.867390 0.984227
vt 0.847813 0.968651
vt 0.867390 0.968651
vt 0.074039 0.998031
vt 0.001969 0.925961
vt 0.001969 0.925961
vt 0.847813 0.953076
vt 0.867390 0.953076
vt 0.847813 0.937500
vt 0.867390 0.937500
vt 0.847813 0.921924
vt 0.867390 0.921924
vt 0.074039 0.751969
vt 0.125000 0.875000
vt 0.248031 0.925961
vt 0.248031 0.824039
vt 0.175961 0.751969
vt 0.248031 0.824039
vt 0.175961 0.751969
vt 0.125000 0.875000
vt 0.248031 0.925961
vt 0.867390 0.906349
vt 0.867390 0.890773
vt 0.847813 0.890773
vt 0.847813 0.906349
vt 0.867390 0.875198
vt 0.847813 0.875198
vt 0.074039 0.751969
vt 0.001969 0.824039
vt 0.175961 0.998031
vt 0.074039 0.998032
vt 0.867390 0.999802
vt 0.867390 0.984227
vt 0.847813 0.984227
vt 0.847813 0.999802
vt 0.867390 0.968651
vt 0.847813 0.968651
vt 0.001969 0.925961
vt 0.074039 0.998031
vt 0.001969 0.925961
vt 0.867390 0.953076
vt 0.847813 0.953076
vt 0.867390 0.937500
vt 0.847813 0.937500
vt 0.867390 0.921924
vt 0.847813 0.921924
vt 0.074039 0.751969
vn 1.000000 0.000000 0.000000
vn -1.000000 0.000000 0.000000
vn 0.000000 -0.382700 -0.923900
vn 0.000000 -0.923900 -0.382700
vn 0.000000 -0.923900 0.382700
vn 0.000000 -0.382700 0.923900
vn 0.000000 0.382700 0.923900
vn 0.000000 0.923900 0.382700
vn 0.000000 0.923900 -0.382700
vn 0.000000 0.382700 -0.923900
vn -1.000000 0.000000 0.000000
vn 1.000000 0.000000 0.000000
vn 0.000000 -0.382700 -0.923900
vn 0.000000 -0.923900 -0.382700
vn 0.000000 -0.923900 0.382700
vn 0.000000 -0.382700 0.923900
vn 0.000000 0.382700 0.923900
vn 0.000000 0.923900 0.382700
vn 0.000000 0.923900 -0.382700
vn 0.000000 0.382700 -0.923900
o supra_a80_wheels_r
usemtl supra_a80_wheels_r
f 1/1/1 2/2/1 3/3/1 4/4/1
f 5/5/2 6/6/2 7/7/2 8/8/2
f 9/9/3 4/10/3 3/11/3 10/12/3
f 10/12/4 3/11/4 2/13/4 8/14/4
f 1/1/1 11/15/1 12/16/1 2/2/1
f 13/17/2 14/18/2 7/7/2 6/6/2
f 8/19/5 2/20/5 12/21/5 5/22/5
f 5/22/6 12/21/6 11/23/6 6/24/6
f 1/1/1 15/25/1 16/26/1 11/15/1
f 17/27/2 9/15/2 7/7/2 14/18/2
f 6/24/7 11/23/7 16/28/7 13/29/7
f 13/29/8 16/28/8 15/30/8 14/31/8
f 1/1/1 4/4/1 18/17/1 15/25/1
f 14/31/9 15/30/9 18/32/9 17/33/9
f 17/33/10 18/32/10 4/10/10 9/9/10
f 10/34/2 8/8/2 7/7/2 9/15/2
f 19/35/11 20/36/11 21/37/11 22/38/11
f 23/39/12 24/40/12 25/41/12 26/42/12
f 27/43/13 28/44/13 21/45/13 20/46/13
f 28/44/14 24/47/14 22/48/14 21/45/14
f 19/35/11 22/38/11 29/49/11 30/50/11
f 31/51/12 26/42/12 25/41/12 32/52/12
f 24/53/15 23/54/15 29/55/15 22/56/15
f 23/54/16 26/57/16 30/58/16 29/55/16
f 19/35/11 30/50/11 33/59/11 34/60/11
f 35/61/12 32/52/12 25/41/12 27/50/12
f 26/57/17 31/62/17 33/63/17 30/58/17
f 31/62/18 32/64/18 34/65/18 33/63/18
f 19/35/11 34/60/11 36/51/11 20/36/11
f 32/64/19 35/66/19 36/67/19 34/65/19
f 35/66/20 27/43/20 20/46/20 36/67/20
f 28/68/12 27/50/12 25/41/12 24/40/12
