# PSX Racing car model — generated by tools/carmodels/export_models.mjs
mtllib classic_van.mtl
v 0.003867 1.753702 -1.960770
v 0.000000 1.896371 -1.813099
v 0.351143 1.896371 -1.813099
v 0.351134 1.753702 -1.943303
v 0.756938 0.425565 1.938580
v 0.766416 0.748698 1.939614
v 0.346552 0.748698 2.088450
v 0.346552 0.424870 2.089487
v 0.000000 0.599916 -2.069425
v 0.000000 0.762304 -2.069425
v 0.351064 0.762304 -2.055678
v 0.351053 0.599916 -2.055678
v 0.743585 1.753702 1.218135
v 0.514571 1.905016 1.268976
v 0.692194 1.747968 1.494948
v 0.740359 0.452845 -1.985772
v 0.740359 0.599882 -1.985772
v 0.858702 0.604058 -1.536364
v 0.870000 0.452748 -1.676146
v 0.743585 1.753702 -1.519516
v 0.514759 1.920023 -1.519516
v 0.514759 1.937729 -1.332396
v 0.743585 1.753702 -1.332396
v 0.514759 1.936190 -0.994042
v 0.743585 1.753702 -0.994042
v 0.609351 1.753702 -1.893651
v 0.740359 0.762252 -1.985772
v 0.860443 0.761876 -1.528441
v 0.740359 1.187333 -1.985772
v 0.859572 1.187333 -1.528441
v 0.860443 0.761758 -1.332396
v 0.859303 1.187333 -1.332396
v 0.859303 1.187333 -0.994042
v 0.859303 0.761328 -0.994042
v 0.743585 1.753702 0.868107
v 0.859303 1.187333 1.342144
v 0.859303 1.187333 0.868107
v 0.859303 0.748698 1.337264
v 0.756938 1.187333 1.872591
v 0.000000 1.187333 -2.069425
v 0.351094 1.187333 -2.055677
v 0.346552 1.187333 2.027127
v 0.000000 1.211436 2.074795
v 0.000000 0.748698 2.088450
v 0.000000 1.969295 -1.519516
v 0.000000 1.987000 -1.332396
v 0.859303 0.760146 0.868107
v 0.000000 1.954288 1.268976
v 0.000000 1.857122 1.630008
v 0.350626 1.828852 1.587550
v 0.000000 0.424870 2.089487
v 0.000000 1.985462 -0.994042
v 0.514759 1.931958 0.868107
v 0.000000 0.452862 -2.069425
v 0.351042 0.452862 -2.055679
v 0.858702 0.599281 -0.994042
v 0.858702 0.610425 -1.332396
v 0.870000 0.297283 -0.785481
v 0.858702 0.598512 0.672262
v 0.858702 0.297283 0.549467
v 0.853335 0.431200 1.497610
v 0.000000 1.981229 0.868107
v 0.829674 0.430178 1.868839
v 0.719568 0.425838 2.011426
v 0.000000 0.297283 2.090496
v 0.346552 0.297283 2.090496
v 0.354341 0.297556 2.136417
v 0.000000 0.297556 2.136417
v 0.354341 0.425142 2.135409
v 0.000000 0.425142 2.135409
v 0.719568 0.297556 2.011426
v 0.829674 0.299309 1.868839
v 0.853335 0.297283 1.565363
v 0.475930 0.297283 0.549467
v 0.475930 0.598512 0.672262
v 0.475930 0.431200 1.497611
v 0.475930 0.297283 1.565363
v 0.475930 0.760146 0.868107
v 0.475930 0.748698 1.337264
v 0.719165 0.452862 -2.094333
v 0.353117 0.452862 -2.108667
v 0.811514 0.452845 -2.007005
v 0.353106 0.297283 -2.108667
v 0.719165 0.297283 -2.094333
v 0.004645 0.297283 -2.055679
v 0.351031 0.297283 -2.055679
v 0.855799 0.452748 -1.815681
v 0.717090 0.297283 -2.041345
v 0.811514 0.297283 -2.007005
v 0.855799 0.297283 -1.815681
v 0.870000 0.297283 -1.676146
v 0.475930 0.610425 -1.332396
v 0.475930 0.604058 -1.536364
v 0.475930 0.599281 -0.994042
v 0.475930 0.452748 -1.676146
v 0.475930 0.297283 -1.676146
v 0.475930 0.297283 -0.785481
v 0.000000 0.297283 1.565363
v 0.000000 0.297283 0.549467
v 0.000000 0.297283 -0.785481
v 0.000000 0.297283 -1.676146
v 0.972684 1.184351 1.637465
v 0.910315 1.219399 1.648832
v 0.972684 1.256187 1.646793
v 1.035053 1.221140 1.635426
v 0.995255 1.239127 1.722169
v 0.993866 1.259224 1.726118
v 0.756023 1.060097 1.768370
v 0.757411 1.040001 1.764421
v 0.972684 1.328024 1.656120
v 0.975806 1.324314 1.684687
v 1.038175 1.289267 1.673321
v 1.035053 1.292976 1.644753
v 0.975806 1.180642 1.666032
v 1.038175 1.217430 1.663993
v 0.994097 1.241672 1.669677
v 0.976649 1.231380 1.670696
v 0.959201 1.241185 1.676380
v 0.959201 1.261281 1.681043
v 0.913437 1.287526 1.686726
v 0.913437 1.215690 1.677399
v 0.910315 1.291235 1.658159
v 0.962327 1.258737 1.698597
v 0.963715 1.238640 1.694649
v 0.725872 1.039514 1.736901
v 0.724483 1.059610 1.740849
v 0.976649 1.271573 1.680024
v 0.994097 1.261768 1.674340
v 0.977402 1.269029 1.714332
v 0.980179 1.228836 1.706435
v 0.739558 1.069902 1.756584
v 0.742336 1.029709 1.748687
v -0.351031 0.297283 -2.055679
v -0.351042 0.452862 -2.055679
v -0.756938 0.425565 1.938580
v -0.346552 0.424870 2.089487
v -0.346552 0.748698 2.088450
v -0.766416 0.748698 1.939614
v -0.346419 0.762304 -2.055678
v -0.740359 0.762252 -1.985772
v -0.740359 1.187333 -1.985772
v -0.346449 1.187333 -2.055677
v -0.742030 1.753702 1.218135
v -0.690639 1.747968 1.494948
v -0.514571 1.905016 1.268976
v -0.740359 0.452845 -1.985772
v -0.870000 0.452748 -1.676146
v -0.870000 0.604058 -1.536364
v -0.740359 0.599882 -1.985772
v -0.742030 1.753702 -1.519516
v -0.742030 1.753702 -1.332396
v -0.514759 1.937729 -1.332396
v -0.514759 1.920023 -1.519516
v -0.742030 1.753702 -0.994042
v -0.514759 1.936190 -0.994042
v -0.607796 1.753702 -1.893651
v -0.351143 1.896371 -1.813099
v -0.870000 0.761876 -1.528441
v -0.870000 1.187333 -1.528441
v -0.859303 0.761758 -1.332396
v -0.859303 0.761328 -0.994042
v -0.859303 1.187333 -0.994042
v -0.859303 1.187333 -1.332396
v -0.742030 1.753702 0.868107
v -0.859303 1.187333 0.868107
v -0.859303 1.187333 1.342144
v -0.859303 0.748698 1.337264
v -0.756938 1.187333 1.872591
v -0.346489 1.753702 -1.943303
v -0.346552 1.187333 2.027127
v -0.859303 0.760146 0.868107
v -0.350626 1.828852 1.587550
v -0.514759 1.931958 0.868107
v -0.346408 0.599916 -2.055678
v -0.870000 0.610425 -1.332396
v -0.870000 0.599281 -0.994042
v -0.870000 0.297283 -0.785481
v -0.870000 0.297283 0.549467
v -0.870000 0.598512 0.672262
v -0.853335 0.431200 1.497610
v -0.829674 0.430178 1.868839
v -0.719568 0.425838 2.011426
v -0.354341 0.297556 2.136417
v -0.346552 0.297283 2.090496
v -0.354341 0.425142 2.135409
v -0.719568 0.297556 2.011426
v -0.829674 0.299309 1.868839
v -0.853335 0.297283 1.565363
v -0.475930 0.297283 0.549467
v -0.475930 0.297283 1.565363
v -0.475930 0.431200 1.497611
v -0.475930 0.598512 0.672262
v -0.475930 0.748698 1.337264
v -0.475930 0.760146 0.868107
v -0.353117 0.452862 -2.108667
v -0.719165 0.452862 -2.094333
v -0.811514 0.452845 -2.007005
v -0.353106 0.297283 -2.108667
v -0.719165 0.297283 -2.094333
v -0.855799 0.452748 -1.815681
v -0.717090 0.297283 -2.041345
v -0.811514 0.297283 -2.007005
v -0.855799 0.297283 -1.815681
v -0.870000 0.297283 -1.676146
v -0.475930 0.604058 -1.536364
v -0.475930 0.610425 -1.332396
v -0.475930 0.599281 -0.994042
v -0.475930 0.297283 -1.676146
v -0.475930 0.452748 -1.676146
v -0.475930 0.297283 -0.785481
v -0.972684 1.184351 1.637465
v -1.035053 1.221140 1.635426
v -0.972684 1.256187 1.646793
v -0.910315 1.219399 1.648832
v -0.995255 1.239127 1.722169
v -0.757411 1.040001 1.764421
v -0.756023 1.060097 1.768370
v -0.993866 1.259224 1.726118
v -0.972684 1.328024 1.656120
v -1.035053 1.292976 1.644753
v -1.038175 1.289267 1.673321
v -0.975806 1.324314 1.684687
v -0.975806 1.180642 1.666032
v -0.976649 1.231380 1.670696
v -0.994097 1.241672 1.669677
v -1.038175 1.217430 1.663993
v -0.959201 1.241185 1.676380
v -0.913437 1.215690 1.677399
v -0.913437 1.287526 1.686726
v -0.959201 1.261281 1.681043
v -0.910315 1.291235 1.658159
v -0.962327 1.258737 1.698597
v -0.724483 1.059610 1.740849
v -0.725872 1.039514 1.736901
v -0.963715 1.238640 1.694649
v -0.994097 1.261768 1.674340
v -0.976649 1.271573 1.680024
v -0.977402 1.269029 1.714332
v -0.980179 1.228836 1.706435
v -0.739558 1.069902 1.756584
v -0.742336 1.029709 1.748687
vt 0.848711 0.639010
vt 0.849580 0.681689
vt 0.770712 0.681689
vt 0.770714 0.639010
vt 0.178945 0.281103
vt 0.176876 0.353537
vt 0.078706 0.347474
vt 0.081249 0.276039
vt 0.938073 0.354291
vt 0.938073 0.393786
vt 0.816780 0.393786
vt 0.816784 0.354291
vt 0.994115 0.235334
vt 0.975553 0.237981
vt 0.990323 0.254298
vt 0.991147 0.674144
vt 0.990866 0.710296
vt 0.875872 0.712121
vt 0.908616 0.673480
vt 0.994190 0.050161
vt 0.975404 0.051138
vt 0.975000 0.063484
vt 0.994706 0.062932
vt 0.975168 0.085994
vt 0.994949 0.085874
vt 0.984777 0.024779
vt 0.965651 0.031709
vt 0.991144 0.750218
vt 0.874382 0.750798
vt 0.991147 0.855097
vt 0.875955 0.853809
vt 0.826482 0.751560
vt 0.828380 0.855228
vt 0.745831 0.857157
vt 0.743795 0.752917
vt 0.263918 1.000133
vt 0.178760 0.999816
vt 0.149785 0.858285
vt 0.264305 0.858230
vt 0.149596 0.752204
vt 0.026849 0.860814
vt 0.001635 0.754530
vt 0.938073 0.497160
vt 0.816770 0.497160
vt 0.174378 0.453679
vt 0.077667 0.442151
vt 0.003105 0.444780
vt 0.002128 0.346672
vt 0.942698 0.029260
vt 0.941028 0.049980
vt 0.940569 0.062695
vt 0.263982 0.754233
vt 0.940842 0.238938
vt 0.942350 0.262318
vt 0.966293 0.260774
vt 0.003592 0.274084
vt 0.940232 0.085710
vt 0.014734 0.649906
vt 0.003105 0.459905
vt 0.077667 0.457276
vt 0.092727 0.644010
vt 0.975847 1.000656
vt 0.878159 0.996068
vt 0.832575 0.997426
vt 0.749917 0.999794
vt 0.994638 0.211539
vt 0.975100 0.211240
vt 0.111195 0.997262
vt 0.937804 0.634910
vt 0.816756 0.634910
vt 0.938073 0.318525
vt 0.816788 0.318525
vt 0.743092 0.713185
vt 0.825921 0.714441
vt 0.667173 0.640297
vt 0.717941 0.713809
vt 0.312328 0.713622
vt 0.342219 0.640297
vt 0.001573 0.676055
vt 0.111177 0.675602
vt 0.151084 0.752204
vt 0.003123 0.754530
vt 0.717926 0.857037
vt 0.717861 0.999160
vt 0.264591 0.998953
vt 0.264978 0.857050
vt 0.940232 0.211623
vt 0.717941 0.753341
vt 0.264655 0.753053
vt 0.197926 0.331230
vt 0.197926 0.370761
vt 0.651212 0.370474
vt 0.603539 0.331042
vt 0.174378 0.468805
vt 0.178945 0.633042
vt 0.864742 0.238879
vt 0.904402 0.238292
vt 0.897121 0.243345
vt 0.911334 0.236368
vt 0.386424 0.096060
vt 0.386424 0.065609
vt 0.390459 0.064925
vt 0.390459 0.096060
vt 0.063386 0.250711
vt 0.063510 0.273132
vt 0.001241 0.273476
vt 0.001117 0.251055
vt 0.131222 0.250509
vt 0.131290 0.273053
vt 0.366948 0.023159
vt 0.379477 0.032833
vt 0.924667 0.205651
vt 0.930814 0.175827
vt 0.934766 0.176642
vt 0.928481 0.207136
vt 0.136896 0.251117
vt 0.190387 0.250602
vt 0.202334 0.274115
vt 0.136964 0.274115
vt 0.105304 0.273446
vt 0.105237 0.250903
vt 0.439067 0.097910
vt 0.412599 0.087120
vt 0.427300 0.014600
vt 0.439067 0.008646
vt 0.398396 0.069912
vt 0.399402 0.028689
vt 0.340282 0.054241
vt 0.340282 0.021080
vt 0.727543 0.634910
vt 0.682280 0.497160
vt 0.682280 0.393774
vt 0.682280 0.354283
vt 0.682280 0.318521
vt 0.712718 0.639010
vt 0.919348 0.073037
vt 0.888877 0.135512
vt 0.875676 0.121244
vt 0.911616 0.067834
vt 0.878483 0.143403
vt 0.816594 0.280941
vt 0.816591 0.319109
vt 0.726719 0.319109
vt 0.726719 0.280941
vt 0.938073 0.280686
vt 0.816792 0.280686
vt 0.919348 0.186021
vt 0.901028 0.169532
vt 0.176492 0.150676
vt 0.185811 0.150676
vt 0.185811 0.178016
vt 0.176492 0.178016
vt 0.023373 0.033051
vt 0.022113 0.065216
vt 0.017458 0.065033
vt 0.018717 0.032869
vt 0.764894 0.280100
vt 0.764894 0.319137
vt 0.715613 0.319113
vt 0.715613 0.280100
vt 0.055462 0.019616
vt 0.026390 0.024755
vt 0.043201 0.020864
vt 0.695537 0.319105
vt 0.695537 0.280941
vt 0.680416 0.319113
vt 0.680416 0.280100
vt 0.162891 0.029750
vt 0.180821 0.029750
vt 0.180821 0.064376
vt 0.162891 0.064376
vt 0.210568 0.029750
vt 0.210568 0.064376
vt 0.463386 0.108661
vt 0.434804 0.108661
vt 0.434804 0.074035
vt 0.463386 0.074035
vt 0.340003 0.107197
vt 0.326816 0.107197
vt 0.326816 0.074035
vt 0.340003 0.074035
vt 0.131131 0.029750
vt 0.144791 0.029750
vt 0.144791 0.064376
vt 0.131131 0.064376
vt 0.371256 0.107721
vt 0.371256 0.074035
vt 0.412492 0.107721
vt 0.412492 0.074035
vt 0.242816 0.029750
vt 0.242816 0.064376
vt 0.133722 0.019616
vt 0.251019 0.019616
vt 0.251019 0.054241
vt 0.133722 0.054241
vt 0.055462 0.054241
vt 0.259050 0.045783
vt 0.259050 0.032123
vt 0.318985 0.019248
vt 0.337310 0.045783
vt 0.271333 0.018828
vt 0.289255 0.018268
vt 0.340282 0.096060
vt 0.251019 0.096060
vt 0.133722 0.096060
vt 0.055462 0.096060
vt 0.022113 0.096060
vt 0.484974 0.004495
vt 0.515254 0.021977
vt 0.484974 0.039459
vt 0.454695 0.021977
vt 0.796690 0.065235
vt 0.793666 0.067202
vt 0.793666 0.012187
vt 0.796690 0.010220
vt 0.329774 0.139860
vt 0.329774 0.133207
vt 0.346407 0.133207
vt 0.346407 0.139860
vt 0.419023 0.127430
vt 0.419017 0.140175
vt 0.411398 0.135633
vt 0.411385 0.132082
vt 0.408209 0.130268
vt 0.405041 0.132041
vt 0.396938 0.127413
vt 0.408001 0.121052
vt 0.363039 0.133207
vt 0.363039 0.139860
vt 0.515254 0.056941
vt 0.484975 0.074423
vt 0.775662 0.007284
vt 0.778686 0.009252
vt 0.778686 0.064267
vt 0.775662 0.062299
vt 0.379671 0.133207
vt 0.379671 0.139860
vt 0.407981 0.146536
vt 0.396938 0.140172
vt 0.405057 0.135606
vt 0.408239 0.137408
vt 0.213351 0.161973
vt 0.213589 0.165591
vt 0.210253 0.165520
vt 0.210187 0.161913
vt 0.279877 0.139860
vt 0.279878 0.133207
vt 0.296510 0.133207
vt 0.296510 0.139860
vt 0.213317 0.158409
vt 0.207285 0.158829
vt 0.454695 0.056941
vt 0.313142 0.133207
vt 0.313142 0.139860
vt 0.213513 0.169246
vt 0.207285 0.168131
vt 0.772476 0.004494
vt 0.772476 0.059509
vt 0.216013 0.166931
vt 0.215491 0.170519
vt 0.206386 0.170839
vt 0.206781 0.167254
vt 0.215702 0.163380
vt 0.209398 0.163924
vt 0.214689 0.174086
vt 0.208642 0.174086
vt 0.799876 0.062445
vt 0.799876 0.007430
vt 0.789800 0.066379
vt 0.789800 0.011364
vt 0.782552 0.008429
vt 0.782552 0.063444
vt 0.994011 0.235339
vt 0.990217 0.254298
vt 0.975542 0.237982
vt 0.994086 0.050227
vt 0.994606 0.062994
vt 0.974988 0.063547
vt 0.975393 0.051206
vt 0.994849 0.085929
vt 0.975157 0.086048
vt 0.984679 0.024858
vt 0.965654 0.031782
vt 0.771408 0.639381
vt 0.712820 0.639381
vt 0.770364 0.681291
vt 0.941030 0.050044
vt 0.942702 0.029326
vt 0.940569 0.062755
vt 0.966293 0.260769
vt 0.942356 0.262318
vt 0.940843 0.238944
vt 0.940232 0.085763
vt 0.994537 0.211551
vt 0.975088 0.211252
vt 0.667175 0.640300
vt 0.342221 0.640300
vt 0.312330 0.713626
vt 0.717943 0.713813
vt 0.198749 0.473912
vt 0.651696 0.473925
vt 0.652083 0.615828
vt 0.198813 0.616035
vt 0.940232 0.211636
vt 0.198733 0.370216
vt 0.652019 0.369928
vt 0.198733 0.330684
vt 0.604346 0.330497
vt 0.352053 0.151590
vt 0.230761 0.151590
vt 0.230751 0.254964
vt 0.352053 0.254964
vt 0.849961 0.639381
vt 0.849094 0.681291
vt 0.213079 0.165401
vt 0.209914 0.165340
vt 0.209980 0.168947
vt 0.213317 0.169018
vt 0.213045 0.161837
vt 0.207012 0.162256
vt 0.207012 0.171559
vt 0.213240 0.172674
vn 0.017900 0.697700 -0.716200
vn 0.339600 -0.005000 0.940600
vn 0.039100 0.000000 -0.999200
vn 0.565900 0.815400 0.121900
vn 0.934900 0.179000 -0.306400
vn 0.607400 0.793500 -0.037500
vn 0.625100 0.780500 0.001800
vn 0.489400 0.836100 -0.247900
vn 0.967100 0.001000 -0.254300
vn 0.967400 0.001000 -0.253100
vn 1.000000 0.001300 0.001700
vn 1.000000 0.002400 0.000700
vn 0.979800 0.200200 0.000000
vn 0.985200 0.022700 0.169800
vn 0.339800 0.139700 0.930000
vn 0.071200 0.082700 0.994000
vn 0.055900 0.982600 -0.177200
vn 0.094900 0.991100 -0.093800
vn 1.000000 0.000000 0.000000
vn 0.099000 0.958200 0.268300
vn 0.000000 0.003200 1.000000
vn 0.095300 0.995400 0.004500
vn 0.147500 0.559800 0.815400
vn 0.931300 0.228400 -0.283900
vn 0.979700 0.200400 0.000700
vn 0.586100 0.809700 0.029200
vn 0.954600 0.234500 0.183500
vn 0.043800 0.191200 -0.980600
vn 1.000000 -0.007500 0.001600
vn 0.999900 -0.011300 0.000200
vn 0.999800 0.019300 0.003800
vn 0.983700 0.020700 0.178600
vn 0.095300 0.995400 0.002300
vn 0.619100 0.785300 0.000900
vn 1.000000 -0.003700 0.000000
vn 0.314200 0.544500 0.777700
vn 0.095100 0.993200 0.066800
vn -0.064600 0.997900 -0.001400
vn -0.130400 0.988900 -0.070600
vn 0.000000 -1.000000 0.005900
vn 0.000000 0.007900 1.000000
vn 0.322600 0.003700 0.946500
vn -0.001100 -1.000000 -0.008400
vn 0.000000 1.000000 -0.005900
vn -0.003700 1.000000 -0.005500
vn 0.997400 0.017900 0.069900
vn 0.791500 0.000000 0.611200
vn 0.003100 -1.000000 0.003000
vn 0.178100 0.194700 -0.964600
vn 0.176700 0.000000 -0.984300
vn 0.140600 0.667400 -0.731300
vn 0.000000 1.000000 0.000100
vn 0.019700 -0.043800 -0.998800
vn 0.000500 1.000000 0.000200
vn -0.999200 0.000100 -0.039100
vn 0.000000 -1.000000 0.000000
vn 0.974200 0.000000 -0.225500
vn 0.687100 0.000000 -0.726600
vn 0.994900 0.000000 -0.101200
vn 0.000000 -0.999500 0.031200
vn 0.000000 -0.999500 -0.032900
vn 0.000000 -0.377500 0.926000
vn 0.000000 -0.451400 -0.892300
vn 0.000000 0.000000 1.000000
vn 0.000000 -0.450800 -0.892600
vn 0.000000 -0.771300 0.636500
vn 0.000000 -0.568300 -0.822800
vn 0.000000 -0.678600 0.734500
vn 0.000000 -0.999700 -0.024400
vn -0.107700 0.128000 -0.985900
vn 0.303600 -0.163400 0.938700
vn 0.497100 0.865800 0.058100
vn 0.088700 -0.085800 0.992400
vn 0.071000 -0.150100 0.986100
vn 0.994200 0.013900 -0.106800
vn -0.303600 0.163400 -0.938700
vn 0.497100 -0.851900 -0.164900
vn 0.141800 -0.121100 0.982500
vn -0.977300 -0.076100 0.197600
vn -0.497100 -0.865800 -0.058100
vn -0.569700 0.812700 0.122300
vn -0.994200 -0.013900 0.106900
vn 0.085200 -0.079800 0.993200
vn -0.499600 -0.866200 -0.007200
vn -0.497100 0.851900 0.164900
vn -0.628600 0.771600 0.097600
vn 0.999300 0.036100 -0.007100
vn 0.080500 -0.150000 0.985400
vn 0.136500 -0.130400 0.982000
vn 0.557900 -0.826300 -0.077300
vn 0.493500 0.868400 0.048300
vn 0.628600 -0.771600 -0.097600
vn -0.280600 0.507900 0.814400
vn 0.280600 -0.507900 -0.814400
vn -0.019400 -0.044400 -0.998800
vn -0.339600 -0.005000 0.940600
vn -0.174700 0.000000 -0.984600
vn -0.568500 0.813500 0.122400
vn -0.935300 0.150100 -0.320300
vn -0.610000 0.791500 -0.037400
vn -0.627700 0.778500 0.001800
vn -0.491500 0.834600 -0.248800
vn -0.961400 0.006800 -0.275000
vn -0.962100 0.000000 -0.272700
vn -1.000000 0.000000 0.000000
vn -0.998500 0.000000 0.054500
vn -0.979200 0.202800 0.000000
vn -0.985200 0.022700 0.169800
vn -0.139400 0.665000 -0.733700
vn -0.339800 0.139700 0.930000
vn -0.071200 0.082700 0.994000
vn -0.055900 0.982600 -0.177200
vn -0.094900 0.991100 -0.093800
vn -0.099000 0.958200 0.268300
vn -0.095300 0.995400 0.004500
vn -0.147500 0.559800 0.815400
vn -0.925500 0.239100 -0.293700
vn -0.977000 0.211300 0.027300
vn -0.588700 0.807800 0.029100
vn -0.954000 0.237000 0.183400
vn -0.175700 0.002800 -0.984400
vn -0.997700 0.068100 0.001200
vn -0.999100 0.033900 0.026200
vn -0.983700 0.020700 0.178600
vn -0.095300 0.995400 0.002300
vn -0.621700 0.783300 0.000900
vn -0.997800 0.065900 0.000000
vn -0.314700 0.544700 0.777300
vn -0.095100 0.993200 0.066800
vn 0.064600 0.997900 -0.001400
vn 0.130400 0.988900 -0.070600
vn -0.322600 0.003700 0.946500
vn 0.001100 -1.000000 -0.008400
vn 0.003700 1.000000 -0.005500
vn -0.997400 0.017900 0.069900
vn -0.791500 0.000000 0.611200
vn -0.003100 -1.000000 0.003000
vn -0.176100 0.194800 -0.964900
vn -0.039400 0.000600 -0.999200
vn -0.043900 0.191500 -0.980500
vn -0.039700 0.000000 -0.999200
vn -0.039100 0.000000 -0.999200
vn -0.017800 0.697300 -0.716600
vn -0.000500 1.000000 0.000200
vn 0.999200 0.000100 -0.039100
vn -0.974200 0.000000 -0.225500
vn -0.687100 0.000000 -0.726600
vn -0.994900 0.000000 -0.101200
vn 0.107700 0.128000 -0.985900
vn -0.303600 -0.163400 0.938700
vn -0.497100 0.865800 0.058100
vn -0.088700 -0.085800 0.992400
vn -0.071000 -0.150100 0.986100
vn -0.994200 0.013900 -0.106800
vn 0.303600 0.163400 -0.938700
vn -0.497100 -0.851900 -0.164900
vn -0.141800 -0.121100 0.982500
vn 0.977300 -0.076100 0.197600
vn 0.497100 -0.865800 -0.058100
vn 0.569700 0.812700 0.122300
vn 0.994200 -0.013900 0.106900
vn -0.085200 -0.079800 0.993200
vn 0.499600 -0.866200 -0.007200
vn 0.497100 0.851900 0.164900
vn 0.628600 0.771600 0.097600
vn -0.999300 0.036100 -0.007100
vn -0.080500 -0.150000 0.985400
vn -0.136500 -0.130400 0.982000
vn -0.557900 -0.826300 -0.077300
vn -0.493500 0.868400 0.048300
vn -0.628600 -0.771600 -0.097600
vn 0.280600 0.507900 0.814400
vn -0.280600 -0.507900 -0.814400
vn 0.307600 0.877500 0.368100
vn -0.309000 0.876700 0.368600
o classic_van
usemtl classic_van
f 1/1/1 2/2/1 3/3/1 4/4/1
f 5/5/2 6/6/2 7/7/2 8/8/2
f 9/9/3 10/10/3 11/11/3 12/12/3
f 13/13/4 14/14/4 15/15/4
f 16/16/5 17/17/5 18/18/5 19/19/5
f 20/20/6 21/21/6 22/22/6 23/23/6
f 23/23/7 22/22/7 24/24/7 25/25/7
f 26/26/8 3/27/8 21/21/8 20/20/8
f 17/17/9 27/28/9 28/29/9 18/18/9
f 27/28/10 29/30/10 30/31/10 28/29/10
f 31/32/11 32/33/11 33/34/11 34/35/11
f 28/29/12 30/31/12 32/33/12 31/32/12
f 35/36/13 13/37/13 36/38/13 37/39/13
f 38/40/14 36/38/14 39/41/14 6/42/14
f 10/10/3 40/43/3 41/44/3 11/11/3
f 6/6/15 39/45/15 42/46/15 7/7/15
f 7/7/16 42/46/16 43/47/16 44/48/16
f 3/27/17 2/49/17 45/50/17 21/21/17
f 21/21/18 45/50/18 46/51/18 22/22/18
f 37/39/19 36/38/19 38/40/19 47/52/19
f 14/14/20 48/53/20 49/54/20 50/55/20
f 8/8/21 7/7/21 44/48/21 51/56/21
f 22/22/22 46/51/22 52/57/22 24/24/22
f 49/58/23 43/59/23 42/60/23 50/61/23
f 29/30/24 26/62/24 20/63/24 30/31/24
f 32/33/13 23/64/13 25/65/13 33/34/13
f 30/31/25 20/63/25 23/64/25 32/33/25
f 35/66/26 53/67/26 14/14/26 13/13/26
f 36/38/27 13/37/27 15/68/27 39/41/27
f 40/43/28 1/69/28 4/70/28 41/44/28
f 54/71/3 9/9/3 12/12/3 55/72/3
f 34/35/29 56/73/29 57/74/29 31/32/29
f 18/18/30 28/29/30 31/32/30 57/74/30
f 58/75/31 56/76/31 59/77/31 60/78/31
f 5/79/32 61/80/32 38/81/32 6/82/32
f 33/83/13 25/84/13 35/85/13 37/86/13
f 24/24/33 52/57/33 62/87/33 53/67/33
f 34/88/19 33/83/19 37/86/19 47/89/19
f 25/25/34 24/24/34 53/67/34 35/66/34
f 56/90/35 34/91/35 47/92/35 59/93/35
f 39/94/36 15/95/36 50/61/36 42/60/36
f 62/87/37 48/53/37 14/14/37 53/67/37
f 61/96/38 5/97/38 63/98/38
f 5/97/39 64/99/39 63/98/39
f 65/100/40 66/101/40 67/102/40 68/103/40
f 67/104/41 69/105/41 70/106/41 68/107/41
f 71/108/42 64/109/42 69/105/42 67/104/42
f 66/101/43 72/110/43 71/111/43 67/102/43
f 8/112/44 51/113/44 70/114/44 69/115/44
f 5/97/45 8/112/45 69/115/45 64/99/45
f 72/116/46 73/117/46 61/118/46 63/119/46
f 64/120/47 71/121/47 72/116/47 63/119/47
f 74/122/19 75/123/19 76/124/19 77/125/19
f 76/124/19 75/123/19 78/126/19 79/127/19
f 66/101/48 77/128/48 73/129/48 72/110/48
f 41/44/49 4/70/49 26/130/49 29/131/49
f 12/12/50 11/11/50 27/132/50 17/133/50
f 55/72/50 12/12/50 17/133/50 16/134/50
f 4/4/51 3/3/51 26/135/51
f 11/11/50 41/44/50 29/131/50 27/132/50
f 55/136/52 16/137/52 80/138/52 81/139/52
f 80/138/52 16/137/52 82/140/52
f 83/141/3 81/142/3 80/143/3 84/144/3
f 85/145/53 54/71/53 55/72/53 86/146/53
f 16/137/54 19/147/54 87/148/54 82/140/54
f 83/149/55 86/150/55 55/151/55 81/152/55
f 88/153/56 86/154/56 83/155/56 84/156/56
f 89/157/57 82/158/57 87/159/57 90/160/57
f 91/161/56 88/153/56 89/162/56 90/163/56
f 88/153/56 84/156/56 89/162/56
f 84/144/58 80/143/58 82/164/58 89/165/58
f 19/166/59 91/167/59 90/160/59 87/159/59
f 18/168/60 57/169/60 92/170/60 93/171/60
f 57/169/61 56/172/61 94/173/61 92/170/61
f 60/174/62 59/175/62 75/176/62 74/177/62
f 61/178/63 73/179/63 77/180/63 76/181/63
f 91/182/64 19/183/64 95/184/64 96/185/64
f 38/186/65 61/178/65 76/181/65 79/187/65
f 59/175/66 47/188/66 78/189/66 75/176/66
f 56/172/67 58/190/67 97/191/67 94/173/67
f 19/183/68 18/168/68 93/171/68 95/184/68
f 47/188/69 38/186/69 79/187/69 78/189/69
f 58/192/56 60/193/56 74/194/56 97/195/56
f 88/153/56 91/161/56 96/196/56 86/154/56
f 96/197/19 95/198/19 94/199/19 97/200/19
f 94/199/19 95/198/19 93/201/19 92/202/19
f 74/194/56 77/128/56 98/203/56 99/204/56
f 97/195/56 74/194/56 99/204/56 100/205/56
f 96/196/56 97/195/56 100/205/56 101/206/56
f 65/100/56 98/203/56 77/128/56 66/101/56
f 96/196/56 101/206/56 85/207/56 86/154/56
f 102/208/70 103/209/70 104/210/70 105/211/70
f 106/212/71 107/213/71 108/214/71 109/215/71
f 110/216/72 111/217/72 112/218/72 113/219/72
f 114/220/73 115/221/73 116/222/73 117/223/73
f 118/224/74 119/225/74 120/226/74 121/227/74
f 113/219/75 112/218/75 115/228/75 105/229/75
f 122/230/70 110/231/70 104/210/70 103/209/70
f 123/232/76 124/233/76 125/234/76 126/235/76
f 105/229/77 115/228/77 114/236/77 102/237/77
f 112/238/78 111/239/78 127/240/78 128/241/78
f 119/242/79 118/243/79 124/244/79 123/245/79
f 102/246/80 114/247/80 121/248/80 103/249/80
f 127/250/81 119/242/81 123/245/81 129/251/81
f 113/252/70 105/211/70 104/210/70 110/231/70
f 103/249/82 121/248/82 120/253/82 122/254/82
f 120/226/83 119/225/83 127/240/83 111/239/83
f 118/243/84 117/255/84 130/256/84 124/244/84
f 122/254/85 120/253/85 111/217/85 110/216/85
f 129/257/86 123/232/86 126/235/86 131/258/86
f 116/259/87 128/260/87 107/261/87 106/262/87
f 128/241/88 116/222/88 115/221/88 112/238/88
f 117/223/89 118/224/89 121/227/89 114/220/89
f 117/263/90 116/259/90 106/262/90 130/264/90
f 128/260/91 127/265/91 129/266/91 107/261/91
f 130/267/92 106/212/92 109/215/92 132/268/92
f 107/213/93 129/269/93 131/270/93 108/214/93
f 124/233/94 130/271/94 132/272/94 125/234/94
f 85/145/95 133/146/95 134/72/95 54/71/95
f 135/5/96 136/8/96 137/7/96 138/6/96
f 139/11/97 140/132/97 141/131/97 142/44/97
f 143/273/98 144/274/98 145/275/98
f 146/16/99 147/19/99 148/18/99 149/17/99
f 150/276/100 151/277/100 152/278/100 153/279/100
f 151/277/101 154/280/101 155/281/101 152/278/101
f 156/282/102 150/276/102 153/279/102 157/283/102
f 149/17/103 148/18/103 158/29/103 140/28/103
f 140/28/104 158/29/104 159/31/104 141/30/104
f 160/32/105 161/35/105 162/34/105 163/33/105
f 158/29/106 160/32/106 163/33/106 159/31/106
f 164/36/107 165/39/107 166/38/107 143/37/107
f 167/40/108 138/42/108 168/41/108 166/38/108
f 169/284/109 156/285/109 157/286/109
f 138/6/110 137/7/110 170/46/110 168/45/110
f 137/7/111 44/48/111 43/47/111 170/46/111
f 157/283/112 153/279/112 45/287/112 2/288/112
f 153/279/113 152/278/113 46/289/113 45/287/113
f 165/39/105 171/52/105 167/40/105 166/38/105
f 145/275/114 172/290/114 49/291/114 48/292/114
f 136/8/21 51/56/21 44/48/21 137/7/21
f 152/278/115 155/281/115 52/293/115 46/289/115
f 49/58/116 172/61/116 170/60/116 43/59/116
f 141/30/117 159/31/117 150/63/117 156/62/117
f 163/33/107 162/34/107 154/65/107 151/64/107
f 159/31/118 163/33/118 151/64/118 150/63/118
f 164/294/119 143/273/119 145/275/119 173/295/119
f 166/38/120 168/41/120 144/68/120 143/37/120
f 134/72/121 146/134/121 149/133/121 174/12/121
f 174/12/97 149/133/97 140/132/97 139/11/97
f 161/35/122 160/32/122 175/74/122 176/73/122
f 148/18/123 175/74/123 160/32/123 158/29/123
f 177/296/105 178/297/105 179/298/105 176/299/105
f 135/79/124 138/82/124 167/81/124 180/80/124
f 162/300/107 165/301/107 164/302/107 154/303/107
f 155/281/125 173/295/125 62/304/125 52/293/125
f 161/305/105 171/306/105 165/301/105 162/300/105
f 154/280/126 164/294/126 173/295/126 155/281/126
f 176/307/127 179/308/127 171/306/127 161/305/127
f 168/94/128 170/60/128 172/61/128 144/95/128
f 62/304/129 173/295/129 145/275/129 48/292/129
f 180/96/130 181/98/130 135/97/130
f 135/97/131 181/98/131 182/99/131
f 65/100/40 68/103/40 183/102/40 184/101/40
f 183/104/41 68/107/41 70/106/41 185/105/41
f 186/108/132 183/104/132 185/105/132 182/109/132
f 184/101/133 183/102/133 186/111/133 187/110/133
f 136/112/44 185/115/44 70/114/44 51/113/44
f 135/97/134 182/99/134 185/115/134 136/112/134
f 187/116/135 181/119/135 180/118/135 188/117/135
f 182/120/136 181/119/136 187/116/136 186/121/136
f 189/122/105 190/125/105 191/124/105 192/123/105
f 191/124/105 193/127/105 194/126/105 192/123/105
f 184/101/137 187/110/137 188/129/137 190/128/137
f 142/44/138 141/131/138 156/130/138 169/70/138
f 54/71/139 134/72/139 174/12/139 9/9/139
f 40/43/140 142/44/140 169/70/140 1/69/140
f 10/309/141 139/310/141 142/311/141 40/312/141
f 9/9/141 174/12/141 139/11/141 10/10/141
f 134/136/52 195/139/52 196/138/52 146/137/52
f 196/138/52 197/140/52 146/137/52
f 198/141/142 199/144/142 196/143/142 195/142/142
f 1/313/143 169/284/143 157/286/143 2/314/143
f 146/137/144 197/140/144 200/148/144 147/147/144
f 198/149/145 195/152/145 134/151/145 133/150/145
f 201/153/56 199/156/56 198/155/56 133/154/56
f 202/157/146 203/160/146 200/159/146 197/158/146
f 204/161/56 203/163/56 202/162/56 201/153/56
f 201/153/56 202/162/56 199/156/56
f 199/144/147 202/165/147 197/164/147 196/143/147
f 147/166/148 200/159/148 203/160/148 204/167/148
f 148/168/60 205/171/60 206/170/60 175/169/60
f 175/169/61 206/170/61 207/173/61 176/172/61
f 178/174/62 189/177/62 192/176/62 179/175/62
f 180/178/63 191/181/63 190/180/63 188/179/63
f 204/182/64 208/185/64 209/184/64 147/183/64
f 167/186/65 193/187/65 191/181/65 180/178/65
f 179/175/66 192/176/66 194/189/66 171/188/66
f 176/172/67 207/173/67 210/191/67 177/190/67
f 147/183/68 209/184/68 205/171/68 148/168/68
f 171/188/69 194/189/69 193/187/69 167/186/69
f 177/192/56 210/195/56 189/194/56 178/193/56
f 201/153/56 133/154/56 208/196/56 204/161/56
f 208/197/105 210/200/105 207/199/105 209/198/105
f 207/199/105 206/202/105 205/201/105 209/198/105
f 189/194/56 99/204/56 98/203/56 190/128/56
f 210/195/56 100/205/56 99/204/56 189/194/56
f 208/196/56 101/206/56 100/205/56 210/195/56
f 65/100/56 184/101/56 190/128/56 98/203/56
f 208/196/56 133/154/56 85/207/56 101/206/56
f 211/208/149 212/211/149 213/210/149 214/209/149
f 215/212/150 216/215/150 217/214/150 218/213/150
f 219/216/151 220/219/151 221/218/151 222/217/151
f 223/220/152 224/223/152 225/222/152 226/221/152
f 227/224/153 228/227/153 229/226/153 230/225/153
f 220/219/154 212/229/154 226/228/154 221/218/154
f 231/230/149 214/209/149 213/210/149 219/231/149
f 232/232/155 233/235/155 234/234/155 235/233/155
f 212/229/156 211/237/156 223/236/156 226/228/156
f 221/238/157 236/241/157 237/240/157 222/239/157
f 230/315/158 232/316/158 235/317/158 227/318/158
f 211/246/159 214/249/159 228/248/159 223/247/159
f 237/319/160 238/320/160 232/316/160 230/315/160
f 220/252/149 219/231/149 213/210/149 212/211/149
f 214/249/161 231/254/161 229/253/161 228/248/161
f 229/226/162 222/239/162 237/240/162 230/225/162
f 227/318/163 235/317/163 239/321/163 224/322/163
f 231/254/164 219/216/164 222/217/164 229/253/164
f 238/257/165 240/258/165 233/235/165 232/232/165
f 225/259/166 215/262/166 218/261/166 236/260/166
f 236/241/167 221/238/167 226/221/167 225/222/167
f 224/223/168 223/220/168 228/227/168 227/224/168
f 224/263/169 239/264/169 215/262/169 225/259/169
f 236/260/170 218/261/170 238/266/170 237/265/170
f 239/267/171 241/268/171 216/215/171 215/212/171
f 218/213/172 217/214/172 240/270/172 238/269/172
f 235/233/173 234/234/173 241/272/173 239/271/173
f 15/15/174 14/14/174 50/55/174
f 145/275/175 144/274/175 172/290/175
