# PSX Racing car model — generated by tools/carmodels/export_models.mjs
mtllib classic_van_wheels_r.mtl
v 0.609543 0.694257 -1.294379
v 0.781228 0.694257 -1.294379
v 0.781228 0.592253 -1.540638
v 0.609543 0.592253 -1.540638
v 0.781228 0.345994 -1.642642
v 0.609543 0.345994 -1.642642
v 0.781228 0.099734 -1.540638
v 0.609543 0.099734 -1.540638
v 0.781228 -0.002270 -1.294379
v 0.609543 -0.002270 -1.294379
v 0.781228 0.099734 -1.048120
v 0.609543 0.099734 -1.048120
v 0.781228 0.345994 -0.946116
v 0.609543 0.345994 -0.946116
v 0.781228 0.345994 -1.294379
v 0.781228 0.592253 -1.048120
v 0.609543 0.592253 -1.048120
v 0.609543 0.345994 -1.294379
v -0.609543 0.694257 -1.294379
v -0.609543 0.592253 -1.540638
v -0.781228 0.592253 -1.540638
v -0.781228 0.694257 -1.294379
v -0.609543 0.345994 -1.642642
v -0.781228 0.345994 -1.642642
v -0.609543 0.099734 -1.540638
v -0.781228 0.099734 -1.540638
v -0.609543 -0.002270 -1.294379
v -0.781228 -0.002270 -1.294379
v -0.609543 0.099734 -1.048120
v -0.781228 0.099734 -1.048120
v -0.609543 0.345994 -0.946116
v -0.781228 0.345994 -0.946116
v -0.781228 0.345994 -1.294379
v -0.609543 0.592253 -1.048120
v -0.781228 0.592253 -1.048120
v -0.609543 0.345994 -1.294379
vt 0.485618 0.162547
vt 0.498442 0.162547
vt 0.498442 0.182456
vt 0.485618 0.182456
vt 0.498442 0.202366
vt 0.485618 0.202366
vt 0.498442 0.222276
vt 0.485618 0.222276
vt 0.498442 0.242185
vt 0.485618 0.242185
vt 0.485618 0.082908
vt 0.498442 0.082908
vt 0.498442 0.102818
vt 0.485618 0.102818
vt 0.498442 0.122727
vt 0.485618 0.122727
vt 0.754306 0.079551
vt 0.754306 0.173235
vt 0.641221 0.126393
vt 0.688063 0.013307
vt 0.498442 0.142637
vt 0.485618 0.142637
vt 0.528126 0.079549
vt 0.641212 0.126390
vt 0.594370 0.239476
vt 0.528126 0.173232
vt 0.528135 0.079551
vt 0.594379 0.239478
vt 0.528135 0.173234
vt 0.594379 0.013307
vt 0.688062 0.239479
vt 0.754297 0.173232
vt 0.688053 0.239476
vt 0.594370 0.013305
vt 0.688053 0.013305
vt 0.754297 0.079549
vt 0.485618 0.162547
vt 0.485618 0.182456
vt 0.498442 0.182456
vt 0.498442 0.162547
vt 0.485618 0.202366
vt 0.498442 0.202366
vt 0.485618 0.222276
vt 0.498442 0.222276
vt 0.485618 0.242185
vt 0.498442 0.242185
vt 0.485618 0.082908
vt 0.485618 0.102818
vt 0.498442 0.102818
vt 0.498442 0.082908
vt 0.485618 0.122727
vt 0.498442 0.122727
vt 0.754306 0.079551
vt 0.688063 0.013307
vt 0.641221 0.126393
vt 0.754306 0.173235
vt 0.485618 0.142637
vt 0.498442 0.142637
vt 0.528126 0.079549
vt 0.528126 0.173232
vt 0.594370 0.239476
vt 0.641212 0.126390
vt 0.528135 0.079551
vt 0.528135 0.173234
vt 0.594379 0.239478
vt 0.594379 0.013307
vt 0.688062 0.239479
vt 0.688053 0.239476
vt 0.754297 0.173232
vt 0.688053 0.013305
vt 0.594370 0.013305
vt 0.754297 0.079549
vn 0.000000 0.923900 -0.382700
vn 0.000000 0.382700 -0.923900
vn 0.000000 -0.382700 -0.923900
vn 0.000000 -0.923900 -0.382700
vn 0.000000 -0.923900 0.382700
vn 0.000000 -0.382700 0.923900
vn 1.000000 0.000000 0.000000
vn 0.000000 0.382700 0.923900
vn 0.000000 0.923900 0.382700
vn -1.000000 0.000000 0.000000
vn 0.000000 0.923900 -0.382700
vn 0.000000 0.382700 -0.923900
vn 0.000000 -0.382700 -0.923900
vn 0.000000 -0.923900 -0.382700
vn 0.000000 -0.923900 0.382700
vn 0.000000 -0.382700 0.923900
vn -1.000000 0.000000 0.000000
vn 0.000000 0.382700 0.923900
vn 0.000000 0.923900 0.382700
vn 1.000000 0.000000 0.000000
o classic_van_wheels_r
usemtl classic_van_wheels_r
f 1/1/1 2/2/1 3/3/1 4/4/1
f 4/4/2 3/3/2 5/5/2 6/6/2
f 6/6/3 5/5/3 7/7/3 8/8/3
f 8/8/4 7/7/4 9/9/4 10/10/4
f 10/11/5 9/12/5 11/13/5 12/14/5
f 12/14/6 11/13/6 13/15/6 14/16/6
f 3/17/7 2/18/7 15/19/7 5/20/7
f 14/16/8 13/15/8 16/21/8 17/22/8
f 17/22/9 16/21/9 2/2/9 1/1/9
f 1/23/10 18/24/10 14/25/10 17/26/10
f 9/27/7 15/19/7 13/28/7 11/29/7
f 5/20/7 15/19/7 9/27/7 7/30/7
f 13/28/7 15/19/7 2/18/7 16/31/7
f 14/25/10 18/24/10 10/32/10 12/33/10
f 18/24/10 1/23/10 4/34/10 6/35/10
f 10/32/10 18/24/10 6/35/10 8/36/10
f 19/37/11 20/38/11 21/39/11 22/40/11
f 20/38/12 23/41/12 24/42/12 21/39/12
f 23/41/13 25/43/13 26/44/13 24/42/13
f 25/43/14 27/45/14 28/46/14 26/44/14
f 27/47/15 29/48/15 30/49/15 28/50/15
f 29/48/16 31/51/16 32/52/16 30/49/16
f 21/53/17 24/54/17 33/55/17 22/56/17
f 31/51/18 34/57/18 35/58/18 32/52/18
f 34/57/19 19/37/19 22/40/19 35/58/19
f 19/59/20 34/60/20 31/61/20 36/62/20
f 28/63/17 30/64/17 32/65/17 33/55/17
f 24/54/17 26/66/17 28/63/17 33/55/17
f 32/65/17 35/67/17 22/56/17 33/55/17
f 31/61/20 29/68/20 27/69/20 36/62/20
f 36/62/20 23/70/20 20/71/20 19/59/20
f 27/69/20 25/72/20 23/70/20 36/62/20
