# PSX Racing car model — generated by tools/carmodels/export_models.mjs
mtllib mustang_67_wheels_r.mtl
v -0.645410 0.069670 -1.534009
v -0.645410 0.316191 -1.636122
v -0.645410 0.316191 -1.287489
v -0.645410 -0.032442 -1.287489
v -0.854590 0.316191 -1.287489
v -0.854590 0.316191 -1.636122
v -0.854590 0.069670 -1.534009
v -0.854590 -0.032442 -1.287489
v -0.645410 0.069670 -1.040969
v -0.645410 0.316191 -0.938857
v -0.854590 0.069670 -1.040969
v -0.854590 0.316191 -0.938857
v -0.645410 0.562711 -1.040969
v -0.645410 0.664823 -1.287489
v -0.854590 0.562711 -1.040969
v -0.854590 0.664823 -1.287489
v -0.645410 0.562711 -1.534009
v -0.854590 0.562711 -1.534009
v 0.645410 0.069670 -1.534009
v 0.645410 -0.032442 -1.287489
v 0.645410 0.316191 -1.287489
v 0.645410 0.316191 -1.636122
v 0.854590 0.316191 -1.287489
v 0.854590 -0.032442 -1.287489
v 0.854590 0.069670 -1.534009
v 0.854590 0.316191 -1.636122
v 0.645410 0.069670 -1.040969
v 0.645410 0.316191 -0.938857
v 0.854590 0.316191 -0.938857
v 0.854590 0.069670 -1.040969
v 0.645410 0.562711 -1.040969
v 0.645410 0.664823 -1.287489
v 0.854590 0.664823 -1.287489
v 0.854590 0.562711 -1.040969
v 0.645410 0.562711 -1.534009
v 0.854590 0.562711 -1.534009
vt 0.006692 0.924086
vt 0.075413 0.992808
vt 0.124007 0.875493
vt 0.006692 0.826899
vt 0.123999 0.875507
vt 0.172592 0.992822
vt 0.241314 0.924100
vt 0.241314 0.826913
vt 0.075413 0.758178
vt 0.172600 0.758178
vt 0.989853 0.669900
vt 0.989853 0.656401
vt 0.979271 0.656401
vt 0.979271 0.669900
vt 0.989853 0.642903
vt 0.979271 0.642903
vt 0.172592 0.758192
vt 0.075405 0.758192
vt 0.241322 0.826899
vt 0.241322 0.924086
vt 0.989853 0.750889
vt 0.989853 0.737390
vt 0.979271 0.737390
vt 0.979271 0.750889
vt 0.989853 0.723892
vt 0.979271 0.723892
vt 0.006684 0.826913
vt 0.006684 0.924100
vt 0.172600 0.992808
vt 0.989853 0.710394
vt 0.979271 0.710394
vt 0.989853 0.696896
vt 0.979271 0.696896
vt 0.075405 0.992822
vt 0.989853 0.683398
vt 0.979271 0.683398
vt 0.006692 0.924086
vt 0.006692 0.826899
vt 0.124007 0.875493
vt 0.075413 0.992808
vt 0.123999 0.875507
vt 0.241314 0.826913
vt 0.241314 0.924100
vt 0.172592 0.992822
vt 0.075413 0.758178
vt 0.172600 0.758178
vt 0.989853 0.669900
vt 0.979271 0.669900
vt 0.979271 0.656401
vt 0.989853 0.656401
vt 0.979271 0.642903
vt 0.989853 0.642903
vt 0.075405 0.758192
vt 0.172592 0.758192
vt 0.241322 0.826899
vt 0.241322 0.924086
vt 0.989853 0.750889
vt 0.979271 0.750889
vt 0.979271 0.737390
vt 0.989853 0.737390
vt 0.979271 0.723892
vt 0.989853 0.723892
vt 0.006684 0.924100
vt 0.006684 0.826913
vt 0.172600 0.992808
vt 0.979271 0.710394
vt 0.989853 0.710394
vt 0.979271 0.696896
vt 0.989853 0.696896
vt 0.075405 0.992822
vt 0.979271 0.683398
vt 0.989853 0.683398
vn 1.000000 0.000000 0.000000
vn -1.000000 0.000000 0.000000
vn 0.000000 -0.382700 -0.923900
vn 0.000000 -0.923900 -0.382700
vn 0.000000 -0.923900 0.382700
vn 0.000000 -0.382700 0.923900
vn 0.000000 0.382700 0.923900
vn 0.000000 0.923900 0.382700
vn 0.000000 0.923900 -0.382700
vn 0.000000 0.382700 -0.923900
vn -1.000000 0.000000 0.000000
vn 1.000000 0.000000 0.000000
vn 0.000000 -0.382700 -0.923900
vn 0.000000 -0.923900 -0.382700
vn 0.000000 -0.923900 0.382700
vn 0.000000 -0.382700 0.923900
vn 0.000000 0.382700 0.923900
vn 0.000000 0.923900 0.382700
vn 0.000000 0.923900 -0.382700
vn 0.000000 0.382700 -0.923900
o mustang_67_wheels_r
usemtl mustang_67_wheels_r
f 1/1/1 2/2/1 3/3/1 4/4/1
f 5/5/2 6/6/2 7/7/2 8/8/2
f 9/9/1 4/4/1 3/3/1 10/10/1
f 2/11/3 1/12/3 7/13/3 6/14/3
f 1/12/4 4/15/4 8/16/4 7/13/4
f 5/5/2 8/8/2 11/17/2 12/18/2
f 13/19/1 10/10/1 3/3/1 14/20/1
f 4/21/5 9/22/5 11/23/5 8/24/5
f 9/22/6 10/25/6 12/26/6 11/23/6
f 5/5/2 12/18/2 15/27/2 16/28/2
f 17/29/1 14/20/1 3/3/1 2/2/1
f 10/25/7 13/30/7 15/31/7 12/26/7
f 13/30/8 14/32/8 16/33/8 15/31/8
f 5/5/2 16/28/2 18/34/2 6/6/2
f 14/32/9 17/35/9 18/36/9 16/33/9
f 17/35/10 2/11/10 6/14/10 18/36/10
f 19/37/11 20/38/11 21/39/11 22/40/11
f 23/41/12 24/42/12 25/43/12 26/44/12
f 27/45/11 28/46/11 21/39/11 20/38/11
f 22/47/13 26/48/13 25/49/13 19/50/13
f 19/50/14 25/49/14 24/51/14 20/52/14
f 23/41/12 29/53/12 30/54/12 24/42/12
f 31/55/11 32/56/11 21/39/11 28/46/11
f 20/57/15 24/58/15 30/59/15 27/60/15
f 27/60/16 30/59/16 29/61/16 28/62/16
f 23/41/12 33/63/12 34/64/12 29/53/12
f 35/65/11 22/40/11 21/39/11 32/56/11
f 28/62/17 29/61/17 34/66/17 31/67/17
f 31/67/18 34/66/18 33/68/18 32/69/18
f 23/41/12 26/44/12 36/70/12 33/63/12
f 32/69/19 33/68/19 36/71/19 35/72/19
f 35/72/20 36/71/20 26/48/20 22/47/20
