# PSX Racing car model — generated by tools/carmodels/export_models.mjs
mtllib mustang_67.mtl
v 0.427497 0.811457 2.262321
v 0.427497 0.897060 2.083027
v 0.000000 0.897060 2.104081
v 0.000000 0.814268 2.272813
v 0.741210 0.910616 0.396701
v 0.741210 0.893722 -0.667485
v 0.582634 1.268618 -0.841487
v 0.643831 1.309257 -0.026137
v 0.865584 0.681572 1.282979
v 0.860208 0.693183 1.559273
v 0.434003 0.693183 1.559273
v 0.434003 0.681572 1.282979
v 0.864606 0.809284 0.676598
v 0.741210 0.919033 0.598033
v 0.503461 1.356778 -0.046121
v 0.475084 1.316400 -0.841489
v 0.000000 1.334208 -0.841492
v 0.000000 1.392613 -0.049094
v 0.435000 0.983443 0.676667
v 0.435000 1.328509 0.195197
v 0.000000 1.339107 0.229109
v 0.000000 0.983443 0.676667
v 0.853630 0.809778 1.381055
v 0.427497 0.783212 2.183225
v 0.000000 0.784705 2.202115
v 0.761471 0.878710 1.466233
v 0.773222 0.855323 1.969771
v 0.432792 0.951087 1.560521
v 0.432792 0.277074 1.035943
v 0.744595 0.330062 0.676667
v 0.740180 0.330062 1.014052
v 0.870000 0.472436 0.676667
v 0.870000 0.648253 0.676667
v 0.865584 0.472436 1.068736
v 0.427497 0.598611 2.148691
v 0.000000 0.598611 2.164097
v 0.434003 0.472436 1.068736
v 0.435000 0.520844 -2.294416
v 0.435000 0.811457 -2.285227
v 0.813568 0.774917 -2.186056
v 0.825275 0.518866 -2.187335
v 0.435000 0.369273 -2.149096
v 0.705132 0.422261 -2.127478
v 0.870000 0.692993 -1.386424
v 0.434003 0.692993 -1.386424
v 0.434003 0.511018 -1.648489
v 0.870000 0.511018 -1.648489
v 0.816257 0.589049 1.916396
v 0.840040 0.763011 1.933895
v 0.829236 0.761311 2.062898
v 0.812883 0.598772 2.028753
v 0.829236 0.800418 2.134585
v 0.864606 0.788776 -0.966167
v 0.790614 0.986664 -0.927888
v 0.744595 0.394824 -1.750215
v 0.435000 0.341836 -1.750215
v 0.807366 0.861333 -2.159231
v 0.514114 0.920758 -2.130915
v 0.774221 0.982925 -1.329692
v 0.864606 0.790224 -1.394384
v 0.000000 0.369273 -2.191840
v 0.000000 0.520844 -2.294416
v 0.000000 0.811457 -2.285227
v 0.000000 0.951087 1.582411
v 0.530769 0.589049 2.312541
v 0.857331 0.589049 2.133825
v 0.556459 1.285057 0.137779
v 0.000000 0.910084 -2.233269
v 0.000000 0.277074 1.057833
v 0.427497 0.327807 1.859329
v 0.000000 0.297925 1.972060
v 0.870000 0.641830 -1.075482
v 0.434003 0.641339 -1.075430
v 0.435000 0.319785 -0.923888
v 0.000000 0.319785 -0.923887
v 0.857104 0.467396 1.811700
v 0.434003 0.467396 1.811700
v 0.870000 0.499533 -0.972851
v 0.434003 0.499533 -0.972851
v 0.744595 0.372773 -0.923888
v 0.854994 0.371180 1.841074
v 0.737660 0.961147 0.189396
v 0.737660 1.048634 0.189396
v 0.737660 1.048634 0.163150
v 0.737660 0.961147 0.163150
v 0.884925 1.048634 0.163150
v 0.884925 0.961147 0.163150
v 0.884925 1.048634 0.189396
v 0.884925 0.961147 0.189396
v 0.832516 0.985193 0.230281
v 0.832516 1.024588 0.230281
v 0.790069 1.024588 0.230281
v 0.790069 0.985193 0.230281
v 0.829805 0.968298 0.201555
v 0.819186 0.978042 0.218122
v 0.767769 0.864854 0.309187
v 0.766324 0.850514 0.292619
v 0.792780 0.968298 0.201555
v 0.803398 0.978042 0.218122
v 0.758315 0.877498 0.309187
v 0.744152 0.880167 0.292619
v 0.485293 0.528694 2.186792
v 0.000000 0.528910 2.221714
v 0.816257 0.529049 1.916396
v 0.876256 0.589049 1.916671
v 0.876256 0.529049 1.916671
v 0.530769 0.529049 2.312541
v 0.000000 0.589049 2.367784
v 0.000000 0.529049 2.367784
v 0.808775 0.529049 2.098580
v 0.857331 0.529049 2.133825
v -0.427497 0.811457 2.262321
v -0.427497 0.897060 2.083027
v -0.741210 0.910616 0.396701
v -0.643831 1.309257 -0.026137
v -0.582634 1.268618 -0.841487
v -0.741210 0.893722 -0.667485
v -0.865584 0.681572 1.282979
v -0.434003 0.681572 1.282979
v -0.434003 0.693183 1.559273
v -0.860208 0.693183 1.559273
v -0.864606 0.809284 0.676598
v -0.741210 0.919033 0.598033
v -0.503461 1.356778 -0.046121
v -0.475084 1.316400 -0.841489
v -0.435000 0.983443 0.676667
v -0.435000 1.328509 0.195197
v -0.853630 0.809778 1.381055
v -0.427497 0.783212 2.183225
v -0.761471 0.878710 1.466233
v -0.432792 0.951087 1.560521
v -0.773222 0.855323 1.969771
v -0.432792 0.277074 1.035943
v -0.740180 0.330062 1.014052
v -0.744595 0.330062 0.676667
v -0.870000 0.472436 0.676667
v -0.865584 0.472436 1.068736
v -0.870000 0.648253 0.676667
v -0.427497 0.598611 2.148691
v -0.434003 0.472436 1.068736
v -0.435000 0.520844 -2.294416
v -0.825275 0.518866 -2.187335
v -0.813568 0.774917 -2.186056
v -0.435000 0.811457 -2.285227
v -0.435000 0.369273 -2.149096
v -0.705132 0.422261 -2.127478
v -0.870000 0.692993 -1.386424
v -0.870000 0.511018 -1.648489
v -0.434003 0.511018 -1.648489
v -0.434003 0.692993 -1.386424
v -0.816257 0.589049 1.916396
v -0.812883 0.598772 2.028753
v -0.829236 0.761311 2.062898
v -0.840040 0.763011 1.933895
v -0.829236 0.800418 2.134585
v -0.864606 0.788776 -0.966167
v -0.790614 0.986664 -0.927888
v -0.435000 0.341836 -1.750215
v -0.744595 0.394824 -1.750215
v -0.807366 0.861333 -2.159231
v -0.864606 0.790224 -1.394384
v -0.774221 0.982925 -1.329692
v -0.514114 0.920758 -2.130915
v -0.857331 0.589049 2.133825
v -0.530769 0.589049 2.312541
v -0.556459 1.285057 0.137779
v -0.427497 0.327807 1.859329
v -0.870000 0.641830 -1.075482
v -0.434003 0.641339 -1.075430
v -0.435000 0.319785 -0.923888
v -0.434003 0.467396 1.811700
v -0.857104 0.467396 1.811700
v -0.870000 0.499533 -0.972851
v -0.434003 0.499533 -0.972851
v -0.744595 0.372773 -0.923888
v -0.854994 0.371180 1.841074
v -0.737660 0.961147 0.189396
v -0.737660 0.961147 0.163150
v -0.737660 1.048634 0.163150
v -0.737660 1.048634 0.189396
v -0.884925 0.961147 0.163150
v -0.884925 1.048634 0.163150
v -0.884925 0.961147 0.189396
v -0.884925 1.048634 0.189396
v -0.832516 0.985193 0.230281
v -0.790069 0.985193 0.230281
v -0.790069 1.024588 0.230281
v -0.832516 1.024588 0.230281
v -0.829805 0.968298 0.201555
v -0.766324 0.850514 0.292619
v -0.767769 0.864854 0.309187
v -0.819186 0.978042 0.218122
v -0.792780 0.968298 0.201555
v -0.803398 0.978042 0.218122
v -0.758315 0.877498 0.309187
v -0.744152 0.880167 0.292619
v -0.485293 0.528694 2.186792
v -0.816257 0.529049 1.916396
v -0.876256 0.529049 1.916671
v -0.876256 0.589049 1.916671
v -0.530769 0.529049 2.312541
v -0.808775 0.529049 2.098580
v -0.857331 0.529049 2.133825
v 0.000000 0.519378 -2.321930
v 0.000000 0.579378 -2.321930
v 0.439089 0.579378 -2.324982
v 0.439089 0.519378 -2.324982
v 0.439089 0.579378 -2.124982
v 0.863331 0.579378 -2.021210
v 0.863331 0.579378 -2.221210
v 0.439089 0.519378 -2.124982
v 0.000000 0.519378 -2.121930
v 0.000000 0.579378 -2.121930
v 0.863331 0.519378 -2.221210
v 0.863331 0.519378 -2.021210
v -0.439089 0.519378 -2.324982
v -0.439089 0.579378 -2.324982
v -0.863331 0.579378 -2.221210
v -0.863331 0.579378 -2.021210
v -0.439089 0.579378 -2.124982
v -0.439089 0.519378 -2.124982
v -0.863331 0.519378 -2.221210
v -0.863331 0.519378 -2.021210
vt 0.443851 0.552405
vt 0.482574 0.551603
vt 0.481556 0.634874
vt 0.444828 0.636006
vt 0.521073 0.309946
vt 0.909478 0.303780
vt 0.972985 0.440609
vt 0.675400 0.455442
vt 0.923958 0.665621
vt 0.923272 0.656698
vt 0.933825 0.658133
vt 0.933468 0.662715
vt 0.339763 0.114671
vt 0.403611 0.137786
vt 0.357685 0.139706
vt 0.327410 0.885995
vt 0.488153 0.887449
vt 0.490380 0.983780
vt 0.329397 0.987942
vt 0.899686 0.473771
vt 0.899686 0.617091
vt 0.784142 0.615025
vt 0.784142 0.473771
vt 0.201441 0.085538
vt 0.179068 0.114784
vt 0.138415 0.088187
vt 0.385739 0.786840
vt 0.383284 0.803751
vt 0.297118 0.796671
vt 0.298775 0.781267
vt 0.159638 0.130508
vt 0.499286 0.482236
vt 0.598149 0.478123
vt 0.584383 0.545156
vt 0.768805 0.472387
vt 0.757458 0.534732
vt 0.915674 0.720983
vt 0.923233 0.712332
vt 0.923158 0.720430
vt 0.339748 0.037832
vt 0.339748 0.077938
vt 0.250312 0.037832
vt 0.190963 0.619011
vt 0.190963 0.701043
vt 0.000995 0.701706
vt 0.000995 0.619011
vt 0.928380 0.673499
vt 0.937017 0.667174
vt 0.233762 0.381673
vt 0.233762 0.527707
vt 0.043530 0.509346
vt 0.037647 0.380679
vt 0.233762 0.305508
vt 0.098019 0.332135
vt 0.951819 0.655880
vt 0.941354 0.655875
vt 0.941357 0.648218
vt 0.951822 0.648222
vt 0.056951 0.064433
vt 0.052959 0.104116
vt 0.023532 0.103728
vt 0.031321 0.066651
vt 0.339748 0.005355
vt 0.262786 0.005355
vt 0.007179 0.112649
vt 0.044775 0.125173
vt 0.714497 0.109993
vt 0.705765 0.155133
vt 0.646364 0.133932
vt 0.915702 0.644496
vt 0.922316 0.644922
vt 0.923247 0.654003
vt 0.915708 0.654092
vt 0.085744 0.313019
vt 0.006360 0.141982
vt 0.125162 0.184385
vt 0.548154 0.256485
vt 0.473994 0.262418
vt 0.503215 0.051714
vt 0.528548 0.063799
vt 0.194007 0.582631
vt 0.046647 0.552770
vt 0.993060 0.048423
vt 0.992768 0.106831
vt 0.810363 0.088144
vt 0.870143 0.046633
vt 0.979406 0.026386
vt 0.893348 0.020128
vt 0.308475 0.182679
vt 0.674012 0.154317
vt 0.552887 0.660450
vt 0.562606 0.987783
vt 0.535824 0.981834
vt 0.905260 0.643479
vt 0.452351 0.305508
vt 0.452351 0.381673
vt 0.452351 0.527707
vt 0.362219 0.619082
vt 0.369485 0.691310
vt 0.584479 0.630185
vt 0.471118 0.777413
vt 0.468398 0.793431
vt 0.830868 0.874180
vt 0.797594 0.865064
vt 0.811119 0.800229
vt 0.831377 0.802373
vt 0.981022 0.469398
vt 0.931948 0.614721
vt 0.762339 0.620187
vt 0.322742 0.856174
vt 0.488065 0.863509
vt 0.452351 0.577268
vt 0.905286 0.721511
vt 0.915554 0.740783
vt 0.905260 0.743460
vt 0.464702 0.472387
vt 0.951815 0.663443
vt 0.941351 0.663442
vt 0.915714 0.673933
vt 0.905273 0.673936
vt 0.927808 0.646141
vt 0.938133 0.652809
vt 0.951811 0.667654
vt 0.941346 0.667643
vt 0.948797 0.670913
vt 0.941355 0.672114
vt 0.941346 0.643479
vt 0.948813 0.644514
vt 0.950004 0.691974
vt 0.945880 0.689642
vt 0.945723 0.673423
vt 0.950004 0.672134
vt 0.941346 0.683470
vt 0.942386 0.675975
vt 0.941327 0.669694
vt 0.933954 0.674885
vt 0.941327 0.650458
vt 0.929763 0.643479
vt 0.288378 0.872615
vt 0.278226 0.899545
vt 0.704853 0.015098
vt 0.716022 0.044013
vt 0.739433 0.076473
vt 0.271870 0.987942
vt 0.923253 0.673903
vt 0.447591 0.313018
vt 0.615574 0.446609
vt 0.812178 0.110323
vt 0.797421 0.154280
vt 0.680910 0.637047
vt 0.680910 0.990000
vt 0.962285 0.908492
vt 0.962285 0.936766
vt 0.953803 0.936766
vt 0.953803 0.908492
vt 0.769334 0.399540
vt 0.769334 0.427814
vt 0.721742 0.427814
vt 0.721742 0.399540
vt 0.983767 0.880168
vt 0.983767 0.908442
vt 0.975285 0.908442
vt 0.975285 0.880168
vt 0.937756 0.932525
vt 0.950487 0.932525
vt 0.950487 0.946243
vt 0.937756 0.946243
vt 0.913844 0.932525
vt 0.913844 0.980117
vt 0.905361 0.980117
vt 0.905361 0.932525
vt 0.937705 0.932525
vt 0.937705 0.980117
vt 0.929223 0.980117
vt 0.929223 0.932525
vt 0.983767 0.916263
vt 0.983767 0.928995
vt 0.953803 0.900671
vt 0.953803 0.887939
vt 0.953753 0.880168
vt 0.951686 0.886957
vt 0.901884 0.887251
vt 0.901447 0.880168
vt 0.913894 0.963180
vt 0.913894 0.949462
vt 0.900803 0.962304
vt 0.900803 0.950338
vt 0.894591 0.953770
vt 0.894591 0.958872
vt 0.890032 0.963180
vt 0.890032 0.949462
vt 0.951249 0.887302
vt 0.949626 0.892139
vt 0.903428 0.892003
vt 0.901447 0.887302
vt 0.901687 0.927606
vt 0.901446 0.920514
vt 0.945311 0.920993
vt 0.947885 0.927606
vt 0.901039 0.927781
vt 0.890032 0.932474
vt 0.890032 0.880168
vt 0.901396 0.883916
vt 0.886643 0.174149
vt 0.898836 0.252964
vt 0.796457 0.258206
vt 0.796457 0.186507
vt 0.850355 0.796216
vt 0.850355 0.785541
vt 0.861030 0.785541
vt 0.861030 0.796216
vt 0.738604 0.890552
vt 0.749279 0.890552
vt 0.749279 0.985492
vt 0.738604 0.985492
vt 0.767654 0.937091
vt 0.797546 0.949694
vt 0.793760 0.959675
vt 0.758754 0.942986
vt 0.850306 0.947762
vt 0.815587 0.958283
vt 0.749328 0.877430
vt 0.773117 0.877690
vt 0.749279 0.824322
vt 0.738604 0.824322
vt 0.976829 0.177895
vt 0.967079 0.239858
vt 0.080833 0.036682
vt 0.056951 0.050746
vt 0.738604 0.785541
vt 0.749279 0.785541
vt 0.850306 0.795694
vt 0.847011 0.785541
vt 0.074133 0.014734
vt 0.015393 0.050746
vt 0.797546 0.794646
vt 0.773205 0.785541
vt 0.986649 0.126544
vt 0.772240 0.978358
vt 0.766664 0.978358
vt 0.766664 0.937550
vt 0.772240 0.937550
vt 0.813942 0.923380
vt 0.795887 0.918964
vt 0.795887 0.878375
vt 0.813942 0.882791
vt 0.782227 0.962950
vt 0.772256 0.923380
vt 0.790311 0.918964
vt 0.800282 0.958534
vt 0.803970 0.962950
vt 0.785916 0.958534
vt 0.772240 0.896961
vt 0.766663 0.896961
vt 0.766663 0.878375
vt 0.772240 0.878375
vt 0.790311 0.878375
vt 0.772256 0.882791
vn 0.019000 0.900000 0.435500
vn 0.957400 0.286000 -0.039900
vn 0.000000 -0.999100 0.042000
vn 0.675100 0.737000 -0.030800
vn 0.054800 0.996500 -0.063000
vn 0.033200 0.797900 0.601800
vn 0.996600 0.080700 0.016000
vn 0.007700 -0.932900 0.360000
vn 0.638400 0.769600 0.015700
vn 0.188100 0.979500 0.072700
vn 0.220400 0.974700 0.038200
vn 0.170000 -0.985400 0.002200
vn 0.999900 -0.005000 0.009000
vn 0.039000 -0.191900 0.980600
vn 0.000000 -0.715600 0.698500
vn 0.260200 0.024100 -0.965300
vn 0.190600 -0.678700 -0.709300
vn 0.000000 -0.821400 0.570400
vn 0.989900 -0.127600 0.062400
vn 0.749500 -0.661900 0.009100
vn 0.876200 0.480100 -0.042300
vn 0.998400 0.056400 0.010300
vn 0.916400 0.289100 0.277000
vn 0.182100 -0.980100 -0.078600
vn 0.805300 0.493300 0.328800
vn 0.528900 0.842500 -0.102400
vn 0.170100 0.634400 -0.754000
vn 0.995100 0.069000 -0.070600
vn 0.661000 -0.745100 -0.089400
vn 0.560400 0.791700 -0.243400
vn 0.392200 0.882700 -0.259000
vn 0.006700 -0.997600 -0.068600
vn 0.038000 -0.632600 -0.773600
vn 0.000000 0.031600 -0.999500
vn 0.281100 -0.199000 0.938800
vn 0.005100 0.994700 0.103000
vn 0.088100 -0.909500 0.406300
vn 0.024200 0.998000 0.058300
vn 0.360200 0.777100 0.516100
vn 0.000900 0.999300 0.036100
vn 0.362700 0.929500 -0.066900
vn 0.070000 0.689000 -0.721400
vn 0.041100 -0.998300 0.041300
vn 0.177000 0.920900 0.347200
vn 0.000500 -0.986600 -0.163100
vn -0.014200 -0.999300 -0.034100
vn 0.000000 -0.745300 -0.666700
vn 0.000300 -0.585500 -0.810600
vn 0.022200 -0.312400 -0.949700
vn 0.042100 -0.592100 0.804800
vn 1.000000 0.005700 0.000100
vn 1.000000 0.000000 0.000000
vn 0.047700 -0.267200 0.962500
vn -0.004600 -0.310300 -0.950600
vn 0.999700 -0.022900 0.004000
vn -0.000500 -0.999800 -0.021700
vn 0.349500 0.902600 0.251300
vn 0.730200 -0.683100 -0.014700
vn 0.999400 0.035100 -0.000300
vn 0.054100 0.985300 0.162200
vn 0.640800 0.767600 -0.010600
vn 0.154800 -0.987700 -0.023600
vn 0.807600 0.548400 0.216900
vn 0.919700 0.392100 -0.019200
vn 0.798500 0.600700 -0.038200
vn 0.999100 0.042900 0.003100
vn 0.037100 0.955800 -0.291700
vn -1.000000 0.000000 0.000000
vn 0.000000 0.000000 -1.000000
vn 0.000000 0.000000 1.000000
vn 0.000000 -1.000000 0.000000
vn 0.000000 1.000000 0.000000
vn -0.615100 0.000000 0.788500
vn 0.615100 0.000000 0.788500
vn 0.914300 -0.162200 0.371100
vn 0.000000 0.862000 0.507000
vn 0.000000 -0.862000 0.507000
vn 0.274900 0.548700 0.789500
vn -0.658800 0.665600 0.350600
vn -0.274900 -0.548700 -0.789500
vn 0.121000 -0.800500 0.586900
vn 0.004600 0.000000 -1.000000
vn 0.103500 0.000000 0.994600
vn 0.003800 0.998700 0.050900
vn 0.001200 -1.000000 0.001500
vn 0.480100 0.000000 0.877200
vn 0.122600 -0.847100 0.517100
vn 0.968300 0.159500 0.192500
vn 0.996200 0.000000 0.086800
vn 0.114200 0.993200 -0.021600
vn 0.997900 -0.026600 0.058700
vn 0.728600 0.683300 0.046600
vn 0.975700 0.179400 0.125800
vn -0.000100 -1.000000 0.001800
vn 0.995400 0.069600 -0.065500
vn -0.019000 0.900000 0.435500
vn -0.957400 0.286000 -0.039900
vn -0.675100 0.737000 -0.030800
vn -0.054800 0.996500 -0.063000
vn -0.033200 0.797900 0.601800
vn -0.996600 0.080700 0.016000
vn -0.007700 -0.932900 0.360000
vn -0.638400 0.769600 0.015700
vn -0.188100 0.979500 0.072700
vn -0.220400 0.974700 0.038200
vn -0.170000 -0.985400 0.002200
vn -0.999900 -0.005000 0.009000
vn -0.039000 -0.191900 0.980600
vn -0.260200 0.024100 -0.965300
vn -0.190600 -0.678700 -0.709300
vn -0.989900 -0.127600 0.062400
vn -0.749500 -0.661900 0.009100
vn -0.876200 0.480100 -0.042300
vn -0.998400 0.056400 0.010300
vn -0.916400 0.289100 0.277000
vn -0.182100 -0.980100 -0.078600
vn -0.805300 0.493300 0.328800
vn -0.528900 0.842500 -0.102400
vn -0.170100 0.634400 -0.754000
vn -0.995100 0.069000 -0.070600
vn -0.661000 -0.745100 -0.089400
vn -0.560400 0.791700 -0.243400
vn -0.392200 0.882700 -0.259000
vn -0.006700 -0.997600 -0.068600
vn -0.038000 -0.632600 -0.773600
vn -0.281100 -0.199000 0.938800
vn -0.005100 0.994700 0.103000
vn -0.088100 -0.909500 0.406300
vn -0.024200 0.998000 0.058300
vn -0.360200 0.777100 0.516100
vn -0.000900 0.999300 0.036100
vn -0.362700 0.929500 -0.066900
vn -0.070000 0.689000 -0.721400
vn -0.041100 -0.998300 0.041300
vn -0.177000 0.920900 0.347200
vn -0.000500 -0.986600 -0.163100
vn 0.014200 -0.999300 -0.034100
vn -0.000300 -0.585500 -0.810600
vn -0.022200 -0.312400 -0.949700
vn -0.042100 -0.592100 0.804800
vn -1.000000 0.005700 0.000100
vn -0.047700 -0.267200 0.962500
vn 0.004600 -0.310300 -0.950600
vn -0.999700 -0.022900 0.004000
vn 0.000500 -0.999800 -0.021700
vn -0.349500 0.902600 0.251300
vn -0.730200 -0.683100 -0.014700
vn -0.999400 0.035100 -0.000300
vn -0.054100 0.985300 0.162200
vn -0.640800 0.767600 -0.010600
vn -0.154800 -0.987700 -0.023600
vn -0.807600 0.548400 0.216900
vn -0.919700 0.392100 -0.019200
vn -0.798500 0.600700 -0.038200
vn -0.999100 0.042900 0.003100
vn -0.037100 0.955800 -0.291700
vn -0.914300 -0.162200 0.371100
vn -0.274900 0.548700 0.789500
vn 0.658800 0.665600 0.350600
vn 0.274900 -0.548700 -0.789500
vn -0.121000 -0.800500 0.586900
vn -0.004600 0.000000 -1.000000
vn -0.103500 0.000000 0.994600
vn -0.003800 0.998700 0.050900
vn -0.001200 -1.000000 0.001500
vn -0.480100 0.000000 0.877200
vn -0.122600 -0.847100 0.517100
vn -0.968300 0.159500 0.192500
vn -0.996200 0.000000 0.086800
vn -0.114200 0.993200 -0.021600
vn -0.997900 -0.026600 0.058700
vn -0.728600 0.683300 0.046600
vn -0.975700 0.179400 0.125800
vn 0.000100 -1.000000 0.001800
vn -0.995400 0.069600 -0.065500
vn -0.007000 0.000000 -1.000000
vn 0.000000 1.000000 0.000000
vn 0.000000 -1.000000 0.000000
vn 1.000000 0.000000 0.000000
vn 0.237600 0.000000 -0.971400
vn -0.237600 0.000000 0.971400
vn 0.007000 0.000000 -1.000000
vn -1.000000 0.000000 0.000000
vn -0.237600 0.000000 -0.971400
vn 0.237600 0.000000 0.971400
o mustang_67
usemtl mustang_67
f 1/1/1 2/2/1 3/3/1 4/4/1
f 5/5/2 6/6/2 7/7/2 8/8/2
f 9/9/3 10/10/3 11/11/3 12/12/3
f 13/13/4 5/14/4 14/15/4
f 15/16/5 16/17/5 17/18/5 18/19/5
f 19/20/6 20/21/6 21/22/6 22/23/6
f 9/24/7 23/25/7 10/26/7
f 24/27/8 1/28/8 4/29/8 25/30/8
f 14/15/9 26/31/9 23/25/9 13/13/9
f 2/2/10 27/32/10 26/33/10 28/34/10
f 28/34/11 26/33/11 14/35/11 19/36/11
f 29/37/12 30/38/12 31/39/12
f 32/40/13 33/41/13 9/24/13 34/42/13
f 35/43/14 24/44/14 25/45/14 36/46/14
f 34/47/15 9/9/15 12/12/15 37/48/15
f 38/49/16 39/50/16 40/51/16 41/52/16
f 42/53/17 38/49/17 41/52/17 43/54/17
f 44/55/18 45/56/18 46/57/18 47/58/18
f 48/59/19 49/60/19 50/61/19 51/62/19
f 30/63/20 32/40/20 34/42/20 31/64/20
f 52/65/21 50/61/21 49/60/21 27/66/21
f 23/25/22 9/24/22 33/41/22 13/13/22
f 53/67/23 54/68/23 6/69/23
f 42/70/24 43/71/24 55/72/24 56/73/24
f 7/74/25 6/75/25 54/76/25
f 57/77/26 58/78/26 59/79/26 60/80/26
f 40/51/27 39/50/27 58/81/27 57/82/27
f 41/83/28 40/84/28 44/85/28 47/86/28
f 43/87/29 41/83/29 47/86/29 55/88/29
f 59/89/30 58/90/30 7/74/30
f 58/91/31 16/92/31 7/93/31
f 61/94/32 42/70/32 56/73/32
f 61/95/33 62/96/33 38/49/33 42/53/33
f 62/96/34 63/97/34 39/50/34 38/49/34
f 51/98/35 50/99/35 24/44/35 35/43/35
f 3/3/36 2/2/36 28/34/36 64/100/36
f 50/101/37 52/102/37 1/28/37 24/27/37
f 35/103/38 65/104/38 66/105/38 51/106/38
f 14/107/39 67/108/39 20/21/39 19/20/39
f 64/100/40 28/34/40 19/36/40 22/109/40
f 8/110/41 7/111/41 16/17/41 15/16/41
f 63/97/42 68/112/42 58/81/42 39/50/42
f 69/113/43 29/37/43 70/114/43 71/115/43
f 52/116/44 27/32/44 2/2/44 1/1/44
f 72/117/45 73/118/45 45/56/45 44/55/45
f 61/94/46 56/73/46 74/119/46 75/120/46
f 10/10/47 76/121/47 77/122/47 11/11/47
f 78/123/48 79/124/48 73/118/48 72/117/48
f 78/123/49 80/125/49 74/126/49 79/124/49
f 47/58/50 46/57/50 56/127/50 55/128/50
f 56/129/51 46/130/51 79/131/51 74/132/51
f 45/133/52 73/134/52 79/131/52 46/130/52
f 34/47/53 37/48/53 29/135/53 31/136/53
f 70/137/54 77/122/54 76/121/54 81/138/54
f 70/137/55 29/135/55 37/48/55 77/122/55
f 12/12/52 11/11/52 77/122/52 37/48/52
f 75/120/56 74/119/56 29/37/56 69/113/56
f 67/139/57 8/110/57 15/16/57 20/140/57
f 80/141/58 78/142/58 32/40/58 30/63/58
f 78/142/52 72/143/52 33/41/52 32/40/52
f 72/143/59 53/67/59 13/13/59 33/41/59
f 20/140/60 15/16/60 18/19/60 21/144/60
f 53/67/61 6/69/61 5/14/61 13/13/61
f 74/119/62 80/145/62 30/38/62 29/37/62
f 14/146/63 5/5/63 8/8/63 67/147/63
f 60/148/64 59/149/64 54/68/64 53/67/64
f 7/74/65 54/76/65 59/89/65
f 44/85/66 60/148/66 53/67/66 72/143/66
f 16/92/67 58/91/67 68/150/67 17/151/67
f 82/152/68 83/153/68 84/154/68 85/155/68
f 85/156/69 84/157/69 86/158/69 87/159/69
f 87/160/52 86/161/52 88/162/52 89/163/52
f 90/164/70 91/165/70 92/166/70 93/167/70
f 85/168/71 87/169/71 89/170/71 82/171/71
f 86/172/72 84/173/72 83/174/72 88/175/72
f 93/176/73 92/177/73 83/153/73 82/152/73
f 91/178/74 90/179/74 89/163/74 88/162/74
f 94/180/75 95/181/75 96/182/75 97/183/75
f 92/184/76 91/185/76 88/175/76 83/174/76
f 94/186/77 98/187/77 82/171/77 89/170/77
f 99/188/77 95/189/77 90/190/77 93/191/77
f 98/187/77 99/188/77 93/191/77 82/171/77
f 95/189/77 94/186/77 89/170/77 90/190/77
f 95/192/78 99/193/78 100/194/78 96/195/78
f 99/196/79 98/197/79 101/198/79 100/199/79
f 98/200/80 94/201/80 97/202/80 101/203/80
f 70/204/81 102/205/81 103/206/81 71/207/81
f 104/208/82 48/209/82 105/210/82 106/211/82
f 107/212/83 65/213/83 108/214/83 109/215/83
f 110/216/71 104/217/71 106/218/71 111/219/71
f 35/103/84 36/220/84 108/221/84 65/104/84
f 110/216/85 111/219/85 107/222/85 102/223/85
f 66/224/86 65/213/86 107/212/86 111/225/86
f 81/226/87 110/227/87 102/205/87 70/204/87
f 76/228/88 10/26/88 48/59/88 104/229/88
f 106/230/89 105/231/89 66/224/89 111/225/89
f 48/232/90 51/106/90 66/105/90 105/233/90
f 49/60/91 48/59/91 10/26/91 23/25/91
f 27/66/92 49/60/92 23/25/92 26/31/92
f 81/234/93 76/228/93 104/229/93 110/235/93
f 103/236/94 102/223/94 107/222/94 109/237/94
f 44/85/95 40/84/95 57/238/95 60/148/95
f 112/1/96 4/4/96 3/3/96 113/2/96
f 114/5/97 115/8/97 116/7/97 117/6/97
f 118/9/3 119/12/3 120/11/3 121/10/3
f 122/13/98 123/15/98 114/14/98
f 124/16/99 18/19/99 17/18/99 125/17/99
f 126/20/100 22/23/100 21/22/100 127/21/100
f 118/24/101 121/26/101 128/25/101
f 129/27/102 25/30/102 4/29/102 112/28/102
f 123/15/103 122/13/103 128/25/103 130/31/103
f 113/2/104 131/34/104 130/33/104 132/32/104
f 131/34/105 126/36/105 123/35/105 130/33/105
f 133/37/106 134/39/106 135/38/106
f 136/40/107 137/42/107 118/24/107 138/41/107
f 139/43/108 36/46/108 25/45/108 129/44/108
f 137/47/15 140/48/15 119/12/15 118/9/15
f 141/49/109 142/52/109 143/51/109 144/50/109
f 145/53/110 146/54/110 142/52/110 141/49/110
f 147/55/18 148/58/18 149/57/18 150/56/18
f 151/59/111 152/62/111 153/61/111 154/60/111
f 135/63/112 134/64/112 137/42/112 136/40/112
f 155/65/113 132/66/113 154/60/113 153/61/113
f 128/25/114 122/13/114 138/41/114 118/24/114
f 156/67/115 117/69/115 157/68/115
f 145/70/116 158/73/116 159/72/116 146/71/116
f 116/74/117 157/76/117 117/75/117
f 160/77/118 161/80/118 162/79/118 163/78/118
f 143/51/119 160/82/119 163/81/119 144/50/119
f 142/83/120 148/86/120 147/85/120 143/84/120
f 146/87/121 159/88/121 148/86/121 142/83/121
f 162/89/122 116/74/122 163/90/122
f 163/91/123 116/93/123 125/92/123
f 61/94/124 158/73/124 145/70/124
f 61/95/125 145/53/125 141/49/125 62/96/125
f 62/96/34 141/49/34 144/50/34 63/97/34
f 152/98/126 139/43/126 129/44/126 153/99/126
f 3/3/127 64/100/127 131/34/127 113/2/127
f 153/101/128 129/27/128 112/28/128 155/102/128
f 139/103/129 152/106/129 164/105/129 165/104/129
f 123/107/130 126/20/130 127/21/130 166/108/130
f 64/100/131 22/109/131 126/36/131 131/34/131
f 115/110/132 124/16/132 125/17/132 116/111/132
f 63/97/133 144/50/133 163/81/133 68/112/133
f 69/113/134 71/115/134 167/114/134 133/37/134
f 155/116/135 112/1/135 113/2/135 132/32/135
f 168/117/136 147/55/136 150/56/136 169/118/136
f 61/94/137 75/120/137 170/119/137 158/73/137
f 121/10/47 120/11/47 171/122/47 172/121/47
f 173/123/138 168/117/138 169/118/138 174/124/138
f 173/123/139 174/124/139 170/126/139 175/125/139
f 148/58/140 159/128/140 158/127/140 149/57/140
f 158/129/141 170/132/141 174/131/141 149/130/141
f 150/133/68 149/130/68 174/131/68 169/134/68
f 137/47/142 134/136/142 133/135/142 140/48/142
f 167/137/143 176/138/143 172/121/143 171/122/143
f 167/137/144 171/122/144 140/48/144 133/135/144
f 119/12/68 140/48/68 171/122/68 120/11/68
f 75/120/145 69/113/145 133/37/145 170/119/145
f 166/139/146 127/140/146 124/16/146 115/110/146
f 175/141/147 135/63/147 136/40/147 173/142/147
f 173/142/68 136/40/68 138/41/68 168/143/68
f 168/143/148 138/41/148 122/13/148 156/67/148
f 127/140/149 21/144/149 18/19/149 124/16/149
f 156/67/150 122/13/150 114/14/150 117/69/150
f 170/119/151 133/37/151 135/38/151 175/145/151
f 123/146/152 166/147/152 115/8/152 114/5/152
f 161/148/153 156/67/153 157/68/153 162/149/153
f 116/74/154 162/89/154 157/76/154
f 147/85/155 168/143/155 156/67/155 161/148/155
f 125/92/156 17/151/156 68/150/156 163/91/156
f 177/152/52 178/155/52 179/154/52 180/153/52
f 178/156/69 181/159/69 182/158/69 179/157/69
f 181/160/68 183/163/68 184/162/68 182/161/68
f 185/164/70 186/167/70 187/166/70 188/165/70
f 178/168/71 177/171/71 183/170/71 181/169/71
f 182/172/72 184/175/72 180/174/72 179/173/72
f 186/176/74 177/152/74 180/153/74 187/177/74
f 188/178/73 184/162/73 183/163/73 185/179/73
f 189/180/157 190/183/157 191/182/157 192/181/157
f 187/184/76 180/174/76 184/175/76 188/185/76
f 189/186/77 183/170/77 177/171/77 193/187/77
f 194/188/77 186/191/77 185/190/77 192/189/77
f 193/187/77 177/171/77 186/191/77 194/188/77
f 192/189/77 185/190/77 183/170/77 189/186/77
f 192/192/158 191/195/158 195/194/158 194/193/158
f 194/196/159 195/199/159 196/198/159 193/197/159
f 193/200/160 196/203/160 190/202/160 189/201/160
f 167/204/161 71/207/161 103/206/161 197/205/161
f 198/208/162 199/211/162 200/210/162 151/209/162
f 201/212/163 109/215/163 108/214/163 165/213/163
f 202/216/71 203/219/71 199/218/71 198/217/71
f 139/103/164 165/104/164 108/221/164 36/220/164
f 202/216/165 197/223/165 201/222/165 203/219/165
f 164/224/166 203/225/166 201/212/166 165/213/166
f 176/226/167 167/204/167 197/205/167 202/227/167
f 172/228/168 198/229/168 151/59/168 121/26/168
f 199/230/169 203/225/169 164/224/169 200/231/169
f 151/232/170 200/233/170 164/105/170 152/106/170
f 154/60/171 128/25/171 121/26/171 151/59/171
f 132/66/172 130/31/172 128/25/172 154/60/172
f 176/234/173 202/235/173 198/229/173 172/228/173
f 103/236/174 109/237/174 201/222/174 197/223/174
f 147/85/175 161/148/175 160/238/175 143/84/175
f 204/239/176 205/240/176 206/241/176 207/242/176
f 206/243/177 208/244/177 209/245/177 210/246/177
f 204/247/178 207/248/178 211/249/178 212/250/178
f 206/243/177 205/251/177 213/252/177 208/244/177
f 214/253/179 210/254/179 209/255/179 215/256/179
f 207/242/180 206/241/180 210/254/180 214/253/180
f 208/244/181 211/249/181 215/257/181 209/245/181
f 211/249/178 207/248/178 214/258/178 215/257/178
f 204/239/182 216/242/182 217/241/182 205/240/182
f 217/243/177 218/246/177 219/245/177 220/244/177
f 204/247/178 212/250/178 221/249/178 216/248/178
f 217/243/177 220/244/177 213/252/177 205/251/177
f 222/253/183 223/256/183 219/255/183 218/254/183
f 216/242/184 222/253/184 218/254/184 217/241/184
f 220/244/185 219/245/185 223/257/185 221/249/185
f 221/249/178 223/257/178 222/258/178 216/248/178
