# PSX Racing car model — generated by tools/carmodels/export_models.mjs
mtllib mustang_67_wheels_f.mtl
v -0.854590 0.316191 1.412511
v -0.854590 0.316191 1.063879
v -0.854590 0.069670 1.165991
v -0.854590 -0.032442 1.412511
v -0.645410 0.069670 1.659031
v -0.645410 -0.032442 1.412511
v -0.645410 0.316191 1.412511
v -0.645410 0.316191 1.761143
v -0.645410 0.316191 1.063879
v -0.645410 0.069670 1.165991
v -0.854590 0.069670 1.659031
v -0.854590 0.316191 1.761143
v -0.645410 0.562711 1.659031
v -0.645410 0.664823 1.412511
v -0.854590 0.562711 1.659031
v -0.854590 0.664823 1.412511
v -0.645410 0.562711 1.165991
v -0.854590 0.562711 1.165991
v 0.854590 0.316191 1.412511
v 0.854590 -0.032442 1.412511
v 0.854590 0.069670 1.165991
v 0.854590 0.316191 1.063879
v 0.645410 0.069670 1.659031
v 0.645410 0.316191 1.761143
v 0.645410 0.316191 1.412511
v 0.645410 -0.032442 1.412511
v 0.645410 0.316191 1.063879
v 0.645410 0.069670 1.165991
v 0.854590 0.316191 1.761143
v 0.854590 0.069670 1.659031
v 0.645410 0.562711 1.659031
v 0.645410 0.664823 1.412511
v 0.854590 0.664823 1.412511
v 0.854590 0.562711 1.659031
v 0.645410 0.562711 1.165991
v 0.854590 0.562711 1.165991
vt 0.123999 0.875509
vt 0.241314 0.924103
vt 0.241314 0.826916
vt 0.172593 0.758194
vt 0.006684 0.826915
vt 0.006684 0.924102
vt 0.123999 0.875509
vt 0.075405 0.758194
vt 0.968506 0.723892
vt 0.968506 0.737391
vt 0.979088 0.737390
vt 0.979088 0.723892
vt 0.968506 0.750889
vt 0.979088 0.750889
vt 0.075406 0.758194
vt 0.006684 0.826916
vt 0.172592 0.758194
vt 0.241314 0.826915
vt 0.968506 0.642903
vt 0.968506 0.656401
vt 0.979088 0.656401
vt 0.979088 0.642903
vt 0.968506 0.669900
vt 0.979088 0.669900
vt 0.006684 0.924103
vt 0.075406 0.992824
vt 0.241314 0.924102
vt 0.172592 0.992824
vt 0.968506 0.683398
vt 0.979088 0.683398
vt 0.968506 0.696896
vt 0.979088 0.696896
vt 0.172593 0.992824
vt 0.968506 0.710394
vt 0.979088 0.710394
vt 0.075405 0.992824
vt 0.123999 0.875509
vt 0.172593 0.758194
vt 0.241314 0.826916
vt 0.241314 0.924103
vt 0.006684 0.826915
vt 0.075405 0.758194
vt 0.123999 0.875509
vt 0.006684 0.924102
vt 0.968506 0.723892
vt 0.979088 0.723892
vt 0.979088 0.737390
vt 0.968506 0.737391
vt 0.979088 0.750889
vt 0.968506 0.750889
vt 0.006684 0.826916
vt 0.075406 0.758194
vt 0.172592 0.758194
vt 0.241314 0.826915
vt 0.968506 0.642903
vt 0.979088 0.642903
vt 0.979088 0.656401
vt 0.968506 0.656401
vt 0.979088 0.669900
vt 0.968506 0.669900
vt 0.075406 0.992824
vt 0.006684 0.924103
vt 0.241314 0.924102
vt 0.172592 0.992824
vt 0.979088 0.683398
vt 0.968506 0.683398
vt 0.979088 0.696896
vt 0.968506 0.696896
vt 0.172593 0.992824
vt 0.979088 0.710394
vt 0.968506 0.710394
vt 0.075405 0.992824
vn -1.000000 0.000000 0.000000
vn 1.000000 0.000000 0.000000
vn 0.000000 -0.382700 -0.923900
vn 0.000000 -0.923900 -0.382700
vn 0.000000 -0.923900 0.382700
vn 0.000000 -0.382700 0.923900
vn 0.000000 0.382700 0.923900
vn 0.000000 0.923900 0.382700
vn 0.000000 0.923900 -0.382700
vn 0.000000 0.382700 -0.923900
vn 1.000000 0.000000 0.000000
vn -1.000000 0.000000 0.000000
vn 0.000000 -0.382700 -0.923900
vn 0.000000 -0.923900 -0.382700
vn 0.000000 -0.923900 0.382700
vn 0.000000 -0.382700 0.923900
vn 0.000000 0.382700 0.923900
vn 0.000000 0.923900 0.382700
vn 0.000000 0.923900 -0.382700
vn 0.000000 0.382700 -0.923900
o mustang_67_wheels_f
usemtl mustang_67_wheels_f
f 1/1/1 2/2/1 3/3/1 4/4/1
f 5/5/2 6/6/2 7/7/2 8/8/2
f 9/9/3 10/10/3 3/11/3 2/12/3
f 10/10/4 6/13/4 4/14/4 3/11/4
f 1/1/1 4/4/1 11/15/1 12/16/1
f 13/17/2 8/8/2 7/7/2 14/18/2
f 6/19/5 5/20/5 11/21/5 4/22/5
f 5/20/6 8/23/6 12/24/6 11/21/6
f 1/1/1 12/16/1 15/25/1 16/26/1
f 17/27/2 14/18/2 7/7/2 9/28/2
f 8/23/7 13/29/7 15/30/7 12/24/7
f 13/29/8 14/31/8 16/32/8 15/30/8
f 1/1/1 16/26/1 18/33/1 2/2/1
f 14/31/9 17/34/9 18/35/9 16/32/9
f 17/34/10 9/9/10 2/12/10 18/35/10
f 10/36/2 9/28/2 7/7/2 6/6/2
f 19/37/11 20/38/11 21/39/11 22/40/11
f 23/41/12 24/42/12 25/43/12 26/44/12
f 27/45/13 22/46/13 21/47/13 28/48/13
f 28/48/14 21/47/14 20/49/14 26/50/14
f 19/37/11 29/51/11 30/52/11 20/38/11
f 31/53/12 32/54/12 25/43/12 24/42/12
f 26/55/15 20/56/15 30/57/15 23/58/15
f 23/58/16 30/57/16 29/59/16 24/60/16
f 19/37/11 33/61/11 34/62/11 29/51/11
f 35/63/12 27/64/12 25/43/12 32/54/12
f 24/60/17 29/59/17 34/65/17 31/66/17
f 31/66/18 34/65/18 33/67/18 32/68/18
f 19/37/11 22/40/11 36/69/11 33/61/11
f 32/68/19 33/67/19 36/70/19 35/71/19
f 35/71/20 36/70/20 22/46/20 27/45/20
f 28/72/12 26/44/12 25/43/12 27/64/12
