# PSX Racing car model — generated by tools/carmodels/export_models.mjs
mtllib landrover.mtl
v 0.871124 0.767139 1.883785
v 0.871124 0.862541 1.842865
v 0.795210 0.790617 1.971231
v 0.568183 1.223334 1.359371
v 0.777974 1.223334 1.359371
v 0.777974 1.257353 0.924436
v 0.641991 1.287821 0.926319
v 0.871124 0.749626 1.297903
v 0.871124 0.862541 1.359371
v 0.436095 0.862541 1.359371
v 0.436095 0.749626 1.297903
v 0.391110 0.500527 2.120311
v 0.795210 0.500527 2.101394
v 0.801014 0.500527 2.166786
v 0.396914 0.500527 2.185703
v 0.873644 0.803437 -0.924043
v 0.793686 0.933276 -0.998217
v 0.795210 0.862541 -0.856726
v 0.790466 0.953836 1.842865
v 0.795210 0.884020 -2.185000
v 0.795210 0.861175 -1.533329
v 0.795210 0.783011 -1.614845
v 0.795210 0.862541 -0.036600
v 0.777974 1.257353 -0.036600
v 0.795210 0.862541 0.924436
v 0.795210 0.749626 -0.790577
v 0.682720 1.918640 -0.036600
v 0.682720 1.828895 0.647362
v 0.873644 0.462446 -0.779152
v 0.578485 0.462446 -0.779152
v 0.578485 0.803437 -0.924043
v 0.777974 1.257353 -2.185000
v 0.777974 1.257353 -1.379630
v 0.793020 0.933276 -1.379630
v 0.498616 1.941215 -0.120046
v 0.568183 1.257353 -0.120046
v 0.000000 1.257353 -0.157109
v 0.000000 1.941215 -0.157109
v 0.790632 0.958372 1.359371
v 0.512521 1.019226 -2.108785
v 0.000000 0.689096 -2.108785
v 0.512521 0.689096 -2.108785
v 0.415852 1.194213 2.000361
v 0.777974 1.194213 1.842865
v 0.795210 0.862541 1.233756
v 0.512521 1.019226 -0.202608
v 0.701759 1.019226 -0.125529
v 0.701759 0.689096 -0.125529
v 0.512521 0.689096 -0.202608
v 0.795210 0.749626 0.924436
v 0.795210 0.749626 1.172521
v 0.000000 1.851470 0.647362
v 0.572424 1.851470 0.647362
v 0.873644 0.798574 -1.489786
v 0.000000 1.244866 2.002244
v 0.000000 0.643081 2.001785
v 0.416148 0.643081 2.001785
v 0.795210 0.749626 -0.036600
v 0.391110 1.194213 2.120311
v 0.777974 1.194213 2.101394
v 0.000000 1.308005 0.926319
v 0.701759 1.257353 -2.108785
v 0.701759 1.257353 -1.379630
v 0.701759 1.257353 -0.998217
v 0.701759 1.257353 -0.125529
v 0.777974 1.257353 -0.998217
v 0.512521 1.257353 -0.202608
v 0.000000 1.257353 -0.222427
v 0.512521 0.689096 -0.998217
v 0.512521 0.689096 -1.379630
v 0.000000 0.689096 -1.379630
v 0.000000 0.689096 -0.998217
v 0.000000 0.689096 -0.222427
v 0.514654 1.019226 -1.379630
v 0.701759 1.019226 -1.379630
v 0.701759 1.019226 -2.108785
v 0.514654 1.019226 -0.998217
v 0.000000 1.257353 -2.108785
v 0.000000 1.257353 -2.185000
v 0.391110 0.643081 2.120311
v 0.795210 0.643081 2.101394
v 0.568183 1.253801 1.361254
v 0.415852 1.224681 2.002244
v 0.701759 1.019226 -0.998217
v 0.795251 0.451318 1.040993
v 0.871124 0.464562 1.142721
v 0.000000 0.884020 -2.185000
v 0.000000 0.500527 2.125557
v 0.000000 0.500527 2.190949
v 0.871124 0.502278 1.997389
v 0.436095 0.502278 1.997389
v 0.436095 0.767139 1.883785
v 0.795210 0.436144 -0.688519
v 0.795210 0.612892 -2.185000
v 0.795210 0.501624 -1.697944
v 0.578485 0.480821 -1.606885
v 0.436095 0.862541 1.842865
v 0.578485 0.798574 -1.489786
v 0.795210 0.436144 -0.036600
v 0.436095 0.436144 1.127251
v 0.578485 0.436144 -0.036600
v 0.000000 0.462446 -0.779152
v 0.000000 0.480821 -1.606885
v 0.000000 0.436144 -0.036600
v 0.000000 0.436144 1.127251
v 0.000000 0.502278 1.997389
v 0.000000 0.612892 -2.185000
v 0.000000 1.273986 1.361254
v 0.873644 0.480821 -1.606885
v 0.396914 0.643081 2.185703
v 0.000000 0.643081 2.190949
v 0.801014 0.643081 2.166786
v 0.839344 1.253670 0.872748
v 0.839344 1.453670 0.872748
v 0.839344 1.453670 0.832748
v 0.839344 1.253670 0.832748
v 0.959344 1.453670 0.832748
v 0.959344 1.253670 0.832748
v 0.959344 1.453670 0.872748
v 0.959344 1.253670 0.872748
v 0.911775 1.226764 0.839856
v 0.911775 1.199859 0.839856
v 0.881400 1.199859 0.839856
v 0.881400 1.226764 0.839856
v 0.911775 1.253670 0.856832
v 0.911775 1.253670 0.839856
v 0.881400 1.253670 0.839856
v 0.881400 1.253670 0.856832
v 0.881400 1.199859 0.856832
v 0.911775 1.199859 0.856832
v 0.881400 1.226764 0.856832
v 0.911775 1.226764 0.856832
v 0.764432 1.199859 0.839856
v 0.764432 1.226764 0.839856
v 0.764432 1.199859 0.856832
v 0.764432 1.226764 0.856832
v -0.871124 0.767139 1.883785
v -0.795210 0.790617 1.971231
v -0.871124 0.862541 1.842865
v -0.568183 1.223334 1.359371
v -0.641991 1.287821 0.926319
v -0.777974 1.257353 0.924436
v -0.777974 1.223334 1.359371
v -0.871124 0.749626 1.297903
v -0.436095 0.749626 1.297903
v -0.436095 0.862541 1.359371
v -0.871124 0.862541 1.359371
v -0.391110 0.500527 2.120311
v -0.396914 0.500527 2.185703
v -0.801014 0.500527 2.166786
v -0.795210 0.500527 2.101394
v -0.873644 0.803437 -0.924043
v -0.795210 0.862541 -0.856726
v -0.793686 0.933276 -0.998217
v -0.790466 0.953836 1.842865
v -0.795210 0.884020 -2.185000
v -0.795210 0.783011 -1.614845
v -0.795210 0.861175 -1.533329
v -0.795210 0.862541 -0.036600
v -0.795210 0.862541 0.924436
v -0.777974 1.257353 -0.036600
v -0.795210 0.749626 -0.790577
v -0.682720 1.828895 0.647362
v -0.682720 1.918640 -0.036600
v -0.578485 0.803437 -0.924043
v -0.578485 0.462446 -0.779152
v -0.873644 0.462446 -0.779152
v -0.793020 0.933276 -1.379630
v -0.777974 1.257353 -1.379630
v -0.777974 1.257353 -2.185000
v -0.498616 1.941215 -0.120046
v -0.568183 1.257353 -0.120046
v -0.790632 0.958372 1.359371
v -0.512521 1.019226 -2.108785
v -0.512521 0.689096 -2.108785
v -0.415852 1.194213 2.000361
v -0.777974 1.194213 1.842865
v -0.795210 0.862541 1.233756
v -0.512521 1.019226 -0.202608
v -0.512521 0.689096 -0.202608
v -0.701759 0.689096 -0.125529
v -0.701759 1.019226 -0.125529
v -0.795210 0.749626 0.924436
v -0.795210 0.749626 1.172521
v -0.572424 1.851470 0.647362
v -0.873644 0.798574 -1.489786
v -0.416148 0.643081 2.001785
v -0.795210 0.749626 -0.036600
v -0.391110 1.194213 2.120311
v -0.777974 1.194213 2.101394
v -0.701759 1.257353 -2.108785
v -0.701759 1.257353 -1.379630
v -0.701759 1.257353 -0.998217
v -0.777974 1.257353 -0.998217
v -0.701759 1.257353 -0.125529
v -0.512521 1.257353 -0.202608
v -0.512521 0.689096 -0.998217
v -0.512521 0.689096 -1.379630
v -0.514654 1.019226 -1.379630
v -0.701759 1.019226 -2.108785
v -0.701759 1.019226 -1.379630
v -0.514654 1.019226 -0.998217
v -0.391110 0.643081 2.120311
v -0.795210 0.643081 2.101394
v -0.415852 1.224681 2.002244
v -0.568183 1.253801 1.361254
v -0.701759 1.019226 -0.998217
v -0.795251 0.451318 1.040993
v -0.871124 0.464562 1.142721
v -0.436095 0.767139 1.883785
v -0.436095 0.502278 1.997389
v -0.871124 0.502278 1.997389
v -0.795210 0.436144 -0.688519
v -0.795210 0.612892 -2.185000
v -0.578485 0.480821 -1.606885
v -0.795210 0.501624 -1.697944
v -0.436095 0.862541 1.842865
v -0.578485 0.798574 -1.489786
v -0.795210 0.436144 -0.036600
v -0.578485 0.436144 -0.036600
v -0.436095 0.436144 1.127251
v -0.873644 0.480821 -1.606885
v -0.396914 0.643081 2.185703
v -0.801014 0.643081 2.166786
v -0.839344 1.253670 0.872748
v -0.839344 1.253670 0.832748
v -0.839344 1.453670 0.832748
v -0.839344 1.453670 0.872748
v -0.959344 1.253670 0.832748
v -0.959344 1.453670 0.832748
v -0.959344 1.253670 0.872748
v -0.959344 1.453670 0.872748
v -0.911775 1.226764 0.839856
v -0.881400 1.226764 0.839856
v -0.881400 1.199859 0.839856
v -0.911775 1.199859 0.839856
v -0.911775 1.253670 0.839856
v -0.911775 1.253670 0.856832
v -0.881400 1.253670 0.839856
v -0.881400 1.253670 0.856832
v -0.881400 1.199859 0.856832
v -0.911775 1.199859 0.856832
v -0.881400 1.226764 0.856832
v -0.911775 1.226764 0.856832
v -0.764432 1.226764 0.839856
v -0.764432 1.199859 0.839856
v -0.764432 1.199859 0.856832
v -0.764432 1.226764 0.856832
vt 0.088519 0.085183
vt 0.097414 0.105921
vt 0.060722 0.085183
vt 0.650473 0.444698
vt 0.643904 0.399289
vt 0.738964 0.402282
vt 0.745929 0.432653
vt 0.740993 0.716733
vt 0.740993 0.730733
vt 0.693619 0.730733
vt 0.693619 0.716733
vt 0.281870 0.872475
vt 0.281148 0.828427
vt 0.288284 0.828012
vt 0.289007 0.872060
vt 0.698863 0.093073
vt 0.714986 0.121297
vt 0.684230 0.105921
vt 0.097414 0.125766
vt 0.071568 0.105921
vt 0.972960 0.110590
vt 0.831305 0.105624
vt 0.849024 0.088633
vt 0.505957 0.105921
vt 0.505957 0.187836
vt 0.297055 0.187836
vt 0.297055 0.105921
vt 0.669851 0.081376
vt 0.505957 0.335487
vt 0.357283 0.315979
vt 0.700461 0.713205
vt 0.699701 0.677229
vt 0.731835 0.676550
vt 0.732595 0.712527
vt 0.972960 0.187836
vt 0.797895 0.187836
vt 0.797895 0.121297
vt 0.086719 0.583354
vt 0.068540 0.404643
vt 0.217021 0.404643
vt 0.217021 0.583354
vt 0.202512 0.105921
vt 0.202512 0.126752
vt 0.767201 0.920185
vt 0.681483 0.864971
vt 0.767201 0.864971
vt 0.511092 0.476873
vt 0.538313 0.397823
vt 0.202512 0.180441
vt 0.229817 0.105921
vt 0.661304 0.925910
vt 0.639052 0.925910
vt 0.639052 0.889960
vt 0.661304 0.889960
vt 0.297055 0.081376
vt 0.243128 0.081376
vt 0.956504 0.351301
vt 0.860699 0.358422
vt 0.860699 0.203849
vt 0.970686 0.203849
vt 0.821840 0.092016
vt 0.016254 0.374588
vt 0.016254 0.248779
vt 0.103254 0.248779
vt 0.103193 0.363999
vt 0.505957 0.081376
vt 0.484790 0.482109
vt 0.481707 0.397431
vt 0.426853 0.390114
vt 0.405295 0.584822
vt 0.228070 0.584822
vt 0.228070 0.395692
vt 0.867131 0.968628
vt 0.867131 0.858358
vt 0.878657 0.854451
vt 0.878657 0.976248
vt 0.867131 0.800677
vt 0.867131 0.668700
vt 0.878657 0.651345
vt 0.878657 0.796770
vt 0.838513 0.680357
vt 0.761004 0.683354
vt 0.761004 0.673476
vt 0.846931 0.667871
vt 0.690308 0.772926
vt 0.690308 0.712860
vt 0.746120 0.712860
vt 0.746120 0.772926
vt 0.690308 0.850300
vt 0.746120 0.848142
vt 0.810013 0.837690
vt 0.810011 0.907827
vt 0.774061 0.907827
vt 0.774062 0.837690
vt 0.690308 0.642723
vt 0.746120 0.642723
vt 0.823813 0.872436
vt 0.844189 0.872436
vt 0.844189 0.942573
vt 0.823581 0.942573
vt 0.774062 0.777624
vt 0.810013 0.777624
vt 0.774061 0.700250
vt 0.810011 0.700250
vt 0.761004 0.968628
vt 0.761004 0.980154
vt 0.467069 0.378044
vt 0.437434 0.578577
vt 0.403142 0.584822
vt 0.424700 0.390114
vt 0.054472 0.224951
vt 0.097062 0.225522
vt 0.099789 0.238429
vt 0.209700 0.228015
vt 0.205196 0.368133
vt 0.104098 0.372040
vt 0.104098 0.228015
vt 0.991879 0.335267
vt 0.991879 0.203849
vt 0.629989 0.874087
vt 0.552481 0.924013
vt 0.552481 0.874087
vt 0.651855 0.451164
vt 0.512488 0.483386
vt 0.844189 0.726603
vt 0.844189 0.812370
vt 0.823813 0.812370
vt 0.823581 0.734997
vt 0.038608 0.577454
vt 0.013716 0.400737
vt 0.271719 0.016532
vt 0.215874 0.081376
vt 0.249606 0.019411
vt 0.856111 0.269215
vt 0.856111 0.362893
vt 0.660899 0.358987
vt 0.656574 0.269215
vt 0.281148 0.915063
vt 0.288265 0.915280
vt 0.798851 0.960011
vt 0.798851 0.920185
vt 0.629989 0.960025
vt 0.552481 0.960025
vt 0.597606 0.717056
vt 0.597606 0.646919
vt 0.623538 0.646919
vt 0.623538 0.717056
vt 0.597606 0.862890
vt 0.597606 0.777122
vt 0.623538 0.777122
vt 0.623538 0.862890
vt 0.523862 0.960025
vt 0.523862 0.924013
vt 0.681483 0.960011
vt 0.740993 0.794688
vt 0.740993 0.826072
vt 0.693619 0.826072
vt 0.693619 0.794688
vt 0.695922 0.778889
vt 0.699337 0.775297
vt 0.708778 0.778885
vt 0.699358 0.841175
vt 0.699351 0.819415
vt 0.708789 0.815344
vt 0.740993 0.783384
vt 0.693619 0.783384
vt 0.702003 0.786217
vt 0.700734 0.726164
vt 0.732869 0.725485
vt 0.734235 0.785581
vt 0.699328 0.746901
vt 0.699309 0.705030
vt 0.708753 0.705019
vt 0.708769 0.746898
vt 0.720511 0.724883
vt 0.717578 0.788644
vt 0.687881 0.798794
vt 0.687881 0.703766
vt 0.696042 0.658164
vt 0.699351 0.655272
vt 0.716955 0.652822
vt 0.714992 0.658175
vt 0.733973 0.778877
vt 0.733984 0.815337
vt 0.733963 0.746893
vt 0.733961 0.705034
vt 0.714970 0.696188
vt 0.733989 0.658186
vt 0.733966 0.696199
vt 0.733992 0.652603
vt 0.712108 0.841171
vt 0.733992 0.841164
vt 0.954911 0.900594
vt 0.968103 0.900594
vt 0.968103 0.936712
vt 0.954765 0.936712
vt 0.512689 0.574416
vt 0.652980 0.574416
vt 0.748584 0.573246
vt 0.017150 0.374640
vt 0.102688 0.364221
vt 0.102688 0.370488
vt 0.732265 0.732489
vt 0.728274 0.784989
vt 0.695653 0.811492
vt 0.695389 0.784164
vt 0.699701 0.830402
vt 0.701482 0.796220
vt 0.733580 0.797893
vt 0.731799 0.832074
vt 0.856111 0.201183
vt 0.656574 0.201183
vt 0.505957 0.013234
vt 0.667368 0.018951
vt 0.647667 0.013234
vt 0.972960 0.051654
vt 0.867088 0.027467
vt 0.740993 0.681389
vt 0.693619 0.677866
vt 0.063825 0.027610
vt 0.049384 0.027610
vt 0.110779 0.212947
vt 0.110779 0.239033
vt 0.038147 0.239033
vt 0.038147 0.212947
vt 0.184726 0.212947
vt 0.184726 0.239033
vt 0.054472 0.217830
vt 0.097694 0.218401
vt 0.041217 0.085183
vt 0.041217 0.105921
vt 0.027003 0.105921
vt 0.027003 0.085183
vt 0.141068 0.227582
vt 0.141700 0.220461
vt 0.097414 0.174111
vt 0.041217 0.174111
vt 0.847294 0.022945
vt 0.714986 0.187836
vt 0.699300 0.699912
vt 0.695978 0.695454
vt 0.695934 0.815348
vt 0.980722 0.370559
vt 0.980722 0.413820
vt 0.972070 0.413820
vt 0.972070 0.370559
vt 0.930722 0.370559
vt 0.930722 0.413820
vt 0.904766 0.413820
vt 0.904766 0.370559
vt 0.897070 0.396516
vt 0.897070 0.439777
vt 0.888418 0.439777
vt 0.888418 0.396516
vt 0.964375 0.370559
vt 0.964375 0.413820
vt 0.938418 0.413820
vt 0.938418 0.370559
vt 0.910586 0.421516
vt 0.904766 0.421516
vt 0.904766 0.428086
vt 0.910586 0.428086
vt 0.974824 0.421516
vt 0.974824 0.447472
vt 0.966172 0.447473
vt 0.966172 0.421516
vt 0.891861 0.386227
vt 0.895533 0.386227
vt 0.895533 0.379656
vt 0.897070 0.370559
vt 0.888418 0.370559
vt 0.891861 0.379656
vt 0.943436 0.428086
vt 0.947108 0.428086
vt 0.947108 0.421516
vt 0.943436 0.421516
vt 0.929921 0.446817
vt 0.924101 0.446817
vt 0.924101 0.453387
vt 0.929921 0.453387
vt 0.892090 0.453292
vt 0.892090 0.447473
vt 0.888418 0.447473
vt 0.888418 0.453292
vt 0.904766 0.453387
vt 0.910586 0.453387
vt 0.954804 0.421516
vt 0.954804 0.427336
vt 0.958476 0.427336
vt 0.958476 0.421516
vt 0.892090 0.459112
vt 0.888418 0.459112
vt 0.935741 0.446817
vt 0.935741 0.453387
vt 0.916406 0.421516
vt 0.916406 0.428086
vt 0.943436 0.453387
vt 0.947108 0.453387
vt 0.929921 0.421516
vt 0.924101 0.421516
vt 0.954804 0.452636
vt 0.958476 0.452636
vn 0.763000 0.254800 0.594000
vn 0.087800 0.988900 0.119700
vn 0.000000 -0.478100 0.878300
vn 0.000000 -1.000000 0.000000
vn 0.725200 0.618900 0.301600
vn 0.581200 0.513400 0.631400
vn 1.000000 0.000000 0.000000
vn 0.999000 0.043600 0.000000
vn 0.746400 0.336400 0.574200
vn 0.987900 0.154600 0.008400
vn 0.000000 -0.391100 -0.920400
vn 0.999000 0.044800 0.000000
vn 0.069300 0.003500 -0.997600
vn 0.757700 0.652500 0.003200
vn 0.000000 0.000000 1.000000
vn 0.014800 0.998400 0.053700
vn 0.999000 0.045500 0.001900
vn 0.377200 0.000000 -0.926100
vn -0.003900 0.993500 0.113600
vn 0.854600 0.519200 -0.003300
vn 0.002300 0.000800 1.000000
vn 0.000000 1.000000 0.000000
vn 0.007500 0.450400 0.892800
vn -1.000000 0.003200 0.001500
vn -1.000000 0.006500 0.000000
vn -1.000000 0.003200 -0.001300
vn 0.103600 0.449600 0.887200
vn 0.047800 0.000700 0.998900
vn 0.118400 0.986200 0.115900
vn 0.038600 0.000000 -0.999300
vn 0.973000 -0.014300 0.230600
vn 0.392000 0.048000 -0.918700
vn 0.793600 0.268400 -0.546000
vn 0.000000 0.000000 -1.000000
vn 0.986000 -0.010300 0.166500
vn -1.000000 0.000000 0.000000
vn 0.000000 -0.394200 -0.919000
vn 0.000000 -0.960400 -0.278700
vn 0.000000 -0.974900 -0.222700
vn 0.000000 -1.000000 0.008600
vn 0.027600 -0.999600 0.008500
vn -0.000400 -0.999900 -0.015600
vn 0.000000 -0.999800 -0.022200
vn 0.000000 -0.999400 -0.035400
vn 0.000000 -0.997100 0.075800
vn -0.000100 -0.999900 -0.014000
vn -0.978900 -0.000500 -0.204300
vn 0.040900 0.997900 0.050200
vn 0.033200 0.996200 0.080700
vn -0.003000 -0.061700 0.998100
vn 0.000000 -0.345800 0.938300
vn 1.000000 0.000100 0.000000
vn 0.756400 0.230900 0.612000
vn 0.771400 0.255900 0.582700
vn 0.013200 0.000000 0.999900
vn 0.046800 0.000000 0.998900
vn 0.996100 0.000000 -0.088400
vn 0.998800 0.049700 0.001900
vn 0.999100 0.040100 0.016600
vn 0.823700 0.270700 -0.498200
vn 0.694900 0.583700 -0.420000
vn 0.692700 0.520600 -0.499200
vn 0.796500 0.191600 -0.573500
vn 0.998900 0.047400 -0.000900
vn 0.999000 0.043900 0.000800
vn 0.691100 0.658100 -0.298800
vn 0.062000 -0.994600 0.083200
vn -0.056600 -0.998200 -0.018800
vn -0.763000 0.254800 0.594000
vn -0.087800 0.988900 0.119700
vn -0.725200 0.618900 0.301600
vn -0.581200 0.513400 0.631400
vn -0.999000 0.043600 0.000000
vn -0.746400 0.336400 0.574200
vn -0.987900 0.154600 0.008400
vn -0.999000 0.044800 0.000000
vn -0.069300 0.003500 -0.997600
vn -0.757700 0.652500 0.003200
vn -0.014800 0.998400 0.053700
vn -0.999000 0.045500 0.001900
vn -0.377200 0.000000 -0.926100
vn 0.003900 0.993500 0.113600
vn -0.854600 0.519200 -0.003300
vn -0.002300 0.000800 1.000000
vn -0.007500 0.450400 0.892800
vn 1.000000 0.003200 0.001500
vn 1.000000 0.006500 0.000000
vn 1.000000 0.003200 -0.001300
vn -0.103600 0.449600 0.887200
vn -0.047800 0.000700 0.998900
vn -0.118400 0.986200 0.115900
vn -0.038600 0.000000 -0.999300
vn -0.973000 -0.014300 0.230600
vn -0.392000 0.048000 -0.918700
vn -0.793600 0.268400 -0.546000
vn -0.986000 -0.010300 0.166500
vn -0.027600 -0.999600 0.008500
vn 0.000400 -0.999900 -0.015600
vn 0.000100 -0.999900 -0.014000
vn 0.978900 -0.000500 -0.204300
vn -0.040900 0.997900 0.050200
vn -0.033200 0.996200 0.080700
vn 0.003000 -0.061700 0.998100
vn -1.000000 0.000100 0.000000
vn -0.756400 0.230900 0.612000
vn -0.771400 0.255900 0.582700
vn -0.013200 0.000000 0.999900
vn -0.046800 0.000000 0.998900
vn -0.996100 0.000000 -0.088400
vn -0.998800 0.049700 0.001900
vn -0.999100 0.040100 0.016600
vn -0.823700 0.270700 -0.498200
vn -0.694900 0.583700 -0.420000
vn -0.692700 0.520600 -0.499200
vn -0.796500 0.191600 -0.573500
vn -0.998900 0.047400 -0.000900
vn -0.999000 0.043900 0.000800
vn -0.691100 0.658100 -0.298800
vn -0.062000 -0.994600 0.083200
vn 0.056600 -0.998200 -0.018800
o landrover
usemtl landrover
f 1/1/1 2/2/1 3/3/1
f 4/4/2 5/5/2 6/6/2 7/7/2
f 8/8/3 9/9/3 10/10/3 11/11/3
f 12/12/4 13/13/4 14/14/4 15/15/4
f 16/16/5 17/17/5 18/18/5
f 2/2/6 19/19/6 3/20/6
f 20/21/7 21/22/7 22/23/7
f 23/24/8 24/25/8 6/26/8 25/27/8
f 16/16/9 18/18/9 26/28/9
f 24/25/10 27/29/10 28/30/10 6/26/10
f 16/31/11 29/32/11 30/33/11 31/34/11
f 20/21/12 32/35/12 33/36/12 34/37/12 21/22/12
f 35/38/13 36/39/13 37/40/13 38/41/13
f 9/42/14 39/43/14 19/19/14 2/2/14
f 40/44/15 41/45/15 42/46/15
f 43/47/16 44/48/16 5/5/16 4/4/16
f 25/27/17 6/26/17 5/49/17 39/43/17 45/50/17
f 46/51/18 47/52/18 48/53/18 49/54/18
f 50/55/7 25/27/7 45/50/7 51/56/7
f 35/57/19 38/58/19 52/59/19 53/60/19
f 54/61/20 34/37/20 17/17/20 16/16/20
f 55/62/21 56/63/21 57/64/21 43/65/21
f 58/66/7 23/24/7 25/27/7 50/55/7
f 59/67/22 60/68/22 44/48/22 43/47/22
f 7/69/23 53/70/23 52/71/23 61/72/23
f 62/73/22 63/74/22 33/75/22 32/76/22
f 64/77/22 65/78/22 24/79/22 66/80/22
f 63/74/22 64/77/22 66/80/22 33/75/22
f 67/81/22 68/82/22 37/83/22 36/84/22
f 69/85/22 70/86/22 71/87/22 72/88/22
f 49/89/22 69/85/22 72/88/22 73/90/22
f 74/91/24 40/92/24 42/93/24 70/94/24
f 70/86/22 42/95/22 41/96/22 71/87/22
f 74/97/22 75/98/22 76/99/22 40/100/22
f 74/91/25 70/94/25 69/101/25 77/102/25
f 77/102/26 69/101/26 49/103/26 46/104/26
f 65/78/22 67/81/22 36/84/22 24/79/22
f 78/105/22 62/73/22 32/76/22 79/106/22
f 6/107/27 28/108/27 53/109/27 7/110/27
f 56/111/22 80/112/22 57/113/22
f 81/114/28 60/115/28 59/116/28 80/117/28
f 27/118/29 35/57/29 53/60/29 28/119/29
f 73/120/30 46/121/30 49/122/30
f 43/47/31 4/4/31 82/123/31 83/124/31
f 47/125/22 84/126/22 77/127/22 46/128/22
f 27/129/32 24/130/32 36/39/32 35/38/32
f 85/131/33 51/56/33 8/132/33 86/133/33
f 87/134/34 79/135/34 32/136/34 20/137/34
f 88/138/4 12/12/4 15/15/4 89/139/4
f 4/4/35 7/7/35 82/123/35
f 62/140/15 40/44/15 76/141/15
f 68/142/30 67/143/30 46/121/30 73/120/30
f 63/144/36 62/145/36 76/146/36 75/147/36
f 65/148/36 64/149/36 84/150/36 47/151/36
f 67/143/18 65/152/18 47/153/18 46/121/18
f 62/140/15 78/154/15 41/45/15 40/44/15
f 64/149/36 63/144/36 75/147/36 84/150/36
f 84/126/22 75/98/22 74/97/22 77/127/22
f 1/155/37 90/156/37 91/157/37 92/158/37
f 29/159/38 93/160/38 30/161/38
f 94/162/39 95/163/39 96/164/39
f 9/9/4 2/165/4 97/166/4 10/10/4
f 54/167/40 16/168/40 31/169/40 98/170/40
f 99/171/41 85/172/41 100/173/41 101/174/41
f 11/175/7 92/176/7 91/177/7 100/178/7
f 90/179/42 13/180/42 12/181/42 91/182/42
f 96/164/43 30/161/43 102/183/43 103/184/43
f 30/161/44 101/174/44 104/185/44 102/183/44
f 101/174/4 100/173/4 105/186/4 104/185/4
f 100/187/45 91/182/45 106/188/45 105/189/45
f 88/190/46 106/188/46 91/182/46 12/181/46
f 94/191/39 96/164/39 103/184/39 107/192/39
f 57/193/47 80/194/47 59/195/47 43/196/47
f 55/197/48 83/124/48 82/123/48 108/198/48
f 108/198/49 82/123/49 7/7/49 61/199/49
f 55/200/50 43/201/50 83/202/50
f 10/203/7 97/204/7 92/176/7 11/175/7
f 30/161/7 96/164/7 98/205/7 31/206/7
f 109/207/51 54/208/51 98/209/51 96/210/51
f 2/165/37 1/155/37 92/158/37 97/166/37
f 107/211/34 87/134/34 20/137/34 94/212/34
f 99/213/52 58/66/52 50/55/52 85/131/52
f 85/131/52 50/55/52 51/56/52
f 29/214/53 16/16/53 26/28/53 93/215/53
f 94/216/7 20/21/7 22/23/7 95/217/7
f 86/218/3 8/8/3 11/11/3 100/219/3
f 90/220/54 1/1/54 3/3/54 13/221/54
f 15/222/55 110/223/55 111/224/55 89/225/55
f 14/226/56 112/227/56 110/223/56 15/222/56
f 80/112/22 56/111/22 111/228/22 110/229/22
f 13/230/57 81/231/57 112/232/57 14/233/57
f 81/234/22 80/112/22 110/229/22 112/235/22
f 19/19/58 39/43/58 5/49/58 44/236/58
f 3/20/59 19/19/59 44/236/59 60/237/59 81/231/59
f 51/56/60 45/50/60 9/42/60 8/132/60
f 45/50/61 39/43/61 9/42/61
f 3/20/7 81/231/7 13/230/7
f 22/23/62 21/22/62 54/61/62
f 93/215/7 26/28/7 58/66/7 99/213/7
f 95/217/63 22/23/63 54/61/63 109/238/63
f 17/17/64 34/37/64 33/36/64 66/239/64
f 18/18/65 17/17/65 66/239/65 24/25/65 23/24/65
f 26/28/7 18/18/7 23/24/7 58/66/7
f 21/22/66 34/37/66 54/61/66
f 100/187/67 85/240/67 86/241/67
f 30/161/68 93/160/68 99/171/68 101/174/68
f 96/164/39 95/163/39 109/242/39
f 113/243/36 114/244/36 115/245/36 116/246/36
f 116/247/34 115/248/34 117/249/34 118/250/34
f 118/251/7 117/252/7 119/253/7 120/254/7
f 120/255/15 119/256/15 114/257/15 113/258/15
f 121/259/34 122/260/34 123/261/34 124/262/34
f 117/263/22 115/264/22 114/265/22 119/266/22
f 120/254/4 125/267/4 126/268/4 118/251/4
f 118/251/4 126/268/4 127/269/4 116/270/4
f 113/271/4 128/272/4 125/267/4 120/254/4
f 116/270/4 127/269/4 128/272/4 113/271/4
f 129/273/4 123/274/4 122/275/4 130/276/4
f 131/277/15 129/278/15 130/279/15 132/280/15
f 132/281/7 130/282/7 122/283/7 121/284/7
f 123/261/34 133/285/34 134/286/34 124/262/34
f 127/287/36 124/288/36 131/289/36 128/290/36
f 125/291/7 132/281/7 121/284/7 126/292/7
f 128/293/15 131/277/15 132/280/15 125/294/15
f 126/295/34 121/259/34 124/262/34 127/296/34
f 129/273/4 135/297/4 133/298/4 123/274/4
f 131/277/15 136/299/15 135/300/15 129/278/15
f 124/288/22 134/301/22 136/302/22 131/289/22
f 137/1/69 138/3/69 139/2/69
f 140/4/70 141/7/70 142/6/70 143/5/70
f 144/8/3 145/11/3 146/10/3 147/9/3
f 148/12/4 149/15/4 150/14/4 151/13/4
f 152/16/71 153/18/71 154/17/71
f 139/2/72 138/20/72 155/19/72
f 156/21/36 157/23/36 158/22/36
f 159/24/73 160/27/73 142/26/73 161/25/73
f 152/16/74 162/28/74 153/18/74
f 161/25/75 142/26/75 163/30/75 164/29/75
f 152/31/11 165/34/11 166/33/11 167/32/11
f 156/21/76 158/22/76 168/37/76 169/36/76 170/35/76
f 171/38/77 38/41/77 37/40/77 172/39/77
f 147/42/78 139/2/78 155/19/78 173/43/78
f 174/44/15 175/46/15 41/45/15
f 176/47/79 140/4/79 143/5/79 177/48/79
f 160/27/80 178/50/80 173/43/80 143/49/80 142/26/80
f 179/51/81 180/54/81 181/53/81 182/52/81
f 183/55/36 184/56/36 178/50/36 160/27/36
f 171/57/82 185/60/82 52/59/82 38/58/82
f 186/61/83 152/16/83 154/17/83 168/37/83
f 55/62/84 176/65/84 187/64/84 56/63/84
f 188/66/36 183/55/36 160/27/36 159/24/36
f 189/67/22 176/47/22 177/48/22 190/68/22
f 141/69/85 61/72/85 52/71/85 185/70/85
f 191/73/22 170/76/22 169/75/22 192/74/22
f 193/77/22 194/80/22 161/79/22 195/78/22
f 192/74/22 169/75/22 194/80/22 193/77/22
f 196/81/22 172/84/22 37/83/22 68/82/22
f 197/85/22 72/88/22 71/87/22 198/86/22
f 180/89/22 73/90/22 72/88/22 197/85/22
f 199/91/86 198/94/86 175/93/86 174/92/86
f 198/86/22 71/87/22 41/96/22 175/95/22
f 199/97/22 174/100/22 200/99/22 201/98/22
f 199/91/87 202/102/87 197/101/87 198/94/87
f 202/102/88 179/104/88 180/103/88 197/101/88
f 195/78/22 161/79/22 172/84/22 196/81/22
f 78/105/22 79/106/22 170/76/22 191/73/22
f 142/107/89 141/110/89 185/109/89 163/108/89
f 56/111/22 187/113/22 203/112/22
f 204/114/90 203/117/90 189/116/90 190/115/90
f 164/118/91 163/119/91 185/60/91 171/57/91
f 73/120/92 180/122/92 179/121/92
f 176/47/93 205/124/93 206/123/93 140/4/93
f 182/125/22 179/128/22 202/127/22 207/126/22
f 164/129/94 171/38/94 172/39/94 161/130/94
f 208/131/95 209/133/95 144/132/95 184/56/95
f 87/134/34 156/137/34 170/136/34 79/135/34
f 88/138/4 89/139/4 149/15/4 148/12/4
f 140/4/96 206/123/96 141/7/96
f 191/140/15 200/141/15 174/44/15
f 68/142/92 73/120/92 179/121/92 196/143/92
f 192/144/7 201/147/7 200/146/7 191/145/7
f 195/148/7 182/151/7 207/150/7 193/149/7
f 196/143/81 179/121/81 182/153/81 195/152/81
f 191/140/15 174/44/15 41/45/15 78/154/15
f 193/149/7 207/150/7 201/147/7 192/144/7
f 207/126/22 202/127/22 199/97/22 201/98/22
f 137/155/37 210/158/37 211/157/37 212/156/37
f 167/159/38 166/161/38 213/160/38
f 214/162/39 215/164/39 216/163/39
f 147/9/4 146/10/4 217/166/4 139/165/4
f 186/167/40 218/170/40 165/169/40 152/168/40
f 219/171/97 220/174/97 221/173/97 208/172/97
f 145/175/36 221/178/36 211/177/36 210/176/36
f 212/179/98 211/182/98 148/181/98 151/180/98
f 215/164/43 103/184/43 102/183/43 166/161/43
f 166/161/44 102/183/44 104/185/44 220/174/44
f 220/174/4 104/185/4 105/186/4 221/173/4
f 221/187/45 105/189/45 106/188/45 211/182/45
f 88/190/99 148/181/99 211/182/99 106/188/99
f 214/191/39 107/192/39 103/184/39 215/164/39
f 187/193/100 176/196/100 189/195/100 203/194/100
f 55/197/101 108/198/101 206/123/101 205/124/101
f 108/198/102 61/199/102 141/7/102 206/123/102
f 55/200/103 205/202/103 176/201/103
f 146/203/36 145/175/36 210/176/36 217/204/36
f 166/161/36 165/206/36 218/205/36 215/164/36
f 222/207/51 215/210/51 218/209/51 186/208/51
f 139/165/37 217/166/37 210/158/37 137/155/37
f 107/211/34 214/212/34 156/137/34 87/134/34
f 219/213/104 208/131/104 183/55/104 188/66/104
f 208/131/104 184/56/104 183/55/104
f 167/214/105 213/215/105 162/28/105 152/16/105
f 214/216/36 216/217/36 157/23/36 156/21/36
f 209/218/3 221/219/3 145/11/3 144/8/3
f 212/220/106 151/221/106 138/3/106 137/1/106
f 149/222/107 89/225/107 111/224/107 223/223/107
f 150/226/108 149/222/108 223/223/108 224/227/108
f 203/112/22 223/229/22 111/228/22 56/111/22
f 151/230/109 150/233/109 224/232/109 204/231/109
f 204/234/22 224/235/22 223/229/22 203/112/22
f 155/19/110 177/236/110 143/49/110 173/43/110
f 138/20/111 204/231/111 190/237/111 177/236/111 155/19/111
f 184/56/112 144/132/112 147/42/112 178/50/112
f 178/50/113 147/42/113 173/43/113
f 138/20/36 151/230/36 204/231/36
f 157/23/114 186/61/114 158/22/114
f 213/215/36 219/213/36 188/66/36 162/28/36
f 216/217/115 222/238/115 186/61/115 157/23/115
f 154/17/116 194/239/116 169/36/116 168/37/116
f 153/18/117 159/24/117 161/25/117 194/239/117 154/17/117
f 162/28/36 188/66/36 159/24/36 153/18/36
f 158/22/118 186/61/118 168/37/118
f 221/187/119 209/241/119 208/240/119
f 166/161/120 220/174/120 219/171/120 213/160/120
f 215/164/39 222/242/39 216/163/39
f 225/243/7 226/246/7 227/245/7 228/244/7
f 226/247/34 229/250/34 230/249/34 227/248/34
f 229/251/36 231/254/36 232/253/36 230/252/36
f 231/255/15 225/258/15 228/257/15 232/256/15
f 233/259/34 234/262/34 235/261/34 236/260/34
f 230/263/22 232/266/22 228/265/22 227/264/22
f 231/254/4 229/251/4 237/268/4 238/267/4
f 229/251/4 226/270/4 239/269/4 237/268/4
f 225/271/4 231/254/4 238/267/4 240/272/4
f 226/270/4 225/271/4 240/272/4 239/269/4
f 241/273/4 242/276/4 236/275/4 235/274/4
f 243/277/15 244/280/15 242/279/15 241/278/15
f 244/281/36 233/284/36 236/283/36 242/282/36
f 235/261/34 234/262/34 245/286/34 246/285/34
f 239/287/7 240/290/7 243/289/7 234/288/7
f 238/291/36 237/292/36 233/284/36 244/281/36
f 240/293/15 238/294/15 244/280/15 243/277/15
f 237/295/34 239/296/34 234/262/34 233/259/34
f 241/273/4 235/274/4 246/298/4 247/297/4
f 243/277/15 241/278/15 247/300/15 248/299/15
f 234/288/22 243/289/22 248/302/22 245/301/22
