# PSX Racing car model — generated by tools/carmodels/export_models.mjs
mtllib landrover_wheels_r.mtl
v 0.867816 0.524528 -1.554296
v 0.867816 0.721128 -1.339970
v 0.867817 0.364113 -1.209815
v 0.867817 0.233959 -1.566831
v 0.637084 0.019632 -1.370230
v 0.637084 0.007098 -1.079661
v 0.637084 0.364113 -1.209815
v 0.637084 0.233959 -1.566831
v 0.637084 0.524528 -1.554296
v 0.867817 0.007098 -1.079661
v 0.867817 0.019632 -1.370230
v 0.637084 0.203698 -0.865335
v 0.637084 0.494268 -0.852800
v 0.867816 0.494268 -0.852800
v 0.867817 0.203698 -0.865335
v 0.637084 0.708594 -1.049401
v 0.637084 0.721128 -1.339970
v 0.867816 0.708594 -1.049401
v -0.867816 0.524528 -1.554296
v -0.867817 0.233959 -1.566831
v -0.867817 0.364113 -1.209815
v -0.867816 0.721128 -1.339970
v -0.637084 0.019632 -1.370230
v -0.637084 0.233959 -1.566831
v -0.637084 0.364113 -1.209815
v -0.637084 0.007098 -1.079661
v -0.637084 0.524528 -1.554296
v -0.867817 0.019632 -1.370230
v -0.867817 0.007098 -1.079661
v -0.637084 0.203698 -0.865335
v -0.637084 0.494268 -0.852800
v -0.867817 0.203698 -0.865335
v -0.867816 0.494268 -0.852800
v -0.637084 0.708594 -1.049401
v -0.637084 0.721128 -1.339970
v -0.867816 0.708594 -1.049401
vt 0.243232 0.873987
vt 0.208516 0.957798
vt 0.124705 0.873987
vt 0.208516 0.790176
vt 0.124705 0.755461
vt 0.040895 0.790176
vt 0.052279 0.930292
vt 0.049964 0.932841
vt 0.046751 0.929923
vt 0.049066 0.927374
vt 0.006179 0.873987
vt 0.040895 0.957798
vt 0.043538 0.927004
vt 0.045854 0.924455
vt 0.071556 0.947804
vt 0.069240 0.950353
vt 0.066027 0.947434
vt 0.068343 0.944886
vt 0.124705 0.992513
vt 0.062815 0.944516
vt 0.065130 0.941967
vt 0.059602 0.941597
vt 0.061917 0.939048
vt 0.056389 0.938679
vt 0.058705 0.936130
vt 0.053176 0.935760
vt 0.055492 0.933211
vt 0.243232 0.873987
vt 0.208516 0.790176
vt 0.124705 0.873987
vt 0.208516 0.957798
vt 0.124705 0.755461
vt 0.040895 0.790176
vt 0.052279 0.930292
vt 0.049066 0.927374
vt 0.046751 0.929923
vt 0.049964 0.932841
vt 0.006179 0.873987
vt 0.040895 0.957798
vt 0.045854 0.924455
vt 0.043538 0.927004
vt 0.071556 0.947804
vt 0.068343 0.944886
vt 0.066027 0.947434
vt 0.069240 0.950353
vt 0.124705 0.992513
vt 0.065130 0.941967
vt 0.062815 0.944516
vt 0.061917 0.939048
vt 0.059602 0.941597
vt 0.058705 0.936130
vt 0.056389 0.938679
vt 0.055492 0.933211
vt 0.053176 0.935760
vn 1.000000 0.000000 0.000000
vn -1.000000 0.000000 0.000000
vn 0.000000 0.043100 -0.999100
vn 0.000000 -0.676000 -0.736900
vn 0.000000 -0.999100 -0.043100
vn 0.000000 -0.736900 0.676000
vn 0.000000 -0.043100 0.999100
vn 0.000000 0.676000 0.736900
vn 0.000000 0.999100 0.043100
vn 0.000000 0.736900 -0.676000
vn -1.000000 0.000000 0.000000
vn 1.000000 0.000000 0.000000
vn 0.000000 0.043100 -0.999100
vn 0.000000 -0.676000 -0.736900
vn 0.000000 -0.999100 -0.043100
vn 0.000000 -0.736900 0.676000
vn 0.000000 -0.043100 0.999100
vn 0.000000 0.676000 0.736900
vn 0.000000 0.999100 0.043100
vn 0.000000 0.736900 -0.676000
o landrover_wheels_r
usemtl landrover_wheels_r
f 1/1/1 2/2/1 3/3/1 4/4/1
f 5/5/2 6/6/2 7/3/2 8/4/2
f 9/7/3 1/8/3 4/9/3 8/10/3
f 3/3/1 10/6/1 11/5/1 4/4/1
f 12/11/2 13/12/2 7/3/2 6/6/2
f 8/10/4 4/9/4 11/13/4 5/14/4
f 5/15/5 11/16/5 10/17/5 6/18/5
f 3/3/1 14/12/1 15/11/1 10/6/1
f 16/19/2 17/2/2 7/3/2 13/12/2
f 6/18/6 10/17/6 15/20/6 12/21/6
f 12/21/7 15/20/7 14/22/7 13/23/7
f 3/3/1 2/2/1 18/19/1 14/12/1
f 13/23/8 14/22/8 18/24/8 16/25/8
f 16/25/9 18/24/9 2/26/9 17/27/9
f 17/27/10 2/26/10 1/8/10 9/7/10
f 7/3/2 17/2/2 9/1/2 8/4/2
f 19/28/11 20/29/11 21/30/11 22/31/11
f 23/32/12 24/29/12 25/30/12 26/33/12
f 27/34/13 24/35/13 20/36/13 19/37/13
f 21/30/11 20/29/11 28/32/11 29/33/11
f 30/38/12 26/33/12 25/30/12 31/39/12
f 24/35/14 23/40/14 28/41/14 20/36/14
f 23/42/15 26/43/15 29/44/15 28/45/15
f 21/30/11 29/33/11 32/38/11 33/39/11
f 34/46/12 31/39/12 25/30/12 35/31/12
f 26/43/16 30/47/16 32/48/16 29/44/16
f 30/47/17 31/49/17 33/50/17 32/48/17
f 21/30/11 33/39/11 36/46/11 22/31/11
f 31/49/18 34/51/18 36/52/18 33/50/18
f 34/51/19 35/53/19 22/54/19 36/52/19
f 35/53/20 27/34/20 19/37/20 22/54/20
f 25/30/12 24/29/12 27/28/12 35/31/12
