# PSX Racing car model — generated by tools/carmodels/export_models.mjs
mtllib classic_roadster_wheels_f.mtl
v -0.802669 0.561385 -1.139840
v -0.789584 0.542776 -1.285276
v -0.802669 0.525144 -1.275096
v -0.802669 0.426129 -1.374111
v -0.789584 0.436310 -1.391743
v -0.802669 0.290873 -1.410352
v -0.789584 0.145437 -1.391743
v -0.802669 0.155617 -1.374111
v -0.802669 0.056602 -1.275096
v -0.789584 0.038970 -1.285276
v -0.802669 0.020361 -1.139840
v -0.789584 0.038970 -0.994403
v -0.802669 0.056602 -1.004584
v -0.802669 0.155617 -0.905569
v -0.789584 0.145437 -0.887937
v -0.802669 0.290873 -0.869328
v -0.789584 0.436310 -0.887937
v -0.802669 0.426129 -0.905569
v -0.802669 0.525144 -1.004584
v -0.789584 0.542776 -0.994403
v -0.629554 0.581746 -1.139840
v -0.789584 0.581746 -1.139840
v -0.629554 0.542776 -1.285276
v -0.629554 0.436310 -1.391743
v -0.789584 0.290873 -1.430713
v -0.629554 0.290873 -1.430713
v -0.629554 0.145437 -1.391743
v -0.629554 0.038970 -1.285276
v -0.789584 0.000000 -1.139840
v -0.629554 0.000000 -1.139840
v -0.629554 0.038970 -0.994403
v -0.629554 0.145437 -0.887937
v -0.789584 0.290873 -0.848967
v -0.629554 0.290873 -0.848967
v -0.629554 0.436310 -0.887937
v -0.629554 0.542776 -0.994403
v -0.616470 0.561385 -1.139840
v -0.616470 0.525144 -1.275096
v -0.616470 0.290873 -1.410352
v -0.616470 0.155617 -1.374111
v -0.616470 0.020361 -1.139840
v -0.616470 0.056602 -1.004584
v -0.616470 0.290873 -0.869328
v -0.616470 0.426129 -0.905569
v -0.616470 0.056602 -1.275096
v -0.616470 0.426129 -1.374111
v -0.616470 0.155617 -0.905569
v -0.616470 0.525144 -1.004584
v 0.616470 0.561385 -1.139840
v 0.629554 0.542776 -1.285276
v 0.616470 0.525144 -1.275096
v 0.616470 0.426129 -1.374111
v 0.629554 0.436310 -1.391743
v 0.616470 0.290873 -1.410352
v 0.629554 0.145437 -1.391743
v 0.616470 0.155617 -1.374111
v 0.616470 0.056602 -1.275096
v 0.629554 0.038970 -1.285276
v 0.616470 0.020361 -1.139840
v 0.629554 0.038970 -0.994403
v 0.616470 0.056602 -1.004584
v 0.616470 0.155617 -0.905569
v 0.629554 0.145437 -0.887937
v 0.616470 0.290873 -0.869328
v 0.629554 0.436310 -0.887937
v 0.616470 0.426129 -0.905569
v 0.616470 0.525144 -1.004584
v 0.629554 0.542776 -0.994403
v 0.789584 0.581746 -1.139840
v 0.629554 0.581746 -1.139840
v 0.789584 0.542776 -1.285276
v 0.789584 0.436310 -1.391743
v 0.629554 0.290873 -1.430713
v 0.789584 0.290873 -1.430713
v 0.789584 0.145437 -1.391743
v 0.789584 0.038970 -1.285276
v 0.629554 0.000000 -1.139840
v 0.789584 0.000000 -1.139840
v 0.789584 0.038970 -0.994403
v 0.789584 0.145437 -0.887937
v 0.629554 0.290873 -0.848967
v 0.789584 0.290873 -0.848967
v 0.789584 0.436310 -0.887937
v 0.789584 0.542776 -0.994403
v 0.802669 0.561385 -1.139840
v 0.802669 0.525144 -1.275096
v 0.802669 0.290873 -1.410352
v 0.802669 0.155617 -1.374111
v 0.802669 0.020361 -1.139840
v 0.802669 0.056602 -1.004584
v 0.802669 0.290873 -0.869328
v 0.802669 0.426129 -0.905569
v 0.802669 0.056602 -1.275096
v 0.802669 0.426129 -1.374111
v 0.802669 0.155617 -0.905569
v 0.802669 0.525144 -1.004584
vt 0.808594 0.972656
vt 0.713339 0.937500
vt 0.615234 0.767578
vt 0.517130 0.937500
vt 0.558594 0.978964
vt 0.615234 0.994141
vt 0.671875 0.978964
vt 0.728516 0.880859
vt 0.713339 0.824219
vt 0.671875 0.782755
vt 0.558594 0.782755
vt 0.517130 0.824219
vt 0.501953 0.880859
vt 0.808594 0.972656
vt 0.501953 0.880859
vt 0.671875 0.782755
vt 0.671875 0.978964
vt 0.615234 0.994141
vt 0.558594 0.978964
vt 0.517130 0.937500
vt 0.517130 0.824219
vt 0.558594 0.782755
vt 0.615234 0.767578
vt 0.713339 0.824219
vt 0.728516 0.880859
vt 0.713339 0.937500
vn -0.946200 0.323700 0.000000
vn -0.841300 0.468200 -0.270300
vn -0.946200 0.280300 -0.161900
vn -0.946200 0.161900 -0.280300
vn -0.841300 0.270300 -0.468200
vn -0.946200 0.000000 -0.323700
vn -0.841300 -0.270300 -0.468200
vn -0.946200 -0.161900 -0.280400
vn -0.946200 -0.280300 -0.161900
vn -0.841300 -0.468200 -0.270300
vn -0.946200 -0.323700 0.000000
vn -0.841300 -0.468200 0.270300
vn -0.946200 -0.280400 0.161900
vn -0.946200 -0.161900 0.280400
vn -0.841300 -0.270300 0.468200
vn -0.946200 0.000000 0.323700
vn -0.841300 0.270300 0.468200
vn -0.946100 0.161900 0.280400
vn -0.946200 0.280300 0.161900
vn -0.841300 0.468200 0.270300
vn 0.000000 1.000000 0.000000
vn 0.000000 0.866000 -0.500000
vn 0.000000 0.500000 -0.866000
vn 0.000000 0.000000 -1.000000
vn 0.000000 -0.500000 -0.866000
vn 0.000000 -0.866000 -0.500000
vn 0.000000 -1.000000 0.000000
vn 0.000000 -0.866000 0.500000
vn 0.000000 -0.500000 0.866000
vn 0.000000 0.000000 1.000000
vn 0.000000 0.500000 0.866000
vn 0.000000 0.866000 0.500000
vn 0.946200 0.323700 0.000000
vn 0.841300 0.468200 -0.270300
vn 0.841300 0.540600 0.000000
vn 0.946200 0.280400 -0.161900
vn 0.841300 0.270300 -0.468200
vn 0.946200 0.000000 -0.323700
vn 0.841300 0.000000 -0.540600
vn 0.841300 -0.270300 -0.468200
vn 0.946200 -0.161900 -0.280300
vn 0.841300 -0.468200 -0.270300
vn 0.946200 -0.323700 0.000000
vn 0.841300 -0.540600 0.000000
vn 0.841300 -0.468200 0.270300
vn 0.946200 -0.280400 0.161900
vn 0.841300 -0.270300 0.468200
vn 0.946200 0.000000 0.323700
vn 0.841300 0.000000 0.540600
vn 0.841300 0.270300 0.468200
vn 0.946200 0.161900 0.280300
vn 0.841300 0.468200 0.270300
vn 0.946200 -0.280400 -0.161900
vn -0.841300 0.540600 0.000000
vn -0.841300 0.000000 -0.540600
vn -0.841300 -0.540600 0.000000
vn -0.841300 0.000000 0.540600
vn 0.946200 0.161900 -0.280400
vn 0.946200 -0.161900 0.280400
vn 0.946200 0.280400 0.161900
vn -0.946200 0.323700 0.000000
vn -0.841300 0.468200 -0.270300
vn -0.946200 0.280300 -0.161900
vn -0.946200 0.161900 -0.280300
vn -0.841300 0.270300 -0.468200
vn -0.946200 0.000000 -0.323700
vn -0.841300 -0.270300 -0.468200
vn -0.946200 -0.161900 -0.280400
vn -0.946200 -0.280300 -0.161900
vn -0.841300 -0.468200 -0.270300
vn -0.946200 -0.323700 0.000000
vn -0.841300 -0.468200 0.270300
vn -0.946200 -0.280400 0.161900
vn -0.946200 -0.161900 0.280400
vn -0.841300 -0.270300 0.468200
vn -0.946200 0.000000 0.323700
vn -0.841300 0.270300 0.468200
vn -0.946100 0.161900 0.280400
vn -0.946200 0.280300 0.161900
vn -0.841300 0.468200 0.270300
vn 0.000000 1.000000 0.000000
vn 0.000000 0.866000 -0.500000
vn 0.000000 0.500000 -0.866000
vn 0.000000 0.000000 -1.000000
vn 0.000000 -0.500000 -0.866000
vn 0.000000 -0.866000 -0.500000
vn 0.000000 -1.000000 0.000000
vn 0.000000 -0.866000 0.500000
vn 0.000000 -0.500000 0.866000
vn 0.000000 0.000000 1.000000
vn 0.000000 0.500000 0.866000
vn 0.000000 0.866000 0.500000
vn 0.946200 0.323700 0.000000
vn 0.841300 0.468200 -0.270300
vn 0.841300 0.540600 0.000000
vn 0.946200 0.280400 -0.161900
vn 0.841300 0.270300 -0.468200
vn 0.946200 0.000000 -0.323700
vn 0.841300 0.000000 -0.540600
vn 0.841300 -0.270300 -0.468200
vn 0.946200 -0.161900 -0.280300
vn 0.841300 -0.468200 -0.270300
vn 0.946200 -0.323700 0.000000
vn 0.841300 -0.540600 0.000000
vn 0.841300 -0.468200 0.270300
vn 0.946200 -0.280400 0.161900
vn 0.841300 -0.270300 0.468200
vn 0.946200 0.000000 0.323700
vn 0.841300 0.000000 0.540600
vn 0.841300 0.270300 0.468200
vn 0.946200 0.161900 0.280300
vn 0.841300 0.468200 0.270300
vn 0.946200 -0.280400 -0.161900
vn -0.841300 0.540600 0.000000
vn -0.841300 0.000000 -0.540600
vn -0.841300 -0.540600 0.000000
vn -0.841300 0.000000 0.540600
vn 0.946200 0.161900 -0.280400
vn 0.946200 -0.161900 0.280400
vn 0.946200 0.280400 0.161900
o classic_roadster_wheels_f
usemtl classic_roadster_wheels_f
f 1/1/1 2/1/2 3/1/3
f 2/1/2 4/1/4 3/1/3
f 5/1/5 6/1/6 4/1/4
f 6/1/6 7/1/7 8/1/8
f 7/1/7 9/1/9 8/1/8
f 10/1/10 11/1/11 9/1/9
f 11/1/11 12/1/12 13/1/13
f 12/1/12 14/1/14 13/1/13
f 15/1/15 16/1/16 14/1/14
f 16/1/16 17/1/17 18/1/18
f 17/1/17 19/1/19 18/1/18
f 20/1/20 1/1/1 19/1/19
f 21/1/21 2/1/22 22/1/21
f 23/1/22 5/1/23 2/1/22
f 24/1/23 25/1/24 5/1/23
f 26/1/24 7/1/25 25/1/24
f 27/1/25 10/1/26 7/1/25
f 28/1/26 29/1/27 10/1/26
f 30/1/27 12/1/28 29/1/27
f 31/1/28 15/1/29 12/1/28
f 32/1/29 33/1/30 15/1/29
f 34/1/30 17/1/31 33/1/30
f 35/1/31 20/1/32 17/1/31
f 36/1/32 22/1/21 20/1/32
f 37/1/33 23/1/34 21/1/35
f 38/1/36 24/1/37 23/1/34
f 24/1/37 39/1/38 26/1/39
f 39/1/38 27/1/40 26/1/39
f 40/1/41 28/1/42 27/1/40
f 28/1/42 41/1/43 30/1/44
f 41/1/43 31/1/45 30/1/44
f 42/1/46 32/1/47 31/1/45
f 32/1/47 43/1/48 34/1/49
f 43/1/48 35/1/50 34/1/49
f 44/1/51 36/1/52 35/1/50
f 36/1/52 37/1/33 21/1/35
f 4/2/4 11/3/11 18/4/18
f 43/1/48 45/1/53 38/1/36
f 1/1/1 22/1/54 2/1/2
f 2/1/2 5/1/5 4/1/4
f 5/1/5 25/1/55 6/1/6
f 6/1/6 25/1/55 7/1/7
f 7/1/7 10/1/10 9/1/9
f 10/1/10 29/1/56 11/1/11
f 11/1/11 29/1/56 12/1/12
f 12/1/12 15/1/15 14/1/14
f 15/1/15 33/1/57 16/1/16
f 16/1/16 33/1/57 17/1/17
f 17/1/17 20/1/20 19/1/19
f 20/1/20 22/1/54 1/1/1
f 21/1/21 23/1/22 2/1/22
f 23/1/22 24/1/23 5/1/23
f 24/1/23 26/1/24 25/1/24
f 26/1/24 27/1/25 7/1/25
f 27/1/25 28/1/26 10/1/26
f 28/1/26 30/1/27 29/1/27
f 30/1/27 31/1/28 12/1/28
f 31/1/28 32/1/29 15/1/29
f 32/1/29 34/1/30 33/1/30
f 34/1/30 35/1/31 17/1/31
f 35/1/31 36/1/32 20/1/32
f 36/1/32 21/1/21 22/1/21
f 37/1/33 38/1/36 23/1/34
f 38/1/36 46/1/58 24/1/37
f 24/1/37 46/1/58 39/1/38
f 39/1/38 40/1/41 27/1/40
f 40/1/41 45/1/53 28/1/42
f 28/1/42 45/1/53 41/1/43
f 41/1/43 42/1/46 31/1/45
f 42/1/46 47/1/59 32/1/47
f 32/1/47 47/1/59 43/1/48
f 43/1/48 44/1/51 35/1/50
f 44/1/51 48/1/60 36/1/52
f 36/1/52 48/1/60 37/1/33
f 18/4/18 19/5/19 1/6/1
f 1/6/1 3/7/3 18/4/18
f 3/7/3 4/2/4 18/4/18
f 4/2/4 6/8/6 8/9/8
f 8/9/8 9/10/9 11/3/11
f 11/3/11 13/11/13 14/12/14
f 14/12/14 16/13/16 18/4/18
f 4/2/4 8/9/8 11/3/11
f 11/3/11 14/12/14 18/4/18
f 38/1/36 37/1/33 48/1/60
f 48/1/60 44/1/51 43/1/48
f 43/1/48 47/1/59 42/1/46
f 42/1/46 41/1/43 45/1/53
f 45/1/53 40/1/41 39/1/38
f 39/1/38 46/1/58 38/1/36
f 38/1/36 48/1/60 43/1/48
f 43/1/48 42/1/46 45/1/53
f 45/1/53 39/1/38 38/1/36
f 49/14/61 50/14/62 51/14/63
f 50/14/62 52/14/64 51/14/63
f 53/14/65 54/14/66 52/14/64
f 54/14/66 55/14/67 56/14/68
f 55/14/67 57/14/69 56/14/68
f 58/14/70 59/14/71 57/14/69
f 59/14/71 60/14/72 61/14/73
f 60/14/72 62/14/74 61/14/73
f 63/14/75 64/14/76 62/14/74
f 64/14/76 65/14/77 66/14/78
f 65/14/77 67/14/79 66/14/78
f 68/14/80 49/14/61 67/14/79
f 69/14/81 50/14/82 70/14/81
f 71/14/82 53/14/83 50/14/82
f 72/14/83 73/14/84 53/14/83
f 74/14/84 55/14/85 73/14/84
f 75/14/85 58/14/86 55/14/85
f 76/14/86 77/14/87 58/14/86
f 78/14/87 60/14/88 77/14/87
f 79/14/88 63/14/89 60/14/88
f 80/14/89 81/14/90 63/14/89
f 82/14/90 65/14/91 81/14/90
f 83/14/91 68/14/92 65/14/91
f 84/14/92 70/14/81 68/14/92
f 85/14/93 71/14/94 69/14/95
f 86/14/96 72/14/97 71/14/94
f 72/14/97 87/14/98 74/14/99
f 87/14/98 75/14/100 74/14/99
f 88/14/101 76/14/102 75/14/100
f 76/14/102 89/14/103 78/14/104
f 89/14/103 79/14/105 78/14/104
f 90/14/106 80/14/107 79/14/105
f 80/14/107 91/14/108 82/14/109
f 91/14/108 83/14/110 82/14/109
f 92/14/111 84/14/112 83/14/110
f 84/14/112 85/14/93 69/14/95
f 52/14/64 59/14/71 66/14/78
f 91/15/108 93/16/113 86/17/96
f 49/14/61 70/14/114 50/14/62
f 50/14/62 53/14/65 52/14/64
f 53/14/65 73/14/115 54/14/66
f 54/14/66 73/14/115 55/14/67
f 55/14/67 58/14/70 57/14/69
f 58/14/70 77/14/116 59/14/71
f 59/14/71 77/14/116 60/14/72
f 60/14/72 63/14/75 62/14/74
f 63/14/75 81/14/117 64/14/76
f 64/14/76 81/14/117 65/14/77
f 65/14/77 68/14/80 67/14/79
f 68/14/80 70/14/114 49/14/61
f 69/14/81 71/14/82 50/14/82
f 71/14/82 72/14/83 53/14/83
f 72/14/83 74/14/84 73/14/84
f 74/14/84 75/14/85 55/14/85
f 75/14/85 76/14/86 58/14/86
f 76/14/86 78/14/87 77/14/87
f 78/14/87 79/14/88 60/14/88
f 79/14/88 80/14/89 63/14/89
f 80/14/89 82/14/90 81/14/90
f 82/14/90 83/14/91 65/14/91
f 83/14/91 84/14/92 68/14/92
f 84/14/92 69/14/81 70/14/81
f 85/14/93 86/14/96 71/14/94
f 86/14/96 94/14/118 72/14/97
f 72/14/97 94/14/118 87/14/98
f 87/14/98 88/14/101 75/14/100
f 88/14/101 93/14/113 76/14/102
f 76/14/102 93/14/113 89/14/103
f 89/14/103 90/14/106 79/14/105
f 90/14/106 95/14/119 80/14/107
f 80/14/107 95/14/119 91/14/108
f 91/14/108 92/14/111 83/14/110
f 92/14/111 96/14/120 84/14/112
f 84/14/112 96/14/120 85/14/93
f 66/14/78 67/14/79 49/14/61
f 49/14/61 51/14/63 66/14/78
f 51/14/63 52/14/64 66/14/78
f 52/14/64 54/14/66 56/14/68
f 56/14/68 57/14/69 59/14/71
f 59/14/71 61/14/73 62/14/74
f 62/14/74 64/14/76 66/14/78
f 52/14/64 56/14/68 59/14/71
f 59/14/71 62/14/74 66/14/78
f 86/17/96 85/18/93 96/19/120
f 96/19/120 92/20/111 91/15/108
f 91/15/108 95/21/119 90/22/106
f 90/22/106 89/23/103 93/16/113
f 93/16/113 88/24/101 87/25/98
f 87/25/98 94/26/118 86/17/96
f 86/17/96 96/19/120 91/15/108
f 91/15/108 90/22/106 93/16/113
f 93/16/113 87/25/98 86/17/96
