# PSX Racing car model — generated by tools/carmodels/export_models.mjs
mtllib gto_66_wheels_r.mtl
v -0.886271 0.314290 -1.586915
v -0.886271 0.075663 -1.488073
v -0.886271 0.314290 -1.249446
v -0.886271 0.552917 -1.488073
v -0.671648 -0.023179 -1.249446
v -0.671648 0.075663 -1.488073
v -0.671648 0.314290 -1.249446
v -0.671648 0.075663 -1.010819
v -0.671648 0.314290 -1.586915
v -0.886271 -0.023179 -1.249446
v -0.886271 0.075663 -1.010819
v -0.671648 0.314290 -0.911977
v -0.671648 0.552917 -1.010819
v -0.886271 0.314290 -0.911977
v -0.886271 0.552917 -1.010819
v -0.671648 0.651759 -1.249446
v -0.671648 0.552917 -1.488073
v -0.886271 0.651759 -1.249446
v 0.886271 0.314290 -1.586915
v 0.886271 0.552917 -1.488073
v 0.886271 0.314290 -1.249446
v 0.886271 0.075663 -1.488073
v 0.671648 -0.023179 -1.249446
v 0.671648 0.075663 -1.010819
v 0.671648 0.314290 -1.249446
v 0.671648 0.075663 -1.488073
v 0.671648 0.314290 -1.586915
v 0.886271 0.075663 -1.010819
v 0.886271 -0.023179 -1.249446
v 0.671648 0.314290 -0.911977
v 0.671648 0.552917 -1.010819
v 0.886271 0.552917 -1.010819
v 0.886271 0.314290 -0.911977
v 0.671648 0.651759 -1.249446
v 0.671648 0.552917 -1.488073
v 0.886271 0.651759 -1.249446
vt 0.246023 0.925552
vt 0.246023 0.825090
vt 0.124755 0.875321
vt 0.174986 0.996589
vt 0.074506 0.996486
vt 0.174967 0.996486
vt 0.124736 0.875218
vt 0.003468 0.925449
vt 0.192582 0.551195
vt 0.222556 0.551195
vt 0.222556 0.526289
vt 0.192582 0.526289
vt 0.174986 0.754053
vt 0.074524 0.754053
vt 0.003468 0.824987
vt 0.074506 0.753950
vt 0.252530 0.551195
vt 0.252530 0.526289
vt 0.012741 0.551195
vt 0.042714 0.551195
vt 0.042714 0.526288
vt 0.012741 0.526288
vt 0.003487 0.825090
vt 0.003487 0.925552
vt 0.174967 0.753950
vt 0.246005 0.824987
vt 0.072688 0.551195
vt 0.072688 0.526288
vt 0.102661 0.551195
vt 0.102661 0.526288
vt 0.074524 0.996589
vt 0.132635 0.551195
vt 0.132635 0.526288
vt 0.162609 0.551195
vt 0.162609 0.526288
vt 0.246005 0.925449
vt 0.246023 0.925552
vt 0.174986 0.996589
vt 0.124755 0.875321
vt 0.246023 0.825090
vt 0.074506 0.996486
vt 0.003468 0.925449
vt 0.124736 0.875218
vt 0.174967 0.996486
vt 0.192582 0.551195
vt 0.192582 0.526289
vt 0.222556 0.526289
vt 0.222556 0.551195
vt 0.074524 0.754053
vt 0.174986 0.754053
vt 0.003468 0.824987
vt 0.074506 0.753950
vt 0.252530 0.526289
vt 0.252530 0.551195
vt 0.012741 0.551195
vt 0.012741 0.526288
vt 0.042714 0.526288
vt 0.042714 0.551195
vt 0.003487 0.925552
vt 0.003487 0.825090
vt 0.174967 0.753950
vt 0.246005 0.824987
vt 0.072688 0.526288
vt 0.072688 0.551195
vt 0.102661 0.526288
vt 0.102661 0.551195
vt 0.074524 0.996589
vt 0.132635 0.526288
vt 0.132635 0.551195
vt 0.162609 0.526288
vt 0.162609 0.551195
vt 0.246005 0.925449
vn -1.000000 0.000000 0.000000
vn 1.000000 0.000000 0.000000
vn 0.000000 -0.382700 -0.923900
vn 0.000000 -0.923900 -0.382700
vn 0.000000 -0.923900 0.382700
vn 0.000000 -0.382700 0.923900
vn 0.000000 0.382700 0.923900
vn 0.000000 0.923900 0.382700
vn 0.000000 0.923900 -0.382700
vn 0.000000 0.382700 -0.923900
vn 1.000000 0.000000 0.000000
vn -1.000000 0.000000 0.000000
vn 0.000000 -0.382700 -0.923900
vn 0.000000 -0.923900 -0.382700
vn 0.000000 -0.923900 0.382700
vn 0.000000 -0.382700 0.923900
vn 0.000000 0.382700 0.923900
vn 0.000000 0.923900 0.382700
vn 0.000000 0.923900 -0.382700
vn 0.000000 0.382700 -0.923900
o gto_66_wheels_r
usemtl gto_66_wheels_r
f 1/1/1 2/2/1 3/3/1 4/4/1
f 5/5/2 6/6/2 7/7/2 8/8/2
f 9/9/3 6/10/3 2/11/3 1/12/3
f 3/3/1 2/2/1 10/13/1 11/14/1
f 12/15/2 8/8/2 7/7/2 13/16/2
f 6/10/4 5/17/4 10/18/4 2/11/4
f 5/19/5 8/20/5 11/21/5 10/22/5
f 3/3/1 11/14/1 14/23/1 15/24/1
f 16/25/2 13/16/2 7/7/2 17/26/2
f 8/20/6 12/27/6 14/28/6 11/21/6
f 12/27/7 13/29/7 15/30/7 14/28/7
f 3/3/1 15/24/1 18/31/1 4/4/1
f 13/29/8 16/32/8 18/33/8 15/30/8
f 16/32/9 17/34/9 4/35/9 18/33/9
f 17/34/10 9/9/10 1/12/10 4/35/10
f 7/7/2 6/6/2 9/36/2 17/26/2
f 19/37/11 20/38/11 21/39/11 22/40/11
f 23/41/12 24/42/12 25/43/12 26/44/12
f 27/45/13 19/46/13 22/47/13 26/48/13
f 21/39/11 28/49/11 29/50/11 22/40/11
f 30/51/12 31/52/12 25/43/12 24/42/12
f 26/48/14 22/47/14 29/53/14 23/54/14
f 23/55/15 29/56/15 28/57/15 24/58/15
f 21/39/11 32/59/11 33/60/11 28/49/11
f 34/61/12 35/62/12 25/43/12 31/52/12
f 24/58/16 28/57/16 33/63/16 30/64/16
f 30/64/17 33/63/17 32/65/17 31/66/17
f 21/39/11 20/38/11 36/67/11 32/59/11
f 31/66/18 32/65/18 36/68/18 34/69/18
f 34/69/19 36/68/19 20/70/19 35/71/19
f 35/71/20 20/70/20 19/46/20 27/45/20
f 25/43/12 35/62/12 27/72/12 26/44/12
