# PSX Racing car model — generated by tools/carmodels/export_models.mjs
mtllib gto_66.mtl
v 0.856656 0.917164 -1.554262
v 0.686854 1.227868 -0.878881
v 0.962516 0.952915 -0.834094
v 0.901110 0.933214 -1.209075
v 0.888748 0.798349 -2.558648
v 0.678703 0.876540 -2.416040
v 0.939784 0.798349 -1.554262
v 1.000000 0.902298 0.939543
v 0.686854 1.294535 0.540134
v 0.694992 0.902298 1.033744
v 0.847496 0.921865 0.986644
v 0.000000 0.905830 2.139016
v 0.000000 0.864176 2.543859
v 0.694984 0.864176 2.431948
v 0.694986 0.902298 2.134777
v 0.654391 0.917164 -1.449002
v 0.984505 0.902298 1.348488
v 0.839748 0.921865 1.348488
v 0.686854 1.310948 -0.304640
v 0.000000 1.281534 -0.878881
v 0.000000 1.364614 -0.304640
v 0.936683 0.798349 2.487715
v 0.923966 0.864176 2.485148
v 0.809475 0.921865 2.458548
v 0.694947 0.798349 2.434515
v 0.978177 0.798349 1.735340
v 0.965459 0.902298 1.735340
v 0.945795 0.902298 2.134777
v 0.958512 0.798349 2.100842
v 1.000000 0.903326 0.000087
v 0.686854 1.319909 0.000087
v 1.000000 0.903326 0.605923
v 1.012717 0.798349 0.000087
v 1.012717 0.798349 0.605923
v 0.000000 0.798349 2.604712
v 0.986717 0.819998 -1.196319
v 1.012717 0.798349 0.941296
v 0.000000 0.798349 -2.528890
v 0.000000 0.876540 -2.416040
v 0.678662 0.798349 -2.528890
v 1.012717 0.805854 -0.290597
v 1.000000 0.903326 -0.289113
v 0.694990 0.902298 1.348488
v 0.000000 0.964117 1.074368
v 0.000000 0.964117 1.389112
v 0.000000 1.373575 0.000087
v 0.000000 1.327731 0.575909
v 0.820390 0.921865 2.134777
v 0.000000 0.917164 -1.500288
v 0.678396 0.354368 -2.435822
v 0.678579 0.631405 -2.544977
v 0.910655 0.631405 -2.574735
v 0.835695 0.354368 -2.465580
v 0.933871 0.212360 -0.278784
v 1.016583 0.617868 -0.314495
v 1.016583 0.617868 0.000087
v 0.933871 0.212360 0.000087
v 0.879666 0.284878 2.134777
v 0.954626 0.574394 2.032192
v 0.932797 0.629303 2.492906
v 0.857837 0.284878 2.373579
v 0.000000 0.354368 -2.435822
v 0.000000 0.631405 -2.544977
v 0.933871 0.212360 0.605923
v 1.016583 0.617868 0.605923
v 1.016583 0.617868 0.944842
v 0.933871 0.212360 0.944842
v 1.000000 0.506269 -1.554262
v 1.008831 0.590837 -1.230786
v 0.594378 0.590837 -1.230786
v 0.594378 0.506269 -1.554262
v 0.694707 0.284878 2.378666
v 0.694872 0.629303 2.497993
v 0.000000 0.629303 2.609904
v 0.000000 0.284878 2.490577
v 1.000000 0.506269 -0.907310
v 0.933871 0.212360 -0.804301
v 0.594378 0.212360 -0.804301
v 0.594378 0.506269 -0.907310
v 0.933871 0.309646 -1.646461
v 0.993336 0.571625 1.439627
v 0.918376 0.211365 1.350961
v 0.694988 0.902298 1.735340
v 0.000000 0.939389 1.774198
v 0.997222 0.798349 1.378637
v 0.830224 0.921865 1.735340
v 0.974291 0.641302 1.735340
v 0.594378 0.641302 1.735340
v 0.594378 0.571625 1.439627
v 0.594378 0.211365 1.350961
v 1.012717 0.819998 -0.838376
v 0.594378 0.309646 -1.646461
v 0.594378 0.574394 2.032192
v 0.594378 0.284878 2.134777
v 0.594403 0.212360 0.605923
v 0.594403 0.212360 0.000087
v 0.594403 0.212360 0.944842
v 0.594394 0.212360 -0.278784
v 0.000000 0.211365 1.350961
v 0.000000 0.212360 0.944842
v 0.000000 0.212360 0.605923
v 0.000000 0.212360 0.000087
v 0.000000 0.212360 -0.804301
v 0.000000 0.309646 -1.646461
v 0.000000 0.212360 -0.278784
v 0.000000 0.284878 2.134777
v 1.082762 1.047082 0.458914
v 1.021194 1.084369 0.458914
v 1.021194 1.039103 0.458914
v 1.034316 1.029959 0.458914
v 1.063871 0.981337 0.458914
v 1.021194 0.963660 0.458914
v 1.021194 0.963660 0.434772
v 1.063871 0.981337 0.434772
v 0.978517 0.981337 0.458914
v 0.957198 1.048296 0.458914
v 0.957198 1.048296 0.434772
v 0.978517 0.981337 0.434772
v 1.006106 1.024014 0.458914
v 1.082762 1.047082 0.434772
v 1.035363 1.013345 0.458914
v 1.021194 1.008926 0.458914
v 1.010525 1.013345 0.458914
v 1.010525 1.024014 0.464928
v 1.018189 1.033328 0.481785
v 1.024078 1.024014 0.486266
v 1.013650 1.013345 0.465608
v 0.957575 0.951422 0.464928
v 0.965239 0.964762 0.481785
v 0.971127 0.951422 0.486266
v 1.028938 1.013345 0.480544
v 1.021194 1.008926 0.472949
v 0.975988 0.940752 0.480544
v 0.968244 0.936333 0.472949
v 0.960700 0.940752 0.465608
v 1.021194 1.084369 0.434772
v 1.021194 1.024014 0.434772
v -0.856656 0.917164 -1.554262
v -0.901110 0.933214 -1.209075
v -0.962516 0.952915 -0.834094
v -0.686854 1.227868 -0.878881
v -0.888748 0.798349 -2.558648
v -0.939784 0.798349 -1.554262
v -0.678703 0.876540 -2.416040
v -1.000000 0.902298 0.939543
v -0.847496 0.921865 0.986644
v -0.694992 0.902298 1.033744
v -0.686854 1.294535 0.540134
v -0.694986 0.902298 2.134777
v -0.694984 0.864176 2.431948
v -0.654391 0.917164 -1.449002
v -0.984505 0.902298 1.348488
v -0.839748 0.921865 1.348488
v -0.686854 1.310948 -0.304640
v -0.936683 0.798349 2.487715
v -0.694947 0.798349 2.434515
v -0.809475 0.921865 2.458548
v -0.923966 0.864176 2.485148
v -0.978177 0.798349 1.735340
v -0.958512 0.798349 2.100842
v -0.945795 0.902298 2.134777
v -0.965459 0.902298 1.735340
v -1.000000 0.903326 0.000087
v -1.000000 0.903326 0.605923
v -0.686854 1.319909 0.000087
v -1.012717 0.798349 0.000087
v -1.012717 0.798349 0.605923
v -0.986717 0.819998 -1.196319
v -1.012717 0.798349 0.941296
v -0.678662 0.798349 -2.528890
v -1.012717 0.805854 -0.290597
v -1.000000 0.903326 -0.289113
v -0.694990 0.902298 1.348488
v -0.820390 0.921865 2.134777
v -0.678396 0.354368 -2.435822
v -0.835695 0.354368 -2.465580
v -0.910655 0.631405 -2.574735
v -0.678579 0.631405 -2.544977
v -0.933871 0.212360 -0.278784
v -0.933871 0.212360 0.000087
v -1.016583 0.617868 0.000087
v -1.016583 0.617868 -0.314495
v -0.879666 0.284878 2.134777
v -0.857837 0.284878 2.373579
v -0.932797 0.629303 2.492906
v -0.954626 0.574394 2.032192
v -0.933871 0.212360 0.605923
v -0.933871 0.212360 0.944842
v -1.016583 0.617868 0.944842
v -1.016583 0.617868 0.605923
v -1.000000 0.506269 -1.554262
v -0.594378 0.506269 -1.554262
v -0.594378 0.590837 -1.230786
v -1.008831 0.590837 -1.230786
v -0.694707 0.284878 2.378666
v -0.694872 0.629303 2.497993
v -1.000000 0.506269 -0.907310
v -0.594378 0.506269 -0.907310
v -0.594378 0.212360 -0.804301
v -0.933871 0.212360 -0.804301
v -0.933871 0.309646 -1.646461
v -0.918376 0.211365 1.350961
v -0.993336 0.571625 1.439627
v -0.694988 0.902298 1.735340
v -0.997222 0.798349 1.378637
v -0.830224 0.921865 1.735340
v -0.594378 0.571625 1.439627
v -0.594378 0.641302 1.735340
v -0.974291 0.641302 1.735340
v -0.594378 0.211365 1.350961
v -1.012717 0.819998 -0.838376
v -0.594378 0.309646 -1.646461
v -0.594378 0.574394 2.032192
v -0.594378 0.284878 2.134777
v -0.594403 0.212360 0.000087
v -0.594403 0.212360 0.605923
v -0.594403 0.212360 0.944842
v -0.594394 0.212360 -0.278784
v -1.082762 1.047082 0.458914
v -1.034316 1.029959 0.458914
v -1.021194 1.039103 0.458914
v -1.021194 1.084369 0.458914
v -1.063871 0.981337 0.458914
v -1.063871 0.981337 0.434772
v -1.021194 0.963660 0.434772
v -1.021194 0.963660 0.458914
v -0.978517 0.981337 0.458914
v -0.978517 0.981337 0.434772
v -0.957198 1.048296 0.434772
v -0.957198 1.048296 0.458914
v -1.006106 1.024014 0.458914
v -1.082762 1.047082 0.434772
v -1.021194 1.008926 0.458914
v -1.035363 1.013345 0.458914
v -1.010525 1.013345 0.458914
v -1.018189 1.033328 0.481785
v -1.010525 1.024014 0.464928
v -1.024078 1.024014 0.486266
v -1.013650 1.013345 0.465608
v -0.965239 0.964762 0.481785
v -0.957575 0.951422 0.464928
v -0.971127 0.951422 0.486266
v -1.028938 1.013345 0.480544
v -1.021194 1.008926 0.472949
v -0.968244 0.936333 0.472949
v -0.975988 0.940752 0.480544
v -0.960700 0.940752 0.465608
v -1.021194 1.084369 0.434772
v -1.021194 1.024014 0.434772
vt 0.678390 0.594287
vt 0.500804 0.684335
vt 0.488430 0.582755
vt 0.587535 0.589679
vt 0.990264 0.729024
vt 0.959957 0.790783
vt 0.729018 0.783541
vt 0.726530 0.745398
vt 0.277480 0.366907
vt 0.193398 0.511754
vt 0.196109 0.347141
vt 0.236049 0.360093
vt 0.703900 0.359923
vt 0.604311 0.360298
vt 0.630911 0.190109
vt 0.704426 0.189212
vt 0.431931 0.203126
vt 0.387929 0.008938
vt 0.440741 0.009028
vt 0.897527 0.118359
vt 0.997487 0.114780
vt 0.985908 0.152340
vt 0.897452 0.154075
vt 0.488535 0.811401
vt 0.263269 0.817749
vt 0.263269 0.764936
vt 0.837060 0.808128
vt 0.988555 0.806990
vt 0.987900 0.986878
vt 0.836405 0.988016
vt 0.259775 0.714200
vt 0.257682 0.731689
vt 0.228052 0.749114
vt 0.196488 0.736027
vt 0.195789 0.719017
vt 0.201695 0.307968
vt 0.201535 0.335315
vt 0.097106 0.335330
vt 0.106117 0.308034
vt 0.257175 0.009531
vt 0.257349 0.145607
vt 0.116277 0.140493
vt 0.098987 0.009666
vt 0.768135 0.532265
vt 0.768148 0.559877
vt 0.609956 0.559952
vt 0.609943 0.532340
vt 0.013202 0.739067
vt 0.009760 0.715575
vt 0.011876 0.009531
vt 0.638173 0.787665
vt 0.631668 0.751385
vt 0.522844 0.559726
vt 0.522373 0.532381
vt 0.493799 0.512573
vt 0.494041 0.547869
vt 0.317301 0.549542
vt 0.315469 0.513534
vt 0.005410 0.325625
vt 0.004936 0.308112
vt 0.844034 0.534176
vt 0.843662 0.559842
vt 0.346130 0.566538
vt 0.350197 0.700751
vt 0.270618 0.702614
vt 0.270618 0.566538
vt 0.897390 0.189800
vt 0.974334 0.189897
vt 0.964334 0.360298
vt 0.887462 0.360274
vt 0.616298 0.806990
vt 0.757460 0.808020
vt 0.756805 0.987908
vt 0.605985 0.986488
vt 0.625108 0.158691
vt 0.704611 0.157954
vt 0.013620 0.509316
vt 0.013620 0.348216
vt 0.488535 0.988615
vt 0.263269 0.988615
vt 0.611607 0.008938
vt 0.611713 0.209311
vt 0.259872 0.511579
vt 0.317752 0.391169
vt 0.315765 0.469044
vt 0.254533 0.468499
vt 0.276653 0.392702
vt 0.840884 0.377041
vt 0.850236 0.485085
vt 0.768109 0.485130
vt 0.768066 0.377069
vt 0.095920 0.171840
vt 0.123919 0.249508
vt 0.003492 0.263959
vt 0.033304 0.171469
vt 0.494041 0.391823
vt 0.493754 0.469201
vt 0.609872 0.377140
vt 0.609921 0.485204
vt 0.521425 0.485245
vt 0.521375 0.377181
vt 0.814848 0.051004
vt 0.845160 0.050203
vt 0.845160 0.087778
vt 0.814848 0.087778
vt 0.196115 0.575421
vt 0.194471 0.671598
vt 0.009520 0.672165
vt 0.013334 0.578563
vt 0.875473 0.051004
vt 0.903709 0.056999
vt 0.903709 0.087778
vt 0.875473 0.087778
vt 0.238222 0.575421
vt 0.257433 0.670428
vt 0.961137 0.610985
vt 0.991497 0.685276
vt 0.722379 0.667107
vt 0.745200 0.612338
vt 0.407539 0.152780
vt 0.408314 0.260839
vt 0.278982 0.248728
vt 0.301421 0.152478
vt 0.802663 0.189636
vt 0.793239 0.359896
vt 0.409180 0.307986
vt 0.409503 0.335330
vt 0.302656 0.335295
vt 0.294940 0.307914
vt 0.802921 0.122722
vt 0.802776 0.156178
vt 0.705095 0.126835
vt 0.921084 0.095060
vt 0.893540 0.093333
vt 0.893540 0.058889
vt 0.921084 0.058889
vt 0.954721 0.088264
vt 0.954721 0.058889
vt 0.539762 0.790783
vt 0.538889 0.753946
vt 0.795159 0.056999
vt 0.795159 0.087778
vt 0.865952 0.091550
vt 0.865952 0.058889
vt 0.838105 0.084754
vt 0.838105 0.058889
vt 0.975456 0.084327
vt 0.904082 0.084327
vt 0.915135 0.052558
vt 0.968647 0.057325
vt 0.984648 0.092891
vt 0.907788 0.092891
vt 0.914046 0.074223
vt 0.972313 0.067492
vt 0.942300 0.063241
vt 0.942418 0.048773
vt 0.979515 0.037013
vt 0.957404 0.046109
vt 0.957404 0.020244
vt 0.979054 0.022223
vt 0.801309 0.015330
vt 0.801309 0.046109
vt 0.729629 0.038492
vt 0.726935 0.024230
vt 0.805258 0.012797
vt 0.860185 0.012797
vt 0.860185 0.043574
vt 0.805258 0.043574
vt 0.890912 0.012797
vt 0.890912 0.043574
vt 0.927732 0.014202
vt 0.927732 0.043576
vt 0.779975 0.012797
vt 0.779975 0.043575
vt 0.732331 0.043576
vt 0.732331 0.012797
vt 0.927732 0.097464
vt 0.890912 0.097464
vt 0.860185 0.097464
vt 0.805258 0.097464
vt 0.878168 0.046109
vt 0.878168 0.099997
vt 0.801309 0.099997
vt 0.779975 0.097464
vt 0.886030 0.046109
vt 0.957404 0.099997
vt 0.886030 0.099997
vt 0.989662 0.099997
vt 0.729629 0.099997
vt 0.639146 0.691662
vt 0.554762 0.672202
vt 0.201613 0.266947
vt 0.451951 0.238008
vt 0.462470 0.245734
vt 0.454887 0.248875
vt 0.452444 0.247312
vt 0.575224 0.246383
vt 0.575224 0.238008
vt 0.579601 0.238008
vt 0.579601 0.246383
vt 0.575224 0.297901
vt 0.575224 0.285159
vt 0.579601 0.285159
vt 0.579601 0.297901
vt 0.460868 0.258958
vt 0.453406 0.252450
vt 0.575224 0.258787
vt 0.579601 0.258787
vt 0.575224 0.306277
vt 0.579601 0.306277
vt 0.442249 0.254110
vt 0.442249 0.245734
vt 0.449589 0.248289
vt 0.449832 0.250969
vt 0.448171 0.260033
vt 0.451312 0.252450
vt 0.530558 0.279330
vt 0.536003 0.276811
vt 0.535655 0.278764
vt 0.534334 0.280881
vt 0.530558 0.284577
vt 0.534482 0.281571
vt 0.538784 0.278651
vt 0.537344 0.279998
vt 0.519126 0.257637
vt 0.516035 0.255499
vt 0.515760 0.239209
vt 0.518878 0.241931
vt 0.521161 0.256921
vt 0.521319 0.240629
vt 0.535942 0.286272
vt 0.535144 0.281988
vt 0.539345 0.282509
vt 0.536297 0.281641
vt 0.524836 0.254438
vt 0.523294 0.255898
vt 0.523452 0.239606
vt 0.524994 0.238146
vt 0.514412 0.254298
vt 0.514137 0.238008
vt 0.575224 0.271838
vt 0.579601 0.271838
vt 0.526901 0.254299
vt 0.527060 0.238008
vt 0.118358 0.424395
vt 0.108247 0.420207
vt 0.108655 0.408293
vt 0.118358 0.416019
vt 0.098136 0.416019
vt 0.099739 0.429243
vt 0.112435 0.430318
vt 1.005024 0.455718
vt 0.987061 0.537727
vt 0.732331 0.097464
vt 0.978121 0.377041
vt 0.986096 0.574829
vt 0.618688 0.127300
vn 0.719900 0.679900 -0.139600
vn 0.527600 0.845400 -0.083100
vn 0.182400 0.786100 0.590500
vn 0.012000 0.993500 0.112900
vn -0.236500 0.858700 -0.454500
vn 0.131100 0.991400 0.004000
vn -0.022100 0.998900 -0.042500
vn 0.077100 0.986700 -0.142800
vn -0.222200 0.011800 0.974900
vn 0.992300 0.113100 0.051000
vn 0.789700 0.613400 0.013600
vn 0.992700 0.120300 0.000000
vn 0.179900 0.426900 0.886200
vn 0.780500 0.625100 0.001900
vn 0.804800 0.577800 -0.135600
vn 0.992700 0.120800 0.000200
vn 0.000000 0.822000 -0.569500
vn 0.988500 0.136000 0.065600
vn 0.992200 0.124600 0.001600
vn 0.796300 0.604900 -0.009100
vn 0.088600 0.996100 0.000000
vn 0.064600 0.995900 0.063600
vn -0.311400 0.948800 0.052800
vn 0.087900 0.792700 0.603200
vn 0.001700 0.999100 -0.043100
vn 0.053600 0.868200 -0.493300
vn -0.080400 0.819300 -0.567700
vn -0.141800 -0.346200 -0.927400
vn 0.979800 -0.199900 0.000000
vn 0.969700 -0.231400 0.078700
vn 0.000000 -0.366600 -0.930400
vn 0.000000 -0.967500 0.252900
vn 0.150500 -0.323700 0.934100
vn 0.000000 -0.330800 -0.943700
vn 0.023900 -0.329600 0.943800
vn 0.949800 -0.287300 -0.123400
vn 0.978300 -0.205000 0.031300
vn 0.072800 0.996800 0.031900
vn 0.991300 0.126800 0.036300
vn 0.138400 0.990400 0.005100
vn 0.148500 0.988900 0.005500
vn 0.030500 0.998600 0.043800
vn 0.000000 -0.973300 0.229300
vn 0.990400 0.128500 0.050700
vn 0.000000 -0.239000 0.971000
vn 0.871300 0.476700 -0.116700
vn 0.000000 -0.424600 0.905400
vn 0.000000 -0.967500 -0.252900
vn 0.000000 -0.975500 -0.219900
vn 0.000000 -0.334000 -0.942600
vn 1.000000 0.000000 0.000000
vn 0.000000 -1.000000 0.000000
vn -0.003300 -0.998500 -0.055500
vn 0.000000 -1.000000 -0.002400
vn 0.000000 -0.993400 -0.114800
vn 0.000000 -0.995600 0.093400
vn 0.000000 -0.998400 -0.056600
vn 0.999500 0.021600 -0.022500
vn 0.998200 -0.010800 0.059400
vn 0.999100 0.006600 0.041900
vn -0.132900 0.086500 -0.987400
vn 0.999800 0.021000 0.000300
vn 0.998200 -0.028300 0.053200
vn 0.000000 0.095900 -0.995400
vn 0.999800 0.021400 0.000000
vn 0.981100 0.162000 -0.105500
vn 0.195100 0.195200 0.961200
vn 0.998000 -0.030500 0.056200
vn -0.097800 0.199200 0.975100
vn 0.982400 0.177800 -0.057100
vn 0.000000 0.000000 1.000000
vn 0.382700 -0.923900 0.000000
vn -0.952900 -0.303400 0.000000
vn 0.961100 -0.276200 0.000000
vn -0.382700 -0.923900 0.000000
vn -0.774700 0.611700 0.160200
vn 0.616600 0.715000 0.329400
vn -0.826400 -0.276500 0.490600
vn -0.799300 0.599600 -0.039500
vn -0.290200 0.217700 0.931900
vn 0.933400 0.132200 0.333600
vn -0.457900 -0.886300 0.069000
vn 0.354200 -0.933000 0.063800
vn 0.728100 -0.531100 -0.433400
vn 0.062200 -0.045400 -0.997000
vn 0.518000 0.855400 0.000000
vn 0.394900 -0.288000 0.872400
vn 0.521000 -0.380000 -0.764300
vn 0.000000 0.000000 -1.000000
vn -0.491000 0.871100 0.000000
vn 0.999800 -0.015200 -0.013200
vn 0.978300 -0.207000 0.006100
vn 0.758400 0.650200 -0.044900
vn 0.964400 0.263800 -0.017700
vn 0.077900 0.996500 -0.029300
vn -0.148500 0.988900 -0.001800
vn 0.298900 0.951800 0.068300
vn -0.138400 0.990400 -0.001700
vn -0.130800 0.991400 -0.001500
vn -0.719900 0.679900 -0.139600
vn -0.527600 0.845400 -0.083100
vn -0.182400 0.786100 0.590500
vn -0.012000 0.993500 0.112900
vn 0.236500 0.858700 -0.454500
vn -0.131100 0.991400 0.004000
vn 0.022100 0.998900 -0.042500
vn -0.077100 0.986700 -0.142800
vn 0.222200 0.011800 0.974900
vn -0.992300 0.113100 0.051000
vn -0.789700 0.613400 0.013600
vn -0.992700 0.120300 0.000000
vn -0.179900 0.426900 0.886200
vn -0.780500 0.625100 0.001900
vn -0.804800 0.577800 -0.135600
vn -0.992700 0.120800 0.000200
vn -0.988500 0.136000 0.065600
vn -0.992200 0.124600 0.001600
vn -0.796300 0.604900 -0.009100
vn -0.088600 0.996100 0.000000
vn -0.064600 0.995900 0.063600
vn 0.311400 0.948800 0.052800
vn -0.087900 0.792700 0.603200
vn -0.001700 0.999100 -0.043100
vn -0.053600 0.868200 -0.493300
vn 0.080400 0.819300 -0.567700
vn 0.141800 -0.346200 -0.927400
vn -0.979800 -0.199900 0.000000
vn -0.969700 -0.231400 0.078700
vn -0.150500 -0.323700 0.934100
vn -0.023900 -0.329600 0.943800
vn -0.949800 -0.287300 -0.123400
vn -0.978300 -0.205000 0.031300
vn -0.072800 0.996800 0.031900
vn -0.991300 0.126800 0.036300
vn -0.138400 0.990400 0.005100
vn -0.148500 0.988900 0.005500
vn -0.030500 0.998600 0.043800
vn -0.990400 0.128500 0.050700
vn -0.871300 0.476700 -0.116700
vn -1.000000 0.000000 0.000000
vn 0.003300 -0.998500 -0.055500
vn -0.999500 0.021600 -0.022500
vn -0.998200 -0.010800 0.059400
vn -0.999100 0.006600 0.041900
vn 0.132900 0.086500 -0.987400
vn -0.999800 0.021000 0.000300
vn -0.998200 -0.028300 0.053200
vn -0.999800 0.021400 0.000000
vn -0.981100 0.162000 -0.105500
vn -0.195100 0.195200 0.961200
vn -0.998000 -0.030500 0.056200
vn 0.097800 0.199200 0.975100
vn -0.982400 0.177800 -0.057100
vn 0.952900 -0.303400 0.000000
vn -0.961100 -0.276200 0.000000
vn 0.774700 0.611700 0.160200
vn -0.616600 0.715000 0.329400
vn 0.826400 -0.276500 0.490600
vn 0.799300 0.599600 -0.039500
vn 0.290200 0.217700 0.931900
vn -0.933400 0.132200 0.333600
vn 0.457900 -0.886300 0.069000
vn -0.354200 -0.933000 0.063800
vn -0.728100 -0.531100 -0.433400
vn -0.062200 -0.045400 -0.997000
vn -0.518000 0.855400 0.000000
vn -0.394900 -0.288000 0.872400
vn -0.521000 -0.380100 -0.764300
vn 0.491000 0.871100 0.000000
vn -0.999800 -0.015200 -0.013200
vn -0.978300 -0.207000 0.006100
vn -0.758400 0.650200 -0.044900
vn -0.964400 0.263800 -0.017700
vn -0.077900 0.996500 -0.029300
vn 0.148500 0.988900 -0.001800
vn -0.298900 0.951800 0.068300
vn 0.138400 0.990400 -0.001700
vn 0.130800 0.991400 -0.001500
o gto_66
usemtl gto_66
f 1/1/1 2/2/1 3/3/1 4/4/1
f 5/5/2 6/6/2 1/7/2 7/8/2
f 8/9/3 9/10/3 10/11/3 11/12/3
f 12/13/4 13/14/4 14/15/4 15/16/4
f 2/17/5 1/18/5 16/19/5
f 17/20/6 8/21/6 11/22/6 18/23/6
f 6/24/7 16/25/7 1/26/7
f 19/27/8 2/28/8 20/29/8 21/30/8
f 22/31/9 23/32/9 24/33/9 14/34/9 25/35/9
f 26/36/10 27/37/10 28/38/10 29/39/10
f 30/40/11 31/41/11 9/42/11 32/43/11
f 33/44/12 30/45/12 32/46/12 34/47/12
f 25/35/13 14/34/13 13/48/13 35/49/13
f 32/43/14 9/42/14 8/50/14
f 7/8/15 1/7/15 4/51/15 36/52/15
f 34/47/16 32/46/16 8/53/16 37/54/16
f 38/55/17 39/56/17 6/57/17 40/58/17
f 29/39/18 28/38/18 23/59/18 22/60/18
f 41/61/19 42/62/19 30/45/19 33/44/19
f 42/63/20 19/64/20 31/65/20 30/66/20
f 43/67/21 10/68/21 44/69/21 45/70/21
f 9/71/22 31/72/22 46/73/22 47/74/22
f 15/16/23 14/15/23 24/75/23 48/76/23
f 10/11/24 9/10/24 47/77/24 44/78/24
f 16/25/25 6/24/25 39/79/25 49/80/25
f 16/19/26 49/81/26 20/82/26 2/17/26
f 40/58/27 6/57/27 5/83/27
f 50/84/28 51/85/28 52/86/28 53/87/28
f 54/88/29 55/89/29 56/90/29 57/91/29
f 58/92/30 59/93/30 60/94/30 61/95/30
f 62/96/31 63/97/31 51/85/31 50/84/31
f 64/98/29 65/99/29 66/100/29 67/101/29
f 68/102/32 69/103/32 70/104/32 71/105/32
f 72/106/33 73/107/33 74/108/33 75/109/33
f 57/91/29 56/90/29 65/99/29 64/98/29
f 76/110/34 77/111/34 78/112/34 79/113/34
f 61/114/35 60/115/35 73/107/35 72/106/35
f 53/116/36 52/117/36 68/118/36 80/119/36
f 67/120/37 66/121/37 81/122/37 82/123/37
f 83/124/38 43/67/38 45/70/38 84/125/38
f 37/126/39 8/127/39 17/128/39 85/129/39
f 27/130/40 17/20/40 18/23/40 86/131/40
f 28/132/41 27/130/41 86/131/41 48/76/41
f 15/16/42 83/124/42 84/125/42 12/13/42
f 81/133/43 87/134/43 88/135/43 89/136/43
f 85/129/44 17/128/44 27/37/44 26/36/44
f 82/137/45 81/133/45 89/136/45 90/138/45
f 36/52/46 4/51/46 3/139/46 91/140/46
f 80/141/47 68/102/47 71/105/47 92/142/47
f 69/103/48 76/110/48 79/113/48 70/104/48
f 87/134/49 59/143/49 93/144/49 88/135/49
f 59/143/50 58/145/50 94/146/50 93/144/50
f 94/147/51 90/148/51 89/149/51 93/150/51
f 78/151/51 92/152/51 71/153/51 79/154/51
f 70/155/51 79/154/51 71/153/51
f 88/156/51 93/150/51 89/149/51
f 72/157/52 94/158/52 58/159/52 61/160/52
f 80/161/53 92/162/53 50/163/53 53/164/53
f 57/165/52 64/166/52 95/167/52 96/168/52
f 64/166/52 67/169/52 97/170/52 95/167/52
f 67/169/54 82/171/54 90/172/54 97/170/54
f 54/173/52 98/174/52 78/175/52 77/176/52
f 97/170/54 90/172/54 99/177/54 100/178/54
f 96/168/52 95/167/52 101/179/52 102/180/52
f 92/162/55 78/181/55 103/182/55 104/183/55
f 98/174/52 96/168/52 102/180/52 105/184/52
f 90/185/56 94/158/56 106/186/56 99/187/56
f 95/167/52 97/170/52 100/178/52 101/179/52
f 75/188/52 106/186/52 94/158/52 72/157/52
f 50/163/57 92/162/57 104/183/57 62/189/57
f 69/190/58 36/52/58 91/140/58 76/191/58
f 81/122/59 85/129/59 26/36/59 87/192/59
f 66/121/60 37/126/60 85/129/60 81/122/60
f 51/85/61 40/58/61 5/83/61 52/86/61
f 55/89/62 41/61/62 33/44/62 56/90/62
f 59/93/63 29/39/63 22/60/63 60/94/63
f 63/97/64 38/55/64 40/58/64 51/85/64
f 65/99/65 34/47/65 37/54/65 66/100/65
f 68/118/66 7/8/66 36/52/66 69/190/66
f 73/107/67 25/35/67 35/49/67 74/108/67
f 56/90/65 33/44/65 34/47/65 65/99/65
f 87/192/68 26/36/68 29/39/68 59/93/68
f 60/115/69 22/31/69 25/35/69 73/107/69
f 52/117/70 5/5/70 7/8/70 68/118/70
f 107/193/71 108/194/71 109/195/71 110/196/71
f 111/197/72 112/198/72 113/199/72 114/200/72
f 115/201/73 116/202/73 117/203/73 118/204/73
f 108/194/71 116/205/71 119/206/71 109/195/71
f 107/207/74 111/197/74 114/200/74 120/208/74
f 112/209/75 115/201/75 118/204/75 113/210/75
f 112/211/71 111/212/71 121/213/71 122/214/71
f 116/205/71 115/215/71 123/216/71 119/206/71
f 109/217/76 119/218/76 124/219/76 125/220/76
f 110/221/77 109/217/77 125/220/77 126/222/77
f 111/212/71 107/193/71 110/196/71 121/213/71
f 115/215/71 112/211/71 122/214/71 123/216/71
f 119/218/78 123/223/78 127/224/78 124/219/78
f 125/225/79 124/226/79 128/227/79 129/228/79
f 126/229/80 125/225/80 129/228/80 130/230/80
f 121/231/81 110/221/81 126/222/81 131/232/81
f 123/223/82 122/233/82 132/234/82 127/224/82
f 122/233/83 121/231/83 131/232/83 132/234/83
f 132/235/84 131/236/84 133/237/84 134/238/84
f 124/226/85 127/239/85 135/240/85 128/227/85
f 108/241/86 107/207/86 120/208/86 136/242/86
f 131/236/87 126/229/87 130/230/87 133/237/87
f 127/243/88 132/235/88 134/238/88 135/244/88
f 113/245/89 137/246/89 120/247/89 114/248/89
f 120/247/89 137/246/89 136/249/89
f 136/249/89 137/246/89 117/250/89
f 118/251/89 117/250/89 137/246/89 113/245/89
f 116/202/90 108/241/90 136/242/90 117/203/90
f 76/252/91 91/253/91 41/61/91 55/89/91
f 78/175/52 98/174/52 105/184/52 103/254/52
f 57/165/52 96/168/52 98/174/52 54/173/52
f 77/255/92 76/252/92 55/89/92 54/88/92
f 3/3/93 2/2/93 19/64/93 42/63/93
f 91/253/94 3/256/94 42/62/94 41/61/94
f 31/72/95 19/27/95 21/30/95 46/73/95
f 48/76/96 86/131/96 83/124/96 15/16/96
f 48/76/97 24/75/97 23/257/97 28/132/97
f 86/131/98 18/23/98 43/67/98 83/124/98
f 18/23/99 11/22/99 10/68/99 43/67/99
f 138/1/100 139/4/100 140/3/100 141/2/100
f 142/5/101 143/8/101 138/7/101 144/6/101
f 145/9/102 146/12/102 147/11/102 148/10/102
f 12/13/103 149/16/103 150/15/103 13/14/103
f 141/17/104 151/19/104 138/18/104
f 152/20/105 153/23/105 146/22/105 145/21/105
f 144/24/106 138/26/106 151/25/106
f 154/27/107 21/30/107 20/29/107 141/28/107
f 155/31/108 156/35/108 150/34/108 157/33/108 158/32/108
f 159/36/109 160/39/109 161/38/109 162/37/109
f 163/40/110 164/43/110 148/42/110 165/41/110
f 166/44/111 167/47/111 164/46/111 163/45/111
f 156/35/112 35/49/112 13/48/112 150/34/112
f 164/43/113 145/50/113 148/42/113
f 143/8/114 168/52/114 139/51/114 138/7/114
f 167/47/115 169/54/115 145/53/115 164/46/115
f 38/55/17 170/58/17 144/57/17 39/56/17
f 160/39/116 155/60/116 158/59/116 161/38/116
f 171/61/117 166/44/117 163/45/117 172/62/117
f 172/63/118 163/66/118 165/65/118 154/64/118
f 173/67/119 45/70/119 44/69/119 147/68/119
f 148/71/120 47/74/120 46/73/120 165/72/120
f 149/16/121 174/76/121 157/75/121 150/15/121
f 147/11/122 44/78/122 47/77/122 148/10/122
f 151/25/123 49/80/123 39/79/123 144/24/123
f 151/19/124 141/17/124 20/82/124 49/81/124
f 170/58/125 142/83/125 144/57/125
f 175/84/126 176/87/126 177/86/126 178/85/126
f 179/88/127 180/91/127 181/90/127 182/89/127
f 183/92/128 184/95/128 185/94/128 186/93/128
f 62/96/31 175/84/31 178/85/31 63/97/31
f 187/98/127 188/101/127 189/100/127 190/99/127
f 191/102/32 192/105/32 193/104/32 194/103/32
f 195/106/129 75/109/129 74/108/129 196/107/129
f 180/91/127 187/98/127 190/99/127 181/90/127
f 197/110/34 198/113/34 199/112/34 200/111/34
f 184/114/130 195/106/130 196/107/130 185/115/130
f 176/116/131 201/119/131 191/118/131 177/117/131
f 188/120/132 202/123/132 203/122/132 189/121/132
f 204/124/133 84/125/133 45/70/133 173/67/133
f 169/126/134 205/129/134 152/128/134 145/127/134
f 162/130/135 206/131/135 153/23/135 152/20/135
f 161/132/136 174/76/136 206/131/136 162/130/136
f 149/16/137 12/13/137 84/125/137 204/124/137
f 203/133/43 207/136/43 208/135/43 209/134/43
f 205/129/138 159/36/138 162/37/138 152/128/138
f 202/137/45 210/138/45 207/136/45 203/133/45
f 168/52/139 211/140/139 140/139/139 139/51/139
f 201/141/47 212/142/47 192/105/47 191/102/47
f 194/103/48 193/104/48 198/113/48 197/110/48
f 209/134/49 208/135/49 213/144/49 186/143/49
f 186/143/50 213/144/50 214/146/50 183/145/50
f 214/147/140 213/150/140 207/149/140 210/148/140
f 199/151/140 198/154/140 192/153/140 212/152/140
f 193/155/140 192/153/140 198/154/140
f 208/156/140 207/149/140 213/150/140
f 195/157/52 184/160/52 183/159/52 214/158/52
f 201/161/141 176/164/141 175/163/141 212/162/141
f 180/165/52 215/168/52 216/167/52 187/166/52
f 187/166/52 216/167/52 217/170/52 188/169/52
f 188/169/54 217/170/54 210/172/54 202/171/54
f 179/173/52 200/176/52 199/175/52 218/174/52
f 217/170/54 100/178/54 99/177/54 210/172/54
f 215/168/52 102/180/52 101/179/52 216/167/52
f 212/162/55 104/183/55 103/182/55 199/181/55
f 218/174/52 105/184/52 102/180/52 215/168/52
f 210/185/56 99/187/56 106/186/56 214/158/56
f 216/167/52 101/179/52 100/178/52 217/170/52
f 75/188/52 195/157/52 214/158/52 106/186/52
f 175/163/57 62/189/57 104/183/57 212/162/57
f 194/190/142 197/191/142 211/140/142 168/52/142
f 203/122/143 209/192/143 159/36/143 205/129/143
f 189/121/144 203/122/144 205/129/144 169/126/144
f 178/85/145 177/86/145 142/83/145 170/58/145
f 182/89/146 181/90/146 166/44/146 171/61/146
f 186/93/147 185/94/147 155/60/147 160/39/147
f 63/97/64 178/85/64 170/58/64 38/55/64
f 190/99/148 189/100/148 169/54/148 167/47/148
f 191/118/149 194/190/149 168/52/149 143/8/149
f 196/107/150 74/108/150 35/49/150 156/35/150
f 181/90/148 190/99/148 167/47/148 166/44/148
f 209/192/151 186/93/151 160/39/151 159/36/151
f 185/115/152 196/107/152 156/35/152 155/31/152
f 177/117/153 191/118/153 143/8/153 142/5/153
f 219/193/71 220/196/71 221/195/71 222/194/71
f 223/197/75 224/200/75 225/199/75 226/198/75
f 227/201/154 228/204/154 229/203/154 230/202/154
f 222/194/71 221/195/71 231/206/71 230/205/71
f 219/207/155 232/208/155 224/200/155 223/197/155
f 226/209/72 225/210/72 228/204/72 227/201/72
f 226/211/71 233/214/71 234/213/71 223/212/71
f 230/205/71 231/206/71 235/216/71 227/215/71
f 221/217/156 236/220/156 237/219/156 231/218/156
f 220/221/157 238/222/157 236/220/157 221/217/157
f 223/212/71 234/213/71 220/196/71 219/193/71
f 227/215/71 235/216/71 233/214/71 226/211/71
f 231/218/158 237/219/158 239/224/158 235/223/158
f 236/225/159 240/228/159 241/227/159 237/226/159
f 238/229/160 242/230/160 240/228/160 236/225/160
f 234/231/161 243/232/161 238/222/161 220/221/161
f 235/223/162 239/224/162 244/234/162 233/233/162
f 233/233/163 244/234/163 243/232/163 234/231/163
f 244/235/164 245/238/164 246/237/164 243/236/164
f 237/226/165 241/227/165 247/240/165 239/239/165
f 222/241/166 248/242/166 232/208/166 219/207/166
f 243/236/167 246/237/167 242/230/167 238/229/167
f 239/243/168 247/244/168 245/238/168 244/235/168
f 225/245/89 224/248/89 232/247/89 249/246/89
f 232/247/89 248/249/89 249/246/89
f 248/249/89 229/250/89 249/246/89
f 228/251/89 225/245/89 249/246/89 229/250/89
f 230/202/169 229/203/169 248/242/169 222/241/169
f 197/252/170 182/89/170 171/61/170 211/253/170
f 199/175/52 103/254/52 105/184/52 218/174/52
f 180/165/52 179/173/52 218/174/52 215/168/52
f 200/255/171 179/88/171 182/89/171 197/252/171
f 140/3/172 172/63/172 154/64/172 141/2/172
f 211/253/173 171/61/173 172/62/173 140/256/173
f 165/72/174 46/73/174 21/30/174 154/27/174
f 174/76/175 149/16/175 204/124/175 206/131/175
f 174/76/176 161/132/176 158/257/176 157/75/176
f 206/131/177 204/124/177 173/67/177 153/23/177
f 153/23/178 173/67/178 147/68/178 146/22/178
