# PSX Racing car model — generated by tools/carmodels/export_models.mjs
mtllib daytona_69_wheels_r.mtl
v -1.003709 0.204003 -1.291110
v -1.003709 0.204003 -1.654069
v -1.003709 -0.052647 -1.547760
v -1.003709 -0.158955 -1.291110
v -0.754823 -0.052647 -1.034459
v -0.754823 -0.158955 -1.291110
v -0.754823 0.204003 -1.291110
v -0.754823 0.204003 -0.928151
v -0.754823 0.204003 -1.654069
v -0.754823 -0.052647 -1.547760
v -1.003709 -0.052647 -1.034459
v -1.003709 0.204003 -0.928151
v -0.754823 0.460654 -1.034459
v -0.754823 0.566962 -1.291110
v -1.003709 0.460654 -1.034459
v -1.003709 0.566962 -1.291110
v -0.754823 0.460654 -1.547760
v -1.003709 0.460654 -1.547760
v 1.003709 0.204003 -1.291110
v 1.003709 -0.158955 -1.291110
v 1.003709 -0.052647 -1.547760
v 1.003709 0.204003 -1.654069
v 0.754823 -0.052647 -1.034459
v 0.754823 0.204003 -0.928151
v 0.754823 0.204003 -1.291110
v 0.754823 -0.158955 -1.291110
v 0.754823 0.204003 -1.654069
v 0.754823 -0.052647 -1.547760
v 1.003709 0.204003 -0.928151
v 1.003709 -0.052647 -1.034459
v 0.754823 0.460654 -1.034459
v 0.754823 0.566962 -1.291110
v 1.003709 0.566962 -1.291110
v 1.003709 0.460654 -1.034459
v 0.754823 0.460654 -1.547760
v 1.003709 0.460654 -1.547760
vt 0.116624 0.884053
vt 0.162343 0.994430
vt 0.227001 0.929773
vt 0.227001 0.838334
vt 0.227045 0.929849
vt 0.227045 0.838410
vt 0.116668 0.884129
vt 0.162387 0.994506
vt 0.260770 0.828082
vt 0.260770 0.800651
vt 0.236194 0.800651
vt 0.236194 0.828082
vt 0.260770 0.773219
vt 0.236194 0.773219
vt 0.162343 0.773677
vt 0.070905 0.773677
vt 0.070949 0.994506
vt 0.006291 0.929849
vt 0.260770 0.992672
vt 0.260770 0.965241
vt 0.236194 0.965241
vt 0.236194 0.992672
vt 0.260770 0.937809
vt 0.236194 0.937809
vt 0.006247 0.838334
vt 0.006247 0.929773
vt 0.006291 0.838410
vt 0.070948 0.773753
vt 0.260770 0.910377
vt 0.236194 0.910377
vt 0.260770 0.882946
vt 0.236194 0.882946
vt 0.070904 0.994430
vt 0.260770 0.855514
vt 0.236194 0.855514
vt 0.162387 0.773753
vt 0.116624 0.884053
vt 0.227001 0.838334
vt 0.227001 0.929773
vt 0.162343 0.994430
vt 0.227045 0.929849
vt 0.162387 0.994506
vt 0.116668 0.884129
vt 0.227045 0.838410
vt 0.260770 0.828082
vt 0.236194 0.828082
vt 0.236194 0.800651
vt 0.260770 0.800651
vt 0.236194 0.773219
vt 0.260770 0.773219
vt 0.070905 0.773677
vt 0.162343 0.773677
vt 0.070949 0.994506
vt 0.006291 0.929849
vt 0.260770 0.992672
vt 0.236194 0.992672
vt 0.236194 0.965241
vt 0.260770 0.965241
vt 0.236194 0.937809
vt 0.260770 0.937809
vt 0.006247 0.929773
vt 0.006247 0.838334
vt 0.006291 0.838410
vt 0.070948 0.773753
vt 0.236194 0.910377
vt 0.260770 0.910377
vt 0.236194 0.882946
vt 0.260770 0.882946
vt 0.070904 0.994430
vt 0.236194 0.855514
vt 0.260770 0.855514
vt 0.162387 0.773753
vn -1.000000 0.000000 0.000000
vn 1.000000 0.000000 0.000000
vn 0.000000 -0.382700 -0.923900
vn 0.000000 -0.923900 -0.382700
vn 0.000000 -0.923900 0.382700
vn 0.000000 -0.382700 0.923900
vn 0.000000 0.382700 0.923900
vn 0.000000 0.923900 0.382700
vn 0.000000 0.923900 -0.382700
vn 0.000000 0.382700 -0.923900
vn 1.000000 0.000000 0.000000
vn -1.000000 0.000000 0.000000
vn 0.000000 -0.382700 -0.923900
vn 0.000000 -0.923900 -0.382700
vn 0.000000 -0.923900 0.382700
vn 0.000000 -0.382700 0.923900
vn 0.000000 0.382700 0.923900
vn 0.000000 0.923900 0.382700
vn 0.000000 0.923900 -0.382700
vn 0.000000 0.382700 -0.923900
o daytona_69_wheels_r
usemtl daytona_69_wheels_r
f 1/1/1 2/2/1 3/3/1 4/4/1
f 5/5/2 6/6/2 7/7/2 8/8/2
f 9/9/3 10/10/3 3/11/3 2/12/3
f 10/10/4 6/13/4 4/14/4 3/11/4
f 1/1/1 4/4/1 11/15/1 12/16/1
f 13/17/2 8/8/2 7/7/2 14/18/2
f 6/19/5 5/20/5 11/21/5 4/22/5
f 5/20/6 8/23/6 12/24/6 11/21/6
f 1/1/1 12/16/1 15/25/1 16/26/1
f 17/27/2 14/18/2 7/7/2 9/28/2
f 8/23/7 13/29/7 15/30/7 12/24/7
f 13/29/8 14/31/8 16/32/8 15/30/8
f 1/1/1 16/26/1 18/33/1 2/2/1
f 14/31/9 17/34/9 18/35/9 16/32/9
f 17/34/10 9/9/10 2/12/10 18/35/10
f 10/36/2 9/28/2 7/7/2 6/6/2
f 19/37/11 20/38/11 21/39/11 22/40/11
f 23/41/12 24/42/12 25/43/12 26/44/12
f 27/45/13 22/46/13 21/47/13 28/48/13
f 28/48/14 21/47/14 20/49/14 26/50/14
f 19/37/11 29/51/11 30/52/11 20/38/11
f 31/53/12 32/54/12 25/43/12 24/42/12
f 26/55/15 20/56/15 30/57/15 23/58/15
f 23/58/16 30/57/16 29/59/16 24/60/16
f 19/37/11 33/61/11 34/62/11 29/51/11
f 35/63/12 27/64/12 25/43/12 32/54/12
f 24/60/17 29/59/17 34/65/17 31/66/17
f 31/66/18 34/65/18 33/67/18 32/68/18
f 19/37/11 22/40/11 36/69/11 33/61/11
f 32/68/19 33/67/19 36/70/19 35/71/19
f 35/71/20 36/70/20 22/46/20 27/45/20
f 28/72/12 26/44/12 25/43/12 27/64/12
