# PSX Racing car model — generated by tools/carmodels/export_models.mjs
mtllib volvo_estate.mtl
v 0.379442 0.904546 1.821709
v 0.379442 0.931988 1.508247
v 0.000000 0.931988 1.508247
v 0.000000 0.904546 1.821709
v 0.379442 0.972862 -2.273672
v 0.305124 1.431542 -2.094380
v 0.610247 1.397377 -2.094380
v 0.734163 0.972862 -2.242041
v 0.000000 1.438988 -2.094380
v 0.000000 1.438988 -1.513841
v 0.305124 1.431542 -1.513841
v 0.758885 0.972862 -0.128418
v 0.610247 1.397377 -0.185787
v 0.610247 1.391375 0.371104
v 0.758885 0.939374 0.776140
v 0.362105 0.255673 -0.099392
v 0.724210 0.280048 -0.099392
v 0.724210 0.280048 1.002928
v 0.362105 0.255673 1.002928
v 0.853500 0.627881 1.234380
v 0.402467 0.627881 1.234380
v 0.853500 0.537666 1.758124
v 0.724210 0.358470 1.821709
v 0.362105 0.334095 1.821709
v 0.402467 0.537666 1.758124
v 0.747558 0.804662 -2.242041
v 0.746524 0.972862 -1.596351
v 0.812584 0.804662 -1.601756
v 0.305124 1.431542 -0.185787
v 0.000000 1.438988 -0.185787
v 0.000000 1.438988 0.439266
v 0.305124 1.431542 0.425715
v 0.379442 0.972862 0.942497
v 0.000000 0.972862 0.968134
v 0.842479 0.804662 1.002928
v 0.758885 0.885783 1.508247
v 0.842479 0.773059 1.508247
v 0.327133 0.718689 2.254692
v 0.285336 0.861668 2.213997
v 0.000000 0.861668 2.252148
v 0.000000 0.718689 2.292843
v 0.842479 0.804662 -0.121835
v 0.842479 0.751842 1.821709
v 0.758885 0.858341 1.821709
v 0.728858 0.815463 2.089030
v 0.768295 0.718689 2.089030
v 0.421239 0.804662 -2.273672
v 0.610247 1.397377 -1.513841
v 0.758580 0.658402 -2.242041
v 0.805651 0.631914 -1.796038
v 0.366385 0.419042 -2.351863
v 0.813881 0.419042 -2.244923
v 0.740165 0.385044 -1.911115
v 0.362105 0.356062 -1.922592
v 0.305124 1.431542 -0.798307
v 0.000000 1.438988 -0.798307
v 0.362105 0.255673 -0.818810
v 0.724210 0.280048 -0.818810
v 0.758885 0.972862 -0.950661
v 0.610247 1.397377 -0.798307
v 0.842479 0.804662 -0.961471
v 0.853500 0.634861 1.508247
v 0.402467 0.634861 1.508247
v 0.853500 0.658402 -1.191480
v 0.853500 0.594816 -0.971052
v 0.402467 0.594816 -0.971052
v 0.402467 0.658402 -1.191480
v 0.853500 0.658402 -0.116110
v 0.395104 0.546333 -2.273672
v 0.726165 0.546196 -2.242041
v 0.717371 0.544970 -2.336356
v 0.399384 0.544970 -2.351863
v 0.827568 0.536739 1.873797
v 0.721327 0.383204 1.928740
v 0.267998 0.289585 2.212301
v 0.292699 0.383361 2.235625
v 0.000000 0.383383 2.277188
v 0.000000 0.265211 2.250452
v 0.853500 0.604990 -1.342670
v 0.402467 0.604990 -1.342670
v 0.426750 0.658402 -2.273672
v 0.332643 0.535013 2.273343
v 0.000000 0.535013 2.311494
v 0.779317 0.535013 2.089030
v 0.000000 0.658402 -2.278971
v 0.000000 0.804662 -2.278971
v 0.650027 0.313960 2.089030
v 0.690574 0.383286 2.089030
v 0.000000 0.231299 1.002928
v 0.000000 0.309721 1.821709
v 0.000000 0.267330 -1.614816
v 0.362105 0.291705 -1.614816
v 0.362105 0.255673 -1.146834
v 0.000000 0.231299 -1.146834
v 0.000000 0.231299 -0.818810
v 0.000000 0.231299 -0.099392
v 0.000000 0.419042 -2.357162
v 0.000000 0.333116 -1.931956
v 0.000000 0.972862 -2.278971
v 0.717371 0.419042 -2.336356
v 0.332643 0.540421 2.358193
v 0.779317 0.540421 2.173880
v 0.773834 0.383286 2.173880
v 0.806841 0.385181 2.092119
v 0.857649 0.540421 1.876886
v 0.855403 0.385098 1.931829
v 0.000000 0.546356 -2.278971
v 0.767799 0.544668 -1.889943
v 0.000000 0.544970 -2.357162
v 0.784444 0.419042 -2.317226
v 0.813881 0.544970 -2.244923
v 0.784444 0.544970 -2.317226
v 0.724210 0.316079 -1.614816
v 0.813881 0.385044 -1.913997
v 0.813881 0.544970 -1.892825
v 0.000000 0.383383 2.389321
v 0.292699 0.383361 2.347758
v 0.000000 0.540421 2.396344
v 0.788855 0.460535 -1.478743
v 0.809398 0.540421 2.092119
v 0.736761 0.981578 0.639843
v 0.736761 1.101578 0.639843
v 0.732718 1.101578 0.600048
v 0.732718 0.981578 0.600048
v 0.931693 1.101578 0.579831
v 0.931693 0.981578 0.579831
v 0.935737 1.101578 0.619626
v 0.935737 0.981578 0.619626
v -0.379442 0.904546 1.821709
v -0.379442 0.931988 1.508247
v -0.379442 0.972862 -2.273672
v -0.734163 0.972862 -2.242041
v -0.610247 1.397377 -2.094380
v -0.305124 1.431542 -2.094380
v -0.305124 1.431542 -1.513841
v -0.758885 0.972862 -0.128418
v -0.758885 0.939374 0.776140
v -0.610247 1.391375 0.371104
v -0.610247 1.397377 -0.185787
v -0.362105 0.255673 -0.099392
v -0.362105 0.255673 1.002928
v -0.724210 0.280048 1.002928
v -0.724210 0.280048 -0.099392
v -0.402467 0.627881 1.234380
v -0.853500 0.627881 1.234380
v -0.853500 0.537666 1.758124
v -0.402467 0.537666 1.758124
v -0.362105 0.334095 1.821709
v -0.724210 0.358470 1.821709
v -0.747558 0.804662 -2.242041
v -0.812584 0.804662 -1.601756
v -0.746524 0.972862 -1.596351
v -0.305124 1.431542 -0.185787
v -0.305124 1.431542 0.425715
v -0.379442 0.972862 0.942497
v -0.842479 0.804662 1.002928
v -0.842479 0.773059 1.508247
v -0.758885 0.885783 1.508247
v -0.327133 0.718689 2.254692
v -0.285336 0.861668 2.213997
v -0.842479 0.804662 -0.121835
v -0.842479 0.751842 1.821709
v -0.768295 0.718689 2.089030
v -0.728858 0.815463 2.089030
v -0.758885 0.858341 1.821709
v -0.421239 0.804662 -2.273672
v -0.610247 1.397377 -1.513841
v -0.758580 0.658402 -2.242041
v -0.805651 0.631914 -1.796038
v -0.366385 0.419042 -2.351863
v -0.362105 0.356062 -1.922592
v -0.740165 0.385044 -1.911115
v -0.813881 0.419042 -2.244923
v -0.305124 1.431542 -0.798307
v -0.362105 0.255673 -0.818810
v -0.724210 0.280048 -0.818810
v -0.758885 0.972862 -0.950661
v -0.610247 1.397377 -0.798307
v -0.842479 0.804662 -0.961471
v -0.402467 0.634861 1.508247
v -0.853500 0.634861 1.508247
v -0.853500 0.658402 -1.191480
v -0.402467 0.658402 -1.191480
v -0.402467 0.594816 -0.971052
v -0.853500 0.594816 -0.971052
v -0.853500 0.658402 -0.116110
v -0.395104 0.546333 -2.273672
v -0.399384 0.544970 -2.351863
v -0.717371 0.544970 -2.336356
v -0.726165 0.546196 -2.242041
v -0.721327 0.383204 1.928740
v -0.827568 0.536739 1.873797
v -0.267998 0.289585 2.212301
v -0.292699 0.383361 2.235625
v -0.853500 0.604990 -1.342670
v -0.402467 0.604990 -1.342670
v -0.426750 0.658402 -2.273672
v -0.332643 0.535013 2.273343
v -0.779317 0.535013 2.089030
v -0.650027 0.313960 2.089030
v -0.690574 0.383286 2.089030
v -0.362105 0.255673 -1.146834
v -0.362105 0.291705 -1.614816
v -0.717371 0.419042 -2.336356
v -0.779317 0.540421 2.173880
v -0.332643 0.540421 2.358193
v -0.773834 0.383286 2.173880
v -0.806841 0.385181 2.092119
v -0.855403 0.385098 1.931829
v -0.857649 0.540421 1.876886
v -0.767799 0.544668 -1.889943
v -0.784444 0.419042 -2.317226
v -0.813881 0.544970 -2.244923
v -0.784444 0.544970 -2.317226
v -0.724210 0.316079 -1.614816
v -0.813881 0.544970 -1.892825
v -0.813881 0.385044 -1.913997
v -0.292699 0.383361 2.347758
v -0.788855 0.460535 -1.478743
v -0.809398 0.540421 2.092119
v -0.736761 0.981578 0.639843
v -0.732718 0.981578 0.600048
v -0.732718 1.101578 0.600048
v -0.736761 1.101578 0.639843
v -0.931693 0.981578 0.579831
v -0.931693 1.101578 0.579831
v -0.935737 0.981578 0.619626
v -0.935737 1.101578 0.619626
vt 0.437465 0.399998
vt 0.506482 0.400056
vt 0.506442 0.483320
vt 0.437358 0.483265
vt 0.482907 0.845538
vt 0.506018 0.988175
vt 0.411133 0.977551
vt 0.367482 0.845538
vt 0.313044 0.431078
vt 0.313044 0.498071
vt 0.185619 0.498071
vt 0.185619 0.431078
vt 0.512052 0.181788
vt 0.525202 0.279092
vt 0.397555 0.277717
vt 0.304716 0.174112
vt 0.921132 0.579483
vt 0.921236 0.587313
vt 0.897453 0.587629
vt 0.897349 0.579798
vt 0.968947 0.531760
vt 0.971784 0.540931
vt 0.961884 0.540930
vt 0.960994 0.531310
vt 0.971783 0.552829
vt 0.968944 0.557003
vt 0.960994 0.557509
vt 0.961883 0.552828
vt 0.996521 0.143235
vt 0.996521 0.181788
vt 0.848521 0.181788
vt 0.849760 0.143235
vt 0.170979 0.273863
vt 0.170981 0.340856
vt 0.033786 0.340863
vt 0.036758 0.273870
vt 0.630969 0.400000
vt 0.625370 0.483320
vt 0.252733 0.143235
vt 0.136907 0.161829
vt 0.136907 0.135991
vt 0.721768 0.944079
vt 0.714087 0.976993
vt 0.661284 0.975996
vt 0.660607 0.943172
vt 0.510543 0.143235
vt 0.065058 0.131128
vt 0.065058 0.155538
vt 0.003785 0.145710
vt 0.003785 0.123529
vt 0.469909 0.793232
vt 0.367482 0.793232
vt 0.962675 0.279092
vt 0.829608 0.279092
vt 0.996521 0.109710
vt 0.894292 0.103639
vt 0.968350 0.579091
vt 0.967692 0.586379
vt 0.960516 0.587295
vt 0.960646 0.579107
vt 0.342380 0.483098
vt 0.350826 0.420457
vt 0.313044 0.363687
vt 0.185619 0.363687
vt 0.305424 0.273863
vt 0.305425 0.340855
vt 0.936654 0.579277
vt 0.936758 0.587107
vt 0.700520 0.181788
vt 0.665599 0.279092
vt 0.702998 0.143235
vt 0.971783 0.546944
vt 0.961883 0.546943
vt 0.028564 0.498071
vt 0.028564 0.431078
vt 0.971336 0.544295
vt 0.971335 0.549331
vt 0.961435 0.549329
vt 0.961436 0.544294
vt 0.968495 0.557005
vt 0.960544 0.557488
vt 0.670299 0.022986
vt 0.705194 0.095135
vt 0.509231 0.109710
vt 0.505399 0.022986
vt 0.883318 0.545439
vt 0.881824 0.511819
vt 0.891311 0.513193
vt 0.891244 0.545408
vt 0.065058 0.040962
vt 0.079633 0.082036
vt 0.053119 0.078723
vt 0.040525 0.046631
vt 0.199681 0.102714
vt 0.252733 0.022986
vt 0.718841 0.849806
vt 0.723727 0.870970
vt 0.658618 0.873287
vt 0.658618 0.846399
vt 0.971336 0.540776
vt 0.961437 0.540774
vt 0.136907 0.104314
vt 0.790374 0.097467
vt 0.755719 0.109710
vt 0.468196 0.747749
vt 0.367482 0.747749
vt 0.723182 0.904246
vt 0.660919 0.902209
vt 0.856903 0.474905
vt 0.868257 0.322788
vt 0.957328 0.342537
vt 0.925501 0.475946
vt 0.377052 0.322206
vt 0.436564 0.316137
vt 0.789853 0.475946
vt 0.784795 0.321294
vt 0.828443 0.906861
vt 0.824897 0.947766
vt 0.600904 0.747749
vt 0.600904 0.793232
vt 0.808036 0.851744
vt 0.817071 0.867233
vt 0.886215 0.572228
vt 0.886319 0.580058
vt 0.879556 0.580148
vt 0.879452 0.572318
vt 0.028564 0.363687
vt 0.953755 0.571271
vt 0.953858 0.579101
vt 0.943731 0.579183
vt 0.943627 0.571353
vt 0.936550 0.571447
vt 0.921028 0.571653
vt 0.305425 0.206472
vt 0.170980 0.206472
vt 0.968456 0.571273
vt 0.960743 0.571273
vt 0.600904 0.845538
vt 0.815918 0.969107
vt 0.505662 0.316157
vt 0.666818 0.316083
vt 0.048740 0.206320
vt 0.897246 0.571968
vt 0.876571 0.579453
vt 0.876089 0.572339
vt 0.600904 0.990491
vt 0.966740 0.543130
vt 0.962073 0.544084
vt 0.962730 0.537235
vt 0.969362 0.537861
vt 0.962073 0.526030
vt 0.969775 0.531862
vt 0.962073 0.552976
vt 0.970857 0.551324
vt 0.970857 0.561626
vt 0.963488 0.556198
vt 0.963089 0.548044
vt 0.970311 0.544144
vt 0.906095 0.540049
vt 0.918839 0.543386
vt 0.918834 0.575601
vt 0.906092 0.575600
vt 0.036813 0.036259
vt 0.003785 0.046650
vt 0.003785 0.030759
vt 0.865183 0.502969
vt 0.859667 0.551552
vt 0.851393 0.553909
vt 0.856909 0.505325
vt 0.939065 0.502969
vt 0.949617 0.508745
vt 0.938265 0.511857
vt 0.056731 0.046847
vt 0.076372 0.085017
vt 0.375085 0.712856
vt 0.478037 0.712898
vt 0.600904 0.712905
vt 0.915816 0.083641
vt 0.996521 0.083991
vt 0.906091 0.502970
vt 0.918833 0.502969
vt 0.970039 0.579179
vt 0.969730 0.586757
vt 0.881824 0.585395
vt 0.889727 0.585797
vt 0.969323 0.588206
vt 0.918891 0.538598
vt 0.931633 0.538598
vt 0.931633 0.546497
vt 0.918891 0.546497
vt 0.953955 0.586930
vt 0.908357 0.085505
vt 0.908480 0.064637
vt 0.918891 0.502969
vt 0.935073 0.505111
vt 0.882567 0.502969
vt 0.889722 0.506316
vt 0.918891 0.582297
vt 0.921933 0.546549
vt 0.926603 0.546688
vt 0.927772 0.582297
vt 0.918833 0.582659
vt 0.906091 0.582657
vt 0.967766 0.588848
vt 0.960587 0.588885
vt 0.990416 0.507915
vt 0.889446 0.509610
vt 0.877308 0.563737
vt 0.991658 0.561596
vt 0.960544 0.531666
vt 0.971030 0.539834
vt 0.821564 0.064356
vt 0.852753 0.031245
vt 0.920669 0.047053
vt 0.714704 0.507915
vt 0.712267 0.561567
vt 0.895091 0.551585
vt 0.891363 0.508840
vt 0.901861 0.502969
vt 0.906039 0.554568
vt 0.891363 0.581267
vt 0.902310 0.584250
vt 0.865183 0.584981
vt 0.856909 0.587338
vt 0.943540 0.555471
vt 0.943574 0.572419
vt 0.927824 0.577890
vt 0.927830 0.555570
vt 0.927824 0.546754
vt 0.943733 0.546549
vt 0.935126 0.511347
vt 0.937083 0.502969
vt 0.938213 0.511712
vt 0.935126 0.533667
vt 0.938186 0.534032
vt 0.951341 0.525170
vt 0.938265 0.528805
vt 0.876966 0.587250
vt 0.873811 0.586399
vt 0.003785 0.078327
vt 0.970723 0.538893
vt 0.909524 0.852338
vt 0.934524 0.852338
vt 0.934524 0.877338
vt 0.909524 0.877338
vt 0.539027 0.895165
vt 0.564027 0.895165
vt 0.564027 0.920165
vt 0.539027 0.920165
vt 0.909524 0.902338
vt 0.934524 0.902338
vt 0.934524 0.927338
vt 0.909524 0.927338
vt 0.934524 0.952338
vt 0.909524 0.952338
vt 0.884524 0.902338
vt 0.884524 0.927338
vt 0.959524 0.902338
vt 0.959524 0.927338
vn 0.000000 0.996200 0.087200
vn 0.063200 0.358900 -0.931200
vn 0.024400 0.999700 0.000000
vn 0.945600 0.325300 0.008800
vn 0.067200 -0.997700 0.000000
vn 0.016300 -0.543400 0.839300
vn 0.009600 -0.319100 -0.947700
vn 0.971300 0.230400 -0.058500
vn 0.002500 0.997300 0.073700
vn 0.810400 0.584500 0.040200
vn 0.118400 0.287800 0.950300
vn 0.872800 0.488000 0.008100
vn 0.831800 0.503500 0.233700
vn 0.092500 0.015200 -0.995600
vn 0.955300 0.295400 -0.009600
vn 0.992200 0.074000 -0.100600
vn 0.052100 -0.991300 -0.120700
vn 0.006000 0.994500 0.104300
vn 0.111300 0.993800 0.000000
vn 0.943800 0.330500 0.000000
vn 0.947300 0.320300 -0.008600
vn 0.912700 0.407500 -0.030000
vn 0.000000 -0.999700 0.025500
vn 0.794300 0.605700 0.047000
vn 0.000000 -0.932000 -0.362500
vn 0.000000 -0.960800 -0.277200
vn 0.012700 -0.424800 -0.905200
vn 0.937900 -0.346500 0.014000
vn 0.001300 0.999900 -0.015000
vn 0.831800 -0.530300 0.164300
vn 0.942400 -0.334400 -0.004200
vn 0.146900 -0.243600 0.958700
vn 0.000000 -0.942900 0.333100
vn 0.998100 0.060200 0.012600
vn 0.998100 0.061800 -0.002300
vn 0.988400 0.144400 -0.047100
vn 0.095700 0.005400 -0.995400
vn 0.975700 -0.014700 0.218600
vn 0.997600 0.068700 0.000800
vn 0.114300 0.102100 0.988200
vn 0.997400 0.071500 0.002300
vn 0.998500 0.051800 0.014900
vn 0.283100 0.715600 0.638500
vn 0.133100 0.979300 0.152400
vn 0.045900 0.749900 0.660000
vn 0.366000 0.063600 0.928400
vn 0.012500 0.000200 -0.999900
vn 0.323000 -0.259400 0.910200
vn 0.066900 -0.993200 0.095100
vn 0.067000 -0.994800 -0.076600
vn 0.034500 -0.984600 -0.171400
vn 0.013200 0.001600 -0.999900
vn 0.313600 0.261200 0.912900
vn 0.119800 0.990200 0.072100
vn 0.121400 0.992600 0.005100
vn 0.070700 -0.992500 -0.099700
vn 0.895500 0.445100 0.000000
vn 0.011200 0.366900 -0.930200
vn 0.120400 0.988900 0.086600
vn 0.990800 -0.135400 -0.002400
vn 0.994000 -0.109500 0.002800
vn 0.993600 -0.113000 0.003200
vn 0.993700 -0.111600 -0.012900
vn 0.046300 -0.006100 -0.998900
vn 0.844400 -0.513200 0.153900
vn -0.026200 0.997600 -0.063600
vn 0.016700 -0.999700 -0.016400
vn 0.047100 -0.349500 -0.935800
vn 0.095000 -0.027100 -0.995100
vn 0.012900 -0.001800 -0.999900
vn 0.952700 -0.281100 -0.115800
vn 0.013800 -0.001800 -0.999900
vn 0.000000 -1.000000 0.000000
vn 0.000300 0.999800 -0.017600
vn 0.926200 0.000000 -0.377100
vn 0.073500 -0.974300 -0.213100
vn 0.048000 -0.135300 0.989600
vn 0.066500 -0.976800 -0.203400
vn 1.000000 0.000000 0.000000
vn 0.008900 0.999900 -0.009400
vn 0.007000 1.000000 0.001800
vn 0.274300 0.000000 -0.961600
vn -0.004000 -0.994800 -0.102200
vn 0.126100 -0.071000 0.989500
vn 0.012900 -0.667200 0.744800
vn 0.963600 -0.259800 -0.063200
vn 0.358900 -0.082800 0.929700
vn -0.000100 -1.000000 0.000100
vn -0.000100 -1.000000 0.000000
vn -0.007300 0.997900 -0.063600
vn 0.967900 0.029200 0.249500
vn 0.932800 -0.024000 0.359600
vn -0.170400 0.983400 -0.062700
vn -0.146400 0.988800 -0.028900
vn 0.015000 -0.999900 0.004200
vn 0.044600 -0.991400 -0.122700
vn 0.968600 0.022900 0.247400
vn 0.945600 -0.304600 -0.114500
vn 0.992300 0.073100 -0.100400
vn 0.046800 -0.695900 0.716600
vn -0.994900 0.000000 0.101100
vn -0.101100 0.000000 -0.994900
vn 0.994900 0.000000 -0.101100
vn 0.101100 0.000000 0.994900
vn 0.000000 1.000000 0.000000
vn -0.063200 0.358900 -0.931200
vn -0.024400 0.999700 0.000000
vn -0.945600 0.325300 0.008800
vn -0.067200 -0.997700 0.000000
vn -0.016300 -0.543400 0.839300
vn -0.009600 -0.319100 -0.947700
vn -0.971300 0.230400 -0.058500
vn -0.002500 0.997300 0.073700
vn -0.810400 0.584500 0.040200
vn -0.118400 0.287800 0.950300
vn -0.872800 0.488000 0.008100
vn -0.831800 0.503500 0.233700
vn -0.092500 0.015200 -0.995600
vn -0.955300 0.295400 -0.009600
vn -0.992200 0.074000 -0.100600
vn -0.052100 -0.991300 -0.120700
vn -0.006000 0.994500 0.104300
vn -0.111300 0.993800 0.000000
vn -0.943800 0.330500 0.000000
vn -0.947300 0.320300 -0.008600
vn -0.912700 0.407500 -0.030000
vn -0.794300 0.605700 0.047000
vn -0.012700 -0.424800 -0.905200
vn -0.937900 -0.346500 0.014000
vn -0.001300 0.999900 -0.015000
vn -0.831800 -0.530300 0.164300
vn -0.942400 -0.334400 -0.004200
vn -0.146900 -0.243600 0.958700
vn -0.998100 0.060200 0.012600
vn -0.998100 0.061800 -0.002300
vn -0.988400 0.144400 -0.047100
vn -0.095700 0.005400 -0.995400
vn -0.975700 -0.014700 0.218600
vn -0.997600 0.068700 0.000800
vn -0.114300 0.102100 0.988200
vn -0.997400 0.071500 0.002300
vn -0.998500 0.051800 0.014900
vn -0.283100 0.715600 0.638500
vn -0.133100 0.979300 0.152400
vn -0.045900 0.749900 0.660000
vn -0.366000 0.063600 0.928400
vn -0.012500 0.000200 -0.999900
vn -0.323000 -0.259400 0.910200
vn -0.066900 -0.993200 0.095100
vn -0.067000 -0.994800 -0.076600
vn -0.034500 -0.984600 -0.171400
vn -0.013200 0.001600 -0.999900
vn -0.313600 0.261200 0.912900
vn -0.119800 0.990200 0.072100
vn -0.121400 0.992600 0.005100
vn -0.070700 -0.992500 -0.099700
vn -0.895500 0.445100 0.000000
vn -0.011200 0.366900 -0.930200
vn -0.120400 0.988900 0.086600
vn -0.990800 -0.135400 -0.002400
vn -0.994000 -0.109500 0.002800
vn -0.993600 -0.113000 0.003200
vn -0.993700 -0.111600 -0.012900
vn -0.046300 -0.006100 -0.998900
vn -0.844400 -0.513200 0.153900
vn 0.026200 0.997600 -0.063600
vn -0.016700 -0.999700 -0.016400
vn -0.047100 -0.349500 -0.935800
vn -0.095000 -0.027100 -0.995100
vn -0.012900 -0.001800 -0.999900
vn -0.952700 -0.281100 -0.115800
vn -0.013800 -0.001800 -0.999900
vn -0.000300 0.999800 -0.017600
vn -0.926200 0.000000 -0.377100
vn -0.073500 -0.974300 -0.213100
vn -0.048000 -0.135300 0.989600
vn -0.066500 -0.976800 -0.203400
vn -1.000000 0.000000 0.000000
vn -0.008900 0.999900 -0.009400
vn -0.007000 1.000000 0.001800
vn -0.274300 0.000000 -0.961600
vn 0.004000 -0.994800 -0.102200
vn -0.126100 -0.071000 0.989500
vn -0.012900 -0.667200 0.744800
vn -0.963600 -0.259800 -0.063200
vn -0.358900 -0.082800 0.929700
vn 0.000100 -1.000000 0.000100
vn 0.000100 -1.000000 0.000000
vn 0.007300 0.997900 -0.063600
vn -0.967900 0.029200 0.249500
vn -0.932800 -0.024000 0.359600
vn 0.170400 0.983400 -0.062700
vn 0.146400 0.988800 -0.028900
vn -0.015000 -0.999900 0.004200
vn -0.044600 -0.991400 -0.122700
vn -0.968600 0.022900 0.247400
vn -0.945600 -0.304600 -0.114500
vn -0.992300 0.073100 -0.100400
vn -0.046800 -0.695900 0.716600
vn 0.994900 0.000000 0.101100
vn 0.101100 0.000000 -0.994900
vn -0.994900 0.000000 -0.101100
vn -0.101100 0.000000 0.994900
o volvo_estate
usemtl volvo_estate
f 1/1/1 2/2/1 3/3/1 4/4/1
f 5/5/2 6/6/2 7/7/2 8/8/2
f 6/9/3 9/10/3 10/11/3 11/12/3
f 12/13/4 13/14/4 14/15/4 15/16/4
f 16/17/5 17/18/5 18/19/5 19/20/5
f 18/21/6 20/22/6 21/23/6 19/24/6
f 22/25/7 23/26/7 24/27/7 25/28/7
f 26/29/8 8/30/8 27/31/8 28/32/8
f 29/33/3 30/34/3 31/35/3 32/36/3
f 2/2/9 33/37/9 34/38/9 3/3/9
f 35/39/10 15/16/10 36/40/10 37/41/10
f 38/42/11 39/43/11 40/44/11 41/45/11
f 42/46/12 12/13/12 15/16/12 35/39/12
f 43/47/13 44/48/13 45/49/13 46/50/13
f 47/51/14 5/5/14 8/8/14 26/52/14
f 8/30/15 7/53/15 48/54/15 27/31/15
f 49/55/16 26/29/16 28/32/16 50/56/16
f 51/57/17 52/58/17 53/59/17 54/60/17
f 4/4/18 40/61/18 39/62/18 1/1/18
f 7/63/19 6/9/19 11/12/19 48/64/19
f 55/65/3 56/66/3 30/34/3 29/33/3
f 57/67/5 58/68/5 17/18/5 16/17/5
f 59/69/20 60/70/20 13/14/20 12/13/20
f 27/31/21 48/54/21 60/70/21 59/69/21
f 28/32/22 27/31/22 59/69/22 61/71/22
f 20/22/23 62/72/23 63/73/23 21/23/23
f 11/12/3 10/11/3 56/74/3 55/75/3
f 37/41/24 36/40/24 44/48/24 43/47/24
f 62/72/25 22/25/25 25/28/25 63/73/25
f 64/76/26 65/77/26 66/78/26 67/79/26
f 65/77/27 58/80/27 57/81/27 66/78/27
f 58/82/28 65/83/28 68/84/28 17/85/28
f 69/86/29 70/87/29 71/88/29 72/89/29
f 23/90/30 22/91/30 73/92/30 74/93/30
f 17/85/31 68/84/31 20/94/31 18/95/31
f 75/96/32 76/97/32 77/98/32 78/99/32
f 79/100/33 64/76/33 67/79/33 80/101/33
f 62/102/34 37/41/34 43/47/34 22/91/34
f 65/83/35 61/71/35 42/46/35 68/84/35
f 79/103/36 28/32/36 61/71/36 64/104/36
f 81/105/37 47/51/37 26/52/37 49/106/37
f 22/91/38 43/47/38 73/92/38
f 68/84/39 42/46/39 35/39/39 20/94/39
f 82/107/40 38/42/40 41/45/40 83/108/40
f 20/94/41 35/39/41 37/41/41 62/102/41
f 64/104/42 61/71/42 65/83/42
f 32/109/43 33/110/43 15/111/43 14/112/43
f 1/1/44 39/62/44 45/113/44 44/114/44
f 31/115/45 34/116/45 33/110/45 32/109/45
f 84/117/46 46/118/46 38/42/46 82/107/46
f 85/119/47 86/120/47 47/51/47 81/105/47
f 87/121/48 88/122/48 76/97/48 75/96/48
f 89/123/49 19/124/49 24/125/49 90/126/49
f 48/64/19 11/12/19 55/75/19 60/127/19
f 91/128/50 92/129/50 93/130/50 94/131/50
f 95/132/5 57/67/5 16/17/5 96/133/5
f 60/134/19 55/65/19 29/33/19 13/135/19
f 97/136/51 51/57/51 54/60/51 98/137/51
f 86/120/52 99/138/52 5/5/52 47/51/52
f 46/118/53 45/139/53 39/43/53 38/42/53
f 36/140/54 15/141/54 33/37/54 2/2/54
f 13/135/55 29/33/55 32/36/55 14/142/55
f 94/131/5 93/130/5 57/67/5 95/132/5
f 96/133/5 16/17/5 19/20/5 89/143/5
f 90/126/56 24/125/56 75/144/56 78/145/56
f 61/71/57 59/69/57 12/13/57 42/46/57
f 99/138/58 9/146/58 6/6/58 5/5/58
f 44/114/59 36/140/59 2/2/59 1/1/59
f 25/147/60 24/148/60 19/149/60 63/150/60
f 63/150/61 19/151/61 21/152/61
f 67/153/62 93/154/62 92/155/62 80/156/62
f 66/157/63 57/158/63 93/154/63 67/153/63
f 51/159/64 72/160/64 71/161/64 100/162/64
f 23/163/65 74/93/65 88/164/65 87/165/65
f 84/166/66 82/167/66 101/168/66 102/169/66
f 103/170/67 88/171/67 104/172/67
f 74/173/68 73/174/68 105/174/68 106/173/68
f 70/175/69 69/176/69 81/105/69 49/106/69
f 69/176/70 107/177/70 85/119/70 81/105/70
f 50/56/71 108/178/71 70/179/71 49/55/71
f 97/180/72 109/181/72 72/160/72 51/159/72
f 52/58/73 51/182/73 100/183/73
f 107/184/74 69/86/74 72/89/74 109/185/74
f 52/58/73 100/183/73 110/186/73
f 111/187/75 52/188/75 110/189/75 112/190/75
f 54/60/76 53/59/76 113/191/76 92/129/76
f 108/192/77 53/193/77 114/193/77 115/192/77
f 98/137/78 54/60/78 92/129/78 91/128/78
f 115/194/79 114/195/79 52/188/79 111/187/79
f 71/88/80 70/87/80 111/196/80 112/197/80
f 70/198/81 108/199/81 115/200/81 111/201/81
f 100/162/82 71/161/82 112/202/82 110/203/82
f 53/59/83 52/204/83 114/205/83
f 116/206/84 117/207/84 101/208/84 118/209/84
f 92/210/85 119/211/85 79/100/85 80/101/85
f 108/178/86 119/212/86 113/213/86 53/214/86
f 117/207/87 103/215/87 102/216/87 101/208/87
f 76/217/88 88/218/88 103/219/88 117/220/88
f 77/221/89 76/217/89 117/220/89 116/222/89
f 82/167/90 83/223/90 118/224/90 101/168/90
f 104/225/91 106/226/91 105/227/91 120/228/91
f 104/225/92 120/228/92 102/229/92 103/230/92
f 84/231/93 102/232/93 120/233/93
f 73/234/94 84/231/94 120/233/94 105/235/94
f 88/171/95 74/236/95 106/237/95 104/172/95
f 23/238/96 87/239/96 75/144/96 24/125/96
f 73/92/97 43/47/97 46/50/97 84/240/97
f 50/56/98 79/103/98 119/212/98 108/178/98
f 79/103/99 50/56/99 28/32/99
f 119/211/100 92/210/100 113/241/100
f 121/242/101 122/243/101 123/244/101 124/245/101
f 124/246/102 123/247/102 125/248/102 126/249/102
f 126/250/103 125/251/103 127/252/103 128/253/103
f 128/253/104 127/252/104 122/254/104 121/255/104
f 124/256/73 126/250/73 128/253/73 121/257/73
f 125/251/105 123/258/105 122/259/105 127/252/105
f 129/1/1 4/4/1 3/3/1 130/2/1
f 131/5/106 132/8/106 133/7/106 134/6/106
f 134/9/107 135/12/107 10/11/107 9/10/107
f 136/13/108 137/16/108 138/15/108 139/14/108
f 140/17/109 141/20/109 142/19/109 143/18/109
f 142/21/110 141/24/110 144/23/110 145/22/110
f 146/25/111 147/28/111 148/27/111 149/26/111
f 150/29/112 151/32/112 152/31/112 132/30/112
f 153/33/107 154/36/107 31/35/107 30/34/107
f 130/2/113 3/3/113 34/38/113 155/37/113
f 156/39/114 157/41/114 158/40/114 137/16/114
f 159/42/115 41/45/115 40/44/115 160/43/115
f 161/46/116 156/39/116 137/16/116 136/13/116
f 162/47/117 163/50/117 164/49/117 165/48/117
f 166/51/118 150/52/118 132/8/118 131/5/118
f 132/30/119 152/31/119 167/54/119 133/53/119
f 168/55/120 169/56/120 151/32/120 150/29/120
f 170/57/121 171/60/121 172/59/121 173/58/121
f 4/4/122 129/1/122 160/62/122 40/61/122
f 133/63/123 167/64/123 135/12/123 134/9/123
f 174/65/107 153/33/107 30/34/107 56/66/107
f 175/67/109 140/17/109 143/18/109 176/68/109
f 177/69/124 136/13/124 139/14/124 178/70/124
f 152/31/125 177/69/125 178/70/125 167/54/125
f 151/32/126 179/71/126 177/69/126 152/31/126
f 145/22/23 144/23/23 180/73/23 181/72/23
f 135/12/107 174/75/107 56/74/107 10/11/107
f 157/41/127 162/47/127 165/48/127 158/40/127
f 181/72/25 180/73/25 147/28/25 146/25/25
f 182/76/26 183/79/26 184/78/26 185/77/26
f 185/77/128 184/78/128 175/81/128 176/80/128
f 176/82/129 143/85/129 186/84/129 185/83/129
f 187/86/130 188/89/130 189/88/130 190/87/130
f 149/90/131 191/93/131 192/92/131 146/91/131
f 143/85/132 142/95/132 145/94/132 186/84/132
f 193/96/133 78/99/133 77/98/133 194/97/133
f 195/100/33 196/101/33 183/79/33 182/76/33
f 181/102/134 146/91/134 162/47/134 157/41/134
f 185/83/135 186/84/135 161/46/135 179/71/135
f 195/103/136 182/104/136 179/71/136 151/32/136
f 197/105/137 168/106/137 150/52/137 166/51/137
f 146/91/138 192/92/138 162/47/138
f 186/84/139 145/94/139 156/39/139 161/46/139
f 198/107/140 83/108/140 41/45/140 159/42/140
f 145/94/141 181/102/141 157/41/141 156/39/141
f 182/104/142 185/83/142 179/71/142
f 154/109/143 138/112/143 137/111/143 155/110/143
f 129/1/144 165/114/144 164/113/144 160/62/144
f 31/115/145 154/109/145 155/110/145 34/116/145
f 199/117/146 198/107/146 159/42/146 163/118/146
f 85/119/147 197/105/147 166/51/147 86/120/147
f 200/121/148 193/96/148 194/97/148 201/122/148
f 89/123/149 90/126/149 148/125/149 141/124/149
f 167/64/123 178/127/123 174/75/123 135/12/123
f 91/128/150 94/131/150 202/130/150 203/129/150
f 95/132/109 96/133/109 140/17/109 175/67/109
f 178/134/123 139/135/123 153/33/123 174/65/123
f 97/136/151 98/137/151 171/60/151 170/57/151
f 86/120/152 166/51/152 131/5/152 99/138/152
f 163/118/153 159/42/153 160/43/153 164/139/153
f 158/140/154 130/2/154 155/37/154 137/141/154
f 139/135/155 138/142/155 154/36/155 153/33/155
f 94/131/109 95/132/109 175/67/109 202/130/109
f 96/133/109 89/143/109 141/20/109 140/17/109
f 90/126/156 78/145/156 193/144/156 148/125/156
f 179/71/157 161/46/157 136/13/157 177/69/157
f 99/138/158 131/5/158 134/6/158 9/146/158
f 165/114/159 129/1/159 130/2/159 158/140/159
f 147/147/160 180/150/160 141/149/160 148/148/160
f 180/150/161 144/152/161 141/151/161
f 183/153/162 196/156/162 203/155/162 202/154/162
f 184/157/163 183/153/163 202/154/163 175/158/163
f 170/159/164 204/162/164 189/161/164 188/160/164
f 149/163/165 200/165/165 201/164/165 191/93/165
f 199/166/166 205/169/166 206/168/166 198/167/166
f 207/170/167 208/172/167 201/171/167
f 191/173/168 209/173/168 210/174/168 192/174/168
f 190/175/169 168/106/169 197/105/169 187/176/169
f 187/176/170 197/105/170 85/119/170 107/177/170
f 169/56/171 168/55/171 190/179/171 211/178/171
f 97/180/172 170/159/172 188/160/172 109/181/172
f 173/58/73 204/183/73 170/182/73
f 107/184/173 109/185/173 188/89/173 187/86/173
f 173/58/73 212/186/73 204/183/73
f 213/187/174 214/190/174 212/189/174 173/188/174
f 171/60/175 203/129/175 215/191/175 172/59/175
f 211/192/176 216/192/176 217/193/176 172/193/176
f 98/137/177 91/128/177 203/129/177 171/60/177
f 216/194/178 213/187/178 173/188/178 217/195/178
f 189/88/179 214/197/179 213/196/179 190/87/179
f 190/198/180 213/201/180 216/200/180 211/199/180
f 204/162/181 212/203/181 214/202/181 189/161/181
f 172/59/182 217/205/182 173/204/182
f 116/206/183 118/209/183 206/208/183 218/207/183
f 203/210/184 196/101/184 195/100/184 219/211/184
f 211/178/185 172/214/185 215/213/185 219/212/185
f 218/207/186 206/208/186 205/216/186 207/215/186
f 194/217/187 218/220/187 207/219/187 201/218/187
f 77/221/188 116/222/188 218/220/188 194/217/188
f 198/167/189 206/168/189 118/224/189 83/223/189
f 208/225/190 220/228/190 210/227/190 209/226/190
f 208/225/191 207/230/191 205/229/191 220/228/191
f 199/231/192 220/233/192 205/232/192
f 192/234/193 210/235/193 220/233/193 199/231/193
f 201/171/194 208/172/194 209/237/194 191/236/194
f 149/238/195 148/125/195 193/144/195 200/239/195
f 192/92/196 199/240/196 163/50/196 162/47/196
f 169/56/197 211/178/197 219/212/197 195/103/197
f 195/103/198 151/32/198 169/56/198
f 219/211/199 215/241/199 203/210/199
f 221/242/200 222/245/200 223/244/200 224/243/200
f 222/246/201 225/249/201 226/248/201 223/247/201
f 225/250/202 227/253/202 228/252/202 226/251/202
f 227/253/203 221/255/203 224/254/203 228/252/203
f 222/256/73 221/257/73 227/253/73 225/250/73
f 226/251/105 228/252/105 224/259/105 223/258/105
