# PSX Racing car model — generated by tools/carmodels/export_models.mjs
mtllib volvo_estate_wheels_r.mtl
v 0.603842 -0.004922 -1.173368
v 0.603842 0.089412 -0.945624
v 0.603842 0.317156 -1.173368
v 0.603842 0.089412 -1.401111
v 0.803842 0.317156 -1.173368
v 0.803842 0.089412 -0.945624
v 0.803842 -0.004922 -1.173368
v 0.803842 0.089412 -1.401111
v 0.603842 0.317156 -0.851290
v 0.803842 0.317156 -0.851290
v 0.603842 0.317156 -1.495445
v 0.603842 0.544899 -1.401111
v 0.803842 0.317156 -1.495445
v 0.803842 0.544899 -1.401111
v 0.603842 0.639233 -1.173368
v 0.603842 0.544899 -0.945624
v 0.803842 0.639233 -1.173368
v 0.803842 0.544899 -0.945624
v -0.603842 -0.004922 -1.173368
v -0.603842 0.089412 -1.401111
v -0.603842 0.317156 -1.173368
v -0.603842 0.089412 -0.945624
v -0.803842 0.317156 -1.173368
v -0.803842 0.089412 -1.401111
v -0.803842 -0.004922 -1.173368
v -0.803842 0.089412 -0.945624
v -0.603842 0.317156 -0.851290
v -0.803842 0.317156 -0.851290
v -0.603842 0.317156 -1.495445
v -0.603842 0.544899 -1.401111
v -0.803842 0.544899 -1.401111
v -0.803842 0.317156 -1.495445
v -0.603842 0.639233 -1.173368
v -0.603842 0.544899 -0.945624
v -0.803842 0.544899 -0.945624
v -0.803842 0.639234 -1.173368
vt 0.244500 0.876269
vt 0.209353 0.961122
vt 0.124500 0.876269
vt 0.209353 0.791416
vt 0.986893 0.552841
vt 0.974394 0.552841
vt 0.974394 0.602841
vt 0.986893 0.602841
vt 0.124500 0.756269
vt 0.039647 0.791416
vt 0.039647 0.791416
vt 0.961893 0.552841
vt 0.961893 0.602841
vt 0.949393 0.552841
vt 0.949393 0.602841
vt 0.004500 0.876269
vt 0.039647 0.961122
vt 0.004500 0.876269
vt 0.039647 0.961122
vt 0.936894 0.552841
vt 0.936894 0.602841
vt 0.924393 0.552841
vt 0.924393 0.602841
vt 0.124500 0.996269
vt 0.911893 0.552841
vt 0.911893 0.602841
vt 0.899393 0.552841
vt 0.899393 0.602841
vt 0.886893 0.552841
vt 0.886893 0.602841
vt 0.244500 0.876269
vt 0.209353 0.791416
vt 0.124500 0.876269
vt 0.209353 0.961122
vt 0.986893 0.552841
vt 0.986893 0.602841
vt 0.974394 0.602841
vt 0.974394 0.552841
vt 0.124500 0.756269
vt 0.039647 0.791416
vt 0.039647 0.791416
vt 0.961893 0.602841
vt 0.961893 0.552841
vt 0.949393 0.602841
vt 0.949393 0.552841
vt 0.004500 0.876269
vt 0.039647 0.961122
vt 0.039647 0.961122
vt 0.004500 0.876269
vt 0.936894 0.602841
vt 0.936894 0.552841
vt 0.924393 0.602841
vt 0.924393 0.552841
vt 0.124500 0.996269
vt 0.911893 0.602841
vt 0.911893 0.552841
vt 0.899393 0.602841
vt 0.899393 0.552841
vt 0.886893 0.602841
vt 0.886893 0.552841
vn -1.000000 0.000000 0.000000
vn 1.000000 0.000000 0.000000
vn 0.000000 -0.382700 0.923900
vn 0.000000 -0.923900 0.382700
vn 0.000000 -0.923900 -0.382700
vn 0.000000 -0.382700 -0.923900
vn 0.000000 0.382700 -0.923900
vn 0.000000 0.923900 -0.382700
vn 0.000000 0.923900 0.382700
vn 0.000000 0.382700 0.923900
vn 1.000000 0.000000 0.000000
vn -1.000000 0.000000 0.000000
vn 0.000000 -0.382700 0.923900
vn 0.000000 -0.923900 0.382700
vn 0.000000 -0.923900 -0.382700
vn 0.000000 -0.382700 -0.923900
vn 0.000000 0.382700 -0.923900
vn 0.000000 0.923900 -0.382700
vn 0.000000 0.923900 0.382700
vn 0.000000 0.382700 0.923900
o volvo_estate_wheels_r
usemtl volvo_estate_wheels_r
f 1/1/1 2/2/1 3/3/1 4/4/1
f 5/3/2 6/2/2 7/1/2 8/4/2
f 9/5/3 2/6/3 6/7/3 10/8/3
f 11/9/1 4/4/1 3/3/1 12/10/1
f 5/3/2 8/4/2 13/9/2 14/11/2
f 2/6/4 1/12/4 7/13/4 6/7/4
f 1/12/5 4/14/5 8/15/5 7/13/5
f 15/16/1 12/10/1 3/3/1 16/17/1
f 5/3/2 14/11/2 17/18/2 18/19/2
f 4/14/6 11/20/6 13/21/6 8/15/6
f 11/20/7 12/22/7 14/23/7 13/21/7
f 3/3/1 2/2/1 9/24/1 16/17/1
f 12/22/8 15/25/8 17/26/8 14/23/8
f 15/25/9 16/27/9 18/28/9 17/26/9
f 16/27/10 9/29/10 10/30/10 18/28/10
f 10/24/2 6/2/2 5/3/2 18/19/2
f 19/31/11 20/32/11 21/33/11 22/34/11
f 23/33/12 24/32/12 25/31/12 26/34/12
f 27/35/13 28/36/13 26/37/13 22/38/13
f 29/39/11 30/40/11 21/33/11 20/32/11
f 23/33/12 31/41/12 32/39/12 24/32/12
f 22/38/14 26/37/14 25/42/14 19/43/14
f 19/43/15 25/42/15 24/44/15 20/45/15
f 33/46/11 34/47/11 21/33/11 30/40/11
f 23/33/12 35/48/12 36/49/12 31/41/12
f 20/45/16 24/44/16 32/50/16 29/51/16
f 29/51/17 32/50/17 31/52/17 30/53/17
f 21/33/11 34/47/11 27/54/11 22/34/11
f 30/53/18 31/52/18 36/55/18 33/56/18
f 33/56/19 36/55/19 35/57/19 34/58/19
f 34/58/20 35/57/20 28/59/20 27/60/20
f 28/54/12 35/48/12 23/33/12 26/34/12
