# PSX Racing car model — generated by tools/carmodels/export_models.mjs
mtllib nissan_180sx_wheels_r.mtl
v -0.843718 0.640364 -1.183211
v -0.875621 0.564911 -1.322765
v -0.875621 0.602304 -1.183211
v -0.843718 0.597871 -1.341795
v -0.875621 0.462750 -1.424926
v -0.843718 0.481780 -1.457886
v -0.875621 0.323195 -1.462319
v -0.843718 0.323195 -1.500380
v -0.875621 0.183642 -1.424926
v -0.843718 0.164611 -1.457886
v -0.875621 0.081481 -1.322765
v -0.843718 0.048519 -1.341795
v -0.875621 0.044087 -1.183211
v -0.843718 0.006027 -1.183211
v -0.875621 0.081481 -1.043657
v -0.843718 0.048519 -1.024626
v -0.875621 0.183642 -0.941496
v -0.843718 0.164611 -0.908535
v -0.875621 0.323195 -0.904102
v -0.843718 0.323195 -0.866042
v -0.875621 0.462750 -0.941496
v -0.843718 0.481780 -0.908535
v -0.875621 0.564911 -1.043657
v -0.843718 0.597871 -1.024626
v -0.617495 0.640364 -1.183211
v -0.617495 0.597871 -1.341795
v -0.617495 0.481780 -1.457886
v -0.617495 0.323195 -1.500380
v -0.617495 0.164611 -1.457886
v -0.617495 0.048519 -1.341795
v -0.617495 0.006027 -1.183211
v -0.617495 0.048519 -1.024626
v -0.617495 0.164611 -0.908535
v -0.617495 0.323195 -0.866042
v -0.617495 0.481780 -0.908535
v -0.617495 0.597871 -1.024626
v -0.585592 0.602304 -1.183211
v -0.585592 0.564911 -1.322765
v -0.585592 0.462750 -1.424926
v -0.585592 0.323195 -1.462319
v -0.585592 0.183642 -1.424926
v -0.585592 0.081481 -1.322765
v -0.585592 0.044087 -1.183211
v -0.585592 0.081481 -1.043657
v -0.585592 0.183642 -0.941496
v -0.585592 0.323195 -0.904102
v -0.585592 0.462750 -0.941496
v -0.585592 0.564911 -1.043657
v 0.636662 0.640364 -1.183211
v 0.604759 0.564911 -1.322765
v 0.604759 0.602304 -1.183211
v 0.636662 0.597871 -1.341795
v 0.604759 0.462750 -1.424926
v 0.636662 0.481780 -1.457886
v 0.604759 0.323195 -1.462319
v 0.636662 0.323195 -1.500380
v 0.604759 0.183642 -1.424926
v 0.636662 0.164611 -1.457886
v 0.604759 0.081481 -1.322765
v 0.636662 0.048519 -1.341795
v 0.604759 0.044087 -1.183211
v 0.636662 0.006027 -1.183211
v 0.604759 0.081481 -1.043657
v 0.636662 0.048519 -1.024626
v 0.604759 0.183642 -0.941496
v 0.636662 0.164611 -0.908535
v 0.604759 0.323195 -0.904102
v 0.636662 0.323195 -0.866042
v 0.604759 0.462750 -0.941496
v 0.636662 0.481780 -0.908535
v 0.604759 0.564911 -1.043657
v 0.636662 0.597871 -1.024626
v 0.862884 0.640364 -1.183211
v 0.862884 0.597871 -1.341795
v 0.862884 0.481780 -1.457886
v 0.862884 0.323195 -1.500380
v 0.862884 0.164611 -1.457886
v 0.862884 0.048519 -1.341795
v 0.862884 0.006027 -1.183211
v 0.862884 0.048519 -1.024626
v 0.862884 0.164611 -0.908535
v 0.862884 0.323195 -0.866042
v 0.862884 0.481780 -0.908535
v 0.862884 0.597871 -1.024626
v 0.894788 0.564911 -1.322765
v 0.894788 0.462750 -1.424926
v 0.894788 0.323195 -1.462319
v 0.894788 0.183642 -1.424926
v 0.894788 0.044087 -1.183211
v 0.894788 0.081481 -1.043657
v 0.894788 0.183642 -0.941496
v 0.894788 0.323195 -0.904102
v 0.894788 0.462750 -0.941496
v 0.894788 0.602304 -1.183211
v 0.894788 0.081481 -1.322765
v 0.894788 0.564911 -1.043657
vt 0.880859 0.677734
vt 0.961415 0.612392
vt 0.875000 0.462716
vt 0.788585 0.612392
vt 0.775216 0.562500
vt 0.924892 0.476085
vt 0.924892 0.648915
vt 0.825108 0.648915
vt 0.875000 0.662284
vt 0.974784 0.562500
vt 0.961415 0.512608
vt 0.825108 0.476085
vt 0.788585 0.512608
vt 0.880859 0.677734
vt 0.961415 0.612392
vt 0.875000 0.462716
vt 0.788585 0.612392
vt 0.775216 0.562500
vt 0.924892 0.476085
vt 0.924892 0.648915
vt 0.825108 0.648915
vt 0.875000 0.662284
vt 0.974784 0.562500
vt 0.961415 0.512608
vt 0.825108 0.476085
vt 0.788585 0.512608
vn -0.755300 0.633100 -0.169600
vn -0.755300 0.463500 -0.463500
vn -0.755300 0.169600 -0.633100
vn -0.755300 -0.169600 -0.633100
vn -0.755300 -0.463500 -0.463500
vn -0.755300 -0.633100 -0.169600
vn -0.755300 -0.633100 0.169600
vn -0.755300 -0.463500 0.463500
vn -0.755300 -0.169600 0.633100
vn -0.755300 0.169600 0.633100
vn -0.755300 0.463500 0.463500
vn -0.755300 0.633100 0.169600
vn 0.000000 0.965900 -0.258800
vn 0.000000 0.707100 -0.707100
vn 0.000000 0.258800 -0.965900
vn 0.000000 -0.258800 -0.965900
vn 0.000000 -0.707100 -0.707100
vn 0.000000 -0.965900 -0.258800
vn 0.000000 -0.965900 0.258800
vn 0.000000 -0.707100 0.707100
vn 0.000000 -0.258800 0.965900
vn 0.000000 0.258800 0.965900
vn 0.000000 0.707100 0.707100
vn 0.000000 0.965900 0.258800
vn 0.755300 0.633100 -0.169600
vn 0.755300 0.463500 -0.463500
vn 0.755300 0.169600 -0.633100
vn 0.755300 -0.169600 -0.633100
vn 0.755300 -0.463500 -0.463500
vn 0.755300 -0.633100 -0.169600
vn 0.755300 -0.633100 0.169600
vn 0.755300 -0.463500 0.463500
vn 0.755300 -0.169600 0.633100
vn 0.755300 0.169600 0.633100
vn 0.755300 0.463500 0.463500
vn 0.755300 0.633100 0.169600
vn -1.000000 0.000000 0.000000
vn 1.000000 0.000000 0.000000
vn -0.755300 0.633100 -0.169600
vn -0.755300 0.463500 -0.463500
vn -0.755300 0.169600 -0.633100
vn -0.755300 -0.169600 -0.633100
vn -0.755300 -0.463500 -0.463500
vn -0.755300 -0.633100 -0.169600
vn -0.755300 -0.633100 0.169600
vn -0.755300 -0.463500 0.463500
vn -0.755300 -0.169600 0.633100
vn -0.755300 0.169600 0.633100
vn -0.755300 0.463500 0.463500
vn -0.755300 0.633100 0.169600
vn 0.000000 0.965900 -0.258800
vn 0.000000 0.707100 -0.707100
vn 0.000000 0.258800 -0.965900
vn 0.000000 -0.258800 -0.965900
vn 0.000000 -0.707100 -0.707100
vn 0.000000 -0.965900 -0.258800
vn 0.000000 -0.965900 0.258800
vn 0.000000 -0.707100 0.707100
vn 0.000000 -0.258800 0.965900
vn 0.000000 0.258800 0.965900
vn 0.000000 0.707100 0.707100
vn 0.000000 0.965900 0.258800
vn 0.755300 0.633100 -0.169600
vn 0.755300 0.463500 -0.463500
vn 0.755300 0.169600 -0.633100
vn 0.755300 -0.169600 -0.633100
vn 0.755300 -0.463500 -0.463500
vn 0.755300 -0.633100 -0.169600
vn 0.755300 -0.633100 0.169600
vn 0.755300 -0.463500 0.463500
vn 0.755300 -0.169600 0.633100
vn 0.755300 0.169600 0.633100
vn 0.755300 0.463500 0.463500
vn 0.755300 0.633100 0.169600
vn -1.000000 0.000000 0.000000
vn 1.000000 0.000000 0.000000
o nissan_180sx_wheels_r
usemtl nissan_180sx_wheels_r
f 1/1/1 2/1/1 3/1/1
f 4/1/2 5/1/2 2/1/2
f 6/1/3 7/1/3 5/1/3
f 8/1/4 9/1/4 7/1/4
f 10/1/5 11/1/5 9/1/5
f 12/1/6 13/1/6 11/1/6
f 14/1/7 15/1/7 13/1/7
f 16/1/8 17/1/8 15/1/8
f 18/1/9 19/1/9 17/1/9
f 20/1/10 21/1/10 19/1/10
f 22/1/11 23/1/11 21/1/11
f 24/1/12 3/1/12 23/1/12
f 25/1/13 4/1/13 1/1/13
f 26/1/14 6/1/14 4/1/14
f 27/1/15 8/1/15 6/1/15
f 28/1/16 10/1/16 8/1/16
f 29/1/17 12/1/17 10/1/17
f 30/1/18 14/1/18 12/1/18
f 31/1/19 16/1/19 14/1/19
f 32/1/20 18/1/20 16/1/20
f 33/1/21 20/1/21 18/1/21
f 34/1/22 22/1/22 20/1/22
f 35/1/23 24/1/23 22/1/23
f 36/1/24 1/1/24 24/1/24
f 37/1/25 26/1/25 25/1/25
f 38/1/26 27/1/26 26/1/26
f 39/1/27 28/1/27 27/1/27
f 40/1/28 29/1/28 28/1/28
f 41/1/29 30/1/29 29/1/29
f 42/1/30 31/1/30 30/1/30
f 43/1/31 32/1/31 31/1/31
f 44/1/32 33/1/32 32/1/32
f 45/1/33 34/1/33 33/1/33
f 46/1/34 35/1/34 34/1/34
f 47/1/35 36/1/35 35/1/35
f 48/1/36 25/1/36 36/1/36
f 5/2/37 13/3/37 21/4/37
f 46/5/38 42/6/38 38/7/38
f 1/1/1 4/1/1 2/1/1
f 4/1/2 6/1/2 5/1/2
f 6/1/3 8/1/3 7/1/3
f 8/1/4 10/1/4 9/1/4
f 10/1/5 12/1/5 11/1/5
f 12/1/6 14/1/6 13/1/6
f 14/1/7 16/1/7 15/1/7
f 16/1/8 18/1/8 17/1/8
f 18/1/9 20/1/9 19/1/9
f 20/1/10 22/1/10 21/1/10
f 22/1/11 24/1/11 23/1/11
f 24/1/12 1/1/12 3/1/12
f 25/1/13 26/1/13 4/1/13
f 26/1/14 27/1/14 6/1/14
f 27/1/15 28/1/15 8/1/15
f 28/1/16 29/1/16 10/1/16
f 29/1/17 30/1/17 12/1/17
f 30/1/18 31/1/18 14/1/18
f 31/1/19 32/1/19 16/1/19
f 32/1/20 33/1/20 18/1/20
f 33/1/21 34/1/21 20/1/21
f 34/1/22 35/1/22 22/1/22
f 35/1/23 36/1/23 24/1/23
f 36/1/24 25/1/24 1/1/24
f 37/1/25 38/1/25 26/1/25
f 38/1/26 39/1/26 27/1/26
f 39/1/27 40/1/27 28/1/27
f 40/1/28 41/1/28 29/1/28
f 41/1/29 42/1/29 30/1/29
f 42/1/30 43/1/30 31/1/30
f 43/1/31 44/1/31 32/1/31
f 44/1/32 45/1/32 33/1/32
f 45/1/33 46/1/33 34/1/33
f 46/1/34 47/1/34 35/1/34
f 47/1/35 48/1/35 36/1/35
f 48/1/36 37/1/36 25/1/36
f 21/4/37 23/8/37 3/9/37
f 3/9/37 2/7/37 21/4/37
f 2/7/37 5/2/37 21/4/37
f 5/2/37 7/10/37 9/11/37
f 9/11/37 11/6/37 5/2/37
f 11/6/37 13/3/37 5/2/37
f 13/3/37 15/12/37 21/4/37
f 15/12/37 17/13/37 21/4/37
f 17/13/37 19/5/37 21/4/37
f 38/7/38 37/9/38 48/8/38
f 48/8/38 47/4/38 38/7/38
f 47/4/38 46/5/38 38/7/38
f 46/5/38 45/13/38 44/12/38
f 44/12/38 43/3/38 46/5/38
f 43/3/38 42/6/38 46/5/38
f 42/6/38 41/11/38 38/7/38
f 41/11/38 40/10/38 38/7/38
f 40/10/38 39/2/38 38/7/38
f 49/14/39 50/14/39 51/14/39
f 52/14/40 53/14/40 50/14/40
f 54/14/41 55/14/41 53/14/41
f 56/14/42 57/14/42 55/14/42
f 58/14/43 59/14/43 57/14/43
f 60/14/44 61/14/44 59/14/44
f 62/14/45 63/14/45 61/14/45
f 64/14/46 65/14/46 63/14/46
f 66/14/47 67/14/47 65/14/47
f 68/14/48 69/14/48 67/14/48
f 70/14/49 71/14/49 69/14/49
f 72/14/50 51/14/50 71/14/50
f 73/14/51 52/14/51 49/14/51
f 74/14/52 54/14/52 52/14/52
f 75/14/53 56/14/53 54/14/53
f 76/14/54 58/14/54 56/14/54
f 77/14/55 60/14/55 58/14/55
f 78/14/56 62/14/56 60/14/56
f 79/14/57 64/14/57 62/14/57
f 80/14/58 66/14/58 64/14/58
f 81/14/59 68/14/59 66/14/59
f 82/14/60 70/14/60 68/14/60
f 83/14/61 72/14/61 70/14/61
f 84/14/62 49/14/62 72/14/62
f 73/14/63 85/14/63 74/14/63
f 74/14/64 86/14/64 75/14/64
f 86/14/65 76/14/65 75/14/65
f 87/14/66 77/14/66 76/14/66
f 88/14/67 78/14/67 77/14/67
f 78/14/68 89/14/68 79/14/68
f 79/14/69 90/14/69 80/14/69
f 80/14/70 91/14/70 81/14/70
f 91/14/71 82/14/71 81/14/71
f 92/14/72 83/14/72 82/14/72
f 93/14/73 84/14/73 83/14/73
f 84/14/74 94/14/74 73/14/74
f 53/15/75 61/16/75 69/17/75
f 92/18/76 95/19/76 85/20/76
f 49/14/39 52/14/39 50/14/39
f 52/14/40 54/14/40 53/14/40
f 54/14/41 56/14/41 55/14/41
f 56/14/42 58/14/42 57/14/42
f 58/14/43 60/14/43 59/14/43
f 60/14/44 62/14/44 61/14/44
f 62/14/45 64/14/45 63/14/45
f 64/14/46 66/14/46 65/14/46
f 66/14/47 68/14/47 67/14/47
f 68/14/48 70/14/48 69/14/48
f 70/14/49 72/14/49 71/14/49
f 72/14/50 49/14/50 51/14/50
f 73/14/51 74/14/51 52/14/51
f 74/14/52 75/14/52 54/14/52
f 75/14/53 76/14/53 56/14/53
f 76/14/54 77/14/54 58/14/54
f 77/14/55 78/14/55 60/14/55
f 78/14/56 79/14/56 62/14/56
f 79/14/57 80/14/57 64/14/57
f 80/14/58 81/14/58 66/14/58
f 81/14/59 82/14/59 68/14/59
f 82/14/60 83/14/60 70/14/60
f 83/14/61 84/14/61 72/14/61
f 84/14/62 73/14/62 49/14/62
f 73/14/63 94/14/63 85/14/63
f 74/14/64 85/14/64 86/14/64
f 86/14/65 87/14/65 76/14/65
f 87/14/66 88/14/66 77/14/66
f 88/14/67 95/14/67 78/14/67
f 78/14/68 95/14/68 89/14/68
f 79/14/69 89/14/69 90/14/69
f 80/14/70 90/14/70 91/14/70
f 91/14/71 92/14/71 82/14/71
f 92/14/72 93/14/72 83/14/72
f 93/14/73 96/14/73 84/14/73
f 84/14/74 96/14/74 94/14/74
f 69/17/75 71/21/75 51/22/75
f 51/22/75 50/20/75 69/17/75
f 50/20/75 53/15/75 69/17/75
f 53/15/75 55/23/75 57/24/75
f 57/24/75 59/19/75 53/15/75
f 59/19/75 61/16/75 53/15/75
f 61/16/75 63/25/75 69/17/75
f 63/25/75 65/26/75 69/17/75
f 65/26/75 67/18/75 69/17/75
f 85/20/76 94/22/76 96/21/76
f 96/21/76 93/17/76 85/20/76
f 93/17/76 92/18/76 85/20/76
f 92/18/76 91/26/76 90/25/76
f 90/25/76 89/16/76 92/18/76
f 89/16/76 95/19/76 92/18/76
f 95/19/76 88/24/76 85/20/76
f 88/24/76 87/23/76 85/20/76
f 87/23/76 86/15/76 85/20/76
