# PSX Racing car model — generated by tools/carmodels/export_models.mjs
mtllib nissan_180sx_wheels_f.mtl
v -0.830212 0.562643 -1.237815
v -0.807706 0.604676 -1.317423
v -0.830212 0.553952 -1.303831
v -0.830212 0.528471 -1.365348
v -0.807706 0.525069 -1.455306
v -0.830212 0.487936 -1.418173
v -0.830212 0.435111 -1.458708
v -0.807706 0.461368 -1.504186
v -0.830212 0.373594 -1.484189
v -0.807706 0.387186 -1.534913
v -0.830212 0.307578 -1.492880
v -0.807706 0.227971 -1.534913
v -0.830212 0.241563 -1.484189
v -0.830212 0.180046 -1.458708
v -0.807706 0.090088 -1.455306
v -0.830212 0.127220 -1.418173
v -0.830212 0.086686 -1.365348
v -0.807706 0.041208 -1.391605
v -0.830212 0.061205 -1.303831
v -0.807706 0.010481 -1.317423
v -0.830212 0.052513 -1.237815
v -0.807706 0.010481 -1.158208
v -0.830212 0.061205 -1.171800
v -0.830212 0.086686 -1.110283
v -0.807706 0.090088 -1.020325
v -0.830212 0.127220 -1.057458
v -0.830212 0.180046 -1.016922
v -0.807706 0.153789 -0.971445
v -0.830212 0.241563 -0.991442
v -0.807706 0.227971 -0.940718
v -0.830212 0.307578 -0.982750
v -0.807706 0.387186 -0.940718
v -0.830212 0.373594 -0.991442
v -0.830212 0.435111 -1.016922
v -0.807706 0.525069 -1.020325
v -0.830212 0.487936 -1.057458
v -0.830212 0.528471 -1.110283
v -0.807706 0.573949 -1.084026
v -0.830212 0.553952 -1.171800
v -0.807706 0.604676 -1.158208
v -0.657668 0.615157 -1.237815
v -0.807706 0.615157 -1.237815
v -0.657668 0.604676 -1.317423
v -0.807706 0.573949 -1.391605
v -0.657668 0.573949 -1.391605
v -0.657668 0.525069 -1.455306
v -0.657668 0.461368 -1.504186
v -0.657668 0.387186 -1.534913
v -0.807706 0.307578 -1.545394
v -0.657668 0.307578 -1.545394
v -0.657668 0.227971 -1.534913
v -0.807706 0.153789 -1.504186
v -0.657668 0.153789 -1.504186
v -0.657668 0.090088 -1.455306
v -0.657668 0.041208 -1.391605
v -0.657668 0.010481 -1.317423
v -0.807706 0.000000 -1.237815
v -0.657668 0.000000 -1.237815
v -0.657668 0.010481 -1.158208
v -0.807706 0.041208 -1.084026
v -0.657668 0.041208 -1.084026
v -0.657668 0.090088 -1.020325
v -0.657668 0.153789 -0.971445
v -0.657668 0.227971 -0.940718
v -0.807706 0.307578 -0.930237
v -0.657668 0.307578 -0.930237
v -0.657668 0.387186 -0.940718
v -0.807706 0.461368 -0.971445
v -0.657668 0.461368 -0.971445
v -0.657668 0.525069 -1.020325
v -0.657668 0.573949 -1.084026
v -0.657668 0.604676 -1.158208
v -0.635162 0.562643 -1.237815
v -0.635162 0.553952 -1.303831
v -0.635162 0.528471 -1.365348
v -0.635162 0.435111 -1.458708
v -0.635162 0.307578 -1.492880
v -0.635162 0.241563 -1.484189
v -0.635162 0.180046 -1.458708
v -0.635162 0.086686 -1.365348
v -0.635162 0.052513 -1.237815
v -0.635162 0.061205 -1.171800
v -0.635162 0.086686 -1.110283
v -0.635162 0.180046 -1.016922
v -0.635162 0.307578 -0.982750
v -0.635162 0.373594 -0.991442
v -0.635162 0.435111 -1.016922
v -0.635162 0.528471 -1.110283
v -0.830312 0.307578 -1.237815
v -0.830312 0.562643 -1.237815
v -0.830312 0.553952 -1.303831
v -0.830312 0.528471 -1.365348
v -0.830312 0.487936 -1.418173
v -0.830312 0.435111 -1.458708
v -0.830312 0.373594 -1.484189
v -0.830312 0.307578 -1.492880
v -0.830312 0.241563 -1.484189
v -0.830312 0.180046 -1.458708
v -0.830312 0.127220 -1.418173
v -0.830312 0.086686 -1.365348
v -0.830312 0.061205 -1.303831
v -0.830312 0.052513 -1.237815
v -0.830312 0.061205 -1.171800
v -0.830312 0.086686 -1.110283
v -0.830312 0.127220 -1.057458
v -0.830312 0.180046 -1.016922
v -0.830312 0.241563 -0.991442
v -0.830312 0.307578 -0.982750
v -0.830312 0.373594 -0.991442
v -0.830312 0.435111 -1.016922
v -0.830312 0.487936 -1.057458
v -0.830312 0.528471 -1.110283
v -0.830312 0.553952 -1.171800
v -0.635062 0.307578 -1.237815
v -0.635062 0.553952 -1.303831
v -0.635062 0.562643 -1.237815
v -0.635062 0.528471 -1.365348
v -0.635062 0.487936 -1.418173
v -0.635062 0.435111 -1.458708
v -0.635062 0.373594 -1.484189
v -0.635062 0.307578 -1.492880
v -0.635062 0.241563 -1.484189
v -0.635062 0.180046 -1.458708
v -0.635062 0.127220 -1.418173
v -0.635062 0.086686 -1.365348
v -0.635062 0.061205 -1.303831
v -0.635062 0.052513 -1.237815
v -0.635062 0.061205 -1.171800
v -0.635062 0.086686 -1.110283
v -0.635062 0.127220 -1.057458
v -0.635062 0.180046 -1.016922
v -0.635062 0.241563 -0.991442
v -0.635062 0.307578 -0.982750
v -0.635062 0.373594 -0.991442
v -0.635062 0.435111 -1.016922
v -0.635062 0.487936 -1.057458
v -0.635062 0.528471 -1.110283
v -0.635062 0.553952 -1.171800
v -0.635162 0.487936 -1.418173
v -0.635162 0.373594 -1.484189
v -0.635162 0.127220 -1.418173
v -0.635162 0.061205 -1.303831
v -0.635162 0.127220 -1.057458
v -0.635162 0.241563 -0.991442
v -0.635162 0.487936 -1.057458
v -0.635162 0.553952 -1.171800
v 0.635162 0.562643 -1.237815
v 0.657668 0.604676 -1.317423
v 0.635162 0.553952 -1.303831
v 0.635162 0.528471 -1.365348
v 0.657668 0.525069 -1.455306
v 0.635162 0.487936 -1.418173
v 0.635162 0.435111 -1.458708
v 0.657668 0.461368 -1.504186
v 0.635162 0.373594 -1.484189
v 0.657668 0.387186 -1.534913
v 0.635162 0.307578 -1.492880
v 0.657668 0.227971 -1.534913
v 0.635162 0.241563 -1.484189
v 0.635162 0.180046 -1.458708
v 0.657668 0.090088 -1.455306
v 0.635162 0.127220 -1.418173
v 0.635162 0.086686 -1.365348
v 0.657668 0.041208 -1.391605
v 0.635162 0.061205 -1.303831
v 0.657668 0.010481 -1.317423
v 0.635162 0.052513 -1.237815
v 0.657668 0.010481 -1.158208
v 0.635162 0.061205 -1.171800
v 0.635162 0.086686 -1.110283
v 0.657668 0.090088 -1.020325
v 0.635162 0.127220 -1.057458
v 0.635162 0.180046 -1.016922
v 0.657668 0.153789 -0.971445
v 0.635162 0.241563 -0.991442
v 0.657668 0.227971 -0.940718
v 0.635162 0.307578 -0.982750
v 0.657668 0.387186 -0.940718
v 0.635162 0.373594 -0.991442
v 0.635162 0.435111 -1.016922
v 0.657668 0.525069 -1.020325
v 0.635162 0.487936 -1.057458
v 0.635162 0.528471 -1.110283
v 0.657668 0.573949 -1.084026
v 0.635162 0.553952 -1.171800
v 0.657668 0.604676 -1.158208
v 0.807706 0.615157 -1.237815
v 0.657668 0.615157 -1.237815
v 0.807706 0.604676 -1.317423
v 0.657668 0.573949 -1.391605
v 0.807706 0.573949 -1.391605
v 0.807706 0.525069 -1.455306
v 0.807706 0.461368 -1.504186
v 0.807706 0.387186 -1.534913
v 0.657668 0.307578 -1.545394
v 0.807706 0.307578 -1.545394
v 0.807706 0.227971 -1.534913
v 0.657668 0.153789 -1.504186
v 0.807706 0.153789 -1.504186
v 0.807706 0.090088 -1.455306
v 0.807706 0.041208 -1.391605
v 0.807706 0.010481 -1.317423
v 0.657668 0.000000 -1.237815
v 0.807706 0.000000 -1.237815
v 0.807706 0.010481 -1.158208
v 0.657668 0.041208 -1.084026
v 0.807706 0.041208 -1.084026
v 0.807706 0.090088 -1.020325
v 0.807706 0.153789 -0.971445
v 0.807706 0.227971 -0.940718
v 0.657668 0.307578 -0.930237
v 0.807706 0.307578 -0.930237
v 0.807706 0.387186 -0.940718
v 0.657668 0.461368 -0.971445
v 0.807706 0.461368 -0.971445
v 0.807706 0.525069 -1.020325
v 0.807706 0.573949 -1.084026
v 0.807706 0.604676 -1.158208
v 0.830212 0.562643 -1.237815
v 0.830212 0.553952 -1.303831
v 0.830212 0.528471 -1.365348
v 0.830212 0.435111 -1.458708
v 0.830212 0.307578 -1.492880
v 0.830212 0.241563 -1.484189
v 0.830212 0.180046 -1.458708
v 0.830212 0.086686 -1.365348
v 0.830212 0.052513 -1.237815
v 0.830212 0.061205 -1.171800
v 0.830212 0.086686 -1.110283
v 0.830212 0.180046 -1.016922
v 0.830212 0.307578 -0.982750
v 0.830212 0.373594 -0.991442
v 0.830212 0.435111 -1.016922
v 0.830212 0.528471 -1.110283
v 0.635062 0.307578 -1.237815
v 0.635062 0.562643 -1.237815
v 0.635062 0.553952 -1.303831
v 0.635062 0.528471 -1.365348
v 0.635062 0.487936 -1.418173
v 0.635062 0.435111 -1.458708
v 0.635062 0.373594 -1.484189
v 0.635062 0.307578 -1.492880
v 0.635062 0.241563 -1.484189
v 0.635062 0.180046 -1.458708
v 0.635062 0.127220 -1.418173
v 0.635062 0.086686 -1.365348
v 0.635062 0.061205 -1.303831
v 0.635062 0.052513 -1.237815
v 0.635062 0.061205 -1.171800
v 0.635062 0.086686 -1.110283
v 0.635062 0.127220 -1.057458
v 0.635062 0.180046 -1.016922
v 0.635062 0.241563 -0.991442
v 0.635062 0.307578 -0.982750
v 0.635062 0.373594 -0.991442
v 0.635062 0.435111 -1.016922
v 0.635062 0.487936 -1.057458
v 0.635062 0.528471 -1.110283
v 0.635062 0.553952 -1.171800
v 0.830312 0.307578 -1.237815
v 0.830312 0.553952 -1.303831
v 0.830312 0.562643 -1.237815
v 0.830312 0.528471 -1.365348
v 0.830312 0.487936 -1.418173
v 0.830312 0.435111 -1.458708
v 0.830312 0.373594 -1.484189
v 0.830312 0.307578 -1.492880
v 0.830312 0.241563 -1.484189
v 0.830312 0.180046 -1.458708
v 0.830312 0.127220 -1.418173
v 0.830312 0.086686 -1.365348
v 0.830312 0.061205 -1.303831
v 0.830312 0.052513 -1.237815
v 0.830312 0.061205 -1.171800
v 0.830312 0.086686 -1.110283
v 0.830312 0.127220 -1.057458
v 0.830312 0.180046 -1.016922
v 0.830312 0.241563 -0.991442
v 0.830312 0.307578 -0.982750
v 0.830312 0.373594 -0.991442
v 0.830312 0.435111 -1.016922
v 0.830312 0.487936 -1.057458
v 0.830312 0.528471 -1.110283
v 0.830312 0.553952 -1.171800
v 0.830212 0.487936 -1.418173
v 0.830212 0.373594 -1.484189
v 0.830212 0.127220 -1.418173
v 0.830212 0.061205 -1.303831
v 0.830212 0.127220 -1.057458
v 0.830212 0.241563 -0.991442
v 0.830212 0.487936 -1.057458
v 0.830212 0.553952 -1.171800
vt 0.085938 0.953125
vt 0.078125 0.125000
vt 0.078125 0.242188
vt 0.093290 0.238194
vt 0.107422 0.226487
vt 0.119557 0.207864
vt 0.128869 0.183594
vt 0.134722 0.155330
vt 0.136719 0.125000
vt 0.134722 0.094670
vt 0.128869 0.066406
vt 0.119557 0.042136
vt 0.107422 0.023513
vt 0.093290 0.011806
vt 0.078125 0.007812
vt 0.062960 0.011806
vt 0.048828 0.023513
vt 0.036693 0.042136
vt 0.027381 0.066406
vt 0.021528 0.094670
vt 0.019531 0.125000
vt 0.021528 0.155330
vt 0.027381 0.183594
vt 0.036693 0.207864
vt 0.048828 0.226487
vt 0.062960 0.238194
vt 0.085938 0.953125
vt 0.078125 0.125000
vt 0.078125 0.242188
vt 0.093290 0.238194
vt 0.107422 0.226487
vt 0.119557 0.207864
vt 0.128869 0.183594
vt 0.134722 0.155330
vt 0.136719 0.125000
vt 0.134722 0.094670
vt 0.128869 0.066406
vt 0.119557 0.042136
vt 0.107422 0.023513
vt 0.093290 0.011806
vt 0.078125 0.007812
vt 0.062960 0.011806
vt 0.048828 0.023513
vt 0.036693 0.042136
vt 0.027381 0.066406
vt 0.021528 0.094670
vt 0.019531 0.125000
vt 0.021528 0.155330
vt 0.027381 0.183594
vt 0.036693 0.207864
vt 0.048828 0.226487
vt 0.062960 0.238194
vn -0.919100 0.393900 0.000000
vn -0.530400 0.818800 -0.219400
vn -0.919100 0.380500 -0.102000
vn -0.919100 0.341100 -0.197000
vn -0.530400 0.599400 -0.599400
vn -0.919100 0.278500 -0.278500
vn -0.919100 0.197000 -0.341100
vn -0.530400 0.423900 -0.734200
vn -0.919100 0.102000 -0.380500
vn -0.530400 0.219400 -0.818800
vn -0.919100 0.000000 -0.393900
vn -0.530400 -0.219400 -0.818800
vn -0.919100 -0.102000 -0.380500
vn -0.919100 -0.197000 -0.341100
vn -0.530400 -0.599400 -0.599400
vn -0.919100 -0.278500 -0.278500
vn -0.919100 -0.341100 -0.197000
vn -0.530400 -0.734200 -0.423900
vn -0.919100 -0.380500 -0.102000
vn -0.530400 -0.818800 -0.219400
vn -0.919100 -0.393900 0.000000
vn -0.530400 -0.818800 0.219400
vn -0.919100 -0.380500 0.102000
vn -0.919100 -0.341100 0.197000
vn -0.530400 -0.599400 0.599400
vn -0.919100 -0.278500 0.278500
vn -0.919100 -0.197000 0.341100
vn -0.530400 -0.423900 0.734200
vn -0.919100 -0.102000 0.380500
vn -0.530400 -0.219400 0.818800
vn -0.919100 0.000000 0.393900
vn -0.530400 0.219400 0.818800
vn -0.919100 0.102000 0.380500
vn -0.919100 0.197000 0.341100
vn -0.530400 0.599400 0.599400
vn -0.919100 0.278500 0.278500
vn -0.919100 0.341100 0.197000
vn -0.530400 0.734200 0.423900
vn -0.919100 0.380500 0.102000
vn -0.530400 0.818800 0.219400
vn 0.530400 0.847700 0.000000
vn -0.530400 0.847700 0.000000
vn 0.530400 0.818800 -0.219400
vn -0.530400 0.734200 -0.423900
vn 0.530400 0.734200 -0.423900
vn 0.530400 0.599400 -0.599400
vn 0.530400 0.423900 -0.734200
vn 0.530400 0.219400 -0.818800
vn -0.530400 0.000000 -0.847700
vn 0.530400 0.000000 -0.847700
vn 0.530400 -0.219400 -0.818800
vn -0.530400 -0.423900 -0.734200
vn 0.530400 -0.423900 -0.734200
vn 0.530400 -0.599400 -0.599400
vn 0.530400 -0.734200 -0.423900
vn 0.530400 -0.818800 -0.219400
vn -0.530400 -0.847700 0.000000
vn 0.530400 -0.847700 0.000000
vn 0.530400 -0.818800 0.219400
vn -0.530400 -0.734200 0.423900
vn 0.530400 -0.734200 0.423900
vn 0.530400 -0.599400 0.599400
vn 0.530400 -0.423900 0.734200
vn 0.530400 -0.219400 0.818800
vn -0.530400 0.000000 0.847700
vn 0.530400 0.000000 0.847700
vn 0.530400 0.219400 0.818800
vn -0.530400 0.423900 0.734200
vn 0.530400 0.423900 0.734200
vn 0.530400 0.599400 0.599400
vn 0.530400 0.734200 0.423900
vn 0.530400 0.818800 0.219400
vn 0.919100 0.393900 0.000000
vn 0.919100 0.380500 -0.102000
vn 0.919100 0.341100 -0.197000
vn 0.919100 0.197000 -0.341100
vn 0.919100 0.000000 -0.393900
vn 0.919100 -0.102000 -0.380500
vn 0.919100 -0.197000 -0.341100
vn 0.919100 -0.341100 -0.197000
vn 0.919100 -0.393900 0.000000
vn 0.919100 -0.380500 0.102000
vn 0.919100 -0.341100 0.197000
vn 0.919100 -0.197000 0.341100
vn 0.919100 0.000000 0.393900
vn 0.919100 0.102000 0.380500
vn 0.919100 0.197000 0.341100
vn 0.919100 0.341100 0.197000
vn -1.000000 0.000000 0.000000
vn 1.000000 0.000000 0.000000
vn 0.919100 0.278500 -0.278500
vn 0.919100 0.102000 -0.380500
vn 0.919100 -0.278500 -0.278500
vn 0.919100 -0.380500 -0.102000
vn 0.919100 -0.278500 0.278500
vn 0.919100 -0.102000 0.380500
vn 0.919100 0.278500 0.278500
vn 0.919100 0.380500 0.102000
vn -0.919100 0.393900 0.000000
vn -0.530400 0.818800 -0.219400
vn -0.919100 0.380500 -0.102000
vn -0.919100 0.341100 -0.197000
vn -0.530400 0.599400 -0.599400
vn -0.919100 0.278500 -0.278500
vn -0.919100 0.197000 -0.341100
vn -0.530400 0.423900 -0.734200
vn -0.919100 0.102000 -0.380500
vn -0.530400 0.219400 -0.818800
vn -0.919100 0.000000 -0.393900
vn -0.530400 -0.219400 -0.818800
vn -0.919100 -0.102000 -0.380500
vn -0.919100 -0.197000 -0.341100
vn -0.530400 -0.599400 -0.599400
vn -0.919100 -0.278500 -0.278500
vn -0.919100 -0.341100 -0.197000
vn -0.530400 -0.734200 -0.423900
vn -0.919100 -0.380500 -0.102000
vn -0.530400 -0.818800 -0.219400
vn -0.919100 -0.393900 0.000000
vn -0.530400 -0.818800 0.219400
vn -0.919100 -0.380500 0.102000
vn -0.919100 -0.341100 0.197000
vn -0.530400 -0.599400 0.599400
vn -0.919100 -0.278500 0.278500
vn -0.919100 -0.197000 0.341100
vn -0.530400 -0.423900 0.734200
vn -0.919100 -0.102000 0.380500
vn -0.530400 -0.219400 0.818800
vn -0.919100 0.000000 0.393900
vn -0.530400 0.219400 0.818800
vn -0.919100 0.102000 0.380500
vn -0.919100 0.197000 0.341100
vn -0.530400 0.599400 0.599400
vn -0.919100 0.278500 0.278500
vn -0.919100 0.341100 0.197000
vn -0.530400 0.734200 0.423900
vn -0.919100 0.380500 0.102000
vn -0.530400 0.818800 0.219400
vn 0.530400 0.847700 0.000000
vn -0.530400 0.847700 0.000000
vn 0.530400 0.818800 -0.219400
vn -0.530400 0.734200 -0.423900
vn 0.530400 0.734200 -0.423900
vn 0.530400 0.599400 -0.599400
vn 0.530400 0.423900 -0.734200
vn 0.530400 0.219400 -0.818800
vn -0.530400 0.000000 -0.847700
vn 0.530400 0.000000 -0.847700
vn 0.530400 -0.219400 -0.818800
vn -0.530400 -0.423900 -0.734200
vn 0.530400 -0.423900 -0.734200
vn 0.530400 -0.599400 -0.599400
vn 0.530400 -0.734200 -0.423900
vn 0.530400 -0.818800 -0.219400
vn -0.530400 -0.847700 0.000000
vn 0.530400 -0.847700 0.000000
vn 0.530400 -0.818800 0.219400
vn -0.530400 -0.734200 0.423900
vn 0.530400 -0.734200 0.423900
vn 0.530400 -0.599400 0.599400
vn 0.530400 -0.423900 0.734200
vn 0.530400 -0.219400 0.818800
vn -0.530400 0.000000 0.847700
vn 0.530400 0.000000 0.847700
vn 0.530400 0.219400 0.818800
vn -0.530400 0.423900 0.734200
vn 0.530400 0.423900 0.734200
vn 0.530400 0.599400 0.599400
vn 0.530400 0.734200 0.423900
vn 0.530400 0.818800 0.219400
vn 0.919100 0.393900 0.000000
vn 0.919100 0.380500 -0.102000
vn 0.919100 0.341100 -0.197000
vn 0.919100 0.197000 -0.341100
vn 0.919100 0.000000 -0.393900
vn 0.919100 -0.102000 -0.380500
vn 0.919100 -0.197000 -0.341100
vn 0.919100 -0.341100 -0.197000
vn 0.919100 -0.393900 0.000000
vn 0.919100 -0.380500 0.102000
vn 0.919100 -0.341100 0.197000
vn 0.919100 -0.197000 0.341100
vn 0.919100 0.000000 0.393900
vn 0.919100 0.102000 0.380500
vn 0.919100 0.197000 0.341100
vn 0.919100 0.341100 0.197000
vn -1.000000 0.000000 0.000000
vn 1.000000 0.000000 0.000000
vn 0.919100 0.278500 -0.278500
vn 0.919100 0.102000 -0.380500
vn 0.919100 -0.278500 -0.278500
vn 0.919100 -0.380500 -0.102000
vn 0.919100 -0.278500 0.278500
vn 0.919100 -0.102000 0.380500
vn 0.919100 0.278500 0.278500
vn 0.919100 0.380500 0.102000
o nissan_180sx_wheels_f
usemtl nissan_180sx_wheels_f
f 1/1/1 2/1/2 3/1/3
f 2/1/2 4/1/4 3/1/3
f 4/1/4 5/1/5 6/1/6
f 5/1/5 7/1/7 6/1/6
f 8/1/8 9/1/9 7/1/7
f 10/1/10 11/1/11 9/1/9
f 11/1/11 12/1/12 13/1/13
f 12/1/12 14/1/14 13/1/13
f 14/1/14 15/1/15 16/1/16
f 15/1/15 17/1/17 16/1/16
f 18/1/18 19/1/19 17/1/17
f 20/1/20 21/1/21 19/1/19
f 21/1/21 22/1/22 23/1/23
f 22/1/22 24/1/24 23/1/23
f 24/1/24 25/1/25 26/1/26
f 25/1/25 27/1/27 26/1/26
f 28/1/28 29/1/29 27/1/27
f 30/1/30 31/1/31 29/1/29
f 31/1/31 32/1/32 33/1/33
f 32/1/32 34/1/34 33/1/33
f 34/1/34 35/1/35 36/1/36
f 35/1/35 37/1/37 36/1/36
f 38/1/38 39/1/39 37/1/37
f 40/1/40 1/1/1 39/1/39
f 41/1/41 2/1/2 42/1/42
f 43/1/43 44/1/44 2/1/2
f 45/1/45 5/1/5 44/1/44
f 46/1/46 8/1/8 5/1/5
f 47/1/47 10/1/10 8/1/8
f 48/1/48 49/1/49 10/1/10
f 50/1/50 12/1/12 49/1/49
f 51/1/51 52/1/52 12/1/12
f 53/1/53 15/1/15 52/1/52
f 54/1/54 18/1/18 15/1/15
f 55/1/55 20/1/20 18/1/18
f 56/1/56 57/1/57 20/1/20
f 58/1/58 22/1/22 57/1/57
f 59/1/59 60/1/60 22/1/22
f 61/1/61 25/1/25 60/1/60
f 62/1/62 28/1/28 25/1/25
f 63/1/63 30/1/30 28/1/28
f 64/1/64 65/1/65 30/1/30
f 66/1/66 32/1/32 65/1/65
f 67/1/67 68/1/68 32/1/32
f 69/1/69 35/1/35 68/1/68
f 70/1/70 38/1/38 35/1/35
f 71/1/71 40/1/40 38/1/38
f 72/1/72 42/1/42 40/1/40
f 73/1/73 43/1/43 41/1/41
f 74/1/74 45/1/45 43/1/43
f 75/1/75 46/1/46 45/1/45
f 46/1/46 76/1/76 47/1/47
f 76/1/76 48/1/48 47/1/47
f 48/1/48 77/1/77 50/1/50
f 77/1/77 51/1/51 50/1/50
f 78/1/78 53/1/53 51/1/51
f 79/1/79 54/1/54 53/1/53
f 54/1/54 80/1/80 55/1/55
f 80/1/80 56/1/56 55/1/55
f 56/1/56 81/1/81 58/1/58
f 81/1/81 59/1/59 58/1/58
f 82/1/82 61/1/61 59/1/59
f 83/1/83 62/1/62 61/1/61
f 62/1/62 84/1/84 63/1/63
f 84/1/84 64/1/64 63/1/63
f 64/1/64 85/1/85 66/1/66
f 85/1/85 67/1/67 66/1/66
f 86/1/86 69/1/69 67/1/67
f 87/1/87 70/1/70 69/1/69
f 70/1/70 88/1/88 71/1/71
f 88/1/88 72/1/72 71/1/71
f 72/1/72 73/1/73 41/1/41
f 89/2/89 90/3/89 91/4/89
f 89/2/89 91/4/89 92/5/89
f 89/2/89 92/5/89 93/6/89
f 89/2/89 93/6/89 94/7/89
f 89/2/89 94/7/89 95/8/89
f 89/2/89 95/8/89 96/9/89
f 89/2/89 96/9/89 97/10/89
f 89/2/89 97/10/89 98/11/89
f 89/2/89 98/11/89 99/12/89
f 89/2/89 99/12/89 100/13/89
f 89/2/89 100/13/89 101/14/89
f 89/2/89 101/14/89 102/15/89
f 89/2/89 102/15/89 103/16/89
f 89/2/89 103/16/89 104/17/89
f 89/2/89 104/17/89 105/18/89
f 89/2/89 105/18/89 106/19/89
f 89/2/89 106/19/89 107/20/89
f 89/2/89 107/20/89 108/21/89
f 89/2/89 108/21/89 109/22/89
f 89/2/89 109/22/89 110/23/89
f 89/2/89 110/23/89 111/24/89
f 89/2/89 111/24/89 112/25/89
f 89/2/89 112/25/89 113/26/89
f 89/2/89 113/26/89 90/3/89
f 114/2/90 115/4/90 116/3/90
f 114/2/90 117/5/90 115/4/90
f 114/2/90 118/6/90 117/5/90
f 114/2/90 119/7/90 118/6/90
f 114/2/90 120/8/90 119/7/90
f 114/2/90 121/9/90 120/8/90
f 114/2/90 122/10/90 121/9/90
f 114/2/90 123/11/90 122/10/90
f 114/2/90 124/12/90 123/11/90
f 114/2/90 125/13/90 124/12/90
f 114/2/90 126/14/90 125/13/90
f 114/2/90 127/15/90 126/14/90
f 114/2/90 128/16/90 127/15/90
f 114/2/90 129/17/90 128/16/90
f 114/2/90 130/18/90 129/17/90
f 114/2/90 131/19/90 130/18/90
f 114/2/90 132/20/90 131/19/90
f 114/2/90 133/21/90 132/20/90
f 114/2/90 134/22/90 133/21/90
f 114/2/90 135/23/90 134/22/90
f 114/2/90 136/24/90 135/23/90
f 114/2/90 137/25/90 136/24/90
f 114/2/90 138/26/90 137/25/90
f 114/2/90 116/3/90 138/26/90
f 1/1/1 42/1/42 2/1/2
f 2/1/2 44/1/44 4/1/4
f 4/1/4 44/1/44 5/1/5
f 5/1/5 8/1/8 7/1/7
f 8/1/8 10/1/10 9/1/9
f 10/1/10 49/1/49 11/1/11
f 11/1/11 49/1/49 12/1/12
f 12/1/12 52/1/52 14/1/14
f 14/1/14 52/1/52 15/1/15
f 15/1/15 18/1/18 17/1/17
f 18/1/18 20/1/20 19/1/19
f 20/1/20 57/1/57 21/1/21
f 21/1/21 57/1/57 22/1/22
f 22/1/22 60/1/60 24/1/24
f 24/1/24 60/1/60 25/1/25
f 25/1/25 28/1/28 27/1/27
f 28/1/28 30/1/30 29/1/29
f 30/1/30 65/1/65 31/1/31
f 31/1/31 65/1/65 32/1/32
f 32/1/32 68/1/68 34/1/34
f 34/1/34 68/1/68 35/1/35
f 35/1/35 38/1/38 37/1/37
f 38/1/38 40/1/40 39/1/39
f 40/1/40 42/1/42 1/1/1
f 41/1/41 43/1/43 2/1/2
f 43/1/43 45/1/45 44/1/44
f 45/1/45 46/1/46 5/1/5
f 46/1/46 47/1/47 8/1/8
f 47/1/47 48/1/48 10/1/10
f 48/1/48 50/1/50 49/1/49
f 50/1/50 51/1/51 12/1/12
f 51/1/51 53/1/53 52/1/52
f 53/1/53 54/1/54 15/1/15
f 54/1/54 55/1/55 18/1/18
f 55/1/55 56/1/56 20/1/20
f 56/1/56 58/1/58 57/1/57
f 58/1/58 59/1/59 22/1/22
f 59/1/59 61/1/61 60/1/60
f 61/1/61 62/1/62 25/1/25
f 62/1/62 63/1/63 28/1/28
f 63/1/63 64/1/64 30/1/30
f 64/1/64 66/1/66 65/1/65
f 66/1/66 67/1/67 32/1/32
f 67/1/67 69/1/69 68/1/68
f 69/1/69 70/1/70 35/1/35
f 70/1/70 71/1/71 38/1/38
f 71/1/71 72/1/72 40/1/40
f 72/1/72 41/1/41 42/1/42
f 73/1/73 74/1/74 43/1/43
f 74/1/74 75/1/75 45/1/45
f 75/1/75 139/1/91 46/1/46
f 46/1/46 139/1/91 76/1/76
f 76/1/76 140/1/92 48/1/48
f 48/1/48 140/1/92 77/1/77
f 77/1/77 78/1/78 51/1/51
f 78/1/78 79/1/79 53/1/53
f 79/1/79 141/1/93 54/1/54
f 54/1/54 141/1/93 80/1/80
f 80/1/80 142/1/94 56/1/56
f 56/1/56 142/1/94 81/1/81
f 81/1/81 82/1/82 59/1/59
f 82/1/82 83/1/83 61/1/61
f 83/1/83 143/1/95 62/1/62
f 62/1/62 143/1/95 84/1/84
f 84/1/84 144/1/96 64/1/64
f 64/1/64 144/1/96 85/1/85
f 85/1/85 86/1/86 67/1/67
f 86/1/86 87/1/87 69/1/69
f 87/1/87 145/1/97 70/1/70
f 70/1/70 145/1/97 88/1/88
f 88/1/88 146/1/98 72/1/72
f 72/1/72 146/1/98 73/1/73
f 147/27/99 148/27/100 149/27/101
f 148/27/100 150/27/102 149/27/101
f 150/27/102 151/27/103 152/27/104
f 151/27/103 153/27/105 152/27/104
f 154/27/106 155/27/107 153/27/105
f 156/27/108 157/27/109 155/27/107
f 157/27/109 158/27/110 159/27/111
f 158/27/110 160/27/112 159/27/111
f 160/27/112 161/27/113 162/27/114
f 161/27/113 163/27/115 162/27/114
f 164/27/116 165/27/117 163/27/115
f 166/27/118 167/27/119 165/27/117
f 167/27/119 168/27/120 169/27/121
f 168/27/120 170/27/122 169/27/121
f 170/27/122 171/27/123 172/27/124
f 171/27/123 173/27/125 172/27/124
f 174/27/126 175/27/127 173/27/125
f 176/27/128 177/27/129 175/27/127
f 177/27/129 178/27/130 179/27/131
f 178/27/130 180/27/132 179/27/131
f 180/27/132 181/27/133 182/27/134
f 181/27/133 183/27/135 182/27/134
f 184/27/136 185/27/137 183/27/135
f 186/27/138 147/27/99 185/27/137
f 187/27/139 148/27/100 188/27/140
f 189/27/141 190/27/142 148/27/100
f 191/27/143 151/27/103 190/27/142
f 192/27/144 154/27/106 151/27/103
f 193/27/145 156/27/108 154/27/106
f 194/27/146 195/27/147 156/27/108
f 196/27/148 158/27/110 195/27/147
f 197/27/149 198/27/150 158/27/110
f 199/27/151 161/27/113 198/27/150
f 200/27/152 164/27/116 161/27/113
f 201/27/153 166/27/118 164/27/116
f 202/27/154 203/27/155 166/27/118
f 204/27/156 168/27/120 203/27/155
f 205/27/157 206/27/158 168/27/120
f 207/27/159 171/27/123 206/27/158
f 208/27/160 174/27/126 171/27/123
f 209/27/161 176/27/128 174/27/126
f 210/27/162 211/27/163 176/27/128
f 212/27/164 178/27/130 211/27/163
f 213/27/165 214/27/166 178/27/130
f 215/27/167 181/27/133 214/27/166
f 216/27/168 184/27/136 181/27/133
f 217/27/169 186/27/138 184/27/136
f 218/27/170 188/27/140 186/27/138
f 219/27/171 189/27/141 187/27/139
f 220/27/172 191/27/143 189/27/141
f 221/27/173 192/27/144 191/27/143
f 192/27/144 222/27/174 193/27/145
f 222/27/174 194/27/146 193/27/145
f 194/27/146 223/27/175 196/27/148
f 223/27/175 197/27/149 196/27/148
f 224/27/176 199/27/151 197/27/149
f 225/27/177 200/27/152 199/27/151
f 200/27/152 226/27/178 201/27/153
f 226/27/178 202/27/154 201/27/153
f 202/27/154 227/27/179 204/27/156
f 227/27/179 205/27/157 204/27/156
f 228/27/180 207/27/159 205/27/157
f 229/27/181 208/27/160 207/27/159
f 208/27/160 230/27/182 209/27/161
f 230/27/182 210/27/162 209/27/161
f 210/27/162 231/27/183 212/27/164
f 231/27/183 213/27/165 212/27/164
f 232/27/184 215/27/167 213/27/165
f 233/27/185 216/27/168 215/27/167
f 216/27/168 234/27/186 217/27/169
f 234/27/186 218/27/170 217/27/169
f 218/27/170 219/27/171 187/27/139
f 235/28/187 236/29/187 237/30/187
f 235/28/187 237/30/187 238/31/187
f 235/28/187 238/31/187 239/32/187
f 235/28/187 239/32/187 240/33/187
f 235/28/187 240/33/187 241/34/187
f 235/28/187 241/34/187 242/35/187
f 235/28/187 242/35/187 243/36/187
f 235/28/187 243/36/187 244/37/187
f 235/28/187 244/37/187 245/38/187
f 235/28/187 245/38/187 246/39/187
f 235/28/187 246/39/187 247/40/187
f 235/28/187 247/40/187 248/41/187
f 235/28/187 248/41/187 249/42/187
f 235/28/187 249/42/187 250/43/187
f 235/28/187 250/43/187 251/44/187
f 235/28/187 251/44/187 252/45/187
f 235/28/187 252/45/187 253/46/187
f 235/28/187 253/46/187 254/47/187
f 235/28/187 254/47/187 255/48/187
f 235/28/187 255/48/187 256/49/187
f 235/28/187 256/49/187 257/50/187
f 235/28/187 257/50/187 258/51/187
f 235/28/187 258/51/187 259/52/187
f 235/28/187 259/52/187 236/29/187
f 260/28/188 261/30/188 262/29/188
f 260/28/188 263/31/188 261/30/188
f 260/28/188 264/32/188 263/31/188
f 260/28/188 265/33/188 264/32/188
f 260/28/188 266/34/188 265/33/188
f 260/28/188 267/35/188 266/34/188
f 260/28/188 268/36/188 267/35/188
f 260/28/188 269/37/188 268/36/188
f 260/28/188 270/38/188 269/37/188
f 260/28/188 271/39/188 270/38/188
f 260/28/188 272/40/188 271/39/188
f 260/28/188 273/41/188 272/40/188
f 260/28/188 274/42/188 273/41/188
f 260/28/188 275/43/188 274/42/188
f 260/28/188 276/44/188 275/43/188
f 260/28/188 277/45/188 276/44/188
f 260/28/188 278/46/188 277/45/188
f 260/28/188 279/47/188 278/46/188
f 260/28/188 280/48/188 279/47/188
f 260/28/188 281/49/188 280/48/188
f 260/28/188 282/50/188 281/49/188
f 260/28/188 283/51/188 282/50/188
f 260/28/188 284/52/188 283/51/188
f 260/28/188 262/29/188 284/52/188
f 147/27/99 188/27/140 148/27/100
f 148/27/100 190/27/142 150/27/102
f 150/27/102 190/27/142 151/27/103
f 151/27/103 154/27/106 153/27/105
f 154/27/106 156/27/108 155/27/107
f 156/27/108 195/27/147 157/27/109
f 157/27/109 195/27/147 158/27/110
f 158/27/110 198/27/150 160/27/112
f 160/27/112 198/27/150 161/27/113
f 161/27/113 164/27/116 163/27/115
f 164/27/116 166/27/118 165/27/117
f 166/27/118 203/27/155 167/27/119
f 167/27/119 203/27/155 168/27/120
f 168/27/120 206/27/158 170/27/122
f 170/27/122 206/27/158 171/27/123
f 171/27/123 174/27/126 173/27/125
f 174/27/126 176/27/128 175/27/127
f 176/27/128 211/27/163 177/27/129
f 177/27/129 211/27/163 178/27/130
f 178/27/130 214/27/166 180/27/132
f 180/27/132 214/27/166 181/27/133
f 181/27/133 184/27/136 183/27/135
f 184/27/136 186/27/138 185/27/137
f 186/27/138 188/27/140 147/27/99
f 187/27/139 189/27/141 148/27/100
f 189/27/141 191/27/143 190/27/142
f 191/27/143 192/27/144 151/27/103
f 192/27/144 193/27/145 154/27/106
f 193/27/145 194/27/146 156/27/108
f 194/27/146 196/27/148 195/27/147
f 196/27/148 197/27/149 158/27/110
f 197/27/149 199/27/151 198/27/150
f 199/27/151 200/27/152 161/27/113
f 200/27/152 201/27/153 164/27/116
f 201/27/153 202/27/154 166/27/118
f 202/27/154 204/27/156 203/27/155
f 204/27/156 205/27/157 168/27/120
f 205/27/157 207/27/159 206/27/158
f 207/27/159 208/27/160 171/27/123
f 208/27/160 209/27/161 174/27/126
f 209/27/161 210/27/162 176/27/128
f 210/27/162 212/27/164 211/27/163
f 212/27/164 213/27/165 178/27/130
f 213/27/165 215/27/167 214/27/166
f 215/27/167 216/27/168 181/27/133
f 216/27/168 217/27/169 184/27/136
f 217/27/169 218/27/170 186/27/138
f 218/27/170 187/27/139 188/27/140
f 219/27/171 220/27/172 189/27/141
f 220/27/172 221/27/173 191/27/143
f 221/27/173 285/27/189 192/27/144
f 192/27/144 285/27/189 222/27/174
f 222/27/174 286/27/190 194/27/146
f 194/27/146 286/27/190 223/27/175
f 223/27/175 224/27/176 197/27/149
f 224/27/176 225/27/177 199/27/151
f 225/27/177 287/27/191 200/27/152
f 200/27/152 287/27/191 226/27/178
f 226/27/178 288/27/192 202/27/154
f 202/27/154 288/27/192 227/27/179
f 227/27/179 228/27/180 205/27/157
f 228/27/180 229/27/181 207/27/159
f 229/27/181 289/27/193 208/27/160
f 208/27/160 289/27/193 230/27/182
f 230/27/182 290/27/194 210/27/162
f 210/27/162 290/27/194 231/27/183
f 231/27/183 232/27/184 213/27/165
f 232/27/184 233/27/185 215/27/167
f 233/27/185 291/27/195 216/27/168
f 216/27/168 291/27/195 234/27/186
f 234/27/186 292/27/196 218/27/170
f 218/27/170 292/27/196 219/27/171
