# PSX Racing car model — generated by tools/carmodels/export_models.mjs
mtllib euro_hatch.mtl
v 0.346497 0.845273 -1.629501
v 0.268324 1.322178 -1.136861
v 0.536648 1.277889 -1.136861
v 0.692993 0.845273 -1.591888
v 0.283203 1.341463 -0.398595
v 0.000000 1.360646 -0.375634
v 0.000000 1.339406 0.278149
v 0.280659 1.326697 0.242188
v 0.736513 0.394361 1.562397
v 0.738261 0.530688 1.556947
v 0.710278 0.532063 1.620092
v 0.709606 0.395736 1.625775
v 0.333349 0.530688 1.607622
v 0.339991 0.688429 1.594634
v -0.000001 0.688429 1.617603
v -0.000001 0.530688 1.631026
v 0.738476 0.394361 1.383046
v 0.738476 0.530688 1.312395
v 0.347747 0.458132 -1.652815
v 0.347747 0.584265 -1.652815
v 0.695492 0.584265 -1.615203
v 0.695492 0.458132 -1.615203
v 0.334522 0.225652 1.604187
v 0.337017 0.394361 1.610071
v -0.000001 0.394361 1.630202
v -0.000001 0.225652 1.614953
v 0.717908 0.225652 1.383046
v 0.717908 0.392695 1.358488
v 0.674035 0.394361 1.561115
v 0.669045 0.225652 1.564595
v 0.703406 0.845273 -0.811634
v 0.566405 1.294065 -0.811634
v 0.566405 1.294065 -0.421556
v 0.703406 0.845273 -0.421556
v 0.351702 0.888017 0.752900
v 0.703405 0.845273 0.710333
v 0.561318 1.294065 0.206227
v 0.358953 0.778508 1.383708
v -0.000001 0.807122 1.384370
v 0.757501 0.563070 -0.447167
v 0.757500 0.563070 0.710333
v 0.743609 0.515175 -0.962289
v 0.717908 0.515112 1.265801
v 0.717908 0.749895 1.383046
v 0.679983 0.688429 1.542839
v 0.666700 0.530688 1.555392
v 0.346497 0.584265 -1.629501
v 0.692993 0.584265 -1.591888
v 0.732584 0.570859 -1.137719
v 0.701327 0.845273 -1.139527
v 0.566406 1.288304 -0.927468
v 0.346497 0.310665 -1.542659
v 0.346497 0.458132 -1.629501
v 0.692993 0.458132 -1.591888
v 0.692993 0.336834 -1.502103
v 0.699248 0.458132 -1.359943
v 0.699248 0.336834 -1.467419
v 0.703405 0.845273 0.811285
v 0.754188 0.527499 0.929474
v -0.000001 0.532063 1.690390
v 0.326566 0.532063 1.677979
v 0.351702 0.873886 0.812345
v -0.000001 0.930760 0.795466
v -0.000001 0.902500 0.813404
v 0.283203 1.332593 -0.927468
v 0.000001 1.354840 -0.927469
v 0.000001 1.360601 -0.811635
v 0.283203 1.338355 -0.811634
v 0.355523 0.823634 1.113382
v -0.000001 0.852247 1.114232
v 0.736640 0.569590 1.109968
v 0.711046 0.795021 1.112531
v 0.661429 0.395736 1.640955
v 0.330714 0.395736 1.679673
v -0.000001 0.395736 1.689566
v 0.731289 0.406792 0.710333
v 0.731289 0.406792 0.830472
v 0.653134 0.532063 1.636742
v 0.725483 0.546348 -1.250709
v 0.728709 0.466753 -1.431544
v 0.728709 0.586005 -1.339817
v 0.731290 0.406792 -0.869274
v 0.731290 0.406792 -0.447167
v 0.722454 0.584265 -1.591074
v 0.724954 0.584265 -1.614388
v 0.699248 0.845273 -1.320819
v 0.000001 0.458132 -1.636592
v 0.000001 0.458132 -1.659907
v 0.722454 0.458132 -1.591074
v 0.724954 0.458132 -1.614388
v 0.000001 0.584265 -1.636592
v 0.000001 0.584265 -1.659907
v 0.000001 0.302184 -1.558582
v 0.000001 0.845273 -1.636592
v 0.000001 1.344425 -1.136861
v 0.700910 0.225652 -0.421556
v 0.700909 0.225652 0.710333
v 0.700910 0.225652 -0.811634
v 0.700909 0.225652 0.811285
v 0.353661 0.569590 1.109967
v 0.353662 0.527499 0.929474
v 0.353662 0.406792 0.830472
v 0.353661 0.394361 1.383046
v 0.353661 0.530688 1.312395
v 0.353662 0.225652 0.811285
v 0.353661 0.225652 1.383046
v 0.353663 0.515175 -0.961984
v 0.353663 0.570859 -1.137761
v 0.353663 0.458132 -1.359943
v 0.353663 0.309491 -1.467420
v 0.353663 0.546348 -1.250974
v 0.353663 0.225652 -0.811634
v 0.353663 0.406792 -0.869274
v 0.353663 0.262744 -1.139527
v 0.353663 0.432462 -1.134065
v 0.353661 0.225652 1.097165
v 0.353661 0.400577 1.106759
v 0.353661 0.529094 1.114828
v 0.353663 0.510806 -1.128929
v 0.368222 0.225652 0.710333
v 0.368223 0.225652 -0.421556
v -0.000001 0.225652 1.383045
v -0.000001 0.225652 1.097165
v -0.000001 0.225652 0.811285
v 0.000000 0.225652 0.710333
v 0.000001 0.225652 -0.811635
v 0.000001 0.262744 -1.139527
v 0.000000 0.225652 -0.421557
v 0.000001 0.299835 -1.467420
v 0.710657 0.889014 0.549255
v 0.710657 0.985014 0.549255
v 0.710657 0.985014 0.517255
v 0.710657 0.889014 0.517255
v 0.864257 0.985014 0.517255
v 0.864257 0.889014 0.517255
v 0.864257 0.985014 0.549255
v 0.864257 0.889014 0.549255
v -0.346495 0.845273 -1.629501
v -0.692991 0.845273 -1.591889
v -0.536646 1.277889 -1.136861
v -0.268323 1.322178 -1.136861
v -0.283202 1.341463 -0.398595
v -0.280659 1.326697 0.242188
v -0.736515 0.394361 1.562396
v -0.709608 0.395736 1.625774
v -0.710281 0.532063 1.620091
v -0.738263 0.530688 1.556946
v -0.333351 0.530688 1.607621
v -0.339993 0.688429 1.594633
v -0.738478 0.394361 1.383045
v -0.738478 0.530688 1.312394
v -0.347745 0.458132 -1.652816
v -0.695490 0.458132 -1.615204
v -0.695490 0.584265 -1.615204
v -0.347745 0.584265 -1.652816
v -0.334524 0.225652 1.604186
v -0.337019 0.394361 1.610071
v -0.717910 0.225652 1.383045
v -0.669047 0.225652 1.564594
v -0.674037 0.394361 1.561114
v -0.717910 0.392695 1.358487
v -0.703405 0.845273 -0.811635
v -0.703405 0.845273 -0.421557
v -0.566405 1.294065 -0.421557
v -0.566404 1.294065 -0.811635
v -0.561318 1.294065 0.206227
v -0.703406 0.845273 0.710332
v -0.351703 0.888017 0.752899
v -0.358955 0.778508 1.383708
v -0.757500 0.563070 -0.447168
v -0.757501 0.563070 0.710332
v -0.743607 0.515175 -0.962290
v -0.717910 0.515112 1.265800
v -0.666702 0.530688 1.555391
v -0.679985 0.688429 1.542838
v -0.717910 0.749895 1.383045
v -0.346495 0.584265 -1.629501
v -0.692991 0.584265 -1.591889
v -0.732582 0.570859 -1.137720
v -0.701325 0.845273 -1.139528
v -0.566404 1.288304 -0.927469
v -0.346495 0.310665 -1.542660
v -0.692991 0.336834 -1.502104
v -0.692991 0.458132 -1.591889
v -0.346495 0.458132 -1.629501
v -0.699246 0.336834 -1.467420
v -0.699246 0.458132 -1.359944
v -0.754189 0.527499 0.929473
v -0.703406 0.845273 0.811284
v -0.326569 0.532063 1.677978
v -0.351703 0.873886 0.812344
v -0.283202 1.332593 -0.927469
v -0.283202 1.338355 -0.811635
v -0.355524 0.823634 1.113381
v -0.736641 0.569590 1.109967
v -0.711048 0.795021 1.112530
v -0.330716 0.395736 1.679673
v -0.661431 0.395736 1.640954
v -0.731290 0.406792 0.710332
v -0.731290 0.406792 0.830471
v -0.653136 0.532063 1.636741
v -0.725481 0.546348 -1.250710
v -0.728707 0.586005 -1.339818
v -0.728707 0.466753 -1.431545
v -0.731289 0.406792 -0.869275
v -0.731290 0.406792 -0.447168
v -0.724952 0.584265 -1.614389
v -0.722452 0.584265 -1.591075
v -0.699246 0.845273 -1.320820
v -0.724952 0.458132 -1.614389
v -0.722452 0.458132 -1.591075
v -0.700909 0.225652 -0.421557
v -0.700910 0.225652 0.710332
v -0.700909 0.225652 -0.811635
v -0.700910 0.225652 0.811284
v -0.353663 0.527499 0.929473
v -0.353663 0.569590 1.109967
v -0.353663 0.406792 0.830472
v -0.353663 0.530688 1.312395
v -0.353663 0.394361 1.383045
v -0.353663 0.225652 0.811285
v -0.353663 0.225652 1.383045
v -0.353661 0.570859 -1.137761
v -0.353662 0.515175 -0.961984
v -0.353661 0.309491 -1.467420
v -0.353661 0.458132 -1.359943
v -0.353661 0.546348 -1.250974
v -0.353662 0.406792 -0.869274
v -0.353662 0.225652 -0.811635
v -0.353661 0.262744 -1.139527
v -0.353661 0.432462 -1.134066
v -0.353663 0.225652 1.097165
v -0.353663 0.400577 1.106758
v -0.353663 0.529094 1.114828
v -0.353661 0.510806 -1.128930
v -0.368222 0.225652 -0.421557
v -0.368223 0.225652 0.710332
v -0.710658 0.889014 0.549254
v -0.710658 0.889014 0.517254
v -0.710658 0.985014 0.517254
v -0.710658 0.985014 0.549254
v -0.864258 0.889014 0.517254
v -0.864258 0.985014 0.517254
v -0.864258 0.889014 0.549254
v -0.864258 0.985014 0.549254
vt 0.084297 0.470880
vt 0.102175 0.579947
vt 0.040810 0.569818
vt 0.005054 0.470880
vt 0.928342 0.495414
vt 0.871924 0.490840
vt 0.871924 0.360597
vt 0.927836 0.367761
vt 0.690576 0.049413
vt 0.691662 0.076572
vt 0.679083 0.076845
vt 0.677951 0.049687
vt 0.470955 0.174872
vt 0.473778 0.241921
vt 0.337400 0.241921
vt 0.337400 0.174872
vt 0.726306 0.049413
vt 0.740380 0.076572
vt 0.157714 0.321471
vt 0.157714 0.357655
vt 0.024908 0.357655
vt 0.024908 0.321471
vt 0.460012 0.053398
vt 0.460936 0.115911
vt 0.336060 0.115911
vt 0.336060 0.053398
vt 0.917033 0.670554
vt 0.917033 0.721189
vt 0.970478 0.721189
vt 0.971522 0.670554
vt 0.273741 0.854892
vt 0.273741 0.986585
vt 0.388205 0.986585
vt 0.388205 0.854892
vt 0.415148 0.583853
vt 0.425441 0.471285
vt 0.485023 0.471285
vt 0.462704 0.584267
vt 0.071565 0.108061
vt 0.071367 0.215325
vt 0.001672 0.215325
vt 0.008536 0.113728
vt 0.572421 0.986585
vt 0.720345 0.854892
vt 0.376719 0.775381
vt 0.384401 0.857207
vt 0.723927 0.857207
vt 0.723927 0.775381
vt 0.222201 0.761494
vt 0.267392 0.857207
vt 0.890548 0.761475
vt 0.925717 0.829552
vt 0.973649 0.811729
vt 0.977415 0.765992
vt 0.183941 0.378221
vt 0.183941 0.467308
vt 0.035774 0.467308
vt 0.035774 0.378221
vt 0.169578 0.777639
vt 0.169036 0.857207
vt 0.177525 0.854892
vt 0.239751 0.984894
vt 0.201031 0.263721
vt 0.201031 0.319297
vt 0.070448 0.319297
vt 0.070448 0.273584
vt 0.484653 0.557740
vt 0.485289 0.557057
vt 0.485476 0.558061
vt 0.484693 0.557955
vt 0.754209 0.857207
vt 0.789662 0.765067
vt 0.804883 0.059265
vt 0.836133 0.059265
vt 0.242577 0.110131
vt 0.260340 0.110131
vt 0.247620 0.215228
vt 0.242260 0.215228
vt 0.928342 0.600774
vt 0.871924 0.600774
vt 0.871924 0.577698
vt 0.928342 0.577698
vt 0.152344 0.109087
vt 0.242300 0.110228
vt 0.241984 0.215325
vt 0.152090 0.215325
vt 0.843803 0.777272
vt 0.844572 0.842636
vt 0.802713 0.074782
vt 0.769294 0.074782
vt 0.472072 0.122716
vt 0.470882 0.161824
vt 0.377200 0.161824
vt 0.377200 0.122716
vt 0.723927 0.730068
vt 0.759965 0.730068
vt 0.773633 0.059265
vt 0.000000 0.000000
vt 0.761906 0.074782
vt 0.250102 0.730068
vt 0.376719 0.730068
vt 0.564564 0.161824
vt 0.566944 0.122716
vt 0.580764 0.122716
vt 0.580957 0.161824
vt 0.786719 0.059585
vt 0.786395 0.059300
vt 0.786784 0.058922
vt 0.787108 0.059207
vt 0.731198 0.026581
vt 0.749662 0.050969
vt 0.740380 0.054072
vt 0.726306 0.026913
vt 0.761906 0.059264
vt 0.044785 0.854892
vt 0.174511 0.983203
vt 0.124327 0.854892
vt 0.033344 0.781527
vt 0.033344 0.857207
vt 0.114655 0.857207
vt 0.135685 0.770532
vt 0.856338 0.074331
vt 0.793838 0.074331
vt 0.782171 0.064126
vt 0.782478 0.064426
vt 0.917175 0.077867
vt 0.917175 0.041683
vt 0.923864 0.041683
vt 0.923864 0.077867
vt 0.845098 0.078366
vt 0.871411 0.044157
vt 0.013657 0.357655
vt 0.013657 0.321471
vt 0.918838 0.074331
vt 0.782171 0.054566
vt 0.783738 0.055441
vt 0.937644 0.074331
vt 0.793838 0.049586
vt 0.856338 0.049586
vt 0.984760 0.577698
vt 0.984760 0.499989
vt 0.836133 0.074782
vt 0.152598 0.002849
vt 0.242617 0.005132
vt 0.984760 0.600774
vt 0.242893 0.005035
vt 0.273060 0.005035
vt 0.331614 0.260525
vt 0.331614 0.319297
vt 0.332109 0.378221
vt 0.332109 0.467308
vt 0.071763 0.000798
vt 0.024013 0.012131
vt 0.367922 0.581341
vt 0.365859 0.471285
vt 0.583964 0.053398
vt 0.585813 0.115911
vt 0.290520 0.321471
vt 0.290520 0.357655
vt 0.619752 0.174872
vt 0.625398 0.241921
vt 0.470628 0.241921
vt 0.467805 0.174872
vt 0.983747 0.374925
vt 0.163540 0.470880
vt 0.163540 0.585035
vt 0.984760 0.623850
vt 0.928342 0.623850
vt 0.871924 0.623850
vt 0.384401 0.677545
vt 0.723927 0.677545
vt 0.267392 0.677545
vt 0.754209 0.677545
vt 0.288986 0.505748
vt 0.287564 0.521873
vt 0.256521 0.521873
vt 0.256521 0.505748
vt 0.287130 0.493697
vt 0.256521 0.493697
vt 0.286046 0.538704
vt 0.286046 0.551149
vt 0.256521 0.551149
vt 0.256521 0.538704
vt 0.284668 0.478933
vt 0.256521 0.478933
vt 0.286046 0.564824
vt 0.256521 0.564824
vt 0.254124 0.520146
vt 0.256485 0.537394
vt 0.223751 0.537394
vt 0.223751 0.520146
vt 0.251763 0.481054
vt 0.251763 0.491423
vt 0.223751 0.491423
vt 0.223744 0.478933
vt 0.251763 0.504776
vt 0.223751 0.504776
vt 0.254360 0.552248
vt 0.251898 0.567126
vt 0.223751 0.567126
vt 0.223751 0.552248
vt 0.318812 0.505668
vt 0.318812 0.532515
vt 0.306420 0.530955
vt 0.305131 0.507172
vt 0.289023 0.555724
vt 0.303202 0.556501
vt 0.302698 0.578896
vt 0.289023 0.578896
vt 0.303705 0.534107
vt 0.313489 0.541141
vt 0.313619 0.557155
vt 0.313748 0.573169
vt 0.289023 0.532551
vt 0.317495 0.556761
vt 0.293741 0.508375
vt 0.292396 0.492856
vt 0.303842 0.483388
vt 0.295086 0.523894
vt 0.318037 0.478933
vt 0.289023 0.509771
vt 0.484799 0.575622
vt 0.484497 0.576744
vt 0.482429 0.576989
vt 0.482547 0.575622
vt 0.484695 0.564464
vt 0.484694 0.571463
vt 0.482637 0.571462
vt 0.482638 0.564464
vt 0.484694 0.572087
vt 0.482547 0.572087
vt 0.482548 0.562052
vt 0.484695 0.562052
vt 0.482547 0.573854
vt 0.480360 0.575621
vt 0.480360 0.573854
vt 0.480361 0.572086
vt 0.480361 0.571462
vt 0.482548 0.560012
vt 0.480361 0.562052
vt 0.480362 0.560012
vt 0.480361 0.564464
vt 0.480360 0.577055
vt 0.482549 0.557964
vt 0.482504 0.557499
vt 0.480362 0.557971
vt 0.480360 0.557408
vt 0.960695 0.057323
vt 0.944452 0.057323
vt 0.944452 0.051908
vt 0.960695 0.051908
vt 0.945201 0.996518
vt 0.945201 0.964032
vt 0.997178 0.964032
vt 0.997178 0.996518
vt 0.960695 0.064408
vt 0.944452 0.064408
vt 0.944452 0.058994
vt 0.960695 0.058994
vt 0.941477 0.049236
vt 0.941477 0.065479
vt 0.915488 0.065479
vt 0.915488 0.049236
vt 0.915488 0.067150
vt 0.941477 0.067150
vt 0.941477 0.072564
vt 0.915488 0.072564
vt 0.941477 0.079650
vt 0.915488 0.079650
vt 0.915488 0.074236
vt 0.941477 0.074236
vn 0.070400 0.389000 -0.918500
vn 0.095000 0.913400 -0.395700
vn 0.528700 0.786400 -0.319400
vn 0.661400 0.347900 -0.664500
vn 0.108500 0.994100 0.008000
vn 0.000000 0.999900 0.012900
vn 0.000000 0.930500 0.366200
vn 0.133800 0.931000 0.339600
vn 0.730400 -0.663300 0.163200
vn 0.712200 0.688700 0.135900
vn 0.519000 0.640800 0.565700
vn 0.520600 -0.605900 0.601600
vn 0.072600 0.749600 0.657800
vn 0.099200 0.566900 0.817800
vn 0.000000 0.559500 0.828900
vn 0.000000 0.758100 0.652100
vn 0.746400 -0.654300 -0.121500
vn 0.689700 0.673100 -0.267100
vn 0.045900 -0.697400 -0.715200
vn 0.045900 0.697400 -0.715200
vn 0.047200 0.716200 -0.696300
vn 0.047200 -0.716200 -0.696300
vn 0.062000 -0.710700 0.700700
vn 0.061400 -0.722300 0.688800
vn 0.000000 -0.734800 0.678300
vn 0.000000 -0.722100 0.691800
vn 0.660500 -0.579600 -0.477300
vn 0.572300 -0.471900 -0.670600
vn 0.348400 -0.854600 0.385000
vn 0.525900 -0.602800 0.600100
vn 0.975600 0.219400 -0.011900
vn 0.652000 0.758000 -0.018100
vn 0.653800 0.756700 0.003100
vn 0.971900 0.235200 -0.004900
vn 0.138700 0.875600 0.462800
vn 0.772700 0.605100 0.191900
vn 0.585300 0.775900 0.235200
vn 0.069800 0.955400 0.286800
vn 0.000000 0.955000 0.296700
vn 0.999900 0.013000 -0.008400
vn 0.999800 0.016300 0.006500
vn 0.802500 -0.476800 -0.358600
vn 0.754800 -0.487100 -0.439300
vn 0.728200 0.631300 0.266800
vn 0.602600 0.441500 0.664800
vn 0.310400 0.877900 0.364600
vn 0.044800 0.717100 -0.695500
vn 0.194200 0.921500 -0.336400
vn 0.808300 -0.585800 -0.059100
vn 0.974200 0.221700 -0.041800
vn 0.659500 0.749800 -0.054000
vn 0.071000 -0.860100 -0.505200
vn 0.041600 -0.875400 -0.481700
vn 0.236700 -0.942000 -0.238100
vn 0.635200 -0.681900 -0.362600
vn 0.589400 -0.636800 0.497100
vn 0.675200 -0.666100 0.316800
vn 0.661000 0.743900 0.098300
vn 0.824300 -0.460200 0.329700
vn 0.000000 0.707400 0.706800
vn 0.053800 0.709700 0.702400
vn 0.097200 0.969600 0.224500
vn 0.000000 0.830000 0.557800
vn 0.000000 0.943800 0.330500
vn 0.118700 0.991400 -0.054400
vn 0.000000 0.998700 -0.051100
vn 0.000000 0.999600 -0.026700
vn 0.116300 0.992900 -0.026500
vn 0.079600 0.983400 0.163100
vn 0.000000 0.986400 0.164200
vn 0.803300 -0.595000 0.027000
vn 0.698200 0.704900 0.125200
vn 0.154400 -0.666800 0.729100
vn 0.057000 -0.684800 0.726500
vn 0.000000 -0.691600 0.722300
vn 0.986000 -0.167000 -0.002100
vn 0.744200 -0.379100 0.549900
vn 0.144100 0.708800 0.690600
vn 0.795000 -0.542600 0.271300
vn 0.793500 -0.608200 0.022600
vn 0.458400 0.857200 0.234700
vn 0.724900 -0.424400 -0.542600
vn 0.987000 -0.160700 -0.001800
vn 0.581400 0.810200 0.074100
vn 0.617000 0.573300 -0.539100
vn 0.975900 0.212800 -0.049200
vn 0.000000 -0.862400 -0.506200
vn 0.000000 -0.702600 -0.711600
vn 0.717300 -0.696100 0.031700
vn 0.617000 -0.573300 -0.539100
vn 0.000000 0.711700 -0.702400
vn 0.000000 0.702600 -0.711600
vn 0.000000 -0.849500 -0.527700
vn 0.000000 0.385500 -0.922700
vn 0.000000 0.918400 -0.395600
vn 0.646000 -0.763400 0.000000
vn 0.535600 -0.696700 -0.477300
vn 0.526800 -0.647600 0.550600
vn 0.658300 -0.752600 -0.010400
vn 0.641400 -0.651500 0.405300
vn 0.647900 -0.294000 0.702700
vn 0.633500 -0.240300 -0.735500
vn 0.584400 -0.646300 -0.490600
vn 0.275100 -0.915600 0.293200
vn 0.286600 -0.911300 -0.295600
vn 0.650100 -0.633600 -0.419500
vn 0.653500 -0.756100 -0.035400
vn 0.682500 -0.514900 0.518700
vn 0.224600 -0.961900 0.156100
vn 0.658400 -0.678800 0.325200
vn 0.206700 -0.931000 -0.300800
vn 0.665000 -0.363400 -0.652400
vn 0.706300 -0.702900 -0.084700
vn 1.000000 0.000000 0.000000
vn 0.707100 -0.707100 0.000000
vn 0.000000 -1.000000 0.000000
vn 0.000000 -0.998400 -0.056300
vn 0.000000 -0.992800 -0.119600
vn 0.000000 -0.997200 -0.074700
vn -1.000000 0.000000 0.000000
vn 0.000000 0.000000 -1.000000
vn 0.000000 0.000000 1.000000
vn 0.000000 1.000000 0.000000
vn -0.070400 0.389000 -0.918500
vn -0.661400 0.347900 -0.664500
vn -0.528700 0.786400 -0.319400
vn -0.095000 0.913400 -0.395700
vn -0.108500 0.994100 0.008000
vn -0.133800 0.931000 0.339600
vn -0.730400 -0.663300 0.163200
vn -0.520600 -0.605900 0.601600
vn -0.519000 0.640800 0.565700
vn -0.712200 0.688700 0.135900
vn -0.072600 0.749600 0.657800
vn -0.099200 0.566900 0.817800
vn -0.746400 -0.654300 -0.121500
vn -0.689700 0.673100 -0.267100
vn -0.045900 -0.697400 -0.715200
vn -0.047200 -0.716200 -0.696300
vn -0.047200 0.716200 -0.696300
vn -0.045900 0.697400 -0.715200
vn -0.062000 -0.710700 0.700700
vn -0.061400 -0.722300 0.688800
vn -0.660500 -0.579600 -0.477300
vn -0.525900 -0.602800 0.600100
vn -0.348400 -0.854600 0.385000
vn -0.572300 -0.471900 -0.670600
vn -0.975600 0.219400 -0.011900
vn -0.971900 0.235200 -0.004900
vn -0.653800 0.756700 0.003100
vn -0.652000 0.758000 -0.018100
vn -0.585300 0.775900 0.235200
vn -0.772700 0.605100 0.191900
vn -0.138700 0.875600 0.462800
vn -0.069800 0.955400 0.286800
vn -0.999900 0.013000 -0.008400
vn -0.999800 0.016300 0.006400
vn -0.802500 -0.476800 -0.358600
vn -0.754800 -0.487100 -0.439300
vn -0.310400 0.877900 0.364600
vn -0.602600 0.441500 0.664800
vn -0.728200 0.631300 0.266800
vn -0.044800 0.717100 -0.695500
vn -0.194200 0.921500 -0.336400
vn -0.808300 -0.585800 -0.059100
vn -0.974200 0.221700 -0.041800
vn -0.659500 0.749800 -0.054000
vn -0.071000 -0.860100 -0.505200
vn -0.635200 -0.681900 -0.362600
vn -0.236700 -0.942000 -0.238100
vn -0.041600 -0.875400 -0.481700
vn -0.675200 -0.666100 0.316800
vn -0.589400 -0.636800 0.497100
vn -0.824300 -0.460200 0.329700
vn -0.661000 0.743900 0.098300
vn -0.053800 0.709700 0.702400
vn -0.097200 0.969600 0.224500
vn -0.118700 0.991400 -0.054400
vn -0.116300 0.992900 -0.026500
vn -0.079600 0.983400 0.163100
vn -0.803300 -0.595000 0.027000
vn -0.698200 0.704900 0.125200
vn -0.057000 -0.684800 0.726500
vn -0.154400 -0.666800 0.729100
vn -0.986000 -0.167000 -0.002100
vn -0.744200 -0.379100 0.549900
vn -0.144100 0.708800 0.690600
vn -0.795000 -0.542600 0.271300
vn -0.458400 0.857200 0.234700
vn -0.793500 -0.608200 0.022600
vn -0.724900 -0.424400 -0.542600
vn -0.987000 -0.160700 -0.001800
vn -0.617000 0.573300 -0.539100
vn -0.581400 0.810200 0.074100
vn -0.975900 0.212800 -0.049200
vn -0.617000 -0.573300 -0.539100
vn -0.717300 -0.696100 0.031700
vn -0.646000 -0.763400 0.000000
vn -0.535600 -0.696700 -0.477300
vn -0.526800 -0.647600 0.550600
vn -0.641400 -0.651500 0.405300
vn -0.658300 -0.752600 -0.010400
vn -0.647900 -0.294000 0.702700
vn -0.584400 -0.646300 -0.490600
vn -0.633500 -0.240300 -0.735500
vn -0.275100 -0.915600 0.293200
vn -0.286600 -0.911300 -0.295600
vn -0.653500 -0.756100 -0.035400
vn -0.650100 -0.633600 -0.419500
vn -0.224600 -0.961900 0.156100
vn -0.682500 -0.514900 0.518700
vn -0.658400 -0.678800 0.325200
vn -0.665000 -0.363400 -0.652400
vn -0.206700 -0.931000 -0.300800
vn -0.706300 -0.702900 -0.084700
vn -0.707100 -0.707100 0.000000
o euro_hatch
usemtl euro_hatch
f 1/1/1 2/2/2 3/3/3 4/4/4
f 5/5/5 6/6/6 7/7/7 8/8/8
f 9/9/9 10/10/10 11/11/11 12/12/12
f 13/13/13 14/14/14 15/15/15 16/16/16
f 17/17/17 18/18/18 10/10/10 9/9/9
f 19/19/19 20/20/20 21/21/21 22/22/22
f 23/23/23 24/24/24 25/25/25 26/26/26
f 27/27/27 28/28/28 29/29/29 30/30/30
f 31/31/31 32/32/32 33/33/33 34/34/34
f 8/35/8 35/36/35 36/37/36 37/38/37
f 38/39/38 39/40/39 15/41/15 14/42/14
f 34/34/34 33/33/33 37/43/37 36/44/36
f 40/45/40 34/46/34 36/47/36 41/48/41
f 42/49/42 31/50/31 34/46/34 40/45/40
f 43/51/43 44/52/44 45/53/45 46/54/46
f 47/55/47 1/56/1 4/57/4 48/58/48
f 49/59/49 50/60/50 31/50/31 42/49/42
f 50/61/50 51/62/51 32/32/32 31/31/31
f 52/63/52 53/64/53 54/65/54 55/66/55
f 55/67/55 54/68/54 56/69/56 57/70/57
f 41/48/41 36/47/36 58/71/58 59/72/59
f 13/73/13 16/74/16 60/74/60 61/73/61
f 62/75/62 35/76/35 63/77/63 64/78/64
f 65/79/65 66/80/66 67/81/67 68/82/68
f 69/83/69 62/84/62 64/85/64 70/86/70
f 71/87/71 72/88/72 44/52/44 43/51/43
f 24/89/24 29/90/29 73/90/73 74/89/74
f 73/90/73 29/90/29 9/90/9 12/90/12
f 74/91/74 61/92/61 60/93/60 75/94/75
f 76/95/76 41/48/41 59/72/59 77/96/77
f 46/97/46 78/97/78 11/97/11 10/97/10
f 79/98/79 56/98/56 80/98/80 81/98/81
f 29/90/29 28/99/28 17/99/17 9/90/9
f 82/100/82 42/49/42 40/45/40 83/101/83
f 83/101/83 40/45/40 41/48/41 76/95/76
f 68/82/68 67/81/67 6/6/6 5/5/5
f 78/102/78 73/103/73 12/104/12 11/105/11
f 21/106/21 48/107/48 84/108/84 85/109/85
f 28/110/28 43/111/43 18/112/18 17/113/17
f 43/114/43 46/97/46 10/97/10 18/114/18
f 4/115/4 3/116/3 86/117/86
f 48/118/48 4/119/4 86/120/86 79/121/79
f 53/122/53 87/123/87 88/123/88 19/122/19
f 47/124/47 48/107/48 21/106/21 20/125/20
f 84/126/84 89/127/89 90/128/90 85/129/85
f 89/127/89 84/126/84 81/130/81 80/131/80
f 22/22/22 21/21/21 85/132/85 90/133/90
f 54/134/54 22/134/22 90/134/90 89/134/89
f 48/107/48 79/135/79 81/136/81 84/108/84
f 56/137/56 54/134/54 89/134/89 80/137/80
f 91/138/91 47/139/47 20/139/20 92/138/92
f 54/134/54 53/122/53 19/122/19 22/134/22
f 32/140/32 68/82/68 5/5/5 33/141/33
f 73/103/73 78/102/78 61/92/61 74/91/74
f 25/142/25 24/89/24 74/89/74 75/142/75
f 72/143/72 58/144/58 62/84/62 69/83/69
f 51/145/51 65/79/65 68/82/68 32/140/32
f 58/146/58 36/147/36 35/76/35 62/75/62
f 46/97/46 13/73/13 61/73/61 78/97/78
f 93/148/93 87/149/87 53/64/53 52/63/52
f 91/150/91 94/151/94 1/56/1 47/55/47
f 44/152/44 38/39/38 14/42/14 45/153/45
f 7/154/7 63/155/63 35/36/35 8/35/8
f 30/156/30 29/157/29 24/24/24 23/23/23
f 88/158/88 92/159/92 20/20/20 19/19/19
f 46/160/46 45/161/45 14/162/14 13/163/13
f 33/141/33 5/5/5 8/8/8 37/164/37
f 94/165/94 95/166/95 2/2/2 1/1/1
f 44/152/44 72/143/72 69/83/69 38/39/38
f 59/72/59 58/71/58 72/88/72 71/87/71
f 38/39/38 69/83/69 70/86/70 39/40/39
f 3/167/3 2/168/2 65/79/65 51/145/51
f 2/168/2 95/169/95 66/80/66 65/79/65
f 86/117/86 3/116/3 51/62/51 50/61/50
f 79/121/79 86/120/86 50/60/50 49/59/49
f 96/170/96 83/101/83 76/95/76 97/171/96
f 98/172/97 82/100/82 83/101/83 96/170/96
f 97/171/96 76/95/76 77/96/77 99/173/98
f 59/174/59 71/175/71 100/176/99 101/177/100
f 77/178/77 59/174/59 101/177/100 102/179/101
f 43/180/43 28/181/28 103/182/102 104/183/103
f 99/184/98 77/178/77 102/179/101 105/185/104
f 28/181/28 27/186/27 106/187/105 103/182/102
f 71/175/71 43/180/43 104/183/103 100/176/99
f 49/188/49 42/189/42 107/190/106 108/191/107
f 57/192/57 56/193/56 109/194/108 110/195/109
f 79/196/79 49/188/49 108/191/107 111/197/110
f 56/193/56 79/196/79 111/197/110 109/194/108
f 82/198/82 98/199/97 112/200/111 113/201/112
f 42/189/42 82/198/82 113/201/112 107/190/106
f 114/202/113 110/203/109 109/204/108 115/205/114
f 116/206/115 117/207/114 103/208/102 106/209/105
f 117/207/114 102/210/101 101/211/100 118/212/114
f 103/208/102 117/207/114 118/212/114 104/213/103
f 105/214/104 102/210/101 117/207/114 116/206/115
f 100/215/99 104/213/103 118/212/114 101/211/100
f 115/205/114 119/216/114 107/217/106 113/218/112
f 109/204/108 111/219/110 119/216/114 115/205/114
f 112/220/111 114/202/113 115/205/114 113/218/112
f 107/217/106 119/216/114 111/219/110 108/221/107
f 27/222/27 30/223/30 23/224/23 106/225/105
f 96/226/96 97/227/96 120/228/116 121/229/116
f 97/227/96 99/230/98 105/231/104 120/228/116
f 96/226/96 121/229/116 112/232/111 98/233/97
f 116/234/115 106/225/105 122/235/116 123/236/116
f 120/228/116 105/231/104 124/237/116 125/238/116
f 114/239/113 112/232/111 126/240/117 127/241/118
f 112/232/111 121/229/116 128/242/116 126/240/117
f 121/229/116 120/228/116 125/238/116 128/242/116
f 105/231/104 116/234/115 123/236/116 124/237/116
f 26/243/26 122/235/116 106/225/105 23/224/23
f 55/67/55 57/70/57 110/244/109 52/245/52
f 110/244/109 114/239/113 127/241/118 129/246/119
f 93/247/93 52/245/52 110/244/109 129/246/119
f 130/248/120 131/249/120 132/250/120 133/251/120
f 133/252/121 132/253/121 134/254/121 135/255/121
f 135/256/114 134/257/114 136/258/114 137/259/114
f 137/260/122 136/261/122 131/262/122 130/263/122
f 133/264/116 135/265/116 137/266/116 130/267/116
f 134/268/123 132/269/123 131/270/123 136/271/123
f 138/1/124 139/4/125 140/3/126 141/2/127
f 142/5/128 143/8/129 7/7/7 6/6/6
f 144/9/130 145/12/131 146/11/132 147/10/133
f 148/13/134 16/16/16 15/15/15 149/14/135
f 150/17/136 144/9/130 147/10/133 151/18/137
f 152/19/138 153/22/139 154/21/140 155/20/141
f 156/23/142 26/26/26 25/25/25 157/24/143
f 158/27/144 159/30/145 160/29/146 161/28/147
f 162/31/148 163/34/149 164/33/150 165/32/151
f 143/35/129 166/38/152 167/37/153 168/36/154
f 169/39/155 149/42/135 15/41/15 39/40/39
f 163/34/149 167/44/153 166/43/152 164/33/150
f 170/45/156 171/48/157 167/47/153 163/46/149
f 172/49/158 170/45/156 163/46/149 162/50/148
f 173/51/159 174/54/160 175/53/161 176/52/162
f 177/55/163 178/58/164 139/57/125 138/56/124
f 179/59/165 172/49/158 162/50/148 180/60/166
f 180/61/166 162/31/148 165/32/151 181/62/167
f 182/63/168 183/66/169 184/65/170 185/64/171
f 183/67/169 186/70/172 187/69/173 184/68/170
f 171/48/157 188/72/174 189/71/175 167/47/153
f 148/73/134 190/73/176 60/74/60 16/74/16
f 191/75/177 64/78/64 63/77/63 168/76/154
f 192/79/178 193/82/179 67/81/67 66/80/66
f 194/83/180 70/86/70 64/85/64 191/84/177
f 195/87/181 173/51/159 176/52/162 196/88/182
f 157/89/143 197/89/183 198/90/184 160/90/146
f 198/90/184 145/90/131 144/90/130 160/90/146
f 197/91/183 75/94/75 60/93/60 190/92/176
f 199/95/185 200/96/186 188/72/174 171/48/157
f 174/97/160 147/97/133 146/97/132 201/97/187
f 202/98/188 203/98/189 204/98/190 187/98/173
f 160/90/146 144/90/130 150/99/136 161/99/147
f 205/100/191 206/101/192 170/45/156 172/49/158
f 206/101/192 199/95/185 171/48/157 170/45/156
f 193/82/179 142/5/128 6/6/6 67/81/67
f 201/102/187 146/105/132 145/104/131 198/103/184
f 154/106/140 207/109/193 208/108/194 178/107/164
f 161/110/147 150/113/136 151/112/137 173/111/159
f 173/114/159 151/114/137 147/97/133 174/97/160
f 139/115/125 209/117/195 140/116/126
f 178/118/164 202/121/188 209/120/195 139/119/125
f 185/122/171 152/122/138 88/123/88 87/123/87
f 177/124/163 155/125/141 154/106/140 178/107/164
f 208/126/194 207/129/193 210/128/196 211/127/197
f 211/127/197 204/131/190 203/130/189 208/126/194
f 153/22/139 210/133/196 207/132/193 154/21/140
f 184/134/170 211/134/197 210/134/196 153/134/139
f 178/107/164 208/108/194 203/136/189 202/135/188
f 187/137/173 204/137/190 211/134/197 184/134/170
f 91/138/91 92/138/92 155/139/141 177/139/163
f 184/134/170 153/134/139 152/122/138 185/122/171
f 165/140/151 164/141/150 142/5/128 193/82/179
f 198/103/184 197/91/183 190/92/176 201/102/187
f 25/142/25 75/142/75 197/89/183 157/89/143
f 196/143/182 194/83/180 191/84/177 189/144/175
f 181/145/167 165/140/151 193/82/179 192/79/178
f 189/146/175 191/75/177 168/76/154 167/147/153
f 174/97/160 201/97/187 190/73/176 148/73/134
f 93/148/93 182/63/168 185/64/171 87/149/87
f 91/150/91 177/55/163 138/56/124 94/151/94
f 176/152/162 175/153/161 149/42/135 169/39/155
f 7/154/7 143/35/129 168/36/154 63/155/63
f 159/156/145 156/23/142 157/24/143 160/157/146
f 88/158/88 152/19/138 155/20/141 92/159/92
f 174/160/160 148/163/134 149/162/135 175/161/161
f 164/141/150 166/164/152 143/8/129 142/5/128
f 94/165/94 138/1/124 141/2/127 95/166/95
f 176/152/162 169/39/155 194/83/180 196/143/182
f 188/72/174 195/87/181 196/88/182 189/71/175
f 169/39/155 39/40/39 70/86/70 194/83/180
f 140/167/126 181/145/167 192/79/178 141/168/127
f 141/168/127 192/79/178 66/80/66 95/169/95
f 209/117/195 180/61/166 181/62/167 140/116/126
f 202/121/188 179/59/165 180/60/166 209/120/195
f 212/170/198 213/171/198 199/95/185 206/101/192
f 214/172/199 212/170/198 206/101/192 205/100/191
f 213/171/198 215/173/200 200/96/186 199/95/185
f 188/174/174 216/177/201 217/176/202 195/175/181
f 200/178/186 218/179/203 216/177/201 188/174/174
f 173/180/159 219/183/204 220/182/205 161/181/147
f 215/184/200 221/185/206 218/179/203 200/178/186
f 161/181/147 220/182/205 222/187/207 158/186/144
f 195/175/181 217/176/202 219/183/204 173/180/159
f 179/188/165 223/191/208 224/190/209 172/189/158
f 186/192/172 225/195/210 226/194/211 187/193/173
f 202/196/188 227/197/212 223/191/208 179/188/165
f 187/193/173 226/194/211 227/197/212 202/196/188
f 205/198/191 228/201/213 229/200/214 214/199/199
f 172/189/158 224/190/209 228/201/213 205/198/191
f 230/202/215 231/205/120 226/204/211 225/203/210
f 232/206/216 222/209/207 220/208/205 233/207/120
f 233/207/120 234/212/120 216/211/201 218/210/203
f 220/208/205 219/213/204 234/212/120 233/207/120
f 221/214/206 232/206/216 233/207/120 218/210/203
f 217/215/202 216/211/201 234/212/120 219/213/204
f 231/205/120 228/218/213 224/217/209 235/216/120
f 226/204/211 231/205/120 235/216/120 227/219/212
f 229/220/214 228/218/213 231/205/120 230/202/215
f 224/217/209 223/221/208 227/219/212 235/216/120
f 158/222/144 222/225/207 156/224/142 159/223/145
f 212/226/198 236/229/116 237/228/116 213/227/198
f 213/227/198 237/228/116 221/231/206 215/230/200
f 212/226/198 214/233/199 229/232/214 236/229/116
f 232/234/216 123/236/116 122/235/116 222/225/207
f 237/228/116 125/238/116 124/237/116 221/231/206
f 230/239/215 127/241/118 126/240/117 229/232/214
f 229/232/214 126/240/117 128/242/116 236/229/116
f 236/229/116 128/242/116 125/238/116 237/228/116
f 221/231/206 124/237/116 123/236/116 232/234/216
f 26/243/26 156/224/142 222/225/207 122/235/116
f 183/67/169 182/245/168 225/244/210 186/70/172
f 225/244/210 129/246/119 127/241/118 230/239/215
f 93/247/93 129/246/119 225/244/210 182/245/168
f 238/248/114 239/251/114 240/250/114 241/249/114
f 239/252/121 242/255/121 243/254/121 240/253/121
f 242/256/120 244/259/120 245/258/120 243/257/120
f 244/260/122 238/263/122 241/262/122 245/261/122
f 239/264/116 238/267/116 244/266/116 242/265/116
f 243/268/123 245/271/123 241/270/123 240/269/123
