# PSX Racing car model — generated by tools/carmodels/export_models.mjs
mtllib euro_hatch_wheels_f.mtl
v 0.694966 0.250138 0.838582
v 0.694966 0.434995 0.915153
v 0.694966 0.250138 1.100010
v 0.694966 0.065281 0.915153
v 0.536257 -0.011290 1.100010
v 0.536257 0.065281 1.284867
v 0.536257 0.250138 1.100010
v 0.536257 0.065281 0.915153
v 0.536257 0.250138 0.838582
v 0.694966 0.065281 1.284867
v 0.694966 -0.011290 1.100010
v 0.536257 0.250138 1.361437
v 0.536257 0.434995 1.284867
v 0.694966 0.434995 1.284867
v 0.694966 0.250138 1.361438
v 0.536257 0.511566 1.100010
v 0.536257 0.434995 0.915153
v 0.694966 0.511566 1.100010
v -0.694967 0.250138 0.838581
v -0.694967 0.065281 0.915152
v -0.694967 0.250138 1.100009
v -0.694967 0.434995 0.915152
v -0.536258 -0.011290 1.100009
v -0.536258 0.065281 0.915152
v -0.536258 0.250138 1.100009
v -0.536258 0.065281 1.284866
v -0.536258 0.250138 0.838582
v -0.694967 -0.011290 1.100009
v -0.694967 0.065281 1.284866
v -0.536258 0.250138 1.361437
v -0.536258 0.434995 1.284866
v -0.694968 0.250138 1.361437
v -0.694967 0.434995 1.284866
v -0.536258 0.511566 1.100009
v -0.536258 0.434995 0.915152
v -0.694967 0.511566 1.100009
vt 0.584016 0.644270
vt 0.519085 0.579339
vt 0.629930 0.533425
vt 0.675843 0.644270
vt 0.675843 0.423163
vt 0.740775 0.488094
vt 0.629930 0.534008
vt 0.584016 0.423163
vt 0.607054 0.627344
vt 0.605896 0.628619
vt 0.604290 0.627159
vt 0.605448 0.625885
vt 0.740775 0.487512
vt 0.740775 0.579339
vt 0.740775 0.579921
vt 0.675843 0.644853
vt 0.602684 0.625700
vt 0.603841 0.624426
vt 0.616692 0.636100
vt 0.615534 0.637375
vt 0.613928 0.635915
vt 0.615086 0.634641
vt 0.584016 0.422581
vt 0.675843 0.422581
vt 0.584016 0.644853
vt 0.519085 0.579921
vt 0.612322 0.634456
vt 0.613479 0.633182
vt 0.610715 0.632997
vt 0.611873 0.631722
vt 0.519085 0.487512
vt 0.609109 0.631537
vt 0.610267 0.630263
vt 0.607503 0.630078
vt 0.608660 0.628803
vt 0.519085 0.488094
vt 0.584016 0.644270
vt 0.675843 0.644270
vt 0.629930 0.533425
vt 0.519085 0.579339
vt 0.675843 0.423163
vt 0.584016 0.423163
vt 0.629930 0.534008
vt 0.740775 0.488094
vt 0.607054 0.627344
vt 0.605448 0.625885
vt 0.604290 0.627159
vt 0.605896 0.628619
vt 0.740775 0.579339
vt 0.740775 0.487512
vt 0.740775 0.579921
vt 0.675843 0.644853
vt 0.603841 0.624426
vt 0.602684 0.625700
vt 0.616692 0.636100
vt 0.615086 0.634641
vt 0.613928 0.635915
vt 0.615534 0.637375
vt 0.675843 0.422581
vt 0.584016 0.422581
vt 0.584016 0.644853
vt 0.519085 0.579921
vt 0.613479 0.633182
vt 0.612322 0.634456
vt 0.611873 0.631722
vt 0.610715 0.632997
vt 0.519085 0.487512
vt 0.610267 0.630263
vt 0.609109 0.631537
vt 0.608660 0.628803
vt 0.607503 0.630078
vt 0.519085 0.488094
vn 1.000000 0.000000 0.000000
vn -1.000000 0.000000 0.000000
vn 0.000000 -0.382700 -0.923900
vn 0.000000 -0.923900 -0.382700
vn 0.000000 -0.923900 0.382700
vn 0.000000 -0.382700 0.923900
vn 0.000000 0.382700 0.923900
vn 0.000000 0.923900 0.382700
vn 0.000000 0.923900 -0.382700
vn 0.000000 0.382700 -0.923900
vn -1.000000 0.000000 0.000000
vn 1.000000 0.000000 0.000000
vn 0.000000 -0.382700 -0.923900
vn 0.000000 -0.923900 -0.382700
vn 0.000000 -0.923900 0.382700
vn 0.000000 -0.382700 0.923900
vn 0.000000 0.382700 0.923900
vn 0.000000 0.923900 0.382700
vn 0.000000 0.923900 -0.382700
vn 0.000000 0.382700 -0.923900
o euro_hatch_wheels_f
usemtl euro_hatch_wheels_f
f 1/1/1 2/2/1 3/3/1 4/4/1
f 5/5/2 6/6/2 7/7/2 8/8/2
f 9/9/3 1/10/3 4/11/3 8/12/3
f 3/3/1 10/13/1 11/14/1 4/4/1
f 12/15/2 13/16/2 7/7/2 6/6/2
f 8/12/4 4/11/4 11/17/4 5/18/4
f 5/19/5 11/20/5 10/21/5 6/22/5
f 3/3/1 14/23/1 15/24/1 10/13/1
f 16/25/2 17/26/2 7/7/2 13/16/2
f 6/22/6 10/21/6 15/27/6 12/28/6
f 12/28/7 15/27/7 14/29/7 13/30/7
f 3/3/1 2/2/1 18/31/1 14/23/1
f 13/30/8 14/29/8 18/32/8 16/33/8
f 16/33/9 18/32/9 2/34/9 17/35/9
f 17/35/10 2/34/10 1/10/10 9/9/10
f 7/7/2 17/26/2 9/36/2 8/8/2
f 19/37/11 20/38/11 21/39/11 22/40/11
f 23/41/12 24/42/12 25/43/12 26/44/12
f 27/45/13 24/46/13 20/47/13 19/48/13
f 21/39/11 20/38/11 28/49/11 29/50/11
f 30/51/12 26/44/12 25/43/12 31/52/12
f 24/46/14 23/53/14 28/54/14 20/47/14
f 23/55/15 26/56/15 29/57/15 28/58/15
f 21/39/11 29/50/11 32/59/11 33/60/11
f 34/61/12 31/52/12 25/43/12 35/62/12
f 26/56/16 30/63/16 32/64/16 29/57/16
f 30/63/17 31/65/17 33/66/17 32/64/17
f 21/39/11 33/60/11 36/67/11 22/40/11
f 31/65/18 34/68/18 36/69/18 33/66/18
f 34/68/19 35/70/19 22/71/19 36/69/19
f 35/70/20 27/45/20 19/48/20 22/71/20
f 25/43/12 24/42/12 27/72/12 35/62/12
