# PSX Racing car model — generated by tools/carmodels/export_models.mjs
mtllib rx7_fd_93_wheels_r.mtl
v -0.626531 0.577276 1.099218
v -0.655899 0.648068 1.204114
v -0.626531 0.598141 1.204114
v -0.626531 0.517857 1.010291
v -0.655899 0.623402 1.080112
v -0.655899 0.448036 0.904746
v -0.655899 0.553160 0.974988
v -0.626531 0.324034 0.930007
v -0.626531 0.428930 0.950872
v -0.626531 0.219138 0.950872
v -0.655899 0.324034 0.880080
v -0.626531 0.130211 1.010291
v -0.655899 0.200032 0.904746
v -0.626531 0.070792 1.099218
v -0.655899 0.094908 0.974988
v -0.626531 0.049927 1.204114
v -0.655899 0.024666 1.080112
v -0.626531 0.070792 1.309010
v -0.655899 0.000000 1.204114
v -0.626531 0.130211 1.397937
v -0.655899 0.024666 1.328116
v -0.655899 0.200032 1.503482
v -0.655899 0.094908 1.433240
v -0.626531 0.324034 1.478221
v -0.626531 0.219138 1.457356
v -0.626531 0.428930 1.457356
v -0.655899 0.324034 1.528148
v -0.626531 0.517857 1.397937
v -0.655899 0.448036 1.503482
v -0.626531 0.577276 1.309010
v -0.655899 0.553160 1.433240
v -0.655899 0.623402 1.328116
v -0.655899 0.623402 1.080112
v -0.805679 0.648068 1.204114
v -0.655899 0.648068 1.204114
v -0.655899 0.553160 0.974988
v -0.805679 0.623402 1.080112
v -0.655899 0.448036 0.904746
v -0.805679 0.553160 0.974988
v -0.655899 0.324034 0.880080
v -0.805679 0.448036 0.904746
v -0.655899 0.200032 0.904746
v -0.805679 0.324034 0.880080
v -0.655899 0.094908 0.974988
v -0.805679 0.200032 0.904746
v -0.655899 0.024666 1.080112
v -0.805679 0.094908 0.974988
v -0.655899 0.000000 1.204114
v -0.805679 0.024666 1.080112
v -0.655899 0.024666 1.328116
v -0.805679 0.000000 1.204114
v -0.655899 0.094908 1.433240
v -0.805679 0.024666 1.328116
v -0.655899 0.200032 1.503482
v -0.805679 0.094908 1.433240
v -0.655899 0.324034 1.528148
v -0.805679 0.200032 1.503482
v -0.655899 0.448036 1.503482
v -0.805679 0.324034 1.528148
v -0.655899 0.553160 1.433240
v -0.805679 0.448036 1.503482
v -0.655899 0.623402 1.328116
v -0.805679 0.553160 1.433240
v -0.805679 0.623402 1.328116
v -0.805679 0.623402 1.080112
v -0.841901 0.539404 1.204114
v -0.805679 0.648068 1.204114
v -0.805679 0.553160 0.974988
v -0.841901 0.523009 1.121696
v -0.841901 0.406452 1.005138
v -0.841901 0.476324 1.051825
v -0.805679 0.324034 0.880080
v -0.805679 0.448036 0.904746
v -0.805679 0.200032 0.904746
v -0.841901 0.324034 0.988744
v -0.805679 0.094908 0.974988
v -0.841901 0.241616 1.005138
v -0.805679 0.024666 1.080112
v -0.841901 0.171745 1.051825
v -0.805679 0.000000 1.204114
v -0.841901 0.125058 1.121696
v -0.805679 0.024666 1.328116
v -0.841901 0.108664 1.204114
v -0.805679 0.094908 1.433240
v -0.841901 0.125058 1.286532
v -0.841901 0.241616 1.403090
v -0.841901 0.171745 1.356403
v -0.805679 0.324034 1.528148
v -0.805679 0.200032 1.503482
v -0.805679 0.448036 1.503482
v -0.841901 0.324034 1.419484
v -0.805679 0.553160 1.433240
v -0.841901 0.406452 1.403090
v -0.805679 0.623402 1.328116
v -0.841901 0.476324 1.356403
v -0.841901 0.523009 1.286532
v -0.841901 0.125058 1.121696
v -0.841901 0.241616 1.403090
v -0.841901 0.523009 1.286532
v -0.841901 0.539404 1.204114
v -0.841901 0.523009 1.121696
v -0.841901 0.476324 1.051825
v -0.841901 0.406452 1.005138
v -0.841901 0.324034 0.988744
v -0.841901 0.241616 1.005138
v -0.841901 0.171745 1.051825
v -0.841901 0.108664 1.204114
v -0.841901 0.125058 1.286532
v -0.841901 0.171745 1.356403
v -0.841901 0.324034 1.419484
v -0.841901 0.406452 1.403090
v -0.841901 0.476324 1.356403
v 0.626531 0.577276 1.099218
v 0.626531 0.598141 1.204114
v 0.655899 0.648068 1.204114
v 0.626531 0.517857 1.010291
v 0.655899 0.623402 1.080112
v 0.655899 0.553160 0.974988
v 0.655899 0.448036 0.904746
v 0.626531 0.324034 0.930007
v 0.626531 0.428930 0.950872
v 0.626531 0.219138 0.950872
v 0.655899 0.324034 0.880080
v 0.626531 0.130211 1.010291
v 0.655899 0.200032 0.904746
v 0.626531 0.070792 1.099218
v 0.655899 0.094908 0.974988
v 0.626531 0.049927 1.204114
v 0.655899 0.024666 1.080112
v 0.626531 0.070792 1.309010
v 0.655899 0.000000 1.204114
v 0.626531 0.130211 1.397937
v 0.655899 0.024666 1.328116
v 0.655899 0.094908 1.433240
v 0.655899 0.200032 1.503482
v 0.626531 0.324034 1.478221
v 0.626531 0.219138 1.457356
v 0.626531 0.428930 1.457356
v 0.655899 0.324034 1.528148
v 0.626531 0.517857 1.397937
v 0.655899 0.448036 1.503482
v 0.626531 0.577276 1.309010
v 0.655899 0.553160 1.433240
v 0.655899 0.623402 1.328116
v 0.655899 0.623402 1.080112
v 0.655899 0.648068 1.204114
v 0.805679 0.648068 1.204114
v 0.655899 0.553160 0.974988
v 0.805679 0.623402 1.080112
v 0.655899 0.448036 0.904746
v 0.805679 0.553160 0.974988
v 0.655899 0.324034 0.880080
v 0.805679 0.448036 0.904746
v 0.655899 0.200032 0.904746
v 0.805679 0.324034 0.880080
v 0.655899 0.094908 0.974988
v 0.805679 0.200032 0.904746
v 0.655899 0.024666 1.080112
v 0.805679 0.094908 0.974988
v 0.655899 0.000000 1.204114
v 0.805679 0.024666 1.080112
v 0.655899 0.024666 1.328116
v 0.805679 0.000000 1.204114
v 0.655899 0.094908 1.433240
v 0.805679 0.024666 1.328116
v 0.655899 0.200032 1.503482
v 0.805679 0.094908 1.433240
v 0.655899 0.324034 1.528148
v 0.805679 0.200032 1.503482
v 0.655899 0.448036 1.503482
v 0.805679 0.324034 1.528148
v 0.655899 0.553160 1.433240
v 0.805679 0.448036 1.503482
v 0.655899 0.623402 1.328116
v 0.805679 0.553160 1.433240
v 0.805679 0.623402 1.328116
v 0.805679 0.623402 1.080112
v 0.805679 0.648068 1.204114
v 0.841901 0.539404 1.204114
v 0.805679 0.553160 0.974988
v 0.841901 0.523009 1.121696
v 0.841901 0.476324 1.051825
v 0.841901 0.406452 1.005138
v 0.805679 0.324034 0.880080
v 0.805679 0.448036 0.904746
v 0.805679 0.200032 0.904746
v 0.841901 0.324034 0.988744
v 0.805679 0.094908 0.974988
v 0.841901 0.241616 1.005138
v 0.805679 0.024666 1.080112
v 0.841901 0.171745 1.051825
v 0.805679 0.000000 1.204114
v 0.841901 0.125058 1.121696
v 0.805679 0.024666 1.328116
v 0.841901 0.108664 1.204114
v 0.805679 0.094908 1.433240
v 0.841901 0.125058 1.286532
v 0.841901 0.171745 1.356403
v 0.841901 0.241616 1.403090
v 0.805679 0.324034 1.528148
v 0.805679 0.200032 1.503482
v 0.805679 0.448036 1.503482
v 0.841901 0.324034 1.419484
v 0.805679 0.553160 1.433240
v 0.841901 0.406452 1.403090
v 0.805679 0.623402 1.328116
v 0.841901 0.476324 1.356403
v 0.841901 0.523009 1.286532
v 0.841901 0.125058 1.121696
v 0.841901 0.523009 1.286532
v 0.841901 0.241616 1.403090
v 0.841901 0.523009 1.121696
v 0.841901 0.539404 1.204114
v 0.841901 0.406452 1.005138
v 0.841901 0.476324 1.051825
v 0.841901 0.241616 1.005138
v 0.841901 0.324034 0.988744
v 0.841901 0.171745 1.051825
v 0.841901 0.125058 1.286532
v 0.841901 0.108664 1.204114
v 0.841901 0.171745 1.356403
v 0.841901 0.406452 1.403090
v 0.841901 0.324034 1.419484
v 0.841901 0.476324 1.356403
vt 0.218750 0.937500
vt 0.111181 0.374878
vt 0.011658 0.457326
vt 0.052882 0.656372
vt 0.082031 0.667969
vt 0.111181 0.656372
vt 0.135893 0.623348
vt 0.152405 0.573924
vt 0.158203 0.515625
vt 0.152405 0.457326
vt 0.135893 0.407902
vt 0.082031 0.363281
vt 0.052882 0.374878
vt 0.028170 0.407902
vt 0.005859 0.515625
vt 0.011658 0.573924
vt 0.028170 0.623348
vt 0.218750 0.937500
vt 0.111181 0.374878
vt 0.052882 0.656372
vt 0.011658 0.457326
vt 0.111181 0.656372
vt 0.082031 0.667969
vt 0.152405 0.573924
vt 0.135893 0.623348
vt 0.152405 0.457326
vt 0.158203 0.515625
vt 0.135893 0.407902
vt 0.052882 0.374878
vt 0.082031 0.363281
vt 0.028170 0.407902
vt 0.011658 0.573924
vt 0.005859 0.515625
vt 0.028170 0.623348
vn 0.956200 0.270500 -0.112000
vn 0.861900 0.507000 0.000000
vn 0.956200 0.292800 0.000000
vn 0.956200 0.207000 -0.207000
vn 0.861900 0.468400 -0.194000
vn 0.861900 0.194000 -0.468400
vn 0.861900 0.358500 -0.358500
vn 0.956200 0.000000 -0.292800
vn 0.956200 0.112000 -0.270500
vn 0.956200 -0.112000 -0.270500
vn 0.861900 0.000000 -0.507000
vn 0.956200 -0.207000 -0.207000
vn 0.861900 -0.194000 -0.468400
vn 0.956200 -0.270500 -0.112000
vn 0.861900 -0.358500 -0.358500
vn 0.956200 -0.292800 0.000000
vn 0.861900 -0.468400 -0.194000
vn 0.956200 -0.270500 0.112000
vn 0.861900 -0.507000 0.000000
vn 0.956200 -0.207000 0.207000
vn 0.861900 -0.468400 0.194000
vn 0.861900 -0.194000 0.468400
vn 0.861900 -0.358500 0.358500
vn 0.956200 0.000000 0.292800
vn 0.956200 -0.112000 0.270500
vn 0.956200 0.112000 0.270500
vn 0.861900 0.000000 0.507000
vn 0.956200 0.207000 0.207000
vn 0.861900 0.194000 0.468400
vn 0.956200 0.270500 0.112000
vn 0.861900 0.358500 0.358500
vn 0.861900 0.468400 0.194000
vn 0.000000 0.923900 -0.382700
vn 0.000000 1.000000 0.000000
vn 0.000000 0.707100 -0.707100
vn 0.000000 0.382700 -0.923900
vn 0.000000 0.000000 -1.000000
vn 0.000000 -0.382700 -0.923900
vn 0.000000 -0.707100 -0.707100
vn 0.000000 -0.923900 -0.382700
vn 0.000000 -1.000000 0.000000
vn 0.000000 -0.923900 0.382700
vn 0.000000 -0.707100 0.707100
vn 0.000000 -0.382700 0.923900
vn 0.000000 0.000000 1.000000
vn 0.000000 0.382700 0.923900
vn 0.000000 0.707100 0.707100
vn 0.000000 0.923900 0.382700
vn -0.948700 0.292200 -0.121000
vn -0.983700 0.179600 0.000000
vn -0.948700 0.316200 0.000000
vn -0.948700 0.223600 -0.223600
vn -0.983700 0.166000 -0.068700
vn -0.983700 0.068700 -0.165900
vn -0.983700 0.127000 -0.127000
vn -0.948700 0.000000 -0.316200
vn -0.948700 0.121000 -0.292200
vn -0.948700 -0.121000 -0.292200
vn -0.983700 0.000000 -0.179600
vn -0.948700 -0.223600 -0.223600
vn -0.983700 -0.068700 -0.166000
vn -0.948700 -0.292200 -0.121000
vn -0.983700 -0.127000 -0.127000
vn -0.948700 -0.316200 0.000000
vn -0.983700 -0.166000 -0.068700
vn -0.948700 -0.292200 0.121000
vn -0.983700 -0.179600 0.000000
vn -0.948700 -0.223600 0.223600
vn -0.983700 -0.166000 0.068700
vn -0.983700 -0.068700 0.165900
vn -0.983700 -0.127000 0.127000
vn -0.948700 0.000000 0.316200
vn -0.948700 -0.121000 0.292200
vn -0.948700 0.121000 0.292200
vn -0.983700 0.000000 0.179600
vn -0.948700 0.223600 0.223600
vn -0.983700 0.068700 0.166000
vn -0.948700 0.292200 0.121000
vn -0.983700 0.127000 0.127000
vn -0.983700 0.166000 0.068700
vn -0.983800 -0.165900 -0.068700
vn -0.983800 -0.068700 0.165900
vn -0.983800 0.165900 0.068700
vn -0.983800 0.165800 -0.068700
vn -0.983800 0.068700 -0.165900
vn -0.983800 -0.068700 -0.165800
vn -0.983800 -0.165800 0.068700
vn -0.983800 0.068700 0.165800
vn -0.956200 0.270500 -0.112000
vn -0.956200 0.292800 0.000000
vn -0.861900 0.507000 0.000000
vn -0.956200 0.207000 -0.207000
vn -0.861900 0.468400 -0.194000
vn -0.861900 0.358500 -0.358500
vn -0.861900 0.194000 -0.468400
vn -0.956200 0.000000 -0.292800
vn -0.956200 0.112000 -0.270500
vn -0.956200 -0.112000 -0.270500
vn -0.861900 0.000000 -0.507000
vn -0.956200 -0.207000 -0.207000
vn -0.861900 -0.194000 -0.468400
vn -0.956200 -0.270500 -0.112000
vn -0.861900 -0.358500 -0.358500
vn -0.956200 -0.292800 0.000000
vn -0.861900 -0.468400 -0.194000
vn -0.956200 -0.270500 0.112000
vn -0.861900 -0.507000 0.000000
vn -0.956200 -0.207000 0.207000
vn -0.861900 -0.468400 0.194000
vn -0.861900 -0.358500 0.358500
vn -0.861900 -0.194000 0.468400
vn -0.956200 0.000000 0.292800
vn -0.956200 -0.112000 0.270500
vn -0.956200 0.112000 0.270500
vn -0.861900 0.000000 0.507000
vn -0.956200 0.207000 0.207000
vn -0.861900 0.194000 0.468400
vn -0.956200 0.270500 0.112000
vn -0.861900 0.358500 0.358500
vn -0.861900 0.468400 0.194000
vn 0.000000 0.923900 -0.382700
vn 0.000000 1.000000 0.000000
vn 0.000000 0.707100 -0.707100
vn 0.000000 0.382700 -0.923900
vn 0.000000 0.000000 -1.000000
vn 0.000000 -0.382700 -0.923900
vn 0.000000 -0.707100 -0.707100
vn 0.000000 -0.923900 -0.382700
vn 0.000000 -1.000000 0.000000
vn 0.000000 -0.923900 0.382700
vn 0.000000 -0.707100 0.707100
vn 0.000000 -0.382700 0.923900
vn 0.000000 0.000000 1.000000
vn 0.000000 0.382700 0.923900
vn 0.000000 0.707100 0.707100
vn 0.000000 0.923900 0.382700
vn 0.948700 0.292200 -0.121000
vn 0.948700 0.316200 0.000000
vn 0.983700 0.179600 0.000000
vn 0.948700 0.223600 -0.223600
vn 0.983700 0.166000 -0.068700
vn 0.983700 0.127000 -0.127000
vn 0.983700 0.068700 -0.165900
vn 0.948700 0.000000 -0.316200
vn 0.948700 0.121000 -0.292200
vn 0.948700 -0.121000 -0.292200
vn 0.983700 0.000000 -0.179600
vn 0.948700 -0.223600 -0.223600
vn 0.983700 -0.068700 -0.166000
vn 0.948700 -0.292200 -0.121000
vn 0.983700 -0.127000 -0.127000
vn 0.948700 -0.316200 0.000000
vn 0.983700 -0.166000 -0.068700
vn 0.948700 -0.292200 0.121000
vn 0.983700 -0.179600 0.000000
vn 0.948700 -0.223600 0.223600
vn 0.983700 -0.166000 0.068700
vn 0.983700 -0.127000 0.127000
vn 0.983700 -0.068700 0.165900
vn 0.948700 0.000000 0.316200
vn 0.948700 -0.121000 0.292200
vn 0.948700 0.121000 0.292200
vn 0.983700 0.000000 0.179600
vn 0.948700 0.223600 0.223600
vn 0.983700 0.068700 0.166000
vn 0.948700 0.292200 0.121000
vn 0.983700 0.127000 0.127000
vn 0.983700 0.166000 0.068700
vn 0.983800 -0.165800 -0.068700
vn 0.983800 0.165800 0.068700
vn 0.983800 -0.068700 0.165800
vn 0.983800 0.165900 -0.068700
vn 0.983800 0.068700 -0.165800
vn 0.983800 -0.068700 -0.165900
vn 0.983800 -0.165900 0.068700
vn 0.983800 0.068700 0.165900
o rx7_fd_93_wheels_r
usemtl rx7_fd_93_wheels_r
f 1/1/1 2/1/2 3/1/3
f 4/1/4 5/1/5 1/1/1
f 4/1/4 6/1/6 7/1/7
f 8/1/8 6/1/6 9/1/9
f 10/1/10 11/1/11 8/1/8
f 12/1/12 13/1/13 10/1/10
f 14/1/14 15/1/15 12/1/12
f 16/1/16 17/1/17 14/1/14
f 18/1/18 19/1/19 16/1/16
f 20/1/20 21/1/21 18/1/18
f 20/1/20 22/1/22 23/1/23
f 24/1/24 22/1/22 25/1/25
f 26/1/26 27/1/27 24/1/24
f 28/1/28 29/1/29 26/1/26
f 30/1/30 31/1/31 28/1/28
f 3/1/3 32/1/32 30/1/30
f 33/1/33 34/1/34 35/1/34
f 36/1/35 37/1/33 33/1/33
f 38/1/36 39/1/35 36/1/35
f 40/1/37 41/1/36 38/1/36
f 42/1/38 43/1/37 40/1/37
f 44/1/39 45/1/38 42/1/38
f 46/1/40 47/1/39 44/1/39
f 48/1/41 49/1/40 46/1/40
f 50/1/42 51/1/41 48/1/41
f 52/1/43 53/1/42 50/1/42
f 54/1/44 55/1/43 52/1/43
f 56/1/45 57/1/44 54/1/44
f 58/1/46 59/1/45 56/1/45
f 60/1/47 61/1/46 58/1/46
f 62/1/48 63/1/47 60/1/47
f 35/1/34 64/1/48 62/1/48
f 65/1/49 66/1/50 67/1/51
f 68/1/52 69/1/53 65/1/49
f 68/1/52 70/1/54 71/1/55
f 72/1/56 70/1/54 73/1/57
f 74/1/58 75/1/59 72/1/56
f 76/1/60 77/1/61 74/1/58
f 78/1/62 79/1/63 76/1/60
f 80/1/64 81/1/65 78/1/62
f 82/1/66 83/1/67 80/1/64
f 84/1/68 85/1/69 82/1/66
f 84/1/68 86/1/70 87/1/71
f 88/1/72 86/1/70 89/1/73
f 90/1/74 91/1/75 88/1/72
f 92/1/76 93/1/77 90/1/74
f 94/1/78 95/1/79 92/1/76
f 67/1/51 96/1/80 94/1/78
f 16/1/16 8/1/8 3/1/3
f 97/2/81 98/3/82 99/4/83
f 1/1/1 5/1/5 2/1/2
f 4/1/4 7/1/7 5/1/5
f 4/1/4 9/1/9 6/1/6
f 8/1/8 11/1/11 6/1/6
f 10/1/10 13/1/13 11/1/11
f 12/1/12 15/1/15 13/1/13
f 14/1/14 17/1/17 15/1/15
f 16/1/16 19/1/19 17/1/17
f 18/1/18 21/1/21 19/1/19
f 20/1/20 23/1/23 21/1/21
f 20/1/20 25/1/25 22/1/22
f 24/1/24 27/1/27 22/1/22
f 26/1/26 29/1/29 27/1/27
f 28/1/28 31/1/31 29/1/29
f 30/1/30 32/1/32 31/1/31
f 3/1/3 2/1/2 32/1/32
f 33/1/33 37/1/33 34/1/34
f 36/1/35 39/1/35 37/1/33
f 38/1/36 41/1/36 39/1/35
f 40/1/37 43/1/37 41/1/36
f 42/1/38 45/1/38 43/1/37
f 44/1/39 47/1/39 45/1/38
f 46/1/40 49/1/40 47/1/39
f 48/1/41 51/1/41 49/1/40
f 50/1/42 53/1/42 51/1/41
f 52/1/43 55/1/43 53/1/42
f 54/1/44 57/1/44 55/1/43
f 56/1/45 59/1/45 57/1/44
f 58/1/46 61/1/46 59/1/45
f 60/1/47 63/1/47 61/1/46
f 62/1/48 64/1/48 63/1/47
f 35/1/34 34/1/34 64/1/48
f 65/1/49 69/1/53 66/1/50
f 68/1/52 71/1/55 69/1/53
f 68/1/52 73/1/57 70/1/54
f 72/1/56 75/1/59 70/1/54
f 74/1/58 77/1/61 75/1/59
f 76/1/60 79/1/63 77/1/61
f 78/1/62 81/1/65 79/1/63
f 80/1/64 83/1/67 81/1/65
f 82/1/66 85/1/69 83/1/67
f 84/1/68 87/1/71 85/1/69
f 84/1/68 89/1/73 86/1/70
f 88/1/72 91/1/75 86/1/70
f 90/1/74 93/1/77 91/1/75
f 92/1/76 95/1/79 93/1/77
f 94/1/78 96/1/80 95/1/79
f 67/1/51 66/1/50 96/1/80
f 3/1/3 30/1/30 28/1/28
f 28/1/28 26/1/26 24/1/24
f 24/1/24 25/1/25 20/1/20
f 20/1/20 18/1/18 16/1/16
f 16/1/16 14/1/14 12/1/12
f 12/1/12 10/1/10 8/1/8
f 8/1/8 9/1/9 4/1/4
f 4/1/4 1/1/1 3/1/3
f 3/1/3 28/1/28 24/1/24
f 24/1/24 20/1/20 16/1/16
f 16/1/16 12/1/12 8/1/8
f 8/1/8 4/1/4 3/1/3
f 3/1/3 24/1/24 16/1/16
f 99/4/83 100/5/50 101/6/84
f 101/6/84 102/7/55 103/8/85
f 103/8/85 104/9/59 105/10/86
f 105/10/86 106/11/63 97/2/81
f 97/2/81 107/12/67 108/13/87
f 108/13/87 109/14/71 98/3/82
f 98/3/82 110/15/75 111/16/88
f 111/16/88 112/17/79 99/4/83
f 99/4/83 101/6/84 103/8/85
f 103/8/85 105/10/86 97/2/81
f 97/2/81 108/13/87 98/3/82
f 98/3/82 111/16/88 99/4/83
f 99/4/83 103/8/85 97/2/81
f 113/18/89 114/18/90 115/18/91
f 116/18/92 113/18/89 117/18/93
f 116/18/92 118/18/94 119/18/95
f 120/18/96 121/18/97 119/18/95
f 122/18/98 120/18/96 123/18/99
f 124/18/100 122/18/98 125/18/101
f 126/18/102 124/18/100 127/18/103
f 128/18/104 126/18/102 129/18/105
f 130/18/106 128/18/104 131/18/107
f 132/18/108 130/18/106 133/18/109
f 132/18/108 134/18/110 135/18/111
f 136/18/112 137/18/113 135/18/111
f 138/18/114 136/18/112 139/18/115
f 140/18/116 138/18/114 141/18/117
f 142/18/118 140/18/116 143/18/119
f 114/18/90 142/18/118 144/18/120
f 145/18/121 146/18/122 147/18/122
f 148/18/123 145/18/121 149/18/121
f 150/18/124 148/18/123 151/18/123
f 152/18/125 150/18/124 153/18/124
f 154/18/126 152/18/125 155/18/125
f 156/18/127 154/18/126 157/18/126
f 158/18/128 156/18/127 159/18/127
f 160/18/129 158/18/128 161/18/128
f 162/18/130 160/18/129 163/18/129
f 164/18/131 162/18/130 165/18/130
f 166/18/132 164/18/131 167/18/131
f 168/18/133 166/18/132 169/18/132
f 170/18/134 168/18/133 171/18/133
f 172/18/135 170/18/134 173/18/134
f 174/18/136 172/18/135 175/18/135
f 146/18/122 174/18/136 176/18/136
f 177/18/137 178/18/138 179/18/139
f 180/18/140 177/18/137 181/18/141
f 180/18/140 182/18/142 183/18/143
f 184/18/144 185/18/145 183/18/143
f 186/18/146 184/18/144 187/18/147
f 188/18/148 186/18/146 189/18/149
f 190/18/150 188/18/148 191/18/151
f 192/18/152 190/18/150 193/18/153
f 194/18/154 192/18/152 195/18/155
f 196/18/156 194/18/154 197/18/157
f 196/18/156 198/18/158 199/18/159
f 200/18/160 201/18/161 199/18/159
f 202/18/162 200/18/160 203/18/163
f 204/18/164 202/18/162 205/18/165
f 206/18/166 204/18/164 207/18/167
f 178/18/138 206/18/166 208/18/168
f 128/18/104 114/18/90 120/18/96
f 209/19/169 210/20/170 211/21/171
f 113/18/89 115/18/91 117/18/93
f 116/18/92 117/18/93 118/18/94
f 116/18/92 119/18/95 121/18/97
f 120/18/96 119/18/95 123/18/99
f 122/18/98 123/18/99 125/18/101
f 124/18/100 125/18/101 127/18/103
f 126/18/102 127/18/103 129/18/105
f 128/18/104 129/18/105 131/18/107
f 130/18/106 131/18/107 133/18/109
f 132/18/108 133/18/109 134/18/110
f 132/18/108 135/18/111 137/18/113
f 136/18/112 135/18/111 139/18/115
f 138/18/114 139/18/115 141/18/117
f 140/18/116 141/18/117 143/18/119
f 142/18/118 143/18/119 144/18/120
f 114/18/90 144/18/120 115/18/91
f 145/18/121 147/18/122 149/18/121
f 148/18/123 149/18/121 151/18/123
f 150/18/124 151/18/123 153/18/124
f 152/18/125 153/18/124 155/18/125
f 154/18/126 155/18/125 157/18/126
f 156/18/127 157/18/126 159/18/127
f 158/18/128 159/18/127 161/18/128
f 160/18/129 161/18/128 163/18/129
f 162/18/130 163/18/129 165/18/130
f 164/18/131 165/18/130 167/18/131
f 166/18/132 167/18/131 169/18/132
f 168/18/133 169/18/132 171/18/133
f 170/18/134 171/18/133 173/18/134
f 172/18/135 173/18/134 175/18/135
f 174/18/136 175/18/135 176/18/136
f 146/18/122 176/18/136 147/18/122
f 177/18/137 179/18/139 181/18/141
f 180/18/140 181/18/141 182/18/142
f 180/18/140 183/18/143 185/18/145
f 184/18/144 183/18/143 187/18/147
f 186/18/146 187/18/147 189/18/149
f 188/18/148 189/18/149 191/18/151
f 190/18/150 191/18/151 193/18/153
f 192/18/152 193/18/153 195/18/155
f 194/18/154 195/18/155 197/18/157
f 196/18/156 197/18/157 198/18/158
f 196/18/156 199/18/159 201/18/161
f 200/18/160 199/18/159 203/18/163
f 202/18/162 203/18/163 205/18/165
f 204/18/164 205/18/165 207/18/167
f 206/18/166 207/18/167 208/18/168
f 178/18/138 208/18/168 179/18/139
f 114/18/90 140/18/116 142/18/118
f 140/18/116 136/18/112 138/18/114
f 136/18/112 132/18/108 137/18/113
f 132/18/108 128/18/104 130/18/106
f 128/18/104 124/18/100 126/18/102
f 124/18/100 120/18/96 122/18/98
f 120/18/96 116/18/92 121/18/97
f 116/18/92 114/18/90 113/18/89
f 114/18/90 136/18/112 140/18/116
f 136/18/112 128/18/104 132/18/108
f 128/18/104 120/18/96 124/18/100
f 120/18/96 114/18/90 116/18/92
f 114/18/90 128/18/104 136/18/112
f 210/20/170 212/22/172 213/23/139
f 212/22/172 214/24/173 215/25/142
f 214/24/173 216/26/174 217/27/147
f 216/26/174 209/19/169 218/28/151
f 209/19/169 219/29/175 220/30/155
f 219/29/175 211/21/171 221/31/158
f 211/21/171 222/32/176 223/33/163
f 222/32/176 210/20/170 224/34/167
f 210/20/170 214/24/173 212/22/172
f 214/24/173 209/19/169 216/26/174
f 209/19/169 211/21/171 219/29/175
f 211/21/171 210/20/170 222/32/176
f 210/20/170 209/19/169 214/24/173
