# PSX Racing car model — generated by tools/carmodels/export_models.mjs
mtllib crown_victoria_wheels_r.mtl
v -0.934722 0.621541 1.499406
v -0.934722 0.636779 1.449171
v -0.912014 0.626090 1.447045
v -0.912014 0.611471 1.495235
v -0.912015 0.275831 1.634262
v -0.912015 0.324021 1.648880
v -0.912015 0.374138 1.653817
v -0.912015 0.424254 1.648880
v -0.912015 0.472445 1.634262
v -0.912015 0.516857 1.610523
v -0.912014 0.555785 1.578576
v -0.912014 0.587732 1.539648
v -0.912014 0.631026 1.396928
v -0.912014 0.626090 1.346812
v -0.912014 0.611471 1.298621
v -0.912014 0.587732 1.254209
v -0.912014 0.555785 1.215281
v -0.912015 0.516857 1.183334
v -0.912015 0.472445 1.159595
v -0.912015 0.424254 1.144976
v -0.912015 0.374138 1.140040
v -0.912015 0.324021 1.144976
v -0.912015 0.275831 1.159595
v -0.912015 0.231418 1.183334
v -0.912015 0.192490 1.215281
v -0.912015 0.160543 1.254209
v -0.912015 0.136804 1.298621
v -0.912015 0.122186 1.346812
v -0.912015 0.117250 1.396928
v -0.912015 0.122186 1.447045
v -0.912015 0.136804 1.495235
v -0.912015 0.160543 1.539648
v -0.912015 0.192490 1.578576
v -0.912015 0.231418 1.610523
v -0.934722 0.225363 1.174272
v -0.934722 0.184784 1.207574
v -0.934722 0.596794 1.545703
v -0.934722 0.271660 1.149526
v -0.934722 0.321895 1.659570
v -0.934722 0.374138 1.664715
v -0.934722 0.563492 1.586282
v -0.934722 0.321895 1.134287
v -0.934722 0.271660 1.644331
v -0.934722 0.522912 1.619585
v -0.934722 0.374138 1.129141
v -0.934722 0.225363 1.619585
v -0.934722 0.476615 1.644331
v -0.934722 0.426380 1.134287
v -0.934722 0.184784 1.586282
v -0.934722 0.426380 1.659570
v -0.934722 0.476615 1.149526
v -0.934722 0.151481 1.545703
v -0.934722 0.522912 1.174272
v -0.934722 0.126735 1.499406
v -0.934722 0.563492 1.207574
v -0.934722 0.111496 1.449171
v -0.934722 0.596794 1.248154
v -0.934722 0.106351 1.396928
v -0.934722 0.621541 1.294451
v -0.934722 0.111496 1.344686
v -0.934722 0.636779 1.344686
v -0.934722 0.126735 1.294451
v -0.934722 0.641925 1.396928
v -0.934722 0.151481 1.248154
v -0.670348 0.374138 1.771066
v -0.934722 0.374138 1.771066
v -0.934722 0.301147 1.763877
v -0.670348 0.301147 1.763877
v -0.934722 0.230961 1.742587
v -0.670348 0.230961 1.742587
v -0.934722 0.166278 1.708012
v -0.670348 0.166278 1.708013
v -0.934722 0.109582 1.661484
v -0.670348 0.109582 1.661484
v -0.934722 0.063054 1.604788
v -0.670348 0.063054 1.604788
v -0.934722 0.028480 1.540105
v -0.670348 0.028480 1.540105
v -0.934722 0.007189 1.469919
v -0.670348 0.007189 1.469919
v -0.934722 0.000000 1.396928
v -0.670348 0.000000 1.396929
v -0.934722 0.007189 1.323938
v -0.670348 0.007189 1.323938
v -0.934722 0.028480 1.253752
v -0.670348 0.028480 1.253752
v -0.934722 0.063054 1.189069
v -0.670348 0.063054 1.189069
v -0.934722 0.109582 1.132373
v -0.670348 0.109582 1.132373
v -0.934722 0.166278 1.085844
v -0.670348 0.166278 1.085845
v -0.934722 0.230961 1.051270
v -0.670348 0.230961 1.051270
v -0.934722 0.301147 1.029980
v -0.670348 0.301147 1.029980
v -0.934722 0.374138 1.022791
v -0.670348 0.374138 1.022791
v -0.934722 0.447128 1.029980
v -0.670348 0.447128 1.029980
v -0.934722 0.517314 1.051270
v -0.670348 0.517314 1.051270
v -0.934722 0.581998 1.085844
v -0.670348 0.581998 1.085845
v -0.934722 0.638693 1.132373
v -0.670348 0.638693 1.132373
v -0.934722 0.685222 1.189069
v -0.670348 0.685222 1.189069
v -0.934722 0.719796 1.253752
v -0.670348 0.719796 1.253752
v -0.934722 0.741086 1.323938
v -0.670348 0.741086 1.323938
v -0.934722 0.748275 1.396928
v -0.670348 0.748275 1.396929
v -0.934722 0.741086 1.469919
v -0.670348 0.741086 1.469919
v -0.934722 0.719796 1.540105
v -0.670348 0.719796 1.540105
v -0.934722 0.685222 1.604788
v -0.670348 0.685222 1.604788
v -0.934722 0.638693 1.661484
v -0.670348 0.638693 1.661484
v -0.934722 0.581998 1.708012
v -0.670348 0.581998 1.708013
v -0.934722 0.517314 1.742587
v -0.670348 0.517314 1.742587
v -0.934722 0.447128 1.763877
v -0.670348 0.447128 1.763877
v 0.934721 0.621541 1.294451
v 0.934721 0.636779 1.344686
v 0.912014 0.626090 1.346812
v 0.912014 0.611471 1.298622
v 0.912014 0.275831 1.159595
v 0.912014 0.324021 1.144976
v 0.912014 0.374138 1.140040
v 0.912014 0.424254 1.144976
v 0.912014 0.472445 1.159595
v 0.912014 0.516857 1.183334
v 0.912014 0.555785 1.215281
v 0.912014 0.587732 1.254209
v 0.912014 0.631026 1.396929
v 0.912014 0.626090 1.447045
v 0.912014 0.611471 1.495235
v 0.912014 0.587732 1.539648
v 0.912014 0.555785 1.578576
v 0.912014 0.516857 1.610523
v 0.912014 0.472445 1.634262
v 0.912014 0.424254 1.648881
v 0.912014 0.374138 1.653817
v 0.912014 0.324021 1.648881
v 0.912014 0.275831 1.634262
v 0.912014 0.231418 1.610523
v 0.912014 0.192490 1.578576
v 0.912014 0.160543 1.539648
v 0.912014 0.136804 1.495235
v 0.912014 0.122186 1.447045
v 0.912014 0.117250 1.396929
v 0.912014 0.122186 1.346812
v 0.912014 0.136804 1.298622
v 0.912014 0.160543 1.254209
v 0.912014 0.192490 1.215281
v 0.912014 0.231418 1.183334
v 0.934721 0.225363 1.619585
v 0.934721 0.184784 1.586282
v 0.934721 0.596794 1.248154
v 0.934721 0.271660 1.644331
v 0.934721 0.321895 1.134287
v 0.934721 0.374138 1.129142
v 0.934721 0.563492 1.207575
v 0.934721 0.321895 1.659570
v 0.934721 0.271660 1.149526
v 0.934721 0.522912 1.174272
v 0.934721 0.374138 1.664716
v 0.934721 0.225363 1.174272
v 0.934721 0.476615 1.149526
v 0.934721 0.426380 1.659570
v 0.934721 0.184784 1.207575
v 0.934721 0.426380 1.134287
v 0.934721 0.476615 1.644331
v 0.934721 0.151481 1.248154
v 0.934721 0.522912 1.619585
v 0.934721 0.126735 1.294451
v 0.934721 0.563492 1.586282
v 0.934721 0.111496 1.344686
v 0.934721 0.596794 1.545703
v 0.934721 0.106351 1.396929
v 0.934721 0.621541 1.499406
v 0.934721 0.111496 1.449171
v 0.934721 0.636779 1.449171
v 0.934721 0.126735 1.499406
v 0.934721 0.641925 1.396929
v 0.934721 0.151481 1.545703
v 0.670348 0.374138 1.022791
v 0.934721 0.374138 1.022791
v 0.934721 0.301147 1.029980
v 0.670348 0.301147 1.029980
v 0.934721 0.230961 1.051270
v 0.670348 0.230961 1.051270
v 0.934721 0.166278 1.085845
v 0.670348 0.166278 1.085845
v 0.934721 0.109582 1.132373
v 0.670348 0.109582 1.132373
v 0.934721 0.063054 1.189069
v 0.670348 0.063054 1.189069
v 0.934721 0.028480 1.253752
v 0.670348 0.028480 1.253752
v 0.934721 0.007189 1.323938
v 0.670348 0.007189 1.323938
v 0.934721 0.000000 1.396929
v 0.670348 0.000000 1.396929
v 0.934721 0.007189 1.469919
v 0.670348 0.007189 1.469919
v 0.934721 0.028480 1.540105
v 0.670348 0.028480 1.540105
v 0.934721 0.063054 1.604788
v 0.670348 0.063054 1.604788
v 0.934721 0.109582 1.661484
v 0.670348 0.109582 1.661484
v 0.934721 0.166278 1.708013
v 0.670348 0.166278 1.708013
v 0.934721 0.230961 1.742587
v 0.670348 0.230961 1.742587
v 0.934721 0.301147 1.763878
v 0.670348 0.301147 1.763877
v 0.934721 0.374138 1.771066
v 0.670348 0.374138 1.771066
v 0.934722 0.447128 1.763878
v 0.670348 0.447128 1.763877
v 0.934721 0.517314 1.742587
v 0.670348 0.517314 1.742587
v 0.934721 0.581998 1.708013
v 0.670348 0.581998 1.708013
v 0.934721 0.638693 1.661484
v 0.670348 0.638693 1.661484
v 0.934721 0.685222 1.604788
v 0.670348 0.685222 1.604788
v 0.934721 0.719796 1.540105
v 0.670348 0.719796 1.540105
v 0.934721 0.741086 1.469919
v 0.670348 0.741086 1.469919
v 0.934721 0.748275 1.396929
v 0.670348 0.748275 1.396929
v 0.934721 0.741086 1.323938
v 0.670348 0.741086 1.323938
v 0.934721 0.719796 1.253752
v 0.670348 0.719796 1.253752
v 0.934721 0.685222 1.189069
v 0.670348 0.685222 1.189069
v 0.934721 0.638693 1.132373
v 0.670348 0.638693 1.132373
v 0.934721 0.581998 1.085845
v 0.670348 0.581998 1.085845
v 0.934721 0.517314 1.051270
v 0.670348 0.517314 1.051270
v 0.934721 0.447128 1.029980
v 0.670348 0.447128 1.029980
vt 0.458295 0.696547
vt 0.459461 0.690226
vt 0.462674 0.690895
vt 0.461555 0.696960
vt 0.644931 0.877660
vt 0.650397 0.874013
vt 0.656471 0.871501
vt 0.662918 0.870221
vt 0.669492 0.870221
vt 0.675939 0.871501
vt 0.682013 0.874013
vt 0.687478 0.877660
vt 0.692127 0.882302
vt 0.695779 0.887760
vt 0.698295 0.893824
vt 0.699577 0.900263
vt 0.699577 0.906827
vt 0.698295 0.913265
vt 0.695779 0.919329
vt 0.692127 0.924787
vt 0.687478 0.929429
vt 0.682013 0.933076
vt 0.675939 0.935588
vt 0.669492 0.936869
vt 0.662918 0.936869
vt 0.656471 0.935588
vt 0.650397 0.933076
vt 0.644931 0.929429
vt 0.640283 0.924787
vt 0.636631 0.919329
vt 0.634115 0.913265
vt 0.632833 0.906827
vt 0.632833 0.900263
vt 0.634115 0.893824
vt 0.636631 0.887760
vt 0.640283 0.882302
vt 0.901176 0.416672
vt 0.901770 0.423383
vt 0.898486 0.423522
vt 0.897915 0.417084
vt 0.457700 0.703259
vt 0.460985 0.703398
vt 0.900009 0.410350
vt 0.896796 0.411020
vt 0.888257 0.226568
vt 0.888257 0.219857
vt 0.891221 0.219718
vt 0.891221 0.226156
vt 0.457700 0.710101
vt 0.460985 0.709962
vt 0.899761 0.464425
vt 0.899761 0.471136
vt 0.896796 0.470723
vt 0.896796 0.464285
vt 0.236537 0.893241
vt 0.237703 0.886919
vt 0.240916 0.887588
vt 0.239797 0.893653
vt 0.458295 0.716813
vt 0.461555 0.716400
vt 0.899761 0.457582
vt 0.896796 0.457721
vt 0.235942 0.899952
vt 0.239226 0.900091
vt 0.459461 0.723135
vt 0.462674 0.722465
vt 0.899761 0.450871
vt 0.896796 0.451283
vt 0.235942 0.906794
vt 0.239226 0.906655
vt 0.888257 0.213014
vt 0.888257 0.206303
vt 0.891221 0.206716
vt 0.891221 0.213154
vt 0.355937 0.892454
vt 0.354770 0.898776
vt 0.351557 0.898107
vt 0.352676 0.892042
vt 0.236537 0.913506
vt 0.239797 0.913093
vt 0.356531 0.885743
vt 0.353247 0.885604
vt 0.237703 0.919828
vt 0.240916 0.919158
vt 0.356531 0.878900
vt 0.353247 0.879040
vt 0.865703 0.631492
vt 0.865703 0.624781
vt 0.868668 0.625193
vt 0.868668 0.631631
vt 0.355937 0.872189
vt 0.352676 0.872602
vt 0.865703 0.638335
vt 0.868668 0.638196
vt 0.354770 0.865867
vt 0.351557 0.866537
vt 0.865703 0.645046
vt 0.868668 0.644634
vt 0.609356 0.772453
vt 0.609356 0.779165
vt 0.606392 0.778752
vt 0.606392 0.772314
vt 0.901176 0.436937
vt 0.900009 0.443259
vt 0.896796 0.442589
vt 0.897915 0.436525
vt 0.609356 0.765611
vt 0.606392 0.765750
vt 0.901770 0.430226
vt 0.898486 0.430086
vt 0.609356 0.758899
vt 0.606392 0.759312
vt 0.938103 0.765635
vt 0.972614 0.765635
vt 0.972614 0.775011
vt 0.938103 0.775011
vt 0.972614 0.783844
vt 0.938103 0.783844
vt 0.948519 0.976017
vt 0.948519 0.945152
vt 0.957909 0.945982
vt 0.957909 0.976846
vt 0.967483 0.945982
vt 0.967483 0.976846
vt 0.976874 0.945152
vt 0.976874 0.976017
vt 0.078924 0.941739
vt 0.113435 0.941739
vt 0.113435 0.950572
vt 0.078924 0.950572
vt 0.113435 0.959948
vt 0.078924 0.959948
vt 0.113435 0.969509
vt 0.078924 0.969509
vt 0.113435 0.978885
vt 0.078924 0.978885
vt 0.113435 0.987718
vt 0.078924 0.987718
vt 0.800881 0.999170
vt 0.800881 0.968306
vt 0.810271 0.969135
vt 0.810271 1.000000
vt 0.819845 0.969135
vt 0.819845 1.000000
vt 0.829235 0.968306
vt 0.829235 0.999170
vt 0.741711 0.985688
vt 0.707200 0.985688
vt 0.707200 0.976855
vt 0.741711 0.976855
vt 0.707200 0.967479
vt 0.741711 0.967479
vt 0.707200 0.957919
vt 0.741711 0.957919
vt 0.707200 0.948542
vt 0.741711 0.948542
vt 0.707200 0.939709
vt 0.741711 0.939709
vt 1.000000 0.869126
vt 1.000000 0.899991
vt 0.990610 0.899161
vt 0.990610 0.868297
vt 0.981036 0.899161
vt 0.981036 0.868297
vt 0.971645 0.899991
vt 0.971645 0.869126
vt 0.974261 0.646980
vt 0.939750 0.646980
vt 0.939750 0.638147
vt 0.974261 0.638147
vt 0.939750 0.628770
vt 0.974261 0.628770
vt 0.939750 0.619210
vt 0.974261 0.619210
vt 0.939750 0.609833
vt 0.974261 0.609833
vt 0.939750 0.601001
vt 0.974261 0.601001
vt 0.829235 0.929829
vt 0.829235 0.960694
vt 0.819845 0.959864
vt 0.819845 0.929000
vt 0.810271 0.959864
vt 0.810271 0.929000
vt 0.800881 0.960694
vt 0.800881 0.929829
vt 0.938103 0.737865
vt 0.972614 0.737865
vt 0.972614 0.746698
vt 0.938103 0.746698
vt 0.972614 0.756074
vt 0.938103 0.756074
vt 0.158222 0.701935
vt 0.167613 0.703800
vt 0.176458 0.707459
vt 0.184419 0.712770
vt 0.191189 0.719530
vt 0.196508 0.727479
vt 0.200172 0.736312
vt 0.202039 0.745688
vt 0.202039 0.755249
vt 0.200172 0.764625
vt 0.196508 0.773458
vt 0.191189 0.781407
vt 0.184419 0.788167
vt 0.176458 0.793479
vt 0.167613 0.797137
vt 0.158222 0.799002
vt 0.148648 0.799002
vt 0.139258 0.797137
vt 0.130413 0.793479
vt 0.122452 0.788167
vt 0.115682 0.781407
vt 0.110363 0.773458
vt 0.106699 0.764625
vt 0.104831 0.755249
vt 0.104831 0.745688
vt 0.106699 0.736312
vt 0.110363 0.727479
vt 0.115682 0.719530
vt 0.122452 0.712770
vt 0.130413 0.707459
vt 0.139258 0.703800
vt 0.148648 0.701935
vt 0.293853 0.724419
vt 0.287522 0.727038
vt 0.280977 0.714812
vt 0.289823 0.711153
vt 0.281824 0.730839
vt 0.273017 0.720123
vt 0.276978 0.735678
vt 0.266247 0.726884
vt 0.273171 0.741367
vt 0.260928 0.734833
vt 0.270549 0.747689
vt 0.257264 0.743665
vt 0.269212 0.754401
vt 0.255396 0.753042
vt 0.269212 0.761243
vt 0.255396 0.762602
vt 0.270549 0.767955
vt 0.257264 0.771979
vt 0.273171 0.774276
vt 0.260928 0.780811
vt 0.276978 0.779966
vt 0.266247 0.788760
vt 0.281824 0.784805
vt 0.273017 0.795521
vt 0.287522 0.788606
vt 0.280977 0.800832
vt 0.293853 0.791225
vt 0.289823 0.804491
vt 0.300574 0.792560
vt 0.299213 0.806356
vt 0.307426 0.792560
vt 0.308787 0.806356
vt 0.314147 0.791225
vt 0.318177 0.804491
vt 0.320478 0.788606
vt 0.327023 0.800832
vt 0.326176 0.784805
vt 0.334983 0.795521
vt 0.331022 0.779966
vt 0.341753 0.788760
vt 0.334829 0.774276
vt 0.347073 0.780811
vt 0.337451 0.767955
vt 0.350736 0.771979
vt 0.338788 0.761243
vt 0.352604 0.762602
vt 0.338788 0.754401
vt 0.352604 0.753042
vt 0.337451 0.747689
vt 0.350736 0.743665
vt 0.334829 0.741368
vt 0.347073 0.734833
vt 0.331022 0.735678
vt 0.341753 0.726884
vt 0.326176 0.730839
vt 0.334983 0.720123
vt 0.320479 0.727038
vt 0.327023 0.714812
vt 0.314147 0.724419
vt 0.318177 0.711153
vt 0.307426 0.723084
vt 0.308787 0.709288
vt 0.300574 0.723084
vt 0.299213 0.709288
vt 0.608628 0.939039
vt 0.608628 0.932717
vt 0.611592 0.933387
vt 0.611592 0.939451
vt 0.892055 0.149583
vt 0.895707 0.144125
vt 0.900355 0.139483
vt 0.905821 0.135836
vt 0.911895 0.133324
vt 0.918342 0.132044
vt 0.924916 0.132044
vt 0.931363 0.133324
vt 0.937437 0.135836
vt 0.942903 0.139483
vt 0.947551 0.144125
vt 0.951203 0.149583
vt 0.953719 0.155647
vt 0.955001 0.162085
vt 0.955001 0.168650
vt 0.953719 0.175088
vt 0.951203 0.181152
vt 0.947551 0.186610
vt 0.942903 0.191252
vt 0.937437 0.194899
vt 0.931363 0.197411
vt 0.924916 0.198691
vt 0.918342 0.198691
vt 0.911895 0.197411
vt 0.905821 0.194899
vt 0.900355 0.191252
vt 0.895707 0.186610
vt 0.892055 0.181152
vt 0.889539 0.175088
vt 0.888257 0.168650
vt 0.888257 0.162085
vt 0.889539 0.155647
vt 0.601005 0.952593
vt 0.601005 0.959304
vt 0.598041 0.958892
vt 0.598041 0.952454
vt 0.608628 0.945750
vt 0.611592 0.945889
vt 0.601005 0.945750
vt 0.598041 0.945890
vt 0.837261 0.650346
vt 0.837261 0.643503
vt 0.840546 0.643643
vt 0.840546 0.650207
vt 0.608628 0.952593
vt 0.611592 0.952454
vt 0.601005 0.939039
vt 0.598041 0.939451
vt 0.837856 0.657057
vt 0.841116 0.656645
vt 0.608628 0.959304
vt 0.611592 0.958892
vt 0.601005 0.932717
vt 0.598041 0.933387
vt 0.839022 0.663379
vt 0.842235 0.662710
vt 0.839022 0.630470
vt 0.840715 0.624781
vt 0.843859 0.625682
vt 0.842235 0.631140
vt 0.601005 0.927028
vt 0.598041 0.927929
vt 0.840715 0.669069
vt 0.843859 0.668168
vt 0.837856 0.636792
vt 0.841116 0.637205
vt 0.889174 0.460327
vt 0.889174 0.466017
vt 0.886209 0.465116
vt 0.886209 0.459658
vt 0.876290 0.631492
vt 0.876290 0.624781
vt 0.879255 0.625193
vt 0.879255 0.631631
vt 0.889174 0.454006
vt 0.886209 0.453593
vt 0.876290 0.638335
vt 0.879255 0.638196
vt 0.889174 0.447294
vt 0.886209 0.447155
vt 0.876290 0.645046
vt 0.879255 0.644634
vt 0.889174 0.440452
vt 0.886209 0.440591
vt 0.901176 0.396416
vt 0.900009 0.402738
vt 0.896796 0.402068
vt 0.897915 0.396004
vt 0.889174 0.433740
vt 0.886209 0.434153
vt 0.901770 0.389705
vt 0.898486 0.389566
vt 0.889174 0.427418
vt 0.886209 0.428088
vt 0.901770 0.382862
vt 0.898486 0.383001
vt 0.889174 0.421729
vt 0.886209 0.422630
vt 0.901176 0.376151
vt 0.897915 0.376563
vt 0.608628 0.927028
vt 0.611592 0.927929
vt 0.900009 0.369829
vt 0.896796 0.370499
vt 0.000000 0.977702
vt 0.034511 0.977702
vt 0.034511 0.985652
vt 0.000000 0.985652
vt 0.707200 0.870221
vt 0.741711 0.870221
vt 0.741711 0.878170
vt 0.707200 0.878170
vt 0.741711 0.887002
vt 0.707200 0.887002
vt 0.741711 0.896379
vt 0.707200 0.896379
vt 0.741711 0.905939
vt 0.707200 0.905939
vt 0.741711 0.915316
vt 0.707200 0.915316
vt 0.741711 0.924148
vt 0.707200 0.924148
vt 0.741711 0.932098
vt 0.707200 0.932097
vt 0.974261 0.593389
vt 0.939750 0.593389
vt 0.939750 0.585440
vt 0.974261 0.585440
vt 0.939750 0.576607
vt 0.974261 0.576607
vt 0.939750 0.567231
vt 0.974261 0.567231
vt 0.939750 0.557671
vt 0.974261 0.557671
vt 0.939750 0.548294
vt 0.974261 0.548294
vt 0.939750 0.539461
vt 0.974261 0.539461
vt 0.939750 0.531512
vt 0.974261 0.531512
vt 0.940896 0.945982
vt 0.940896 0.976846
vt 0.931506 0.976017
vt 0.931506 0.945152
vt 0.921932 0.976017
vt 0.921932 0.945152
vt 0.912542 0.976846
vt 0.912542 0.945982
vt 0.350325 0.993305
vt 0.315814 0.993305
vt 0.315814 0.985356
vt 0.350325 0.985356
vt 0.315814 0.976523
vt 0.350325 0.976523
vt 0.315814 0.967147
vt 0.350325 0.967147
vt 0.315814 0.957586
vt 0.350325 0.957586
vt 0.315814 0.948210
vt 0.350325 0.948210
vt 0.315814 0.939377
vt 0.350325 0.939377
vt 0.070488 0.932553
vt 0.070488 0.963418
vt 0.061098 0.962588
vt 0.061098 0.931724
vt 0.051524 0.962588
vt 0.051524 0.931724
vt 0.042134 0.963418
vt 0.042134 0.932553
vt 0.000000 0.931724
vt 0.034511 0.931724
vt 0.034511 0.940556
vt 0.000000 0.940556
vt 0.034511 0.949933
vt 0.000000 0.949933
vt 0.034511 0.959493
vt 0.000000 0.959493
vt 0.034511 0.968870
vt 0.000000 0.968870
vt 0.712420 0.776377
vt 0.719190 0.783137
vt 0.724509 0.791086
vt 0.728173 0.799918
vt 0.730041 0.809295
vt 0.730041 0.818855
vt 0.728173 0.828232
vt 0.724509 0.837065
vt 0.719190 0.845014
vt 0.712420 0.851774
vt 0.704460 0.857085
vt 0.695614 0.860744
vt 0.686224 0.862609
vt 0.676650 0.862609
vt 0.667260 0.860744
vt 0.658414 0.857085
vt 0.650454 0.851774
vt 0.643684 0.845014
vt 0.638364 0.837065
vt 0.634701 0.828232
vt 0.632833 0.818855
vt 0.632833 0.809295
vt 0.634701 0.799919
vt 0.638364 0.791086
vt 0.643684 0.783137
vt 0.650454 0.776377
vt 0.658414 0.771065
vt 0.667260 0.767407
vt 0.676650 0.765542
vt 0.686224 0.765542
vt 0.695614 0.767407
vt 0.704459 0.771065
vt 0.779445 0.721437
vt 0.776822 0.727759
vt 0.763537 0.723735
vt 0.767201 0.714902
vt 0.775485 0.734470
vt 0.761669 0.733112
vt 0.775485 0.741313
vt 0.761669 0.742672
vt 0.776822 0.748024
vt 0.763537 0.752048
vt 0.779445 0.754346
vt 0.767201 0.760881
vt 0.783252 0.760036
vt 0.772520 0.768830
vt 0.788097 0.764874
vt 0.779290 0.775590
vt 0.793795 0.768676
vt 0.787251 0.780902
vt 0.800126 0.771294
vt 0.796096 0.784560
vt 0.806847 0.772629
vt 0.805486 0.786425
vt 0.813700 0.772629
vt 0.815060 0.786425
vt 0.820421 0.771294
vt 0.824451 0.784560
vt 0.826752 0.768676
vt 0.833296 0.780902
vt 0.832450 0.764874
vt 0.841257 0.775590
vt 0.837295 0.760036
vt 0.848027 0.768830
vt 0.841102 0.754346
vt 0.853346 0.760881
vt 0.843725 0.748024
vt 0.857010 0.752048
vt 0.845062 0.741313
vt 0.858878 0.742672
vt 0.845062 0.734470
vt 0.858878 0.733112
vt 0.843725 0.727759
vt 0.857010 0.723735
vt 0.841102 0.721437
vt 0.853346 0.714902
vt 0.837295 0.715748
vt 0.848027 0.706953
vt 0.832449 0.710909
vt 0.841257 0.700193
vt 0.826752 0.707107
vt 0.833296 0.694882
vt 0.820421 0.704489
vt 0.824451 0.691223
vt 0.813700 0.703154
vt 0.815060 0.689358
vt 0.806847 0.703154
vt 0.805486 0.689358
vt 0.800126 0.704489
vt 0.796096 0.691223
vt 0.793795 0.707107
vt 0.787251 0.694882
vt 0.788097 0.710909
vt 0.779290 0.700193
vt 0.783252 0.715748
vt 0.772520 0.706953
vn -0.431000 -0.863500 -0.261900
vn -1.000000 0.000000 0.000000
vn -0.431000 0.572400 0.697500
vn -0.431000 -0.795800 -0.425400
vn -0.431000 0.425400 0.795800
vn -0.431000 0.088400 -0.898000
vn -0.431000 -0.697500 -0.572400
vn -0.431000 0.261900 0.863500
vn -0.431000 0.261900 -0.863500
vn -0.431000 -0.572400 -0.697500
vn -0.431000 0.088400 0.898000
vn -0.431000 0.425400 -0.795800
vn -0.431000 -0.425400 -0.795800
vn -0.431000 -0.088400 0.898000
vn -0.431000 0.572400 -0.697500
vn -0.431000 -0.261900 -0.863500
vn -0.431000 -0.261900 0.863500
vn -0.431000 0.697500 -0.572400
vn -0.431000 -0.088400 -0.898000
vn -0.431000 -0.425400 0.795800
vn -0.431000 0.795800 -0.425400
vn -0.431000 -0.572400 0.697500
vn -0.431000 0.863500 -0.261900
vn -0.431000 -0.697500 0.572400
vn -0.431000 0.898000 -0.088400
vn -0.431000 -0.795800 0.425400
vn -0.431000 0.898000 0.088400
vn -0.431000 -0.863500 0.261900
vn -0.431000 0.863500 0.261900
vn -0.431000 -0.898000 0.088400
vn -0.431000 0.795800 0.425400
vn -0.431000 -0.898000 -0.088400
vn -0.431000 0.697500 0.572400
vn 0.000000 -0.098000 0.995200
vn 0.000000 -0.290300 0.956900
vn 0.000000 -0.471400 0.881900
vn 0.000000 -0.634400 0.773000
vn 0.000000 -0.773000 0.634400
vn 0.000000 -0.881900 0.471400
vn 0.000000 -0.956900 0.290300
vn 0.000000 -0.995200 0.098000
vn 0.000000 -0.995200 -0.098000
vn 0.000000 -0.956900 -0.290300
vn 0.000000 -0.881900 -0.471400
vn 0.000000 -0.773000 -0.634400
vn 0.000000 -0.634400 -0.773000
vn 0.000000 -0.471400 -0.881900
vn 0.000000 -0.290300 -0.956900
vn 0.000000 -0.098000 -0.995200
vn 0.000000 0.098000 -0.995200
vn 0.000000 0.290300 -0.956900
vn 0.000000 0.471400 -0.881900
vn 0.000000 0.634400 -0.773000
vn 0.000000 0.773000 -0.634400
vn 0.000000 0.881900 -0.471400
vn 0.000000 0.956900 -0.290300
vn 0.000000 0.995200 -0.098000
vn 0.000000 0.995200 0.098000
vn 0.000000 0.956900 0.290300
vn 0.000000 0.881900 0.471400
vn 0.000000 0.773000 0.634400
vn 0.000000 0.634400 0.773000
vn 0.000000 0.471400 0.881900
vn 0.000000 0.290300 0.956900
vn 0.000000 0.098000 0.995200
vn 1.000000 0.000000 0.000000
vn 0.431000 -0.863500 0.261900
vn 1.000000 0.000000 0.000000
vn 0.431000 0.572400 -0.697500
vn 0.431000 -0.795800 0.425400
vn 0.431000 0.425400 -0.795800
vn 0.431000 0.088400 0.898000
vn 0.431000 -0.697500 0.572400
vn 0.431000 0.261900 -0.863500
vn 0.431000 0.261900 0.863500
vn 0.431000 -0.572400 0.697500
vn 0.431000 0.088500 -0.898000
vn 0.431000 0.088400 -0.898000
vn 0.431000 0.425400 0.795800
vn 0.431000 -0.425400 0.795800
vn 0.431000 -0.088400 -0.898000
vn 0.431000 -0.088500 -0.898000
vn 0.431000 0.572400 0.697500
vn 0.431000 -0.261900 0.863500
vn 0.431000 -0.261900 -0.863500
vn 0.431000 0.697500 0.572400
vn 0.431000 -0.088400 0.898000
vn 0.431000 -0.425400 -0.795800
vn 0.431000 0.795800 0.425400
vn 0.431000 -0.572400 -0.697500
vn 0.431000 0.863500 0.261900
vn 0.431000 -0.697500 -0.572400
vn 0.431000 0.898000 0.088400
vn 0.431000 -0.795800 -0.425400
vn 0.431000 0.898000 -0.088400
vn 0.431000 -0.863500 -0.261900
vn 0.431000 0.863500 -0.261900
vn 0.431000 -0.898000 -0.088400
vn 0.431000 0.795800 -0.425400
vn 0.431000 -0.898000 0.088400
vn 0.431000 0.697500 -0.572400
vn 0.000000 -0.098000 -0.995200
vn 0.000000 -0.290300 -0.956900
vn 0.000000 -0.471400 -0.881900
vn 0.000000 -0.634400 -0.773000
vn 0.000000 -0.773000 -0.634400
vn 0.000000 -0.881900 -0.471400
vn 0.000000 -0.956900 -0.290300
vn 0.000000 -0.995200 -0.098000
vn 0.000000 -0.995200 0.098000
vn 0.000000 -0.956900 0.290300
vn 0.000000 -0.881900 0.471400
vn 0.000000 -0.773000 0.634400
vn 0.000000 -0.634400 0.773000
vn 0.000000 -0.471400 0.881900
vn 0.000000 -0.290300 0.956900
vn 0.000000 -0.098000 0.995200
vn 0.000000 0.098000 0.995200
vn 0.000000 0.290300 0.956900
vn 0.000000 0.471400 0.881900
vn 0.000000 0.634400 0.773000
vn 0.000000 0.773000 0.634400
vn 0.000000 0.881900 0.471400
vn 0.000000 0.956900 0.290300
vn 0.000000 0.995200 0.098000
vn 0.000000 0.995200 -0.098000
vn 0.000000 0.956900 -0.290300
vn 0.000000 0.881900 -0.471400
vn 0.000000 0.773000 -0.634400
vn 0.000000 0.634400 -0.773000
vn 0.000000 0.471400 -0.881900
vn 0.000000 0.290300 -0.956900
vn 0.000000 0.098000 -0.995200
vn -1.000000 0.000000 0.000000
o crown_victoria_wheels_r
usemtl crown_victoria_wheels_r
f 1/1/1 2/2/1 3/3/1
f 1/1/1 3/3/1 4/4/1
f 5/5/2 6/6/2 7/7/2
f 7/7/2 8/8/2 9/9/2
f 9/9/2 10/10/2 11/11/2
f 11/11/2 12/12/2 4/13/2
f 4/13/2 3/14/2 13/15/2
f 13/15/2 14/16/2 15/17/2
f 15/17/2 16/18/2 17/19/2
f 17/19/2 18/20/2 19/21/2
f 19/21/2 20/22/2 21/23/2
f 21/23/2 22/24/2 23/25/2
f 23/25/2 24/26/2 25/27/2
f 25/27/2 26/28/2 27/29/2
f 27/29/2 28/30/2 29/31/2
f 29/31/2 30/32/2 31/33/2
f 31/33/2 32/34/2 33/35/2
f 33/35/2 34/36/2 5/5/2
f 5/5/2 7/7/2 9/9/2
f 9/9/2 11/11/2 4/13/2
f 4/13/2 13/15/2 15/17/2
f 15/17/2 17/19/2 19/21/2
f 19/21/2 21/23/2 23/25/2
f 23/25/2 25/27/2 27/29/2
f 27/29/2 29/31/2 31/33/2
f 31/33/2 33/35/2 5/5/2
f 5/5/2 9/9/2 4/13/2
f 4/13/2 15/17/2 19/21/2
f 19/21/2 23/25/2 27/29/2
f 27/29/2 31/33/2 5/5/2
f 5/5/2 4/13/2 19/21/2
f 19/21/2 27/29/2 5/5/2
f 35/37/3 36/38/3 25/39/3
f 35/37/3 25/39/3 24/40/3
f 37/41/4 1/1/4 4/4/4
f 37/41/4 4/4/4 12/42/4
f 38/43/5 35/37/5 24/40/5
f 38/43/5 24/40/5 23/44/5
f 39/45/6 40/46/6 7/47/6
f 39/45/6 7/47/6 6/48/6
f 41/49/7 37/41/7 12/42/7
f 41/49/7 12/42/7 11/50/7
f 42/51/8 38/52/8 23/53/8
f 42/51/8 23/53/8 22/54/8
f 43/55/9 39/56/9 6/57/9
f 43/55/9 6/57/9 5/58/9
f 44/59/10 41/49/10 11/50/10
f 44/59/10 11/50/10 10/60/10
f 45/61/11 42/51/11 22/54/11
f 45/61/11 22/54/11 21/62/11
f 46/63/12 43/55/12 5/58/12
f 46/63/12 5/58/12 34/64/12
f 47/65/13 44/59/13 10/60/13
f 47/65/13 10/60/13 9/66/13
f 48/67/14 45/61/14 21/62/14
f 48/67/14 21/62/14 20/68/14
f 49/69/15 46/63/15 34/64/15
f 49/69/15 34/64/15 33/70/15
f 50/71/16 47/72/16 9/73/16
f 50/71/16 9/73/16 8/74/16
f 51/75/17 48/76/17 20/77/17
f 51/75/17 20/77/17 19/78/17
f 52/79/18 49/69/18 33/70/18
f 52/79/18 33/70/18 32/80/18
f 40/46/19 50/71/19 8/74/19
f 40/46/19 8/74/19 7/47/19
f 53/81/20 51/75/20 19/78/20
f 53/81/20 19/78/20 18/82/20
f 54/83/21 52/79/21 32/80/21
f 54/83/21 32/80/21 31/84/21
f 55/85/22 53/81/22 18/82/22
f 55/85/22 18/82/22 17/86/22
f 56/87/23 54/88/23 31/89/23
f 56/87/23 31/89/23 30/90/23
f 57/91/24 55/85/24 17/86/24
f 57/91/24 17/86/24 16/92/24
f 58/93/25 56/87/25 30/90/25
f 58/93/25 30/90/25 29/94/25
f 59/95/26 57/91/26 16/92/26
f 59/95/26 16/92/26 15/96/26
f 60/97/27 58/93/27 29/94/27
f 60/97/27 29/94/27 28/98/27
f 61/99/28 59/100/28 15/101/28
f 61/99/28 15/101/28 14/102/28
f 62/103/29 60/104/29 28/105/29
f 62/103/29 28/105/29 27/106/29
f 63/107/30 61/99/30 14/102/30
f 63/107/30 14/102/30 13/108/30
f 64/109/31 62/103/31 27/106/31
f 64/109/31 27/106/31 26/110/31
f 2/111/32 63/107/32 13/108/32
f 2/111/32 13/108/32 3/112/32
f 36/38/33 64/109/33 26/110/33
f 36/38/33 26/110/33 25/39/33
f 65/113/34 66/114/34 67/115/34
f 65/113/34 67/115/34 68/116/34
f 68/116/35 67/115/35 69/117/35
f 68/116/35 69/117/35 70/118/35
f 70/119/36 69/120/36 71/121/36
f 70/119/36 71/121/36 72/122/36
f 72/122/37 71/121/37 73/123/37
f 72/122/37 73/123/37 74/124/37
f 74/124/38 73/123/38 75/125/38
f 74/124/38 75/125/38 76/126/38
f 76/127/39 75/128/39 77/129/39
f 76/127/39 77/129/39 78/130/39
f 78/130/40 77/129/40 79/131/40
f 78/130/40 79/131/40 80/132/40
f 80/132/41 79/131/41 81/133/41
f 80/132/41 81/133/41 82/134/41
f 82/134/42 81/133/42 83/135/42
f 82/134/42 83/135/42 84/136/42
f 84/136/43 83/135/43 85/137/43
f 84/136/43 85/137/43 86/138/43
f 86/139/44 85/140/44 87/141/44
f 86/139/44 87/141/44 88/142/44
f 88/142/45 87/141/45 89/143/45
f 88/142/45 89/143/45 90/144/45
f 90/144/46 89/143/46 91/145/46
f 90/144/46 91/145/46 92/146/46
f 92/147/47 91/148/47 93/149/47
f 92/147/47 93/149/47 94/150/47
f 94/150/48 93/149/48 95/151/48
f 94/150/48 95/151/48 96/152/48
f 96/152/49 95/151/49 97/153/49
f 96/152/49 97/153/49 98/154/49
f 98/154/50 97/153/50 99/155/50
f 98/154/50 99/155/50 100/156/50
f 100/156/51 99/155/51 101/157/51
f 100/156/51 101/157/51 102/158/51
f 102/159/52 101/160/52 103/161/52
f 102/159/52 103/161/52 104/162/52
f 104/162/53 103/161/53 105/163/53
f 104/162/53 105/163/53 106/164/53
f 106/164/54 105/163/54 107/165/54
f 106/164/54 107/165/54 108/166/54
f 108/167/55 107/168/55 109/169/55
f 108/167/55 109/169/55 110/170/55
f 110/170/56 109/169/56 111/171/56
f 110/170/56 111/171/56 112/172/56
f 112/172/57 111/171/57 113/173/57
f 112/172/57 113/173/57 114/174/57
f 114/174/58 113/173/58 115/175/58
f 114/174/58 115/175/58 116/176/58
f 116/176/59 115/175/59 117/177/59
f 116/176/59 117/177/59 118/178/59
f 118/179/60 117/180/60 119/181/60
f 118/179/60 119/181/60 120/182/60
f 120/182/61 119/181/61 121/183/61
f 120/182/61 121/183/61 122/184/61
f 122/184/62 121/183/62 123/185/62
f 122/184/62 123/185/62 124/186/62
f 124/187/63 123/188/63 125/189/63
f 124/187/63 125/189/63 126/190/63
f 126/190/64 125/189/64 127/191/64
f 126/190/64 127/191/64 128/192/64
f 128/192/65 127/191/65 66/114/65
f 128/192/65 66/114/65 65/113/65
f 128/193/66 65/194/66 68/195/66
f 68/195/66 70/196/66 72/197/66
f 72/197/66 74/198/66 76/199/66
f 76/199/66 78/200/66 80/201/66
f 80/201/66 82/202/66 84/203/66
f 84/203/66 86/204/66 88/205/66
f 88/205/66 90/206/66 92/207/66
f 92/207/66 94/208/66 96/209/66
f 96/209/66 98/210/66 100/211/66
f 100/211/66 102/212/66 104/213/66
f 104/213/66 106/214/66 108/215/66
f 108/215/66 110/216/66 112/217/66
f 112/217/66 114/218/66 116/219/66
f 116/219/66 118/220/66 120/221/66
f 120/221/66 122/222/66 124/223/66
f 124/223/66 126/224/66 128/193/66
f 128/193/66 68/195/66 72/197/66
f 72/197/66 76/199/66 80/201/66
f 80/201/66 84/203/66 88/205/66
f 88/205/66 92/207/66 96/209/66
f 96/209/66 100/211/66 104/213/66
f 104/213/66 108/215/66 112/217/66
f 112/217/66 116/219/66 120/221/66
f 120/221/66 124/223/66 128/193/66
f 128/193/66 72/197/66 80/201/66
f 80/201/66 88/205/66 96/209/66
f 96/209/66 104/213/66 112/217/66
f 112/217/66 120/221/66 128/193/66
f 128/193/66 80/201/66 96/209/66
f 96/209/66 112/217/66 128/193/66
f 40/225/2 39/226/2 67/227/2
f 40/225/2 67/227/2 66/228/2
f 39/226/2 43/229/2 69/230/2
f 39/226/2 69/230/2 67/227/2
f 43/229/2 46/231/2 71/232/2
f 43/229/2 71/232/2 69/230/2
f 46/231/2 49/233/2 73/234/2
f 46/231/2 73/234/2 71/232/2
f 49/233/2 52/235/2 75/236/2
f 49/233/2 75/236/2 73/234/2
f 52/235/2 54/237/2 77/238/2
f 52/235/2 77/238/2 75/236/2
f 54/237/2 56/239/2 79/240/2
f 54/237/2 79/240/2 77/238/2
f 56/239/2 58/241/2 81/242/2
f 56/239/2 81/242/2 79/240/2
f 58/241/2 60/243/2 83/244/2
f 58/241/2 83/244/2 81/242/2
f 60/243/2 62/245/2 85/246/2
f 60/243/2 85/246/2 83/244/2
f 62/245/2 64/247/2 87/248/2
f 62/245/2 87/248/2 85/246/2
f 64/247/2 36/249/2 89/250/2
f 64/247/2 89/250/2 87/248/2
f 36/249/2 35/251/2 91/252/2
f 36/249/2 91/252/2 89/250/2
f 35/251/2 38/253/2 93/254/2
f 35/251/2 93/254/2 91/252/2
f 38/253/2 42/255/2 95/256/2
f 38/253/2 95/256/2 93/254/2
f 42/255/2 45/257/2 97/258/2
f 42/255/2 97/258/2 95/256/2
f 45/257/2 48/259/2 99/260/2
f 45/257/2 99/260/2 97/258/2
f 48/259/2 51/261/2 101/262/2
f 48/259/2 101/262/2 99/260/2
f 51/261/2 53/263/2 103/264/2
f 51/261/2 103/264/2 101/262/2
f 53/263/2 55/265/2 105/266/2
f 53/263/2 105/266/2 103/264/2
f 55/265/2 57/267/2 107/268/2
f 55/265/2 107/268/2 105/266/2
f 57/267/2 59/269/2 109/270/2
f 57/267/2 109/270/2 107/268/2
f 59/269/2 61/271/2 111/272/2
f 59/269/2 111/272/2 109/270/2
f 61/271/2 63/273/2 113/274/2
f 61/271/2 113/274/2 111/272/2
f 63/273/2 2/275/2 115/276/2
f 63/273/2 115/276/2 113/274/2
f 2/275/2 1/277/2 117/278/2
f 2/275/2 117/278/2 115/276/2
f 1/277/2 37/279/2 119/280/2
f 1/277/2 119/280/2 117/278/2
f 37/279/2 41/281/2 121/282/2
f 37/279/2 121/282/2 119/280/2
f 41/281/2 44/283/2 123/284/2
f 41/281/2 123/284/2 121/282/2
f 44/283/2 47/285/2 125/286/2
f 44/283/2 125/286/2 123/284/2
f 47/285/2 50/287/2 127/288/2
f 47/285/2 127/288/2 125/286/2
f 50/287/2 40/225/2 66/228/2
f 50/287/2 66/228/2 127/288/2
f 129/289/67 130/290/67 131/291/67
f 129/289/67 131/291/67 132/292/67
f 133/293/68 134/294/68 135/295/68
f 135/295/68 136/296/68 137/297/68
f 137/297/68 138/298/68 139/299/68
f 139/299/68 140/300/68 132/301/68
f 132/301/68 131/302/68 141/303/68
f 141/303/68 142/304/68 143/305/68
f 143/305/68 144/306/68 145/307/68
f 145/307/68 146/308/68 147/309/68
f 147/309/68 148/310/68 149/311/68
f 149/311/68 150/312/68 151/313/68
f 151/313/68 152/314/68 153/315/68
f 153/315/68 154/316/68 155/317/68
f 155/317/68 156/318/68 157/319/68
f 157/319/68 158/320/68 159/321/68
f 159/321/68 160/322/68 161/323/68
f 161/323/68 162/324/68 133/293/68
f 133/293/68 135/295/68 137/297/68
f 137/297/68 139/299/68 132/301/68
f 132/301/68 141/303/68 143/305/68
f 143/305/68 145/307/68 147/309/68
f 147/309/68 149/311/68 151/313/68
f 151/313/68 153/315/68 155/317/68
f 155/317/68 157/319/68 159/321/68
f 159/321/68 161/323/68 133/293/68
f 133/293/68 137/297/68 132/301/68
f 132/301/68 143/305/68 147/309/68
f 147/309/68 151/313/68 155/317/68
f 155/317/68 159/321/68 133/293/68
f 133/293/68 132/301/68 147/309/68
f 147/309/68 155/317/68 133/293/68
f 163/325/69 164/326/69 153/327/69
f 163/325/69 153/327/69 152/328/69
f 165/329/70 129/289/70 132/292/70
f 165/329/70 132/292/70 140/330/70
f 166/331/71 163/325/71 152/328/71
f 166/331/71 152/328/71 151/332/71
f 167/333/72 168/334/72 135/335/72
f 167/333/72 135/335/72 134/336/72
f 169/337/73 165/329/73 140/330/73
f 169/337/73 140/330/73 139/338/73
f 170/339/74 166/331/74 151/332/74
f 170/339/74 151/332/74 150/340/74
f 171/341/75 167/333/75 134/336/75
f 171/341/75 134/336/75 133/342/75
f 172/343/76 169/337/76 139/338/76
f 172/343/76 139/338/76 138/344/76
f 173/345/77 170/339/77 150/340/77
f 173/345/78 150/340/78 149/346/78
f 174/347/79 171/341/79 133/342/79
f 174/347/79 133/342/79 162/348/79
f 175/349/80 172/350/80 138/351/80
f 175/349/80 138/351/80 137/352/80
f 176/353/81 173/345/81 149/346/81
f 176/353/82 149/346/82 148/354/82
f 177/355/83 174/347/83 162/348/83
f 177/355/83 162/348/83 161/356/83
f 178/357/84 175/349/84 137/352/84
f 178/357/84 137/352/84 136/358/84
f 179/359/85 176/360/85 148/361/85
f 179/359/85 148/361/85 147/362/85
f 180/363/86 177/364/86 161/365/86
f 180/363/86 161/365/86 160/366/86
f 168/334/87 178/357/87 136/358/87
f 168/334/87 136/358/87 135/335/87
f 181/367/88 179/359/88 147/362/88
f 181/367/88 147/362/88 146/368/88
f 182/369/89 180/363/89 160/366/89
f 182/369/89 160/366/89 159/370/89
f 183/371/90 181/367/90 146/368/90
f 183/371/90 146/368/90 145/372/90
f 184/373/91 182/369/91 159/370/91
f 184/373/91 159/370/91 158/374/91
f 185/375/92 183/371/92 145/372/92
f 185/375/92 145/372/92 144/376/92
f 186/377/93 184/378/93 158/379/93
f 186/377/93 158/379/93 157/380/93
f 187/381/94 185/375/94 144/376/94
f 187/381/94 144/376/94 143/382/94
f 188/383/95 186/377/95 157/380/95
f 188/383/95 157/380/95 156/384/95
f 189/385/96 187/381/96 143/382/96
f 189/385/96 143/382/96 142/386/96
f 190/387/97 188/383/97 156/384/97
f 190/387/97 156/384/97 155/388/97
f 191/389/98 189/385/98 142/386/98
f 191/389/98 142/386/98 141/390/98
f 192/391/99 190/387/99 155/388/99
f 192/391/99 155/388/99 154/392/99
f 130/290/100 191/393/100 141/394/100
f 130/290/100 141/394/100 131/291/100
f 164/395/101 192/391/101 154/392/101
f 164/395/101 154/392/101 153/396/101
f 193/397/102 194/398/102 195/399/102
f 193/397/102 195/399/102 196/400/102
f 196/401/103 195/402/103 197/403/103
f 196/401/103 197/403/103 198/404/103
f 198/404/104 197/403/104 199/405/104
f 198/404/104 199/405/104 200/406/104
f 200/406/105 199/405/105 201/407/105
f 200/406/105 201/407/105 202/408/105
f 202/408/106 201/407/106 203/409/106
f 202/408/106 203/409/106 204/410/106
f 204/410/107 203/409/107 205/411/107
f 204/410/107 205/411/107 206/412/107
f 206/412/108 205/411/108 207/413/108
f 206/412/108 207/413/108 208/414/108
f 208/414/109 207/413/109 209/415/109
f 208/414/109 209/415/109 210/416/109
f 210/417/110 209/418/110 211/419/110
f 210/417/110 211/419/110 212/420/110
f 212/420/111 211/419/111 213/421/111
f 212/420/111 213/421/111 214/422/111
f 214/422/112 213/421/112 215/423/112
f 214/422/112 215/423/112 216/424/112
f 216/424/113 215/423/113 217/425/113
f 216/424/113 217/425/113 218/426/113
f 218/426/114 217/425/114 219/427/114
f 218/426/114 219/427/114 220/428/114
f 220/428/115 219/427/115 221/429/115
f 220/428/115 221/429/115 222/430/115
f 222/430/116 221/429/116 223/431/116
f 222/430/116 223/431/116 224/432/116
f 224/433/117 223/434/117 225/435/117
f 224/433/117 225/435/117 226/436/117
f 226/436/118 225/435/118 227/437/118
f 226/436/118 227/437/118 228/438/118
f 228/438/119 227/437/119 229/439/119
f 228/438/119 229/439/119 230/440/119
f 230/441/120 229/442/120 231/443/120
f 230/441/120 231/443/120 232/444/120
f 232/444/121 231/443/121 233/445/121
f 232/444/121 233/445/121 234/446/121
f 234/446/122 233/445/122 235/447/122
f 234/446/122 235/447/122 236/448/122
f 236/448/123 235/447/123 237/449/123
f 236/448/123 237/449/123 238/450/123
f 238/450/124 237/449/124 239/451/124
f 238/450/124 239/451/124 240/452/124
f 240/452/125 239/451/125 241/453/125
f 240/452/125 241/453/125 242/454/125
f 242/455/126 241/456/126 243/457/126
f 242/455/126 243/457/126 244/458/126
f 244/458/127 243/457/127 245/459/127
f 244/458/127 245/459/127 246/460/127
f 246/460/128 245/459/128 247/461/128
f 246/460/128 247/461/128 248/462/128
f 248/463/129 247/464/129 249/465/129
f 248/463/129 249/465/129 250/466/129
f 250/466/130 249/465/130 251/467/130
f 250/466/130 251/467/130 252/468/130
f 252/468/131 251/467/131 253/469/131
f 252/468/131 253/469/131 254/470/131
f 254/470/132 253/469/132 255/471/132
f 254/470/132 255/471/132 256/472/132
f 256/472/133 255/471/133 194/398/133
f 256/472/133 194/398/133 193/397/133
f 256/473/134 193/474/134 196/475/134
f 196/475/134 198/476/134 200/477/134
f 200/477/134 202/478/134 204/479/134
f 204/479/134 206/480/134 208/481/134
f 208/481/134 210/482/134 212/483/134
f 212/483/134 214/484/134 216/485/134
f 216/485/134 218/486/134 220/487/134
f 220/487/134 222/488/134 224/489/134
f 224/489/134 226/490/134 228/491/134
f 228/491/134 230/492/134 232/493/134
f 232/493/134 234/494/134 236/495/134
f 236/495/134 238/496/134 240/497/134
f 240/497/134 242/498/134 244/499/134
f 244/499/134 246/500/134 248/501/134
f 248/501/134 250/502/134 252/503/134
f 252/503/134 254/504/134 256/473/134
f 256/473/134 196/475/134 200/477/134
f 200/477/134 204/479/134 208/481/134
f 208/481/134 212/483/134 216/485/134
f 216/485/134 220/487/134 224/489/134
f 224/489/134 228/491/134 232/493/134
f 232/493/134 236/495/134 240/497/134
f 240/497/134 244/499/134 248/501/134
f 248/501/134 252/503/134 256/473/134
f 256/473/134 200/477/134 208/481/134
f 208/481/134 216/485/134 224/489/134
f 224/489/134 232/493/134 240/497/134
f 240/497/134 248/501/134 256/473/134
f 256/473/134 208/481/134 224/489/134
f 224/489/134 240/497/134 256/473/134
f 168/505/68 167/506/68 195/507/68
f 168/505/68 195/507/68 194/508/68
f 167/506/68 171/509/68 197/510/68
f 167/506/68 197/510/68 195/507/68
f 171/509/68 174/511/68 199/512/68
f 171/509/68 199/512/68 197/510/68
f 174/511/68 177/513/68 201/514/68
f 174/511/68 201/514/68 199/512/68
f 177/513/68 180/515/68 203/516/68
f 177/513/68 203/516/68 201/514/68
f 180/515/68 182/517/68 205/518/68
f 180/515/68 205/518/68 203/516/68
f 182/517/68 184/519/68 207/520/68
f 182/517/68 207/520/68 205/518/68
f 184/519/68 186/521/68 209/522/68
f 184/519/68 209/522/68 207/520/68
f 186/521/68 188/523/68 211/524/68
f 186/521/68 211/524/68 209/522/68
f 188/523/68 190/525/68 213/526/68
f 188/523/68 213/526/68 211/524/68
f 190/525/68 192/527/68 215/528/68
f 190/525/68 215/528/68 213/526/68
f 192/527/68 164/529/68 217/530/68
f 192/527/68 217/530/68 215/528/68
f 164/529/68 163/531/68 219/532/68
f 164/529/68 219/532/68 217/530/68
f 163/531/68 166/533/68 221/534/68
f 163/531/68 221/534/68 219/532/68
f 166/533/68 170/535/68 223/536/68
f 166/533/68 223/536/68 221/534/68
f 170/535/68 173/537/68 225/538/68
f 170/535/68 225/538/68 223/536/68
f 173/537/68 176/539/68 227/540/68
f 173/537/68 227/540/68 225/538/68
f 176/539/68 179/541/68 229/542/68
f 176/539/68 229/542/68 227/540/68
f 179/541/68 181/543/68 231/544/68
f 179/541/68 231/544/68 229/542/68
f 181/543/68 183/545/68 233/546/68
f 181/543/68 233/546/68 231/544/68
f 183/545/68 185/547/68 235/548/68
f 183/545/68 235/548/68 233/546/68
f 185/547/68 187/549/68 237/550/68
f 185/547/68 237/550/68 235/548/68
f 187/549/68 189/551/68 239/552/68
f 187/549/68 239/552/68 237/550/68
f 189/551/68 191/553/68 241/554/68
f 189/551/68 241/554/68 239/552/68
f 191/553/68 130/555/68 243/556/68
f 191/553/68 243/556/68 241/554/68
f 130/555/68 129/557/68 245/558/68
f 130/555/68 245/558/68 243/556/68
f 129/557/68 165/559/68 247/560/68
f 129/557/68 247/560/68 245/558/68
f 165/559/68 169/561/68 249/562/68
f 165/559/68 249/562/68 247/560/68
f 169/561/68 172/563/68 251/564/68
f 169/561/68 251/564/68 249/562/68
f 172/563/68 175/565/68 253/566/68
f 172/563/68 253/566/68 251/564/68
f 175/565/68 178/567/68 255/568/68
f 175/565/68 255/568/68 253/566/68
f 178/567/68 168/505/68 194/508/68
f 178/567/68 194/508/68 255/568/68
