# PSX Racing car model — generated by tools/carmodels/export_models.mjs
mtllib crown_victoria.mtl
v -0.475481 0.676095 2.673393
v -0.949217 0.683865 2.627320
v -0.949217 0.437031 2.611468
v -0.475481 0.429260 2.657542
v -0.855549 0.306787 -2.283027
v -0.922322 0.730049 -2.352102
v -0.913523 0.688688 -2.494818
v -0.902156 0.664063 -2.561601
v -0.893421 0.522983 -2.535293
v -0.827621 0.325388 -2.464398
v -0.887650 0.343174 2.179384
v -0.475228 0.325684 2.208540
v -0.872999 0.334679 0.916507
v -0.474365 0.327002 0.916654
v -0.474365 0.821355 0.916435
v -0.872999 0.829032 0.916288
v 0.873000 0.337446 1.318477
v 0.879300 0.340796 1.818036
v 0.879300 0.835149 1.817817
v 0.873000 0.832043 1.355503
v -0.872999 0.334107 0.833680
v -0.474360 0.326623 0.833732
v -0.872999 0.331013 0.386129
v -0.474360 0.323529 0.386180
v -0.872999 0.327918 -0.061423
v -0.474360 0.320435 -0.061371
v -0.872999 0.324824 -0.508974
v -0.474360 0.317341 -0.508922
v -0.872999 0.321730 -0.956525
v -0.474360 0.314247 -0.956474
v -0.872999 0.318948 -1.358953
v -0.474360 0.311452 -1.360834
v -0.474360 0.299164 -2.051083
v -0.474360 0.310053 -1.563237
v -0.474360 0.836059 -1.570635
v -0.474360 0.825171 -2.058481
v -0.867673 0.309057 -2.022668
v -0.855549 0.832794 -2.290426
v -0.867673 0.835064 -2.030067
v -0.949129 0.861344 2.166739
v -0.937300 0.852023 1.285522
v -0.910843 0.535983 1.317244
v -0.872999 0.337446 1.318477
v -0.879300 0.340796 1.818036
v -0.456761 0.665332 -2.532571
v -0.456761 0.697491 -2.562288
v -0.473630 0.618529 -2.645691
v -0.880546 0.648203 -2.603231
v 0.475090 0.618529 -2.645691
v 0.000730 0.618205 -2.692500
v 0.902156 0.664063 -2.561601
v 0.880547 0.648199 -2.603237
v 0.456762 0.665332 -2.532571
v 0.913524 0.688688 -2.494818
v 0.456762 0.697491 -2.562288
v 0.000000 0.688911 -2.588004
v -0.904147 0.842476 0.382999
v -0.475481 0.739817 2.562454
v -0.949217 0.747588 2.516380
v -0.473997 0.472749 -2.635393
v 0.000360 0.471287 -2.682034
v 0.000000 0.328753 -2.650096
v -0.474360 0.329076 -2.603287
v -0.416294 0.991147 -2.143245
v 0.000000 0.994234 -2.183046
v 0.000000 0.936686 -2.496365
v -0.415677 0.931237 -2.476345
v 0.000000 1.082096 -1.409355
v 0.000000 1.066598 -1.568467
v -0.416059 1.086346 -1.568603
v -0.827841 1.050676 -1.568357
v -0.767811 1.125438 -1.011635
v 0.000000 1.126140 -1.011640
v -0.481738 1.533258 0.377817
v 0.000000 1.570711 0.377558
v 0.000000 1.567617 -0.069993
v -0.481738 1.530164 -0.069734
v -0.505245 1.513182 0.831310
v 0.000000 1.540811 0.831119
v -0.596198 1.475489 1.148690
v 0.000000 1.471548 1.150485
v -0.384969 1.130994 1.615459
v 0.000000 1.135212 1.627750
v -0.769181 1.124095 1.606399
v -0.403491 1.090732 2.093981
v -0.815430 1.074498 2.094093
v 0.474360 0.296522 -2.337003
v 0.855550 0.306787 -2.283027
v 0.855550 0.832794 -2.290426
v 0.474360 0.822529 -2.344401
v -0.474360 0.837459 -1.368232
v -0.872999 0.844955 -1.366351
v -0.872999 0.843543 -1.570687
v -0.474360 0.822529 -2.344401
v 0.000000 0.314247 -0.956474
v 0.000000 0.311444 -1.362032
v 0.000000 0.317341 -0.508922
v 0.000000 0.320435 -0.061371
v 0.000000 0.323529 0.386180
v 0.000000 0.326623 0.833732
v 0.000000 0.326722 0.916793
v 0.872999 0.334679 0.916507
v 0.872999 0.831553 1.281012
v 0.872999 0.829032 0.916288
v -0.474941 0.321984 1.871380
v -0.879300 0.835149 1.817816
v -0.474941 0.816337 1.871160
v 0.000000 0.435016 2.676648
v 0.000000 0.316492 2.231591
v 0.000000 0.296246 -2.376933
v -0.474360 0.296522 -2.337003
v -0.422013 1.049745 2.467699
v -0.842307 1.037120 2.423748
v 0.000000 1.474352 -0.499302
v -0.545991 1.463752 -0.499229
v -0.931121 0.759738 -2.176483
v -0.832588 0.979669 -2.103384
v -0.831354 0.935124 -2.403981
v -0.806056 0.329502 -2.509074
v 0.000000 1.095329 2.093950
v 0.000000 1.054899 2.481096
v 0.000000 0.745574 2.581560
v 0.000000 0.681851 2.692500
v -0.948720 0.828003 -0.985197
v -0.948720 0.821731 -1.566774
v -0.872999 0.317536 -1.563288
v 0.475480 0.676095 2.673393
v 0.475480 0.429260 2.657542
v 0.949217 0.437031 2.611468
v 0.949217 0.683865 2.627320
v 0.922323 0.730049 -2.352102
v 0.827622 0.325388 -2.464398
v 0.894618 0.522939 -2.541540
v 0.475228 0.325684 2.208540
v 0.887650 0.343174 2.179384
v -0.872999 0.831553 1.281012
v -0.873000 0.832043 1.355503
v 0.474366 0.327002 0.916654
v 0.474360 0.326623 0.833732
v 0.872999 0.334107 0.833680
v 0.474360 0.323529 0.386181
v 0.872999 0.331013 0.386129
v 0.474360 0.320435 -0.061371
v 0.872999 0.327918 -0.061422
v 0.474360 0.317341 -0.508922
v 0.873000 0.324824 -0.508974
v 0.474360 0.314247 -0.956474
v 0.873000 0.321730 -0.956525
v 0.474360 0.311452 -1.360834
v 0.873000 0.318948 -1.358952
v 0.474360 0.299164 -2.051083
v 0.474360 0.310053 -1.563237
v 0.937300 0.852023 1.285522
v 0.949130 0.861344 2.166739
v 0.910843 0.535983 1.317244
v 0.904147 0.842476 0.382999
v 0.475480 0.739817 2.562454
v 0.949217 0.747588 2.516380
v 0.474723 0.472749 -2.635393
v 0.474360 0.329076 -2.603287
v 0.416295 0.991147 -2.143245
v 0.415678 0.931237 -2.476345
v 0.767811 1.125438 -1.011635
v 0.827842 1.050676 -1.568357
v 0.416059 1.086346 -1.568603
v 0.481739 1.533258 0.377817
v 0.481739 1.530164 -0.069734
v 0.505246 1.513182 0.831310
v 0.596199 1.475489 1.148690
v 0.384969 1.130994 1.615459
v 0.769181 1.124095 1.606399
v 0.403491 1.090732 2.093981
v 0.815430 1.074498 2.094093
v 0.873000 0.844955 -1.366351
v 0.474360 0.837459 -1.368232
v 0.474360 0.836059 -1.570635
v 0.474360 0.825171 -2.058481
v 0.867674 0.835064 -2.030066
v 0.873000 0.843543 -1.570687
v -0.474725 0.320015 1.735943
v -0.474725 0.814368 1.735724
v 0.474366 0.821355 0.916435
v 0.422013 1.049745 2.467699
v 0.842307 1.037120 2.423748
v 0.545991 1.463752 -0.499229
v 0.415592 0.927335 -2.504334
v 0.832589 0.979669 -2.103384
v 0.931122 0.759738 -2.176483
v 0.831355 0.935124 -2.403981
v 0.806057 0.329502 -2.509074
v 0.948720 0.828003 -0.985197
v 0.948720 0.821731 -1.566774
v 0.873000 0.317536 -1.563288
v -0.415763 0.927335 -2.504334
v 0.867674 0.309057 -2.022668
v -0.000086 0.929329 -2.526443
v 0.862889 0.474229 -2.577077
v 0.000000 0.315000 1.872422
v 0.474941 0.321984 1.871380
v 0.474941 0.816337 1.871160
v 0.474725 0.814368 1.735724
v 0.474390 0.823024 1.281579
v -0.474390 0.328671 1.281799
v 0.474390 0.328671 1.281799
v 0.474725 0.320015 1.735943
v -0.474390 0.823024 1.281579
v -0.862889 0.474229 -2.577077
vt 0.838794 0.296455
vt 0.837261 0.234704
vt 0.869181 0.234704
vt 0.870714 0.296455
vt 0.762295 0.640330
vt 0.818288 0.648807
vt 0.812964 0.667461
vt 0.809617 0.676223
vt 0.791284 0.672912
vt 0.764234 0.664065
vt 0.185829 0.001313
vt 0.247773 0.006124
vt 0.240818 0.062727
vt 0.186919 0.059982
vt 0.532424 0.986668
vt 0.480387 0.987667
vt 0.480387 0.923469
vt 0.532424 0.922470
vt 0.063362 0.859053
vt 0.063437 0.924112
vt 0.000080 0.924044
vt 0.000000 0.863837
vt 0.190032 0.228336
vt 0.242060 0.227350
vt 0.242267 0.238144
vt 0.190239 0.239143
vt 0.243385 0.296472
vt 0.191356 0.297471
vt 0.244502 0.354800
vt 0.192474 0.355799
vt 0.245620 0.413128
vt 0.193592 0.414127
vt 0.246738 0.471456
vt 0.194710 0.472455
vt 0.247743 0.523904
vt 0.195719 0.525154
vt 0.837261 0.579710
vt 0.837563 0.516144
vt 0.904989 0.516353
vt 0.904687 0.579919
vt 0.548284 0.880558
vt 0.547831 0.914438
vt 0.480387 0.914859
vt 0.480840 0.880978
vt 0.761690 0.058810
vt 0.829638 0.059904
vt 0.829348 0.174764
vt 0.788146 0.170922
vt 0.761763 0.171034
vt 0.761669 0.105923
vt 0.235942 0.704289
vt 0.245051 0.701935
vt 0.245051 0.761738
vt 0.749805 0.728285
vt 0.749805 0.786342
vt 0.745287 0.786329
vt 0.926373 0.561317
vt 0.919838 0.614353
vt 0.914024 0.617169
vt 0.926373 0.437653
vt 0.932128 0.499479
vt 0.914024 0.381980
vt 0.919839 0.384797
vt 0.737664 0.720673
vt 0.737664 0.660862
vt 0.746773 0.663216
vt 0.240461 0.827394
vt 0.235942 0.827407
vt 0.235942 0.769350
vt 0.912612 0.559099
vt 0.916150 0.499561
vt 0.912612 0.440023
vt 0.828530 0.292489
vt 0.762205 0.292504
vt 0.761994 0.234195
vt 0.761954 0.223404
vt 0.223017 0.887652
vt 0.228319 0.949393
vt 0.217565 0.949435
vt 0.212263 0.887694
vt 0.859664 0.053902
vt 0.861096 0.115934
vt 0.842050 0.116021
vt 0.840470 0.053991
vt 0.309751 0.424822
vt 0.364103 0.429528
vt 0.364149 0.470466
vt 0.309881 0.468288
vt 0.363969 0.330861
vt 0.363997 0.351037
vt 0.309694 0.350202
vt 0.255927 0.351796
vt 0.263671 0.280279
vt 0.363900 0.280192
vt 0.300869 0.091894
vt 0.363768 0.090217
vt 0.363863 0.145160
vt 0.300964 0.146837
vt 0.297695 0.037261
vt 0.363659 0.036013
vt 0.285739 0.000087
vt 0.363564 0.000000
vt 0.466795 0.532171
vt 0.466385 0.582352
vt 0.417241 0.582352
vt 0.416708 0.504638
vt 0.467589 0.482090
vt 0.301265 0.644408
vt 0.358146 0.641907
vt 0.359566 0.691990
vt 0.301978 0.698110
vt 0.987863 0.730254
vt 0.938103 0.729531
vt 0.938103 0.661141
vt 0.987863 0.661864
vt 0.878337 0.261344
vt 0.878337 0.234961
vt 0.930375 0.234704
vt 0.878337 0.369829
vt 0.878587 0.396450
vt 0.878337 0.456327
vt 0.929679 0.321228
vt 0.928097 0.355167
vt 0.878337 0.362217
vt 0.904989 0.617169
vt 0.132799 0.473638
vt 0.133812 0.526493
vt 0.131681 0.415310
vt 0.130563 0.356982
vt 0.129446 0.298654
vt 0.128328 0.240326
vt 0.128120 0.229502
vt 0.063437 0.806682
vt 0.000011 0.854132
vt 0.000080 0.806614
vt 0.418310 0.984548
vt 0.367188 0.978287
vt 0.367188 0.916100
vt 0.418310 0.922361
vt 0.123724 0.000000
vt 0.124837 0.058177
vt 0.136346 0.658774
vt 0.198157 0.652387
vt 0.198822 0.687040
vt 0.137028 0.694323
vt 0.646747 0.160224
vt 0.646289 0.045343
vt 0.679111 0.054625
vt 0.688105 0.118166
vt 0.739632 0.177428
vt 0.408566 0.660828
vt 0.407422 0.715613
vt 0.368721 0.729549
vt 0.367188 0.667798
vt 0.363921 0.201897
vt 0.292644 0.202402
vt 0.636938 0.634555
vt 0.639666 0.611594
vt 0.670990 0.601808
vt 0.666202 0.641072
vt 0.632833 0.653251
vt 0.247773 0.644388
vt 0.244581 0.668065
vt 0.241878 0.673934
vt 0.301063 0.591811
vt 0.257270 0.646893
vt 0.255396 0.591884
vt 0.409085 0.605819
vt 0.367721 0.605819
vt 0.838261 0.358434
vt 0.870182 0.358434
vt 0.220416 0.825674
vt 0.209662 0.825716
vt 0.632833 0.000000
vt 0.672853 0.011690
vt 0.806269 0.000000
vt 0.814586 0.014417
vt 0.774656 0.002206
vt 0.749822 0.218874
vt 0.753991 0.277976
vt 0.648500 0.277920
vt 0.829638 0.470560
vt 0.762840 0.467431
vt 0.762417 0.350813
vt 0.645372 0.456178
vt 0.754046 0.336308
vt 0.742859 0.392300
vt 0.690758 0.459355
vt 0.678981 0.531950
vt 0.645185 0.531983
vt 0.829625 0.546331
vt 0.763127 0.546482
vt 0.763030 0.519861
vt 0.838794 0.420412
vt 0.870714 0.420412
vt 0.869181 0.482163
vt 0.837261 0.482163
vt 0.574570 0.667531
vt 0.569224 0.648882
vt 0.625210 0.640351
vt 0.623292 0.664073
vt 0.596227 0.673777
vt 0.577925 0.676287
vt 0.061715 0.003684
vt 0.062871 0.062352
vt 0.009116 0.067154
vt 0.000000 0.010858
vt 0.201965 0.871686
vt 0.138595 0.876549
vt 0.138584 0.866843
vt 0.066209 0.230702
vt 0.066417 0.241509
vt 0.014389 0.242498
vt 0.014182 0.231704
vt 0.067535 0.299837
vt 0.015507 0.300826
vt 0.068652 0.358165
vt 0.016624 0.359154
vt 0.069770 0.416493
vt 0.017742 0.417482
vt 0.070888 0.474821
vt 0.018860 0.475810
vt 0.071898 0.527520
vt 0.019865 0.528257
vt 0.548284 0.794090
vt 0.548115 0.820715
vt 0.480671 0.821135
vt 0.480840 0.794510
vt 0.197443 0.615124
vt 0.074336 0.654753
vt 0.073622 0.617489
vt 0.072403 0.553898
vt 0.196225 0.551533
vt 0.557622 0.174786
vt 0.557203 0.059917
vt 0.625157 0.058771
vt 0.011108 0.114226
vt 0.013178 0.179316
vt 0.598826 0.170919
vt 0.625210 0.171001
vt 0.624906 0.292488
vt 0.558568 0.292508
vt 0.625078 0.223379
vt 0.625051 0.234171
vt 0.223017 0.763696
vt 0.212263 0.763738
vt 0.217565 0.701977
vt 0.228319 0.701935
vt 0.859665 0.176239
vt 0.840470 0.176328
vt 0.418435 0.424761
vt 0.418404 0.468227
vt 0.464128 0.280166
vt 0.472056 0.351675
vt 0.418316 0.350141
vt 0.426639 0.091824
vt 0.426734 0.146766
vt 0.429602 0.037187
vt 0.441392 0.000000
vt 0.466795 0.632532
vt 0.467589 0.682614
vt 0.416708 0.660066
vt 0.301265 0.539219
vt 0.301978 0.485530
vt 0.359566 0.491467
vt 0.358146 0.541547
vt 0.964023 0.937540
vt 0.912542 0.934709
vt 0.912542 0.868297
vt 0.964023 0.871128
vt 0.078924 0.806614
vt 0.130961 0.806871
vt 0.130961 0.833254
vt 0.761669 0.820557
vt 0.761971 0.884133
vt 0.761669 0.921388
vt 0.130961 0.934127
vt 0.081202 0.927077
vt 0.079619 0.893138
vt 0.472269 0.823668
vt 0.472019 0.763785
vt 0.472269 0.737161
vt 0.619866 0.901774
vt 0.619462 0.919416
vt 0.556112 0.918486
vt 0.556516 0.900843
vt 0.991787 0.523900
vt 0.939750 0.522902
vt 0.939750 0.458704
vt 0.991787 0.459702
vt 0.075000 0.689406
vt 0.533075 0.069750
vt 0.485913 0.193507
vt 0.527263 0.133435
vt 0.408566 0.550810
vt 0.367188 0.543841
vt 0.368721 0.482090
vt 0.407422 0.496025
vt 0.435189 0.202322
vt 0.754004 0.870221
vt 0.754004 0.903987
vt 0.749334 0.900769
vt 0.750538 0.871469
vt 0.539730 0.616663
vt 0.565414 0.625951
vt 0.545107 0.655859
vt 0.024450 0.648655
vt 0.031474 0.677954
vt 0.028548 0.672192
vt 0.257269 0.536876
vt 0.572207 0.014421
vt 0.537605 0.026719
vt 0.580510 0.000000
vt 0.612135 0.002199
vt 0.482932 0.235168
vt 0.480387 0.294332
vt 0.624471 0.467439
vt 0.557672 0.470629
vt 0.624761 0.350805
vt 0.737664 0.728285
vt 0.737664 0.783228
vt 0.737664 0.838170
vt 0.523956 0.474564
vt 0.486657 0.408415
vt 0.557772 0.546410
vt 0.531391 0.546928
vt 0.624274 0.546501
vt 0.624340 0.519876
vt 0.990864 0.184219
vt 0.962624 0.196943
vt 0.962624 0.138832
vt 0.994348 0.132044
vt 0.789740 0.935919
vt 0.793258 0.990794
vt 0.761669 0.988733
vt 0.761669 0.929000
vt 0.540047 0.956466
vt 0.540047 0.922470
vt 0.543512 0.923725
vt 0.749334 0.944281
vt 0.749334 0.911599
vt 0.753634 0.940582
vt 0.255396 0.420485
vt 0.255605 0.459284
vt 0.472764 0.420363
vt 0.472651 0.459162
vt 0.837208 0.820659
vt 0.837039 0.794037
vt 0.904464 0.794519
vt 0.904633 0.821141
vt 0.837039 0.880490
vt 0.904464 0.880972
vt 0.837494 0.914359
vt 0.904919 0.914841
vt 0.822073 0.625873
vt 0.762533 0.606358
vt 0.624936 0.606381
vt 0.343935 0.870937
vt 0.343088 0.924145
vt 0.316190 0.931765
vt 0.315814 0.873383
vt 0.857832 0.225214
vt 0.837261 0.217368
vt 0.356450 0.591727
vt 0.263224 0.701677
vt 0.263224 0.482090
vt 0.125734 0.104985
vt 0.063750 0.106295
vt 0.187723 0.103926
vt 0.240631 0.109841
vt 0.888257 0.006840
vt 0.941052 0.000000
vt 0.941052 0.017656
vt 0.941001 0.076836
vt 0.940928 0.124432
vt 0.888891 0.124356
vt 0.071062 0.863845
vt 0.071060 0.816320
vt 0.071062 0.806614
vt 0.888983 0.067104
vt 0.189124 0.180749
vt 0.065294 0.183115
vt 0.064116 0.123947
vt 0.188033 0.121579
vt 0.255396 0.831623
vt 0.255396 0.813968
vt 0.308192 0.820808
vt 0.469908 0.881146
vt 0.469910 0.890851
vt 0.469908 0.938369
vt 0.307466 0.881072
vt 0.307557 0.938324
vt 0.255520 0.938399
vt 0.255447 0.890804
vt 0.202039 0.924063
vt 0.138664 0.924073
vt 0.202039 0.806614
vt 0.138664 0.806624
vt 0.619866 0.795020
vt 0.619257 0.842589
vt 0.555907 0.841659
vt 0.556516 0.794090
vt 0.866500 0.768781
vt 0.867110 0.709590
vt 0.930480 0.708717
vt 0.929870 0.767907
vt 0.866905 0.786425
vt 0.930274 0.785552
vt 0.866500 0.662015
vt 0.929870 0.661141
vt 0.890269 0.984641
vt 0.837039 0.986719
vt 0.837039 0.924531
vt 0.890269 0.922453
vt 0.837289 0.489775
vt 0.904715 0.489984
vt 0.989510 0.450369
vt 0.939750 0.451092
vt 0.939750 0.382702
vt 0.989510 0.381980
vt 0.829417 0.883985
vt 0.829114 0.921240
vt 0.829114 0.820409
vt 0.829389 0.794037
vt 0.761944 0.794185
vt 0.837563 0.616960
vt 0.989400 0.302189
vt 0.937997 0.301116
vt 0.937997 0.234704
vt 0.989400 0.235777
vt 0.342746 0.816943
vt 0.315814 0.813968
vt 0.364141 0.474478
vt 0.309874 0.471890
vt 0.418397 0.471829
vt 0.784336 0.678512
vt 0.764288 0.669974
vt 0.807106 0.681746
vt 0.623241 0.669970
vt 0.603208 0.678548
vt 0.580440 0.681799
vt 0.857831 0.002676
vt 0.837261 0.009487
vt 0.878369 0.053402
vt 0.879949 0.115431
vt 0.878369 0.175738
vt 0.880634 0.227092
vt 0.880634 0.000000
vn -0.097600 -0.063800 0.993200
vn -0.844000 -0.533400 -0.056200
vn -0.968100 0.160900 -0.192000
vn -0.876300 0.293600 -0.381900
vn -0.798900 0.395300 -0.453400
vn -0.965500 -0.161800 -0.203900
vn -0.579600 -0.809600 -0.092400
vn -0.027900 -0.974300 0.223700
vn -0.750500 -0.653300 0.099200
vn -0.641100 -0.765700 0.052600
vn -0.034400 -0.991400 0.126000
vn -0.000400 0.000400 1.000000
vn 0.942800 -0.329400 -0.051000
vn -0.658100 -0.752500 0.025200
vn -0.666100 -0.745900 0.007900
vn -0.445500 -0.895200 0.006100
vn -0.010700 -0.999900 0.006000
vn -0.857500 -0.512400 -0.046700
vn -0.906700 -0.421300 0.023000
vn -0.008500 -1.000000 0.003800
vn -0.018800 -0.999800 0.006900
vn -1.000000 0.000000 0.000000
vn 0.998900 0.000700 0.046500
vn -0.961700 0.274100 0.002400
vn -0.977100 0.212700 -0.002900
vn -0.988300 -0.152500 -0.005500
vn -0.950400 -0.308300 -0.040800
vn -0.563200 -0.826100 -0.021600
vn -0.743300 0.649800 -0.159200
vn -0.592900 0.712000 -0.376300
vn -0.209600 0.613000 -0.761800
vn -0.510600 0.453900 -0.730200
vn -0.008400 0.641600 -0.767000
vn 0.000000 0.865600 -0.500800
vn 0.614500 0.501400 -0.609000
vn 0.385200 0.427100 -0.818100
vn 0.773900 0.625000 -0.102000
vn 0.806600 0.456200 -0.375900
vn 0.531600 0.656900 -0.534700
vn 0.277700 0.368600 -0.887100
vn -0.977300 0.211800 -0.009600
vn -0.996200 -0.087500 -0.004100
vn -0.034200 0.866600 0.497800
vn -0.096200 -0.217400 -0.971300
vn -0.096000 -0.216800 -0.971500
vn -0.024400 0.985600 -0.167300
vn 0.000000 0.985300 -0.171100
vn -0.013400 0.980600 -0.195500
vn -0.278200 0.898600 -0.339400
vn 0.000000 0.998500 -0.054200
vn 0.048200 0.993100 -0.107100
vn -0.004800 0.994000 -0.109100
vn -0.551800 0.831700 -0.061400
vn -0.553400 0.819400 -0.149700
vn 0.000000 0.937200 -0.348700
vn -0.077500 0.997000 -0.006900
vn -0.471800 0.881700 0.008300
vn 0.000000 0.994600 0.104200
vn 0.000000 0.998600 0.053200
vn -0.632500 0.774600 0.002200
vn -0.442100 0.871900 0.210500
vn -0.004800 0.923700 0.383000
vn -0.011800 0.942200 0.334800
vn -0.004000 0.941100 0.338000
vn -0.562100 0.811500 0.159700
vn -0.023300 0.995000 0.096700
vn -0.497200 0.864900 0.069200
vn -0.140600 0.013900 0.990000
vn -0.021800 -0.999700 0.014100
vn -0.021700 -0.999700 0.014100
vn 0.000000 -1.000000 0.006900
vn -0.001600 -1.000000 -0.002700
vn 0.000000 -1.000000 0.002900
vn 0.130800 -0.000400 -0.991400
vn 0.000000 -0.970300 0.241700
vn 0.000000 -0.989400 0.145500
vn -0.000200 -0.998400 -0.055700
vn -0.021100 -0.997200 -0.072200
vn -0.066900 -0.861700 -0.503000
vn 0.000000 -0.992800 -0.119900
vn -0.055100 0.770100 0.635500
vn -0.502900 0.683400 0.529300
vn -0.920300 0.211100 0.329300
vn -0.063000 0.297100 0.952800
vn -0.424200 0.905400 -0.018200
vn 0.000000 0.986000 -0.166900
vn -0.006100 0.927000 -0.375000
vn -0.444600 0.865800 -0.229800
vn -0.982600 0.170800 -0.073500
vn -0.552900 0.821700 -0.138400
vn -0.529800 0.671600 -0.517900
vn -0.406000 -0.823000 -0.397400
vn -0.000500 0.995400 0.095600
vn 0.000000 0.773600 0.633700
vn 0.000000 0.302400 0.953200
vn -0.039300 -0.064000 0.997200
vn -0.030500 0.866700 0.497800
vn -0.994300 -0.077400 -0.074000
vn -0.950600 0.310300 0.010500
vn -0.994400 -0.103900 0.017300
vn -0.810200 0.585800 0.017100
vn -0.960500 0.277800 -0.013800
vn -0.988900 -0.148500 0.001600
vn 0.115200 -0.993300 0.002100
vn 0.148200 -0.989000 0.002000
vn 0.180400 -0.983600 0.002100
vn -0.989000 -0.147900 0.001000
vn 0.097600 -0.063800 0.993200
vn 0.984800 0.157700 -0.073400
vn 0.843600 -0.534800 -0.048900
vn 0.626800 -0.724100 -0.287900
vn 0.944600 -0.242100 -0.221400
vn 0.013900 -0.974300 0.224600
vn 0.038000 -0.991800 0.122200
vn 0.651900 -0.756300 0.055300
vn 0.781900 -0.614800 0.103500
vn 1.000000 0.000000 0.000000
vn 0.008600 -0.999900 0.008400
vn 0.010700 -0.999900 0.003700
vn 0.436200 -0.371100 0.819700
vn 0.856400 -0.515600 -0.027800
vn 0.018800 -0.999800 0.006900
vn 0.000000 -0.999900 0.015100
vn 0.021100 -0.997200 -0.072200
vn 0.976800 0.214300 -0.002700
vn 0.978600 0.198500 0.053700
vn 0.898600 0.161700 -0.407900
vn 0.995900 -0.090700 -0.005400
vn 0.976500 0.215700 0.000200
vn 0.034200 0.866600 0.497800
vn 0.096100 -0.217600 -0.971300
vn 0.096200 -0.217900 -0.971200
vn 0.036900 0.983300 -0.178300
vn 0.222600 0.895300 -0.385900
vn 0.548100 0.823900 -0.144200
vn 0.530400 0.842900 -0.091100
vn 0.026700 0.994400 -0.101800
vn 0.077500 0.997000 -0.006900
vn 0.488400 0.872500 -0.009000
vn 0.625400 0.780300 0.006100
vn 0.499300 0.853300 0.150300
vn 0.014900 0.930600 0.365700
vn 0.564800 0.810200 0.156600
vn 0.024500 0.994900 0.097900
vn 0.512600 0.857200 0.049000
vn -0.005000 -0.014100 -0.999900
vn 0.021800 -0.999700 0.014100
vn -1.000000 0.000000 -0.001600
vn 0.000400 0.000400 1.000000
vn 0.069000 -0.864400 -0.498100
vn 0.053100 0.768600 0.637500
vn 0.071500 0.305900 0.949400
vn 0.922400 0.197300 0.331900
vn 0.497900 0.687400 0.528800
vn 0.521100 0.853400 0.013500
vn 0.439000 0.865800 -0.240200
vn 0.591300 0.652800 -0.473500
vn 0.559800 0.817800 -0.133900
vn 0.985000 0.150700 -0.084100
vn 0.507800 0.701200 -0.500400
vn 0.354400 -0.740400 -0.571100
vn 0.039300 -0.064000 0.997200
vn 0.030500 0.866700 0.497800
vn 0.994200 -0.077400 -0.074000
vn 0.994400 -0.103900 0.017300
vn 0.950600 0.310300 0.010500
vn -0.717800 -0.696100 0.013500
vn 0.962300 0.271200 -0.018900
vn 0.988900 -0.148500 0.001600
vn 0.989000 -0.147900 0.001000
vn 0.989000 -0.148100 0.001200
vn -0.587700 0.594600 -0.548700
vn 0.999900 0.000200 0.011600
vn -0.999900 0.000200 0.011600
vn -0.998900 0.000700 0.046500
vn -0.988400 -0.150600 -0.022100
vn -0.989200 -0.146100 -0.011600
vn 0.989200 -0.146100 -0.011600
vn 0.988100 -0.151100 -0.027300
vn 0.028600 0.704500 -0.709100
vn 0.591100 -0.437000 -0.678000
vn 0.083300 -0.102900 -0.991200
vn -0.002100 -1.000000 -0.001700
vn 0.034000 -0.999400 0.006200
vn -0.029000 -0.999600 0.003000
vn 0.031300 -0.999500 0.000400
vn 0.031500 -0.999500 0.000400
vn 0.032400 -0.999500 0.000200
vn 0.000000 -1.000000 -0.008800
vn -0.031300 -0.999500 0.000400
vn 0.663100 -0.748500 0.008100
vn 0.442000 -0.897000 0.004500
vn -0.029100 -0.999600 0.000500
vn -0.031500 -0.999500 0.000400
vn -1.000000 0.000000 -0.000100
vn 1.000000 0.000000 -0.000700
vn 1.000000 0.000000 -0.001600
vn 1.000000 0.000000 -0.000100
vn -0.130800 -0.000400 -0.991400
vn -1.000000 0.000000 -0.000700
vn 0.140600 0.013900 0.990000
vn 0.005000 -0.014100 -0.999900
vn -0.595700 -0.408100 -0.691800
vn -0.111600 -0.223000 -0.968400
vn -0.098000 -0.070500 -0.992700
vn -0.097800 -0.069900 -0.992700
vn 0.097800 -0.070400 -0.992700
vn 0.098000 -0.071000 -0.992700
o crown_victoria
usemtl crown_victoria
f 1/1/1 2/2/1 3/3/1
f 1/1/1 3/3/1 4/4/1
f 5/5/2 6/6/3 7/7/4
f 7/7/4 8/8/5 9/9/6
f 9/9/6 10/10/7 5/5/2
f 7/7/4 9/9/6 5/5/2
f 4/11/8 3/12/9 11/13/10
f 4/11/8 11/13/10 12/14/11
f 13/15/12 14/16/12 15/17/12
f 13/15/12 15/17/12 16/18/12
f 17/19/13 18/20/14 19/21/15
f 17/19/13 19/21/15 20/22/16
f 14/23/17 13/24/18 21/25/19
f 14/23/17 21/25/19 22/26/20
f 22/26/21 21/25/21 23/27/21
f 22/26/21 23/27/21 24/28/21
f 24/28/21 23/27/21 25/29/21
f 24/28/21 25/29/21 26/30/21
f 26/30/21 25/29/21 27/31/21
f 26/30/21 27/31/21 28/32/21
f 28/32/21 27/31/21 29/33/21
f 28/32/21 29/33/21 30/34/21
f 30/34/21 29/33/21 31/35/21
f 30/34/21 31/35/21 32/36/21
f 33/37/22 34/38/22 35/39/22
f 33/37/22 35/39/22 36/40/22
f 37/41/23 5/42/23 38/43/23
f 37/41/23 38/43/23 39/44/23
f 11/45/10 40/46/24 41/47/25
f 42/48/26 43/49/27 44/50/28
f 11/45/10 41/47/25 42/48/26
f 42/48/26 44/50/28 11/45/10
f 8/51/5 7/52/4 45/53/29
f 8/54/5 45/55/29 46/56/30
f 47/57/31 48/58/32 8/59/5
f 49/60/33 50/61/34 47/57/31
f 51/62/35 52/63/36 49/60/33
f 53/64/37 54/65/38 51/66/35
f 55/67/39 53/68/37 51/69/35
f 51/62/35 49/60/33 47/57/31
f 47/57/31 8/59/5 46/70/30
f 56/71/40 55/72/39 51/62/35
f 47/57/31 46/70/30 56/71/40
f 56/71/40 51/62/35 47/57/31
f 41/47/25 57/73/41 23/74/42
f 23/74/42 21/75/19 13/76/18
f 13/76/18 43/49/27 42/48/26
f 42/48/26 41/47/25 23/74/42
f 23/74/42 13/76/18 42/48/26
f 58/77/43 59/78/43 2/79/43
f 58/77/43 2/79/43 1/80/43
f 60/81/44 61/82/44 62/83/44
f 60/81/45 62/83/45 63/84/45
f 64/85/46 65/86/47 66/87/48
f 64/85/46 66/87/48 67/88/49
f 68/89/50 69/90/51 70/91/52
f 70/91/52 71/92/53 72/93/54
f 72/93/54 73/94/55 68/89/50
f 68/89/50 70/91/52 72/93/54
f 74/95/56 75/96/56 76/97/56
f 74/95/56 76/97/56 77/98/56
f 78/99/57 79/100/58 75/96/59
f 78/99/57 75/96/59 74/95/60
f 80/101/61 81/102/62 79/100/58
f 80/101/61 79/100/58 78/99/57
f 82/103/63 83/104/64 81/105/62
f 81/105/62 80/106/61 84/107/65
f 82/103/63 81/105/62 84/107/65
f 85/108/66 82/109/63 84/110/65
f 85/108/66 84/110/65 86/111/67
f 87/112/68 88/113/68 89/114/68
f 87/112/68 89/114/68 90/115/68
f 35/116/69 91/117/69 92/118/69
f 92/119/69 93/120/70 39/121/69
f 39/122/69 38/123/69 94/124/69
f 94/125/69 36/40/69 35/39/69
f 35/116/69 92/118/69 39/122/69
f 39/122/69 94/124/69 35/116/69
f 95/126/71 30/34/71 32/36/71
f 95/126/71 32/36/71 96/127/71
f 97/128/71 28/32/71 30/34/71
f 97/128/71 30/34/71 95/126/71
f 98/129/71 26/30/71 28/32/71
f 98/129/71 28/32/71 97/128/71
f 99/130/71 24/28/71 26/30/71
f 99/130/71 26/30/71 98/129/71
f 100/131/71 22/26/71 24/28/71
f 100/131/71 24/28/71 99/130/71
f 101/132/72 14/23/17 22/26/20
f 101/132/72 22/26/20 100/131/73
f 102/133/22 17/19/22 103/134/22
f 102/133/22 103/134/22 104/135/22
f 105/136/74 44/137/74 106/138/74
f 105/136/74 106/138/74 107/139/74
f 108/140/75 4/11/8 12/14/11
f 108/140/75 12/14/11 109/141/76
f 110/142/77 111/143/78 63/144/79
f 110/142/77 63/144/79 62/145/80
f 41/146/25 40/147/24 86/148/67
f 84/149/65 80/150/61 41/146/25
f 86/148/67 84/149/65 41/146/25
f 112/151/81 113/152/82 59/153/83
f 112/151/81 59/153/83 58/154/84
f 77/98/85 76/97/86 114/155/87
f 77/98/85 114/155/87 115/156/88
f 115/156/88 114/155/87 73/94/55
f 115/156/88 73/94/55 72/93/54
f 6/157/3 116/158/89 117/159/90
f 117/159/90 118/160/91 7/161/4
f 117/159/90 7/161/4 6/157/3
f 63/144/79 111/143/78 5/162/2
f 5/162/2 10/163/7 119/164/92
f 5/162/2 119/164/92 63/144/79
f 120/165/93 85/108/66 112/166/81
f 120/165/93 112/166/81 121/167/94
f 121/168/94 112/151/81 58/154/84
f 121/168/94 58/154/84 122/169/95
f 123/170/96 1/1/96 4/4/96
f 123/170/96 4/4/96 108/171/96
f 122/172/97 58/77/97 1/80/97
f 122/172/97 1/80/97 123/173/97
f 59/174/83 113/175/82 86/148/67
f 59/174/83 86/148/67 40/147/24
f 2/176/98 59/177/83 40/46/24
f 40/46/24 11/45/10 3/178/9
f 40/46/24 3/178/9 2/176/98
f 41/146/25 80/150/61 78/179/57
f 78/179/57 74/180/60 57/181/41
f 78/179/57 57/181/41 41/146/25
f 57/73/41 124/182/99 29/183/100
f 29/33/100 27/31/101 25/29/100
f 25/184/100 23/74/42 57/73/41
f 29/183/100 25/184/100 57/73/41
f 124/185/99 57/181/41 74/180/60
f 74/180/60 77/186/85 115/187/88
f 115/187/88 72/188/54 124/185/99
f 74/180/60 115/187/88 124/185/99
f 124/185/99 72/188/54 71/189/53
f 124/185/99 71/189/53 125/190/102
f 124/182/103 125/191/103 126/192/103
f 126/192/104 31/193/105 29/183/106
f 126/192/107 29/183/107 124/182/107
f 127/194/108 128/195/108 129/196/108
f 127/194/108 129/196/108 130/197/108
f 54/198/38 131/199/109 88/200/110
f 88/200/110 132/201/111 133/202/112
f 133/202/112 51/203/35 54/198/38
f 88/200/110 133/202/112 54/198/38
f 128/204/113 134/205/114 135/206/115
f 128/204/113 135/206/115 129/207/116
f 43/208/117 136/209/117 137/210/117
f 17/19/22 20/22/22 103/134/22
f 138/211/118 139/212/119 140/213/120
f 138/211/118 140/213/120 102/214/121
f 139/212/122 141/215/122 142/216/122
f 139/212/122 142/216/122 140/213/122
f 141/215/122 143/217/122 144/218/122
f 141/215/122 144/218/122 142/216/122
f 143/217/122 145/219/122 146/220/122
f 143/217/122 146/220/122 144/218/122
f 145/219/122 147/221/122 148/222/122
f 145/219/122 148/222/122 146/220/122
f 147/221/122 149/223/122 150/224/122
f 147/221/122 150/224/122 148/222/122
f 31/225/117 126/226/117 93/227/117
f 31/225/117 93/227/117 92/228/117
f 33/229/123 111/143/78 110/142/77
f 110/142/77 87/230/124 151/231/123
f 152/232/123 149/223/123 96/127/123
f 110/142/77 151/231/123 152/232/123
f 34/233/123 33/229/123 110/142/77
f 96/127/123 32/36/123 34/233/123
f 110/142/77 152/232/123 96/127/123
f 110/142/77 96/127/123 34/233/123
f 153/234/125 154/235/126 135/236/115
f 135/206/115 18/237/14 17/238/13
f 155/239/127 153/234/125 135/236/115
f 135/236/115 17/240/13 155/239/127
f 142/241/128 156/242/129 153/234/125
f 153/234/125 155/239/127 17/240/13
f 102/243/121 140/244/120 142/241/128
f 153/234/125 17/240/13 102/243/121
f 153/234/125 102/243/121 142/241/128
f 157/245/130 127/246/130 130/247/130
f 157/245/130 130/247/130 158/248/130
f 159/249/131 160/250/131 62/83/131
f 159/249/132 62/83/132 61/82/132
f 161/251/133 162/252/134 66/87/48
f 161/251/133 66/87/48 65/86/47
f 68/89/50 73/94/55 163/253/135
f 163/253/135 164/254/136 165/255/137
f 165/255/137 69/90/51 68/89/50
f 68/89/50 163/253/135 165/255/137
f 166/256/138 167/257/138 76/97/138
f 166/256/138 76/97/138 75/96/138
f 168/258/139 166/256/140 75/96/59
f 168/258/139 75/96/59 79/100/58
f 169/259/141 168/258/139 79/100/58
f 169/259/141 79/100/58 81/102/62
f 170/260/142 171/261/143 169/262/141
f 169/262/141 81/105/62 83/104/64
f 170/260/142 169/262/141 83/104/64
f 172/263/144 173/264/145 171/265/143
f 172/263/144 171/265/143 170/266/142
f 32/267/146 31/268/146 92/269/146
f 32/267/146 92/269/146 91/270/146
f 174/271/147 175/272/147 176/273/147
f 176/274/147 177/275/147 90/276/147
f 90/277/147 89/278/147 178/279/147
f 178/280/147 179/281/147 174/282/147
f 174/271/147 176/273/147 90/277/147
f 90/277/147 178/279/147 174/271/147
f 95/126/71 96/127/71 149/223/71
f 95/126/71 149/223/71 147/221/71
f 97/128/71 95/126/71 147/221/71
f 97/128/71 147/221/71 145/219/71
f 98/129/71 97/128/71 145/219/71
f 98/129/71 145/219/71 143/217/71
f 99/130/71 98/129/71 143/217/71
f 99/130/71 143/217/71 141/215/71
f 100/131/71 99/130/71 141/215/71
f 100/131/71 141/215/71 139/212/71
f 101/132/72 100/131/73 139/212/119
f 101/132/72 139/212/119 138/211/118
f 180/283/148 105/284/148 107/285/148
f 180/283/148 107/285/148 181/286/148
f 138/287/149 102/288/149 104/289/149
f 138/287/149 104/289/149 182/290/149
f 108/140/75 109/141/76 134/205/114
f 108/140/75 134/205/114 128/204/113
f 110/142/77 62/145/80 160/291/150
f 110/142/77 160/291/150 87/230/124
f 173/292/145 154/235/126 153/234/125
f 153/234/125 169/293/141 171/294/143
f 153/234/125 171/294/143 173/292/145
f 183/295/151 157/296/152 158/297/153
f 183/295/151 158/297/153 184/298/154
f 167/257/155 185/299/156 114/155/87
f 167/257/155 114/155/87 76/97/86
f 185/299/156 163/253/135 73/94/55
f 185/299/156 73/94/55 114/155/87
f 162/300/134 53/301/37 55/302/39
f 162/300/134 55/302/39 186/303/157
f 187/304/158 188/305/159 131/199/109
f 131/199/109 54/198/38 189/306/160
f 131/199/109 189/306/160 187/304/158
f 88/307/110 87/230/124 160/291/150
f 160/291/150 190/308/161 132/309/111
f 160/291/150 132/309/111 88/307/110
f 120/165/93 121/167/94 183/310/151
f 120/165/93 183/310/151 172/263/144
f 121/168/94 122/169/95 157/296/152
f 121/168/94 157/296/152 183/295/151
f 123/170/162 108/171/162 128/195/162
f 123/170/162 128/195/162 127/194/162
f 122/172/163 123/173/163 127/246/163
f 122/172/163 127/246/163 157/245/163
f 158/311/153 154/235/126 173/292/145
f 158/311/153 173/292/145 184/312/154
f 154/235/126 158/311/153 130/313/164
f 130/313/164 129/314/116 135/236/115
f 130/313/164 135/236/115 154/235/126
f 168/315/139 169/293/141 153/234/125
f 153/234/125 156/242/129 166/316/140
f 153/234/125 166/316/140 168/315/139
f 148/317/165 191/318/166 156/242/129
f 156/242/129 142/241/128 144/319/165
f 144/320/165 146/321/167 148/322/165
f 156/242/129 144/319/165 148/317/165
f 166/316/140 156/242/129 191/318/166
f 191/318/166 163/323/135 185/324/156
f 185/299/156 167/257/155 166/256/140
f 191/318/166 185/324/156 166/316/140
f 191/318/166 192/325/168 164/326/136
f 191/318/166 164/326/136 163/323/135
f 193/327/169 192/325/169 191/318/169
f 191/318/170 148/317/170 150/328/170
f 191/318/171 150/328/171 193/327/171
f 189/329/160 54/330/38 53/331/37
f 189/329/160 53/331/37 162/332/134
f 118/333/91 67/334/49 45/335/29
f 118/333/91 45/335/29 7/336/4
f 45/337/29 67/338/49 194/339/172
f 45/340/29 194/341/172 46/342/30
f 117/343/90 64/85/46 67/88/49
f 117/343/90 67/88/49 118/344/91
f 187/345/158 189/346/160 162/252/134
f 187/345/158 162/252/134 161/251/133
f 164/254/136 187/345/158 161/251/133
f 164/254/136 161/251/133 165/255/137
f 71/92/53 70/91/52 64/85/46
f 71/92/53 64/85/46 117/343/90
f 192/325/168 188/305/159 187/304/158
f 192/325/168 187/304/158 164/326/136
f 165/255/137 161/251/133 65/86/47
f 165/255/137 65/86/47 69/90/51
f 125/190/102 71/189/53 117/159/90
f 125/190/102 117/159/90 116/158/89
f 70/91/52 69/90/51 65/86/47
f 70/91/52 65/86/47 64/85/46
f 126/226/173 37/41/173 39/44/173
f 126/226/173 39/44/173 93/227/173
f 193/347/22 150/348/22 174/349/22
f 193/347/22 174/349/22 179/350/22
f 195/351/174 193/347/174 179/350/174
f 195/351/174 179/350/174 178/352/174
f 88/353/175 195/351/175 178/352/175
f 88/353/175 178/352/175 89/354/175
f 125/191/102 116/355/89 37/356/176
f 125/191/102 37/356/176 126/192/177
f 192/325/168 193/327/178 195/357/179
f 192/325/168 195/357/179 188/305/159
f 116/355/89 6/6/3 5/5/2
f 116/355/89 5/5/2 37/356/176
f 188/305/159 195/357/179 88/200/110
f 188/305/159 88/200/110 131/199/109
f 196/358/180 186/359/157 55/360/39
f 196/358/180 55/360/39 56/361/40
f 197/362/181 190/363/161 160/250/150
f 197/362/181 160/250/150 159/249/182
f 83/364/64 120/165/93 172/263/144
f 83/364/64 172/263/144 170/266/142
f 83/364/64 82/109/63 85/108/66
f 83/364/64 85/108/66 120/165/93
f 112/166/81 85/108/66 86/111/67
f 112/166/81 86/111/67 113/365/82
f 183/310/151 184/366/154 173/264/145
f 183/310/151 173/264/145 172/263/144
f 109/141/76 198/367/183 199/368/184
f 109/141/76 199/368/184 134/205/114
f 134/205/114 199/368/184 18/237/14
f 134/205/114 18/237/14 135/206/115
f 109/141/76 12/14/11 105/369/185
f 109/141/76 105/369/185 198/367/183
f 12/14/11 11/13/10 44/370/28
f 12/14/11 44/370/28 105/369/185
f 19/371/15 200/372/186 201/373/186
f 202/374/186 182/375/186 104/376/187
f 19/371/15 201/373/186 202/374/186
f 104/377/187 103/378/188 20/379/16
f 20/380/16 19/371/15 202/374/186
f 202/374/186 104/376/187 20/380/16
f 203/381/189 14/23/17 101/132/72
f 101/132/72 138/211/118 204/382/189
f 205/383/189 199/368/184 198/367/183
f 101/132/72 204/382/189 205/383/189
f 180/384/189 203/381/189 101/132/72
f 198/367/183 105/369/185 180/384/189
f 101/132/72 205/383/189 198/367/183
f 180/384/189 101/132/72 198/367/183
f 181/385/190 107/386/190 106/387/191
f 137/388/192 136/389/193 16/390/194
f 181/385/190 106/387/191 137/391/192
f 16/392/194 15/393/190 206/394/190
f 206/394/190 181/385/190 137/391/192
f 137/391/192 16/392/194 206/394/190
f 43/208/117 13/395/117 16/396/117
f 43/208/117 16/396/117 136/209/117
f 44/397/28 43/208/27 137/210/192
f 44/397/28 137/210/192 106/398/191
f 14/399/195 203/400/195 206/401/195
f 14/399/195 206/401/195 15/402/195
f 205/403/196 204/404/196 202/405/196
f 205/403/196 202/405/196 201/406/196
f 199/407/197 205/403/197 201/406/197
f 199/407/197 201/406/197 200/408/197
f 204/404/198 138/409/198 182/410/198
f 204/404/198 182/410/198 202/405/198
f 18/411/199 199/412/199 200/413/199
f 18/411/199 200/413/199 19/414/199
f 203/400/200 180/283/200 181/286/200
f 203/400/200 181/286/200 206/401/200
f 34/38/22 32/415/22 91/416/22
f 34/38/22 91/416/22 35/39/22
f 5/417/201 111/418/201 94/419/201
f 5/417/201 94/419/201 38/420/201
f 151/421/117 87/422/117 90/276/117
f 151/421/117 90/276/117 177/275/117
f 152/423/117 151/421/117 177/275/117
f 152/423/117 177/275/117 176/274/117
f 149/424/117 152/423/117 176/274/117
f 149/424/117 176/274/117 175/425/117
f 111/426/22 33/37/22 36/40/22
f 111/426/22 36/40/22 94/125/22
f 150/427/202 149/428/202 175/429/202
f 150/427/202 175/429/202 174/430/202
f 194/431/172 196/358/180 56/361/40
f 194/431/172 56/361/40 46/432/30
f 66/87/48 196/433/180 194/434/172
f 66/87/48 194/434/172 67/88/49
f 162/252/134 186/435/157 196/433/180
f 162/252/134 196/433/180 66/87/48
f 207/436/203 119/437/92 10/10/7
f 207/436/203 10/10/7 9/9/6
f 48/438/32 207/436/203 9/9/6
f 48/438/32 9/9/6 8/8/5
f 133/202/112 132/201/111 190/439/161
f 133/202/112 190/439/161 197/440/181
f 51/203/35 133/202/112 197/440/181
f 51/203/35 197/440/181 52/441/36
f 207/442/203 60/81/204 63/84/79
f 207/442/203 63/84/79 119/443/92
f 47/444/205 50/445/205 61/82/205
f 47/444/206 61/82/206 60/81/206
f 49/446/207 159/249/207 61/82/207
f 49/446/208 61/82/208 50/445/208
f 52/447/36 197/362/181 159/249/182
f 52/447/36 159/249/182 49/446/33
f 48/448/32 47/444/31 60/81/204
f 48/448/32 60/81/204 207/442/203
