# PSX Racing car model — generated by tools/carmodels/export_models.mjs
mtllib crown_victoria_wheels_f.mtl
v -0.934721 0.621541 -1.721623
v -0.934721 0.636779 -1.771858
v -0.912014 0.626090 -1.773985
v -0.912014 0.611471 -1.725794
v -0.912014 0.275831 -1.586767
v -0.912014 0.324021 -1.572149
v -0.912014 0.374138 -1.567213
v -0.912014 0.424254 -1.572149
v -0.912014 0.472445 -1.586767
v -0.912014 0.516857 -1.610506
v -0.912014 0.555785 -1.642454
v -0.912014 0.587732 -1.681381
v -0.912014 0.631026 -1.824101
v -0.912014 0.626090 -1.874217
v -0.912014 0.611471 -1.922408
v -0.912014 0.587732 -1.966820
v -0.912014 0.555785 -2.005749
v -0.912014 0.516857 -2.037696
v -0.912014 0.472445 -2.061435
v -0.912014 0.424254 -2.076053
v -0.912014 0.374138 -2.080989
v -0.912014 0.324021 -2.076053
v -0.912014 0.275831 -2.061435
v -0.912014 0.231418 -2.037696
v -0.912014 0.192490 -2.005749
v -0.912014 0.160543 -1.966820
v -0.912014 0.136804 -1.922408
v -0.912014 0.122186 -1.874217
v -0.912014 0.117250 -1.824101
v -0.912014 0.122186 -1.773985
v -0.912014 0.136804 -1.725794
v -0.912014 0.160543 -1.681381
v -0.912014 0.192490 -1.642454
v -0.912014 0.231418 -1.610506
v -0.934721 0.225363 -2.046758
v -0.934721 0.184784 -2.013455
v -0.934721 0.596794 -1.675326
v -0.934721 0.271660 -2.071504
v -0.934721 0.321895 -1.561460
v -0.934721 0.374138 -1.556314
v -0.934721 0.563492 -1.634747
v -0.934721 0.321895 -2.086742
v -0.934721 0.271660 -1.576698
v -0.934721 0.522912 -1.601444
v -0.934721 0.374138 -2.091888
v -0.934721 0.225363 -1.601444
v -0.934721 0.476615 -1.576698
v -0.934721 0.426380 -2.086742
v -0.934721 0.184784 -1.634747
v -0.934721 0.426380 -1.561460
v -0.934721 0.476615 -2.071504
v -0.934721 0.151481 -1.675326
v -0.934721 0.522912 -2.046758
v -0.934721 0.126735 -1.721623
v -0.934721 0.563492 -2.013455
v -0.934721 0.111496 -1.771858
v -0.934721 0.596794 -1.972875
v -0.934721 0.106351 -1.824101
v -0.934721 0.621541 -1.926579
v -0.934721 0.111496 -1.876344
v -0.934721 0.636779 -1.876344
v -0.934721 0.126735 -1.926579
v -0.934721 0.641925 -1.824101
v -0.934721 0.151481 -1.972875
v -0.670348 0.374138 -1.449963
v -0.934721 0.374138 -1.449963
v -0.934721 0.301147 -1.457152
v -0.670348 0.301147 -1.457152
v -0.934721 0.230961 -1.478443
v -0.670348 0.230961 -1.478443
v -0.934721 0.166278 -1.513017
v -0.670348 0.166278 -1.513017
v -0.934721 0.109582 -1.559546
v -0.670348 0.109582 -1.559545
v -0.934721 0.063054 -1.616241
v -0.670348 0.063054 -1.616241
v -0.934721 0.028480 -1.680925
v -0.670348 0.028480 -1.680925
v -0.934721 0.007189 -1.751110
v -0.670348 0.007189 -1.751110
v -0.934721 0.000000 -1.824101
v -0.670348 0.000000 -1.824101
v -0.934721 0.007189 -1.897092
v -0.670348 0.007189 -1.897091
v -0.934721 0.028480 -1.967277
v -0.670348 0.028480 -1.967277
v -0.934721 0.063054 -2.031961
v -0.670348 0.063054 -2.031960
v -0.934721 0.109582 -2.088656
v -0.670348 0.109582 -2.088656
v -0.934721 0.166278 -2.135185
v -0.670348 0.166278 -2.135185
v -0.934721 0.230961 -2.169759
v -0.670348 0.230961 -2.169759
v -0.934721 0.301147 -2.191050
v -0.670348 0.301147 -2.191050
v -0.934721 0.374138 -2.198238
v -0.670348 0.374138 -2.198238
v -0.934721 0.447128 -2.191050
v -0.670348 0.447128 -2.191050
v -0.934721 0.517314 -2.169759
v -0.670348 0.517314 -2.169759
v -0.934721 0.581998 -2.135185
v -0.670348 0.581998 -2.135185
v -0.934721 0.638693 -2.088656
v -0.670348 0.638693 -2.088656
v -0.934721 0.685222 -2.031961
v -0.670348 0.685222 -2.031960
v -0.934721 0.719796 -1.967277
v -0.670348 0.719796 -1.967277
v -0.934721 0.741086 -1.897092
v -0.670348 0.741086 -1.897091
v -0.934721 0.748275 -1.824101
v -0.670348 0.748275 -1.824101
v -0.934721 0.741086 -1.751110
v -0.670348 0.741086 -1.751110
v -0.934721 0.719796 -1.680925
v -0.670348 0.719796 -1.680925
v -0.934721 0.685222 -1.616241
v -0.670348 0.685222 -1.616241
v -0.934721 0.638693 -1.559546
v -0.670348 0.638693 -1.559545
v -0.934721 0.581998 -1.513017
v -0.670348 0.581998 -1.513017
v -0.934721 0.517314 -1.478443
v -0.670348 0.517314 -1.478443
v -0.934721 0.447128 -1.457152
v -0.670348 0.447128 -1.457152
v 0.934722 0.621541 -1.926578
v 0.934722 0.636779 -1.876343
v 0.912014 0.626090 -1.874217
v 0.912014 0.611471 -1.922408
v 0.912014 0.275831 -2.061435
v 0.912014 0.324021 -2.076053
v 0.912014 0.374138 -2.080989
v 0.912014 0.424254 -2.076053
v 0.912014 0.472445 -2.061435
v 0.912014 0.516857 -2.037695
v 0.912014 0.555785 -2.005748
v 0.912014 0.587732 -1.966820
v 0.912014 0.631026 -1.824101
v 0.912014 0.626090 -1.773984
v 0.912014 0.611471 -1.725794
v 0.912015 0.587732 -1.681381
v 0.912015 0.555785 -1.642453
v 0.912015 0.516857 -1.610506
v 0.912015 0.472445 -1.586767
v 0.912015 0.424254 -1.572149
v 0.912015 0.374138 -1.567213
v 0.912015 0.324021 -1.572149
v 0.912015 0.275831 -1.586767
v 0.912014 0.231418 -1.610506
v 0.912014 0.192490 -1.642453
v 0.912014 0.160543 -1.681381
v 0.912014 0.136804 -1.725794
v 0.912014 0.122186 -1.773984
v 0.912014 0.117250 -1.824101
v 0.912014 0.122186 -1.874217
v 0.912014 0.136804 -1.922408
v 0.912014 0.160543 -1.966820
v 0.912014 0.192490 -2.005748
v 0.912014 0.231418 -2.037695
v 0.934722 0.225363 -1.601444
v 0.934722 0.184784 -1.634747
v 0.934722 0.596794 -1.972875
v 0.934722 0.271660 -1.576698
v 0.934722 0.321895 -2.086742
v 0.934722 0.374138 -2.091888
v 0.934722 0.563492 -2.013455
v 0.934722 0.321895 -1.561459
v 0.934722 0.271660 -2.071503
v 0.934722 0.522912 -2.046757
v 0.934722 0.374138 -1.556314
v 0.934722 0.225363 -2.046757
v 0.934722 0.476615 -2.071503
v 0.934722 0.426380 -1.561459
v 0.934722 0.184784 -2.013455
v 0.934722 0.426380 -2.086742
v 0.934722 0.476615 -1.576698
v 0.934722 0.151481 -1.972875
v 0.934722 0.522912 -1.601444
v 0.934722 0.126735 -1.926578
v 0.934722 0.563492 -1.634747
v 0.934722 0.111496 -1.876343
v 0.934722 0.596794 -1.675326
v 0.934722 0.106351 -1.824101
v 0.934722 0.621541 -1.721623
v 0.934722 0.111496 -1.771858
v 0.934722 0.636779 -1.771858
v 0.934722 0.126735 -1.721623
v 0.934722 0.641925 -1.824101
v 0.934722 0.151481 -1.675326
v 0.670348 0.374138 -2.198238
v 0.934722 0.374138 -2.198239
v 0.934722 0.301147 -2.191050
v 0.670348 0.301147 -2.191050
v 0.934722 0.230961 -2.169759
v 0.670348 0.230961 -2.169759
v 0.934722 0.166278 -2.135185
v 0.670348 0.166278 -2.135185
v 0.934722 0.109582 -2.088656
v 0.670348 0.109582 -2.088656
v 0.934722 0.063054 -2.031960
v 0.670348 0.063054 -2.031960
v 0.934722 0.028480 -1.967277
v 0.670348 0.028480 -1.967277
v 0.934722 0.007189 -1.897091
v 0.670348 0.007189 -1.897091
v 0.934722 0.000000 -1.824101
v 0.670348 0.000000 -1.824101
v 0.934722 0.007189 -1.751110
v 0.670348 0.007189 -1.751110
v 0.934722 0.028480 -1.680924
v 0.670348 0.028480 -1.680924
v 0.934722 0.063054 -1.616241
v 0.670348 0.063054 -1.616241
v 0.934722 0.109582 -1.559545
v 0.670348 0.109582 -1.559545
v 0.934722 0.166278 -1.513017
v 0.670348 0.166278 -1.513017
v 0.934722 0.230961 -1.478443
v 0.670348 0.230961 -1.478443
v 0.934722 0.301147 -1.457152
v 0.670348 0.301147 -1.457152
v 0.934722 0.374138 -1.449963
v 0.670348 0.374138 -1.449963
v 0.934722 0.447128 -1.457152
v 0.670348 0.447128 -1.457152
v 0.934722 0.517314 -1.478443
v 0.670348 0.517314 -1.478443
v 0.934722 0.581998 -1.513017
v 0.670348 0.581998 -1.513017
v 0.934722 0.638693 -1.559545
v 0.670348 0.638693 -1.559545
v 0.934722 0.685222 -1.616241
v 0.670348 0.685222 -1.616241
v 0.934722 0.719796 -1.680924
v 0.670348 0.719796 -1.680924
v 0.934722 0.741086 -1.751110
v 0.670348 0.741086 -1.751110
v 0.934722 0.748275 -1.824101
v 0.670348 0.748275 -1.824101
v 0.934722 0.741086 -1.897091
v 0.670348 0.741086 -1.897091
v 0.934722 0.719796 -1.967277
v 0.670348 0.719796 -1.967277
v 0.934722 0.685222 -2.031960
v 0.670348 0.685222 -2.031960
v 0.934722 0.638693 -2.088656
v 0.670348 0.638693 -2.088656
v 0.934722 0.581998 -2.135185
v 0.670348 0.581998 -2.135185
v 0.934722 0.517314 -2.169759
v 0.670348 0.517314 -2.169759
v 0.934722 0.447128 -2.191050
v 0.670348 0.447128 -2.191050
vt 0.853243 0.630470
vt 0.854937 0.624781
vt 0.858080 0.625682
vt 0.856456 0.631140
vt 0.384753 0.845633
vt 0.390826 0.843120
vt 0.397274 0.841840
vt 0.403848 0.841840
vt 0.410295 0.843120
vt 0.416368 0.845632
vt 0.421834 0.849279
vt 0.426483 0.853921
vt 0.430135 0.859379
vt 0.432650 0.865444
vt 0.433933 0.871882
vt 0.433933 0.878446
vt 0.432650 0.884884
vt 0.430135 0.890949
vt 0.426483 0.896407
vt 0.421834 0.901048
vt 0.416368 0.904695
vt 0.410295 0.907207
vt 0.403848 0.908488
vt 0.397274 0.908488
vt 0.390826 0.907207
vt 0.384753 0.904695
vt 0.379287 0.901048
vt 0.374639 0.896407
vt 0.370987 0.890949
vt 0.368471 0.884884
vt 0.367188 0.878446
vt 0.367188 0.871882
vt 0.368471 0.865444
vt 0.370987 0.859379
vt 0.374639 0.853921
vt 0.379287 0.849279
vt 0.588182 0.772453
vt 0.588182 0.779165
vt 0.585218 0.778752
vt 0.585218 0.772314
vt 0.852077 0.636792
vt 0.855337 0.637205
vt 0.588182 0.765611
vt 0.585218 0.765750
vt 0.595805 0.765221
vt 0.595805 0.758899
vt 0.598769 0.759569
vt 0.598769 0.765634
vt 0.851482 0.643503
vt 0.854767 0.643643
vt 0.588182 0.758899
vt 0.585218 0.759312
vt 0.595805 0.771932
vt 0.598769 0.772072
vt 0.851482 0.650346
vt 0.854767 0.650207
vt 0.240779 0.873617
vt 0.239086 0.879307
vt 0.235942 0.878406
vt 0.237566 0.872948
vt 0.595805 0.778775
vt 0.598769 0.778636
vt 0.852077 0.657057
vt 0.855337 0.656645
vt 0.241946 0.867295
vt 0.238685 0.866883
vt 0.595805 0.785486
vt 0.598769 0.785074
vt 0.853243 0.663379
vt 0.856456 0.662710
vt 0.242540 0.860584
vt 0.239256 0.860445
vt 0.747048 0.799643
vt 0.748741 0.793954
vt 0.751885 0.794855
vt 0.750261 0.800313
vt 0.854936 0.669069
vt 0.858080 0.668167
vt 0.242540 0.853742
vt 0.239256 0.853881
vt 0.745881 0.805965
vt 0.749142 0.806378
vt 0.241946 0.847030
vt 0.238685 0.847443
vt 0.745287 0.812677
vt 0.748571 0.812816
vt 0.240779 0.840708
vt 0.237566 0.841378
vt 0.745287 0.819519
vt 0.748571 0.819380
vt 0.239086 0.835019
vt 0.235942 0.835920
vt 0.745881 0.826231
vt 0.749142 0.825818
vt 0.619943 0.772453
vt 0.619943 0.779165
vt 0.616979 0.778752
vt 0.616979 0.772314
vt 0.747048 0.832552
vt 0.750261 0.831883
vt 0.619943 0.765611
vt 0.616979 0.765750
vt 0.748741 0.838242
vt 0.751885 0.837341
vt 0.619943 0.758899
vt 0.616979 0.759312
vt 0.588182 0.785486
vt 0.585218 0.784817
vt 0.937997 0.363729
vt 0.972508 0.363729
vt 0.972508 0.371678
vt 0.937997 0.371678
vt 0.255396 0.976876
vt 0.255396 0.946011
vt 0.264786 0.946841
vt 0.264786 0.977705
vt 0.274360 0.946841
vt 0.274360 0.977705
vt 0.283751 0.946011
vt 0.283751 0.976876
vt 0.425932 0.916100
vt 0.460443 0.916100
vt 0.460443 0.924049
vt 0.425932 0.924049
vt 0.460443 0.932881
vt 0.425932 0.932881
vt 0.460443 0.942258
vt 0.425932 0.942258
vt 0.460443 0.951818
vt 0.425932 0.951818
vt 0.460443 0.961195
vt 0.425932 0.961195
vt 0.460443 0.970027
vt 0.425932 0.970027
vt 0.460443 0.977976
vt 0.425932 0.977976
vt 0.449247 0.727372
vt 0.418338 0.727372
vt 0.419168 0.717995
vt 0.450078 0.717995
vt 0.419168 0.708435
vt 0.450078 0.708435
vt 0.418338 0.699058
vt 0.449247 0.699058
vt 0.416708 0.690226
vt 0.447617 0.690226
vt 0.619729 0.751287
vt 0.585218 0.751288
vt 0.585218 0.743338
vt 0.619729 0.743338
vt 0.585218 0.734506
vt 0.619729 0.734506
vt 0.585218 0.725129
vt 0.619729 0.725129
vt 0.585218 0.715569
vt 0.619729 0.715569
vt 0.585218 0.706192
vt 0.619729 0.706192
vt 0.585218 0.697360
vt 0.619729 0.697360
vt 0.585218 0.689411
vt 0.619729 0.689411
vt 0.665372 0.981626
vt 0.634462 0.981626
vt 0.635293 0.972250
vt 0.666203 0.972250
vt 0.635293 0.962690
vt 0.666203 0.962690
vt 0.634462 0.953313
vt 0.665372 0.953313
vt 0.632833 0.944480
vt 0.663742 0.944480
vt 0.937997 0.309801
vt 0.972508 0.309801
vt 0.972508 0.317750
vt 0.937997 0.317750
vt 0.972508 0.326583
vt 0.937997 0.326583
vt 0.972508 0.335959
vt 0.937997 0.335959
vt 0.972508 0.345520
vt 0.937997 0.345520
vt 0.972508 0.354896
vt 0.937997 0.354896
vt 0.704459 0.752406
vt 0.695614 0.756065
vt 0.686224 0.757930
vt 0.676650 0.757930
vt 0.667259 0.756065
vt 0.658414 0.752406
vt 0.650454 0.747095
vt 0.643683 0.740334
vt 0.638364 0.732385
vt 0.634700 0.723553
vt 0.632833 0.714176
vt 0.632833 0.704616
vt 0.634701 0.695239
vt 0.638364 0.686407
vt 0.643684 0.678458
vt 0.650454 0.671697
vt 0.658414 0.666386
vt 0.667260 0.662728
vt 0.676650 0.660862
vt 0.686224 0.660862
vt 0.695614 0.662728
vt 0.704459 0.666386
vt 0.712420 0.671697
vt 0.719190 0.678458
vt 0.724509 0.686407
vt 0.728173 0.695239
vt 0.730041 0.704616
vt 0.730041 0.714176
vt 0.728173 0.723553
vt 0.724509 0.732385
vt 0.719190 0.740334
vt 0.712420 0.747095
vt 0.506815 0.764927
vt 0.512513 0.768729
vt 0.505969 0.780954
vt 0.498008 0.775643
vt 0.518844 0.771347
vt 0.514814 0.784613
vt 0.525565 0.772682
vt 0.524204 0.786478
vt 0.532418 0.772682
vt 0.533778 0.786478
vt 0.539138 0.771347
vt 0.543168 0.784613
vt 0.545470 0.768728
vt 0.552014 0.780954
vt 0.551167 0.764927
vt 0.559975 0.775643
vt 0.556013 0.760088
vt 0.566745 0.768883
vt 0.559820 0.754399
vt 0.572064 0.760934
vt 0.562442 0.748077
vt 0.575728 0.752101
vt 0.563779 0.741366
vt 0.577595 0.742724
vt 0.563779 0.734523
vt 0.577595 0.733164
vt 0.562442 0.727812
vt 0.575727 0.723788
vt 0.559820 0.721490
vt 0.572064 0.714955
vt 0.556013 0.715800
vt 0.566744 0.707006
vt 0.551167 0.710962
vt 0.559974 0.700246
vt 0.545470 0.707160
vt 0.552014 0.694934
vt 0.539138 0.704542
vt 0.543168 0.691276
vt 0.532417 0.703207
vt 0.533778 0.689411
vt 0.525565 0.703207
vt 0.524204 0.689411
vt 0.518844 0.704542
vt 0.514814 0.691276
vt 0.512513 0.707160
vt 0.505968 0.694934
vt 0.506815 0.710962
vt 0.498008 0.700246
vt 0.501969 0.715800
vt 0.491238 0.707006
vt 0.498162 0.721490
vt 0.485919 0.714955
vt 0.495540 0.727812
vt 0.482255 0.723788
vt 0.494203 0.734523
vt 0.480387 0.733164
vt 0.494203 0.741366
vt 0.480387 0.742725
vt 0.495540 0.748077
vt 0.482255 0.752101
vt 0.498162 0.754399
vt 0.485919 0.760934
vt 0.501970 0.760088
vt 0.491238 0.768883
vt 0.180718 0.937375
vt 0.180718 0.931685
vt 0.183682 0.932587
vt 0.183682 0.938045
vt 0.916340 0.811576
vt 0.919992 0.806118
vt 0.924640 0.801477
vt 0.930106 0.797830
vt 0.936179 0.795318
vt 0.942627 0.794037
vt 0.949201 0.794037
vt 0.955648 0.795318
vt 0.961721 0.797830
vt 0.967187 0.801477
vt 0.971836 0.806118
vt 0.975488 0.811576
vt 0.978004 0.817641
vt 0.979286 0.824079
vt 0.979286 0.830643
vt 0.978004 0.837081
vt 0.975488 0.843146
vt 0.971836 0.848604
vt 0.967187 0.853245
vt 0.961722 0.856892
vt 0.955648 0.859404
vt 0.949201 0.860685
vt 0.942627 0.860685
vt 0.936179 0.859404
vt 0.930106 0.856892
vt 0.924640 0.853246
vt 0.919992 0.848604
vt 0.916340 0.843146
vt 0.913824 0.837081
vt 0.912542 0.830643
vt 0.912542 0.824079
vt 0.913824 0.817641
vt 0.354701 0.813968
vt 0.356395 0.819657
vt 0.353182 0.820327
vt 0.351557 0.814869
vt 0.180718 0.943697
vt 0.183682 0.944109
vt 0.622179 0.952593
vt 0.622179 0.959304
vt 0.619214 0.958892
vt 0.619214 0.952454
vt 0.897892 0.942329
vt 0.897892 0.935486
vt 0.901177 0.935625
vt 0.901177 0.942189
vt 0.180718 0.950408
vt 0.183682 0.950547
vt 0.622179 0.945750
vt 0.619214 0.945890
vt 0.898487 0.949040
vt 0.901747 0.948627
vt 0.180718 0.957251
vt 0.183682 0.957112
vt 0.622179 0.939039
vt 0.619214 0.939451
vt 0.899653 0.955362
vt 0.902866 0.954692
vt 0.180718 0.963962
vt 0.183682 0.963550
vt 0.622179 0.932717
vt 0.619214 0.933387
vt 0.886877 0.631492
vt 0.886877 0.624781
vt 0.889842 0.625193
vt 0.889842 0.631631
vt 0.898487 0.928775
vt 0.899653 0.922453
vt 0.902866 0.923122
vt 0.901747 0.929187
vt 0.622179 0.927028
vt 0.619214 0.927929
vt 0.886877 0.638335
vt 0.889842 0.638196
vt 0.889173 0.408428
vt 0.889173 0.414117
vt 0.886209 0.413216
vt 0.886209 0.407758
vt 0.886877 0.645046
vt 0.889842 0.644634
vt 0.889173 0.402106
vt 0.886209 0.401693
vt 0.356395 0.852566
vt 0.354701 0.858256
vt 0.351557 0.857354
vt 0.353182 0.851896
vt 0.889173 0.395394
vt 0.886209 0.395255
vt 0.357561 0.846244
vt 0.354301 0.845832
vt 0.889173 0.388552
vt 0.886209 0.388691
vt 0.358156 0.839533
vt 0.354871 0.839394
vt 0.889173 0.381840
vt 0.886209 0.382253
vt 0.358156 0.832690
vt 0.354871 0.832829
vt 0.889173 0.375519
vt 0.886209 0.376188
vt 0.357561 0.825979
vt 0.354301 0.826391
vt 0.889173 0.369829
vt 0.886209 0.370730
vt 0.948675 0.045095
vt 0.983185 0.045095
vt 0.983185 0.053928
vt 0.948675 0.053928
vt 0.983185 0.061877
vt 0.948675 0.061877
vt 0.555907 0.927028
vt 0.590418 0.927028
vt 0.590418 0.934977
vt 0.555907 0.934977
vt 0.590418 0.943809
vt 0.555907 0.943809
vt 0.590418 0.953186
vt 0.555907 0.953186
vt 0.590418 0.962746
vt 0.555907 0.962746
vt 0.590418 0.972123
vt 0.555907 0.972123
vt 0.590418 0.980955
vt 0.555907 0.980955
vt 0.590418 0.988904
vt 0.555907 0.988904
vt 0.173095 0.985613
vt 0.138584 0.985613
vt 0.138584 0.977664
vt 0.173095 0.977664
vt 0.138584 0.968831
vt 0.173095 0.968831
vt 0.138584 0.959455
vt 0.173095 0.959455
vt 0.138584 0.949895
vt 0.173095 0.949895
vt 0.138584 0.940518
vt 0.173095 0.940518
vt 0.138584 0.931685
vt 0.173095 0.931685
vt 0.469910 0.842669
vt 0.469910 0.873534
vt 0.460520 0.872705
vt 0.460520 0.841840
vt 0.450946 0.872705
vt 0.450946 0.841840
vt 0.441556 0.873534
vt 0.441556 0.842669
vt 0.983185 0.123416
vt 0.948675 0.123416
vt 0.948675 0.114584
vt 0.983185 0.114584
vt 0.948675 0.105207
vt 0.983185 0.105207
vt 0.948675 0.095647
vt 0.983185 0.095647
vt 0.948675 0.086270
vt 0.983185 0.086270
vt 0.948675 0.077438
vt 0.983185 0.077438
vt 0.948675 0.069489
vt 0.983185 0.069489
vt 0.238017 0.957876
vt 0.238017 0.988741
vt 0.228627 0.987911
vt 0.228627 0.957047
vt 0.219052 0.987911
vt 0.219052 0.957047
vt 0.209662 0.988741
vt 0.209662 0.957876
vt 0.948675 0.000000
vt 0.983185 0.000000
vt 0.983185 0.007949
vt 0.948675 0.007949
vt 0.983185 0.016782
vt 0.948675 0.016782
vt 0.983185 0.026158
vt 0.948675 0.026158
vt 0.983185 0.035719
vt 0.948675 0.035719
vt 0.071627 0.707459
vt 0.079587 0.712770
vt 0.086357 0.719530
vt 0.091677 0.727479
vt 0.095340 0.736312
vt 0.097208 0.745688
vt 0.097208 0.755249
vt 0.095340 0.764625
vt 0.091677 0.773458
vt 0.086357 0.781407
vt 0.079587 0.788167
vt 0.071627 0.793479
vt 0.062781 0.797137
vt 0.053391 0.799002
vt 0.043817 0.799002
vt 0.034427 0.797137
vt 0.025581 0.793479
vt 0.017621 0.788167
vt 0.010851 0.781407
vt 0.005532 0.773458
vt 0.001868 0.764625
vt 0.000000 0.755249
vt 0.000000 0.745688
vt 0.001868 0.736312
vt 0.005532 0.727479
vt 0.010851 0.719530
vt 0.017621 0.712770
vt 0.025581 0.707459
vt 0.034427 0.703800
vt 0.043817 0.701935
vt 0.053391 0.701935
vt 0.062781 0.703800
vt 0.384964 0.769240
vt 0.382341 0.775562
vt 0.369056 0.771538
vt 0.372720 0.762705
vt 0.381004 0.782273
vt 0.367188 0.780914
vt 0.381004 0.789116
vt 0.367188 0.790475
vt 0.382341 0.795827
vt 0.369056 0.799851
vt 0.384964 0.802149
vt 0.372720 0.808684
vt 0.388771 0.807838
vt 0.378039 0.816633
vt 0.393616 0.812677
vt 0.384809 0.823393
vt 0.399314 0.816479
vt 0.392770 0.828704
vt 0.405645 0.819097
vt 0.401615 0.832363
vt 0.412366 0.820432
vt 0.411005 0.834228
vt 0.419219 0.820432
vt 0.420580 0.834228
vt 0.425940 0.819097
vt 0.429970 0.832363
vt 0.432271 0.816479
vt 0.438815 0.828704
vt 0.437969 0.812677
vt 0.446776 0.823393
vt 0.442814 0.807838
vt 0.453546 0.816633
vt 0.446621 0.802149
vt 0.458865 0.808684
vt 0.449244 0.795827
vt 0.462529 0.799851
vt 0.450581 0.789116
vt 0.464397 0.790475
vt 0.450581 0.782273
vt 0.464397 0.780914
vt 0.449244 0.775562
vt 0.462529 0.771538
vt 0.446621 0.769240
vt 0.458865 0.762705
vt 0.442814 0.763550
vt 0.453546 0.754756
vt 0.437969 0.758712
vt 0.446776 0.747996
vt 0.432271 0.754910
vt 0.438815 0.742684
vt 0.425940 0.752292
vt 0.429970 0.739026
vt 0.419219 0.750957
vt 0.420580 0.737161
vt 0.412366 0.750957
vt 0.411005 0.737161
vt 0.405645 0.752292
vt 0.401615 0.739026
vt 0.399314 0.754910
vt 0.392770 0.742684
vt 0.393616 0.758712
vt 0.384809 0.747996
vt 0.388771 0.763550
vt 0.378039 0.754756
vn -0.431000 -0.863500 -0.261900
vn -1.000000 0.000000 0.000000
vn -0.431000 0.572400 0.697500
vn -0.431000 -0.795800 -0.425400
vn -0.431000 0.425400 0.795800
vn -0.431000 0.088400 -0.898000
vn -0.431000 -0.697500 -0.572400
vn -0.431000 0.261900 0.863500
vn -0.431000 0.261900 -0.863500
vn -0.431000 -0.572400 -0.697500
vn -0.431000 0.088400 0.898000
vn -0.431000 0.425400 -0.795800
vn -0.431000 -0.425400 -0.795800
vn -0.431000 -0.088500 0.898000
vn -0.431000 -0.088400 0.898000
vn -0.431000 0.572400 -0.697500
vn -0.431000 -0.261900 -0.863500
vn -0.431000 -0.261900 0.863500
vn -0.431000 0.697500 -0.572400
vn -0.431000 -0.088400 -0.898000
vn -0.431000 -0.425400 0.795800
vn -0.431000 0.795800 -0.425400
vn -0.431000 -0.572400 0.697500
vn -0.431000 0.863500 -0.261900
vn -0.431000 -0.697500 0.572400
vn -0.431000 0.898000 -0.088400
vn -0.431000 -0.795800 0.425400
vn -0.431000 0.898000 0.088400
vn -0.431000 -0.863500 0.261900
vn -0.431000 0.863500 0.261900
vn -0.431000 -0.898000 0.088400
vn -0.431000 0.795800 0.425400
vn -0.431000 -0.898000 -0.088400
vn -0.431000 0.697500 0.572400
vn 0.000000 -0.098000 0.995200
vn 0.000000 -0.290300 0.956900
vn 0.000000 -0.471400 0.881900
vn 0.000000 -0.634400 0.773000
vn 0.000000 -0.773000 0.634400
vn 0.000000 -0.881900 0.471400
vn 0.000000 -0.956900 0.290300
vn 0.000000 -0.995200 0.098000
vn 0.000000 -0.995200 -0.098000
vn 0.000000 -0.956900 -0.290300
vn 0.000000 -0.881900 -0.471400
vn 0.000000 -0.773000 -0.634400
vn 0.000000 -0.634400 -0.773000
vn 0.000000 -0.471400 -0.881900
vn 0.000000 -0.290300 -0.956900
vn 0.000000 -0.098000 -0.995200
vn 0.000000 0.098000 -0.995200
vn 0.000000 0.290300 -0.956900
vn 0.000000 0.471400 -0.881900
vn 0.000000 0.634400 -0.773000
vn 0.000000 0.773000 -0.634400
vn 0.000000 0.881900 -0.471400
vn 0.000000 0.956900 -0.290300
vn 0.000000 0.995200 -0.098000
vn 0.000000 0.995200 0.098000
vn 0.000000 0.956900 0.290300
vn 0.000000 0.881900 0.471400
vn 0.000000 0.773000 0.634400
vn 0.000000 0.634400 0.773000
vn 0.000000 0.471400 0.881900
vn 0.000000 0.290300 0.956900
vn 0.000000 0.098000 0.995200
vn 1.000000 0.000000 0.000000
vn 0.431000 -0.863500 0.261900
vn 1.000000 0.000000 0.000000
vn 0.431000 0.572400 -0.697500
vn 0.431000 -0.795800 0.425400
vn 0.431000 0.425400 -0.795800
vn 0.431000 0.088400 0.898000
vn 0.431000 -0.697500 0.572400
vn 0.431000 0.261900 -0.863500
vn 0.431000 0.261900 0.863500
vn 0.431000 -0.572400 0.697500
vn 0.431000 0.088400 -0.898000
vn 0.431000 0.425400 0.795800
vn 0.431000 -0.425400 0.795800
vn 0.431000 -0.088400 -0.898000
vn 0.431000 0.572400 0.697500
vn 0.431000 -0.261900 0.863500
vn 0.431000 -0.261900 -0.863500
vn 0.431000 0.697500 0.572400
vn 0.431000 -0.088400 0.898000
vn 0.431000 -0.425400 -0.795800
vn 0.431000 0.795800 0.425400
vn 0.431000 -0.572400 -0.697500
vn 0.431000 0.863500 0.261900
vn 0.431000 -0.697500 -0.572400
vn 0.431000 0.898000 0.088400
vn 0.431000 -0.795800 -0.425400
vn 0.431000 0.898000 -0.088400
vn 0.431000 -0.863500 -0.261900
vn 0.431000 0.863500 -0.261900
vn 0.431000 -0.898000 -0.088400
vn 0.431000 0.795800 -0.425400
vn 0.431000 -0.898000 0.088400
vn 0.431000 0.697500 -0.572400
vn 0.000000 -0.098000 -0.995200
vn 0.000000 -0.290300 -0.956900
vn 0.000000 -0.471400 -0.881900
vn 0.000000 -0.634400 -0.773000
vn 0.000000 -0.773000 -0.634400
vn 0.000000 -0.881900 -0.471400
vn 0.000000 -0.956900 -0.290300
vn 0.000000 -0.995200 -0.098000
vn 0.000000 -0.995200 0.098000
vn 0.000000 -0.956900 0.290300
vn 0.000000 -0.881900 0.471400
vn 0.000000 -0.773000 0.634400
vn 0.000000 -0.634400 0.773000
vn 0.000000 -0.471400 0.881900
vn 0.000000 -0.290300 0.956900
vn 0.000000 -0.098000 0.995200
vn 0.000000 0.098000 0.995200
vn 0.000000 0.290300 0.956900
vn 0.000000 0.471400 0.881900
vn 0.000000 0.634400 0.773000
vn 0.000000 0.773000 0.634400
vn 0.000000 0.881900 0.471400
vn 0.000000 0.956900 0.290300
vn 0.000000 0.995200 0.098000
vn 0.000000 0.995200 -0.098000
vn 0.000000 0.956900 -0.290300
vn 0.000000 0.881900 -0.471400
vn 0.000000 0.773000 -0.634400
vn 0.000000 0.634400 -0.773000
vn 0.000000 0.471400 -0.881900
vn 0.000000 0.290300 -0.956900
vn 0.000000 0.098000 -0.995200
vn -1.000000 0.000000 0.000000
o crown_victoria_wheels_f
usemtl crown_victoria_wheels_f
f 1/1/1 2/2/1 3/3/1
f 1/1/1 3/3/1 4/4/1
f 5/5/2 6/6/2 7/7/2
f 7/7/2 8/8/2 9/9/2
f 9/9/2 10/10/2 11/11/2
f 11/11/2 12/12/2 4/13/2
f 4/13/2 3/14/2 13/15/2
f 13/15/2 14/16/2 15/17/2
f 15/17/2 16/18/2 17/19/2
f 17/19/2 18/20/2 19/21/2
f 19/21/2 20/22/2 21/23/2
f 21/23/2 22/24/2 23/25/2
f 23/25/2 24/26/2 25/27/2
f 25/27/2 26/28/2 27/29/2
f 27/29/2 28/30/2 29/31/2
f 29/31/2 30/32/2 31/33/2
f 31/33/2 32/34/2 33/35/2
f 33/35/2 34/36/2 5/5/2
f 5/5/2 7/7/2 9/9/2
f 9/9/2 11/11/2 4/13/2
f 4/13/2 13/15/2 15/17/2
f 15/17/2 17/19/2 19/21/2
f 19/21/2 21/23/2 23/25/2
f 23/25/2 25/27/2 27/29/2
f 27/29/2 29/31/2 31/33/2
f 31/33/2 33/35/2 5/5/2
f 5/5/2 9/9/2 4/13/2
f 4/13/2 15/17/2 19/21/2
f 19/21/2 23/25/2 27/29/2
f 27/29/2 31/33/2 5/5/2
f 5/5/2 4/13/2 19/21/2
f 19/21/2 27/29/2 5/5/2
f 35/37/3 36/38/3 25/39/3
f 35/37/3 25/39/3 24/40/3
f 37/41/4 1/1/4 4/4/4
f 37/41/4 4/4/4 12/42/4
f 38/43/5 35/37/5 24/40/5
f 38/43/5 24/40/5 23/44/5
f 39/45/6 40/46/6 7/47/6
f 39/45/6 7/47/6 6/48/6
f 41/49/7 37/41/7 12/42/7
f 41/49/7 12/42/7 11/50/7
f 42/51/8 38/43/8 23/44/8
f 42/51/8 23/44/8 22/52/8
f 43/53/9 39/45/9 6/48/9
f 43/53/9 6/48/9 5/54/9
f 44/55/10 41/49/10 11/50/10
f 44/55/10 11/50/10 10/56/10
f 45/57/11 42/58/11 22/59/11
f 45/57/11 22/59/11 21/60/11
f 46/61/12 43/53/12 5/54/12
f 46/61/12 5/54/12 34/62/12
f 47/63/13 44/55/13 10/56/13
f 47/63/13 10/56/13 9/64/13
f 48/65/14 45/57/14 21/60/14
f 48/65/15 21/60/15 20/66/15
f 49/67/16 46/61/16 34/62/16
f 49/67/16 34/62/16 33/68/16
f 50/69/17 47/63/17 9/64/17
f 50/69/17 9/64/17 8/70/17
f 51/71/18 48/65/18 20/66/18
f 51/71/18 20/66/18 19/72/18
f 52/73/19 49/74/19 33/75/19
f 52/73/19 33/75/19 32/76/19
f 40/77/20 50/69/20 8/70/20
f 40/77/20 8/70/20 7/78/20
f 53/79/21 51/71/21 19/72/21
f 53/79/21 19/72/21 18/80/21
f 54/81/22 52/73/22 32/76/22
f 54/81/22 32/76/22 31/82/22
f 55/83/23 53/79/23 18/80/23
f 55/83/23 18/80/23 17/84/23
f 56/85/24 54/81/24 31/82/24
f 56/85/24 31/82/24 30/86/24
f 57/87/25 55/83/25 17/84/25
f 57/87/25 17/84/25 16/88/25
f 58/89/26 56/85/26 30/86/26
f 58/89/26 30/86/26 29/90/26
f 59/91/27 57/87/27 16/88/27
f 59/91/27 16/88/27 15/92/27
f 60/93/28 58/89/28 29/90/28
f 60/93/28 29/90/28 28/94/28
f 61/95/29 59/96/29 15/97/29
f 61/95/29 15/97/29 14/98/29
f 62/99/30 60/93/30 28/94/30
f 62/99/30 28/94/30 27/100/30
f 63/101/31 61/95/31 14/98/31
f 63/101/31 14/98/31 13/102/31
f 64/103/32 62/99/32 27/100/32
f 64/103/32 27/100/32 26/104/32
f 2/105/33 63/101/33 13/102/33
f 2/105/33 13/102/33 3/106/33
f 36/38/34 64/107/34 26/108/34
f 36/38/34 26/108/34 25/39/34
f 65/109/35 66/110/35 67/111/35
f 65/109/35 67/111/35 68/112/35
f 68/113/36 67/114/36 69/115/36
f 68/113/36 69/115/36 70/116/36
f 70/116/37 69/115/37 71/117/37
f 70/116/37 71/117/37 72/118/37
f 72/118/38 71/117/38 73/119/38
f 72/118/38 73/119/38 74/120/38
f 74/121/39 73/122/39 75/123/39
f 74/121/39 75/123/39 76/124/39
f 76/124/40 75/123/40 77/125/40
f 76/124/40 77/125/40 78/126/40
f 78/126/41 77/125/41 79/127/41
f 78/126/41 79/127/41 80/128/41
f 80/128/42 79/127/42 81/129/42
f 80/128/42 81/129/42 82/130/42
f 82/130/43 81/129/43 83/131/43
f 82/130/43 83/131/43 84/132/43
f 84/132/44 83/131/44 85/133/44
f 84/132/44 85/133/44 86/134/44
f 86/134/45 85/133/45 87/135/45
f 86/134/45 87/135/45 88/136/45
f 88/137/46 87/138/46 89/139/46
f 88/137/46 89/139/46 90/140/46
f 90/140/47 89/139/47 91/141/47
f 90/140/47 91/141/47 92/142/47
f 92/142/48 91/141/48 93/143/48
f 92/142/48 93/143/48 94/144/48
f 94/144/49 93/143/49 95/145/49
f 94/144/49 95/145/49 96/146/49
f 96/147/50 95/148/50 97/149/50
f 96/147/50 97/149/50 98/150/50
f 98/150/51 97/149/51 99/151/51
f 98/150/51 99/151/51 100/152/51
f 100/152/52 99/151/52 101/153/52
f 100/152/52 101/153/52 102/154/52
f 102/154/53 101/153/53 103/155/53
f 102/154/53 103/155/53 104/156/53
f 104/156/54 103/155/54 105/157/54
f 104/156/54 105/157/54 106/158/54
f 106/158/55 105/157/55 107/159/55
f 106/158/55 107/159/55 108/160/55
f 108/160/56 107/159/56 109/161/56
f 108/160/56 109/161/56 110/162/56
f 110/163/57 109/164/57 111/165/57
f 110/163/57 111/165/57 112/166/57
f 112/166/58 111/165/58 113/167/58
f 112/166/58 113/167/58 114/168/58
f 114/168/59 113/167/59 115/169/59
f 114/168/59 115/169/59 116/170/59
f 116/170/60 115/169/60 117/171/60
f 116/170/60 117/171/60 118/172/60
f 118/173/61 117/174/61 119/175/61
f 118/173/61 119/175/61 120/176/61
f 120/176/62 119/175/62 121/177/62
f 120/176/62 121/177/62 122/178/62
f 122/178/63 121/177/63 123/179/63
f 122/178/63 123/179/63 124/180/63
f 124/180/64 123/179/64 125/181/64
f 124/180/64 125/181/64 126/182/64
f 126/182/65 125/181/65 127/183/65
f 126/182/65 127/183/65 128/184/65
f 128/184/66 127/183/66 66/110/66
f 128/184/66 66/110/66 65/109/66
f 128/185/67 65/186/67 68/187/67
f 68/187/67 70/188/67 72/189/67
f 72/189/67 74/190/67 76/191/67
f 76/191/67 78/192/67 80/193/67
f 80/193/67 82/194/67 84/195/67
f 84/195/67 86/196/67 88/197/67
f 88/197/67 90/198/67 92/199/67
f 92/199/67 94/200/67 96/201/67
f 96/201/67 98/202/67 100/203/67
f 100/203/67 102/204/67 104/205/67
f 104/205/67 106/206/67 108/207/67
f 108/207/67 110/208/67 112/209/67
f 112/209/67 114/210/67 116/211/67
f 116/211/67 118/212/67 120/213/67
f 120/213/67 122/214/67 124/215/67
f 124/215/67 126/216/67 128/185/67
f 128/185/67 68/187/67 72/189/67
f 72/189/67 76/191/67 80/193/67
f 80/193/67 84/195/67 88/197/67
f 88/197/67 92/199/67 96/201/67
f 96/201/67 100/203/67 104/205/67
f 104/205/67 108/207/67 112/209/67
f 112/209/67 116/211/67 120/213/67
f 120/213/67 124/215/67 128/185/67
f 128/185/67 72/189/67 80/193/67
f 80/193/67 88/197/67 96/201/67
f 96/201/67 104/205/67 112/209/67
f 112/209/67 120/213/67 128/185/67
f 128/185/67 80/193/67 96/201/67
f 96/201/67 112/209/67 128/185/67
f 40/217/2 39/218/2 67/219/2
f 40/217/2 67/219/2 66/220/2
f 39/218/2 43/221/2 69/222/2
f 39/218/2 69/222/2 67/219/2
f 43/221/2 46/223/2 71/224/2
f 43/221/2 71/224/2 69/222/2
f 46/223/2 49/225/2 73/226/2
f 46/223/2 73/226/2 71/224/2
f 49/225/2 52/227/2 75/228/2
f 49/225/2 75/228/2 73/226/2
f 52/227/2 54/229/2 77/230/2
f 52/227/2 77/230/2 75/228/2
f 54/229/2 56/231/2 79/232/2
f 54/229/2 79/232/2 77/230/2
f 56/231/2 58/233/2 81/234/2
f 56/231/2 81/234/2 79/232/2
f 58/233/2 60/235/2 83/236/2
f 58/233/2 83/236/2 81/234/2
f 60/235/2 62/237/2 85/238/2
f 60/235/2 85/238/2 83/236/2
f 62/237/2 64/239/2 87/240/2
f 62/237/2 87/240/2 85/238/2
f 64/239/2 36/241/2 89/242/2
f 64/239/2 89/242/2 87/240/2
f 36/241/2 35/243/2 91/244/2
f 36/241/2 91/244/2 89/242/2
f 35/243/2 38/245/2 93/246/2
f 35/243/2 93/246/2 91/244/2
f 38/245/2 42/247/2 95/248/2
f 38/245/2 95/248/2 93/246/2
f 42/247/2 45/249/2 97/250/2
f 42/247/2 97/250/2 95/248/2
f 45/249/2 48/251/2 99/252/2
f 45/249/2 99/252/2 97/250/2
f 48/251/2 51/253/2 101/254/2
f 48/251/2 101/254/2 99/252/2
f 51/253/2 53/255/2 103/256/2
f 51/253/2 103/256/2 101/254/2
f 53/255/2 55/257/2 105/258/2
f 53/255/2 105/258/2 103/256/2
f 55/257/2 57/259/2 107/260/2
f 55/257/2 107/260/2 105/258/2
f 57/259/2 59/261/2 109/262/2
f 57/259/2 109/262/2 107/260/2
f 59/261/2 61/263/2 111/264/2
f 59/261/2 111/264/2 109/262/2
f 61/263/2 63/265/2 113/266/2
f 61/263/2 113/266/2 111/264/2
f 63/265/2 2/267/2 115/268/2
f 63/265/2 115/268/2 113/266/2
f 2/267/2 1/269/2 117/270/2
f 2/267/2 117/270/2 115/268/2
f 1/269/2 37/271/2 119/272/2
f 1/269/2 119/272/2 117/270/2
f 37/271/2 41/273/2 121/274/2
f 37/271/2 121/274/2 119/272/2
f 41/273/2 44/275/2 123/276/2
f 41/273/2 123/276/2 121/274/2
f 44/275/2 47/277/2 125/278/2
f 44/275/2 125/278/2 123/276/2
f 47/277/2 50/279/2 127/280/2
f 47/277/2 127/280/2 125/278/2
f 50/279/2 40/217/2 66/220/2
f 50/279/2 66/220/2 127/280/2
f 129/281/68 130/282/68 131/283/68
f 129/281/68 131/283/68 132/284/68
f 133/285/69 134/286/69 135/287/69
f 135/287/69 136/288/69 137/289/69
f 137/289/69 138/290/69 139/291/69
f 139/291/69 140/292/69 132/293/69
f 132/293/69 131/294/69 141/295/69
f 141/295/69 142/296/69 143/297/69
f 143/297/69 144/298/69 145/299/69
f 145/299/69 146/300/69 147/301/69
f 147/301/69 148/302/69 149/303/69
f 149/303/69 150/304/69 151/305/69
f 151/305/69 152/306/69 153/307/69
f 153/307/69 154/308/69 155/309/69
f 155/309/69 156/310/69 157/311/69
f 157/311/69 158/312/69 159/313/69
f 159/313/69 160/314/69 161/315/69
f 161/315/69 162/316/69 133/285/69
f 133/285/69 135/287/69 137/289/69
f 137/289/69 139/291/69 132/293/69
f 132/293/69 141/295/69 143/297/69
f 143/297/69 145/299/69 147/301/69
f 147/301/69 149/303/69 151/305/69
f 151/305/69 153/307/69 155/309/69
f 155/309/69 157/311/69 159/313/69
f 159/313/69 161/315/69 133/285/69
f 133/285/69 137/289/69 132/293/69
f 132/293/69 143/297/69 147/301/69
f 147/301/69 151/305/69 155/309/69
f 155/309/69 159/313/69 133/285/69
f 133/285/69 132/293/69 147/301/69
f 147/301/69 155/309/69 133/285/69
f 163/317/70 164/318/70 153/319/70
f 163/317/70 153/319/70 152/320/70
f 165/321/71 129/281/71 132/284/71
f 165/321/71 132/284/71 140/322/71
f 166/323/72 163/324/72 152/325/72
f 166/323/72 152/325/72 151/326/72
f 167/327/73 168/328/73 135/329/73
f 167/327/73 135/329/73 134/330/73
f 169/331/74 165/321/74 140/322/74
f 169/331/74 140/322/74 139/332/74
f 170/333/75 166/323/75 151/326/75
f 170/333/75 151/326/75 150/334/75
f 171/335/76 167/327/76 134/330/76
f 171/335/76 134/330/76 133/336/76
f 172/337/77 169/331/77 139/332/77
f 172/337/77 139/332/77 138/338/77
f 173/339/78 170/333/78 150/334/78
f 173/339/78 150/334/78 149/340/78
f 174/341/79 171/335/79 133/336/79
f 174/341/79 133/336/79 162/342/79
f 175/343/80 172/337/80 138/338/80
f 175/343/80 138/338/80 137/344/80
f 176/345/81 173/339/81 149/340/81
f 176/345/81 149/340/81 148/346/81
f 177/347/82 174/348/82 162/349/82
f 177/347/82 162/349/82 161/350/82
f 178/351/83 175/352/83 137/353/83
f 178/351/83 137/353/83 136/354/83
f 179/355/84 176/345/84 148/346/84
f 179/355/84 148/346/84 147/356/84
f 180/357/85 177/347/85 161/350/85
f 180/357/85 161/350/85 160/358/85
f 168/328/86 178/351/86 136/354/86
f 168/328/86 136/354/86 135/329/86
f 181/359/87 179/360/87 147/361/87
f 181/359/87 147/361/87 146/362/87
f 182/363/88 180/357/88 160/358/88
f 182/363/88 160/358/88 159/364/88
f 183/365/89 181/359/89 146/362/89
f 183/365/89 146/362/89 145/366/89
f 184/367/90 182/368/90 159/369/90
f 184/367/90 159/369/90 158/370/90
f 185/371/91 183/365/91 145/366/91
f 185/371/91 145/366/91 144/372/91
f 186/373/92 184/367/92 158/370/92
f 186/373/92 158/370/92 157/374/92
f 187/375/93 185/371/93 144/372/93
f 187/375/93 144/372/93 143/376/93
f 188/377/94 186/373/94 157/374/94
f 188/377/94 157/374/94 156/378/94
f 189/379/95 187/375/95 143/376/95
f 189/379/95 143/376/95 142/380/95
f 190/381/96 188/377/96 156/378/96
f 190/381/96 156/378/96 155/382/96
f 191/383/97 189/379/97 142/380/97
f 191/383/97 142/380/97 141/384/97
f 192/385/98 190/381/98 155/382/98
f 192/385/98 155/382/98 154/386/98
f 130/387/99 191/383/99 141/384/99
f 130/387/99 141/384/99 131/388/99
f 164/318/100 192/385/100 154/386/100
f 164/318/100 154/386/100 153/319/100
f 193/389/101 194/390/101 195/391/101
f 193/389/101 195/391/101 196/392/101
f 196/392/102 195/391/102 197/393/102
f 196/392/102 197/393/102 198/394/102
f 198/395/103 197/396/103 199/397/103
f 198/395/103 199/397/103 200/398/103
f 200/398/104 199/397/104 201/399/104
f 200/398/104 201/399/104 202/400/104
f 202/400/105 201/399/105 203/401/105
f 202/400/105 203/401/105 204/402/105
f 204/402/106 203/401/106 205/403/106
f 204/402/106 205/403/106 206/404/106
f 206/404/107 205/403/107 207/405/107
f 206/404/107 207/405/107 208/406/107
f 208/406/108 207/405/108 209/407/108
f 208/406/108 209/407/108 210/408/108
f 210/408/109 209/407/109 211/409/109
f 210/408/109 211/409/109 212/410/109
f 212/411/110 211/412/110 213/413/110
f 212/411/110 213/413/110 214/414/110
f 214/414/111 213/413/111 215/415/111
f 214/414/111 215/415/111 216/416/111
f 216/416/112 215/415/112 217/417/112
f 216/416/112 217/417/112 218/418/112
f 218/418/113 217/417/113 219/419/113
f 218/418/113 219/419/113 220/420/113
f 220/420/114 219/419/114 221/421/114
f 220/420/114 221/421/114 222/422/114
f 222/422/115 221/421/115 223/423/115
f 222/422/115 223/423/115 224/424/115
f 224/425/116 223/426/116 225/427/116
f 224/425/116 225/427/116 226/428/116
f 226/428/117 225/427/117 227/429/117
f 226/428/117 227/429/117 228/430/117
f 228/430/118 227/429/118 229/431/118
f 228/430/118 229/431/118 230/432/118
f 230/433/119 229/434/119 231/435/119
f 230/433/119 231/435/119 232/436/119
f 232/436/120 231/435/120 233/437/120
f 232/436/120 233/437/120 234/438/120
f 234/438/121 233/437/121 235/439/121
f 234/438/121 235/439/121 236/440/121
f 236/440/122 235/439/122 237/441/122
f 236/440/122 237/441/122 238/442/122
f 238/442/123 237/441/123 239/443/123
f 238/442/123 239/443/123 240/444/123
f 240/444/124 239/443/124 241/445/124
f 240/444/124 241/445/124 242/446/124
f 242/447/125 241/448/125 243/449/125
f 242/447/125 243/449/125 244/450/125
f 244/450/126 243/449/126 245/451/126
f 244/450/126 245/451/126 246/452/126
f 246/452/127 245/451/127 247/453/127
f 246/452/127 247/453/127 248/454/127
f 248/455/128 247/456/128 249/457/128
f 248/455/128 249/457/128 250/458/128
f 250/458/129 249/457/129 251/459/129
f 250/458/129 251/459/129 252/460/129
f 252/460/130 251/459/130 253/461/130
f 252/460/130 253/461/130 254/462/130
f 254/462/131 253/461/131 255/463/131
f 254/462/131 255/463/131 256/464/131
f 256/464/132 255/463/132 194/390/132
f 256/464/132 194/390/132 193/389/132
f 256/465/133 193/466/133 196/467/133
f 196/467/133 198/468/133 200/469/133
f 200/469/133 202/470/133 204/471/133
f 204/471/133 206/472/133 208/473/133
f 208/473/133 210/474/133 212/475/133
f 212/475/133 214/476/133 216/477/133
f 216/477/133 218/478/133 220/479/133
f 220/479/133 222/480/133 224/481/133
f 224/481/133 226/482/133 228/483/133
f 228/483/133 230/484/133 232/485/133
f 232/485/133 234/486/133 236/487/133
f 236/487/133 238/488/133 240/489/133
f 240/489/133 242/490/133 244/491/133
f 244/491/133 246/492/133 248/493/133
f 248/493/133 250/494/133 252/495/133
f 252/495/133 254/496/133 256/465/133
f 256/465/133 196/467/133 200/469/133
f 200/469/133 204/471/133 208/473/133
f 208/473/133 212/475/133 216/477/133
f 216/477/133 220/479/133 224/481/133
f 224/481/133 228/483/133 232/485/133
f 232/485/133 236/487/133 240/489/133
f 240/489/133 244/491/133 248/493/133
f 248/493/133 252/495/133 256/465/133
f 256/465/133 200/469/133 208/473/133
f 208/473/133 216/477/133 224/481/133
f 224/481/133 232/485/133 240/489/133
f 240/489/133 248/493/133 256/465/133
f 256/465/133 208/473/133 224/481/133
f 224/481/133 240/489/133 256/465/133
f 168/497/69 167/498/69 195/499/69
f 168/497/69 195/499/69 194/500/69
f 167/498/69 171/501/69 197/502/69
f 167/498/69 197/502/69 195/499/69
f 171/501/69 174/503/69 199/504/69
f 171/501/69 199/504/69 197/502/69
f 174/503/69 177/505/69 201/506/69
f 174/503/69 201/506/69 199/504/69
f 177/505/69 180/507/69 203/508/69
f 177/505/69 203/508/69 201/506/69
f 180/507/69 182/509/69 205/510/69
f 180/507/69 205/510/69 203/508/69
f 182/509/69 184/511/69 207/512/69
f 182/509/69 207/512/69 205/510/69
f 184/511/69 186/513/69 209/514/69
f 184/511/69 209/514/69 207/512/69
f 186/513/69 188/515/69 211/516/69
f 186/513/69 211/516/69 209/514/69
f 188/515/69 190/517/69 213/518/69
f 188/515/69 213/518/69 211/516/69
f 190/517/69 192/519/69 215/520/69
f 190/517/69 215/520/69 213/518/69
f 192/519/69 164/521/69 217/522/69
f 192/519/69 217/522/69 215/520/69
f 164/521/69 163/523/69 219/524/69
f 164/521/69 219/524/69 217/522/69
f 163/523/69 166/525/69 221/526/69
f 163/523/69 221/526/69 219/524/69
f 166/525/69 170/527/69 223/528/69
f 166/525/69 223/528/69 221/526/69
f 170/527/69 173/529/69 225/530/69
f 170/527/69 225/530/69 223/528/69
f 173/529/69 176/531/69 227/532/69
f 173/529/69 227/532/69 225/530/69
f 176/531/69 179/533/69 229/534/69
f 176/531/69 229/534/69 227/532/69
f 179/533/69 181/535/69 231/536/69
f 179/533/69 231/536/69 229/534/69
f 181/535/69 183/537/69 233/538/69
f 181/535/69 233/538/69 231/536/69
f 183/537/69 185/539/69 235/540/69
f 183/537/69 235/540/69 233/538/69
f 185/539/69 187/541/69 237/542/69
f 185/539/69 237/542/69 235/540/69
f 187/541/69 189/543/69 239/544/69
f 187/541/69 239/544/69 237/542/69
f 189/543/69 191/545/69 241/546/69
f 189/543/69 241/546/69 239/544/69
f 191/545/69 130/547/69 243/548/69
f 191/545/69 243/548/69 241/546/69
f 130/547/69 129/549/69 245/550/69
f 130/547/69 245/550/69 243/548/69
f 129/549/69 165/551/69 247/552/69
f 129/549/69 247/552/69 245/550/69
f 165/551/69 169/553/69 249/554/69
f 165/551/69 249/554/69 247/552/69
f 169/553/69 172/555/69 251/556/69
f 169/553/69 251/556/69 249/554/69
f 172/555/69 175/557/69 253/558/69
f 172/555/69 253/558/69 251/556/69
f 175/557/69 178/559/69 255/560/69
f 175/557/69 255/560/69 253/558/69
f 178/559/69 168/497/69 194/500/69
f 178/559/69 194/500/69 255/560/69
