# PSX Racing car model — generated by tools/carmodels/export_models.mjs
mtllib coupe_99_wheels_r.mtl
v 0.833500 0.620000 1.292500
v 0.857500 0.560281 1.437000
v 0.857500 0.599000 1.292500
v 0.833500 0.578468 1.447500
v 0.857500 0.454500 1.542781
v 0.833500 0.465000 1.560968
v 0.857500 0.310000 1.581500
v 0.833500 0.155000 1.560968
v 0.857500 0.165500 1.542781
v 0.833500 0.041532 1.447500
v 0.857500 0.059719 1.437000
v 0.857500 0.021000 1.292500
v 0.833500 0.000000 1.292500
v 0.857500 0.059719 1.148000
v 0.833500 0.041532 1.137500
v 0.857500 0.165500 1.042219
v 0.833500 0.155000 1.024032
v 0.857500 0.310000 1.003500
v 0.833500 0.465000 1.024032
v 0.857500 0.454500 1.042219
v 0.833500 0.578468 1.137500
v 0.857500 0.560281 1.148000
v 0.676500 0.620000 1.292500
v 0.676500 0.578468 1.447500
v 0.676500 0.465000 1.560968
v 0.833500 0.310000 1.602500
v 0.676500 0.310000 1.602500
v 0.676500 0.155000 1.560968
v 0.676500 0.041532 1.447500
v 0.676500 0.000000 1.292500
v 0.676500 0.041532 1.137500
v 0.676500 0.155000 1.024032
v 0.833500 0.310000 0.982500
v 0.676500 0.310000 0.982500
v 0.676500 0.465000 1.024032
v 0.676500 0.578468 1.137500
v 0.652500 0.599000 1.292500
v 0.652500 0.560281 1.437000
v 0.652500 0.310000 1.581500
v 0.652500 0.059719 1.437000
v 0.652500 0.021000 1.292500
v 0.652500 0.059719 1.148000
v 0.652500 0.310000 1.003500
v 0.652500 0.560281 1.148000
v 0.652500 0.454500 1.542781
v 0.652500 0.165500 1.542781
v 0.652500 0.165500 1.042219
v 0.652500 0.454500 1.042219
v -0.676500 0.620000 1.292500
v -0.652500 0.560281 1.437000
v -0.652500 0.599000 1.292500
v -0.676500 0.578468 1.447500
v -0.652500 0.454500 1.542781
v -0.676500 0.465000 1.560968
v -0.652500 0.310000 1.581500
v -0.676500 0.155000 1.560968
v -0.652500 0.165500 1.542781
v -0.676500 0.041532 1.447500
v -0.652500 0.059719 1.437000
v -0.652500 0.021000 1.292500
v -0.676500 0.000000 1.292500
v -0.652500 0.059719 1.148000
v -0.676500 0.041532 1.137500
v -0.652500 0.165500 1.042219
v -0.676500 0.155000 1.024032
v -0.652500 0.310000 1.003500
v -0.676500 0.465000 1.024032
v -0.652500 0.454500 1.042219
v -0.676500 0.578468 1.137500
v -0.652500 0.560281 1.148000
v -0.833500 0.620000 1.292500
v -0.833500 0.578468 1.447500
v -0.833500 0.465000 1.560968
v -0.676500 0.310000 1.602500
v -0.833500 0.310000 1.602500
v -0.833500 0.155000 1.560968
v -0.833500 0.041532 1.447500
v -0.833500 0.000000 1.292500
v -0.833500 0.041532 1.137500
v -0.833500 0.155000 1.024032
v -0.676500 0.310000 0.982500
v -0.833500 0.310000 0.982500
v -0.833500 0.465000 1.024032
v -0.833500 0.578468 1.137500
v -0.857500 0.599000 1.292500
v -0.857500 0.560281 1.437000
v -0.857500 0.310000 1.581500
v -0.857500 0.059719 1.437000
v -0.857500 0.021000 1.292500
v -0.857500 0.059719 1.148000
v -0.857500 0.310000 1.003500
v -0.857500 0.560281 1.148000
v -0.857500 0.454500 1.542781
v -0.857500 0.165500 1.542781
v -0.857500 0.165500 1.042219
v -0.857500 0.454500 1.042219
vt 0.485352 0.595703
vt 0.427915 0.748601
vt 0.375000 0.565299
vt 0.322085 0.748601
vt 0.313899 0.687500
vt 0.405550 0.581671
vt 0.405550 0.793329
vt 0.344450 0.793329
vt 0.375000 0.809701
vt 0.436101 0.687500
vt 0.427915 0.626399
vt 0.344450 0.581671
vt 0.322085 0.626399
vt 0.485352 0.595703
vt 0.427915 0.748601
vt 0.375000 0.565299
vt 0.322085 0.748601
vt 0.313899 0.687500
vt 0.405550 0.581671
vt 0.405550 0.793329
vt 0.344450 0.793329
vt 0.375000 0.809701
vt 0.436101 0.687500
vt 0.427915 0.626399
vt 0.344450 0.581671
vt 0.322085 0.626399
vn 0.658500 0.752600 0.000000
vn 0.658500 0.651800 0.376300
vn 0.658500 0.376300 0.651800
vn 0.658500 0.376300 0.651700
vn 0.658500 0.000000 0.752600
vn 0.658500 -0.376300 0.651700
vn 0.658500 -0.376300 0.651800
vn 0.658500 -0.651800 0.376300
vn 0.658500 -0.752600 0.000000
vn 0.658500 -0.651800 -0.376300
vn 0.658500 -0.376300 -0.651800
vn 0.658500 -0.376300 -0.651700
vn 0.658500 0.000000 -0.752600
vn 0.658500 0.376300 -0.651700
vn 0.658500 0.376300 -0.651800
vn 0.658500 0.651800 -0.376300
vn 0.000000 1.000000 0.000000
vn 0.000000 0.866000 0.500000
vn 0.000000 0.500000 0.866000
vn 0.000000 0.000000 1.000000
vn 0.000000 -0.500000 0.866000
vn 0.000000 -0.866000 0.500000
vn 0.000000 -1.000000 0.000000
vn 0.000000 -0.866000 -0.500000
vn 0.000000 -0.500000 -0.866000
vn 0.000000 0.000000 -1.000000
vn 0.000000 0.500000 -0.866000
vn 0.000000 0.866000 -0.500000
vn -0.658500 0.752600 0.000000
vn -0.658500 0.651700 0.376300
vn -0.658500 0.651800 0.376300
vn -0.658500 0.376300 0.651800
vn -0.658500 0.000000 0.752600
vn -0.658500 -0.376300 0.651800
vn -0.658500 -0.651800 0.376300
vn -0.658500 -0.752600 0.000000
vn -0.658500 -0.651700 -0.376300
vn -0.658500 -0.651800 -0.376300
vn -0.658500 -0.376300 -0.651800
vn -0.658500 0.000000 -0.752600
vn -0.658500 0.376300 -0.651800
vn -0.658500 0.651800 -0.376300
vn 1.000000 0.000000 0.000000
vn -1.000000 0.000000 0.000000
vn 0.658500 0.752600 0.000000
vn 0.658500 0.651800 0.376300
vn 0.658500 0.376300 0.651800
vn 0.658500 0.376300 0.651700
vn 0.658500 0.000000 0.752600
vn 0.658500 -0.376300 0.651700
vn 0.658500 -0.376300 0.651800
vn 0.658500 -0.651800 0.376300
vn 0.658500 -0.752600 0.000000
vn 0.658500 -0.651800 -0.376300
vn 0.658500 -0.376300 -0.651800
vn 0.658500 -0.376300 -0.651700
vn 0.658500 0.000000 -0.752600
vn 0.658500 0.376300 -0.651700
vn 0.658500 0.376300 -0.651800
vn 0.658500 0.651800 -0.376300
vn 0.000000 1.000000 0.000000
vn 0.000000 0.866000 0.500000
vn 0.000000 0.500000 0.866000
vn 0.000000 0.000000 1.000000
vn 0.000000 -0.500000 0.866000
vn 0.000000 -0.866000 0.500000
vn 0.000000 -1.000000 0.000000
vn 0.000000 -0.866000 -0.500000
vn 0.000000 -0.500000 -0.866000
vn 0.000000 0.000000 -1.000000
vn 0.000000 0.500000 -0.866000
vn 0.000000 0.866000 -0.500000
vn -0.658500 0.752600 0.000000
vn -0.658500 0.651700 0.376300
vn -0.658500 0.651800 0.376300
vn -0.658500 0.376300 0.651800
vn -0.658500 0.000000 0.752600
vn -0.658500 -0.376300 0.651800
vn -0.658500 -0.651800 0.376300
vn -0.658500 -0.752600 0.000000
vn -0.658500 -0.651700 -0.376300
vn -0.658500 -0.651800 -0.376300
vn -0.658500 -0.376300 -0.651800
vn -0.658500 0.000000 -0.752600
vn -0.658500 0.376300 -0.651800
vn -0.658500 0.651800 -0.376300
vn 1.000000 0.000000 0.000000
vn -1.000000 0.000000 0.000000
o coupe_99_wheels_r
usemtl coupe_99_wheels_r
f 1/1/1 2/1/2 3/1/1
f 4/1/2 5/1/3 2/1/2
f 6/1/4 7/1/5 5/1/3
f 7/1/5 8/1/6 9/1/7
f 9/1/7 10/1/8 11/1/8
f 10/1/8 12/1/9 11/1/8
f 13/1/9 14/1/10 12/1/9
f 15/1/10 16/1/11 14/1/10
f 17/1/12 18/1/13 16/1/11
f 18/1/13 19/1/14 20/1/15
f 20/1/15 21/1/16 22/1/16
f 21/1/16 3/1/1 22/1/16
f 23/1/17 4/1/18 1/1/17
f 24/1/18 6/1/19 4/1/18
f 25/1/19 26/1/20 6/1/19
f 27/1/20 8/1/21 26/1/20
f 28/1/21 10/1/22 8/1/21
f 29/1/22 13/1/23 10/1/22
f 30/1/23 15/1/24 13/1/23
f 31/1/24 17/1/25 15/1/24
f 32/1/25 33/1/26 17/1/25
f 34/1/26 19/1/27 33/1/26
f 35/1/27 21/1/28 19/1/27
f 36/1/28 1/1/17 21/1/28
f 37/1/29 24/1/30 23/1/29
f 38/1/31 25/1/32 24/1/30
f 25/1/32 39/1/33 27/1/33
f 39/1/33 28/1/34 27/1/33
f 28/1/34 40/1/35 29/1/35
f 40/1/35 30/1/36 29/1/35
f 41/1/36 31/1/37 30/1/36
f 42/1/38 32/1/39 31/1/37
f 32/1/39 43/1/40 34/1/40
f 43/1/40 35/1/41 34/1/40
f 35/1/41 44/1/42 36/1/42
f 44/1/42 23/1/29 36/1/42
f 5/2/43 12/3/43 20/4/43
f 43/5/44 40/6/44 38/7/44
f 1/1/1 4/1/2 2/1/2
f 4/1/2 6/1/4 5/1/3
f 6/1/4 26/1/5 7/1/5
f 7/1/5 26/1/5 8/1/6
f 9/1/7 8/1/6 10/1/8
f 10/1/8 13/1/9 12/1/9
f 13/1/9 15/1/10 14/1/10
f 15/1/10 17/1/12 16/1/11
f 17/1/12 33/1/13 18/1/13
f 18/1/13 33/1/13 19/1/14
f 20/1/15 19/1/14 21/1/16
f 21/1/16 1/1/1 3/1/1
f 23/1/17 24/1/18 4/1/18
f 24/1/18 25/1/19 6/1/19
f 25/1/19 27/1/20 26/1/20
f 27/1/20 28/1/21 8/1/21
f 28/1/21 29/1/22 10/1/22
f 29/1/22 30/1/23 13/1/23
f 30/1/23 31/1/24 15/1/24
f 31/1/24 32/1/25 17/1/25
f 32/1/25 34/1/26 33/1/26
f 34/1/26 35/1/27 19/1/27
f 35/1/27 36/1/28 21/1/28
f 36/1/28 23/1/17 1/1/17
f 37/1/29 38/1/31 24/1/30
f 38/1/31 45/1/32 25/1/32
f 25/1/32 45/1/32 39/1/33
f 39/1/33 46/1/34 28/1/34
f 28/1/34 46/1/34 40/1/35
f 40/1/35 41/1/36 30/1/36
f 41/1/36 42/1/38 31/1/37
f 42/1/38 47/1/39 32/1/39
f 32/1/39 47/1/39 43/1/40
f 43/1/40 48/1/41 35/1/41
f 35/1/41 48/1/41 44/1/42
f 44/1/42 37/1/29 23/1/29
f 20/4/43 22/8/43 3/9/43
f 3/9/43 2/7/43 5/2/43
f 5/2/43 7/10/43 9/11/43
f 9/11/43 11/6/43 12/3/43
f 12/3/43 14/12/43 16/13/43
f 16/13/43 18/5/43 20/4/43
f 20/4/43 3/9/43 5/2/43
f 5/2/43 9/11/43 12/3/43
f 12/3/43 16/13/43 20/4/43
f 38/7/44 37/9/44 44/8/44
f 44/8/44 48/4/44 43/5/44
f 43/5/44 47/13/44 42/12/44
f 42/12/44 41/3/44 40/6/44
f 40/6/44 46/11/44 39/10/44
f 39/10/44 45/2/44 38/7/44
f 38/7/44 44/8/44 43/5/44
f 43/5/44 42/12/44 40/6/44
f 40/6/44 39/10/44 38/7/44
f 49/14/45 50/14/46 51/14/45
f 52/14/46 53/14/47 50/14/46
f 54/14/48 55/14/49 53/14/47
f 55/14/49 56/14/50 57/14/51
f 57/14/51 58/14/52 59/14/52
f 58/14/52 60/14/53 59/14/52
f 61/14/53 62/14/54 60/14/53
f 63/14/54 64/14/55 62/14/54
f 65/14/56 66/14/57 64/14/55
f 66/14/57 67/14/58 68/14/59
f 68/14/59 69/14/60 70/14/60
f 69/14/60 51/14/45 70/14/60
f 71/14/61 52/14/62 49/14/61
f 72/14/62 54/14/63 52/14/62
f 73/14/63 74/14/64 54/14/63
f 75/14/64 56/14/65 74/14/64
f 76/14/65 58/14/66 56/14/65
f 77/14/66 61/14/67 58/14/66
f 78/14/67 63/14/68 61/14/67
f 79/14/68 65/14/69 63/14/68
f 80/14/69 81/14/70 65/14/69
f 82/14/70 67/14/71 81/14/70
f 83/14/71 69/14/72 67/14/71
f 84/14/72 49/14/61 69/14/72
f 85/14/73 72/14/74 71/14/73
f 86/14/75 73/14/76 72/14/74
f 73/14/76 87/14/77 75/14/77
f 87/14/77 76/14/78 75/14/77
f 76/14/78 88/14/79 77/14/79
f 88/14/79 78/14/80 77/14/79
f 89/14/80 79/14/81 78/14/80
f 90/14/82 80/14/83 79/14/81
f 80/14/83 91/14/84 82/14/84
f 91/14/84 83/14/85 82/14/84
f 83/14/85 92/14/86 84/14/86
f 92/14/86 71/14/73 84/14/86
f 53/15/87 60/16/87 68/17/87
f 91/18/88 88/19/88 86/20/88
f 49/14/45 52/14/46 50/14/46
f 52/14/46 54/14/48 53/14/47
f 54/14/48 74/14/49 55/14/49
f 55/14/49 74/14/49 56/14/50
f 57/14/51 56/14/50 58/14/52
f 58/14/52 61/14/53 60/14/53
f 61/14/53 63/14/54 62/14/54
f 63/14/54 65/14/56 64/14/55
f 65/14/56 81/14/57 66/14/57
f 66/14/57 81/14/57 67/14/58
f 68/14/59 67/14/58 69/14/60
f 69/14/60 49/14/45 51/14/45
f 71/14/61 72/14/62 52/14/62
f 72/14/62 73/14/63 54/14/63
f 73/14/63 75/14/64 74/14/64
f 75/14/64 76/14/65 56/14/65
f 76/14/65 77/14/66 58/14/66
f 77/14/66 78/14/67 61/14/67
f 78/14/67 79/14/68 63/14/68
f 79/14/68 80/14/69 65/14/69
f 80/14/69 82/14/70 81/14/70
f 82/14/70 83/14/71 67/14/71
f 83/14/71 84/14/72 69/14/72
f 84/14/72 71/14/61 49/14/61
f 85/14/73 86/14/75 72/14/74
f 86/14/75 93/14/76 73/14/76
f 73/14/76 93/14/76 87/14/77
f 87/14/77 94/14/78 76/14/78
f 76/14/78 94/14/78 88/14/79
f 88/14/79 89/14/80 78/14/80
f 89/14/80 90/14/82 79/14/81
f 90/14/82 95/14/83 80/14/83
f 80/14/83 95/14/83 91/14/84
f 91/14/84 96/14/85 83/14/85
f 83/14/85 96/14/85 92/14/86
f 92/14/86 85/14/73 71/14/73
f 68/17/87 70/21/87 51/22/87
f 51/22/87 50/20/87 53/15/87
f 53/15/87 55/23/87 57/24/87
f 57/24/87 59/19/87 60/16/87
f 60/16/87 62/25/87 64/26/87
f 64/26/87 66/18/87 68/17/87
f 68/17/87 51/22/87 53/15/87
f 53/15/87 57/24/87 60/16/87
f 60/16/87 64/26/87 68/17/87
f 86/20/88 85/22/88 92/21/88
f 92/21/88 96/17/88 91/18/88
f 91/18/88 95/26/88 90/25/88
f 90/25/88 89/16/88 88/19/88
f 88/19/88 94/24/88 87/23/88
f 87/23/88 93/15/88 86/20/88
f 86/20/88 92/21/88 91/18/88
f 91/18/88 90/25/88 88/19/88
f 88/19/88 87/23/88 86/20/88
