# PSX Racing car model — generated by tools/carmodels/export_models.mjs
mtllib roadster_99_wheels_f.mtl
v -0.563143 0.584671 -1.204821
v -0.563143 0.564808 -1.304681
v -0.609310 0.622806 -1.328704
v -0.609310 0.647449 -1.204821
v -0.563143 0.508242 -1.389338
v -0.609310 0.552632 -1.433728
v -0.563143 0.423585 -1.445904
v -0.609310 0.447609 -1.503903
v -0.563143 0.323724 -1.465767
v -0.609310 0.323724 -1.528545
v -0.563143 0.223864 -1.445904
v -0.609310 0.199840 -1.503903
v -0.563143 0.139207 -1.389338
v -0.609310 0.094817 -1.433728
v -0.563143 0.082641 -1.304681
v -0.609310 0.024642 -1.328704
v -0.563143 0.062778 -1.204821
v -0.609310 0.000000 -1.204821
v -0.563143 0.082641 -1.104960
v -0.609310 0.024642 -1.080936
v -0.563143 0.139207 -1.020303
v -0.609310 0.094817 -0.975913
v -0.563143 0.223864 -0.963737
v -0.609310 0.199840 -0.905739
v -0.563143 0.323724 -0.943874
v -0.609310 0.323724 -0.881096
v -0.563143 0.423585 -0.963737
v -0.609310 0.447609 -0.905739
v -0.563143 0.508242 -1.020303
v -0.609310 0.552632 -0.975913
v -0.563143 0.564808 -1.104960
v -0.609310 0.622806 -1.080936
v -0.810038 0.622806 -1.328704
v -0.810038 0.647449 -1.204821
v -0.810038 0.552632 -1.433728
v -0.810038 0.447609 -1.503903
v -0.810038 0.323724 -1.528545
v -0.810038 0.199840 -1.503903
v -0.810038 0.094817 -1.433728
v -0.810038 0.024642 -1.328704
v -0.810038 0.000000 -1.204821
v -0.810038 0.024642 -1.080936
v -0.810038 0.094817 -0.975913
v -0.810038 0.199840 -0.905739
v -0.810038 0.323724 -0.881096
v -0.810038 0.447609 -0.905739
v -0.810038 0.552632 -0.975913
v -0.810038 0.622806 -1.080936
v -0.856206 0.564808 -1.304681
v -0.856206 0.584671 -1.204821
v -0.856206 0.508242 -1.389338
v -0.856206 0.423585 -1.445904
v -0.856206 0.323724 -1.465767
v -0.856206 0.223864 -1.445904
v -0.856206 0.139207 -1.389338
v -0.856206 0.082641 -1.304681
v -0.856206 0.062778 -1.204821
v -0.856206 0.082641 -1.104960
v -0.856206 0.139207 -1.020303
v -0.856206 0.223864 -0.963737
v -0.856206 0.323724 -0.943874
v -0.856206 0.423585 -0.963737
v -0.856206 0.508242 -1.020303
v -0.856206 0.564808 -1.104960
v -0.856206 0.584671 -1.204821
v -0.856206 0.564808 -1.304681
v -0.857210 0.545335 -1.296615
v -0.857210 0.563594 -1.204821
v -0.856206 0.508242 -1.389338
v -0.857210 0.493339 -1.374434
v -0.856206 0.423585 -1.445904
v -0.857210 0.415518 -1.426431
v -0.856206 0.323724 -1.465767
v -0.857210 0.323724 -1.444691
v -0.856206 0.223864 -1.445904
v -0.857210 0.231930 -1.426431
v -0.856206 0.139207 -1.389338
v -0.857210 0.154110 -1.374434
v -0.856206 0.082641 -1.304681
v -0.857210 0.102113 -1.296615
v -0.856206 0.062778 -1.204821
v -0.857210 0.083854 -1.204821
v -0.856206 0.082641 -1.104960
v -0.857210 0.102113 -1.113027
v -0.856206 0.139207 -1.020303
v -0.857210 0.154110 -1.035206
v -0.856206 0.223864 -0.963737
v -0.857210 0.231930 -0.983210
v -0.856206 0.323724 -0.943874
v -0.857210 0.323724 -0.964950
v -0.856206 0.423585 -0.963737
v -0.857210 0.415518 -0.983210
v -0.856206 0.508242 -1.020303
v -0.857210 0.493339 -1.035206
v -0.856206 0.564808 -1.104960
v -0.857210 0.545335 -1.113027
v -0.844162 0.533282 -1.291621
v -0.844162 0.550547 -1.204821
v -0.844162 0.484112 -1.365208
v -0.844162 0.410525 -1.414378
v -0.844162 0.323724 -1.431643
v -0.844162 0.236923 -1.414378
v -0.844162 0.163337 -1.365208
v -0.844162 0.114167 -1.291621
v -0.844162 0.096902 -1.204821
v -0.844162 0.114167 -1.118019
v -0.844162 0.163337 -1.044433
v -0.844162 0.236923 -0.995263
v -0.844162 0.323724 -0.977998
v -0.844162 0.410525 -0.995263
v -0.844162 0.484112 -1.044433
v -0.844162 0.533282 -1.118019
v -0.563143 0.564808 -1.304681
v -0.563143 0.584671 -1.204821
v -0.563143 0.564808 -1.104960
v -0.563143 0.508242 -1.020303
v -0.563143 0.423585 -0.963737
v -0.563143 0.323724 -0.943874
v -0.563143 0.223864 -0.963737
v -0.563143 0.139207 -1.020303
v -0.563143 0.082641 -1.104960
v -0.563143 0.062778 -1.204821
v -0.563143 0.082641 -1.304681
v -0.563143 0.139207 -1.389338
v -0.563143 0.223864 -1.445904
v -0.563143 0.323724 -1.465767
v -0.563143 0.423585 -1.445904
v -0.563143 0.508242 -1.389338
v -0.861224 0.379553 -1.192336
v -0.861224 0.551911 -1.187674
v -0.861224 0.551911 -1.221967
v -0.861224 0.379553 -1.217305
v -0.861224 0.362451 -1.246927
v -0.861224 0.452667 -1.393863
v -0.861224 0.422968 -1.411010
v -0.861224 0.340827 -1.259412
v -0.861224 0.306621 -1.259412
v -0.861224 0.224480 -1.411010
v -0.861224 0.194782 -1.393863
v -0.861224 0.284998 -1.246927
v -0.861224 0.267896 -1.217305
v -0.861224 0.095538 -1.221967
v -0.861224 0.095538 -1.187674
v -0.861224 0.267896 -1.192336
v -0.861224 0.284998 -1.162714
v -0.861224 0.194782 -1.015778
v -0.861224 0.224480 -0.998632
v -0.861224 0.306621 -1.150230
v -0.861224 0.340827 -1.150230
v -0.861224 0.422968 -0.998632
v -0.861224 0.452667 -1.015778
v -0.861224 0.362451 -1.162714
v 0.563143 0.584671 -1.204821
v 0.609310 0.647449 -1.204821
v 0.609310 0.622806 -1.328704
v 0.563143 0.564808 -1.304681
v 0.609310 0.552632 -1.433728
v 0.563143 0.508242 -1.389338
v 0.609310 0.447609 -1.503903
v 0.563143 0.423585 -1.445904
v 0.609310 0.323724 -1.528545
v 0.563143 0.323724 -1.465767
v 0.609310 0.199840 -1.503903
v 0.563143 0.223864 -1.445904
v 0.609310 0.094817 -1.433728
v 0.563143 0.139207 -1.389338
v 0.609310 0.024642 -1.328704
v 0.563143 0.082641 -1.304681
v 0.609310 0.000000 -1.204821
v 0.563143 0.062778 -1.204821
v 0.609310 0.024642 -1.080936
v 0.563143 0.082641 -1.104960
v 0.609310 0.094817 -0.975913
v 0.563143 0.139207 -1.020303
v 0.609310 0.199840 -0.905739
v 0.563143 0.223864 -0.963737
v 0.609310 0.323724 -0.881096
v 0.563143 0.323724 -0.943874
v 0.609310 0.447609 -0.905739
v 0.563143 0.423585 -0.963737
v 0.609310 0.552632 -0.975913
v 0.563143 0.508242 -1.020303
v 0.609310 0.622806 -1.080936
v 0.563143 0.564808 -1.104960
v 0.810038 0.647449 -1.204821
v 0.810038 0.622806 -1.328704
v 0.810038 0.552632 -1.433728
v 0.810038 0.447609 -1.503903
v 0.810038 0.323724 -1.528545
v 0.810038 0.199840 -1.503903
v 0.810038 0.094817 -1.433728
v 0.810038 0.024642 -1.328704
v 0.810038 0.000000 -1.204821
v 0.810038 0.024642 -1.080936
v 0.810038 0.094817 -0.975913
v 0.810038 0.199840 -0.905739
v 0.810038 0.323724 -0.881096
v 0.810038 0.447609 -0.905739
v 0.810038 0.552632 -0.975913
v 0.810038 0.622806 -1.080936
v 0.856206 0.584671 -1.204821
v 0.856206 0.564808 -1.304681
v 0.856206 0.508242 -1.389338
v 0.856206 0.423585 -1.445904
v 0.856206 0.323724 -1.465767
v 0.856206 0.223864 -1.445904
v 0.856206 0.139207 -1.389338
v 0.856206 0.082641 -1.304681
v 0.856206 0.062778 -1.204821
v 0.856206 0.082641 -1.104960
v 0.856206 0.139207 -1.020303
v 0.856206 0.223864 -0.963737
v 0.856206 0.323724 -0.943874
v 0.856206 0.423585 -0.963737
v 0.856206 0.508242 -1.020303
v 0.856206 0.564808 -1.104960
v 0.856206 0.584671 -1.204821
v 0.857210 0.563594 -1.204821
v 0.857210 0.545335 -1.296615
v 0.856206 0.564808 -1.304681
v 0.857210 0.493339 -1.374434
v 0.856206 0.508242 -1.389338
v 0.857210 0.415518 -1.426431
v 0.856206 0.423585 -1.445904
v 0.857210 0.323724 -1.444691
v 0.856206 0.323724 -1.465767
v 0.857210 0.231930 -1.426431
v 0.856206 0.223864 -1.445904
v 0.857210 0.154110 -1.374434
v 0.856206 0.139207 -1.389338
v 0.857210 0.102113 -1.296615
v 0.856206 0.082641 -1.304681
v 0.857210 0.083854 -1.204821
v 0.856206 0.062778 -1.204821
v 0.857210 0.102113 -1.113027
v 0.856206 0.082641 -1.104960
v 0.857210 0.154110 -1.035206
v 0.856206 0.139207 -1.020303
v 0.857210 0.231930 -0.983210
v 0.856206 0.223864 -0.963737
v 0.857210 0.323724 -0.964950
v 0.856206 0.323724 -0.943874
v 0.857210 0.415518 -0.983210
v 0.856206 0.423585 -0.963737
v 0.857210 0.493339 -1.035206
v 0.856206 0.508242 -1.020303
v 0.857210 0.545335 -1.113027
v 0.856206 0.564808 -1.104960
v 0.844162 0.550547 -1.204821
v 0.844162 0.533282 -1.291621
v 0.844162 0.484112 -1.365208
v 0.844162 0.410525 -1.414378
v 0.844162 0.323724 -1.431643
v 0.844162 0.236923 -1.414378
v 0.844162 0.163337 -1.365208
v 0.844162 0.114167 -1.291621
v 0.844162 0.096902 -1.204821
v 0.844162 0.114167 -1.118019
v 0.844162 0.163337 -1.044433
v 0.844162 0.236923 -0.995263
v 0.844162 0.323724 -0.977998
v 0.844162 0.410525 -0.995263
v 0.844162 0.484112 -1.044433
v 0.844162 0.533282 -1.118019
v 0.563143 0.564808 -1.104960
v 0.563143 0.584671 -1.204821
v 0.563143 0.564808 -1.304681
v 0.563143 0.508242 -1.389338
v 0.563143 0.423585 -1.445904
v 0.563143 0.323724 -1.465767
v 0.563143 0.223864 -1.445904
v 0.563143 0.139207 -1.389338
v 0.563143 0.082641 -1.304681
v 0.563143 0.062778 -1.204821
v 0.563143 0.082641 -1.104960
v 0.563143 0.139207 -1.020303
v 0.563143 0.223864 -0.963737
v 0.563143 0.323724 -0.943874
v 0.563143 0.423585 -0.963737
v 0.563143 0.508242 -1.020303
v 0.861224 0.379553 -1.192336
v 0.861224 0.379553 -1.217305
v 0.861224 0.551911 -1.221967
v 0.861224 0.551911 -1.187674
v 0.861224 0.362451 -1.246927
v 0.861224 0.340827 -1.259412
v 0.861224 0.422968 -1.411010
v 0.861224 0.452667 -1.393863
v 0.861224 0.306621 -1.259412
v 0.861224 0.284998 -1.246927
v 0.861224 0.194782 -1.393863
v 0.861224 0.224480 -1.411010
v 0.861224 0.267896 -1.217305
v 0.861224 0.267896 -1.192336
v 0.861224 0.095538 -1.187674
v 0.861224 0.095538 -1.221967
v 0.861224 0.284998 -1.162714
v 0.861224 0.306621 -1.150230
v 0.861224 0.224480 -0.998632
v 0.861224 0.194782 -1.015778
v 0.861224 0.340827 -1.150230
v 0.861224 0.362451 -1.162714
v 0.861224 0.452667 -1.015778
v 0.861224 0.422968 -0.998632
vt 0.350586 0.138672
vt 0.249023 0.164218
vt 0.262881 0.158705
vt 0.261761 0.153301
vt 0.249023 0.158368
vt 0.274628 0.143006
vt 0.272560 0.138870
vt 0.282478 0.119511
vt 0.279776 0.117273
vt 0.285234 0.091797
vt 0.282309 0.091797
vt 0.282478 0.064083
vt 0.279776 0.066321
vt 0.274628 0.040588
vt 0.272560 0.044724
vt 0.262881 0.024889
vt 0.261761 0.030293
vt 0.249023 0.019376
vt 0.249023 0.025225
vt 0.235166 0.024889
vt 0.236286 0.030293
vt 0.223419 0.040588
vt 0.225487 0.044724
vt 0.215569 0.064083
vt 0.218271 0.066321
vt 0.212813 0.091797
vt 0.215738 0.091797
vt 0.215569 0.119511
vt 0.218271 0.117273
vt 0.223419 0.143006
vt 0.225487 0.138870
vt 0.235166 0.158705
vt 0.236286 0.153301
vt 0.261068 0.149956
vt 0.249023 0.154747
vt 0.271280 0.136310
vt 0.278103 0.115887
vt 0.280499 0.091797
vt 0.278103 0.067707
vt 0.271280 0.047284
vt 0.261068 0.033638
vt 0.249023 0.028846
vt 0.236978 0.033638
vt 0.226767 0.047284
vt 0.219944 0.067707
vt 0.217548 0.091797
vt 0.219944 0.115887
vt 0.226767 0.136310
vt 0.236978 0.149956
vt 0.247291 0.107291
vt 0.246644 0.155126
vt 0.251403 0.155126
vt 0.250756 0.107291
vt 0.254866 0.102545
vt 0.275256 0.127582
vt 0.277635 0.119340
vt 0.256599 0.096543
vt 0.256599 0.087050
vt 0.277635 0.064253
vt 0.275256 0.056011
vt 0.254866 0.081049
vt 0.250756 0.076303
vt 0.251403 0.028468
vt 0.246644 0.028468
vt 0.247291 0.076303
vt 0.243180 0.081049
vt 0.222791 0.056011
vt 0.220411 0.064253
vt 0.241448 0.087050
vt 0.241448 0.096543
vt 0.220411 0.119340
vt 0.222791 0.127582
vt 0.243180 0.102545
vt 0.350586 0.138672
vt 0.249023 0.164218
vt 0.249023 0.158368
vt 0.261761 0.153301
vt 0.262881 0.158705
vt 0.272560 0.138870
vt 0.274628 0.143006
vt 0.279776 0.117273
vt 0.282478 0.119511
vt 0.282309 0.091797
vt 0.285234 0.091797
vt 0.279776 0.066321
vt 0.282478 0.064083
vt 0.272560 0.044724
vt 0.274628 0.040588
vt 0.261761 0.030293
vt 0.262881 0.024889
vt 0.249023 0.025225
vt 0.249023 0.019376
vt 0.236286 0.030293
vt 0.235166 0.024889
vt 0.225487 0.044724
vt 0.223419 0.040588
vt 0.218271 0.066321
vt 0.215569 0.064083
vt 0.215738 0.091797
vt 0.212813 0.091797
vt 0.218271 0.117273
vt 0.215569 0.119511
vt 0.225487 0.138870
vt 0.223419 0.143006
vt 0.236286 0.153301
vt 0.235166 0.158705
vt 0.249023 0.154747
vt 0.261068 0.149956
vt 0.271280 0.136310
vt 0.278103 0.115887
vt 0.280499 0.091797
vt 0.278103 0.067707
vt 0.271280 0.047284
vt 0.261068 0.033638
vt 0.249023 0.028846
vt 0.236978 0.033638
vt 0.226767 0.047284
vt 0.219944 0.067707
vt 0.217548 0.091797
vt 0.219944 0.115887
vt 0.226767 0.136310
vt 0.236978 0.149956
vt 0.247291 0.107291
vt 0.250756 0.107291
vt 0.251403 0.155126
vt 0.246644 0.155126
vt 0.254866 0.102545
vt 0.256599 0.096543
vt 0.277635 0.119340
vt 0.275256 0.127582
vt 0.256599 0.087050
vt 0.254866 0.081049
vt 0.275256 0.056011
vt 0.277635 0.064253
vt 0.250756 0.076303
vt 0.247291 0.076303
vt 0.246644 0.028468
vt 0.251403 0.028468
vt 0.243180 0.081049
vt 0.241448 0.087050
vt 0.220411 0.064253
vt 0.222791 0.056011
vt 0.241448 0.096543
vt 0.243180 0.102545
vt 0.222791 0.127582
vt 0.220411 0.119340
vn 0.938200 0.346100 0.000000
vn 0.938200 0.319700 -0.132400
vn 0.430200 0.834000 -0.345500
vn 0.430200 0.902700 0.000000
vn 0.938200 0.244800 -0.244700
vn 0.430200 0.638300 -0.638300
vn 0.938200 0.132400 -0.319700
vn 0.430200 0.345500 -0.834000
vn 0.938200 0.000000 -0.346100
vn 0.430200 0.000000 -0.902700
vn 0.938200 -0.132400 -0.319700
vn 0.430200 -0.345500 -0.834000
vn 0.938200 -0.244700 -0.244800
vn 0.430200 -0.638300 -0.638300
vn 0.938200 -0.319700 -0.132400
vn 0.430200 -0.834000 -0.345500
vn 0.938200 -0.346100 0.000000
vn 0.430200 -0.902700 0.000000
vn 0.938200 -0.319700 0.132400
vn 0.430200 -0.834000 0.345500
vn 0.938200 -0.244800 0.244700
vn 0.430200 -0.638300 0.638300
vn 0.938200 -0.132400 0.319700
vn 0.430200 -0.345500 0.834000
vn 0.938200 0.000000 0.346100
vn 0.430200 0.000000 0.902700
vn 0.938200 0.132400 0.319700
vn 0.430200 0.345500 0.834000
vn 0.938200 0.244700 0.244800
vn 0.430200 0.638300 0.638300
vn 0.938200 0.319700 0.132400
vn 0.430200 0.834000 0.345500
vn -0.430200 0.834000 -0.345500
vn -0.430200 0.902700 0.000000
vn -0.430200 0.638300 -0.638300
vn -0.430200 0.345500 -0.834000
vn -0.430200 0.000000 -0.902700
vn -0.430200 -0.345500 -0.834000
vn -0.430200 -0.638300 -0.638300
vn -0.430200 -0.834000 -0.345500
vn -0.430200 -0.902700 0.000000
vn -0.430200 -0.834000 0.345500
vn -0.430200 -0.638300 0.638300
vn -0.430200 -0.345500 0.834000
vn -0.430200 0.000000 0.902700
vn -0.430200 0.345500 0.834000
vn -0.430200 0.638300 0.638300
vn -0.430200 0.834000 0.345500
vn -0.930800 0.337700 -0.139900
vn -0.930800 0.365600 0.000000
vn -0.930800 0.258500 -0.258500
vn -0.930800 0.139900 -0.337700
vn -0.930800 0.000000 -0.365600
vn -0.930800 -0.139900 -0.337700
vn -0.930800 -0.258500 -0.258500
vn -0.930800 -0.337700 -0.139900
vn -0.930800 -0.365600 0.000000
vn -0.930800 -0.337700 0.139900
vn -0.930800 -0.258500 0.258500
vn -0.930800 -0.139900 0.337700
vn -0.930800 0.000000 0.365600
vn -0.930800 0.139900 0.337700
vn -0.930800 0.258500 0.258500
vn -0.930800 0.337700 0.139900
vn -0.930800 0.365500 0.000000
vn -0.949100 -0.291100 0.120600
vn -0.949100 -0.315100 0.000000
vn -0.949100 -0.222800 0.222800
vn -0.949100 -0.120600 0.291100
vn -0.930800 0.000000 -0.365500
vn -0.949100 0.000000 0.315100
vn -0.949100 0.120600 0.291100
vn -0.949100 0.222800 0.222800
vn -0.949100 0.291100 0.120600
vn -0.930800 -0.365500 0.000000
vn -0.949100 0.315100 0.000000
vn -0.949100 0.291100 -0.120600
vn -0.949100 0.222800 -0.222800
vn -0.949100 0.120600 -0.291100
vn -0.930800 0.000000 0.365500
vn -0.949100 0.000000 -0.315100
vn -0.949100 -0.120600 -0.291100
vn -0.949100 -0.222800 -0.222800
vn -0.949100 -0.291100 -0.120600
vn -0.906600 -0.389900 0.161500
vn -0.906600 -0.422000 0.000000
vn -0.906600 -0.298400 0.298400
vn -0.906600 -0.161500 0.389900
vn -0.906600 0.000000 0.422000
vn -0.906600 0.161500 0.389900
vn -0.906600 0.298400 0.298400
vn -0.906600 0.389900 0.161500
vn -0.906600 0.422000 0.000000
vn -0.906600 0.389900 -0.161500
vn -0.906600 0.298400 -0.298400
vn -0.906600 0.161500 -0.389900
vn -0.906600 0.000000 -0.422000
vn -0.906600 -0.161500 -0.389900
vn -0.906600 -0.298400 -0.298400
vn -0.906600 -0.389900 -0.161500
vn 0.938200 0.346000 0.000000
vn 0.938200 0.244700 0.244700
vn 0.938200 0.000000 0.346000
vn 0.938200 -0.244700 0.244700
vn 0.938200 -0.346000 0.000000
vn 0.938200 -0.244700 -0.244700
vn 0.938200 0.000000 -0.346000
vn 0.938200 0.244700 -0.244700
vn -1.000000 0.000000 0.000000
vn -0.938200 0.346100 0.000000
vn -0.430200 0.902700 0.000000
vn -0.430200 0.834000 -0.345500
vn -0.938200 0.319700 -0.132400
vn -0.430200 0.638300 -0.638300
vn -0.938200 0.244700 -0.244800
vn -0.430200 0.345500 -0.834000
vn -0.938200 0.132400 -0.319700
vn -0.430200 0.000000 -0.902700
vn -0.938200 0.000000 -0.346100
vn -0.430200 -0.345500 -0.834000
vn -0.938200 -0.132400 -0.319700
vn -0.430200 -0.638300 -0.638300
vn -0.938200 -0.244800 -0.244700
vn -0.430200 -0.834000 -0.345500
vn -0.938200 -0.319700 -0.132400
vn -0.430200 -0.902700 0.000000
vn -0.938200 -0.346100 0.000000
vn -0.430200 -0.834000 0.345500
vn -0.938200 -0.319700 0.132400
vn -0.430200 -0.638300 0.638300
vn -0.938200 -0.244700 0.244800
vn -0.430200 -0.345500 0.834000
vn -0.938200 -0.132400 0.319700
vn -0.430200 0.000000 0.902700
vn -0.938200 0.000000 0.346100
vn -0.430200 0.345500 0.834000
vn -0.938200 0.132400 0.319700
vn -0.430200 0.638300 0.638300
vn -0.938200 0.244800 0.244700
vn -0.430200 0.834000 0.345500
vn -0.938200 0.319700 0.132400
vn 0.430200 0.902700 0.000000
vn 0.430200 0.834000 -0.345500
vn 0.430200 0.638300 -0.638300
vn 0.430200 0.345500 -0.834000
vn 0.430200 0.000000 -0.902700
vn 0.430200 -0.345500 -0.834000
vn 0.430200 -0.638300 -0.638300
vn 0.430200 -0.834000 -0.345500
vn 0.430200 -0.902700 0.000000
vn 0.430200 -0.834000 0.345500
vn 0.430200 -0.638300 0.638300
vn 0.430200 -0.345500 0.834000
vn 0.430200 0.000000 0.902700
vn 0.430200 0.345500 0.834000
vn 0.430200 0.638300 0.638300
vn 0.430200 0.834000 0.345500
vn 0.930800 0.365600 0.000000
vn 0.930800 0.337700 -0.139900
vn 0.930800 0.258500 -0.258500
vn 0.930800 0.139900 -0.337700
vn 0.930800 0.000000 -0.365600
vn 0.930800 -0.139900 -0.337700
vn 0.930800 -0.258500 -0.258500
vn 0.930800 -0.337700 -0.139900
vn 0.930800 -0.365600 0.000000
vn 0.930800 -0.337700 0.139900
vn 0.930800 -0.258500 0.258500
vn 0.930800 -0.139900 0.337700
vn 0.930800 0.000000 0.365600
vn 0.930800 0.139900 0.337700
vn 0.930800 0.258500 0.258500
vn 0.930800 0.337700 0.139900
vn 0.930800 0.365500 0.000000
vn 0.949100 -0.315100 0.000000
vn 0.949100 -0.291100 0.120600
vn 0.949100 -0.222800 0.222800
vn 0.949100 -0.120600 0.291100
vn 0.949100 0.000000 0.315100
vn 0.930800 0.000000 -0.365500
vn 0.949100 0.120600 0.291100
vn 0.949100 0.222800 0.222800
vn 0.949100 0.291100 0.120600
vn 0.949100 0.315100 0.000000
vn 0.930800 -0.365500 0.000000
vn 0.949100 0.291100 -0.120600
vn 0.949100 0.222800 -0.222800
vn 0.949100 0.120600 -0.291100
vn 0.949100 0.000000 -0.315100
vn 0.930800 0.000000 0.365500
vn 0.949100 -0.120600 -0.291100
vn 0.949100 -0.222800 -0.222800
vn 0.949100 -0.291100 -0.120600
vn 0.906600 -0.422000 0.000000
vn 0.906600 -0.389900 0.161500
vn 0.906600 -0.298400 0.298400
vn 0.906600 -0.161500 0.389900
vn 0.906600 0.000000 0.422000
vn 0.906600 0.161500 0.389900
vn 0.906600 0.298400 0.298400
vn 0.906600 0.389900 0.161500
vn 0.906600 0.422000 0.000000
vn 0.906600 0.389900 -0.161500
vn 0.906600 0.298400 -0.298400
vn 0.906600 0.161500 -0.389900
vn 0.906600 0.000000 -0.422000
vn 0.906600 -0.161500 -0.389900
vn 0.906600 -0.298400 -0.298400
vn 0.906600 -0.389900 -0.161500
vn -0.938200 0.346000 0.000000
vn -0.938200 0.244700 -0.244700
vn -0.938200 0.000000 -0.346000
vn -0.938200 -0.244700 -0.244700
vn -0.938200 -0.346000 0.000000
vn -0.938200 -0.244700 0.244700
vn -0.938200 0.000000 0.346000
vn -0.938200 0.244700 0.244700
vn 1.000000 0.000000 0.000000
o roadster_99_wheels_f
usemtl roadster_99_wheels_f
f 1/1/1 2/1/2 3/1/3
f 1/1/1 3/1/3 4/1/4
f 2/1/2 5/1/5 6/1/6
f 2/1/2 6/1/6 3/1/3
f 5/1/5 7/1/7 8/1/8
f 5/1/5 8/1/8 6/1/6
f 7/1/7 9/1/9 10/1/10
f 7/1/7 10/1/10 8/1/8
f 9/1/9 11/1/11 12/1/12
f 9/1/9 12/1/12 10/1/10
f 11/1/11 13/1/13 14/1/14
f 11/1/11 14/1/14 12/1/12
f 13/1/13 15/1/15 16/1/16
f 13/1/13 16/1/16 14/1/14
f 15/1/15 17/1/17 18/1/18
f 15/1/15 18/1/18 16/1/16
f 17/1/17 19/1/19 20/1/20
f 17/1/17 20/1/20 18/1/18
f 19/1/19 21/1/21 22/1/22
f 19/1/19 22/1/22 20/1/20
f 21/1/21 23/1/23 24/1/24
f 21/1/21 24/1/24 22/1/22
f 23/1/23 25/1/25 26/1/26
f 23/1/23 26/1/26 24/1/24
f 25/1/25 27/1/27 28/1/28
f 25/1/25 28/1/28 26/1/26
f 27/1/27 29/1/29 30/1/30
f 27/1/27 30/1/30 28/1/28
f 29/1/29 31/1/31 32/1/32
f 29/1/29 32/1/32 30/1/30
f 31/1/31 1/1/1 4/1/4
f 31/1/31 4/1/4 32/1/32
f 4/1/4 3/1/3 33/1/33
f 4/1/4 33/1/33 34/1/34
f 3/1/3 6/1/6 35/1/35
f 3/1/3 35/1/35 33/1/33
f 6/1/6 8/1/8 36/1/36
f 6/1/6 36/1/36 35/1/35
f 8/1/8 10/1/10 37/1/37
f 8/1/8 37/1/37 36/1/36
f 10/1/10 12/1/12 38/1/38
f 10/1/10 38/1/38 37/1/37
f 12/1/12 14/1/14 39/1/39
f 12/1/12 39/1/39 38/1/38
f 14/1/14 16/1/16 40/1/40
f 14/1/14 40/1/40 39/1/39
f 16/1/16 18/1/18 41/1/41
f 16/1/16 41/1/41 40/1/40
f 18/1/18 20/1/20 42/1/42
f 18/1/18 42/1/42 41/1/41
f 20/1/20 22/1/22 43/1/43
f 20/1/20 43/1/43 42/1/42
f 22/1/22 24/1/24 44/1/44
f 22/1/22 44/1/44 43/1/43
f 24/1/24 26/1/26 45/1/45
f 24/1/24 45/1/45 44/1/44
f 26/1/26 28/1/28 46/1/46
f 26/1/26 46/1/46 45/1/45
f 28/1/28 30/1/30 47/1/47
f 28/1/28 47/1/47 46/1/46
f 30/1/30 32/1/32 48/1/48
f 30/1/30 48/1/48 47/1/47
f 32/1/32 4/1/4 34/1/34
f 32/1/32 34/1/34 48/1/48
f 34/1/34 33/1/33 49/1/49
f 34/1/34 49/1/49 50/1/50
f 33/1/33 35/1/35 51/1/51
f 33/1/33 51/1/51 49/1/49
f 35/1/35 36/1/36 52/1/52
f 35/1/35 52/1/52 51/1/51
f 36/1/36 37/1/37 53/1/53
f 36/1/36 53/1/53 52/1/52
f 37/1/37 38/1/38 54/1/54
f 37/1/37 54/1/54 53/1/53
f 38/1/38 39/1/39 55/1/55
f 38/1/38 55/1/55 54/1/54
f 39/1/39 40/1/40 56/1/56
f 39/1/39 56/1/56 55/1/55
f 40/1/40 41/1/41 57/1/57
f 40/1/40 57/1/57 56/1/56
f 41/1/41 42/1/42 58/1/58
f 41/1/41 58/1/58 57/1/57
f 42/1/42 43/1/43 59/1/59
f 42/1/42 59/1/59 58/1/58
f 43/1/43 44/1/44 60/1/60
f 43/1/43 60/1/60 59/1/59
f 44/1/44 45/1/45 61/1/61
f 44/1/44 61/1/61 60/1/60
f 45/1/45 46/1/46 62/1/62
f 45/1/45 62/1/62 61/1/61
f 46/1/46 47/1/47 63/1/63
f 46/1/46 63/1/63 62/1/62
f 47/1/47 48/1/48 64/1/64
f 47/1/47 64/1/64 63/1/63
f 48/1/48 34/1/34 50/1/50
f 48/1/48 50/1/50 64/1/64
f 65/2/65 66/3/49 67/4/66
f 65/2/65 67/4/66 68/5/67
f 66/3/49 69/6/51 70/7/68
f 66/3/49 70/7/68 67/4/66
f 69/6/51 71/8/52 72/9/69
f 69/6/51 72/9/69 70/7/68
f 71/8/52 73/10/70 74/11/71
f 71/8/52 74/11/71 72/9/69
f 73/10/70 75/12/54 76/13/72
f 73/10/70 76/13/72 74/11/71
f 75/12/54 77/14/55 78/15/73
f 75/12/54 78/15/73 76/13/72
f 77/14/55 79/16/56 80/17/74
f 77/14/55 80/17/74 78/15/73
f 79/16/56 81/18/75 82/19/76
f 79/16/56 82/19/76 80/17/74
f 81/18/75 83/20/58 84/21/77
f 81/18/75 84/21/77 82/19/76
f 83/20/58 85/22/59 86/23/78
f 83/20/58 86/23/78 84/21/77
f 85/22/59 87/24/60 88/25/79
f 85/22/59 88/25/79 86/23/78
f 87/24/60 89/26/80 90/27/81
f 87/24/60 90/27/81 88/25/79
f 89/26/80 91/28/62 92/29/82
f 89/26/80 92/29/82 90/27/81
f 91/28/62 93/30/63 94/31/83
f 91/28/62 94/31/83 92/29/82
f 93/30/63 95/32/64 96/33/84
f 93/30/63 96/33/84 94/31/83
f 95/32/64 65/2/65 68/5/67
f 95/32/64 68/5/67 96/33/84
f 68/5/67 67/4/66 97/34/85
f 68/5/67 97/34/85 98/35/86
f 67/4/66 70/7/68 99/36/87
f 67/4/66 99/36/87 97/34/85
f 70/7/68 72/9/69 100/37/88
f 70/7/68 100/37/88 99/36/87
f 72/9/69 74/11/71 101/38/89
f 72/9/69 101/38/89 100/37/88
f 74/11/71 76/13/72 102/39/90
f 74/11/71 102/39/90 101/38/89
f 76/13/72 78/15/73 103/40/91
f 76/13/72 103/40/91 102/39/90
f 78/15/73 80/17/74 104/41/92
f 78/15/73 104/41/92 103/40/91
f 80/17/74 82/19/76 105/42/93
f 80/17/74 105/42/93 104/41/92
f 82/19/76 84/21/77 106/43/94
f 82/19/76 106/43/94 105/42/93
f 84/21/77 86/23/78 107/44/95
f 84/21/77 107/44/95 106/43/94
f 86/23/78 88/25/79 108/45/96
f 86/23/78 108/45/96 107/44/95
f 88/25/79 90/27/81 109/46/97
f 88/25/79 109/46/97 108/45/96
f 90/27/81 92/29/82 110/47/98
f 90/27/81 110/47/98 109/46/97
f 92/29/82 94/31/83 111/48/99
f 92/29/82 111/48/99 110/47/98
f 94/31/83 96/33/84 112/49/100
f 94/31/83 112/49/100 111/48/99
f 96/33/84 68/5/67 98/35/86
f 96/33/84 98/35/86 112/49/100
f 113/3/2 114/2/101 115/32/31
f 115/32/31 116/30/102 117/28/27
f 117/28/27 118/26/103 119/24/23
f 119/24/23 120/22/104 121/20/19
f 121/20/19 122/18/105 123/16/15
f 123/16/15 124/14/106 125/12/11
f 125/12/11 126/10/107 127/8/7
f 127/8/7 128/6/108 113/3/2
f 113/3/2 115/32/31 117/28/27
f 117/28/27 119/24/23 121/20/19
f 121/20/19 123/16/15 125/12/11
f 125/12/11 127/8/7 113/3/2
f 113/3/2 117/28/27 121/20/19
f 121/20/19 125/12/11 113/3/2
f 112/49/100 98/35/86 97/34/85
f 97/34/85 99/36/87 100/37/88
f 100/37/88 101/38/89 102/39/90
f 102/39/90 103/40/91 104/41/92
f 104/41/92 105/42/93 106/43/94
f 106/43/94 107/44/95 108/45/96
f 108/45/96 109/46/97 110/47/98
f 110/47/98 111/48/99 112/49/100
f 112/49/100 97/34/85 100/37/88
f 100/37/88 102/39/90 104/41/92
f 104/41/92 106/43/94 108/45/96
f 108/45/96 110/47/98 112/49/100
f 112/49/100 100/37/88 104/41/92
f 104/41/92 108/45/96 112/49/100
f 129/50/109 130/51/109 131/52/109
f 129/50/109 131/52/109 132/53/109
f 133/54/109 134/55/109 135/56/109
f 133/54/109 135/56/109 136/57/109
f 137/58/109 138/59/109 139/60/109
f 137/58/109 139/60/109 140/61/109
f 141/62/109 142/63/109 143/64/109
f 141/62/109 143/64/109 144/65/109
f 145/66/109 146/67/109 147/68/109
f 145/66/109 147/68/109 148/69/109
f 149/70/109 150/71/109 151/72/109
f 149/70/109 151/72/109 152/73/109
f 153/74/110 154/74/111 155/74/112
f 153/74/110 155/74/112 156/74/113
f 156/74/113 155/74/112 157/74/114
f 156/74/113 157/74/114 158/74/115
f 158/74/115 157/74/114 159/74/116
f 158/74/115 159/74/116 160/74/117
f 160/74/117 159/74/116 161/74/118
f 160/74/117 161/74/118 162/74/119
f 162/74/119 161/74/118 163/74/120
f 162/74/119 163/74/120 164/74/121
f 164/74/121 163/74/120 165/74/122
f 164/74/121 165/74/122 166/74/123
f 166/74/123 165/74/122 167/74/124
f 166/74/123 167/74/124 168/74/125
f 168/74/125 167/74/124 169/74/126
f 168/74/125 169/74/126 170/74/127
f 170/74/127 169/74/126 171/74/128
f 170/74/127 171/74/128 172/74/129
f 172/74/129 171/74/128 173/74/130
f 172/74/129 173/74/130 174/74/131
f 174/74/131 173/74/130 175/74/132
f 174/74/131 175/74/132 176/74/133
f 176/74/133 175/74/132 177/74/134
f 176/74/133 177/74/134 178/74/135
f 178/74/135 177/74/134 179/74/136
f 178/74/135 179/74/136 180/74/137
f 180/74/137 179/74/136 181/74/138
f 180/74/137 181/74/138 182/74/139
f 182/74/139 181/74/138 183/74/140
f 182/74/139 183/74/140 184/74/141
f 184/74/141 183/74/140 154/74/111
f 184/74/141 154/74/111 153/74/110
f 154/74/111 185/74/142 186/74/143
f 154/74/111 186/74/143 155/74/112
f 155/74/112 186/74/143 187/74/144
f 155/74/112 187/74/144 157/74/114
f 157/74/114 187/74/144 188/74/145
f 157/74/114 188/74/145 159/74/116
f 159/74/116 188/74/145 189/74/146
f 159/74/116 189/74/146 161/74/118
f 161/74/118 189/74/146 190/74/147
f 161/74/118 190/74/147 163/74/120
f 163/74/120 190/74/147 191/74/148
f 163/74/120 191/74/148 165/74/122
f 165/74/122 191/74/148 192/74/149
f 165/74/122 192/74/149 167/74/124
f 167/74/124 192/74/149 193/74/150
f 167/74/124 193/74/150 169/74/126
f 169/74/126 193/74/150 194/74/151
f 169/74/126 194/74/151 171/74/128
f 171/74/128 194/74/151 195/74/152
f 171/74/128 195/74/152 173/74/130
f 173/74/130 195/74/152 196/74/153
f 173/74/130 196/74/153 175/74/132
f 175/74/132 196/74/153 197/74/154
f 175/74/132 197/74/154 177/74/134
f 177/74/134 197/74/154 198/74/155
f 177/74/134 198/74/155 179/74/136
f 179/74/136 198/74/155 199/74/156
f 179/74/136 199/74/156 181/74/138
f 181/74/138 199/74/156 200/74/157
f 181/74/138 200/74/157 183/74/140
f 183/74/140 200/74/157 185/74/142
f 183/74/140 185/74/142 154/74/111
f 185/74/142 201/74/158 202/74/159
f 185/74/142 202/74/159 186/74/143
f 186/74/143 202/74/159 203/74/160
f 186/74/143 203/74/160 187/74/144
f 187/74/144 203/74/160 204/74/161
f 187/74/144 204/74/161 188/74/145
f 188/74/145 204/74/161 205/74/162
f 188/74/145 205/74/162 189/74/146
f 189/74/146 205/74/162 206/74/163
f 189/74/146 206/74/163 190/74/147
f 190/74/147 206/74/163 207/74/164
f 190/74/147 207/74/164 191/74/148
f 191/74/148 207/74/164 208/74/165
f 191/74/148 208/74/165 192/74/149
f 192/74/149 208/74/165 209/74/166
f 192/74/149 209/74/166 193/74/150
f 193/74/150 209/74/166 210/74/167
f 193/74/150 210/74/167 194/74/151
f 194/74/151 210/74/167 211/74/168
f 194/74/151 211/74/168 195/74/152
f 195/74/152 211/74/168 212/74/169
f 195/74/152 212/74/169 196/74/153
f 196/74/153 212/74/169 213/74/170
f 196/74/153 213/74/170 197/74/154
f 197/74/154 213/74/170 214/74/171
f 197/74/154 214/74/171 198/74/155
f 198/74/155 214/74/171 215/74/172
f 198/74/155 215/74/172 199/74/156
f 199/74/156 215/74/172 216/74/173
f 199/74/156 216/74/173 200/74/157
f 200/74/157 216/74/173 201/74/158
f 200/74/157 201/74/158 185/74/142
f 217/75/174 218/76/175 219/77/176
f 217/75/174 219/77/176 220/78/159
f 220/78/159 219/77/176 221/79/177
f 220/78/159 221/79/177 222/80/160
f 222/80/160 221/79/177 223/81/178
f 222/80/160 223/81/178 224/82/161
f 224/82/161 223/81/178 225/83/179
f 224/82/161 225/83/179 226/84/180
f 226/84/180 225/83/179 227/85/181
f 226/84/180 227/85/181 228/86/163
f 228/86/163 227/85/181 229/87/182
f 228/86/163 229/87/182 230/88/164
f 230/88/164 229/87/182 231/89/183
f 230/88/164 231/89/183 232/90/165
f 232/90/165 231/89/183 233/91/184
f 232/90/165 233/91/184 234/92/185
f 234/92/185 233/91/184 235/93/186
f 234/92/185 235/93/186 236/94/167
f 236/94/167 235/93/186 237/95/187
f 236/94/167 237/95/187 238/96/168
f 238/96/168 237/95/187 239/97/188
f 238/96/168 239/97/188 240/98/169
f 240/98/169 239/97/188 241/99/189
f 240/98/169 241/99/189 242/100/190
f 242/100/190 241/99/189 243/101/191
f 242/100/190 243/101/191 244/102/171
f 244/102/171 243/101/191 245/103/192
f 244/102/171 245/103/192 246/104/172
f 246/104/172 245/103/192 247/105/193
f 246/104/172 247/105/193 248/106/173
f 248/106/173 247/105/193 218/76/175
f 248/106/173 218/76/175 217/75/174
f 218/76/175 249/107/194 250/108/195
f 218/76/175 250/108/195 219/77/176
f 219/77/176 250/108/195 251/109/196
f 219/77/176 251/109/196 221/79/177
f 221/79/177 251/109/196 252/110/197
f 221/79/177 252/110/197 223/81/178
f 223/81/178 252/110/197 253/111/198
f 223/81/178 253/111/198 225/83/179
f 225/83/179 253/111/198 254/112/199
f 225/83/179 254/112/199 227/85/181
f 227/85/181 254/112/199 255/113/200
f 227/85/181 255/113/200 229/87/182
f 229/87/182 255/113/200 256/114/201
f 229/87/182 256/114/201 231/89/183
f 231/89/183 256/114/201 257/115/202
f 231/89/183 257/115/202 233/91/184
f 233/91/184 257/115/202 258/116/203
f 233/91/184 258/116/203 235/93/186
f 235/93/186 258/116/203 259/117/204
f 235/93/186 259/117/204 237/95/187
f 237/95/187 259/117/204 260/118/205
f 237/95/187 260/118/205 239/97/188
f 239/97/188 260/118/205 261/119/206
f 239/97/188 261/119/206 241/99/189
f 241/99/189 261/119/206 262/120/207
f 241/99/189 262/120/207 243/101/191
f 243/101/191 262/120/207 263/121/208
f 243/101/191 263/121/208 245/103/192
f 245/103/192 263/121/208 264/122/209
f 245/103/192 264/122/209 247/105/193
f 247/105/193 264/122/209 249/107/194
f 247/105/193 249/107/194 218/76/175
f 265/106/141 266/75/210 267/78/113
f 267/78/113 268/80/211 269/82/117
f 269/82/117 270/84/212 271/86/121
f 271/86/121 272/88/213 273/90/125
f 273/90/125 274/92/214 275/94/129
f 275/94/129 276/96/215 277/98/133
f 277/98/133 278/100/216 279/102/137
f 279/102/137 280/104/217 265/106/141
f 265/106/141 267/78/113 269/82/117
f 269/82/117 271/86/121 273/90/125
f 273/90/125 275/94/129 277/98/133
f 277/98/133 279/102/137 265/106/141
f 265/106/141 269/82/117 273/90/125
f 273/90/125 277/98/133 265/106/141
f 250/108/195 249/107/194 264/122/209
f 264/122/209 263/121/208 262/120/207
f 262/120/207 261/119/206 260/118/205
f 260/118/205 259/117/204 258/116/203
f 258/116/203 257/115/202 256/114/201
f 256/114/201 255/113/200 254/112/199
f 254/112/199 253/111/198 252/110/197
f 252/110/197 251/109/196 250/108/195
f 250/108/195 264/122/209 262/120/207
f 262/120/207 260/118/205 258/116/203
f 258/116/203 256/114/201 254/112/199
f 254/112/199 252/110/197 250/108/195
f 250/108/195 262/120/207 258/116/203
f 258/116/203 254/112/199 250/108/195
f 281/123/218 282/124/218 283/125/218
f 281/123/218 283/125/218 284/126/218
f 285/127/218 286/128/218 287/129/218
f 285/127/218 287/129/218 288/130/218
f 289/131/218 290/132/218 291/133/218
f 289/131/218 291/133/218 292/134/218
f 293/135/218 294/136/218 295/137/218
f 293/135/218 295/137/218 296/138/218
f 297/139/218 298/140/218 299/141/218
f 297/139/218 299/141/218 300/142/218
f 301/143/218 302/144/218 303/145/218
f 301/143/218 303/145/218 304/146/218
