# PSX Racing car model — generated by tools/carmodels/export_models.mjs
mtllib skyline_r32_wheels_r.mtl
v -0.913362 0.334917 -1.660726
v -0.913362 0.095269 -1.561460
v -0.913362 0.334917 -1.321812
v -0.913362 0.574565 -1.561460
v -0.601385 -0.003996 -1.321812
v -0.601385 0.095269 -1.561460
v -0.601385 0.334917 -1.321812
v -0.601385 0.095269 -1.082164
v -0.601385 0.334917 -1.660726
v -0.601385 0.095269 -1.561460
v -0.913362 0.095269 -1.561460
v -0.913362 0.334917 -1.660726
v -0.913362 -0.003996 -1.321812
v -0.913362 0.095269 -1.082164
v -0.601385 0.334917 -0.982899
v -0.601385 0.574565 -1.082164
v -0.601385 0.095269 -1.561460
v -0.601385 -0.003996 -1.321812
v -0.913362 -0.003996 -1.321812
v -0.913362 0.095269 -1.561460
v -0.601385 -0.003996 -1.321812
v -0.601385 0.095269 -1.082164
v -0.913362 0.095269 -1.082164
v -0.913362 -0.003996 -1.321812
v -0.913362 0.334917 -0.982899
v -0.913362 0.574565 -1.082164
v -0.601385 0.673831 -1.321812
v -0.601385 0.574565 -1.561460
v -0.601385 0.095269 -1.082164
v -0.601385 0.334917 -0.982899
v -0.913362 0.334917 -0.982899
v -0.913362 0.095269 -1.082164
v -0.601385 0.334917 -0.982899
v -0.601385 0.574565 -1.082164
v -0.913362 0.574565 -1.082164
v -0.913362 0.334917 -0.982899
v -0.913362 0.673831 -1.321812
v -0.601385 0.574565 -1.082164
v -0.601385 0.673831 -1.321812
v -0.913362 0.673831 -1.321812
v -0.913362 0.574565 -1.082164
v -0.601385 0.673831 -1.321812
v -0.601385 0.574565 -1.561460
v -0.913362 0.574565 -1.561460
v -0.913362 0.673831 -1.321812
v -0.601385 0.574565 -1.561460
v -0.601385 0.334917 -1.660726
v -0.913362 0.334917 -1.660726
v -0.913362 0.574565 -1.561460
v -0.601385 0.334917 -1.660726
v 0.913362 0.334917 -1.660726
v 0.913362 0.574565 -1.561460
v 0.913362 0.334917 -1.321812
v 0.913362 0.095269 -1.561460
v 0.601385 -0.003996 -1.321812
v 0.601385 0.095269 -1.082164
v 0.601385 0.334917 -1.321812
v 0.601385 0.095269 -1.561460
v 0.601385 0.334917 -1.660726
v 0.913362 0.334917 -1.660726
v 0.913362 0.095269 -1.561460
v 0.601385 0.095269 -1.561460
v 0.913362 0.095269 -1.082164
v 0.913362 -0.003996 -1.321812
v 0.601385 0.334917 -0.982899
v 0.601385 0.574565 -1.082164
v 0.601385 0.095269 -1.561460
v 0.913362 0.095269 -1.561460
v 0.913362 -0.003996 -1.321812
v 0.601385 -0.003996 -1.321812
v 0.601385 -0.003996 -1.321812
v 0.913362 -0.003996 -1.321812
v 0.913362 0.095269 -1.082164
v 0.601385 0.095269 -1.082164
v 0.913362 0.574565 -1.082164
v 0.913362 0.334917 -0.982899
v 0.601385 0.673831 -1.321812
v 0.601385 0.574565 -1.561460
v 0.601385 0.095269 -1.082164
v 0.913362 0.095269 -1.082164
v 0.913362 0.334917 -0.982899
v 0.601385 0.334917 -0.982899
v 0.601385 0.334917 -0.982899
v 0.913362 0.334917 -0.982899
v 0.913362 0.574565 -1.082164
v 0.601385 0.574565 -1.082164
v 0.913362 0.673831 -1.321812
v 0.601385 0.574565 -1.082164
v 0.913362 0.574565 -1.082164
v 0.913362 0.673831 -1.321812
v 0.601385 0.673831 -1.321812
v 0.601385 0.673831 -1.321812
v 0.913362 0.673831 -1.321812
v 0.913362 0.574565 -1.561460
v 0.601385 0.574565 -1.561460
v 0.601385 0.574565 -1.561460
v 0.913362 0.574565 -1.561460
v 0.913362 0.334917 -1.660726
v 0.601385 0.334917 -1.660726
v 0.601385 0.334917 -1.660726
vt 0.996285 0.825349
vt 0.925265 0.754329
vt 0.875046 0.875568
vt 0.996285 0.925787
vt 0.925265 0.996850
vt 0.996286 0.925830
vt 0.875046 0.875611
vt 0.824827 0.996850
vt 0.982095 0.681434
vt 0.982095 0.668939
vt 0.967067 0.668939
vt 0.967067 0.681434
vt 0.824827 0.754329
vt 0.753806 0.825349
vt 0.753806 0.925830
vt 0.753806 0.825392
vt 0.982095 0.656444
vt 0.967067 0.656444
vt 0.982095 0.756404
vt 0.982095 0.743909
vt 0.967067 0.743909
vt 0.967067 0.756404
vt 0.753806 0.925787
vt 0.824827 0.996808
vt 0.824827 0.754371
vt 0.925265 0.754371
vt 0.982095 0.731414
vt 0.967067 0.731414
vt 0.982095 0.718919
vt 0.967067 0.718919
vt 0.925265 0.996808
vt 0.982095 0.706424
vt 0.967067 0.706424
vt 0.982095 0.693929
vt 0.967067 0.693929
vt 0.996286 0.825392
vt 0.996285 0.825349
vt 0.996285 0.925787
vt 0.875046 0.875568
vt 0.925265 0.754329
vt 0.925265 0.996850
vt 0.824827 0.996850
vt 0.875046 0.875611
vt 0.996286 0.925830
vt 0.982095 0.681434
vt 0.967067 0.681434
vt 0.967067 0.668939
vt 0.982095 0.668939
vt 0.753806 0.825349
vt 0.824827 0.754329
vt 0.753806 0.925830
vt 0.753806 0.825392
vt 0.967067 0.656444
vt 0.982095 0.656444
vt 0.982095 0.756404
vt 0.967067 0.756404
vt 0.967067 0.743909
vt 0.982095 0.743909
vt 0.824827 0.996808
vt 0.753806 0.925787
vt 0.824827 0.754371
vt 0.925265 0.754371
vt 0.967067 0.731414
vt 0.982095 0.731414
vt 0.967067 0.718919
vt 0.982095 0.718919
vt 0.925265 0.996808
vt 0.967067 0.706424
vt 0.982095 0.706424
vt 0.967067 0.693929
vt 0.982095 0.693929
vt 0.996286 0.825392
vn -1.000000 0.000000 0.000000
vn 1.000000 0.000000 0.000000
vn 0.000000 -0.382700 -0.923900
vn 0.000000 -0.923900 -0.382700
vn 0.000000 -0.923900 0.382700
vn 0.000000 -0.382700 0.923900
vn 0.000000 0.382700 0.923900
vn 0.000000 0.923900 0.382700
vn 0.000000 0.923900 -0.382700
vn 0.000000 0.382700 -0.923900
vn 1.000000 0.000000 0.000000
vn -1.000000 0.000000 0.000000
vn 0.000000 -0.382700 -0.923900
vn 0.000000 -0.923900 -0.382700
vn 0.000000 -0.923900 0.382700
vn 0.000000 -0.382700 0.923900
vn 0.000000 0.382700 0.923900
vn 0.000000 0.923900 0.382700
vn 0.000000 0.923900 -0.382700
vn 0.000000 0.382700 -0.923900
o skyline_r32_wheels_r
usemtl skyline_r32_wheels_r
f 1/1/1 2/2/1 3/3/1
f 1/1/1 3/3/1 4/4/1
f 5/5/2 6/6/2 7/7/2
f 5/5/2 7/7/2 8/8/2
f 9/9/3 10/10/3 11/11/3
f 9/9/3 11/11/3 12/12/3
f 3/3/1 2/2/1 13/13/1
f 3/3/1 13/13/1 14/14/1
f 15/15/2 8/8/2 7/7/2
f 15/15/2 7/7/2 16/16/2
f 17/10/4 18/17/4 19/18/4
f 17/10/4 19/18/4 20/11/4
f 21/19/5 22/20/5 23/21/5
f 21/19/5 23/21/5 24/22/5
f 3/3/1 14/14/1 25/23/1
f 3/3/1 25/23/1 26/24/1
f 27/25/2 16/16/2 7/7/2
f 27/25/2 7/7/2 28/26/2
f 29/20/6 30/27/6 31/28/6
f 29/20/6 31/28/6 32/21/6
f 33/27/7 34/29/7 35/30/7
f 33/27/7 35/30/7 36/28/7
f 3/3/1 26/24/1 37/31/1
f 3/3/1 37/31/1 4/4/1
f 38/29/8 39/32/8 40/33/8
f 38/29/8 40/33/8 41/30/8
f 42/32/9 43/34/9 44/35/9
f 42/32/9 44/35/9 45/33/9
f 46/34/10 47/9/10 48/12/10
f 46/34/10 48/12/10 49/35/10
f 7/7/2 6/6/2 50/36/2
f 7/7/2 50/36/2 28/26/2
f 51/37/11 52/38/11 53/39/11
f 51/37/11 53/39/11 54/40/11
f 55/41/12 56/42/12 57/43/12
f 55/41/12 57/43/12 58/44/12
f 59/45/13 60/46/13 61/47/13
f 59/45/13 61/47/13 62/48/13
f 53/39/11 63/49/11 64/50/11
f 53/39/11 64/50/11 54/40/11
f 65/51/12 66/52/12 57/43/12
f 65/51/12 57/43/12 56/42/12
f 67/48/14 68/47/14 69/53/14
f 67/48/14 69/53/14 70/54/14
f 71/55/15 72/56/15 73/57/15
f 71/55/15 73/57/15 74/58/15
f 53/39/11 75/59/11 76/60/11
f 53/39/11 76/60/11 63/49/11
f 77/61/12 78/62/12 57/43/12
f 77/61/12 57/43/12 66/52/12
f 79/58/16 80/57/16 81/63/16
f 79/58/16 81/63/16 82/64/16
f 83/64/17 84/63/17 85/65/17
f 83/64/17 85/65/17 86/66/17
f 53/39/11 52/38/11 87/67/11
f 53/39/11 87/67/11 75/59/11
f 88/66/18 89/65/18 90/68/18
f 88/66/18 90/68/18 91/69/18
f 92/69/19 93/68/19 94/70/19
f 92/69/19 94/70/19 95/71/19
f 96/71/20 97/70/20 98/46/20
f 96/71/20 98/46/20 99/45/20
f 57/43/12 78/62/12 100/72/12
f 57/43/12 100/72/12 58/44/12
