# PSX Racing car model — generated by tools/carmodels/export_models.mjs
mtllib skyline_r32.mtl
v 0.900912 0.171706 1.664319
v 0.900912 0.451045 1.649025
v 0.804771 0.435677 2.049427
v 0.804771 0.168336 2.021449
v 0.000000 0.929458 0.841092
v 0.756242 0.882456 0.694897
v 0.536186 1.262298 0.104732
v 0.000000 1.294955 0.182256
v 0.900912 0.668601 -1.202297
v 0.756242 0.921833 -1.479464
v 0.756242 0.917601 -0.611603
v 0.847500 0.653018 -0.610678
v 0.900912 0.683963 -1.409821
v 0.756242 0.921833 -1.479464
v 0.900912 0.668601 -1.202297
v 0.000000 0.604644 -2.327641
v 0.000000 0.675370 -2.264602
v 0.817996 0.676064 -2.172219
v 0.817996 0.609842 -2.222162
v 0.847500 0.180364 0.694897
v 0.847500 0.488999 0.694897
v 0.900912 0.469805 0.927130
v 0.900912 0.178290 0.927130
v 0.847500 0.189998 -0.609059
v 0.847500 0.509847 -0.610177
v 0.847500 0.488999 0.694897
v 0.847500 0.180364 0.694897
v 0.756242 0.917601 -0.611603
v 0.536186 1.262672 -0.535862
v 0.536186 1.262298 0.104732
v 0.756242 0.882456 0.694897
v 0.804771 0.435677 2.049427
v 0.804771 0.555344 2.021449
v 0.000000 0.555344 2.199082
v 0.000000 0.435677 2.280471
v 0.000000 0.983122 -1.695937
v 0.000000 1.304111 -1.000943
v 0.536186 1.262913 -0.949721
v 0.756242 0.921833 -1.479464
v 0.817996 0.609842 -2.222162
v 0.817996 0.676064 -2.172219
v 0.900912 0.683963 -1.409821
v 0.900912 0.555248 -1.612022
v 0.900912 0.527984 -1.007674
v 0.900912 0.668601 -1.202297
v 0.847500 0.653018 -0.610678
v 0.847500 0.509847 -0.610177
v 0.000000 0.788451 1.863146
v 0.000000 0.707928 2.147450
v 0.711622 0.707928 1.989412
v 0.727649 0.769222 1.664163
v 0.817996 0.676064 -2.172219
v 0.817996 0.930028 -2.123152
v 0.756242 0.921833 -1.479464
v 0.900912 0.683963 -1.409821
v 0.000000 0.929458 0.841092
v 0.000000 0.893222 1.217786
v 0.755168 0.840929 1.105691
v 0.756242 0.882456 0.694897
v 0.847500 0.653018 -0.610678
v 0.756242 0.917601 -0.611603
v 0.756242 0.882456 0.694897
v 0.847500 0.627150 0.694897
v 0.847500 0.653018 -0.610678
v 0.847500 0.627150 0.694897
v 0.900912 0.576083 1.557495
v 0.727649 0.769222 1.664163
v 0.711622 0.707928 1.989412
v 0.804771 0.555344 2.021449
v 0.000000 0.675370 -2.264602
v 0.000000 0.952919 -2.194424
v 0.817996 0.930028 -2.123152
v 0.817996 0.676064 -2.172219
v 0.804771 0.555344 2.021449
v 0.711622 0.707928 1.989412
v 0.000000 0.707928 2.147450
v 0.000000 0.555344 2.199082
v 0.000000 0.983122 -1.695937
v 0.756242 0.921833 -1.479464
v 0.817996 0.930028 -2.123152
v 0.000000 0.952919 -2.194424
v 0.817996 0.289617 -2.131799
v 0.817996 0.609842 -2.222162
v 0.900912 0.555248 -1.612022
v 0.900912 0.267692 -1.716002
v 0.536186 1.262672 -0.535862
v 0.000000 1.328597 -0.385800
v 0.000000 1.294955 0.182256
v 0.536186 1.262298 0.104732
v 0.756242 0.921833 -1.479464
v 0.536186 1.262913 -0.949721
v 0.536186 1.262672 -0.535862
v 0.756242 0.917601 -0.611603
v 0.847500 0.627150 0.694897
v 0.756242 0.882456 0.694897
v 0.755168 0.840929 1.105691
v 0.900912 0.600293 1.064474
v 0.536186 1.262913 -0.949721
v 0.000000 1.304111 -1.000943
v 0.000000 1.328597 -0.385800
v 0.536186 1.262672 -0.535862
v 0.900912 0.213840 -0.948741
v 0.900912 0.527984 -1.007674
v 0.847500 0.509847 -0.610177
v 0.847500 0.189998 -0.609059
v 0.900912 0.451045 1.649025
v 0.900912 0.576083 1.557495
v 0.804771 0.555344 2.021449
v 0.804771 0.435677 2.049427
v 0.900912 0.685855 1.331434
v 0.741408 0.805076 1.384927
v 0.727649 0.769222 1.664163
v 0.900912 0.576083 1.557495
v 0.000000 0.840836 1.540466
v 0.000000 0.788451 1.863146
v 0.727649 0.769222 1.664163
v 0.741408 0.805076 1.384927
v 0.847500 0.488999 0.694897
v 0.847500 0.627150 0.694897
v 0.900912 0.600293 1.064474
v 0.900912 0.469805 0.927130
v 0.804771 0.168336 2.021449
v 0.804771 0.435677 2.049427
v 0.000000 0.435677 2.280471
v 0.000000 0.168336 2.199082
v 0.000000 0.298773 -2.246253
v 0.000000 0.604644 -2.327641
v 0.817996 0.609842 -2.222162
v 0.817996 0.289617 -2.131799
v 0.000000 0.893222 1.217786
v 0.000000 0.840836 1.540466
v 0.741408 0.805076 1.384927
v 0.755168 0.840929 1.105691
v 0.900912 0.600293 1.064474
v 0.755168 0.840929 1.105691
v 0.741408 0.805076 1.384927
v 0.900912 0.685855 1.331434
v 0.900912 0.451045 1.649025
v 0.900912 0.171706 1.664319
v 0.428333 0.171706 1.664319
v 0.429955 0.451045 1.649025
v 0.900912 0.469805 0.927130
v 0.900912 0.600293 1.064474
v 0.429955 0.600293 1.064474
v 0.429955 0.469805 0.927130
v 0.900912 0.576083 1.557495
v 0.900912 0.451045 1.649025
v 0.429955 0.451045 1.649025
v 0.429955 0.576083 1.557495
v 0.900912 0.555248 -1.612022
v 0.900912 0.683963 -1.409821
v 0.429955 0.683963 -1.409821
v 0.429955 0.555248 -1.612022
v 0.900912 0.668601 -1.202297
v 0.900912 0.527984 -1.007674
v 0.429955 0.527984 -1.007674
v 0.429955 0.668601 -1.202297
v 0.900912 0.600293 1.064474
v 0.900912 0.685855 1.331434
v 0.429955 0.685855 1.331434
v 0.429955 0.600293 1.064474
v 0.900912 0.685855 1.331434
v 0.900912 0.576083 1.557495
v 0.429955 0.576083 1.557495
v 0.429955 0.685855 1.331434
v 0.900912 0.683963 -1.409821
v 0.900912 0.668601 -1.202297
v 0.429955 0.668601 -1.202297
v 0.429955 0.683963 -1.409821
v 0.900912 0.527984 -1.007674
v 0.900912 0.213840 -0.948741
v 0.428333 0.213840 -0.948741
v 0.429955 0.527984 -1.007674
v 0.900912 0.178290 0.927130
v 0.900912 0.469805 0.927130
v 0.429955 0.469805 0.927130
v 0.428333 0.178290 0.927130
v 0.900912 0.267692 -1.716002
v 0.900912 0.555248 -1.612022
v 0.429955 0.555248 -1.612022
v 0.428333 0.267692 -1.716002
v 0.428333 0.178290 0.927130
v 0.429955 0.469805 0.927130
v 0.429955 0.451045 1.649025
v 0.428333 0.171706 1.664319
v 0.428333 0.267692 -1.716002
v 0.429955 0.555248 -1.612022
v 0.429955 0.527984 -1.007674
v 0.428333 0.213840 -0.948741
v 0.847500 0.189998 -0.609059
v 0.847500 0.180364 0.694897
v 0.428333 0.180364 0.694897
v 0.428333 0.189998 -0.609059
v 0.847500 0.180364 0.694897
v 0.900912 0.178290 0.927130
v 0.428333 0.178290 0.927130
v 0.428333 0.180364 0.694897
v 0.847500 0.189998 -0.609059
v 0.428333 0.189998 -0.609059
v 0.428333 0.213840 -0.948741
v 0.900912 0.213840 -0.948741
v 0.817996 0.289617 -2.131799
v 0.900912 0.267692 -1.716002
v 0.428333 0.267692 -1.716002
v 0.000000 0.298773 -2.246253
v 0.900912 0.171706 1.664319
v 0.804771 0.168336 2.021449
v 0.000000 0.168336 2.199082
v 0.428333 0.171706 1.664319
v 0.000000 0.178290 0.927130
v 0.000000 0.180364 0.694897
v 0.428333 0.267692 -1.716002
v 0.428333 0.213840 -0.948741
v 0.000000 0.213840 -0.948741
v 0.000000 0.267692 -1.716002
v 0.428333 0.178290 0.927130
v 0.428333 0.171706 1.664319
v 0.000000 0.171706 1.664319
v 0.000000 0.178290 0.927130
v 0.000000 0.189998 -0.609059
v 0.000000 0.213840 -0.948741
v 0.000000 0.180364 0.694897
v 0.000000 0.189998 -0.609059
v 0.428333 0.171706 1.664319
v 0.000000 0.168336 2.199082
v 0.000000 0.171706 1.664319
v 0.428333 0.267692 -1.716002
v 0.000000 0.267692 -1.716002
v 0.000000 0.298773 -2.246253
v 0.429955 0.469805 0.927130
v 0.429955 0.600293 1.064474
v 0.429955 0.576083 1.557495
v 0.429955 0.451045 1.649025
v 0.429955 0.685855 1.331434
v 0.429955 0.555248 -1.612022
v 0.429955 0.683963 -1.409821
v 0.429955 0.668601 -1.202297
v 0.429955 0.527984 -1.007674
v 0.616503 1.022818 -2.129762
v 0.582011 1.108923 -2.166792
v 0.615622 1.108923 -2.166792
v 0.652106 1.022818 -2.129762
v 0.652106 1.022818 -2.129762
v 0.615622 1.108923 -2.166792
v 0.615622 1.072892 -1.968146
v 0.652106 1.012122 -1.899933
v 0.582011 1.108923 -2.166792
v 0.000000 1.108923 -2.166792
v 0.000000 1.072892 -1.968146
v 0.582011 1.072892 -1.968146
v 0.616503 1.012122 -1.899933
v 0.582011 1.072892 -1.968146
v 0.000000 1.072892 -1.968146
v 0.000000 1.012122 -1.899933
v 0.694977 0.921640 -2.086250
v 0.652106 1.022818 -2.129762
v 0.652106 1.012122 -1.899933
v 0.694977 0.940716 -1.819780
v 0.657033 0.921640 -2.086250
v 0.694977 0.921640 -2.086250
v 0.694977 0.940716 -1.819780
v 0.652106 1.012122 -1.899933
v 0.657033 0.940716 -1.819780
v 0.615622 1.072892 -1.968146
v 0.615622 1.108923 -2.166792
v 0.615622 1.072892 -1.968146
v 0.000000 1.022818 -2.129762
v 0.000000 1.108923 -2.166792
v 0.616503 1.012122 -1.899933
v 0.000000 1.012122 -1.899933
v 0.000000 1.022818 -2.129762
v 0.616503 1.022818 -2.129762
v 0.657033 0.921640 -2.086250
v 0.657033 0.940716 -1.819780
v 0.616503 1.012122 -1.899933
v 0.616503 1.022818 -2.129762
v 0.817096 0.875110 0.472635
v 0.817096 1.000264 0.472635
v 0.785916 1.000264 0.391854
v 0.785916 0.875110 0.391854
v 0.785916 0.875110 0.391854
v 0.785916 1.000264 0.391854
v 0.962072 1.000264 0.309317
v 0.962072 0.875110 0.309317
v 0.962072 0.875110 0.309317
v 0.962072 1.000264 0.309317
v 0.965740 1.000264 0.355250
v 0.965740 0.875110 0.355250
v 0.965740 0.875110 0.355250
v 0.965740 1.000264 0.355250
v 0.817096 1.000264 0.472635
v 0.817096 0.875110 0.472635
v 0.785916 0.875110 0.391854
v 0.962072 0.875110 0.309317
v 0.965740 0.875110 0.355250
v 0.817096 0.875110 0.472635
v 0.962072 1.000264 0.309317
v 0.785916 1.000264 0.391854
v 0.817096 1.000264 0.472635
v 0.965740 1.000264 0.355250
v -0.900912 0.171706 1.664319
v -0.804771 0.168336 2.021449
v -0.804771 0.435677 2.049427
v -0.900912 0.451045 1.649025
v 0.000000 0.929458 0.841092
v 0.000000 1.294955 0.182256
v -0.536186 1.262298 0.104732
v -0.756242 0.882456 0.694897
v -0.900912 0.668601 -1.202297
v -0.847500 0.653018 -0.610678
v -0.756242 0.917601 -0.611603
v -0.756242 0.921833 -1.479464
v -0.900912 0.683963 -1.409821
v -0.900912 0.668601 -1.202297
v -0.756242 0.921833 -1.479464
v 0.000000 0.604644 -2.327641
v -0.817996 0.609842 -2.222162
v -0.817996 0.676064 -2.172219
v 0.000000 0.675370 -2.264602
v -0.847500 0.180364 0.694897
v -0.900912 0.178290 0.927130
v -0.900912 0.469805 0.927130
v -0.847500 0.488999 0.694897
v -0.847500 0.189998 -0.609059
v -0.847500 0.180364 0.694897
v -0.847500 0.488999 0.694897
v -0.847500 0.509847 -0.610177
v -0.756242 0.917601 -0.611603
v -0.756242 0.882456 0.694897
v -0.536186 1.262298 0.104732
v -0.536186 1.262672 -0.535862
v -0.804771 0.435677 2.049427
v 0.000000 0.435677 2.280471
v 0.000000 0.555344 2.199082
v -0.804771 0.555344 2.021449
v 0.000000 0.983122 -1.695937
v -0.756242 0.921833 -1.479464
v -0.536186 1.262913 -0.949721
v 0.000000 1.304111 -1.000943
v -0.817996 0.609842 -2.222162
v -0.900912 0.555248 -1.612022
v -0.900912 0.683963 -1.409821
v -0.817996 0.676064 -2.172219
v -0.900912 0.527984 -1.007674
v -0.847500 0.509847 -0.610177
v -0.847500 0.653018 -0.610678
v -0.900912 0.668601 -1.202297
v 0.000000 0.788451 1.863146
v -0.727649 0.769222 1.664163
v -0.711622 0.707928 1.989412
v 0.000000 0.707928 2.147450
v -0.817996 0.676064 -2.172219
v -0.900912 0.683963 -1.409821
v -0.756242 0.921833 -1.479464
v -0.817996 0.930028 -2.123152
v 0.000000 0.929458 0.841092
v -0.756242 0.882456 0.694897
v -0.755168 0.840929 1.105691
v 0.000000 0.893222 1.217786
v -0.847500 0.653018 -0.610678
v -0.847500 0.627150 0.694897
v -0.756242 0.882456 0.694897
v -0.756242 0.917601 -0.611603
v -0.847500 0.627150 0.694897
v -0.847500 0.653018 -0.610678
v -0.900912 0.576083 1.557495
v -0.804771 0.555344 2.021449
v -0.711622 0.707928 1.989412
v -0.727649 0.769222 1.664163
v 0.000000 0.675370 -2.264602
v -0.817996 0.676064 -2.172219
v -0.817996 0.930028 -2.123152
v 0.000000 0.952919 -2.194424
v -0.804771 0.555344 2.021449
v 0.000000 0.555344 2.199082
v 0.000000 0.707928 2.147450
v -0.711622 0.707928 1.989412
v 0.000000 0.983122 -1.695937
v 0.000000 0.952919 -2.194424
v -0.817996 0.930028 -2.123152
v -0.756242 0.921833 -1.479464
v -0.817996 0.289617 -2.131799
v -0.900912 0.267692 -1.716002
v -0.900912 0.555248 -1.612022
v -0.817996 0.609842 -2.222162
v -0.536186 1.262672 -0.535862
v -0.536186 1.262298 0.104732
v 0.000000 1.294955 0.182256
v 0.000000 1.328597 -0.385800
v -0.756242 0.921833 -1.479464
v -0.756242 0.917601 -0.611603
v -0.536186 1.262672 -0.535862
v -0.536186 1.262913 -0.949721
v -0.847500 0.627150 0.694897
v -0.900912 0.600293 1.064474
v -0.755168 0.840929 1.105691
v -0.756242 0.882456 0.694897
v -0.536186 1.262913 -0.949721
v -0.536186 1.262672 -0.535862
v 0.000000 1.328597 -0.385800
v 0.000000 1.304111 -1.000943
v -0.900912 0.213840 -0.948741
v -0.847500 0.189998 -0.609059
v -0.847500 0.509847 -0.610177
v -0.900912 0.527984 -1.007674
v -0.900912 0.451045 1.649025
v -0.804771 0.435677 2.049427
v -0.804771 0.555344 2.021449
v -0.900912 0.576083 1.557495
v -0.900912 0.685855 1.331434
v -0.900912 0.576083 1.557495
v -0.727649 0.769222 1.664163
v -0.741408 0.805076 1.384927
v 0.000000 0.840836 1.540466
v -0.741408 0.805076 1.384927
v -0.727649 0.769222 1.664163
v 0.000000 0.788451 1.863146
v -0.847500 0.488999 0.694897
v -0.900912 0.469805 0.927130
v -0.900912 0.600293 1.064474
v -0.847500 0.627150 0.694897
v -0.804771 0.168336 2.021449
v 0.000000 0.168336 2.199082
v 0.000000 0.435677 2.280471
v -0.804771 0.435677 2.049427
v 0.000000 0.298773 -2.246253
v -0.817996 0.289617 -2.131799
v -0.817996 0.609842 -2.222162
v 0.000000 0.604644 -2.327641
v 0.000000 0.893222 1.217786
v -0.755168 0.840929 1.105691
v -0.741408 0.805076 1.384927
v 0.000000 0.840836 1.540466
v -0.900912 0.600293 1.064474
v -0.900912 0.685855 1.331434
v -0.741408 0.805076 1.384927
v -0.755168 0.840929 1.105691
v -0.900912 0.451045 1.649025
v -0.429955 0.451045 1.649025
v -0.428333 0.171706 1.664319
v -0.900912 0.171706 1.664319
v -0.900912 0.469805 0.927130
v -0.429955 0.469805 0.927130
v -0.429955 0.600293 1.064474
v -0.900912 0.600293 1.064474
v -0.900912 0.576083 1.557495
v -0.429955 0.576083 1.557495
v -0.429955 0.451045 1.649025
v -0.900912 0.451045 1.649025
v -0.900912 0.555248 -1.612022
v -0.429955 0.555248 -1.612022
v -0.429955 0.683963 -1.409821
v -0.900912 0.683963 -1.409821
v -0.900912 0.668601 -1.202297
v -0.429955 0.668601 -1.202297
v -0.429955 0.527984 -1.007674
v -0.900912 0.527984 -1.007674
v -0.900912 0.600293 1.064474
v -0.429955 0.600293 1.064474
v -0.429955 0.685855 1.331434
v -0.900912 0.685855 1.331434
v -0.900912 0.685855 1.331434
v -0.429955 0.685855 1.331434
v -0.429955 0.576083 1.557495
v -0.900912 0.576083 1.557495
v -0.900912 0.683963 -1.409821
v -0.429955 0.683963 -1.409821
v -0.429955 0.668601 -1.202297
v -0.900912 0.668601 -1.202297
v -0.900912 0.527984 -1.007674
v -0.429955 0.527984 -1.007674
v -0.428333 0.213840 -0.948741
v -0.900912 0.213840 -0.948741
v -0.900912 0.178290 0.927130
v -0.428333 0.178290 0.927130
v -0.429955 0.469805 0.927130
v -0.900912 0.469805 0.927130
v -0.900912 0.267692 -1.716002
v -0.428333 0.267692 -1.716002
v -0.429955 0.555248 -1.612022
v -0.900912 0.555248 -1.612022
v -0.428333 0.178290 0.927130
v -0.428333 0.171706 1.664319
v -0.429955 0.451045 1.649025
v -0.429955 0.469805 0.927130
v -0.428333 0.267692 -1.716002
v -0.428333 0.213840 -0.948741
v -0.429955 0.527984 -1.007674
v -0.429955 0.555248 -1.612022
v -0.847500 0.189998 -0.609059
v -0.428333 0.189998 -0.609059
v -0.428333 0.180364 0.694897
v -0.847500 0.180364 0.694897
v -0.847500 0.180364 0.694897
v -0.428333 0.180364 0.694897
v -0.428333 0.178290 0.927130
v -0.900912 0.178290 0.927130
v -0.847500 0.189998 -0.609059
v -0.900912 0.213840 -0.948741
v -0.428333 0.213840 -0.948741
v -0.428333 0.189998 -0.609059
v -0.817996 0.289617 -2.131799
v 0.000000 0.298773 -2.246253
v -0.428333 0.267692 -1.716002
v -0.900912 0.267692 -1.716002
v -0.900912 0.171706 1.664319
v -0.428333 0.171706 1.664319
v 0.000000 0.168336 2.199082
v -0.804771 0.168336 2.021449
v -0.428333 0.267692 -1.716002
v -0.428333 0.213840 -0.948741
v -0.428333 0.178290 0.927130
v -0.428333 0.171706 1.664319
v -0.428333 0.171706 1.664319
v -0.428333 0.267692 -1.716002
v -0.429955 0.469805 0.927130
v -0.429955 0.451045 1.649025
v -0.429955 0.576083 1.557495
v -0.429955 0.600293 1.064474
v -0.429955 0.685855 1.331434
v -0.429955 0.555248 -1.612022
v -0.429955 0.527984 -1.007674
v -0.429955 0.668601 -1.202297
v -0.429955 0.683963 -1.409821
v -0.616503 1.022818 -2.129762
v -0.652106 1.022818 -2.129762
v -0.615622 1.108923 -2.166792
v -0.582011 1.108923 -2.166792
v -0.652106 1.022818 -2.129762
v -0.652106 1.012122 -1.899933
v -0.615622 1.072892 -1.968146
v -0.615622 1.108923 -2.166792
v -0.582011 1.108923 -2.166792
v -0.582011 1.072892 -1.968146
v -0.616503 1.012122 -1.899933
v -0.582011 1.072892 -1.968146
v -0.694977 0.921640 -2.086250
v -0.694977 0.940716 -1.819780
v -0.652106 1.012122 -1.899933
v -0.652106 1.022818 -2.129762
v -0.657033 0.921640 -2.086250
v -0.694977 0.921640 -2.086250
v -0.694977 0.940716 -1.819780
v -0.657033 0.940716 -1.819780
v -0.652106 1.012122 -1.899933
v -0.615622 1.072892 -1.968146
v -0.615622 1.108923 -2.166792
v -0.615622 1.072892 -1.968146
v -0.616503 1.012122 -1.899933
v -0.616503 1.022818 -2.129762
v -0.657033 0.921640 -2.086250
v -0.616503 1.022818 -2.129762
v -0.616503 1.012122 -1.899933
v -0.657033 0.940716 -1.819780
v -0.817096 0.875110 0.472635
v -0.785916 0.875110 0.391854
v -0.785916 1.000264 0.391854
v -0.817096 1.000264 0.472635
v -0.785916 0.875110 0.391854
v -0.962072 0.875110 0.309317
v -0.962072 1.000264 0.309317
v -0.785916 1.000264 0.391854
v -0.962072 0.875110 0.309317
v -0.965740 0.875110 0.355250
v -0.965740 1.000264 0.355250
v -0.962072 1.000264 0.309317
v -0.965740 0.875110 0.355250
v -0.817096 0.875110 0.472635
v -0.817096 1.000264 0.472635
v -0.965740 1.000264 0.355250
v -0.785916 0.875110 0.391854
v -0.817096 0.875110 0.472635
v -0.965740 0.875110 0.355250
v -0.962072 0.875110 0.309317
v -0.962072 1.000264 0.309317
v -0.965740 1.000264 0.355250
v -0.817096 1.000264 0.472635
v -0.785916 1.000264 0.391854
vt 0.257121 0.335787
vt 0.274608 0.393069
vt 0.188262 0.411141
vt 0.180105 0.354176
vt 0.340329 0.983098
vt 0.340329 0.817896
vt 0.495428 0.845080
vt 0.500128 0.961177
vt 0.069008 0.417022
vt 0.006792 0.476301
vt 0.007340 0.290933
vt 0.067313 0.289710
vt 0.066246 0.461382
vt 0.627910 0.569045
vt 0.629335 0.548812
vt 0.805564 0.547862
vt 0.804448 0.565583
vt 0.491452 0.320523
vt 0.489816 0.386576
vt 0.438918 0.381205
vt 0.440464 0.318816
vt 0.166522 0.285898
vt 0.098043 0.288530
vt 0.094128 0.008782
vt 0.160176 0.006792
vt 0.365890 0.096687
vt 0.380756 0.008832
vt 0.517881 0.006792
vt 0.645682 0.098779
vt 0.807157 0.709862
vt 0.809111 0.736099
vt 0.632733 0.740555
vt 0.627910 0.709951
vt 0.166650 0.817896
vt 0.326745 0.852952
vt 0.308157 0.967095
vt 0.166650 0.986807
vt 0.075080 0.993208
vt 0.061298 0.982012
vt 0.066137 0.817896
vt 0.092360 0.862003
vt 0.097573 0.374524
vt 0.007553 0.553138
vt 0.008402 0.489885
vt 0.160576 0.524483
vt 0.163486 0.595362
vt 0.006792 0.972245
vt 0.006792 0.833799
vt 0.006792 0.774120
vt 0.006792 0.693105
vt 0.169018 0.715920
vt 0.169212 0.804312
vt 0.006792 0.011290
vt 0.064545 0.009668
vt 0.299677 0.414796
vt 0.282543 0.472359
vt 0.211607 0.471775
vt 0.200102 0.434635
vt 0.630740 0.487540
vt 0.806521 0.492495
vt 0.791993 0.771009
vt 0.635983 0.774887
vt 0.832407 0.502912
vt 0.998275 0.470996
vt 0.999178 0.609439
vt 0.823328 0.609439
vt 0.144438 0.976977
vt 0.153066 0.886499
vt 0.781891 0.358314
vt 0.749731 0.473957
vt 0.627910 0.473229
vt 0.644751 0.358264
vt 0.180105 0.098779
vt 0.292166 0.010150
vt 0.489084 0.416142
vt 0.491452 0.474137
vt 0.403185 0.469441
vt 0.409265 0.408875
vt 0.870491 0.358264
vt 0.881526 0.473384
vt 0.164161 0.359489
vt 0.352065 0.427038
vt 0.342847 0.470208
vt 0.007178 0.623121
vt 0.166247 0.655641
vt 0.809111 0.652350
vt 0.632688 0.650315
vt 0.631053 0.636732
vt 0.807888 0.636732
vt 0.748671 0.834545
vt 0.748671 0.835527
vt 0.747011 0.835527
vt 0.747017 0.834545
vt 0.748671 0.831468
vt 0.748671 0.832133
vt 0.747017 0.832133
vt 0.747017 0.831468
vt 0.748671 0.834000
vt 0.747017 0.834000
vt 0.750419 0.836173
vt 0.750419 0.837015
vt 0.748764 0.837015
vt 0.748764 0.836173
vt 0.750419 0.837746
vt 0.750419 0.838589
vt 0.748764 0.838589
vt 0.748764 0.837746
vt 0.748671 0.833118
vt 0.747017 0.833118
vt 0.750419 0.839712
vt 0.748759 0.839712
vt 0.748671 0.830444
vt 0.747011 0.830444
vt 0.750419 0.835099
vt 0.748759 0.835099
vt 0.745554 0.839713
vt 0.744530 0.839722
vt 0.744573 0.837186
vt 0.745554 0.837124
vt 0.747011 0.835615
vt 0.748044 0.835909
vt 0.748097 0.838033
vt 0.747011 0.838317
vt 0.743946 0.835840
vt 0.743946 0.831260
vt 0.745419 0.831260
vt 0.745419 0.835840
vt 0.743759 0.830444
vt 0.745419 0.830444
vt 0.745419 0.837036
vt 0.743759 0.837036
vt 0.751632 0.830847
vt 0.751923 0.832309
vt 0.750263 0.832309
vt 0.748759 0.830444
vt 0.750507 0.836977
vt 0.750844 0.835723
vt 0.753671 0.835099
vt 0.752166 0.836977
vt 0.746923 0.830444
vt 0.746923 0.831260
vt 0.750263 0.835011
vt 0.748759 0.835011
vt 0.748759 0.832309
vt 0.752166 0.839566
vt 0.753671 0.836977
vt 0.753671 0.839566
vt 0.746923 0.835840
vt 0.746923 0.837036
vt 0.744068 0.839244
vt 0.744137 0.837511
vt 0.743759 0.838309
vt 0.748545 0.836586
vt 0.748542 0.837317
vt 0.901561 0.428775
vt 0.910677 0.423571
vt 0.911261 0.427055
vt 0.902179 0.432465
vt 0.967285 0.431293
vt 0.977325 0.427986
vt 0.972636 0.448679
vt 0.964728 0.455338
vt 0.955470 0.424413
vt 0.955470 0.363245
vt 0.976688 0.363245
vt 0.976688 0.424413
vt 0.921748 0.373204
vt 0.930640 0.378330
vt 0.920777 0.438697
vt 0.911301 0.437149
vt 0.955470 0.435128
vt 0.955470 0.463205
vt 0.890849 0.434890
vt 0.891508 0.438823
vt 0.911944 0.363245
vt 0.922352 0.369511
vt 0.911301 0.367181
vt 0.931209 0.374843
vt 0.955470 0.427945
vt 0.976688 0.427945
vt 0.890849 0.364874
vt 0.900564 0.363245
vt 0.955430 0.363245
vt 0.955430 0.428038
vt 0.931249 0.428038
vt 0.931249 0.363245
vt 0.987976 0.368308
vt 0.984976 0.396224
vt 0.976729 0.387426
vt 0.976729 0.363245
vt 0.853351 0.710815
vt 0.853351 0.678721
vt 0.875556 0.678721
vt 0.875556 0.710815
vt 0.526442 0.039162
vt 0.526442 0.071256
vt 0.476557 0.071256
vt 0.476557 0.039162
vt 0.898425 0.678721
vt 0.898425 0.710815
vt 0.886609 0.710815
vt 0.886609 0.678721
vt 0.899197 0.677173
vt 0.931291 0.677173
vt 0.931291 0.725742
vt 0.899197 0.725742
vt 0.898425 0.628064
vt 0.898425 0.677948
vt 0.887360 0.673803
vt 0.876274 0.626515
vt 0.853351 0.677948
vt 0.853351 0.628064
vt 0.875502 0.626515
vt 0.864416 0.673803
vn 0.969300 -0.005700 0.245900
vn 0.138100 0.860900 0.489700
vn 0.137800 0.861000 0.489500
vn 0.901300 0.431500 0.038800
vn 0.901300 0.431400 0.038800
vn 0.848600 0.527600 0.039100
vn 0.090600 0.633800 -0.768200
vn 0.974600 0.000000 -0.224100
vn 1.000000 0.000000 0.000000
vn 0.851700 0.523900 0.009600
vn 0.225000 0.405000 0.886200
vn 0.162100 0.880100 -0.446400
vn 0.162300 0.879900 -0.446500
vn 0.982600 0.147100 -0.113700
vn 0.991100 0.075400 0.109600
vn 0.069500 0.971200 0.227800
vn 0.959400 0.281600 -0.014400
vn 0.959400 0.281700 -0.014400
vn 0.081900 0.991800 0.098100
vn 0.081900 0.991800 0.098200
vn 0.943500 0.331200 0.007700
vn 0.797800 0.577400 0.173400
vn 0.100100 0.217800 -0.970800
vn 0.205000 0.316500 0.926200
vn 0.056300 0.998300 -0.016200
vn 0.987200 0.003600 -0.159300
vn 0.097400 0.994900 0.028000
vn 0.097300 0.994900 0.028000
vn 0.842300 0.539000 0.001800
vn 0.842500 0.538700 0.001900
vn 0.842600 0.538600 0.001900
vn 0.901300 0.432600 -0.022500
vn 0.097200 0.995000 -0.023400
vn 0.989500 0.013700 0.144200
vn 0.969500 0.107500 0.220200
vn 0.721000 0.660400 0.210000
vn 0.720900 0.660400 0.210000
vn 0.072200 0.986600 0.146300
vn 0.982100 0.085800 -0.167800
vn 0.241400 -0.194500 0.950700
vn 0.127900 -0.262400 -0.956400
vn 0.084200 0.985600 0.146400
vn 0.756700 0.652500 -0.040300
vn 0.000000 -0.054700 -0.998500
vn 0.000000 -0.725000 0.688800
vn 0.000000 -0.590700 -0.806900
vn 0.000000 -0.843600 0.537000
vn 0.000000 -0.810600 -0.585600
vn 0.000000 -0.952300 0.305200
vn 0.000000 -0.899600 -0.436800
vn 0.000000 -0.997300 -0.073800
vn 0.000000 -0.184400 -0.982900
vn 0.000000 0.000000 1.000000
vn 0.000000 -0.340100 0.940400
vn 1.000000 -0.005600 -0.000100
vn 1.000000 -0.005800 -0.000100
vn 1.000000 -0.005600 -0.000300
vn 1.000000 -0.005700 -0.000200
vn 0.000000 -1.000000 -0.007400
vn 0.000000 -1.000000 -0.008900
vn 0.000000 -0.997500 -0.070000
vn -0.002200 -0.998500 -0.054700
vn -0.002100 -0.998500 -0.054700
vn -0.001100 -1.000000 -0.008200
vn -0.001000 -1.000000 -0.008100
vn 0.000000 -1.000000 -0.006300
vn 0.000000 -0.998300 -0.058500
vn 0.000000 -0.395100 -0.918600
vn 0.000000 -0.395100 -0.918700
vn 0.879100 0.473800 0.051700
vn 0.000000 0.983900 0.178500
vn 0.000000 0.746700 0.665200
vn 0.897700 0.440600 -0.007400
vn 0.000000 -0.998900 -0.046500
vn -0.907100 -0.420900 0.007100
vn -0.932900 0.000000 0.360100
vn -0.424300 0.000000 -0.905500
vn 0.996800 0.000000 -0.079600
vn 0.619800 0.000000 0.784800
vn 0.000000 -1.000000 0.000000
vn 0.000000 1.000000 0.000000
vn -0.969300 -0.005700 0.245900
vn -0.138100 0.860900 0.489700
vn -0.137800 0.861000 0.489500
vn -0.901300 0.431500 0.038800
vn -0.901300 0.431400 0.038800
vn -0.848600 0.527600 0.039100
vn -0.090600 0.633800 -0.768200
vn -0.974600 0.000000 -0.224100
vn -1.000000 0.000000 0.000000
vn -0.851700 0.523900 0.009600
vn -0.225000 0.405000 0.886200
vn -0.162100 0.880100 -0.446400
vn -0.162300 0.879900 -0.446500
vn -0.982600 0.147100 -0.113700
vn -0.991100 0.075400 0.109600
vn -0.069500 0.971200 0.227800
vn -0.959400 0.281600 -0.014400
vn -0.959400 0.281700 -0.014400
vn -0.081900 0.991800 0.098100
vn -0.081900 0.991800 0.098200
vn -0.943500 0.331200 0.007700
vn -0.797800 0.577400 0.173400
vn -0.100100 0.217800 -0.970800
vn -0.205000 0.316500 0.926200
vn -0.056300 0.998300 -0.016200
vn -0.987200 0.003600 -0.159300
vn -0.097400 0.994900 0.028000
vn -0.097300 0.994900 0.028000
vn -0.842300 0.539000 0.001800
vn -0.842500 0.538700 0.001900
vn -0.842600 0.538600 0.001900
vn -0.901300 0.432600 -0.022500
vn -0.097200 0.995000 -0.023400
vn -0.989500 0.013700 0.144200
vn -0.969500 0.107500 0.220200
vn -0.721000 0.660400 0.210000
vn -0.720900 0.660400 0.210000
vn -0.072200 0.986600 0.146300
vn -0.982100 0.085800 -0.167800
vn -0.241400 -0.194500 0.950700
vn -0.127900 -0.262400 -0.956400
vn -0.084200 0.985600 0.146400
vn -0.756700 0.652500 -0.040300
vn -1.000000 -0.005800 -0.000100
vn -1.000000 -0.005600 -0.000100
vn -1.000000 -0.005700 -0.000200
vn -1.000000 -0.005600 -0.000300
vn 0.002200 -0.998500 -0.054700
vn 0.002100 -0.998500 -0.054700
vn 0.001100 -1.000000 -0.008200
vn 0.001000 -1.000000 -0.008100
vn -0.879100 0.473800 0.051700
vn -0.897700 0.440600 -0.007400
vn 0.907100 -0.420900 0.007100
vn 0.932900 0.000000 0.360100
vn 0.424300 0.000000 -0.905500
vn -0.996800 0.000000 -0.079600
vn -0.619800 0.000000 0.784800
o skyline_r32
usemtl skyline_r32
f 1/1/1 2/2/1 3/3/1
f 1/1/1 3/3/1 4/4/1
f 5/5/2 6/6/3 7/7/3
f 5/5/2 7/7/3 8/8/3
f 9/9/4 10/10/4 11/11/4
f 9/9/4 11/11/4 12/12/5
f 13/13/6 14/10/6 15/9/6
f 16/14/7 17/15/7 18/16/7
f 16/14/7 18/16/7 19/17/7
f 20/18/8 21/19/8 22/20/8
f 20/18/8 22/20/8 23/21/8
f 24/22/9 25/23/9 26/24/9
f 24/22/9 26/24/9 27/25/9
f 28/26/10 29/27/10 30/28/10
f 28/26/10 30/28/10 31/29/10
f 32/30/11 33/31/11 34/32/11
f 32/30/11 34/32/11 35/33/11
f 36/34/12 37/35/13 38/36/13
f 36/34/12 38/36/13 39/37/13
f 40/38/14 41/39/14 42/40/14
f 40/38/14 42/40/14 43/41/14
f 44/42/15 45/9/15 46/12/15
f 44/42/15 46/12/15 47/23/15
f 48/43/16 49/44/16 50/45/16
f 48/43/16 50/45/16 51/46/16
f 52/39/17 53/47/17 54/48/18
f 52/39/17 54/48/18 55/40/17
f 56/49/19 57/50/19 58/51/20
f 56/49/19 58/51/20 59/52/19
f 60/12/21 61/11/21 62/53/21
f 60/12/21 62/53/21 63/54/21
f 25/23/9 64/12/9 65/54/9
f 25/23/9 65/54/9 26/24/9
f 66/55/22 67/56/22 68/57/22
f 66/55/22 68/57/22 69/58/22
f 70/15/23 71/59/23 72/60/23
f 70/15/23 72/60/23 73/16/23
f 74/31/24 75/61/24 76/62/24
f 74/31/24 76/62/24 77/32/24
f 78/63/25 79/64/25 80/65/25
f 78/63/25 80/65/25 81/66/25
f 82/67/26 83/38/26 84/41/26
f 82/67/26 84/41/26 85/68/26
f 86/69/27 87/70/27 88/71/28
f 86/69/27 88/71/28 89/72/27
f 90/73/29 91/74/30 92/27/31
f 90/73/29 92/27/31 93/26/30
f 94/75/32 95/76/32 96/77/32
f 94/75/32 96/77/32 97/78/32
f 98/79/33 99/80/33 100/70/33
f 98/79/33 100/70/33 101/69/33
f 102/81/34 103/42/34 104/23/34
f 102/81/34 104/23/34 105/22/34
f 106/2/35 107/55/35 108/58/35
f 106/2/35 108/58/35 109/3/35
f 110/82/36 111/83/37 112/56/36
f 110/82/36 112/56/36 113/55/36
f 114/84/38 115/43/38 116/46/38
f 114/84/38 116/46/38 117/85/38
f 118/19/39 119/75/39 120/78/39
f 118/19/39 120/78/39 121/20/39
f 122/86/40 123/30/40 124/33/40
f 122/86/40 124/33/40 125/87/40
f 126/88/41 127/14/41 128/17/41
f 126/88/41 128/17/41 129/89/41
f 130/50/42 131/84/42 132/85/42
f 130/50/42 132/85/42 133/51/42
f 134/78/43 135/77/43 136/83/43
f 134/78/43 136/83/43 137/82/43
f 138/90/44 139/91/44 140/92/44
f 138/90/44 140/92/44 141/93/44
f 142/94/45 143/95/45 144/96/45
f 142/94/45 144/96/45 145/97/45
f 146/98/46 147/90/46 148/93/46
f 146/98/46 148/93/46 149/99/46
f 150/100/47 151/101/47 152/102/47
f 150/100/47 152/102/47 153/103/47
f 154/104/48 155/105/48 156/106/48
f 154/104/48 156/106/48 157/107/48
f 158/95/49 159/108/49 160/109/49
f 158/95/49 160/109/49 161/96/49
f 162/108/50 163/98/50 164/99/50
f 162/108/50 164/99/50 165/109/50
f 166/101/51 167/104/51 168/107/51
f 166/101/51 168/107/51 169/102/51
f 170/105/52 171/110/52 172/111/52
f 170/105/52 172/111/52 173/106/52
f 174/112/53 175/94/53 176/97/53
f 174/112/53 176/97/53 177/113/53
f 178/114/54 179/100/54 180/103/54
f 178/114/54 180/103/54 181/115/54
f 182/116/55 183/117/55 184/118/55
f 182/116/56 184/118/56 185/119/56
f 186/120/57 187/121/57 188/122/57
f 186/120/58 188/122/58 189/123/58
f 190/124/59 191/125/59 192/126/59
f 190/124/59 192/126/59 193/127/59
f 194/125/60 195/128/60 196/129/60
f 194/125/60 196/129/60 197/126/60
f 198/124/61 199/127/61 200/130/61
f 198/124/61 200/130/61 201/131/61
f 202/132/62 203/133/62 204/134/63
f 202/132/62 204/134/63 205/135/62
f 206/136/64 207/137/64 208/138/65
f 206/136/64 208/138/65 209/139/64
f 197/126/60 196/129/60 210/140/60
f 197/126/60 210/140/60 211/141/60
f 212/134/61 213/142/61 214/143/61
f 212/134/61 214/143/61 215/144/61
f 216/145/60 217/139/60 218/146/60
f 216/145/60 218/146/60 219/147/60
f 200/130/61 199/127/61 220/148/61
f 200/130/61 220/148/61 221/149/61
f 193/127/59 192/126/59 222/141/59
f 193/127/59 222/141/59 223/148/59
f 224/139/66 225/138/66 226/146/66
f 227/134/67 228/144/67 229/135/67
f 230/117/9 231/150/9 232/151/9
f 230/117/9 232/151/9 233/118/9
f 234/152/9 232/151/9 231/150/9
f 235/121/9 236/153/9 237/154/9
f 235/121/9 237/154/9 238/122/9
f 239/155/68 240/156/68 241/157/68
f 239/155/69 241/157/69 242/158/69
f 243/159/70 244/160/70 245/161/70
f 243/159/70 245/161/70 246/162/70
f 247/163/71 248/164/71 249/165/71
f 247/163/71 249/165/71 250/166/71
f 251/167/72 252/168/72 253/169/72
f 251/167/72 253/169/72 254/170/72
f 255/171/73 256/159/73 257/162/73
f 255/171/73 257/162/73 258/172/73
f 259/173/69 239/155/69 242/158/69
f 259/173/69 242/158/69 260/174/69
f 261/175/72 262/176/72 251/167/72
f 261/175/72 251/167/72 263/177/72
f 262/176/72 264/178/72 252/168/72
f 262/176/72 252/168/72 251/167/72
f 265/179/71 247/163/71 250/166/71
f 265/179/71 250/166/71 266/180/71
f 267/181/69 268/182/69 240/156/69
f 267/181/69 240/156/69 239/155/69
f 269/183/74 270/184/74 271/185/74
f 269/183/74 271/185/74 272/186/74
f 273/187/75 274/188/75 275/189/75
f 273/187/75 275/189/75 276/190/75
f 277/191/76 278/192/76 279/193/76
f 277/191/76 279/193/76 280/194/76
f 281/195/77 282/196/77 283/197/77
f 281/195/77 283/197/77 284/198/77
f 285/199/78 286/200/78 287/201/78
f 285/199/78 287/201/78 288/202/78
f 289/203/79 290/204/79 291/205/79
f 289/203/79 291/205/79 292/206/79
f 293/207/80 294/208/80 295/209/80
f 293/207/80 295/209/80 296/210/80
f 297/211/81 298/212/81 299/213/81
f 297/211/81 299/213/81 300/214/81
f 301/1/82 302/4/82 303/3/82
f 301/1/82 303/3/82 304/2/82
f 305/5/83 306/8/84 307/7/84
f 305/5/83 307/7/84 308/6/84
f 309/9/85 310/12/86 311/11/85
f 309/9/85 311/11/85 312/10/85
f 313/13/87 314/9/87 315/10/87
f 316/14/88 317/17/88 318/16/88
f 316/14/88 318/16/88 319/15/88
f 320/18/89 321/21/89 322/20/89
f 320/18/89 322/20/89 323/19/89
f 324/22/90 325/25/90 326/24/90
f 324/22/90 326/24/90 327/23/90
f 328/26/91 329/29/91 330/28/91
f 328/26/91 330/28/91 331/27/91
f 332/30/92 333/33/92 334/32/92
f 332/30/92 334/32/92 335/31/92
f 336/34/93 337/37/94 338/36/94
f 336/34/93 338/36/94 339/35/94
f 340/38/95 341/41/95 342/40/95
f 340/38/95 342/40/95 343/39/95
f 344/42/96 345/23/96 346/12/96
f 344/42/96 346/12/96 347/9/96
f 348/43/97 349/46/97 350/45/97
f 348/43/97 350/45/97 351/44/97
f 352/39/98 353/40/98 354/48/99
f 352/39/98 354/48/99 355/47/98
f 356/49/100 357/52/100 358/51/101
f 356/49/100 358/51/101 359/50/100
f 360/12/102 361/54/102 362/53/102
f 360/12/102 362/53/102 363/11/102
f 327/23/90 326/24/90 364/54/90
f 327/23/90 364/54/90 365/12/90
f 366/55/103 367/58/103 368/57/103
f 366/55/103 368/57/103 369/56/103
f 370/15/104 371/16/104 372/60/104
f 370/15/104 372/60/104 373/59/104
f 374/31/105 375/32/105 376/62/105
f 374/31/105 376/62/105 377/61/105
f 378/63/106 379/66/106 380/65/106
f 378/63/106 380/65/106 381/64/106
f 382/67/107 383/68/107 384/41/107
f 382/67/107 384/41/107 385/38/107
f 386/69/108 387/72/108 388/71/109
f 386/69/108 388/71/109 389/70/108
f 390/73/110 391/26/111 392/27/112
f 390/73/110 392/27/112 393/74/111
f 394/75/113 395/78/113 396/77/113
f 394/75/113 396/77/113 397/76/113
f 398/79/114 399/69/114 400/70/114
f 398/79/114 400/70/114 401/80/114
f 402/81/115 403/22/115 404/23/115
f 402/81/115 404/23/115 405/42/115
f 406/2/116 407/3/116 408/58/116
f 406/2/116 408/58/116 409/55/116
f 410/82/117 411/55/117 412/56/117
f 410/82/117 412/56/117 413/83/118
f 414/84/119 415/85/119 416/46/119
f 414/84/119 416/46/119 417/43/119
f 418/19/120 419/20/120 420/78/120
f 418/19/120 420/78/120 421/75/120
f 422/86/121 423/87/121 424/33/121
f 422/86/121 424/33/121 425/30/121
f 426/88/122 427/89/122 428/17/122
f 426/88/122 428/17/122 429/14/122
f 430/50/123 431/51/123 432/85/123
f 430/50/123 432/85/123 433/84/123
f 434/78/124 435/82/124 436/83/124
f 434/78/124 436/83/124 437/77/124
f 438/90/44 439/93/44 440/92/44
f 438/90/44 440/92/44 441/91/44
f 442/94/45 443/97/45 444/96/45
f 442/94/45 444/96/45 445/95/45
f 446/98/46 447/99/46 448/93/46
f 446/98/46 448/93/46 449/90/46
f 450/100/47 451/103/47 452/102/47
f 450/100/47 452/102/47 453/101/47
f 454/104/48 455/107/48 456/106/48
f 454/104/48 456/106/48 457/105/48
f 458/95/49 459/96/49 460/109/49
f 458/95/49 460/109/49 461/108/49
f 462/108/50 463/109/50 464/99/50
f 462/108/50 464/99/50 465/98/50
f 466/101/51 467/102/51 468/107/51
f 466/101/51 468/107/51 469/104/51
f 470/105/52 471/106/52 472/111/52
f 470/105/52 472/111/52 473/110/52
f 474/112/53 475/113/53 476/97/53
f 474/112/53 476/97/53 477/94/53
f 478/114/54 479/115/54 480/103/54
f 478/114/54 480/103/54 481/100/54
f 482/116/125 483/119/125 484/118/125
f 482/116/126 484/118/126 485/117/126
f 486/120/127 487/123/127 488/122/127
f 486/120/128 488/122/128 489/121/128
f 490/124/59 491/127/59 492/126/59
f 490/124/59 492/126/59 493/125/59
f 494/125/60 495/126/60 496/129/60
f 494/125/60 496/129/60 497/128/60
f 498/124/61 499/131/61 500/130/61
f 498/124/61 500/130/61 501/127/61
f 502/132/129 503/135/129 504/134/130
f 502/132/129 504/134/130 505/133/129
f 506/136/131 507/139/131 508/138/132
f 506/136/131 508/138/132 509/137/131
f 495/126/60 211/141/60 210/140/60
f 495/126/60 210/140/60 496/129/60
f 510/134/61 215/144/61 214/143/61
f 510/134/61 214/143/61 511/142/61
f 512/145/60 219/147/60 218/146/60
f 512/145/60 218/146/60 513/139/60
f 500/130/61 221/149/61 220/148/61
f 500/130/61 220/148/61 501/127/61
f 491/127/59 223/148/59 222/141/59
f 491/127/59 222/141/59 492/126/59
f 514/139/66 226/146/66 225/138/66
f 515/134/67 229/135/67 228/144/67
f 516/117/90 517/118/90 518/151/90
f 516/117/90 518/151/90 519/150/90
f 520/152/90 519/150/90 518/151/90
f 521/121/90 522/122/90 523/154/90
f 521/121/90 523/154/90 524/153/90
f 525/155/69 526/158/69 527/157/69
f 525/155/68 527/157/68 528/156/68
f 529/159/133 530/162/133 531/161/133
f 529/159/133 531/161/133 532/160/133
f 533/163/71 534/166/71 249/165/71
f 533/163/71 249/165/71 248/164/71
f 535/167/72 254/170/72 253/169/72
f 535/167/72 253/169/72 536/168/72
f 537/171/134 538/172/134 539/162/134
f 537/171/134 539/162/134 540/159/134
f 541/173/69 542/174/69 526/158/69
f 541/173/69 526/158/69 525/155/69
f 543/175/72 544/177/72 535/167/72
f 543/175/72 535/167/72 545/176/72
f 545/176/72 535/167/72 536/168/72
f 545/176/72 536/168/72 546/178/72
f 547/179/71 548/180/71 534/166/71
f 547/179/71 534/166/71 533/163/71
f 267/181/69 525/155/69 528/156/69
f 267/181/69 528/156/69 268/182/69
f 549/183/74 550/186/74 271/185/74
f 549/183/74 271/185/74 270/184/74
f 551/187/135 552/190/135 553/189/135
f 551/187/135 553/189/135 554/188/135
f 555/191/136 556/194/136 557/193/136
f 555/191/136 557/193/136 558/192/136
f 559/195/137 560/198/137 561/197/137
f 559/195/137 561/197/137 562/196/137
f 563/199/138 564/202/138 565/201/138
f 563/199/138 565/201/138 566/200/138
f 567/203/139 568/206/139 569/205/139
f 567/203/139 569/205/139 570/204/139
f 571/207/80 572/210/80 573/209/80
f 571/207/80 573/209/80 574/208/80
f 575/211/81 576/214/81 577/213/81
f 575/211/81 577/213/81 578/212/81
