# PSX Racing car model — generated by tools/carmodels/export_models.mjs
mtllib camry_2001_wheels_f.mtl
v -0.627440 0.673142 -1.624871
v -0.869215 0.673142 -1.624871
v -0.869215 0.666675 -1.559209
v -0.627440 0.666675 -1.559209
v -0.869215 0.647522 -1.496071
v -0.627440 0.647522 -1.496071
v -0.869215 0.616419 -1.437882
v -0.627440 0.616419 -1.437882
v -0.869215 0.574563 -1.386880
v -0.627440 0.574563 -1.386880
v -0.869215 0.523560 -1.345023
v -0.627440 0.523560 -1.345023
v -0.869215 0.465371 -1.313920
v -0.627440 0.465371 -1.313920
v -0.869215 0.402233 -1.294767
v -0.627440 0.402233 -1.294767
v -0.869215 0.336571 -1.288300
v -0.627440 0.336571 -1.288300
v -0.869215 0.270909 -1.294767
v -0.627440 0.270909 -1.294767
v -0.869215 0.207771 -1.313920
v -0.627440 0.207771 -1.313920
v -0.869215 0.149582 -1.345023
v -0.627440 0.149582 -1.345023
v -0.869215 0.098579 -1.386880
v -0.627440 0.098579 -1.386880
v -0.869215 0.056722 -1.437882
v -0.627440 0.056722 -1.437882
v -0.869215 0.025620 -1.496071
v -0.627440 0.025620 -1.496071
v -0.869215 0.006467 -1.559209
v -0.627440 0.006467 -1.559209
v -0.869215 0.000000 -1.624871
v -0.627440 0.000000 -1.624871
v -0.869215 0.006467 -1.690533
v -0.627440 0.006467 -1.690533
v -0.869215 0.025620 -1.753671
v -0.627440 0.025620 -1.753671
v -0.869215 0.056722 -1.811860
v -0.627440 0.056722 -1.811860
v -0.869215 0.098579 -1.862863
v -0.627440 0.098579 -1.862863
v -0.869215 0.149582 -1.904720
v -0.627440 0.149582 -1.904720
v -0.869215 0.207771 -1.935822
v -0.627440 0.207771 -1.935822
v -0.869215 0.270909 -1.954975
v -0.627440 0.270909 -1.954975
v -0.869215 0.336571 -1.961442
v -0.627440 0.336571 -1.961442
v -0.869215 0.402233 -1.954975
v -0.627440 0.402233 -1.954975
v -0.869215 0.465371 -1.935822
v -0.627440 0.465371 -1.935822
v -0.869215 0.523560 -1.904720
v -0.627440 0.523560 -1.904720
v -0.869215 0.574563 -1.862863
v -0.627440 0.574563 -1.862863
v -0.869215 0.616419 -1.811860
v -0.627440 0.616419 -1.811860
v -0.869215 0.647522 -1.753671
v -0.627440 0.647522 -1.753671
v -0.869215 0.666675 -1.690533
v -0.627440 0.666675 -1.690533
v 0.627440 0.673142 -1.624871
v 0.869215 0.673142 -1.624871
v 0.869215 0.666675 -1.690533
v 0.627440 0.666675 -1.690533
v 0.869215 0.647522 -1.753671
v 0.627440 0.647522 -1.753671
v 0.869215 0.616419 -1.811860
v 0.627440 0.616420 -1.811860
v 0.869215 0.574563 -1.862863
v 0.627440 0.574563 -1.862863
v 0.869215 0.523560 -1.904720
v 0.627440 0.523560 -1.904720
v 0.869215 0.465371 -1.935822
v 0.627440 0.465371 -1.935822
v 0.869215 0.402233 -1.954975
v 0.627440 0.402233 -1.954975
v 0.869215 0.336571 -1.961442
v 0.627440 0.336571 -1.961442
v 0.869215 0.270909 -1.954975
v 0.627440 0.270909 -1.954975
v 0.869215 0.207771 -1.935822
v 0.627440 0.207771 -1.935822
v 0.869215 0.149582 -1.904720
v 0.627440 0.149582 -1.904720
v 0.869215 0.098579 -1.862863
v 0.627440 0.098579 -1.862863
v 0.869215 0.056722 -1.811860
v 0.627440 0.056723 -1.811860
v 0.869215 0.025620 -1.753671
v 0.627440 0.025620 -1.753671
v 0.869215 0.006467 -1.690533
v 0.627440 0.006467 -1.690533
v 0.869215 0.000000 -1.624871
v 0.627440 0.000000 -1.624871
v 0.869215 0.006467 -1.559209
v 0.627440 0.006467 -1.559209
v 0.869215 0.025620 -1.496071
v 0.627440 0.025620 -1.496071
v 0.869215 0.056722 -1.437882
v 0.627440 0.056722 -1.437882
v 0.869215 0.098579 -1.386880
v 0.627440 0.098579 -1.386880
v 0.869215 0.149582 -1.345023
v 0.627440 0.149582 -1.345023
v 0.869215 0.207771 -1.313920
v 0.627440 0.207771 -1.313920
v 0.869215 0.270909 -1.294767
v 0.627440 0.270909 -1.294767
v 0.869215 0.336571 -1.288300
v 0.627440 0.336571 -1.288300
v 0.869215 0.402233 -1.294767
v 0.627440 0.402233 -1.294767
v 0.869215 0.465371 -1.313920
v 0.627440 0.465371 -1.313920
v 0.869215 0.523560 -1.345023
v 0.627440 0.523560 -1.345023
v 0.869215 0.574562 -1.386880
v 0.627440 0.574563 -1.386879
v 0.869215 0.616419 -1.437882
v 0.627440 0.616419 -1.437882
v 0.869215 0.647522 -1.496071
v 0.627440 0.647522 -1.496071
v 0.869215 0.666675 -1.559209
v 0.627440 0.666675 -1.559209
vt 0.588000 0.929082
vt 0.553727 0.929082
vt 0.553727 0.920420
vt 0.588000 0.920420
vt 0.553727 0.912624
vt 0.588000 0.912624
vt 0.553727 0.905994
vt 0.588000 0.905994
vt 0.835613 0.874664
vt 0.869886 0.874664
vt 0.869886 0.881294
vt 0.835613 0.881294
vt 0.869886 0.889090
vt 0.835613 0.889090
vt 0.869886 0.897753
vt 0.835613 0.897753
vt 0.869886 0.906949
vt 0.835613 0.906949
vt 0.869886 0.916325
vt 0.835613 0.916325
vt 0.869886 0.925521
vt 0.835613 0.925521
vt 0.869886 0.934183
vt 0.835613 0.934183
vt 0.869886 0.941979
vt 0.835613 0.941979
vt 0.869886 0.948609
vt 0.835613 0.948609
vt 0.171022 0.984576
vt 0.136748 0.984576
vt 0.136748 0.977946
vt 0.171022 0.977946
vt 0.136748 0.970150
vt 0.171022 0.970150
vt 0.136748 0.961488
vt 0.171022 0.961488
vt 0.136748 0.952292
vt 0.171022 0.952292
vt 0.136748 0.942916
vt 0.171022 0.942916
vt 0.136748 0.933720
vt 0.171022 0.933720
vt 0.136748 0.925057
vt 0.171022 0.925057
vt 0.136748 0.917261
vt 0.171022 0.917261
vt 0.899416 0.642596
vt 0.865143 0.642596
vt 0.865143 0.634800
vt 0.899416 0.634800
vt 0.865143 0.626138
vt 0.899416 0.626138
vt 0.865143 0.616942
vt 0.899416 0.616942
vt 0.865143 0.607566
vt 0.899416 0.607566
vt 0.865143 0.598370
vt 0.899416 0.598370
vt 0.865143 0.589707
vt 0.899416 0.589707
vt 0.865143 0.581912
vt 0.899416 0.581912
vt 0.588000 0.973308
vt 0.553727 0.973308
vt 0.553727 0.965512
vt 0.588000 0.965512
vt 0.553727 0.956850
vt 0.588000 0.956850
vt 0.553727 0.947654
vt 0.588000 0.947654
vt 0.753639 0.774998
vt 0.762280 0.778586
vt 0.770056 0.783795
vt 0.776670 0.790425
vt 0.781866 0.798221
vt 0.785446 0.806884
vt 0.787270 0.816079
vt 0.787270 0.825456
vt 0.785446 0.834651
vt 0.781866 0.843314
vt 0.776670 0.851110
vt 0.770056 0.857740
vt 0.762280 0.862949
vt 0.753638 0.866537
vt 0.744465 0.868366
vt 0.735112 0.868366
vt 0.725939 0.866537
vt 0.717298 0.862949
vt 0.709521 0.857740
vt 0.702907 0.851110
vt 0.697711 0.843314
vt 0.694132 0.834651
vt 0.692307 0.825455
vt 0.692307 0.816079
vt 0.694132 0.806883
vt 0.697711 0.798221
vt 0.702907 0.790425
vt 0.709521 0.783795
vt 0.717298 0.778586
vt 0.725939 0.774998
vt 0.735112 0.773169
vt 0.744465 0.773169
vt 0.553727 0.938278
vt 0.588000 0.938278
vt 0.800636 0.679865
vt 0.805833 0.672069
vt 0.812446 0.665440
vt 0.820223 0.660230
vt 0.828864 0.656642
vt 0.838038 0.654813
vt 0.847391 0.654813
vt 0.856564 0.656642
vt 0.865205 0.660231
vt 0.872982 0.665440
vt 0.879595 0.672070
vt 0.884792 0.679865
vt 0.888371 0.688528
vt 0.890196 0.697724
vt 0.890196 0.707100
vt 0.888371 0.716296
vt 0.884792 0.724958
vt 0.879595 0.732754
vt 0.872982 0.739384
vt 0.865205 0.744593
vt 0.856564 0.748181
vt 0.847391 0.750010
vt 0.838037 0.750010
vt 0.828864 0.748181
vt 0.820223 0.744593
vt 0.812446 0.739384
vt 0.805833 0.732754
vt 0.800636 0.724958
vt 0.797057 0.716296
vt 0.795232 0.707100
vt 0.795232 0.697724
vt 0.797057 0.688528
vt 0.937404 0.486657
vt 0.971677 0.486657
vt 0.971677 0.495853
vt 0.937404 0.495853
vt 0.971677 0.505229
vt 0.937404 0.505229
vt 0.971677 0.514425
vt 0.937404 0.514425
vt 0.971677 0.523088
vt 0.937404 0.523088
vt 0.971677 0.530884
vt 0.937404 0.530884
vt 0.971677 0.537513
vt 0.937404 0.537513
vt 0.333249 0.885030
vt 0.367522 0.885031
vt 0.367522 0.891660
vt 0.333249 0.891660
vt 0.367522 0.899456
vt 0.333249 0.899456
vt 0.367522 0.908119
vt 0.333249 0.908119
vt 0.367522 0.917315
vt 0.333249 0.917315
vt 0.367522 0.926691
vt 0.333249 0.926691
vt 0.367522 0.935887
vt 0.333249 0.935887
vt 0.367522 0.944549
vt 0.333249 0.944549
vt 0.367522 0.952345
vt 0.333249 0.952345
vt 0.367522 0.958975
vt 0.333249 0.958975
vt 0.971677 0.611126
vt 0.937404 0.611126
vt 0.937404 0.604497
vt 0.971677 0.604497
vt 0.937404 0.596701
vt 0.971677 0.596701
vt 0.937404 0.588038
vt 0.971677 0.588038
vt 0.937404 0.578842
vt 0.971677 0.578842
vt 0.937404 0.569466
vt 0.971677 0.569466
vt 0.937404 0.560270
vt 0.971677 0.560270
vt 0.937404 0.551608
vt 0.971677 0.551608
vt 0.937404 0.543812
vt 0.971677 0.543812
vt 0.034273 0.984583
vt 0.000000 0.984583
vt 0.000000 0.976788
vt 0.034273 0.976788
vt 0.000000 0.968125
vt 0.034273 0.968125
vt 0.000000 0.958929
vt 0.034273 0.958929
vt 0.000000 0.949553
vt 0.034273 0.949553
vt 0.000000 0.940357
vt 0.034273 0.940357
vt 0.000000 0.931695
vt 0.034273 0.931695
vt 0.000000 0.923899
vt 0.034273 0.923899
vt 0.138997 0.815766
vt 0.148350 0.815766
vt 0.157523 0.817595
vt 0.166165 0.821183
vt 0.173941 0.826392
vt 0.180555 0.833022
vt 0.185751 0.840818
vt 0.189330 0.849481
vt 0.191155 0.858676
vt 0.191155 0.868053
vt 0.189330 0.877248
vt 0.185751 0.885911
vt 0.180555 0.893707
vt 0.173941 0.900337
vt 0.166165 0.905546
vt 0.157524 0.909134
vt 0.148350 0.910963
vt 0.138997 0.910963
vt 0.129824 0.909134
vt 0.121183 0.905546
vt 0.113406 0.900337
vt 0.106792 0.893707
vt 0.101596 0.885911
vt 0.098017 0.877249
vt 0.096192 0.868053
vt 0.096192 0.858677
vt 0.098017 0.849481
vt 0.101596 0.840818
vt 0.106792 0.833022
vt 0.113406 0.826392
vt 0.121183 0.821183
vt 0.129824 0.817595
vt 0.937404 0.470199
vt 0.971677 0.470199
vt 0.971677 0.477995
vt 0.937404 0.477995
vt 0.341763 0.788952
vt 0.349540 0.794161
vt 0.356154 0.800791
vt 0.361350 0.808587
vt 0.364929 0.817250
vt 0.366754 0.826445
vt 0.366754 0.835822
vt 0.364929 0.845018
vt 0.361350 0.853680
vt 0.356153 0.861476
vt 0.349540 0.868106
vt 0.341763 0.873315
vt 0.333122 0.876903
vt 0.323949 0.878732
vt 0.314596 0.878732
vt 0.305422 0.876903
vt 0.296781 0.873315
vt 0.289004 0.868106
vt 0.282391 0.861476
vt 0.277195 0.853680
vt 0.273615 0.845017
vt 0.271791 0.835822
vt 0.271791 0.826445
vt 0.273615 0.817249
vt 0.277195 0.808587
vt 0.282391 0.800791
vt 0.289005 0.794161
vt 0.296781 0.788952
vt 0.305422 0.785364
vt 0.314596 0.783535
vt 0.323949 0.783535
vt 0.333122 0.785364
vn 0.000000 0.995200 0.098000
vn 0.000000 0.956900 0.290300
vn 0.000000 0.881900 0.471400
vn 0.000000 0.773000 0.634400
vn 0.000000 0.634400 0.773000
vn 0.000000 0.471400 0.881900
vn 0.000000 0.290300 0.956900
vn 0.000000 0.098000 0.995200
vn 0.000000 -0.098000 0.995200
vn 0.000000 -0.290300 0.956900
vn 0.000000 -0.471400 0.881900
vn 0.000000 -0.634400 0.773000
vn 0.000000 -0.773000 0.634400
vn 0.000000 -0.881900 0.471400
vn 0.000000 -0.956900 0.290300
vn 0.000000 -0.995200 0.098000
vn 0.000000 -0.995200 -0.098000
vn 0.000000 -0.956900 -0.290300
vn 0.000000 -0.881900 -0.471400
vn 0.000000 -0.773000 -0.634400
vn 0.000000 -0.634400 -0.773000
vn 0.000000 -0.471400 -0.881900
vn 0.000000 -0.290300 -0.956900
vn 0.000000 -0.098000 -0.995200
vn 0.000000 0.098000 -0.995200
vn 0.000000 0.290300 -0.956900
vn 0.000000 0.471400 -0.881900
vn 0.000000 0.634400 -0.773000
vn 0.000000 0.773000 -0.634400
vn 0.000000 0.881900 -0.471400
vn -1.000000 0.000000 0.000000
vn 0.000000 0.956900 -0.290300
vn 0.000000 0.995200 -0.098000
vn 1.000000 0.000000 0.000000
vn 0.000000 0.995200 -0.098000
vn 0.000000 0.956900 -0.290300
vn 0.000000 0.881900 -0.471400
vn 0.000000 0.773000 -0.634400
vn 0.000000 0.634400 -0.773000
vn 0.000000 0.471400 -0.881900
vn 0.000000 0.290300 -0.956900
vn 0.000000 0.098000 -0.995200
vn 0.000000 -0.098000 -0.995200
vn 0.000000 -0.290300 -0.956900
vn 0.000000 -0.471400 -0.881900
vn 0.000000 -0.634400 -0.773000
vn 0.000000 -0.773000 -0.634400
vn 0.000000 -0.881900 -0.471400
vn 0.000000 -0.956900 -0.290300
vn 0.000000 -0.995200 -0.098000
vn 0.000000 -0.995200 0.098000
vn 0.000000 -0.956900 0.290300
vn 0.000000 -0.881900 0.471400
vn 0.000000 -0.773000 0.634400
vn 0.000000 -0.634400 0.773000
vn 0.000000 -0.471400 0.881900
vn 0.000000 -0.290300 0.956900
vn 0.000000 -0.098000 0.995200
vn 0.000000 0.098000 0.995200
vn 0.000000 0.290300 0.956900
vn 0.000000 0.471400 0.881900
vn 0.000000 0.634400 0.773000
vn 0.000000 0.773000 0.634400
vn 0.000000 0.881900 0.471400
vn 1.000000 0.000000 0.000000
vn 0.000000 0.956900 0.290300
vn 0.000000 0.995200 0.098000
vn -1.000000 0.000000 0.000000
o camry_2001_wheels_f
usemtl camry_2001_wheels_f
f 1/1/1 2/2/1 3/3/1
f 1/1/1 3/3/1 4/4/1
f 4/4/2 3/3/2 5/5/2
f 4/4/2 5/5/2 6/6/2
f 6/6/3 5/5/3 7/7/3
f 6/6/3 7/7/3 8/8/3
f 8/9/4 7/10/4 9/11/4
f 8/9/4 9/11/4 10/12/4
f 10/12/5 9/11/5 11/13/5
f 10/12/5 11/13/5 12/14/5
f 12/14/6 11/13/6 13/15/6
f 12/14/6 13/15/6 14/16/6
f 14/16/7 13/15/7 15/17/7
f 14/16/7 15/17/7 16/18/7
f 16/18/8 15/17/8 17/19/8
f 16/18/8 17/19/8 18/20/8
f 18/20/9 17/19/9 19/21/9
f 18/20/9 19/21/9 20/22/9
f 20/22/10 19/21/10 21/23/10
f 20/22/10 21/23/10 22/24/10
f 22/24/11 21/23/11 23/25/11
f 22/24/11 23/25/11 24/26/11
f 24/26/12 23/25/12 25/27/12
f 24/26/12 25/27/12 26/28/12
f 26/29/13 25/30/13 27/31/13
f 26/29/13 27/31/13 28/32/13
f 28/32/14 27/31/14 29/33/14
f 28/32/14 29/33/14 30/34/14
f 30/34/15 29/33/15 31/35/15
f 30/34/15 31/35/15 32/36/15
f 32/36/16 31/35/16 33/37/16
f 32/36/16 33/37/16 34/38/16
f 34/38/17 33/37/17 35/39/17
f 34/38/17 35/39/17 36/40/17
f 36/40/18 35/39/18 37/41/18
f 36/40/18 37/41/18 38/42/18
f 38/42/19 37/41/19 39/43/19
f 38/42/19 39/43/19 40/44/19
f 40/44/20 39/43/20 41/45/20
f 40/44/20 41/45/20 42/46/20
f 42/47/21 41/48/21 43/49/21
f 42/47/21 43/49/21 44/50/21
f 44/50/22 43/49/22 45/51/22
f 44/50/22 45/51/22 46/52/22
f 46/52/23 45/51/23 47/53/23
f 46/52/23 47/53/23 48/54/23
f 48/54/24 47/53/24 49/55/24
f 48/54/24 49/55/24 50/56/24
f 50/56/25 49/55/25 51/57/25
f 50/56/25 51/57/25 52/58/25
f 52/58/26 51/57/26 53/59/26
f 52/58/26 53/59/26 54/60/26
f 54/60/27 53/59/27 55/61/27
f 54/60/27 55/61/27 56/62/27
f 56/63/28 55/64/28 57/65/28
f 56/63/28 57/65/28 58/66/28
f 58/66/29 57/65/29 59/67/29
f 58/66/29 59/67/29 60/68/29
f 60/68/30 59/67/30 61/69/30
f 60/68/30 61/69/30 62/70/30
f 5/71/31 3/72/31 2/73/31
f 2/73/31 63/74/31 61/75/31
f 61/75/31 59/76/31 57/77/31
f 57/77/31 55/78/31 53/79/31
f 53/79/31 51/80/31 49/81/31
f 49/81/31 47/82/31 45/83/31
f 45/83/31 43/84/31 41/85/31
f 41/85/31 39/86/31 37/87/31
f 37/87/31 35/88/31 33/89/31
f 33/89/31 31/90/31 29/91/31
f 29/91/31 27/92/31 25/93/31
f 25/93/31 23/94/31 21/95/31
f 21/95/31 19/96/31 17/97/31
f 17/97/31 15/98/31 13/99/31
f 13/99/31 11/100/31 9/101/31
f 9/101/31 7/102/31 5/71/31
f 5/71/31 2/73/31 61/75/31
f 61/75/31 57/77/31 53/79/31
f 53/79/31 49/81/31 45/83/31
f 45/83/31 41/85/31 37/87/31
f 37/87/31 33/89/31 29/91/31
f 29/91/31 25/93/31 21/95/31
f 21/95/31 17/97/31 13/99/31
f 13/99/31 9/101/31 5/71/31
f 5/71/31 61/75/31 53/79/31
f 53/79/31 45/83/31 37/87/31
f 37/87/31 29/91/31 21/95/31
f 21/95/31 13/99/31 5/71/31
f 5/71/31 53/79/31 37/87/31
f 37/87/31 21/95/31 5/71/31
f 62/70/32 61/69/32 63/103/32
f 62/70/32 63/103/32 64/104/32
f 64/104/33 63/103/33 2/2/33
f 64/104/33 2/2/33 1/1/33
f 64/105/34 1/106/34 4/107/34
f 4/107/34 6/108/34 8/109/34
f 8/109/34 10/110/34 12/111/34
f 12/111/34 14/112/34 16/113/34
f 16/113/34 18/114/34 20/115/34
f 20/115/34 22/116/34 24/117/34
f 24/117/34 26/118/34 28/119/34
f 28/119/34 30/120/34 32/121/34
f 32/121/34 34/122/34 36/123/34
f 36/123/34 38/124/34 40/125/34
f 40/125/34 42/126/34 44/127/34
f 44/127/34 46/128/34 48/129/34
f 48/129/34 50/130/34 52/131/34
f 52/131/34 54/132/34 56/133/34
f 56/133/34 58/134/34 60/135/34
f 60/135/34 62/136/34 64/105/34
f 64/105/34 4/107/34 8/109/34
f 8/109/34 12/111/34 16/113/34
f 16/113/34 20/115/34 24/117/34
f 24/117/34 28/119/34 32/121/34
f 32/121/34 36/123/34 40/125/34
f 40/125/34 44/127/34 48/129/34
f 48/129/34 52/131/34 56/133/34
f 56/133/34 60/135/34 64/105/34
f 64/105/34 8/109/34 16/113/34
f 16/113/34 24/117/34 32/121/34
f 32/121/34 40/125/34 48/129/34
f 48/129/34 56/133/34 64/105/34
f 64/105/34 16/113/34 32/121/34
f 32/121/34 48/129/34 64/105/34
f 65/137/35 66/138/35 67/139/35
f 65/137/35 67/139/35 68/140/35
f 68/140/36 67/139/36 69/141/36
f 68/140/36 69/141/36 70/142/36
f 70/142/37 69/141/37 71/143/37
f 70/142/37 71/143/37 72/144/37
f 72/144/38 71/143/38 73/145/38
f 72/144/38 73/145/38 74/146/38
f 74/146/39 73/145/39 75/147/39
f 74/146/39 75/147/39 76/148/39
f 76/148/40 75/147/40 77/149/40
f 76/148/40 77/149/40 78/150/40
f 78/151/41 77/152/41 79/153/41
f 78/151/41 79/153/41 80/154/41
f 80/154/42 79/153/42 81/155/42
f 80/154/42 81/155/42 82/156/42
f 82/156/43 81/155/43 83/157/43
f 82/156/43 83/157/43 84/158/43
f 84/158/44 83/157/44 85/159/44
f 84/158/44 85/159/44 86/160/44
f 86/160/45 85/159/45 87/161/45
f 86/160/45 87/161/45 88/162/45
f 88/162/46 87/161/46 89/163/46
f 88/162/46 89/163/46 90/164/46
f 90/164/47 89/163/47 91/165/47
f 90/164/47 91/165/47 92/166/47
f 92/166/48 91/165/48 93/167/48
f 92/166/48 93/167/48 94/168/48
f 94/168/49 93/167/49 95/169/49
f 94/168/49 95/169/49 96/170/49
f 96/171/50 95/172/50 97/173/50
f 96/171/50 97/173/50 98/174/50
f 98/174/51 97/173/51 99/175/51
f 98/174/51 99/175/51 100/176/51
f 100/176/52 99/175/52 101/177/52
f 100/176/52 101/177/52 102/178/52
f 102/178/53 101/177/53 103/179/53
f 102/178/53 103/179/53 104/180/53
f 104/180/54 103/179/54 105/181/54
f 104/180/54 105/181/54 106/182/54
f 106/182/55 105/181/55 107/183/55
f 106/182/55 107/183/55 108/184/55
f 108/184/56 107/183/56 109/185/56
f 108/184/56 109/185/56 110/186/56
f 110/186/57 109/185/57 111/187/57
f 110/186/57 111/187/57 112/188/57
f 112/189/58 111/190/58 113/191/58
f 112/189/58 113/191/58 114/192/58
f 114/192/59 113/191/59 115/193/59
f 114/192/59 115/193/59 116/194/59
f 116/194/60 115/193/60 117/195/60
f 116/194/60 117/195/60 118/196/60
f 118/196/61 117/195/61 119/197/61
f 118/196/61 119/197/61 120/198/61
f 120/198/62 119/197/62 121/199/62
f 120/198/62 121/199/62 122/200/62
f 122/200/63 121/199/63 123/201/63
f 122/200/63 123/201/63 124/202/63
f 124/202/64 123/201/64 125/203/64
f 124/202/64 125/203/64 126/204/64
f 69/205/65 67/206/65 66/207/65
f 66/207/65 127/208/65 125/209/65
f 125/209/65 123/210/65 121/211/65
f 121/211/65 119/212/65 117/213/65
f 117/213/65 115/214/65 113/215/65
f 113/215/65 111/216/65 109/217/65
f 109/217/65 107/218/65 105/219/65
f 105/219/65 103/220/65 101/221/65
f 101/221/65 99/222/65 97/223/65
f 97/223/65 95/224/65 93/225/65
f 93/225/65 91/226/65 89/227/65
f 89/227/65 87/228/65 85/229/65
f 85/229/65 83/230/65 81/231/65
f 81/231/65 79/232/65 77/233/65
f 77/233/65 75/234/65 73/235/65
f 73/235/65 71/236/65 69/205/65
f 69/205/65 66/207/65 125/209/65
f 125/209/65 121/211/65 117/213/65
f 117/213/65 113/215/65 109/217/65
f 109/217/65 105/219/65 101/221/65
f 101/221/65 97/223/65 93/225/65
f 93/225/65 89/227/65 85/229/65
f 85/229/65 81/231/65 77/233/65
f 77/233/65 73/235/65 69/205/65
f 69/205/65 125/209/65 117/213/65
f 117/213/65 109/217/65 101/221/65
f 101/221/65 93/225/65 85/229/65
f 85/229/65 77/233/65 69/205/65
f 69/205/65 117/213/65 101/221/65
f 101/221/65 85/229/65 69/205/65
f 126/237/66 125/238/66 127/239/66
f 126/237/66 127/239/66 128/240/66
f 128/240/67 127/239/67 66/138/67
f 128/240/67 66/138/67 65/137/67
f 128/241/68 65/242/68 68/243/68
f 68/243/68 70/244/68 72/245/68
f 72/245/68 74/246/68 76/247/68
f 76/247/68 78/248/68 80/249/68
f 80/249/68 82/250/68 84/251/68
f 84/251/68 86/252/68 88/253/68
f 88/253/68 90/254/68 92/255/68
f 92/255/68 94/256/68 96/257/68
f 96/257/68 98/258/68 100/259/68
f 100/259/68 102/260/68 104/261/68
f 104/261/68 106/262/68 108/263/68
f 108/263/68 110/264/68 112/265/68
f 112/265/68 114/266/68 116/267/68
f 116/267/68 118/268/68 120/269/68
f 120/269/68 122/270/68 124/271/68
f 124/271/68 126/272/68 128/241/68
f 128/241/68 68/243/68 72/245/68
f 72/245/68 76/247/68 80/249/68
f 80/249/68 84/251/68 88/253/68
f 88/253/68 92/255/68 96/257/68
f 96/257/68 100/259/68 104/261/68
f 104/261/68 108/263/68 112/265/68
f 112/265/68 116/267/68 120/269/68
f 120/269/68 124/271/68 128/241/68
f 128/241/68 72/245/68 80/249/68
f 80/249/68 88/253/68 96/257/68
f 96/257/68 104/261/68 112/265/68
f 112/265/68 120/269/68 128/241/68
f 128/241/68 80/249/68 96/257/68
f 96/257/68 112/265/68 128/241/68
