# PSX Racing car model — generated by tools/carmodels/export_models.mjs
mtllib camry_2001.mtl
v 0.555948 1.463842 0.217884
v 0.579958 1.436582 -0.426602
v -0.013175 1.449795 -0.426602
v -0.013175 1.486121 0.217922
v -0.468244 0.303186 -0.075098
v -0.468244 0.303186 0.902254
v -0.936488 0.303186 0.902254
v -0.936488 0.303186 0.192049
v -0.013175 1.158933 1.688789
v -0.763457 1.156138 1.630114
v -0.761165 1.075646 2.220212
v -0.013175 1.074012 2.265853
v 0.761165 1.075646 2.220212
v 0.763457 1.156138 1.630114
v -0.013175 0.751782 2.337958
v -0.872694 0.751782 2.263934
v -0.468210 0.448971 2.377681
v -0.013175 0.448971 2.394000
v -0.013175 0.713807 2.394000
v -0.857594 0.713807 2.347964
v -0.874984 0.448971 2.347964
v -0.013175 0.303186 0.903169
v -0.013175 0.358957 1.770440
v -0.468244 0.358957 1.741989
v -0.468244 0.303186 -0.426602
v -0.936488 0.303186 -0.426602
v -0.926842 0.293596 -1.190361
v -0.468244 0.293596 -1.196335
v -0.787642 1.084222 -1.091029
v -0.013175 1.083060 -1.091029
v -0.013175 0.954177 -1.764938
v -0.828205 0.954512 -1.712501
v 0.683800 1.260402 -0.758815
v 0.787642 1.084222 -1.091029
v -0.013175 1.266427 -0.758815
v -0.013175 1.470405 0.898258
v -0.555948 1.463842 0.217884
v -0.566335 1.452049 0.898132
v -0.468244 0.310764 -2.087794
v -0.854667 0.325125 -2.005093
v -0.839292 0.308048 -2.214186
v -0.468244 0.294602 -2.291619
v -0.829232 0.807316 -2.166647
v -0.862154 0.565341 -2.214181
v -0.882605 0.813190 -1.091029
v 0.928373 0.293596 -1.190361
v 0.468244 0.293596 -1.196335
v 0.415823 0.792128 -1.173389
v 0.824356 0.792128 -1.167415
v 0.828206 0.954512 -1.712501
v -0.013175 0.807316 -2.314191
v -0.013175 0.565570 -2.394000
v -0.013175 0.282821 -2.359460
v -0.872694 0.838705 0.204424
v -0.013175 0.565111 -2.347619
v -0.013175 0.292139 -1.091029
v -0.013175 0.339559 -1.767552
v -0.013175 0.303186 -0.075098
v -0.013175 0.303186 -0.426602
v -0.936488 0.358957 1.688801
v -0.392756 1.044014 1.695003
v -0.392756 0.988243 0.855268
v -0.880656 0.838705 1.656729
v 0.872694 0.813190 0.204424
v 0.882606 0.685617 -1.091029
v -0.579958 1.436582 -0.426602
v -0.683800 1.260402 -0.758815
v 0.468244 0.303186 -0.075098
v 0.936488 0.303186 0.192049
v 0.936488 0.303186 0.902254
v 0.468244 0.303186 0.902254
v 0.566335 1.452049 0.898132
v 0.857594 0.713807 2.347964
v 0.872694 0.751782 2.263934
v 0.468244 0.358957 1.741989
v 0.468210 0.448971 2.377681
v 0.468244 0.303186 -0.426602
v 0.936488 0.303186 -0.426601
v 0.468244 0.310764 -2.087794
v 0.468244 0.294602 -2.291619
v 0.839292 0.308048 -2.214186
v 0.858671 0.325125 -2.005093
v 0.862155 0.565341 -2.214181
v 0.829232 0.807316 -2.166647
v 0.415823 0.826209 -2.065166
v 0.936488 0.358957 1.688801
v 0.874984 0.448971 2.347964
v -0.785513 0.988243 0.855268
v -0.785513 1.044014 1.641815
v 0.880656 0.813190 1.656729
v 0.624623 0.449567 2.366776
v 0.273138 0.449567 2.379027
v 0.273138 0.338381 2.379027
v 0.624623 0.338381 2.366776
v 0.785513 0.988243 0.855268
v 0.785513 1.044014 1.641815
v 0.392756 1.044014 1.695003
v 0.392756 0.988243 0.855268
v -0.415652 0.792128 -1.173389
v -0.822825 0.792128 -1.167415
v -0.758743 0.826209 -1.981227
v -0.415652 0.826209 -2.065166
v 0.762470 0.826209 -1.981227
vt 0.467343 0.283303
vt 0.471017 0.374774
vt 0.386941 0.374810
vt 0.386674 0.283188
vt 0.199131 0.351404
vt 0.199131 0.212613
vt 0.265508 0.212613
vt 0.265507 0.313467
vt 0.385921 0.080266
vt 0.279589 0.088896
vt 0.279630 0.006721
vt 0.385641 0.000000
vt 0.495429 0.006119
vt 0.496038 0.088292
vt 0.641459 0.776777
vt 0.595391 0.776805
vt 0.594888 0.670534
vt 0.641018 0.654670
vt 0.685428 0.712461
vt 0.685525 0.777116
vt 0.648016 0.777111
vt 0.647742 0.657136
vt 0.685251 0.654670
vt 0.134622 0.212483
vt 0.134621 0.089028
vt 0.199130 0.093069
vt 0.134621 0.000000
vt 0.199125 0.002318
vt 0.199130 0.401320
vt 0.265507 0.401319
vt 0.264140 0.509830
vt 0.199130 0.510678
vt 0.277316 0.474504
vt 0.387101 0.474215
vt 0.387349 0.571382
vt 0.271791 0.564290
vt 0.485819 0.424328
vt 0.500622 0.473881
vt 0.387021 0.424513
vt 0.386373 0.187288
vt 0.309725 0.283743
vt 0.307953 0.187800
vt 0.199130 0.637180
vt 0.253908 0.625359
vt 0.251728 0.655143
vt 0.199130 0.666210
vt 0.766138 0.641450
vt 0.731738 0.648382
vt 0.766059 0.488651
vt 0.804878 0.488396
vt 0.786712 0.576825
vt 0.829330 0.952767
vt 0.764451 0.945973
vt 0.764451 0.874664
vt 0.822056 0.880692
vt 0.506597 0.563635
vt 0.387535 0.651205
vt 0.271791 0.630679
vt 0.554051 0.654670
vt 0.553011 0.775078
vt 0.513171 0.775138
vt 0.504965 0.776743
vt 0.503242 0.711367
vt 0.504965 0.657504
vt 0.517610 0.657933
vt 0.692754 0.306683
vt 0.768903 0.304540
vt 0.692307 0.503122
vt 0.693143 0.394594
vt 0.263313 0.682205
vt 0.261545 0.715992
vt 0.254989 0.716500
vt 0.263313 0.755037
vt 0.134621 0.495732
vt 0.134621 0.591550
vt 0.134621 0.675907
vt 0.134621 0.351404
vt 0.134621 0.401320
vt 0.265507 0.100621
vt 0.256788 0.006537
vt 0.271791 0.777093
vt 0.271791 0.657504
vt 0.369411 0.657647
vt 0.369411 0.777237
vt 0.755291 0.011933
vt 0.767954 0.098173
vt 0.699714 0.093958
vt 0.712324 0.000176
vt 0.749924 0.000000
vt 0.544895 0.441142
vt 0.517384 0.393771
vt 0.513171 0.302155
vt 0.613222 0.304592
vt 0.630492 0.488722
vt 0.572406 0.488512
vt 0.858860 0.301943
vt 0.855297 0.393565
vt 0.830087 0.440981
vt 0.813462 0.101650
vt 0.856715 0.205296
vt 0.801696 0.017842
vt 0.066377 0.351404
vt 0.000000 0.313467
vt 0.000000 0.212613
vt 0.066377 0.212613
vt 0.468516 0.187352
vt 0.486525 0.783394
vt 0.479195 0.783411
vt 0.485685 0.659668
vt 0.496960 0.657504
vt 0.641018 0.902699
vt 0.594888 0.886865
vt 0.066377 0.093069
vt 0.066381 0.002318
vt 0.066377 0.401320
vt 0.066377 0.510678
vt 0.001150 0.509830
vt 0.000000 0.401320
vt 0.588605 0.659397
vt 0.587726 0.775168
vt 0.306592 0.375233
vt 0.066376 0.637180
vt 0.066376 0.666210
vt 0.013778 0.655143
vt 0.011030 0.625359
vt 0.645858 0.648331
vt 0.611422 0.641477
vt 0.591306 0.576903
vt 0.178140 0.808889
vt 0.175810 0.682205
vt 0.248706 0.682635
vt 0.248706 0.809454
vt 0.291954 0.424868
vt 0.506888 0.630023
vt 0.554051 0.899695
vt 0.517610 0.896460
vt 0.515244 0.843635
vt 0.685351 0.394464
vt 0.686024 0.502989
vt 0.685664 0.306553
vt 0.000000 0.100622
vt 0.008718 0.006538
vt 0.089909 0.682205
vt 0.089909 0.794228
vt 0.000000 0.795016
vt 0.000000 0.682993
vt 0.678726 0.093848
vt 0.614216 0.098226
vt 0.622740 0.011948
vt 0.627534 0.000000
vt 0.664644 0.000088
vt 0.686024 0.205632
vt 0.515480 0.205505
vt 0.563077 0.101788
vt 0.574409 0.017952
vt 0.921446 0.581911
vt 0.921446 0.631865
vt 0.905699 0.631886
vt 0.905699 0.581932
vt 0.685428 0.845531
vt 0.685251 0.903350
vt 0.647742 0.900874
vt 0.496960 0.905533
vt 0.485685 0.903406
vt 0.588605 0.895065
vt 0.692307 0.205761
vt 0.679000 0.618677
vt 0.680623 0.648372
vt 0.695383 0.648515
vt 0.697604 0.618807
vt 0.984821 0.456139
vt 0.929145 0.456139
vt 0.929145 0.336595
vt 0.984821 0.344148
vt 0.929338 0.322535
vt 0.929338 0.210544
vt 0.985014 0.202991
vt 0.985014 0.322535
vt 0.472912 0.657504
vt 0.472912 0.777068
vt 0.375694 0.777543
vt 0.375694 0.657979
vt 0.931121 0.575613
vt 0.865143 0.568334
vt 0.865143 0.470199
vt 0.920484 0.476305
vt 0.960778 0.871302
vt 0.894799 0.878569
vt 0.905436 0.779265
vt 0.960778 0.773169
vt 0.962491 0.752378
vt 0.896478 0.759950
vt 0.907115 0.661217
vt 0.962491 0.654813
vt 0.692307 0.766870
vt 0.692307 0.654821
vt 0.788949 0.654813
vt 0.788949 0.766863
vt 0.758168 0.979940
vt 0.692307 0.972251
vt 0.692307 0.874664
vt 0.747534 0.881164
vt 0.865143 0.337443
vt 0.922862 0.336595
vt 0.913778 0.451980
vt 0.865143 0.463901
vt 0.923055 0.203839
vt 0.923055 0.330296
vt 0.873915 0.318377
vt 0.865143 0.202991
vt 0.198056 0.931638
vt 0.197438 0.815766
vt 0.263532 0.817435
vt 0.263532 0.933182
vt 0.430385 0.962805
vt 0.375694 0.958765
vt 0.375694 0.885337
vt 0.424068 0.890788
vt 0.070649 0.801314
vt 0.070248 0.917232
vt 0.000000 0.917600
vt 0.000000 0.801805
vt 0.326966 0.958460
vt 0.271791 0.962563
vt 0.278173 0.890536
vt 0.326966 0.885030
vt 0.959444 0.956180
vt 0.894799 0.962975
vt 0.902048 0.890897
vt 0.959444 0.884868
vt 0.169527 0.682205
vt 0.167134 0.808886
vt 0.096192 0.809467
vt 0.096192 0.682650
vn 0.535600 0.843200 -0.046500
vn 0.422700 0.888200 -0.180100
vn 0.002800 0.963300 -0.268400
vn 0.007600 0.999800 -0.016600
vn 0.000000 -1.000000 0.000000
vn -0.001200 0.968200 0.250300
vn -0.637300 0.758400 0.137000
vn -0.482700 0.672300 0.561300
vn -0.000700 0.705000 0.709200
vn 0.483300 0.670600 0.562800
vn 0.610300 0.778200 0.148300
vn -0.000900 0.609000 0.793200
vn -0.790700 0.390300 0.471700
vn -0.031800 -0.632100 0.774300
vn -0.000800 -0.639800 0.768500
vn -0.039300 0.449600 0.892300
vn -0.591900 0.356500 0.722900
vn -0.588400 -0.510200 0.627200
vn -0.002100 -0.997900 0.065200
vn 0.000000 -0.997800 0.066300
vn -0.000800 -0.994500 0.104600
vn 0.028200 -0.975900 -0.216300
vn 0.000000 -0.999900 0.012600
vn 0.000200 -0.999900 0.012500
vn -0.580900 0.801500 -0.142300
vn 0.000000 0.939500 -0.342700
vn -0.008300 0.975300 -0.220800
vn -0.642300 0.747400 -0.169700
vn 0.622100 0.721100 -0.305100
vn 0.636000 0.761400 -0.125600
vn 0.005700 0.877100 -0.480200
vn -0.000700 0.980700 0.195600
vn -0.523000 0.852300 0.003600
vn -0.489800 0.862600 0.126100
vn -0.019800 -0.996600 0.079600
vn -0.248200 -0.892800 0.376000
vn -0.674400 -0.309300 -0.670500
vn -0.554500 -0.284800 -0.781900
vn -0.629100 0.527600 -0.570800
vn -0.806100 0.081800 -0.586200
vn -0.974200 0.218000 -0.058400
vn 0.745400 0.036800 -0.665600
vn 0.438800 -0.781700 -0.443200
vn 0.613200 -0.524300 -0.590800
vn -0.529700 -0.598800 -0.600700
vn 0.722300 0.674500 -0.152900
vn -0.002000 0.676600 -0.736400
vn -0.150300 0.068900 -0.986200
vn -0.004300 -0.719400 -0.694500
vn -0.994000 0.109800 -0.001700
vn -0.956800 0.290300 -0.017900
vn -0.744300 -0.000700 -0.667800
vn -0.994300 0.106600 -0.001200
vn 1.000000 0.000000 0.000000
vn -0.009700 -0.999900 -0.008100
vn -0.444700 -0.774400 -0.450000
vn -0.011800 -0.999900 -0.004100
vn 0.000000 -0.999900 0.014900
vn -0.003300 -0.999900 0.014400
vn -0.880400 -0.342900 -0.327700
vn -0.994000 0.109000 -0.007200
vn -0.978000 0.208300 0.011100
vn 0.958200 0.283000 -0.041600
vn 0.973400 0.224200 0.047800
vn -0.468800 0.860400 -0.199900
vn -0.568300 0.791800 -0.223900
vn 0.390200 0.911200 0.132200
vn 0.468000 0.475700 0.744800
vn 0.792100 0.416100 0.446600
vn 0.001900 -0.997900 0.065100
vn -0.028600 -0.976600 -0.213300
vn 0.037700 -0.643100 0.764800
vn -0.000200 -0.999900 0.012500
vn 0.019600 -0.996700 0.079000
vn 0.019800 -0.996600 0.079600
vn 0.773900 0.143000 -0.616900
vn 0.632400 0.586400 -0.506200
vn 0.308400 -0.835100 0.455600
vn 0.545000 -0.564400 0.620000
vn 0.142500 0.068900 -0.987400
vn 0.632000 -0.078200 -0.771000
vn 0.195300 -0.495200 -0.846500
vn 0.992000 0.126000 -0.005600
vn 0.992500 0.122500 -0.004900
vn 0.003100 -0.999900 0.014400
vn 0.601500 -0.648700 -0.466300
vn 0.591300 -0.565300 0.575100
vn 0.976700 -0.214200 0.015200
vn 0.979000 0.201800 0.027300
vn 0.996600 0.082400 -0.002400
vn 0.034800 0.000000 0.999400
vn -0.993500 0.113900 -0.004800
vn 0.749800 -0.321400 0.578400
vn -0.725500 -0.082200 0.683300
vn -0.004600 -0.997600 0.068400
vn 0.093000 -0.752700 -0.651700
vn 0.081200 -0.746300 -0.660600
vn 0.004600 -0.997600 0.068400
vn -0.366900 -0.730000 -0.576600
vn -0.085400 -0.752500 -0.653000
vn 0.994000 0.109000 -0.007200
vn 0.000000 0.068400 0.997700
vn -0.976700 -0.214200 0.015200
vn -0.613200 -0.524000 -0.591100
vn 0.528500 -0.597400 -0.603200
vn 0.550400 -0.670400 0.497600
vn -0.548500 -0.566000 0.615500
vn -0.550900 -0.667100 0.501500
o camry_2001
usemtl camry_2001
f 1/1/1 2/2/2 3/3/3
f 1/1/1 3/3/3 4/4/4
f 5/5/5 6/6/5 7/7/5
f 5/5/5 7/7/5 8/8/5
f 9/9/6 10/10/7 11/11/8
f 9/9/6 11/11/8 12/12/9
f 9/9/6 12/12/9 13/13/10
f 9/9/6 13/13/10 14/14/11
f 15/15/12 12/16/9 11/17/8
f 15/15/12 11/17/8 16/18/13
f 17/19/14 18/20/15 19/21/16
f 19/21/16 20/22/17 21/23/18
f 19/21/16 21/23/18 17/19/14
f 6/6/19 22/24/20 23/25/21
f 6/6/19 23/25/21 24/26/22
f 24/26/22 23/25/21 18/27/15
f 24/26/22 18/27/15 17/28/14
f 25/29/23 26/30/23 27/31/23
f 25/29/24 27/31/24 28/32/24
f 29/33/25 30/34/26 31/35/27
f 29/33/25 31/35/27 32/36/28
f 33/37/29 34/38/30 30/34/26
f 33/37/29 30/34/26 35/39/31
f 36/40/32 4/4/4 37/41/33
f 36/40/32 37/41/33 38/42/34
f 5/5/5 8/8/5 26/30/5
f 5/5/5 26/30/5 25/29/5
f 39/43/35 40/44/35 41/45/35
f 39/43/36 41/45/37 42/46/38
f 43/47/39 44/48/40 45/49/41
f 45/49/41 29/50/25 32/51/28
f 45/49/41 32/51/28 43/47/39
f 46/52/42 47/53/43 48/54/44
f 46/52/42 48/54/44 49/55/45
f 34/38/30 50/56/46 31/35/27
f 34/38/30 31/35/27 30/34/26
f 32/36/28 31/35/27 51/57/47
f 32/36/28 51/57/47 43/58/39
f 44/59/40 52/60/48 53/61/49
f 53/62/49 42/63/38 41/64/37
f 53/61/49 41/65/37 44/59/40
f 8/66/50 54/67/51 45/49/41
f 45/49/41 27/68/52 26/69/53
f 45/49/41 26/69/53 8/66/50
f 51/70/54 55/71/54 52/72/54
f 55/71/54 53/73/54 52/72/54
f 56/74/55 28/32/56 39/43/36
f 56/74/55 39/43/36 57/75/57
f 57/75/57 39/43/36 42/46/38
f 57/75/57 42/46/38 53/76/49
f 58/77/5 5/5/5 25/29/5
f 58/77/5 25/29/5 59/78/5
f 59/78/58 25/29/59 28/32/56
f 59/78/58 28/32/56 56/74/55
f 60/79/60 24/26/22 17/28/14
f 60/79/60 17/28/14 21/80/18
f 6/81/61 24/82/61 61/83/61
f 6/81/61 61/83/61 62/84/61
f 58/77/5 22/24/5 6/6/5
f 58/77/5 6/6/5 5/5/5
f 16/85/13 63/86/62 60/87/60
f 60/87/60 21/88/18 20/89/17
f 60/87/60 20/89/17 16/85/13
f 33/90/29 2/91/2 1/92/1
f 1/92/1 64/93/63 65/94/64
f 65/94/64 34/95/30 33/90/29
f 1/92/1 65/94/64 33/90/29
f 45/49/41 54/67/51 37/96/33
f 37/96/33 66/97/65 67/98/66
f 67/98/66 29/50/25 45/49/41
f 37/96/33 67/98/66 45/49/41
f 37/96/33 54/67/51 63/86/62
f 63/86/62 10/99/7 38/100/34
f 63/86/62 38/100/34 37/96/33
f 10/99/7 63/86/62 16/85/13
f 10/99/7 16/85/13 11/101/8
f 36/40/32 38/42/34 10/10/7
f 36/40/32 10/10/7 9/9/6
f 68/102/5 69/103/5 70/104/5
f 68/102/5 70/104/5 71/105/5
f 36/40/32 9/9/6 14/14/11
f 36/40/32 14/14/11 72/106/67
f 15/107/12 19/108/16 73/109/68
f 15/107/12 73/109/68 74/110/69
f 15/15/12 74/111/69 13/112/10
f 15/15/12 13/112/10 12/16/9
f 71/105/70 75/113/71 23/25/21
f 71/105/70 23/25/21 22/24/20
f 75/113/71 76/114/72 18/27/15
f 75/113/71 18/27/15 23/25/21
f 77/115/73 47/116/73 46/117/73
f 77/115/23 46/117/23 78/118/23
f 43/119/39 51/120/47 52/60/48
f 43/119/39 52/60/48 44/59/40
f 37/41/33 4/4/4 3/3/3
f 37/41/33 3/3/3 66/121/65
f 36/40/32 72/106/67 1/1/1
f 36/40/32 1/1/1 4/4/4
f 68/102/5 77/115/5 78/118/5
f 68/102/5 78/118/5 69/103/5
f 79/122/74 80/123/74 81/124/74
f 79/122/75 81/124/75 82/125/75
f 65/94/64 83/126/76 84/127/77
f 84/127/77 50/128/46 34/95/30
f 84/127/77 34/95/30 65/94/64
f 47/129/43 79/130/78 85/131/79
f 47/129/43 85/131/79 48/132/44
f 67/133/66 35/39/31 30/34/26
f 67/133/66 30/34/26 29/33/25
f 50/56/46 84/134/77 51/57/47
f 50/56/46 51/57/47 31/35/27
f 53/61/49 52/60/80 83/135/76
f 83/135/76 81/136/81 80/137/82
f 83/135/76 80/137/82 53/61/49
f 78/138/83 46/139/42 65/94/64
f 65/94/64 64/93/63 69/140/84
f 78/138/83 65/94/64 69/140/84
f 56/74/55 57/75/57 79/122/78
f 56/74/55 79/122/78 47/116/43
f 57/75/57 53/76/49 80/123/82
f 57/75/57 80/123/82 79/122/78
f 58/77/5 59/78/5 77/115/5
f 58/77/5 77/115/5 68/102/5
f 59/78/58 56/74/55 47/116/43
f 59/78/58 47/116/43 77/115/85
f 86/141/86 87/142/87 76/114/72
f 86/141/86 76/114/72 75/113/71
f 60/143/88 7/144/88 88/145/88
f 60/143/88 88/145/88 89/146/88
f 58/77/5 68/102/5 71/105/5
f 58/77/5 71/105/5 22/24/5
f 86/147/86 90/148/89 74/149/69
f 74/149/69 73/150/68 87/151/87
f 74/149/69 87/151/87 86/147/86
f 69/140/84 64/93/63 90/148/89
f 90/148/89 86/147/86 70/152/90
f 90/148/89 70/152/90 69/140/84
f 1/92/1 72/153/67 14/154/11
f 14/154/11 90/148/89 64/93/63
f 14/154/11 64/93/63 1/92/1
f 14/154/11 13/155/10 74/149/69
f 14/154/11 74/149/69 90/148/89
f 91/156/91 92/157/91 93/158/91
f 91/156/91 93/158/91 94/159/91
f 19/21/16 18/20/15 76/160/72
f 76/160/72 87/161/87 73/162/68
f 76/160/72 73/162/68 19/21/16
f 15/107/12 16/163/13 20/164/17
f 15/107/12 20/164/17 19/108/16
f 84/165/77 83/135/76 52/60/80
f 84/165/77 52/60/80 51/120/47
f 8/66/50 7/166/92 60/87/60
f 60/87/60 63/86/62 54/67/51
f 60/87/60 54/67/51 8/66/50
f 66/121/65 3/3/3 35/39/31
f 66/121/65 35/39/31 67/133/66
f 2/2/2 33/37/29 35/39/31
f 2/2/2 35/39/31 3/3/3
f 82/167/93 81/168/81 83/126/76
f 83/126/76 65/94/64 46/139/42
f 82/167/93 83/126/76 46/139/42
f 45/49/41 44/48/40 41/169/37
f 40/170/94 27/68/52 45/49/41
f 41/169/37 40/170/94 45/49/41
f 88/171/95 62/172/95 61/173/96
f 88/171/95 61/173/96 89/174/97
f 95/175/98 96/176/99 97/177/100
f 95/175/98 97/177/100 98/178/98
f 75/179/101 71/180/101 98/181/101
f 75/179/101 98/181/101 97/182/101
f 7/183/102 6/184/102 62/185/102
f 7/183/102 62/185/102 88/186/102
f 71/187/102 70/188/102 95/189/102
f 71/187/102 95/189/102 98/190/102
f 24/191/22 60/192/60 89/193/97
f 24/191/22 89/193/97 61/194/96
f 70/195/90 86/196/86 96/197/99
f 70/195/103 96/197/103 95/198/103
f 86/199/86 75/200/71 97/201/100
f 86/199/86 97/201/100 96/202/99
f 99/203/104 100/204/105 101/205/106
f 99/203/104 101/205/106 102/206/107
f 48/207/44 85/208/79 103/209/108
f 48/207/44 103/209/108 49/210/45
f 27/211/52 40/212/94 101/213/106
f 27/211/52 101/213/106 100/214/105
f 40/215/94 39/216/36 102/217/107
f 40/215/94 102/217/107 101/218/106
f 82/219/93 46/220/42 49/221/45
f 82/219/93 49/221/45 103/222/108
f 79/223/78 82/224/93 103/225/108
f 79/223/78 103/225/108 85/226/79
f 28/227/56 27/228/52 100/229/105
f 28/227/56 100/229/105 99/230/104
f 39/231/36 28/232/56 99/233/104
f 39/231/36 99/233/104 102/234/107
