# PSX Racing car model — generated by tools/carmodels/export_models.mjs
mtllib camry_2001_wheels_r.mtl
v -0.627440 0.673142 1.309834
v -0.869215 0.673142 1.309834
v -0.869215 0.666675 1.375496
v -0.627440 0.666675 1.375496
v -0.869215 0.647522 1.438634
v -0.627440 0.647522 1.438634
v -0.869215 0.616419 1.496823
v -0.627440 0.616419 1.496823
v -0.869215 0.574563 1.547826
v -0.627440 0.574563 1.547826
v -0.869215 0.523560 1.589683
v -0.627440 0.523560 1.589683
v -0.869215 0.465371 1.620785
v -0.627440 0.465371 1.620785
v -0.869215 0.402233 1.639938
v -0.627440 0.402233 1.639938
v -0.869215 0.336571 1.646405
v -0.627440 0.336571 1.646405
v -0.869215 0.270909 1.639938
v -0.627440 0.270909 1.639938
v -0.869215 0.207771 1.620785
v -0.627440 0.207771 1.620785
v -0.869215 0.149582 1.589683
v -0.627440 0.149582 1.589683
v -0.869215 0.098579 1.547826
v -0.627440 0.098579 1.547826
v -0.869215 0.056722 1.496823
v -0.627440 0.056722 1.496823
v -0.869215 0.025620 1.438634
v -0.627440 0.025620 1.438634
v -0.869215 0.006467 1.375496
v -0.627440 0.006467 1.375496
v -0.869215 0.000000 1.309834
v -0.627440 0.000000 1.309834
v -0.869215 0.006467 1.244173
v -0.627440 0.006467 1.244173
v -0.869215 0.025620 1.181034
v -0.627440 0.025620 1.181034
v -0.869215 0.056722 1.122846
v -0.627440 0.056722 1.122846
v -0.869215 0.098579 1.071843
v -0.627440 0.098579 1.071843
v -0.869215 0.149582 1.029986
v -0.627440 0.149582 1.029986
v -0.869215 0.207771 0.998883
v -0.627440 0.207771 0.998883
v -0.869215 0.270909 0.979730
v -0.627440 0.270909 0.979730
v -0.869215 0.336571 0.973263
v -0.627440 0.336571 0.973263
v -0.869215 0.402233 0.979730
v -0.627440 0.402233 0.979730
v -0.869215 0.465371 0.998883
v -0.627440 0.465371 0.998883
v -0.869215 0.523560 1.029986
v -0.627440 0.523560 1.029986
v -0.869215 0.574563 1.071843
v -0.627440 0.574563 1.071843
v -0.869215 0.616419 1.122846
v -0.627440 0.616419 1.122846
v -0.869215 0.647522 1.181034
v -0.627440 0.647522 1.181034
v -0.869215 0.666675 1.244173
v -0.627440 0.666675 1.244173
v 0.627440 0.673142 1.309834
v 0.869215 0.673142 1.309834
v 0.869215 0.666675 1.244173
v 0.627440 0.666675 1.244173
v 0.869215 0.647522 1.181034
v 0.627440 0.647522 1.181034
v 0.869215 0.616419 1.122846
v 0.627440 0.616420 1.122846
v 0.869215 0.574563 1.071843
v 0.627440 0.574563 1.071843
v 0.869215 0.523560 1.029986
v 0.627440 0.523560 1.029986
v 0.869215 0.465371 0.998883
v 0.627440 0.465371 0.998883
v 0.869215 0.402233 0.979730
v 0.627440 0.402233 0.979730
v 0.869215 0.336571 0.973263
v 0.627440 0.336571 0.973263
v 0.869215 0.270909 0.979730
v 0.627440 0.270909 0.979730
v 0.869215 0.207771 0.998883
v 0.627440 0.207771 0.998883
v 0.869215 0.149582 1.029986
v 0.627440 0.149582 1.029986
v 0.869215 0.098579 1.071843
v 0.627440 0.098579 1.071843
v 0.869215 0.056722 1.122845
v 0.627440 0.056723 1.122845
v 0.869215 0.025620 1.181034
v 0.627440 0.025620 1.181034
v 0.869215 0.006467 1.244172
v 0.627440 0.006467 1.244172
v 0.869215 0.000000 1.309834
v 0.627440 0.000000 1.309834
v 0.869215 0.006467 1.375496
v 0.627440 0.006467 1.375496
v 0.869215 0.025620 1.438634
v 0.627440 0.025620 1.438634
v 0.869215 0.056722 1.496823
v 0.627440 0.056722 1.496823
v 0.869215 0.098579 1.547826
v 0.627440 0.098579 1.547826
v 0.869215 0.149582 1.589683
v 0.627440 0.149582 1.589683
v 0.869215 0.207771 1.620785
v 0.627440 0.207771 1.620785
v 0.869215 0.270909 1.639938
v 0.627440 0.270909 1.639938
v 0.869215 0.336571 1.646405
v 0.627440 0.336571 1.646405
v 0.869215 0.402233 1.639938
v 0.627440 0.402233 1.639938
v 0.869215 0.465371 1.620785
v 0.627440 0.465371 1.620785
v 0.869215 0.523560 1.589683
v 0.627440 0.523560 1.589683
v 0.869215 0.574562 1.547826
v 0.627440 0.574563 1.547826
v 0.869215 0.616419 1.496823
v 0.627440 0.616419 1.496823
v 0.869215 0.647522 1.438634
v 0.627440 0.647522 1.438635
v 0.869215 0.666675 1.375496
v 0.627440 0.666675 1.375496
vt 0.629162 0.932086
vt 0.594888 0.932086
vt 0.594888 0.923424
vt 0.629162 0.923424
vt 0.594888 0.915628
vt 0.629162 0.915628
vt 0.594888 0.908998
vt 0.647742 0.909649
vt 0.682015 0.916279
vt 0.647742 0.916279
vt 0.682015 0.924074
vt 0.647742 0.924074
vt 0.682015 0.932737
vt 0.647742 0.932737
vt 0.682015 0.941933
vt 0.647742 0.941933
vt 0.682015 0.951309
vt 0.647742 0.951309
vt 0.682015 0.960505
vt 0.647742 0.960505
vt 0.682015 0.969167
vt 0.647742 0.969167
vt 0.682015 0.976963
vt 0.647742 0.976963
vt 0.096192 0.917262
vt 0.130465 0.917262
vt 0.130465 0.923891
vt 0.096192 0.923891
vt 0.130465 0.931687
vt 0.096192 0.931687
vt 0.130465 0.940350
vt 0.096192 0.940350
vt 0.130465 0.949546
vt 0.096192 0.949546
vt 0.130465 0.958922
vt 0.096192 0.958922
vt 0.130465 0.968118
vt 0.096192 0.968118
vt 0.130465 0.976780
vt 0.096192 0.976780
vt 0.130465 0.984576
vt 0.096192 0.984576
vt 0.470941 0.959282
vt 0.436668 0.959282
vt 0.436668 0.952652
vt 0.470941 0.952652
vt 0.436668 0.944856
vt 0.470941 0.944856
vt 0.436668 0.936194
vt 0.470941 0.936194
vt 0.436668 0.926998
vt 0.470941 0.926998
vt 0.436668 0.917622
vt 0.470941 0.917622
vt 0.436668 0.908426
vt 0.470941 0.908426
vt 0.436668 0.899763
vt 0.470941 0.899763
vt 0.436668 0.891967
vt 0.470941 0.891967
vt 0.436668 0.885337
vt 0.470941 0.885337
vt 0.629162 0.976312
vt 0.594888 0.976312
vt 0.594888 0.968516
vt 0.629162 0.968516
vt 0.594888 0.959854
vt 0.629162 0.959854
vt 0.594888 0.950658
vt 0.629162 0.950658
vt 0.926474 0.001829
vt 0.935115 0.005417
vt 0.942892 0.010626
vt 0.949505 0.017256
vt 0.954702 0.025052
vt 0.958281 0.033715
vt 0.960106 0.042911
vt 0.960106 0.052287
vt 0.958281 0.061483
vt 0.954702 0.070145
vt 0.949505 0.077941
vt 0.942892 0.084571
vt 0.935115 0.089780
vt 0.926474 0.093368
vt 0.917300 0.095197
vt 0.907947 0.095197
vt 0.898774 0.093368
vt 0.890133 0.089780
vt 0.882356 0.084571
vt 0.875743 0.077941
vt 0.870546 0.070145
vt 0.866967 0.061482
vt 0.865143 0.052287
vt 0.865143 0.042910
vt 0.866967 0.033714
vt 0.870546 0.025052
vt 0.875743 0.017256
vt 0.882356 0.010626
vt 0.890133 0.005417
vt 0.898774 0.001829
vt 0.907948 0.000000
vt 0.917301 0.000000
vt 0.594888 0.941282
vt 0.629162 0.941282
vt 0.942892 0.112122
vt 0.949505 0.118752
vt 0.954702 0.126548
vt 0.958281 0.135210
vt 0.960106 0.144406
vt 0.960106 0.153782
vt 0.958281 0.162978
vt 0.954702 0.171640
vt 0.949505 0.179436
vt 0.942892 0.186066
vt 0.935115 0.191275
vt 0.926474 0.194863
vt 0.917301 0.196693
vt 0.907948 0.196693
vt 0.898774 0.194863
vt 0.890133 0.191275
vt 0.882356 0.186066
vt 0.875743 0.179436
vt 0.870547 0.171641
vt 0.866967 0.162978
vt 0.865143 0.153782
vt 0.865143 0.144406
vt 0.866967 0.135210
vt 0.870546 0.126548
vt 0.875743 0.118752
vt 0.882356 0.112122
vt 0.890133 0.106913
vt 0.898774 0.103325
vt 0.907947 0.101496
vt 0.917301 0.101496
vt 0.926474 0.103325
vt 0.935115 0.106913
vt 0.513171 0.905994
vt 0.547444 0.905994
vt 0.547444 0.913790
vt 0.513171 0.913790
vt 0.547444 0.922452
vt 0.513171 0.922452
vt 0.547444 0.931648
vt 0.513171 0.931648
vt 0.547444 0.941024
vt 0.513171 0.941024
vt 0.547444 0.950220
vt 0.513171 0.950220
vt 0.547444 0.958882
vt 0.513171 0.958882
vt 0.547444 0.966678
vt 0.513171 0.966678
vt 0.547444 0.973308
vt 0.513171 0.973308
vt 0.040556 0.923899
vt 0.074830 0.923899
vt 0.074830 0.930529
vt 0.040556 0.930529
vt 0.074830 0.938325
vt 0.040556 0.938325
vt 0.074830 0.946987
vt 0.040556 0.946987
vt 0.074830 0.956183
vt 0.040556 0.956183
vt 0.074830 0.965559
vt 0.040556 0.965559
vt 0.074830 0.974755
vt 0.040556 0.974755
vt 0.074830 0.983417
vt 0.040556 0.983417
vt 0.869886 1.000000
vt 0.835613 1.000000
vt 0.835613 0.991338
vt 0.869886 0.991338
vt 0.835613 0.982142
vt 0.869886 0.982142
vt 0.835613 0.972766
vt 0.869886 0.972766
vt 0.835613 0.963570
vt 0.869886 0.963570
vt 0.835613 0.954907
vt 0.869886 0.954907
vt 1.000000 0.937756
vt 0.965727 0.937756
vt 0.965727 0.929094
vt 1.000000 0.929094
vt 0.965727 0.919898
vt 1.000000 0.919898
vt 0.965727 0.910522
vt 1.000000 0.910522
vt 0.965727 0.901326
vt 1.000000 0.901326
vt 0.965727 0.892664
vt 1.000000 0.892664
vt 0.965727 0.884868
vt 1.000000 0.884868
vt 0.231711 0.992370
vt 0.197438 0.992370
vt 0.197438 0.983707
vt 0.231711 0.983707
vt 0.197438 0.974511
vt 0.231711 0.974511
vt 0.197438 0.965135
vt 0.231711 0.965135
vt 0.197438 0.955939
vt 0.231711 0.955939
vt 0.418499 0.783842
vt 0.427852 0.783842
vt 0.437026 0.785671
vt 0.445667 0.789259
vt 0.453443 0.794468
vt 0.460057 0.801098
vt 0.465253 0.808894
vt 0.468833 0.817557
vt 0.470657 0.826752
vt 0.470657 0.836129
vt 0.468833 0.845325
vt 0.465253 0.853987
vt 0.460057 0.861783
vt 0.453444 0.868413
vt 0.445667 0.873622
vt 0.437026 0.877210
vt 0.427852 0.879039
vt 0.418499 0.879039
vt 0.409326 0.877210
vt 0.400685 0.873622
vt 0.392908 0.868413
vt 0.386295 0.861783
vt 0.381098 0.853987
vt 0.377519 0.845325
vt 0.375694 0.836129
vt 0.375694 0.826753
vt 0.377519 0.817557
vt 0.381098 0.808894
vt 0.386295 0.801098
vt 0.392908 0.794468
vt 0.400685 0.789259
vt 0.409326 0.785671
vt 0.197438 0.947277
vt 0.231711 0.947277
vt 0.197438 0.939481
vt 0.231711 0.939481
vt 0.863526 0.778586
vt 0.871302 0.783795
vt 0.877916 0.790425
vt 0.883112 0.798221
vt 0.886692 0.806884
vt 0.888516 0.816080
vt 0.888516 0.825456
vt 0.886691 0.834652
vt 0.883112 0.843314
vt 0.877916 0.851110
vt 0.871302 0.857740
vt 0.863526 0.862949
vt 0.854884 0.866537
vt 0.845711 0.868366
vt 0.836358 0.868366
vt 0.827185 0.866537
vt 0.818544 0.862949
vt 0.810767 0.857740
vt 0.804153 0.851110
vt 0.798957 0.843314
vt 0.795378 0.834651
vt 0.793553 0.825455
vt 0.793553 0.816079
vt 0.795378 0.806884
vt 0.798957 0.798221
vt 0.804153 0.790425
vt 0.810767 0.783795
vt 0.818544 0.778586
vt 0.827185 0.774998
vt 0.836358 0.773169
vt 0.845711 0.773169
vt 0.854885 0.774998
vn 0.000000 0.995200 0.098000
vn 0.000000 0.956900 0.290300
vn 0.000000 0.881900 0.471400
vn 0.000000 0.773000 0.634400
vn 0.000000 0.634400 0.773000
vn 0.000000 0.471400 0.881900
vn 0.000000 0.290300 0.956900
vn 0.000000 0.098000 0.995200
vn 0.000000 -0.098000 0.995200
vn 0.000000 -0.290300 0.956900
vn 0.000000 -0.471400 0.881900
vn 0.000000 -0.634400 0.773000
vn 0.000000 -0.773000 0.634400
vn 0.000000 -0.881900 0.471400
vn 0.000000 -0.956900 0.290300
vn 0.000000 -0.995200 0.098000
vn 0.000000 -0.995200 -0.098000
vn 0.000000 -0.956900 -0.290300
vn 0.000000 -0.881900 -0.471400
vn 0.000000 -0.773000 -0.634400
vn 0.000000 -0.634400 -0.773000
vn 0.000000 -0.471400 -0.881900
vn 0.000000 -0.290300 -0.956900
vn 0.000000 -0.098000 -0.995200
vn 0.000000 0.098000 -0.995200
vn 0.000000 0.290300 -0.956900
vn 0.000000 0.471400 -0.881900
vn 0.000000 0.634400 -0.773000
vn 0.000000 0.773000 -0.634400
vn 0.000000 0.881900 -0.471400
vn -1.000000 0.000000 0.000000
vn 0.000000 0.956900 -0.290300
vn 0.000000 0.995200 -0.098000
vn 1.000000 0.000000 0.000000
vn 0.000000 0.995200 -0.098000
vn 0.000000 0.956900 -0.290300
vn 0.000000 0.881900 -0.471400
vn 0.000000 0.773000 -0.634400
vn 0.000000 0.634400 -0.773000
vn 0.000000 0.471400 -0.881900
vn 0.000000 0.290300 -0.956900
vn 0.000000 0.098000 -0.995200
vn 0.000000 -0.098000 -0.995200
vn 0.000000 -0.290300 -0.956900
vn 0.000000 -0.471400 -0.881900
vn 0.000000 -0.634400 -0.773000
vn 0.000000 -0.773000 -0.634400
vn 0.000000 -0.881900 -0.471400
vn 0.000000 -0.956900 -0.290300
vn 0.000000 -0.995200 -0.098000
vn 0.000000 -0.995200 0.098000
vn 0.000000 -0.956900 0.290300
vn 0.000000 -0.881900 0.471400
vn 0.000000 -0.773000 0.634400
vn 0.000000 -0.634400 0.773000
vn 0.000000 -0.471400 0.881900
vn 0.000000 -0.290300 0.956900
vn 0.000000 -0.098000 0.995200
vn 0.000000 0.098000 0.995200
vn 0.000000 0.290300 0.956900
vn 0.000000 0.471400 0.881900
vn 0.000000 0.634400 0.773000
vn 0.000000 0.773000 0.634400
vn 0.000000 0.881900 0.471400
vn 1.000000 0.000000 0.000000
vn 0.000000 0.956900 0.290300
vn 0.000000 0.995200 0.098000
vn -1.000000 0.000000 0.000000
o camry_2001_wheels_r
usemtl camry_2001_wheels_r
f 1/1/1 2/2/1 3/3/1
f 1/1/1 3/3/1 4/4/1
f 4/4/2 3/3/2 5/5/2
f 4/4/2 5/5/2 6/6/2
f 6/6/3 5/5/3 7/7/3
f 6/8/3 7/9/3 8/10/3
f 8/10/4 7/9/4 9/11/4
f 8/10/4 9/11/4 10/12/4
f 10/12/5 9/11/5 11/13/5
f 10/12/5 11/13/5 12/14/5
f 12/14/6 11/13/6 13/15/6
f 12/14/6 13/15/6 14/16/6
f 14/16/7 13/15/7 15/17/7
f 14/16/7 15/17/7 16/18/7
f 16/18/8 15/17/8 17/19/8
f 16/18/8 17/19/8 18/20/8
f 18/20/9 17/19/9 19/21/9
f 18/20/9 19/21/9 20/22/9
f 20/22/10 19/21/10 21/23/10
f 20/22/10 21/23/10 22/24/10
f 22/25/11 21/26/11 23/27/11
f 22/25/11 23/27/11 24/28/11
f 24/28/12 23/27/12 25/29/12
f 24/28/12 25/29/12 26/30/12
f 26/30/13 25/29/13 27/31/13
f 26/30/13 27/31/13 28/32/13
f 28/32/14 27/31/14 29/33/14
f 28/32/14 29/33/14 30/34/14
f 30/34/15 29/33/15 31/35/15
f 30/34/15 31/35/15 32/36/15
f 32/36/16 31/35/16 33/37/16
f 32/36/16 33/37/16 34/38/16
f 34/38/17 33/37/17 35/39/17
f 34/38/17 35/39/17 36/40/17
f 36/40/18 35/39/18 37/41/18
f 36/40/18 37/41/18 38/42/18
f 38/43/19 37/44/19 39/45/19
f 38/43/19 39/45/19 40/46/19
f 40/46/20 39/45/20 41/47/20
f 40/46/20 41/47/20 42/48/20
f 42/48/21 41/47/21 43/49/21
f 42/48/21 43/49/21 44/50/21
f 44/50/22 43/49/22 45/51/22
f 44/50/22 45/51/22 46/52/22
f 46/52/23 45/51/23 47/53/23
f 46/52/23 47/53/23 48/54/23
f 48/54/24 47/53/24 49/55/24
f 48/54/24 49/55/24 50/56/24
f 50/56/25 49/55/25 51/57/25
f 50/56/25 51/57/25 52/58/25
f 52/58/26 51/57/26 53/59/26
f 52/58/26 53/59/26 54/60/26
f 54/60/27 53/59/27 55/61/27
f 54/60/27 55/61/27 56/62/27
f 56/63/28 55/64/28 57/65/28
f 56/63/28 57/65/28 58/66/28
f 58/66/29 57/65/29 59/67/29
f 58/66/29 59/67/29 60/68/29
f 60/68/30 59/67/30 61/69/30
f 60/68/30 61/69/30 62/70/30
f 5/71/31 3/72/31 2/73/31
f 2/73/31 63/74/31 61/75/31
f 61/75/31 59/76/31 57/77/31
f 57/77/31 55/78/31 53/79/31
f 53/79/31 51/80/31 49/81/31
f 49/81/31 47/82/31 45/83/31
f 45/83/31 43/84/31 41/85/31
f 41/85/31 39/86/31 37/87/31
f 37/87/31 35/88/31 33/89/31
f 33/89/31 31/90/31 29/91/31
f 29/91/31 27/92/31 25/93/31
f 25/93/31 23/94/31 21/95/31
f 21/95/31 19/96/31 17/97/31
f 17/97/31 15/98/31 13/99/31
f 13/99/31 11/100/31 9/101/31
f 9/101/31 7/102/31 5/71/31
f 5/71/31 2/73/31 61/75/31
f 61/75/31 57/77/31 53/79/31
f 53/79/31 49/81/31 45/83/31
f 45/83/31 41/85/31 37/87/31
f 37/87/31 33/89/31 29/91/31
f 29/91/31 25/93/31 21/95/31
f 21/95/31 17/97/31 13/99/31
f 13/99/31 9/101/31 5/71/31
f 5/71/31 61/75/31 53/79/31
f 53/79/31 45/83/31 37/87/31
f 37/87/31 29/91/31 21/95/31
f 21/95/31 13/99/31 5/71/31
f 5/71/31 53/79/31 37/87/31
f 37/87/31 21/95/31 5/71/31
f 62/70/32 61/69/32 63/103/32
f 62/70/32 63/103/32 64/104/32
f 64/104/33 63/103/33 2/2/33
f 64/104/33 2/2/33 1/1/33
f 64/105/34 1/106/34 4/107/34
f 4/107/34 6/108/34 8/109/34
f 8/109/34 10/110/34 12/111/34
f 12/111/34 14/112/34 16/113/34
f 16/113/34 18/114/34 20/115/34
f 20/115/34 22/116/34 24/117/34
f 24/117/34 26/118/34 28/119/34
f 28/119/34 30/120/34 32/121/34
f 32/121/34 34/122/34 36/123/34
f 36/123/34 38/124/34 40/125/34
f 40/125/34 42/126/34 44/127/34
f 44/127/34 46/128/34 48/129/34
f 48/129/34 50/130/34 52/131/34
f 52/131/34 54/132/34 56/133/34
f 56/133/34 58/134/34 60/135/34
f 60/135/34 62/136/34 64/105/34
f 64/105/34 4/107/34 8/109/34
f 8/109/34 12/111/34 16/113/34
f 16/113/34 20/115/34 24/117/34
f 24/117/34 28/119/34 32/121/34
f 32/121/34 36/123/34 40/125/34
f 40/125/34 44/127/34 48/129/34
f 48/129/34 52/131/34 56/133/34
f 56/133/34 60/135/34 64/105/34
f 64/105/34 8/109/34 16/113/34
f 16/113/34 24/117/34 32/121/34
f 32/121/34 40/125/34 48/129/34
f 48/129/34 56/133/34 64/105/34
f 64/105/34 16/113/34 32/121/34
f 32/121/34 48/129/34 64/105/34
f 65/137/35 66/138/35 67/139/35
f 65/137/35 67/139/35 68/140/35
f 68/140/36 67/139/36 69/141/36
f 68/140/36 69/141/36 70/142/36
f 70/142/37 69/141/37 71/143/37
f 70/142/37 71/143/37 72/144/37
f 72/144/38 71/143/38 73/145/38
f 72/144/38 73/145/38 74/146/38
f 74/146/39 73/145/39 75/147/39
f 74/146/39 75/147/39 76/148/39
f 76/148/40 75/147/40 77/149/40
f 76/148/40 77/149/40 78/150/40
f 78/150/41 77/149/41 79/151/41
f 78/150/41 79/151/41 80/152/41
f 80/152/42 79/151/42 81/153/42
f 80/152/42 81/153/42 82/154/42
f 82/155/43 81/156/43 83/157/43
f 82/155/43 83/157/43 84/158/43
f 84/158/44 83/157/44 85/159/44
f 84/158/44 85/159/44 86/160/44
f 86/160/45 85/159/45 87/161/45
f 86/160/45 87/161/45 88/162/45
f 88/162/46 87/161/46 89/163/46
f 88/162/46 89/163/46 90/164/46
f 90/164/47 89/163/47 91/165/47
f 90/164/47 91/165/47 92/166/47
f 92/166/48 91/165/48 93/167/48
f 92/166/48 93/167/48 94/168/48
f 94/168/49 93/167/49 95/169/49
f 94/168/49 95/169/49 96/170/49
f 96/171/50 95/172/50 97/173/50
f 96/171/50 97/173/50 98/174/50
f 98/174/51 97/173/51 99/175/51
f 98/174/51 99/175/51 100/176/51
f 100/176/52 99/175/52 101/177/52
f 100/176/52 101/177/52 102/178/52
f 102/178/53 101/177/53 103/179/53
f 102/178/53 103/179/53 104/180/53
f 104/180/54 103/179/54 105/181/54
f 104/180/54 105/181/54 106/182/54
f 106/183/55 105/184/55 107/185/55
f 106/183/55 107/185/55 108/186/55
f 108/186/56 107/185/56 109/187/56
f 108/186/56 109/187/56 110/188/56
f 110/188/57 109/187/57 111/189/57
f 110/188/57 111/189/57 112/190/57
f 112/190/58 111/189/58 113/191/58
f 112/190/58 113/191/58 114/192/58
f 114/192/59 113/191/59 115/193/59
f 114/192/59 115/193/59 116/194/59
f 116/194/60 115/193/60 117/195/60
f 116/194/60 117/195/60 118/196/60
f 118/197/61 117/198/61 119/199/61
f 118/197/61 119/199/61 120/200/61
f 120/200/62 119/199/62 121/201/62
f 120/200/62 121/201/62 122/202/62
f 122/202/63 121/201/63 123/203/63
f 122/202/63 123/203/63 124/204/63
f 124/204/64 123/203/64 125/205/64
f 124/204/64 125/205/64 126/206/64
f 69/207/65 67/208/65 66/209/65
f 66/209/65 127/210/65 125/211/65
f 125/211/65 123/212/65 121/213/65
f 121/213/65 119/214/65 117/215/65
f 117/215/65 115/216/65 113/217/65
f 113/217/65 111/218/65 109/219/65
f 109/219/65 107/220/65 105/221/65
f 105/221/65 103/222/65 101/223/65
f 101/223/65 99/224/65 97/225/65
f 97/225/65 95/226/65 93/227/65
f 93/227/65 91/228/65 89/229/65
f 89/229/65 87/230/65 85/231/65
f 85/231/65 83/232/65 81/233/65
f 81/233/65 79/234/65 77/235/65
f 77/235/65 75/236/65 73/237/65
f 73/237/65 71/238/65 69/207/65
f 69/207/65 66/209/65 125/211/65
f 125/211/65 121/213/65 117/215/65
f 117/215/65 113/217/65 109/219/65
f 109/219/65 105/221/65 101/223/65
f 101/223/65 97/225/65 93/227/65
f 93/227/65 89/229/65 85/231/65
f 85/231/65 81/233/65 77/235/65
f 77/235/65 73/237/65 69/207/65
f 69/207/65 125/211/65 117/215/65
f 117/215/65 109/219/65 101/223/65
f 101/223/65 93/227/65 85/231/65
f 85/231/65 77/235/65 69/207/65
f 69/207/65 117/215/65 101/223/65
f 101/223/65 85/231/65 69/207/65
f 126/206/66 125/205/66 127/239/66
f 126/206/66 127/239/66 128/240/66
f 128/240/67 127/239/67 66/241/67
f 128/240/67 66/241/67 65/242/67
f 128/243/68 65/244/68 68/245/68
f 68/245/68 70/246/68 72/247/68
f 72/247/68 74/248/68 76/249/68
f 76/249/68 78/250/68 80/251/68
f 80/251/68 82/252/68 84/253/68
f 84/253/68 86/254/68 88/255/68
f 88/255/68 90/256/68 92/257/68
f 92/257/68 94/258/68 96/259/68
f 96/259/68 98/260/68 100/261/68
f 100/261/68 102/262/68 104/263/68
f 104/263/68 106/264/68 108/265/68
f 108/265/68 110/266/68 112/267/68
f 112/267/68 114/268/68 116/269/68
f 116/269/68 118/270/68 120/271/68
f 120/271/68 122/272/68 124/273/68
f 124/273/68 126/274/68 128/243/68
f 128/243/68 68/245/68 72/247/68
f 72/247/68 76/249/68 80/251/68
f 80/251/68 84/253/68 88/255/68
f 88/255/68 92/257/68 96/259/68
f 96/259/68 100/261/68 104/263/68
f 104/263/68 108/265/68 112/267/68
f 112/267/68 116/269/68 120/271/68
f 120/271/68 124/273/68 128/243/68
f 128/243/68 72/247/68 80/251/68
f 80/251/68 88/255/68 96/259/68
f 96/259/68 104/263/68 112/267/68
f 112/267/68 120/271/68 128/243/68
f 128/243/68 80/251/68 96/259/68
f 96/259/68 112/267/68 128/243/68
