# PSX Racing car model — generated by tools/carmodels/export_models.mjs
mtllib flatsix_turbo_96_wheels_r.mtl
v -0.825787 0.684785 1.155851
v -0.840876 0.616673 0.997495
v -0.840876 0.659105 1.155851
v -0.825787 0.513589 0.859331
v -0.840876 0.500749 0.881570
v -0.840876 0.342392 0.839138
v -0.825787 0.342392 0.813459
v -0.840876 0.184036 0.881570
v -0.825787 0.171196 0.859331
v -0.840876 0.068111 0.997495
v -0.825787 0.000000 1.155851
v -0.840876 0.025679 1.155851
v -0.840876 0.068111 1.314208
v -0.825787 0.171196 1.452372
v -0.840876 0.184036 1.430132
v -0.840876 0.342392 1.472564
v -0.825787 0.342392 1.498243
v -0.840876 0.500749 1.430132
v -0.825787 0.513589 1.452372
v -0.840876 0.616673 1.314208
v -0.626629 0.684785 1.155851
v -0.825787 0.638913 0.984655
v -0.626629 0.638913 0.984655
v -0.626629 0.513589 0.859331
v -0.626629 0.342392 0.813459
v -0.626629 0.171196 0.859331
v -0.825787 0.045872 0.984655
v -0.626629 0.045872 0.984655
v -0.626629 0.000000 1.155851
v -0.825787 0.045872 1.327047
v -0.626629 0.045872 1.327047
v -0.626629 0.171196 1.452372
v -0.626629 0.342392 1.498243
v -0.626629 0.513589 1.452372
v -0.825787 0.638913 1.327047
v -0.626629 0.638913 1.327047
v -0.611541 0.659105 1.155851
v -0.611541 0.616673 0.997495
v -0.611541 0.500749 0.881570
v -0.611541 0.342392 0.839138
v -0.611541 0.068111 0.997495
v -0.611541 0.025679 1.155851
v -0.611541 0.068111 1.314208
v -0.611541 0.184036 1.430132
v -0.611541 0.342392 1.472564
v -0.611541 0.616673 1.314208
v -0.611541 0.184036 0.881570
v -0.611541 0.500749 1.430132
v 0.626629 0.684785 1.155851
v 0.611541 0.616673 0.997495
v 0.611541 0.659105 1.155851
v 0.626629 0.513589 0.859331
v 0.611541 0.500749 0.881570
v 0.611541 0.342392 0.839138
v 0.626629 0.342392 0.813459
v 0.611541 0.184036 0.881570
v 0.626629 0.171196 0.859331
v 0.611541 0.068111 0.997495
v 0.626629 0.000000 1.155851
v 0.611541 0.025679 1.155851
v 0.611541 0.068111 1.314208
v 0.626629 0.171196 1.452372
v 0.611541 0.184036 1.430132
v 0.611541 0.342392 1.472564
v 0.626629 0.342392 1.498243
v 0.611541 0.500749 1.430132
v 0.626629 0.513589 1.452372
v 0.611541 0.616673 1.314208
v 0.825787 0.684785 1.155851
v 0.626629 0.638913 0.984655
v 0.825787 0.638913 0.984655
v 0.825787 0.513589 0.859331
v 0.825787 0.342392 0.813459
v 0.825787 0.171196 0.859331
v 0.626629 0.045872 0.984655
v 0.825787 0.045872 0.984655
v 0.825787 0.000000 1.155851
v 0.626629 0.045872 1.327047
v 0.825787 0.045872 1.327047
v 0.825787 0.171196 1.452372
v 0.825787 0.342392 1.498243
v 0.825787 0.513589 1.452372
v 0.626629 0.638913 1.327047
v 0.825787 0.638913 1.327047
v 0.840876 0.659105 1.155851
v 0.840876 0.616673 0.997495
v 0.840876 0.500749 0.881570
v 0.840876 0.342392 0.839138
v 0.840876 0.068111 0.997495
v 0.840876 0.025679 1.155851
v 0.840876 0.068111 1.314208
v 0.840876 0.184036 1.430132
v 0.840876 0.342392 1.472564
v 0.840876 0.616673 1.314208
v 0.840876 0.184036 0.881570
v 0.840876 0.500749 1.430132
vt 0.808594 0.972656
vt 0.713339 0.937500
vt 0.615234 0.767578
vt 0.517130 0.937500
vt 0.558594 0.978964
vt 0.615234 0.994141
vt 0.671875 0.978964
vt 0.728516 0.880859
vt 0.713339 0.824219
vt 0.671875 0.782755
vt 0.558594 0.782755
vt 0.517130 0.824219
vt 0.501953 0.880859
vt 0.808594 0.972656
vt 0.501953 0.880859
vt 0.671875 0.782755
vt 0.671875 0.978964
vt 0.615234 0.994141
vt 0.558594 0.978964
vt 0.517130 0.937500
vt 0.517130 0.824219
vt 0.558594 0.782755
vt 0.615234 0.767578
vt 0.713339 0.824219
vt 0.728516 0.880859
vt 0.713339 0.937500
vn -0.862200 0.506600 0.000000
vn -0.953200 0.261700 -0.151100
vn -0.953200 0.302200 0.000000
vn -0.862200 0.253300 -0.438700
vn -0.953200 0.151100 -0.261700
vn -0.953200 0.000000 -0.302200
vn -0.862200 0.000000 -0.506600
vn -0.953200 -0.151100 -0.261700
vn -0.862200 -0.253300 -0.438700
vn -0.953200 -0.261700 -0.151100
vn -0.862200 -0.506600 0.000000
vn -0.953200 -0.302200 0.000000
vn -0.953200 -0.261700 0.151100
vn -0.862200 -0.253300 0.438700
vn -0.953200 -0.151100 0.261700
vn -0.953200 0.000000 0.302200
vn -0.862200 0.000000 0.506600
vn -0.953200 0.151100 0.261700
vn -0.862200 0.253300 0.438700
vn -0.953200 0.261700 0.151100
vn 0.000000 1.000000 0.000000
vn 0.000000 0.866000 -0.500000
vn 0.000000 0.500000 -0.866000
vn 0.000000 0.000000 -1.000000
vn 0.000000 -0.500000 -0.866000
vn 0.000000 -0.866000 -0.500000
vn 0.000000 -1.000000 0.000000
vn 0.000000 -0.866000 0.500000
vn 0.000000 -0.500000 0.866000
vn 0.000000 0.000000 1.000000
vn 0.000000 0.500000 0.866000
vn 0.000000 0.866000 0.500000
vn 0.953200 0.302200 0.000000
vn 0.862200 0.438700 -0.253300
vn 0.862200 0.506600 0.000000
vn 0.953200 0.261700 -0.151100
vn 0.862200 0.253300 -0.438700
vn 0.953200 0.151100 -0.261700
vn 0.862200 0.000000 -0.506600
vn 0.953200 0.000000 -0.302200
vn 0.862200 -0.253300 -0.438700
vn 0.953200 -0.261700 -0.151100
vn 0.862200 -0.438700 -0.253300
vn 0.862200 -0.506600 0.000000
vn 0.953200 -0.302200 0.000000
vn 0.862200 -0.438700 0.253300
vn 0.953200 -0.261700 0.151100
vn 0.862200 -0.253300 0.438700
vn 0.953200 -0.151100 0.261700
vn 0.862200 0.000000 0.506600
vn 0.953200 0.000000 0.302200
vn 0.862200 0.253300 0.438700
vn 0.953200 0.261700 0.151100
vn 0.862200 0.438700 0.253300
vn -0.862200 0.438700 -0.253300
vn -0.862200 -0.438700 -0.253300
vn -0.862200 -0.438700 0.253300
vn -0.862200 0.438700 0.253300
vn 0.953200 -0.151100 -0.261700
vn 0.953200 0.151100 0.261700
vn -0.862200 0.506600 0.000000
vn -0.953200 0.261700 -0.151100
vn -0.953200 0.302200 0.000000
vn -0.862200 0.253300 -0.438700
vn -0.953200 0.151100 -0.261700
vn -0.953200 0.000000 -0.302200
vn -0.862200 0.000000 -0.506600
vn -0.953200 -0.151100 -0.261700
vn -0.862200 -0.253300 -0.438700
vn -0.953200 -0.261700 -0.151100
vn -0.862200 -0.506600 0.000000
vn -0.953200 -0.302200 0.000000
vn -0.953200 -0.261700 0.151100
vn -0.862200 -0.253300 0.438700
vn -0.953200 -0.151100 0.261700
vn -0.953200 0.000000 0.302200
vn -0.862200 0.000000 0.506600
vn -0.953200 0.151100 0.261700
vn -0.862200 0.253300 0.438700
vn -0.953200 0.261700 0.151100
vn 0.000000 1.000000 0.000000
vn 0.000000 0.866000 -0.500000
vn 0.000000 0.500000 -0.866000
vn 0.000000 0.000000 -1.000000
vn 0.000000 -0.500000 -0.866000
vn 0.000000 -0.866000 -0.500000
vn 0.000000 -1.000000 0.000000
vn 0.000000 -0.866000 0.500000
vn 0.000000 -0.500000 0.866000
vn 0.000000 0.000000 1.000000
vn 0.000000 0.500000 0.866000
vn 0.000000 0.866000 0.500000
vn 0.953200 0.302200 0.000000
vn 0.862200 0.438700 -0.253300
vn 0.862200 0.506600 0.000000
vn 0.953200 0.261700 -0.151100
vn 0.862200 0.253300 -0.438700
vn 0.953200 0.151100 -0.261700
vn 0.862200 0.000000 -0.506600
vn 0.953200 0.000000 -0.302200
vn 0.862200 -0.253300 -0.438700
vn 0.953200 -0.261700 -0.151100
vn 0.862200 -0.438700 -0.253300
vn 0.862200 -0.506600 0.000000
vn 0.953200 -0.302200 0.000000
vn 0.862200 -0.438700 0.253300
vn 0.953200 -0.261700 0.151100
vn 0.862200 -0.253300 0.438700
vn 0.953200 -0.151100 0.261700
vn 0.862200 0.000000 0.506600
vn 0.953200 0.000000 0.302200
vn 0.862200 0.253300 0.438700
vn 0.953200 0.261700 0.151100
vn 0.862200 0.438700 0.253300
vn -0.862200 0.438700 -0.253300
vn -0.862200 -0.438700 -0.253300
vn -0.862200 -0.438700 0.253300
vn -0.862200 0.438700 0.253300
vn 0.953200 -0.151100 -0.261700
vn 0.953200 0.151100 0.261700
o flatsix_turbo_96_wheels_r
usemtl flatsix_turbo_96_wheels_r
f 1/1/1 2/1/2 3/1/3
f 2/1/2 4/1/4 5/1/5
f 4/1/4 6/1/6 5/1/5
f 7/1/7 8/1/8 6/1/6
f 9/1/9 10/1/10 8/1/8
f 10/1/10 11/1/11 12/1/12
f 11/1/11 13/1/13 12/1/12
f 13/1/13 14/1/14 15/1/15
f 14/1/14 16/1/16 15/1/15
f 17/1/17 18/1/18 16/1/16
f 19/1/19 20/1/20 18/1/18
f 20/1/20 1/1/1 3/1/3
f 21/1/21 22/1/22 1/1/21
f 23/1/22 4/1/23 22/1/22
f 24/1/23 7/1/24 4/1/23
f 25/1/24 9/1/25 7/1/24
f 26/1/25 27/1/26 9/1/25
f 28/1/26 11/1/27 27/1/26
f 29/1/27 30/1/28 11/1/27
f 31/1/28 14/1/29 30/1/28
f 32/1/29 17/1/30 14/1/29
f 33/1/30 19/1/31 17/1/30
f 34/1/31 35/1/32 19/1/31
f 36/1/32 1/1/21 35/1/32
f 37/1/33 23/1/34 21/1/35
f 38/1/36 24/1/37 23/1/34
f 39/1/38 25/1/39 24/1/37
f 40/1/40 26/1/41 25/1/39
f 26/1/41 41/1/42 28/1/43
f 41/1/42 29/1/44 28/1/43
f 42/1/45 31/1/46 29/1/44
f 43/1/47 32/1/48 31/1/46
f 44/1/49 33/1/50 32/1/48
f 45/1/51 34/1/52 33/1/50
f 34/1/52 46/1/53 36/1/54
f 46/1/53 21/1/35 36/1/54
f 5/2/5 12/3/12 18/4/18
f 45/1/51 41/1/42 38/1/36
f 1/1/1 22/1/55 2/1/2
f 2/1/2 22/1/55 4/1/4
f 4/1/4 7/1/7 6/1/6
f 7/1/7 9/1/9 8/1/8
f 9/1/9 27/1/56 10/1/10
f 10/1/10 27/1/56 11/1/11
f 11/1/11 30/1/57 13/1/13
f 13/1/13 30/1/57 14/1/14
f 14/1/14 17/1/17 16/1/16
f 17/1/17 19/1/19 18/1/18
f 19/1/19 35/1/58 20/1/20
f 20/1/20 35/1/58 1/1/1
f 21/1/21 23/1/22 22/1/22
f 23/1/22 24/1/23 4/1/23
f 24/1/23 25/1/24 7/1/24
f 25/1/24 26/1/25 9/1/25
f 26/1/25 28/1/26 27/1/26
f 28/1/26 29/1/27 11/1/27
f 29/1/27 31/1/28 30/1/28
f 31/1/28 32/1/29 14/1/29
f 32/1/29 33/1/30 17/1/30
f 33/1/30 34/1/31 19/1/31
f 34/1/31 36/1/32 35/1/32
f 36/1/32 21/1/21 1/1/21
f 37/1/33 38/1/36 23/1/34
f 38/1/36 39/1/38 24/1/37
f 39/1/38 40/1/40 25/1/39
f 40/1/40 47/1/59 26/1/41
f 26/1/41 47/1/59 41/1/42
f 41/1/42 42/1/45 29/1/44
f 42/1/45 43/1/47 31/1/46
f 43/1/47 44/1/49 32/1/48
f 44/1/49 45/1/51 33/1/50
f 45/1/51 48/1/60 34/1/52
f 34/1/52 48/1/60 46/1/53
f 46/1/53 37/1/33 21/1/35
f 18/4/18 20/5/20 3/6/3
f 3/6/3 2/7/2 18/4/18
f 2/7/2 5/2/5 18/4/18
f 5/2/5 6/8/6 8/9/8
f 8/9/8 10/10/10 12/3/12
f 12/3/12 13/11/13 15/12/15
f 15/12/15 16/13/16 12/3/12
f 16/13/16 18/4/18 12/3/12
f 5/2/5 8/9/8 12/3/12
f 38/1/36 37/1/33 46/1/53
f 46/1/53 48/1/60 45/1/51
f 45/1/51 44/1/49 43/1/47
f 43/1/47 42/1/45 45/1/51
f 42/1/45 41/1/42 45/1/51
f 41/1/42 47/1/59 40/1/40
f 40/1/40 39/1/38 41/1/42
f 39/1/38 38/1/36 41/1/42
f 38/1/36 46/1/53 45/1/51
f 49/14/61 50/14/62 51/14/63
f 50/14/62 52/14/64 53/14/65
f 52/14/64 54/14/66 53/14/65
f 55/14/67 56/14/68 54/14/66
f 57/14/69 58/14/70 56/14/68
f 58/14/70 59/14/71 60/14/72
f 59/14/71 61/14/73 60/14/72
f 61/14/73 62/14/74 63/14/75
f 62/14/74 64/14/76 63/14/75
f 65/14/77 66/14/78 64/14/76
f 67/14/79 68/14/80 66/14/78
f 68/14/80 49/14/61 51/14/63
f 69/14/81 70/14/82 49/14/81
f 71/14/82 52/14/83 70/14/82
f 72/14/83 55/14/84 52/14/83
f 73/14/84 57/14/85 55/14/84
f 74/14/85 75/14/86 57/14/85
f 76/14/86 59/14/87 75/14/86
f 77/14/87 78/14/88 59/14/87
f 79/14/88 62/14/89 78/14/88
f 80/14/89 65/14/90 62/14/89
f 81/14/90 67/14/91 65/14/90
f 82/14/91 83/14/92 67/14/91
f 84/14/92 49/14/81 83/14/92
f 85/14/93 71/14/94 69/14/95
f 86/14/96 72/14/97 71/14/94
f 87/14/98 73/14/99 72/14/97
f 88/14/100 74/14/101 73/14/99
f 74/14/101 89/14/102 76/14/103
f 89/14/102 77/14/104 76/14/103
f 90/14/105 79/14/106 77/14/104
f 91/14/107 80/14/108 79/14/106
f 92/14/109 81/14/110 80/14/108
f 93/14/111 82/14/112 81/14/110
f 82/14/112 94/14/113 84/14/114
f 94/14/113 69/14/95 84/14/114
f 53/14/65 60/14/72 66/14/78
f 93/15/111 89/16/102 86/17/96
f 49/14/61 70/14/115 50/14/62
f 50/14/62 70/14/115 52/14/64
f 52/14/64 55/14/67 54/14/66
f 55/14/67 57/14/69 56/14/68
f 57/14/69 75/14/116 58/14/70
f 58/14/70 75/14/116 59/14/71
f 59/14/71 78/14/117 61/14/73
f 61/14/73 78/14/117 62/14/74
f 62/14/74 65/14/77 64/14/76
f 65/14/77 67/14/79 66/14/78
f 67/14/79 83/14/118 68/14/80
f 68/14/80 83/14/118 49/14/61
f 69/14/81 71/14/82 70/14/82
f 71/14/82 72/14/83 52/14/83
f 72/14/83 73/14/84 55/14/84
f 73/14/84 74/14/85 57/14/85
f 74/14/85 76/14/86 75/14/86
f 76/14/86 77/14/87 59/14/87
f 77/14/87 79/14/88 78/14/88
f 79/14/88 80/14/89 62/14/89
f 80/14/89 81/14/90 65/14/90
f 81/14/90 82/14/91 67/14/91
f 82/14/91 84/14/92 83/14/92
f 84/14/92 69/14/81 49/14/81
f 85/14/93 86/14/96 71/14/94
f 86/14/96 87/14/98 72/14/97
f 87/14/98 88/14/100 73/14/99
f 88/14/100 95/14/119 74/14/101
f 74/14/101 95/14/119 89/14/102
f 89/14/102 90/14/105 77/14/104
f 90/14/105 91/14/107 79/14/106
f 91/14/107 92/14/109 80/14/108
f 92/14/109 93/14/111 81/14/110
f 93/14/111 96/14/120 82/14/112
f 82/14/112 96/14/120 94/14/113
f 94/14/113 85/14/93 69/14/95
f 66/14/78 68/14/80 51/14/63
f 51/14/63 50/14/62 66/14/78
f 50/14/62 53/14/65 66/14/78
f 53/14/65 54/14/66 56/14/68
f 56/14/68 58/14/70 60/14/72
f 60/14/72 61/14/73 63/14/75
f 63/14/75 64/14/76 60/14/72
f 64/14/76 66/14/78 60/14/72
f 53/14/65 56/14/68 60/14/72
f 86/17/96 85/18/93 94/19/113
f 94/19/113 96/20/120 93/15/111
f 93/15/111 92/21/109 91/22/107
f 91/22/107 90/23/105 93/15/111
f 90/23/105 89/16/102 93/15/111
f 89/16/102 95/24/119 88/25/100
f 88/25/100 87/26/98 89/16/102
f 87/26/98 86/17/96 89/16/102
f 86/17/96 94/19/113 93/15/111
