# PSX Racing car model — generated by tools/carmodels/export_models.mjs
mtllib citroen_cx.mtl
v 0.821922 0.838118 1.810328
v 0.756069 0.881628 1.808153
v 0.772725 0.785087 2.134548
v 0.807840 0.792385 1.953309
v 0.907756 0.627380 1.694049
v 0.863326 0.694995 1.730804
v 0.884811 0.627380 1.793921
v 0.890866 0.627380 -0.238864
v 0.821922 0.909986 -0.238311
v 0.817867 0.889962 0.649828
v 0.890866 0.627380 1.053816
v 0.907756 0.631407 -1.159347
v 0.870389 0.697340 -1.148060
v 0.890866 0.630887 -1.041052
v 0.817948 0.920584 -1.107419
v 0.564820 1.316262 -0.979612
v 0.530067 1.352515 -0.278421
v 0.485658 0.616909 -1.579528
v 0.485658 0.631407 -1.159347
v 0.485658 0.222174 -1.342347
v 0.792908 0.946404 -1.589144
v 0.657705 1.130369 -1.594882
v 0.561790 1.323718 0.141185
v 0.836267 0.616909 -2.255930
v 0.728125 0.914208 -2.250604
v 0.863289 0.696026 -1.582390
v 0.898963 0.616909 -1.697639
v 0.907756 0.720109 1.443642
v 0.839647 0.803122 1.443089
v 0.373778 0.941379 1.472159
v 0.000000 0.951692 1.478998
v 0.000000 0.905208 1.846050
v 0.378034 0.893367 1.834491
v 0.394856 0.934788 -2.264105
v 0.000000 0.933424 -2.270145
v 0.000000 1.162980 -1.604235
v 0.328852 1.146507 -1.598194
v 0.907756 0.616909 -1.579528
v 0.821922 0.859225 1.443642
v 0.747556 0.930863 1.446738
v 0.276661 1.366559 -0.278421
v 0.000000 1.380604 -0.278421
v 0.000000 1.348684 0.195966
v 0.287537 1.335957 0.168039
v 0.288960 1.321791 -0.979612
v 0.000000 1.337197 -0.979612
v 0.409898 0.627380 2.262213
v 0.405332 0.715519 2.263618
v 0.000000 0.715519 2.271448
v 0.000000 0.627380 2.270042
v 0.000000 0.787795 2.215027
v 0.399610 0.786696 2.200656
v 0.000000 0.504256 2.266516
v 0.406201 0.504256 2.258687
v 0.410455 0.502574 2.308437
v 0.000000 0.502574 2.316266
v 0.292060 1.302973 0.412403
v 0.000000 1.309075 0.431171
v 0.000000 0.979517 0.953138
v 0.364300 0.974335 0.906555
v 0.900363 0.486665 1.120675
v 0.907756 0.627380 1.190291
v 0.485658 0.627380 1.190291
v 0.485658 0.486665 1.120675
v 0.485658 0.720109 1.443642
v 0.900363 0.489439 -1.032825
v 0.883472 0.489213 -0.968588
v 0.883472 0.486665 -0.238864
v 0.883472 0.486665 0.997498
v 0.733022 0.625698 2.266484
v 0.726450 0.502574 2.262958
v 0.818925 0.501335 2.195484
v 0.826319 0.624458 2.199010
v 0.485658 0.627380 1.694049
v 0.728600 0.944746 0.715686
v 0.900363 0.498209 1.768261
v 0.867109 0.212342 1.809775
v 0.485658 0.212342 1.810328
v 0.485658 0.498209 1.768261
v 0.900363 0.502706 -1.660632
v 0.485658 0.502706 -1.660632
v 0.884000 0.175251 -0.967531
v 0.485658 0.175251 -0.967531
v 0.485658 0.489439 -1.032825
v 0.486355 0.175251 -0.238311
v 0.867109 0.175251 -0.238864
v 0.867109 0.175251 0.982424
v 0.485658 0.175251 1.076956
v 0.867109 0.175251 -0.908795
v 0.868293 0.499011 1.823468
v 0.847499 0.216248 1.854268
v 0.000000 0.175251 -0.238311
v 0.000000 0.175251 -0.967531
v 0.000000 0.269097 -1.717163
v 0.000000 0.175251 1.076956
v 0.000000 0.231771 2.108952
v 0.000000 0.502706 -2.260064
v 0.450181 0.502706 -2.260952
v 0.442000 0.370219 -2.219664
v 0.000000 0.370219 -2.219664
v 0.453878 0.616909 -2.268967
v 0.828873 0.502706 -2.244021
v 0.812510 0.349226 -2.194114
v 0.000000 0.616909 -2.267677
v 0.571020 1.296871 0.232490
v 0.000000 0.625698 2.319792
v 0.414152 0.625698 2.311963
v 0.784171 0.715519 2.193626
v 0.793302 0.627380 2.192221
v 0.769546 0.231771 2.031130
v 0.398020 0.231771 2.101122
v 0.485658 0.269097 -1.717163
v 0.884000 0.269097 -1.717163
v 0.884000 0.175251 1.076956
v 0.786825 0.917595 0.536320
v 0.786825 1.017595 0.536320
v 0.746710 1.017595 0.480556
v 0.746710 0.917595 0.480556
v 0.973175 1.017595 0.456320
v 0.973175 0.917595 0.456320
v 0.973175 1.017595 0.476984
v 0.973175 0.917595 0.476984
v 0.785909 0.504256 2.188695
v 0.451320 0.497846 -2.322669
v 0.796600 0.497846 -2.321339
v 0.455017 0.612049 -2.330683
v 0.000000 0.612049 -2.329393
v 0.803994 0.612049 -2.333249
v 0.826701 0.610478 -2.337920
v 0.819308 0.496275 -2.326010
v 0.000000 0.497846 -2.321780
v 0.851581 0.501135 -2.248692
v 0.899951 0.502138 -1.750285
v 0.858974 0.615338 -2.260601
v 0.907341 0.616335 -1.698210
v 0.903029 0.626140 1.795662
v 0.899887 0.497513 1.824431
v 0.867054 0.501303 2.072701
v 0.874448 0.626140 2.054192
v -0.821922 0.838118 1.810328
v -0.807840 0.792385 1.953309
v -0.772725 0.785087 2.134548
v -0.756069 0.881628 1.808153
v -0.907756 0.627380 1.694049
v -0.884811 0.627380 1.793921
v -0.863326 0.694995 1.730804
v -0.890866 0.627380 -0.238864
v -0.890866 0.627380 1.053816
v -0.817867 0.889962 0.649828
v -0.821922 0.909986 -0.238311
v -0.907756 0.631407 -1.159347
v -0.890866 0.630887 -1.041052
v -0.870389 0.697340 -1.148060
v -0.817948 0.920584 -1.107419
v -0.530067 1.352515 -0.278421
v -0.564820 1.316262 -0.979612
v -0.485658 0.616909 -1.579528
v -0.485658 0.222174 -1.342347
v -0.485658 0.631407 -1.159347
v -0.792908 0.946404 -1.589144
v -0.657705 1.130369 -1.594882
v -0.561790 1.323718 0.141185
v -0.836267 0.616909 -2.255930
v -0.898963 0.616909 -1.697639
v -0.863289 0.696026 -1.582390
v -0.728125 0.914208 -2.250604
v -0.907756 0.720109 1.443642
v -0.839647 0.803122 1.443089
v -0.373778 0.941379 1.472159
v -0.378034 0.893367 1.834491
v -0.394856 0.934788 -2.264105
v -0.328852 1.146507 -1.598194
v -0.907756 0.616909 -1.579528
v -0.821922 0.859225 1.443642
v -0.747556 0.930863 1.446738
v -0.276661 1.366559 -0.278421
v -0.287537 1.335957 0.168039
v -0.288960 1.321791 -0.979612
v -0.409898 0.627380 2.262213
v -0.405332 0.715519 2.263618
v -0.399610 0.786696 2.200656
v -0.410455 0.502574 2.308437
v -0.406201 0.504256 2.258687
v -0.292060 1.302973 0.412403
v -0.364300 0.974335 0.906555
v -0.900363 0.486665 1.120675
v -0.485658 0.486665 1.120675
v -0.485658 0.627380 1.190291
v -0.907756 0.627380 1.190291
v -0.485658 0.720109 1.443642
v -0.900363 0.489439 -1.032825
v -0.883472 0.489213 -0.968588
v -0.883472 0.486665 -0.238864
v -0.883472 0.486665 0.997498
v -0.733022 0.625698 2.266484
v -0.826319 0.624458 2.199010
v -0.818925 0.501335 2.195484
v -0.726450 0.502574 2.262958
v -0.485658 0.627380 1.694049
v -0.728600 0.944746 0.715686
v -0.900363 0.498209 1.768261
v -0.485658 0.498209 1.768261
v -0.485658 0.212342 1.810328
v -0.867109 0.212342 1.809775
v -0.900363 0.502706 -1.660632
v -0.485658 0.502706 -1.660632
v -0.485658 0.489439 -1.032825
v -0.485658 0.175251 -0.967531
v -0.884000 0.175251 -0.967531
v -0.486355 0.175251 -0.238311
v -0.485658 0.175251 1.076956
v -0.867109 0.175251 0.982424
v -0.867109 0.175251 -0.238864
v -0.867109 0.175251 -0.908795
v -0.868293 0.499011 1.823468
v -0.847499 0.216248 1.854268
v -0.442000 0.370219 -2.219664
v -0.450181 0.502706 -2.260952
v -0.453878 0.616909 -2.268967
v -0.812510 0.349226 -2.194114
v -0.828873 0.502706 -2.244021
v -0.571020 1.296871 0.232490
v -0.414152 0.625698 2.311963
v -0.784171 0.715519 2.193626
v -0.793302 0.627380 2.192221
v -0.769546 0.231771 2.031130
v -0.398020 0.231771 2.101122
v -0.485658 0.269097 -1.717163
v -0.884000 0.269097 -1.717163
v -0.884000 0.175251 1.076956
v -0.786825 0.917595 0.536320
v -0.746710 0.917595 0.480556
v -0.746710 1.017595 0.480556
v -0.786825 1.017595 0.536320
v -0.973175 0.917595 0.456320
v -0.973175 1.017595 0.456320
v -0.973175 0.917595 0.476984
v -0.973175 1.017595 0.476984
v -0.785909 0.504256 2.188695
v -0.796600 0.497846 -2.321339
v -0.451320 0.497846 -2.322669
v -0.455017 0.612049 -2.330683
v -0.819308 0.496275 -2.326010
v -0.826701 0.610478 -2.337920
v -0.803994 0.612049 -2.333249
v -0.899951 0.502138 -1.750285
v -0.851581 0.501135 -2.248692
v -0.858974 0.615338 -2.260601
v -0.907341 0.616335 -1.698210
v -0.899887 0.497513 1.824431
v -0.903029 0.626140 1.795662
v -0.867054 0.501303 2.072701
v -0.874448 0.626140 2.054192
vt 0.080142 0.014733
vt 0.084797 0.015327
vt 0.078017 0.034410
vt 0.077990 0.023431
vt 0.134304 0.308823
vt 0.126060 0.323421
vt 0.112592 0.308823
vt 0.551270 0.308823
vt 0.550664 0.369836
vt 0.358992 0.365513
vt 0.272335 0.308823
vt 0.750012 0.309692
vt 0.747312 0.323927
vt 0.724367 0.309580
vt 0.738173 0.372124
vt 0.708806 0.457550
vt 0.557257 0.465377
vt 0.743202 0.625642
vt 0.710261 0.630926
vt 0.720636 0.596900
vt 0.841942 0.377699
vt 0.842225 0.417416
vt 0.466938 0.459159
vt 0.986128 0.306562
vt 0.992147 0.370748
vt 0.840982 0.323643
vt 0.866103 0.306562
vt 0.188337 0.328843
vt 0.187976 0.346765
vt 0.198575 0.123927
vt 0.197151 0.201747
vt 0.120732 0.201747
vt 0.123138 0.123041
vt 0.976563 0.126163
vt 0.977821 0.201747
vt 0.839070 0.201747
vt 0.837812 0.133281
vt 0.840679 0.306562
vt 0.202675 0.031129
vt 0.202039 0.046414
vt 0.127755 0.044664
vt 0.127308 0.031129
vt 0.563040 0.144147
vt 0.563040 0.201747
vt 0.464274 0.201747
vt 0.470088 0.141883
vt 0.709026 0.141586
vt 0.709026 0.201747
vt 0.302893 0.697189
vt 0.301635 0.721478
vt 0.189935 0.721478
vt 0.189935 0.697189
vt 0.043912 0.201747
vt 0.046904 0.118549
vt 0.300058 0.741092
vt 0.189935 0.741395
vt 0.777182 0.625848
vt 0.884305 0.634369
vt 0.884128 0.647583
vt 0.775885 0.638950
vt 0.419213 0.140941
vt 0.415305 0.201747
vt 0.306633 0.201747
vt 0.313183 0.125901
vt 0.922402 0.746864
vt 0.909945 0.747450
vt 0.909945 0.713957
vt 0.922402 0.713957
vt 0.888537 0.747450
vt 0.888537 0.713957
vt 0.722659 0.279042
vt 0.708678 0.278993
vt 0.551218 0.278443
vt 0.284435 0.278443
vt 0.914714 0.861039
vt 0.913213 0.828447
vt 0.943479 0.827519
vt 0.945156 0.860114
vt 0.867348 0.747450
vt 0.867348 0.713957
vt 0.365832 0.031962
vt 0.352296 0.050310
vt 0.243005 0.308823
vt 0.855527 0.746864
vt 0.832600 0.745565
vt 0.832600 0.713957
vt 0.855527 0.713957
vt 0.805103 0.746864
vt 0.793988 0.747450
vt 0.793988 0.713957
vt 0.805103 0.713957
vt 0.744327 0.746864
vt 0.718863 0.745565
vt 0.718863 0.713957
vt 0.744327 0.713957
vt 0.587480 0.609983
vt 0.593561 0.599111
vt 0.633484 0.601130
vt 0.638847 0.611664
vt 0.614011 0.592777
vt 0.769536 0.551720
vt 0.769536 0.583273
vt 0.692060 0.583273
vt 0.665169 0.551665
vt 0.827400 0.551665
vt 0.827400 0.583273
vt 0.822696 0.583273
vt 0.106099 0.281108
vt 0.099307 0.220061
vt 0.109046 0.219218
vt 0.118239 0.280935
vt 0.769536 0.513127
vt 0.827400 0.513127
vt 0.857374 0.551665
vt 0.857374 0.513127
vt 0.665169 0.513127
vt 0.606901 0.551665
vt 0.606901 0.513127
vt 0.702919 0.741622
vt 0.582722 0.741622
vt 0.584907 0.706248
vt 0.702919 0.706248
vt 0.589265 0.856986
vt 0.500283 0.851491
vt 0.479639 0.772113
vt 0.581735 0.772113
vt 0.481613 0.741622
vt 0.485982 0.700643
vt 0.694690 0.856622
vt 0.702919 0.772113
vt 0.335286 0.050055
vt 0.203867 0.046108
vt 0.456670 0.082862
vt 0.871711 0.500561
vt 0.763607 0.509081
vt 0.762322 0.495977
vt 0.871546 0.487348
vt 0.406034 0.721478
vt 0.402880 0.740649
vt 0.128622 0.044336
vt 0.060667 0.040868
vt 0.408550 0.697189
vt 0.709026 0.084153
vt 0.563040 0.091389
vt 0.475679 0.084784
vt 0.759416 0.747450
vt 0.759416 0.713957
vt 0.975243 0.050580
vt 0.837123 0.064815
vt 0.589316 0.574194
vt 0.583775 0.544710
vt 0.603370 0.581448
vt 0.928022 0.548200
vt 0.887349 0.551665
vt 0.887349 0.513127
vt 0.928022 0.513127
vt 0.887327 0.583273
vt 0.892293 0.582543
vt 0.672626 0.583273
vt 0.665169 0.583273
vt 0.447302 0.453363
vt 0.344151 0.377341
vt 0.698900 0.620995
vt 0.690662 0.596900
vt 0.645623 0.964244
vt 0.672073 0.964244
vt 0.672073 0.982413
vt 0.645623 0.982413
vt 0.669712 0.403298
vt 0.669712 0.429749
vt 0.609469 0.429748
vt 0.609469 0.403298
vt 0.742720 0.971912
vt 0.716269 0.971912
vt 0.716269 0.966446
vt 0.742720 0.966446
vt 0.718613 0.935745
vt 0.718613 0.909295
vt 0.770342 0.909295
vt 0.770342 0.935745
vt 0.776748 0.901229
vt 0.716506 0.901229
vt 0.717087 0.895794
vt 0.767768 0.885433
vt 0.729133 0.948602
vt 0.789376 0.948602
vt 0.780395 0.964397
vt 0.729715 0.954036
vt 0.402004 0.588168
vt 0.406513 0.663259
vt 0.301874 0.663259
vt 0.299620 0.588168
vt 0.720661 0.876105
vt 0.820893 0.878637
vt 0.820908 0.895015
vt 0.729591 0.896427
vt 0.754742 0.603230
vt 0.874777 0.605253
vt 0.874849 0.621630
vt 0.754513 0.619603
vt 0.026709 0.282241
vt 0.060592 0.223412
vt 0.582767 0.634487
vt 0.641035 0.634487
vt 0.824175 0.745565
vt 0.824175 0.713957
vt 0.606906 0.583273
vt 0.551102 0.211210
vt 0.287572 0.211210
vt 0.708454 0.211210
vt 0.695661 0.211210
vt 0.870210 0.231471
vt 0.972622 0.248770
vt 0.983506 0.281906
vt 0.858127 0.281906
vt 0.947356 0.745565
vt 0.947356 0.713957
vt 0.189935 0.663259
vt 0.189935 0.588168
vt 0.725272 0.674775
vt 0.723314 0.705146
vt 0.717175 0.704852
vt 0.719133 0.674481
vt 0.815622 0.705082
vt 0.816600 0.674800
vt 0.935975 0.705059
vt 0.935975 0.674785
vt 0.975959 0.603230
vt 0.967136 0.623600
vt 0.727560 0.802192
vt 0.792115 0.803745
vt 0.792610 0.809871
vt 0.751111 0.804972
vt 0.939941 0.876105
vt 0.940257 0.892476
vt 0.896136 0.790941
vt 0.893566 0.760616
vt 0.915708 0.759033
vt 0.918277 0.789358
vt 0.723602 0.897806
vt 0.714671 0.877483
vt 0.715161 0.788914
vt 0.737152 0.759033
vt 0.760864 0.759301
vt 0.746550 0.789318
vt 0.889225 0.593105
vt 0.942826 0.591447
vt 0.942909 0.593672
vt 0.888628 0.599222
vt 0.981955 0.604577
vt 0.973132 0.624947
vt 0.828770 0.828223
vt 0.829519 0.860809
vt 0.719958 0.860098
vt 0.720187 0.827519
vt 0.986074 0.625848
vt 0.968488 0.643850
vt 0.974445 0.509081
vt 0.956659 0.491083
vt 0.994610 0.628536
vt 0.733283 0.985779
vt 0.713558 0.951612
vt 0.735123 0.951612
vt 0.742780 0.985639
vt 0.809020 0.984659
vt 0.803921 0.951612
vt 0.844283 0.952258
vt 0.843902 0.984894
vt 0.720681 0.495820
vt 0.693577 0.495820
vt 0.694209 0.490997
vt 0.585481 0.495820
vt 0.585681 0.486873
vt 0.625869 0.483073
vt 0.750610 0.596900
vt 0.748462 0.615851
vt 0.786005 0.919906
vt 0.885982 0.919906
vt 0.886904 0.923715
vt 0.821251 0.932567
vt 0.982984 0.506400
vt 0.786568 0.928837
vt 0.187731 0.358877
vt 0.108607 0.354320
vt 0.257975 0.278443
vt 0.267293 0.211210
vt 0.896316 0.922446
vt 0.077655 0.344447
vt 0.802650 0.759772
vt 0.801110 0.790020
vt 0.974138 0.590479
vt 0.073809 0.037898
vt 0.025632 0.327852
vt 0.026000 0.308823
vn 0.647900 0.730000 0.217700
vn 0.865100 0.460400 0.198800
vn 0.967000 0.254800 0.004100
vn 0.872100 0.472600 0.126600
vn 0.838700 0.544500 0.007500
vn 1.000000 0.000000 0.000000
vn 0.827400 0.560800 -0.030700
vn 0.847400 0.531000 0.001900
vn 0.937900 0.334700 -0.091600
vn 0.802700 0.586600 -0.107200
vn 0.808500 0.562200 0.174300
vn 0.032300 0.991200 0.128200
vn 0.025000 0.949300 -0.313300
vn 0.870400 0.492000 -0.016300
vn 0.633500 0.770900 0.067100
vn 0.050600 0.996500 0.067100
vn 0.051900 0.996700 -0.062200
vn 0.019200 -0.015400 0.999700
vn 0.025600 0.956400 0.290800
vn 0.022100 0.640000 0.768000
vn -0.000600 -0.999400 -0.033800
vn 0.068100 0.839600 0.539000
vn 0.000000 -0.443400 0.896300
vn 0.000000 -0.939100 0.343700
vn 0.980400 0.076400 0.181700
vn 0.998600 -0.052500 0.000000
vn 0.586300 -0.056400 0.808100
vn 0.000000 -0.937800 -0.347300
vn 0.615000 0.788400 0.013800
vn 0.025000 0.998200 0.055400
vn 0.813800 0.556500 -0.167600
vn -0.000700 -0.144600 -0.989500
vn 0.000000 -0.579000 0.815300
vn 0.052300 0.961800 -0.268700
vn 0.000000 -0.203500 -0.979100
vn 0.000000 -1.000000 0.000000
vn 0.887000 -0.025700 0.461000
vn 0.000000 -0.992300 -0.124200
vn -0.003700 -0.998600 0.053000
vn -0.001000 -0.294600 -0.955600
vn 0.037800 0.026800 -0.998900
vn 0.045300 -0.307000 -0.950600
vn 0.005600 0.004300 -1.000000
vn 0.064300 0.997300 0.034600
vn 0.326000 0.810000 0.487500
vn 0.000600 0.999400 0.033800
vn 0.135400 0.658500 0.740300
vn 0.051300 0.959000 0.278600
vn 0.180600 -0.001600 0.983600
vn 0.036900 0.997700 -0.056400
vn 0.053000 0.996400 0.065700
vn 0.000000 -0.999400 0.034500
vn 0.060400 0.951500 -0.301800
vn 0.038400 0.990500 0.132400
vn 0.008100 -0.997000 0.077400
vn 0.001300 -0.997700 0.067100
vn 0.000000 -0.980300 -0.197300
vn -0.020900 -0.983500 -0.179500
vn 0.044100 0.987800 0.149100
vn 0.702400 0.670700 0.238500
vn 0.096400 0.980600 0.170800
vn -0.811800 0.000000 0.584000
vn -0.106400 0.000000 -0.994300
vn 0.303400 0.000000 0.952900
vn 0.000000 1.000000 0.000000
vn 0.158700 -0.499600 0.851600
vn -0.001800 -0.997500 0.070100
vn -0.000200 0.996900 -0.078500
vn 0.949600 -0.128800 0.285800
vn 0.000000 -0.665300 -0.746600
vn 0.000000 -0.235200 0.971900
vn 0.000000 -0.498200 -0.867100
vn 0.000100 -0.996200 0.087500
vn 0.964300 0.002500 0.264900
vn 0.986900 -0.081100 -0.139200
vn 0.000000 -0.139000 0.990300
vn 0.016900 -0.500700 0.865500
vn -0.206600 -0.088200 -0.974400
vn -0.001800 -0.086800 -0.996200
vn -0.002400 -0.068200 -0.997700
vn 0.001000 0.997500 -0.070000
vn -0.062500 -0.998000 0.007900
vn 0.000200 -0.996900 0.078500
vn 0.920500 -0.099000 -0.378000
vn -0.051600 -0.995100 0.084100
vn 0.998000 -0.062500 -0.003600
vn 0.067600 0.997700 -0.007600
vn 0.051600 0.995100 -0.084100
vn 0.019000 -0.028900 0.999400
vn 0.141700 -0.034200 0.989300
vn -0.004900 -0.999600 -0.029300
vn 0.004800 0.999600 0.029300
vn -0.071600 -0.994200 -0.079800
vn 0.999100 -0.027800 0.032600
vn 0.940400 -0.035700 0.338100
vn 0.066400 0.997700 0.015300
vn 0.080300 0.996000 0.038200
vn -0.030200 -0.999500 0.009000
vn 0.071400 0.994200 0.080500
vn -0.081600 -0.996200 -0.031700
vn 0.960600 0.277100 0.020000
vn 0.960400 0.278600 0.004100
vn 0.991600 0.005600 -0.129000
vn 0.033300 0.999400 0.006100
vn 0.987500 -0.037400 -0.153200
vn -0.047000 -0.998800 -0.012800
vn 0.954100 0.275600 0.117300
vn 0.970700 0.240300 -0.002400
vn 0.994700 -0.048400 -0.090600
vn 0.068000 0.997700 -0.005100
vn 0.998600 -0.052300 -0.000100
vn 0.967100 0.252700 -0.027200
vn 0.998600 -0.052300 -0.000200
vn 0.870900 0.487100 -0.064800
vn 0.992500 -0.018800 0.120400
vn 0.035900 0.960100 -0.277200
vn 0.928800 0.316500 0.192700
vn 0.959500 0.201100 0.197300
vn -0.647900 0.730000 0.217700
vn -0.865100 0.460400 0.198800
vn -0.967000 0.254800 0.004100
vn -0.872100 0.472600 0.126600
vn -0.838700 0.544500 0.007500
vn -1.000000 0.000000 0.000000
vn -0.827400 0.560800 -0.030700
vn -0.847400 0.531000 0.001900
vn -0.937900 0.334700 -0.091600
vn -0.802700 0.586600 -0.107200
vn -0.808500 0.562200 0.174300
vn -0.032300 0.991200 0.128200
vn -0.025000 0.949300 -0.313300
vn -0.870400 0.492000 -0.016300
vn -0.633500 0.770900 0.067100
vn -0.050600 0.996500 0.067100
vn -0.051900 0.996700 -0.062200
vn -0.019200 -0.015400 0.999700
vn -0.025600 0.956400 0.290800
vn -0.022100 0.640000 0.768000
vn 0.000600 -0.999400 -0.033800
vn -0.068100 0.839600 0.539000
vn -0.980400 0.076400 0.181700
vn -0.998600 -0.052500 0.000000
vn -0.586300 -0.056400 0.808100
vn -0.615000 0.788400 0.013800
vn -0.025000 0.998200 0.055400
vn -0.813800 0.556500 -0.167600
vn 0.000700 -0.144600 -0.989500
vn -0.052300 0.961800 -0.268700
vn -0.887000 -0.025700 0.461000
vn 0.003700 -0.998600 0.053000
vn 0.001000 -0.294600 -0.955600
vn -0.037800 0.026800 -0.998900
vn -0.045300 -0.307000 -0.950600
vn -0.005600 0.004300 -1.000000
vn -0.064300 0.997300 0.034600
vn -0.326000 0.810000 0.487500
vn -0.000600 0.999400 0.033800
vn -0.135400 0.658500 0.740300
vn -0.051300 0.959000 0.278600
vn -0.180600 -0.001600 0.983600
vn -0.036900 0.997700 -0.056400
vn -0.053000 0.996400 0.065700
vn -0.060400 0.951500 -0.301800
vn -0.038400 0.990500 0.132400
vn -0.008100 -0.997000 0.077400
vn -0.001300 -0.997700 0.067100
vn 0.020900 -0.983500 -0.179500
vn -0.044100 0.987800 0.149100
vn -0.702400 0.670700 0.238500
vn -0.096400 0.980600 0.170800
vn 0.811800 0.000000 0.584000
vn 0.106400 0.000000 -0.994300
vn -0.303400 0.000000 0.952900
vn -0.158700 -0.499600 0.851600
vn 0.001800 -0.997500 0.070100
vn 0.000200 0.996900 -0.078500
vn -0.949600 -0.128800 0.285800
vn -0.000100 -0.996200 0.087500
vn -0.964300 0.002500 0.264900
vn -0.986900 -0.081100 -0.139200
vn -0.016900 -0.500700 0.865500
vn 0.206600 -0.088200 -0.974400
vn 0.001800 -0.086800 -0.996200
vn 0.002400 -0.068200 -0.997700
vn -0.001000 0.997500 -0.070000
vn 0.062500 -0.998000 0.007900
vn -0.000200 -0.996900 0.078500
vn -0.920500 -0.099000 -0.378000
vn 0.051600 -0.995100 0.084100
vn -0.998000 -0.062500 -0.003600
vn -0.067600 0.997700 -0.007600
vn -0.051600 0.995100 -0.084100
vn -0.019000 -0.028900 0.999400
vn -0.141700 -0.034200 0.989300
vn 0.004900 -0.999600 -0.029300
vn -0.004800 0.999600 0.029300
vn 0.071600 -0.994200 -0.079800
vn -0.999100 -0.027800 0.032600
vn -0.940400 -0.035700 0.338100
vn -0.066400 0.997700 0.015300
vn -0.080300 0.996000 0.038200
vn 0.030200 -0.999500 0.009000
vn -0.071400 0.994200 0.080500
vn 0.081600 -0.996200 -0.031700
vn -0.960600 0.277100 0.020000
vn -0.960400 0.278600 0.004100
vn -0.991600 0.005600 -0.129000
vn -0.033300 0.999400 0.006100
vn -0.987500 -0.037400 -0.153200
vn 0.047000 -0.998800 -0.012800
vn -0.954100 0.275600 0.117300
vn -0.970700 0.240300 -0.002400
vn -0.994700 -0.048400 -0.090600
vn -0.068000 0.997700 -0.005100
vn -0.998600 -0.052300 -0.000100
vn -0.967200 0.252700 -0.027200
vn -0.998600 -0.052300 -0.000200
vn -0.870900 0.487100 -0.064800
vn -0.992500 -0.018800 0.120400
vn -0.035900 0.960100 -0.277200
vn -0.928800 0.316500 0.192700
vn -0.959500 0.201100 0.197300
o citroen_cx
usemtl citroen_cx
f 1/1/1 2/2/1 3/3/1 4/4/1
f 5/5/2 6/6/2 7/7/2
f 8/8/3 9/9/3 10/10/3 11/11/3
f 12/12/4 13/13/4 14/14/4
f 15/15/5 16/16/5 17/17/5 9/9/5
f 18/18/6 19/19/6 20/20/6
f 21/21/7 22/22/7 16/16/7 15/15/7
f 9/9/8 17/17/8 23/23/8 10/10/8
f 24/24/9 25/25/9 21/21/9 26/26/9 27/27/9
f 25/25/10 22/22/10 21/21/10
f 28/28/11 29/29/11 6/6/11 5/5/11
f 30/30/12 31/31/12 32/32/12 33/33/12
f 34/34/13 35/35/13 36/36/13 37/37/13
f 38/38/14 26/26/14 13/13/14 12/12/14
f 39/39/15 40/40/15 2/41/15 1/42/15
f 41/43/16 42/44/16 43/45/16 44/46/16
f 45/47/17 46/48/17 42/44/17 41/43/17
f 47/49/18 48/50/18 49/51/18 50/52/18
f 33/33/19 32/32/19 51/53/19 52/54/19
f 48/50/20 52/55/20 51/56/20 49/51/20
f 53/57/21 54/58/21 55/59/21 56/60/21
f 57/61/22 58/62/22 59/63/22 60/64/22
f 61/65/23 62/66/23 63/67/23 64/68/23
f 62/66/24 28/69/24 65/70/24 63/67/24
f 66/71/25 12/12/25 14/14/25 67/72/25
f 68/73/26 8/8/26 11/11/26 69/74/26
f 70/75/27 71/76/27 72/77/27 73/78/27
f 28/69/28 5/79/28 74/80/28 65/70/28
f 10/81/29 75/82/29 40/40/29 39/39/29
f 60/64/30 59/63/30 31/31/30 30/30/30
f 62/83/31 11/11/31 29/29/31 28/28/31
f 76/84/32 77/85/32 78/86/32 79/87/32
f 80/88/33 38/89/33 18/90/33 81/91/33
f 37/37/34 36/36/34 46/48/34 45/47/34
f 66/92/35 82/93/35 83/94/35 84/95/35
f 64/96/6 63/97/6 74/98/6 79/99/6
f 65/100/6 74/98/6 63/97/6
f 85/101/36 86/102/36 87/103/36 88/104/36
f 86/102/36 85/101/36 83/105/36 82/106/36 89/107/36
f 90/108/37 91/109/37 77/110/37 76/111/37
f 83/105/36 85/101/36 92/112/36 93/113/36
f 20/114/38 83/105/38 93/113/38 94/115/38
f 85/101/36 88/104/36 95/116/36 92/112/36
f 88/104/39 78/117/39 96/118/39 95/116/39
f 97/119/40 98/120/40 99/121/40 100/122/40
f 34/123/41 25/124/41 24/125/41 101/126/41
f 98/120/42 102/127/42 103/128/42 99/121/42
f 35/129/43 34/123/43 101/126/43 104/130/43
f 75/131/44 60/64/44 30/30/44 40/132/44
f 105/133/45 57/61/45 60/64/45 75/131/45
f 47/134/46 50/135/46 106/136/46 107/137/46
f 108/138/47 3/139/47 52/55/47 48/50/47
f 2/140/48 33/33/48 52/54/48 3/141/48
f 109/142/49 108/138/49 48/50/49 47/49/49
f 16/143/50 45/47/50 41/43/50 17/144/50
f 17/144/51 41/43/51 44/46/51 23/145/51
f 38/89/52 12/146/52 19/147/52 18/90/52
f 25/148/53 34/34/53 37/37/53 22/149/53
f 40/132/54 30/30/54 33/33/54 2/140/54
f 110/150/55 111/151/55 78/117/55 91/152/55
f 96/118/56 78/117/56 111/151/56
f 99/153/57 112/154/57 94/155/57 100/156/57
f 113/157/58 112/154/58 99/153/58 103/158/58
f 88/104/36 87/159/36 114/160/36
f 44/46/59 43/45/59 58/62/59 57/61/59
f 10/10/60 23/23/60 105/161/60 75/162/60
f 23/145/61 44/46/61 57/61/61 105/133/61
f 112/154/38 20/114/38 94/155/38
f 84/163/6 83/164/6 20/20/6 19/19/6
f 115/165/62 116/166/62 117/167/62 118/168/62
f 118/169/63 117/170/63 119/171/63 120/172/63
f 120/173/6 119/174/6 121/175/6 122/176/6
f 122/177/64 121/178/64 116/179/64 115/180/64
f 118/181/36 120/182/36 122/183/36 115/184/36
f 119/185/65 117/186/65 116/187/65 121/188/65
f 110/189/66 123/190/66 54/191/66 111/192/66
f 102/193/67 98/194/67 124/195/67 125/196/67
f 104/197/68 101/198/68 126/199/68 127/200/68
f 91/109/69 90/108/69 123/201/69 110/202/69
f 88/203/6 64/96/6 79/99/6 78/204/6
f 12/146/70 66/92/70 84/95/70 19/147/70
f 113/205/71 80/88/71 81/91/71 112/206/71
f 5/79/72 76/84/72 79/87/72 74/80/72
f 91/152/73 78/117/73 77/207/73
f 86/208/26 68/73/26 69/74/26 87/209/26
f 82/210/74 66/71/74 67/72/74 89/211/74
f 113/212/75 103/213/75 102/214/75 80/215/75
f 114/216/76 61/65/76 64/68/76 88/217/76
f 111/192/77 54/191/77 53/218/77 96/219/77
f 125/220/78 128/221/78 129/222/78 130/223/78
f 126/224/79 128/221/79 125/220/79 124/225/79
f 127/226/80 126/224/80 124/225/80 131/227/80
f 101/198/81 24/228/81 128/229/81 126/199/81
f 80/230/82 102/231/82 132/232/82 133/233/82
f 98/194/83 97/234/83 131/235/83 124/195/83
f 134/236/84 132/237/84 130/238/84 129/239/84
f 102/193/85 125/196/85 130/240/85 132/241/85
f 38/242/86 80/243/86 133/244/86 135/245/86
f 24/246/87 27/247/87 135/248/87 134/249/87
f 128/229/88 24/228/88 134/250/88 129/251/88
f 55/252/89 107/253/89 106/254/89 56/255/89
f 71/76/90 70/75/90 107/253/90 55/252/90
f 54/58/91 123/256/91 71/257/91 55/59/91
f 109/258/92 47/134/92 107/137/92 70/259/92
f 71/257/93 123/256/93 72/260/93
f 76/261/94 5/262/94 136/263/94 137/264/94
f 138/265/95 139/266/95 73/267/95 72/268/95
f 5/269/96 7/270/96 136/271/96
f 109/272/97 73/273/97 139/274/97
f 112/275/6 81/276/6 18/18/6 20/20/6
f 123/277/98 90/278/98 137/279/98 138/280/98
f 73/281/99 109/258/99 70/259/99
f 72/282/100 123/277/100 138/280/100
f 6/6/101 29/29/101 39/283/101 1/284/101
f 29/29/102 11/11/102 10/10/102 39/283/102
f 69/74/103 11/11/103 62/83/103 61/285/103
f 136/271/104 7/270/104 109/272/104 139/274/104
f 87/209/105 69/74/105 61/285/105 114/286/105
f 137/279/106 90/278/106 76/287/106
f 7/7/107 6/6/107 1/284/107 4/288/107
f 14/14/108 13/13/108 15/15/108 9/9/108 8/8/108
f 135/245/109 133/244/109 132/289/109 134/290/109
f 135/248/110 27/247/110 38/291/110
f 89/211/111 67/72/111 68/73/111 86/208/111
f 13/13/112 26/26/112 21/21/112 15/15/112
f 67/72/113 14/14/113 8/8/113 68/73/113
f 27/27/114 26/26/114 38/38/114
f 137/264/115 136/263/115 139/266/115 138/265/115
f 22/149/116 37/37/116 45/47/116 16/143/116
f 4/4/117 3/3/117 108/292/117
f 4/288/118 108/293/118 109/294/118 7/7/118
f 140/1/119 141/4/119 142/3/119 143/2/119
f 144/5/120 145/7/120 146/6/120
f 147/8/121 148/11/121 149/10/121 150/9/121
f 151/12/122 152/14/122 153/13/122
f 154/15/123 150/9/123 155/17/123 156/16/123
f 157/18/124 158/20/124 159/19/124
f 160/21/125 154/15/125 156/16/125 161/22/125
f 150/9/126 149/10/126 162/23/126 155/17/126
f 163/24/127 164/27/127 165/26/127 160/21/127 166/25/127
f 166/25/128 160/21/128 161/22/128
f 167/28/129 144/5/129 146/6/129 168/29/129
f 169/30/130 170/33/130 32/32/130 31/31/130
f 171/34/131 172/37/131 36/36/131 35/35/131
f 173/38/132 151/12/132 153/13/132 165/26/132
f 174/39/133 140/42/133 143/41/133 175/40/133
f 176/43/134 177/46/134 43/45/134 42/44/134
f 178/47/135 176/43/135 42/44/135 46/48/135
f 179/49/136 50/52/136 49/51/136 180/50/136
f 170/33/137 181/54/137 51/53/137 32/32/137
f 180/50/138 49/51/138 51/56/138 181/55/138
f 53/57/139 56/60/139 182/59/139 183/58/139
f 184/61/140 185/64/140 59/63/140 58/62/140
f 186/65/23 187/68/23 188/67/23 189/66/23
f 189/66/24 188/67/24 190/70/24 167/69/24
f 191/71/141 192/72/141 152/14/141 151/12/141
f 193/73/142 194/74/142 148/11/142 147/8/142
f 195/75/143 196/78/143 197/77/143 198/76/143
f 167/69/28 190/70/28 199/80/28 144/79/28
f 149/81/144 174/39/144 175/40/144 200/82/144
f 185/64/145 169/30/145 31/31/145 59/63/145
f 189/83/146 167/28/146 168/29/146 148/11/146
f 201/84/147 202/87/147 203/86/147 204/85/147
f 205/88/33 206/91/33 157/90/33 173/89/33
f 172/37/148 178/47/148 46/48/148 36/36/148
f 191/92/35 207/95/35 208/94/35 209/93/35
f 187/96/124 202/99/124 199/98/124 188/97/124
f 190/100/124 188/97/124 199/98/124
f 210/101/36 211/104/36 212/103/36 213/102/36
f 213/102/36 214/107/36 209/106/36 208/105/36 210/101/36
f 215/108/149 201/111/149 204/110/149 216/109/149
f 208/105/36 93/113/36 92/112/36 210/101/36
f 158/114/38 94/115/38 93/113/38 208/105/38
f 210/101/36 92/112/36 95/116/36 211/104/36
f 211/104/150 95/116/150 96/118/150 203/117/150
f 97/119/151 100/122/151 217/121/151 218/120/151
f 171/123/152 219/126/152 163/125/152 166/124/152
f 218/120/153 217/121/153 220/128/153 221/127/153
f 35/129/154 104/130/154 219/126/154 171/123/154
f 200/131/155 175/132/155 169/30/155 185/64/155
f 222/133/156 200/131/156 185/64/156 184/61/156
f 179/134/157 223/137/157 106/136/157 50/135/157
f 224/138/158 180/50/158 181/55/158 142/139/158
f 143/140/159 142/141/159 181/54/159 170/33/159
f 225/142/160 179/49/160 180/50/160 224/138/160
f 156/143/161 155/144/161 176/43/161 178/47/161
f 155/144/162 162/145/162 177/46/162 176/43/162
f 173/89/52 157/90/52 159/147/52 151/146/52
f 166/148/163 161/149/163 172/37/163 171/34/163
f 175/132/164 143/140/164 170/33/164 169/30/164
f 226/150/165 216/152/165 203/117/165 227/151/165
f 96/118/166 227/151/166 203/117/166
f 217/153/57 100/156/57 94/155/57 228/154/57
f 229/157/167 220/158/167 217/153/167 228/154/167
f 211/104/36 230/160/36 212/159/36
f 177/46/168 184/61/168 58/62/168 43/45/168
f 149/10/169 200/162/169 222/161/169 162/23/169
f 162/145/170 222/133/170 184/61/170 177/46/170
f 228/154/38 94/155/38 158/114/38
f 207/163/124 159/19/124 158/20/124 208/164/124
f 231/165/171 232/168/171 233/167/171 234/166/171
f 232/169/172 235/172/172 236/171/172 233/170/172
f 235/173/124 237/176/124 238/175/124 236/174/124
f 237/177/173 231/180/173 234/179/173 238/178/173
f 232/181/36 231/184/36 237/183/36 235/182/36
f 236/185/65 238/188/65 234/187/65 233/186/65
f 226/189/174 227/192/174 183/191/174 239/190/174
f 221/193/175 240/196/175 241/195/175 218/194/175
f 104/197/176 127/200/176 242/199/176 219/198/176
f 216/109/177 226/202/177 239/201/177 215/108/177
f 211/203/124 203/204/124 202/99/124 187/96/124
f 151/146/70 159/147/70 207/95/70 191/92/70
f 229/205/71 228/206/71 206/91/71 205/88/71
f 144/79/72 199/80/72 202/87/72 201/84/72
f 216/152/178 204/207/178 203/117/178
f 213/208/142 212/209/142 194/74/142 193/73/142
f 209/210/179 214/211/179 192/72/179 191/71/179
f 229/212/180 205/215/180 221/214/180 220/213/180
f 230/216/76 211/217/76 187/68/76 186/65/76
f 227/192/181 96/219/181 53/218/181 183/191/181
f 240/220/182 243/223/182 244/222/182 245/221/182
f 242/224/183 241/225/183 240/220/183 245/221/183
f 127/226/184 131/227/184 241/225/184 242/224/184
f 219/198/185 242/199/185 245/229/185 163/228/185
f 205/230/186 246/233/186 247/232/186 221/231/186
f 218/194/187 241/195/187 131/235/187 97/234/187
f 248/236/188 244/239/188 243/238/188 247/237/188
f 221/193/189 247/241/189 243/240/189 240/196/189
f 173/242/190 249/245/190 246/244/190 205/243/190
f 163/246/191 248/249/191 249/248/191 164/247/191
f 245/229/192 244/251/192 248/250/192 163/228/192
f 182/252/193 56/255/193 106/254/193 223/253/193
f 198/76/194 182/252/194 223/253/194 195/75/194
f 183/58/195 182/59/195 198/257/195 239/256/195
f 225/258/196 195/259/196 223/137/196 179/134/196
f 198/257/197 197/260/197 239/256/197
f 201/261/198 250/264/198 251/263/198 144/262/198
f 252/265/199 197/268/199 196/267/199 253/266/199
f 144/269/200 251/271/200 145/270/200
f 225/272/201 253/274/201 196/273/201
f 228/275/124 158/20/124 157/18/124 206/276/124
f 239/277/202 252/280/202 250/279/202 215/278/202
f 196/281/203 195/259/203 225/258/203
f 197/282/204 252/280/204 239/277/204
f 146/6/205 140/284/205 174/283/205 168/29/205
f 168/29/206 174/283/206 149/10/206 148/11/206
f 194/74/207 186/285/207 189/83/207 148/11/207
f 251/271/208 253/274/208 225/272/208 145/270/208
f 212/209/209 230/286/209 186/285/209 194/74/209
f 250/279/210 201/287/210 215/278/210
f 145/7/211 141/288/211 140/284/211 146/6/211
f 152/14/212 147/8/212 150/9/212 154/15/212 153/13/212
f 249/245/213 248/290/213 247/289/213 246/244/213
f 249/248/214 173/291/214 164/247/214
f 214/211/215 213/208/215 193/73/215 192/72/215
f 153/13/216 154/15/216 160/21/216 165/26/216
f 192/72/217 193/73/217 147/8/217 152/14/217
f 164/27/218 173/38/218 165/26/218
f 250/264/219 252/265/219 253/266/219 251/263/219
f 161/149/220 156/143/220 178/47/220 172/37/220
f 141/4/221 224/292/221 142/3/221
f 141/288/222 145/7/222 225/294/222 224/293/222
