# PSX Racing car model — generated by tools/carmodels/export_models.mjs
mtllib citroen_cx_wheels_r.mtl
v 0.888625 0.324725 -1.678934
v 0.888625 0.561385 -1.580906
v 0.888625 0.324725 -1.344247
v 0.888625 0.088066 -1.580906
v 0.668161 -0.009961 -1.344247
v 0.668161 0.088066 -1.107588
v 0.668161 0.324725 -1.344247
v 0.668161 0.088066 -1.580906
v 0.668161 0.324725 -1.678934
v 0.888625 0.088066 -1.107588
v 0.888625 -0.009961 -1.344247
v 0.668161 0.324725 -1.009560
v 0.668161 0.561385 -1.107588
v 0.888625 0.561385 -1.107588
v 0.888625 0.324725 -1.009560
v 0.668161 0.659412 -1.344247
v 0.668161 0.561385 -1.580906
v 0.888625 0.659412 -1.344247
v -0.888625 0.324725 -1.678934
v -0.888625 0.088066 -1.580906
v -0.888625 0.324725 -1.344247
v -0.888625 0.561385 -1.580906
v -0.668161 -0.009961 -1.344247
v -0.668161 0.088066 -1.580906
v -0.668161 0.324725 -1.344247
v -0.668161 0.088066 -1.107588
v -0.668161 0.324725 -1.678934
v -0.888625 -0.009961 -1.344247
v -0.888625 0.088066 -1.107588
v -0.668161 0.324725 -1.009560
v -0.668161 0.561385 -1.107588
v -0.888625 0.324725 -1.009560
v -0.888625 0.561385 -1.107588
v -0.668161 0.659412 -1.344247
v -0.668161 0.561385 -1.580906
v -0.888625 0.659412 -1.344247
vt 0.077623 0.989325
vt 0.012692 0.924394
vt 0.123536 0.878480
vt 0.169450 0.989325
vt 0.169450 0.768218
vt 0.234381 0.833149
vt 0.123537 0.879063
vt 0.077623 0.768218
vt 0.802099 0.782842
vt 0.790522 0.795585
vt 0.774458 0.780992
vt 0.786036 0.768248
vt 0.234381 0.832567
vt 0.234381 0.924394
vt 0.234381 0.924976
vt 0.169450 0.989908
vt 0.758394 0.766399
vt 0.769972 0.753655
vt 0.898481 0.870401
vt 0.886904 0.883145
vt 0.870840 0.868552
vt 0.882418 0.855808
vt 0.077623 0.767635
vt 0.169450 0.767635
vt 0.077623 0.989908
vt 0.012692 0.924976
vt 0.854777 0.853959
vt 0.866354 0.841215
vt 0.838713 0.839365
vt 0.850290 0.826621
vt 0.012692 0.832567
vt 0.822649 0.824772
vt 0.834226 0.812028
vt 0.806585 0.810179
vt 0.818163 0.797435
vt 0.012692 0.833149
vt 0.077623 0.989325
vt 0.169450 0.989325
vt 0.123536 0.878480
vt 0.012692 0.924394
vt 0.169450 0.768218
vt 0.077623 0.768218
vt 0.123537 0.879063
vt 0.234381 0.833149
vt 0.802099 0.782842
vt 0.786036 0.768248
vt 0.774458 0.780992
vt 0.790522 0.795585
vt 0.234381 0.924394
vt 0.234381 0.832567
vt 0.234381 0.924976
vt 0.169450 0.989908
vt 0.769972 0.753655
vt 0.758394 0.766399
vt 0.898481 0.870401
vt 0.882418 0.855808
vt 0.870840 0.868552
vt 0.886904 0.883145
vt 0.169450 0.767635
vt 0.077623 0.767635
vt 0.077623 0.989908
vt 0.012692 0.924976
vt 0.866354 0.841215
vt 0.854777 0.853959
vt 0.850290 0.826621
vt 0.838713 0.839365
vt 0.012692 0.832567
vt 0.834226 0.812028
vt 0.822649 0.824772
vt 0.818163 0.797435
vt 0.806585 0.810179
vt 0.012692 0.833149
vn 1.000000 0.000000 0.000000
vn -1.000000 0.000000 0.000000
vn 0.000000 -0.382700 -0.923900
vn 0.000000 -0.923900 -0.382700
vn 0.000000 -0.923900 0.382700
vn 0.000000 -0.382700 0.923900
vn 0.000000 0.382700 0.923900
vn 0.000000 0.923900 0.382700
vn 0.000000 0.923900 -0.382700
vn 0.000000 0.382700 -0.923900
vn -1.000000 0.000000 0.000000
vn 1.000000 0.000000 0.000000
vn 0.000000 -0.382700 -0.923900
vn 0.000000 -0.923900 -0.382700
vn 0.000000 -0.923900 0.382700
vn 0.000000 -0.382700 0.923900
vn 0.000000 0.382700 0.923900
vn 0.000000 0.923900 0.382700
vn 0.000000 0.923900 -0.382700
vn 0.000000 0.382700 -0.923900
o citroen_cx_wheels_r
usemtl citroen_cx_wheels_r
f 1/1/1 2/2/1 3/3/1 4/4/1
f 5/5/2 6/6/2 7/7/2 8/8/2
f 9/9/3 1/10/3 4/11/3 8/12/3
f 3/3/1 10/13/1 11/14/1 4/4/1
f 12/15/2 13/16/2 7/7/2 6/6/2
f 8/12/4 4/11/4 11/17/4 5/18/4
f 5/19/5 11/20/5 10/21/5 6/22/5
f 3/3/1 14/23/1 15/24/1 10/13/1
f 16/25/2 17/26/2 7/7/2 13/16/2
f 6/22/6 10/21/6 15/27/6 12/28/6
f 12/28/7 15/27/7 14/29/7 13/30/7
f 3/3/1 2/2/1 18/31/1 14/23/1
f 13/30/8 14/29/8 18/32/8 16/33/8
f 16/33/9 18/32/9 2/34/9 17/35/9
f 17/35/10 2/34/10 1/10/10 9/9/10
f 7/7/2 17/26/2 9/36/2 8/8/2
f 19/37/11 20/38/11 21/39/11 22/40/11
f 23/41/12 24/42/12 25/43/12 26/44/12
f 27/45/13 24/46/13 20/47/13 19/48/13
f 21/39/11 20/38/11 28/49/11 29/50/11
f 30/51/12 26/44/12 25/43/12 31/52/12
f 24/46/14 23/53/14 28/54/14 20/47/14
f 23/55/15 26/56/15 29/57/15 28/58/15
f 21/39/11 29/50/11 32/59/11 33/60/11
f 34/61/12 31/52/12 25/43/12 35/62/12
f 26/56/16 30/63/16 32/64/16 29/57/16
f 30/63/17 31/65/17 33/66/17 32/64/17
f 21/39/11 33/60/11 36/67/11 22/40/11
f 31/65/18 34/68/18 36/69/18 33/66/18
f 34/68/19 35/70/19 22/71/19 36/69/19
f 35/70/20 27/45/20 19/48/20 22/71/20
f 25/43/12 24/42/12 27/72/12 35/62/12
