# PSX Racing car model — generated by tools/carmodels/export_models.mjs
mtllib civic_eg_wheels_r.mtl
v -0.794699 0.583247 1.304789
v -0.812737 0.503566 1.155172
v -0.812737 0.552180 1.304789
v -0.794699 0.528700 1.136911
v -0.812737 0.376294 1.062704
v -0.794699 0.385895 1.033157
v -0.812737 0.218978 1.062704
v -0.794699 0.209378 1.033157
v -0.812737 0.091706 1.155172
v -0.794699 0.066572 1.136911
v -0.812737 0.043092 1.304789
v -0.794699 0.012026 1.304789
v -0.812737 0.091706 1.454407
v -0.794699 0.066572 1.472667
v -0.812737 0.218978 1.546875
v -0.794699 0.209378 1.576421
v -0.812737 0.376294 1.546875
v -0.794699 0.385895 1.576421
v -0.812737 0.503566 1.454407
v -0.794699 0.528700 1.472667
v -0.652395 0.583247 1.304789
v -0.652395 0.528700 1.136911
v -0.652395 0.385895 1.033157
v -0.652395 0.209378 1.033157
v -0.652395 0.066572 1.136911
v -0.652395 0.012026 1.304789
v -0.652395 0.066572 1.472667
v -0.652395 0.209378 1.576421
v -0.652395 0.385895 1.576421
v -0.652395 0.528700 1.472667
v -0.634356 0.552180 1.304789
v -0.634356 0.503566 1.155172
v -0.634356 0.376294 1.062704
v -0.634356 0.218978 1.062704
v -0.634356 0.091706 1.155172
v -0.634356 0.043092 1.304789
v -0.634356 0.091706 1.454407
v -0.634356 0.218978 1.546875
v -0.634356 0.376294 1.546875
v -0.634356 0.503566 1.454407
v 0.652395 0.583247 1.304789
v 0.634356 0.503566 1.155172
v 0.634356 0.552180 1.304789
v 0.652395 0.528700 1.136911
v 0.634356 0.376294 1.062704
v 0.652395 0.385895 1.033157
v 0.634356 0.218978 1.062704
v 0.652395 0.209378 1.033157
v 0.634356 0.091706 1.155172
v 0.652395 0.066572 1.136911
v 0.634356 0.043092 1.304789
v 0.652395 0.012026 1.304789
v 0.634356 0.091706 1.454407
v 0.652395 0.066572 1.472667
v 0.634356 0.218978 1.546875
v 0.652395 0.209378 1.576421
v 0.634356 0.376294 1.546875
v 0.652395 0.385895 1.576421
v 0.634356 0.503566 1.454407
v 0.652395 0.528700 1.472667
v 0.794699 0.583247 1.304789
v 0.794699 0.528700 1.136911
v 0.794699 0.385895 1.033157
v 0.794699 0.209378 1.033157
v 0.794699 0.066572 1.136911
v 0.794699 0.012026 1.304789
v 0.794699 0.066572 1.472667
v 0.794699 0.209378 1.576421
v 0.794699 0.385895 1.576421
v 0.794699 0.528700 1.472667
v 0.812737 0.552180 1.304789
v 0.812737 0.503566 1.155172
v 0.812737 0.376294 1.062704
v 0.812737 0.218978 1.062704
v 0.812737 0.091706 1.155172
v 0.812737 0.043092 1.304789
v 0.812737 0.091706 1.454407
v 0.812737 0.218978 1.546875
v 0.812737 0.376294 1.546875
v 0.812737 0.503566 1.454407
vt 0.780000 0.300000
vt 0.940000 0.300000
vt 0.940000 0.460000
vt 0.767816 0.090174
vt 0.767816 0.159826
vt 0.982184 0.159826
vt 0.941243 0.216176
vt 0.808757 0.216176
vt 0.875000 0.237700
vt 0.982184 0.090174
vt 0.808757 0.033824
vt 0.941243 0.033824
vt 0.875000 0.012300
vt 0.780000 0.300000
vt 0.940000 0.300000
vt 0.940000 0.460000
vt 0.767816 0.090174
vt 0.767816 0.159826
vt 0.982184 0.159826
vt 0.941243 0.216176
vt 0.808757 0.216176
vt 0.875000 0.237700
vt 0.982184 0.090174
vt 0.808757 0.033824
vt 0.941243 0.033824
vt 0.875000 0.012300
vn -0.853500 0.495600 -0.161000
vn -0.853500 0.306300 -0.421600
vn -0.853500 0.000000 -0.521100
vn -0.853500 -0.306300 -0.421600
vn -0.853500 -0.495600 -0.161000
vn -0.853500 -0.495600 0.161000
vn -0.853500 -0.306300 0.421600
vn -0.853500 0.000000 0.521100
vn -0.853500 0.306300 0.421600
vn -0.853500 0.495600 0.161000
vn 0.000000 0.951100 -0.309000
vn 0.000000 0.587800 -0.809000
vn 0.000000 0.000000 -1.000000
vn 0.000000 -0.587800 -0.809000
vn 0.000000 -0.951100 -0.309000
vn 0.000000 -0.951100 0.309000
vn 0.000000 -0.587800 0.809000
vn 0.000000 0.000000 1.000000
vn 0.000000 0.587800 0.809000
vn 0.000000 0.951100 0.309000
vn 0.853500 0.495600 -0.161000
vn 0.853500 0.306300 -0.421600
vn 0.853500 0.000000 -0.521100
vn 0.853500 -0.306300 -0.421600
vn 0.853500 -0.495600 -0.161000
vn 0.853500 -0.495600 0.161000
vn 0.853500 -0.306300 0.421600
vn 0.853500 0.000000 0.521100
vn 0.853500 0.306300 0.421600
vn 0.853500 0.495600 0.161000
vn -1.000000 0.000000 0.000000
vn 1.000000 0.000000 0.000000
vn -0.853500 0.495600 -0.161000
vn -0.853500 0.306300 -0.421600
vn -0.853500 0.000000 -0.521100
vn -0.853500 -0.306300 -0.421600
vn -0.853500 -0.495600 -0.161000
vn -0.853500 -0.495600 0.161000
vn -0.853500 -0.306300 0.421600
vn -0.853500 0.000000 0.521100
vn -0.853500 0.306300 0.421600
vn -0.853500 0.495600 0.161000
vn 0.000000 0.951100 -0.309000
vn 0.000000 0.587800 -0.809000
vn 0.000000 0.000000 -1.000000
vn 0.000000 -0.587800 -0.809000
vn 0.000000 -0.951100 -0.309000
vn 0.000000 -0.951100 0.309000
vn 0.000000 -0.587800 0.809000
vn 0.000000 0.000000 1.000000
vn 0.000000 0.587800 0.809000
vn 0.000000 0.951100 0.309000
vn 0.853500 0.495600 -0.161000
vn 0.853500 0.306300 -0.421600
vn 0.853500 0.000000 -0.521100
vn 0.853500 -0.306300 -0.421600
vn 0.853500 -0.495600 -0.161000
vn 0.853500 -0.495600 0.161000
vn 0.853500 -0.306300 0.421600
vn 0.853500 0.000000 0.521100
vn 0.853500 0.306300 0.421600
vn 0.853500 0.495600 0.161000
vn -1.000000 0.000000 0.000000
vn 1.000000 0.000000 0.000000
o civic_eg_wheels_r
usemtl civic_eg_wheels_r
f 1/1/1 2/2/1 3/3/1
f 4/1/2 5/2/2 2/3/2
f 6/1/3 7/2/3 5/3/3
f 8/1/4 9/2/4 7/3/4
f 10/1/5 11/2/5 9/3/5
f 12/1/6 13/2/6 11/3/6
f 14/1/7 15/2/7 13/3/7
f 16/1/8 17/2/8 15/3/8
f 18/1/9 19/2/9 17/3/9
f 20/1/10 3/2/10 19/3/10
f 21/1/11 4/2/11 1/3/11
f 22/1/12 6/2/12 4/3/12
f 23/1/13 8/2/13 6/3/13
f 24/1/14 10/2/14 8/3/14
f 25/1/15 12/2/15 10/3/15
f 26/1/16 14/2/16 12/3/16
f 27/1/17 16/2/17 14/3/17
f 28/1/18 18/2/18 16/3/18
f 29/1/19 20/2/19 18/3/19
f 30/1/20 1/2/20 20/3/20
f 31/1/21 22/2/21 21/3/21
f 32/1/22 23/2/22 22/3/22
f 33/1/23 24/2/23 23/3/23
f 34/1/24 25/2/24 24/3/24
f 35/1/25 26/2/25 25/3/25
f 36/1/26 27/2/26 26/3/26
f 37/1/27 28/2/27 27/3/27
f 38/1/28 29/2/28 28/3/28
f 39/1/29 30/2/29 29/3/29
f 40/1/30 21/2/30 30/3/30
f 15/4/31 17/5/31 5/6/31
f 33/6/32 32/7/32 38/4/32
f 1/1/1 4/2/1 2/3/1
f 4/1/2 6/2/2 5/3/2
f 6/1/3 8/2/3 7/3/3
f 8/1/4 10/2/4 9/3/4
f 10/1/5 12/2/5 11/3/5
f 12/1/6 14/2/6 13/3/6
f 14/1/7 16/2/7 15/3/7
f 16/1/8 18/2/8 17/3/8
f 18/1/9 20/2/9 19/3/9
f 20/1/10 1/2/10 3/3/10
f 21/1/11 22/2/11 4/3/11
f 22/1/12 23/2/12 6/3/12
f 23/1/13 24/2/13 8/3/13
f 24/1/14 25/2/14 10/3/14
f 25/1/15 26/2/15 12/3/15
f 26/1/16 27/2/16 14/3/16
f 27/1/17 28/2/17 16/3/17
f 28/1/18 29/2/18 18/3/18
f 29/1/19 30/2/19 20/3/19
f 30/1/20 21/2/20 1/3/20
f 31/1/21 32/2/21 22/3/21
f 32/1/22 33/2/22 23/3/22
f 33/1/23 34/2/23 24/3/23
f 34/1/24 35/2/24 25/3/24
f 35/1/25 36/2/25 26/3/25
f 36/1/26 37/2/26 27/3/26
f 37/1/27 38/2/27 28/3/27
f 38/1/28 39/2/28 29/3/28
f 39/1/29 40/2/29 30/3/29
f 40/1/30 31/2/30 21/3/30
f 17/5/31 19/8/31 5/6/31
f 19/8/31 3/9/31 5/6/31
f 3/9/31 2/7/31 5/6/31
f 5/6/31 7/10/31 13/11/31
f 7/10/31 9/12/31 13/11/31
f 9/12/31 11/13/31 13/11/31
f 13/11/31 15/4/31 5/6/31
f 32/7/32 31/9/32 40/8/32
f 40/8/32 39/5/32 32/7/32
f 39/5/32 38/4/32 32/7/32
f 38/4/32 37/11/32 34/10/32
f 37/11/32 36/13/32 34/10/32
f 36/13/32 35/12/32 34/10/32
f 34/10/32 33/6/32 38/4/32
f 41/14/33 42/15/33 43/16/33
f 44/14/34 45/15/34 42/16/34
f 46/14/35 47/15/35 45/16/35
f 48/14/36 49/15/36 47/16/36
f 50/14/37 51/15/37 49/16/37
f 52/14/38 53/15/38 51/16/38
f 54/14/39 55/15/39 53/16/39
f 56/14/40 57/15/40 55/16/40
f 58/14/41 59/15/41 57/16/41
f 60/14/42 43/15/42 59/16/42
f 61/14/43 44/15/43 41/16/43
f 62/14/44 46/15/44 44/16/44
f 63/14/45 48/15/45 46/16/45
f 64/14/46 50/15/46 48/16/46
f 65/14/47 52/15/47 50/16/47
f 66/14/48 54/15/48 52/16/48
f 67/14/49 56/15/49 54/16/49
f 68/14/50 58/15/50 56/16/50
f 69/14/51 60/15/51 58/16/51
f 70/14/52 41/15/52 60/16/52
f 71/14/53 62/15/53 61/16/53
f 72/14/54 63/15/54 62/16/54
f 73/14/55 64/15/55 63/16/55
f 74/14/56 65/15/56 64/16/56
f 75/14/57 66/15/57 65/16/57
f 76/14/58 67/15/58 66/16/58
f 77/14/59 68/15/59 67/16/59
f 78/14/60 69/15/60 68/16/60
f 79/14/61 70/15/61 69/16/61
f 80/14/62 61/15/62 70/16/62
f 55/17/63 57/18/63 45/19/63
f 73/19/64 72/20/64 78/17/64
f 41/14/33 44/15/33 42/16/33
f 44/14/34 46/15/34 45/16/34
f 46/14/35 48/15/35 47/16/35
f 48/14/36 50/15/36 49/16/36
f 50/14/37 52/15/37 51/16/37
f 52/14/38 54/15/38 53/16/38
f 54/14/39 56/15/39 55/16/39
f 56/14/40 58/15/40 57/16/40
f 58/14/41 60/15/41 59/16/41
f 60/14/42 41/15/42 43/16/42
f 61/14/43 62/15/43 44/16/43
f 62/14/44 63/15/44 46/16/44
f 63/14/45 64/15/45 48/16/45
f 64/14/46 65/15/46 50/16/46
f 65/14/47 66/15/47 52/16/47
f 66/14/48 67/15/48 54/16/48
f 67/14/49 68/15/49 56/16/49
f 68/14/50 69/15/50 58/16/50
f 69/14/51 70/15/51 60/16/51
f 70/14/52 61/15/52 41/16/52
f 71/14/53 72/15/53 62/16/53
f 72/14/54 73/15/54 63/16/54
f 73/14/55 74/15/55 64/16/55
f 74/14/56 75/15/56 65/16/56
f 75/14/57 76/15/57 66/16/57
f 76/14/58 77/15/58 67/16/58
f 77/14/59 78/15/59 68/16/59
f 78/14/60 79/15/60 69/16/60
f 79/14/61 80/15/61 70/16/61
f 80/14/62 71/15/62 61/16/62
f 57/18/63 59/21/63 45/19/63
f 59/21/63 43/22/63 45/19/63
f 43/22/63 42/20/63 45/19/63
f 45/19/63 47/23/63 53/24/63
f 47/23/63 49/25/63 53/24/63
f 49/25/63 51/26/63 53/24/63
f 53/24/63 55/17/63 45/19/63
f 72/20/64 71/22/64 80/21/64
f 80/21/64 79/18/64 72/20/64
f 79/18/64 78/17/64 72/20/64
f 78/17/64 77/24/64 74/23/64
f 77/24/64 76/26/64 74/23/64
f 76/26/64 75/25/64 74/23/64
f 74/23/64 73/19/64 78/17/64
