# PSX Racing car model — generated by tools/carmodels/export_models.mjs
mtllib civic_eg_wheels_f.mtl
v -0.838089 0.355742 -1.502074
v -0.832568 0.298851 -1.559748
v -0.838089 0.298851 -1.509564
v -0.838089 0.355742 -1.502074
v -0.832568 0.433849 -1.523576
v -0.832568 0.368731 -1.550549
v -0.838089 0.454280 -1.445182
v -0.832568 0.433849 -1.523576
v -0.838089 0.408756 -1.480115
v -0.838089 0.454280 -1.445182
v -0.832568 0.532674 -1.424751
v -0.832568 0.489767 -1.480669
v -0.838089 0.511172 -1.346644
v -0.832568 0.532674 -1.424751
v -0.838089 0.489213 -1.399658
v -0.838089 0.518662 -1.289753
v -0.832568 0.559647 -1.359633
v -0.838089 0.511172 -1.346644
v -0.838089 0.511172 -1.232863
v -0.832568 0.568846 -1.289753
v -0.838089 0.518662 -1.289753
v -0.838089 0.511172 -1.232863
v -0.832568 0.532674 -1.154756
v -0.832568 0.559647 -1.219874
v -0.838089 0.454280 -1.134325
v -0.832568 0.532674 -1.154756
v -0.838089 0.489213 -1.179848
v -0.838089 0.454280 -1.134325
v -0.832568 0.433849 -1.055931
v -0.832568 0.489767 -1.098838
v -0.838089 0.355742 -1.077433
v -0.832568 0.433849 -1.055931
v -0.838089 0.408756 -1.099392
v -0.838089 0.298851 -1.069943
v -0.832568 0.368731 -1.028958
v -0.838089 0.355742 -1.077433
v -0.838089 0.241961 -1.077433
v -0.832568 0.298851 -1.019758
v -0.838089 0.298851 -1.069943
v -0.838089 0.241961 -1.077433
v -0.832568 0.163854 -1.055931
v -0.832568 0.228972 -1.028958
v -0.838089 0.143423 -1.134325
v -0.832568 0.163854 -1.055931
v -0.838089 0.188946 -1.099392
v -0.838089 0.143423 -1.134325
v -0.832568 0.065029 -1.154756
v -0.832568 0.107936 -1.098838
v -0.838089 0.086531 -1.232863
v -0.832568 0.065029 -1.154756
v -0.838089 0.108490 -1.179848
v -0.838089 0.079041 -1.289753
v -0.832568 0.038056 -1.219874
v -0.838089 0.086531 -1.232863
v -0.838089 0.086531 -1.346644
v -0.832568 0.028856 -1.289753
v -0.838089 0.079041 -1.289753
v -0.838089 0.086531 -1.346644
v -0.832568 0.065029 -1.424751
v -0.832568 0.038056 -1.359633
v -0.838089 0.143423 -1.445182
v -0.832568 0.065029 -1.424751
v -0.838089 0.108490 -1.399658
v -0.838089 0.143423 -1.445182
v -0.832568 0.163854 -1.523576
v -0.832568 0.107936 -1.480669
v -0.838089 0.241961 -1.502074
v -0.832568 0.163854 -1.523576
v -0.838089 0.188946 -1.480115
v -0.838089 0.298851 -1.509564
v -0.832568 0.228972 -1.550549
v -0.838089 0.241961 -1.502074
v -0.832568 0.368731 -1.550549
v -0.807476 0.298851 -1.588605
v -0.832568 0.298851 -1.559748
v -0.832568 0.433849 -1.523576
v -0.807476 0.376199 -1.578421
v -0.832568 0.368731 -1.550549
v -0.832568 0.489767 -1.480669
v -0.807476 0.448277 -1.548566
v -0.832568 0.433849 -1.523576
v -0.832568 0.489767 -1.480669
v -0.807476 0.557664 -1.439179
v -0.807476 0.510171 -1.501073
v -0.832568 0.559647 -1.359633
v -0.807476 0.557664 -1.439179
v -0.832568 0.532674 -1.424751
v -0.832568 0.559647 -1.359633
v -0.807476 0.597703 -1.289753
v -0.807476 0.587519 -1.367101
v -0.832568 0.559647 -1.219874
v -0.807476 0.597703 -1.289753
v -0.832568 0.568846 -1.289753
v -0.832568 0.532674 -1.154756
v -0.807476 0.587519 -1.212405
v -0.832568 0.559647 -1.219874
v -0.832568 0.489767 -1.098838
v -0.807476 0.557664 -1.140328
v -0.832568 0.532674 -1.154756
v -0.832568 0.489767 -1.098838
v -0.807476 0.448277 -1.030941
v -0.807476 0.510171 -1.078434
v -0.832568 0.433849 -1.055931
v -0.807476 0.376199 -1.001086
v -0.807476 0.448277 -1.030941
v -0.832568 0.368731 -1.028958
v -0.807476 0.298851 -0.990902
v -0.807476 0.376199 -1.001086
v -0.832568 0.228972 -1.028958
v -0.807476 0.298851 -0.990902
v -0.832568 0.298851 -1.019758
v -0.832568 0.163854 -1.055931
v -0.807476 0.221503 -1.001086
v -0.832568 0.228972 -1.028958
v -0.832568 0.107936 -1.098838
v -0.807476 0.149426 -1.030941
v -0.832568 0.163854 -1.055931
v -0.832568 0.107936 -1.098838
v -0.807476 0.040039 -1.140328
v -0.807476 0.087532 -1.078434
v -0.832568 0.038056 -1.219874
v -0.807476 0.040039 -1.140328
v -0.832568 0.065029 -1.154756
v -0.832568 0.038056 -1.219874
v -0.807476 0.000000 -1.289753
v -0.807476 0.010184 -1.212405
v -0.832568 0.038056 -1.359633
v -0.807476 0.000000 -1.289753
v -0.832568 0.028856 -1.289753
v -0.832568 0.065029 -1.424751
v -0.807476 0.010184 -1.367101
v -0.832568 0.038056 -1.359633
v -0.832568 0.107936 -1.480669
v -0.807476 0.040039 -1.439179
v -0.832568 0.065029 -1.424751
v -0.832568 0.107936 -1.480669
v -0.807476 0.149426 -1.548566
v -0.807476 0.087532 -1.501073
v -0.832568 0.163854 -1.523576
v -0.807476 0.221503 -1.578421
v -0.807476 0.149426 -1.548566
v -0.832568 0.228972 -1.550549
v -0.807476 0.298851 -1.588605
v -0.807476 0.221503 -1.578421
v -0.807476 0.376199 -1.578421
v -0.672980 0.298851 -1.588605
v -0.807476 0.298851 -1.588605
v -0.807476 0.448277 -1.548566
v -0.672980 0.376199 -1.578421
v -0.807476 0.376199 -1.578421
v -0.807476 0.510171 -1.501073
v -0.672980 0.448277 -1.548566
v -0.807476 0.448277 -1.548566
v -0.807476 0.557664 -1.439179
v -0.672980 0.510171 -1.501073
v -0.807476 0.510171 -1.501073
v -0.807476 0.587519 -1.367101
v -0.672980 0.557664 -1.439179
v -0.807476 0.557664 -1.439179
v -0.807476 0.597703 -1.289753
v -0.672980 0.587519 -1.367101
v -0.807476 0.587519 -1.367101
v -0.807476 0.587519 -1.212405
v -0.672980 0.597703 -1.289753
v -0.807476 0.597703 -1.289753
v -0.807476 0.557664 -1.140328
v -0.672980 0.587519 -1.212405
v -0.807476 0.587519 -1.212405
v -0.807476 0.510171 -1.078434
v -0.672980 0.557664 -1.140328
v -0.807476 0.557664 -1.140328
v -0.807476 0.448277 -1.030941
v -0.672980 0.510171 -1.078434
v -0.807476 0.510171 -1.078434
v -0.807476 0.376199 -1.001086
v -0.672980 0.448277 -1.030941
v -0.807476 0.448277 -1.030941
v -0.807476 0.298851 -0.990902
v -0.672980 0.376199 -1.001086
v -0.807476 0.376199 -1.001086
v -0.807476 0.221503 -1.001086
v -0.672980 0.298851 -0.990902
v -0.807476 0.298851 -0.990902
v -0.807476 0.149426 -1.030941
v -0.672980 0.221503 -1.001086
v -0.807476 0.221503 -1.001086
v -0.807476 0.087532 -1.078434
v -0.672980 0.149426 -1.030941
v -0.807476 0.149426 -1.030941
v -0.807476 0.040039 -1.140328
v -0.672980 0.087532 -1.078434
v -0.807476 0.087532 -1.078434
v -0.807476 0.010184 -1.212405
v -0.672980 0.040039 -1.140328
v -0.807476 0.040039 -1.140328
v -0.807476 0.000000 -1.289753
v -0.672980 0.010184 -1.212405
v -0.807476 0.010184 -1.212405
v -0.807476 0.010184 -1.367101
v -0.672980 0.000000 -1.289753
v -0.807476 0.000000 -1.289753
v -0.807476 0.040039 -1.439179
v -0.672980 0.010184 -1.367101
v -0.807476 0.010184 -1.367101
v -0.807476 0.087532 -1.501073
v -0.672980 0.040039 -1.439179
v -0.807476 0.040039 -1.439179
v -0.807476 0.149426 -1.548566
v -0.672980 0.087532 -1.501073
v -0.807476 0.087532 -1.501073
v -0.807476 0.221503 -1.578421
v -0.672980 0.149426 -1.548566
v -0.807476 0.149426 -1.548566
v -0.807476 0.298851 -1.588605
v -0.672980 0.221503 -1.578421
v -0.807476 0.221503 -1.578421
v -0.672980 0.298851 -1.588605
v -0.647888 0.368731 -1.550549
v -0.647888 0.298851 -1.559748
v -0.672980 0.376199 -1.578421
v -0.647888 0.433849 -1.523576
v -0.647888 0.368731 -1.550549
v -0.672980 0.448277 -1.548566
v -0.647888 0.489767 -1.480669
v -0.647888 0.433849 -1.523576
v -0.672980 0.557664 -1.439179
v -0.647888 0.489767 -1.480669
v -0.672980 0.510171 -1.501073
v -0.672980 0.587519 -1.367101
v -0.647888 0.532674 -1.424751
v -0.672980 0.557664 -1.439179
v -0.672980 0.597703 -1.289753
v -0.647888 0.559647 -1.359633
v -0.672980 0.587519 -1.367101
v -0.672980 0.597703 -1.289753
v -0.647888 0.559647 -1.219874
v -0.647888 0.568846 -1.289753
v -0.672980 0.557664 -1.140328
v -0.647888 0.559647 -1.219874
v -0.672980 0.587519 -1.212405
v -0.672980 0.557664 -1.140328
v -0.647888 0.489767 -1.098838
v -0.647888 0.532674 -1.154756
v -0.672980 0.448277 -1.030941
v -0.647888 0.489767 -1.098838
v -0.672980 0.510171 -1.078434
v -0.672980 0.376199 -1.001086
v -0.647888 0.433849 -1.055931
v -0.672980 0.448277 -1.030941
v -0.672980 0.298851 -0.990902
v -0.647888 0.368731 -1.028958
v -0.672980 0.376199 -1.001086
v -0.672980 0.298851 -0.990902
v -0.647888 0.228972 -1.028958
v -0.647888 0.298851 -1.019758
v -0.672980 0.221503 -1.001086
v -0.647888 0.163854 -1.055931
v -0.647888 0.228972 -1.028958
v -0.672980 0.149426 -1.030941
v -0.647888 0.107936 -1.098838
v -0.647888 0.163854 -1.055931
v -0.672980 0.040039 -1.140328
v -0.647888 0.107936 -1.098838
v -0.672980 0.087532 -1.078434
v -0.672980 0.010184 -1.212405
v -0.647888 0.065029 -1.154756
v -0.672980 0.040039 -1.140328
v -0.672980 0.000000 -1.289753
v -0.647888 0.038056 -1.219874
v -0.672980 0.010184 -1.212405
v -0.672980 0.000000 -1.289753
v -0.647888 0.038056 -1.359633
v -0.647888 0.028856 -1.289753
v -0.672980 0.040039 -1.439179
v -0.647888 0.038056 -1.359633
v -0.672980 0.010184 -1.367101
v -0.672980 0.040039 -1.439179
v -0.647888 0.107936 -1.480669
v -0.647888 0.065029 -1.424751
v -0.672980 0.149426 -1.548566
v -0.647888 0.107936 -1.480669
v -0.672980 0.087532 -1.501073
v -0.672980 0.221503 -1.578421
v -0.647888 0.163854 -1.523576
v -0.672980 0.149426 -1.548566
v -0.672980 0.298851 -1.588605
v -0.647888 0.228972 -1.550549
v -0.672980 0.221503 -1.578421
v -0.647888 0.368731 -1.550549
v -0.642367 0.298851 -1.509564
v -0.647888 0.298851 -1.559748
v -0.647888 0.433849 -1.523576
v -0.642367 0.355742 -1.502074
v -0.647888 0.368731 -1.550549
v -0.647888 0.433849 -1.523576
v -0.642367 0.454280 -1.445182
v -0.642367 0.408756 -1.480115
v -0.647888 0.532674 -1.424751
v -0.642367 0.454280 -1.445182
v -0.647888 0.489767 -1.480669
v -0.647888 0.532674 -1.424751
v -0.642367 0.511172 -1.346644
v -0.642367 0.489213 -1.399658
v -0.647888 0.568846 -1.289753
v -0.642367 0.511172 -1.346644
v -0.647888 0.559647 -1.359633
v -0.647888 0.559647 -1.219874
v -0.642367 0.518662 -1.289753
v -0.647888 0.568846 -1.289753
v -0.647888 0.532674 -1.154756
v -0.642367 0.511172 -1.232863
v -0.647888 0.559647 -1.219874
v -0.647888 0.532674 -1.154756
v -0.642367 0.454280 -1.134325
v -0.642367 0.489213 -1.179848
v -0.647888 0.433849 -1.055931
v -0.642367 0.454280 -1.134325
v -0.647888 0.489767 -1.098838
v -0.647888 0.433849 -1.055931
v -0.642367 0.355742 -1.077433
v -0.642367 0.408756 -1.099392
v -0.647888 0.298851 -1.019758
v -0.642367 0.355742 -1.077433
v -0.647888 0.368731 -1.028958
v -0.647888 0.228972 -1.028958
v -0.642367 0.298851 -1.069943
v -0.647888 0.298851 -1.019758
v -0.647888 0.163854 -1.055931
v -0.642367 0.241961 -1.077433
v -0.647888 0.228972 -1.028958
v -0.647888 0.163854 -1.055931
v -0.642367 0.143423 -1.134325
v -0.642367 0.188946 -1.099392
v -0.647888 0.065029 -1.154756
v -0.642367 0.143423 -1.134325
v -0.647888 0.107936 -1.098838
v -0.647888 0.065029 -1.154756
v -0.642367 0.086531 -1.232863
v -0.642367 0.108490 -1.179848
v -0.647888 0.028856 -1.289753
v -0.642367 0.086531 -1.232863
v -0.647888 0.038056 -1.219874
v -0.647888 0.038056 -1.359633
v -0.642367 0.079041 -1.289753
v -0.647888 0.028856 -1.289753
v -0.647888 0.065029 -1.424751
v -0.642367 0.086531 -1.346644
v -0.647888 0.038056 -1.359633
v -0.647888 0.065029 -1.424751
v -0.642367 0.143423 -1.445182
v -0.642367 0.108490 -1.399658
v -0.647888 0.163854 -1.523576
v -0.642367 0.143423 -1.445182
v -0.647888 0.107936 -1.480669
v -0.647888 0.163854 -1.523576
v -0.642367 0.241961 -1.502074
v -0.642367 0.188946 -1.480115
v -0.647888 0.298851 -1.559748
v -0.642367 0.241961 -1.502074
v -0.647888 0.228972 -1.550549
v -0.838089 0.298851 -1.289753
v -0.838089 0.355742 -1.502074
v -0.838089 0.298851 -1.509564
v -0.838089 0.408756 -1.480115
v -0.838089 0.454280 -1.445182
v -0.838089 0.489213 -1.399658
v -0.838089 0.511172 -1.346644
v -0.838089 0.518662 -1.289753
v -0.838089 0.511172 -1.232863
v -0.838089 0.489213 -1.179848
v -0.838089 0.454280 -1.134325
v -0.838089 0.408756 -1.099392
v -0.838089 0.355742 -1.077433
v -0.838089 0.298851 -1.069943
v -0.838089 0.241961 -1.077433
v -0.838089 0.188946 -1.099392
v -0.838089 0.143423 -1.134325
v -0.838089 0.108490 -1.179848
v -0.838089 0.086531 -1.232863
v -0.838089 0.079041 -1.289753
v -0.838089 0.086531 -1.346644
v -0.838089 0.108490 -1.399658
v -0.838089 0.143423 -1.445182
v -0.838089 0.188946 -1.480115
v -0.838089 0.241961 -1.502074
v -0.642367 0.298851 -1.289753
v -0.642367 0.298851 -1.509564
v -0.642367 0.355742 -1.502074
v -0.642367 0.408756 -1.480115
v -0.642367 0.454280 -1.445182
v -0.642367 0.489213 -1.399658
v -0.642367 0.511172 -1.346644
v -0.642367 0.518662 -1.289753
v -0.642367 0.511172 -1.232863
v -0.642367 0.489213 -1.179848
v -0.642367 0.454280 -1.134325
v -0.642367 0.408756 -1.099392
v -0.642367 0.355742 -1.077433
v -0.642367 0.298851 -1.069943
v -0.642367 0.241961 -1.077433
v -0.642367 0.188946 -1.099392
v -0.642367 0.143423 -1.134325
v -0.642367 0.108490 -1.179848
v -0.642367 0.086531 -1.232863
v -0.642367 0.079041 -1.289753
v -0.642367 0.086531 -1.346644
v -0.642367 0.108490 -1.399658
v -0.642367 0.143423 -1.445182
v -0.642367 0.188946 -1.480115
v -0.642367 0.241961 -1.502074
v -0.832568 0.368731 -1.550549
v -0.838089 0.408756 -1.480115
v -0.832568 0.489767 -1.480669
v -0.838089 0.489213 -1.399658
v -0.832568 0.559647 -1.359633
v -0.832568 0.568846 -1.289753
v -0.832568 0.559647 -1.219874
v -0.838089 0.489213 -1.179848
v -0.832568 0.489767 -1.098838
v -0.838089 0.408756 -1.099392
v -0.832568 0.368731 -1.028958
v -0.832568 0.298851 -1.019758
v -0.832568 0.228972 -1.028958
v -0.838089 0.188946 -1.099392
v -0.832568 0.107936 -1.098838
v -0.838089 0.108490 -1.179848
v -0.832568 0.038056 -1.219874
v -0.832568 0.028856 -1.289753
v -0.832568 0.038056 -1.359633
v -0.838089 0.108490 -1.399658
v -0.832568 0.107936 -1.480669
v -0.838089 0.188946 -1.480115
v -0.832568 0.228972 -1.550549
v -0.832568 0.298851 -1.559748
v -0.807476 0.376199 -1.578421
v -0.807476 0.448277 -1.548566
v -0.807476 0.510171 -1.501073
v -0.832568 0.532674 -1.424751
v -0.807476 0.587519 -1.367101
v -0.832568 0.568846 -1.289753
v -0.807476 0.587519 -1.212405
v -0.807476 0.557664 -1.140328
v -0.807476 0.510171 -1.078434
v -0.832568 0.433849 -1.055931
v -0.832568 0.368731 -1.028958
v -0.832568 0.298851 -1.019758
v -0.807476 0.221503 -1.001086
v -0.807476 0.149426 -1.030941
v -0.807476 0.087532 -1.078434
v -0.832568 0.065029 -1.154756
v -0.807476 0.010184 -1.212405
v -0.832568 0.028856 -1.289753
v -0.807476 0.010184 -1.367101
v -0.807476 0.040039 -1.439179
v -0.807476 0.087532 -1.501073
v -0.832568 0.163854 -1.523576
v -0.832568 0.228972 -1.550549
v -0.832568 0.298851 -1.559748
v -0.672980 0.376199 -1.578421
v -0.672980 0.448277 -1.548566
v -0.672980 0.510171 -1.501073
v -0.672980 0.557664 -1.439179
v -0.672980 0.587519 -1.367101
v -0.672980 0.597703 -1.289753
v -0.672980 0.587519 -1.212405
v -0.672980 0.557664 -1.140328
v -0.672980 0.510171 -1.078434
v -0.672980 0.448277 -1.030941
v -0.672980 0.376199 -1.001086
v -0.672980 0.298851 -0.990902
v -0.672980 0.221503 -1.001086
v -0.672980 0.149426 -1.030941
v -0.672980 0.087532 -1.078434
v -0.672980 0.040039 -1.140328
v -0.672980 0.010184 -1.212405
v -0.672980 0.000000 -1.289753
v -0.672980 0.010184 -1.367101
v -0.672980 0.040039 -1.439179
v -0.672980 0.087532 -1.501073
v -0.672980 0.149426 -1.548566
v -0.672980 0.221503 -1.578421
v -0.672980 0.298851 -1.588605
v -0.672980 0.376199 -1.578421
v -0.672980 0.448277 -1.548566
v -0.672980 0.510171 -1.501073
v -0.647888 0.532674 -1.424751
v -0.647888 0.559647 -1.359633
v -0.647888 0.568846 -1.289753
v -0.672980 0.587519 -1.212405
v -0.647888 0.532674 -1.154756
v -0.672980 0.510171 -1.078434
v -0.647888 0.433849 -1.055931
v -0.647888 0.368731 -1.028958
v -0.647888 0.298851 -1.019758
v -0.672980 0.221503 -1.001086
v -0.672980 0.149426 -1.030941
v -0.672980 0.087532 -1.078434
v -0.647888 0.065029 -1.154756
v -0.647888 0.038056 -1.219874
v -0.647888 0.028856 -1.289753
v -0.672980 0.010184 -1.367101
v -0.647888 0.065029 -1.424751
v -0.672980 0.087532 -1.501073
v -0.647888 0.163854 -1.523576
v -0.647888 0.228972 -1.550549
v -0.647888 0.298851 -1.559748
v -0.642367 0.355742 -1.502074
v -0.642367 0.408756 -1.480115
v -0.647888 0.489767 -1.480669
v -0.642367 0.489213 -1.399658
v -0.647888 0.559647 -1.359633
v -0.642367 0.518662 -1.289753
v -0.642367 0.511172 -1.232863
v -0.642367 0.489213 -1.179848
v -0.647888 0.489767 -1.098838
v -0.642367 0.408756 -1.099392
v -0.647888 0.368731 -1.028958
v -0.642367 0.298851 -1.069943
v -0.642367 0.241961 -1.077433
v -0.642367 0.188946 -1.099392
v -0.647888 0.107936 -1.098838
v -0.642367 0.108490 -1.179848
v -0.647888 0.038056 -1.219874
v -0.642367 0.079041 -1.289753
v -0.642367 0.086531 -1.346644
v -0.642367 0.108490 -1.399658
v -0.647888 0.107936 -1.480669
v -0.642367 0.188946 -1.480115
v -0.647888 0.228972 -1.550549
v -0.642367 0.298851 -1.509564
v 0.642367 0.355742 -1.502074
v 0.647888 0.298851 -1.559748
v 0.642367 0.298851 -1.509564
v 0.642367 0.355742 -1.502074
v 0.647888 0.433849 -1.523576
v 0.647888 0.368731 -1.550549
v 0.642367 0.454280 -1.445182
v 0.647888 0.433849 -1.523576
v 0.642367 0.408756 -1.480115
v 0.642367 0.454280 -1.445182
v 0.647888 0.532674 -1.424751
v 0.647888 0.489767 -1.480669
v 0.642367 0.511172 -1.346644
v 0.647888 0.532674 -1.424751
v 0.642367 0.489213 -1.399658
v 0.642367 0.518662 -1.289753
v 0.647888 0.559647 -1.359633
v 0.642367 0.511172 -1.346644
v 0.642367 0.511172 -1.232863
v 0.647888 0.568846 -1.289753
v 0.642367 0.518662 -1.289753
v 0.642367 0.511172 -1.232863
v 0.647888 0.532674 -1.154756
v 0.647888 0.559647 -1.219874
v 0.642367 0.454280 -1.134325
v 0.647888 0.532674 -1.154756
v 0.642367 0.489213 -1.179848
v 0.642367 0.454280 -1.134325
v 0.647888 0.433849 -1.055931
v 0.647888 0.489767 -1.098838
v 0.642367 0.355742 -1.077433
v 0.647888 0.433849 -1.055931
v 0.642367 0.408756 -1.099392
v 0.642367 0.298851 -1.069943
v 0.647888 0.368731 -1.028958
v 0.642367 0.355742 -1.077433
v 0.642367 0.241961 -1.077433
v 0.647888 0.298851 -1.019758
v 0.642367 0.298851 -1.069943
v 0.642367 0.241961 -1.077433
v 0.647888 0.163854 -1.055931
v 0.647888 0.228972 -1.028958
v 0.642367 0.143423 -1.134325
v 0.647888 0.163854 -1.055931
v 0.642367 0.188946 -1.099392
v 0.642367 0.143423 -1.134325
v 0.647888 0.065029 -1.154756
v 0.647888 0.107936 -1.098838
v 0.642367 0.086531 -1.232863
v 0.647888 0.065029 -1.154756
v 0.642367 0.108490 -1.179848
v 0.642367 0.079041 -1.289753
v 0.647888 0.038056 -1.219874
v 0.642367 0.086531 -1.232863
v 0.642367 0.086531 -1.346644
v 0.647888 0.028856 -1.289753
v 0.642367 0.079041 -1.289753
v 0.642367 0.086531 -1.346644
v 0.647888 0.065029 -1.424751
v 0.647888 0.038056 -1.359633
v 0.642367 0.143423 -1.445182
v 0.647888 0.065029 -1.424751
v 0.642367 0.108490 -1.399658
v 0.642367 0.143423 -1.445182
v 0.647888 0.163854 -1.523576
v 0.647888 0.107936 -1.480669
v 0.642367 0.241961 -1.502074
v 0.647888 0.163854 -1.523576
v 0.642367 0.188946 -1.480115
v 0.642367 0.298851 -1.509564
v 0.647888 0.228972 -1.550549
v 0.642367 0.241961 -1.502074
v 0.647888 0.368731 -1.550549
v 0.672980 0.298851 -1.588605
v 0.647888 0.298851 -1.559748
v 0.647888 0.433849 -1.523576
v 0.672980 0.376199 -1.578421
v 0.647888 0.368731 -1.550549
v 0.647888 0.489767 -1.480669
v 0.672980 0.448277 -1.548566
v 0.647888 0.433849 -1.523576
v 0.647888 0.489767 -1.480669
v 0.672980 0.557664 -1.439179
v 0.672980 0.510171 -1.501073
v 0.647888 0.559647 -1.359633
v 0.672980 0.557664 -1.439179
v 0.647888 0.532674 -1.424751
v 0.647888 0.559647 -1.359633
v 0.672980 0.597703 -1.289753
v 0.672980 0.587519 -1.367101
v 0.647888 0.559647 -1.219874
v 0.672980 0.597703 -1.289753
v 0.647888 0.568846 -1.289753
v 0.647888 0.532674 -1.154756
v 0.672980 0.587519 -1.212405
v 0.647888 0.559647 -1.219874
v 0.647888 0.489767 -1.098838
v 0.672980 0.557664 -1.140328
v 0.647888 0.532674 -1.154756
v 0.647888 0.489767 -1.098838
v 0.672980 0.448277 -1.030941
v 0.672980 0.510171 -1.078434
v 0.647888 0.433849 -1.055931
v 0.672980 0.376199 -1.001086
v 0.672980 0.448277 -1.030941
v 0.647888 0.368731 -1.028958
v 0.672980 0.298851 -0.990902
v 0.672980 0.376199 -1.001086
v 0.647888 0.228972 -1.028958
v 0.672980 0.298851 -0.990902
v 0.647888 0.298851 -1.019758
v 0.647888 0.163854 -1.055931
v 0.672980 0.221503 -1.001086
v 0.647888 0.228972 -1.028958
v 0.647888 0.107936 -1.098838
v 0.672980 0.149426 -1.030941
v 0.647888 0.163854 -1.055931
v 0.647888 0.107936 -1.098838
v 0.672980 0.040039 -1.140328
v 0.672980 0.087532 -1.078434
v 0.647888 0.038056 -1.219874
v 0.672980 0.040039 -1.140328
v 0.647888 0.065029 -1.154756
v 0.647888 0.038056 -1.219874
v 0.672980 0.000000 -1.289753
v 0.672980 0.010184 -1.212405
v 0.647888 0.038056 -1.359633
v 0.672980 0.000000 -1.289753
v 0.647888 0.028856 -1.289753
v 0.647888 0.065029 -1.424751
v 0.672980 0.010184 -1.367101
v 0.647888 0.038056 -1.359633
v 0.647888 0.107936 -1.480669
v 0.672980 0.040039 -1.439179
v 0.647888 0.065029 -1.424751
v 0.647888 0.107936 -1.480669
v 0.672980 0.149426 -1.548566
v 0.672980 0.087532 -1.501073
v 0.647888 0.163854 -1.523576
v 0.672980 0.221503 -1.578421
v 0.672980 0.149426 -1.548566
v 0.647888 0.228972 -1.550549
v 0.672980 0.298851 -1.588605
v 0.672980 0.221503 -1.578421
v 0.672980 0.376199 -1.578421
v 0.807476 0.298851 -1.588605
v 0.672980 0.298851 -1.588605
v 0.672980 0.448277 -1.548566
v 0.807476 0.376199 -1.578421
v 0.672980 0.376199 -1.578421
v 0.672980 0.510171 -1.501073
v 0.807476 0.448277 -1.548566
v 0.672980 0.448277 -1.548566
v 0.672980 0.557664 -1.439179
v 0.807476 0.510171 -1.501073
v 0.672980 0.510171 -1.501073
v 0.672980 0.587519 -1.367101
v 0.807476 0.557664 -1.439179
v 0.672980 0.557664 -1.439179
v 0.672980 0.597703 -1.289753
v 0.807476 0.587519 -1.367101
v 0.672980 0.587519 -1.367101
v 0.672980 0.587519 -1.212405
v 0.807476 0.597703 -1.289753
v 0.672980 0.597703 -1.289753
v 0.672980 0.557664 -1.140328
v 0.807476 0.587519 -1.212405
v 0.672980 0.587519 -1.212405
v 0.672980 0.510171 -1.078434
v 0.807476 0.557664 -1.140328
v 0.672980 0.557664 -1.140328
v 0.672980 0.448277 -1.030941
v 0.807476 0.510171 -1.078434
v 0.672980 0.510171 -1.078434
v 0.672980 0.376199 -1.001086
v 0.807476 0.448277 -1.030941
v 0.672980 0.448277 -1.030941
v 0.672980 0.298851 -0.990902
v 0.807476 0.376199 -1.001086
v 0.672980 0.376199 -1.001086
v 0.672980 0.221503 -1.001086
v 0.807476 0.298851 -0.990902
v 0.672980 0.298851 -0.990902
v 0.672980 0.149426 -1.030941
v 0.807476 0.221503 -1.001086
v 0.672980 0.221503 -1.001086
v 0.672980 0.087532 -1.078434
v 0.807476 0.149426 -1.030941
v 0.672980 0.149426 -1.030941
v 0.672980 0.040039 -1.140328
v 0.807476 0.087532 -1.078434
v 0.672980 0.087532 -1.078434
v 0.672980 0.010184 -1.212405
v 0.807476 0.040039 -1.140328
v 0.672980 0.040039 -1.140328
v 0.672980 0.000000 -1.289753
v 0.807476 0.010184 -1.212405
v 0.672980 0.010184 -1.212405
v 0.672980 0.010184 -1.367101
v 0.807476 0.000000 -1.289753
v 0.672980 0.000000 -1.289753
v 0.672980 0.040039 -1.439179
v 0.807476 0.010184 -1.367101
v 0.672980 0.010184 -1.367101
v 0.672980 0.087532 -1.501073
v 0.807476 0.040039 -1.439179
v 0.672980 0.040039 -1.439179
v 0.672980 0.149426 -1.548566
v 0.807476 0.087532 -1.501073
v 0.672980 0.087532 -1.501073
v 0.672980 0.221503 -1.578421
v 0.807476 0.149426 -1.548566
v 0.672980 0.149426 -1.548566
v 0.672980 0.298851 -1.588605
v 0.807476 0.221503 -1.578421
v 0.672980 0.221503 -1.578421
v 0.807476 0.298851 -1.588605
v 0.832568 0.368731 -1.550549
v 0.832568 0.298851 -1.559748
v 0.807476 0.376199 -1.578421
v 0.832568 0.433849 -1.523576
v 0.832568 0.368731 -1.550549
v 0.807476 0.448277 -1.548566
v 0.832568 0.489767 -1.480669
v 0.832568 0.433849 -1.523576
v 0.807476 0.557664 -1.439179
v 0.832568 0.489767 -1.480669
v 0.807476 0.510171 -1.501073
v 0.807476 0.587519 -1.367101
v 0.832568 0.532674 -1.424751
v 0.807476 0.557664 -1.439179
v 0.807476 0.597703 -1.289753
v 0.832568 0.559647 -1.359633
v 0.807476 0.587519 -1.367101
v 0.807476 0.597703 -1.289753
v 0.832568 0.559647 -1.219874
v 0.832568 0.568846 -1.289753
v 0.807476 0.557664 -1.140328
v 0.832568 0.559647 -1.219874
v 0.807476 0.587519 -1.212405
v 0.807476 0.557664 -1.140328
v 0.832568 0.489767 -1.098838
v 0.832568 0.532674 -1.154756
v 0.807476 0.448277 -1.030941
v 0.832568 0.489767 -1.098838
v 0.807476 0.510171 -1.078434
v 0.807476 0.376199 -1.001086
v 0.832568 0.433849 -1.055931
v 0.807476 0.448277 -1.030941
v 0.807476 0.298851 -0.990902
v 0.832568 0.368731 -1.028958
v 0.807476 0.376199 -1.001086
v 0.807476 0.298851 -0.990902
v 0.832568 0.228972 -1.028958
v 0.832568 0.298851 -1.019758
v 0.807476 0.221503 -1.001086
v 0.832568 0.163854 -1.055931
v 0.832568 0.228972 -1.028958
v 0.807476 0.149426 -1.030941
v 0.832568 0.107936 -1.098838
v 0.832568 0.163854 -1.055931
v 0.807476 0.040039 -1.140328
v 0.832568 0.107936 -1.098838
v 0.807476 0.087532 -1.078434
v 0.807476 0.010184 -1.212405
v 0.832568 0.065029 -1.154756
v 0.807476 0.040039 -1.140328
v 0.807476 0.000000 -1.289753
v 0.832568 0.038056 -1.219874
v 0.807476 0.010184 -1.212405
v 0.807476 0.000000 -1.289753
v 0.832568 0.038056 -1.359633
v 0.832568 0.028856 -1.289753
v 0.807476 0.040039 -1.439179
v 0.832568 0.038056 -1.359633
v 0.807476 0.010184 -1.367101
v 0.807476 0.040039 -1.439179
v 0.832568 0.107936 -1.480669
v 0.832568 0.065029 -1.424751
v 0.807476 0.149426 -1.548566
v 0.832568 0.107936 -1.480669
v 0.807476 0.087532 -1.501073
v 0.807476 0.221503 -1.578421
v 0.832568 0.163854 -1.523576
v 0.807476 0.149426 -1.548566
v 0.807476 0.298851 -1.588605
v 0.832568 0.228972 -1.550549
v 0.807476 0.221503 -1.578421
v 0.832568 0.368731 -1.550549
v 0.838089 0.298851 -1.509564
v 0.832568 0.298851 -1.559748
v 0.832568 0.433849 -1.523576
v 0.838089 0.355742 -1.502074
v 0.832568 0.368731 -1.550549
v 0.832568 0.433849 -1.523576
v 0.838089 0.454280 -1.445182
v 0.838089 0.408756 -1.480115
v 0.832568 0.532674 -1.424751
v 0.838089 0.454280 -1.445182
v 0.832568 0.489767 -1.480669
v 0.832568 0.532674 -1.424751
v 0.838089 0.511172 -1.346644
v 0.838089 0.489213 -1.399658
v 0.832568 0.568846 -1.289753
v 0.838089 0.511172 -1.346644
v 0.832568 0.559647 -1.359633
v 0.832568 0.559647 -1.219874
v 0.838089 0.518662 -1.289753
v 0.832568 0.568846 -1.289753
v 0.832568 0.532674 -1.154756
v 0.838089 0.511172 -1.232863
v 0.832568 0.559647 -1.219874
v 0.832568 0.532674 -1.154756
v 0.838089 0.454280 -1.134325
v 0.838089 0.489213 -1.179848
v 0.832568 0.433849 -1.055931
v 0.838089 0.454280 -1.134325
v 0.832568 0.489767 -1.098838
v 0.832568 0.433849 -1.055931
v 0.838089 0.355742 -1.077433
v 0.838089 0.408756 -1.099392
v 0.832568 0.298851 -1.019758
v 0.838089 0.355742 -1.077433
v 0.832568 0.368731 -1.028958
v 0.832568 0.228972 -1.028958
v 0.838089 0.298851 -1.069943
v 0.832568 0.298851 -1.019758
v 0.832568 0.163854 -1.055931
v 0.838089 0.241961 -1.077433
v 0.832568 0.228972 -1.028958
v 0.832568 0.163854 -1.055931
v 0.838089 0.143423 -1.134325
v 0.838089 0.188946 -1.099392
v 0.832568 0.065029 -1.154756
v 0.838089 0.143423 -1.134325
v 0.832568 0.107936 -1.098838
v 0.832568 0.065029 -1.154756
v 0.838089 0.086531 -1.232863
v 0.838089 0.108490 -1.179848
v 0.832568 0.028856 -1.289753
v 0.838089 0.086531 -1.232863
v 0.832568 0.038056 -1.219874
v 0.832568 0.038056 -1.359633
v 0.838089 0.079041 -1.289753
v 0.832568 0.028856 -1.289753
v 0.832568 0.065029 -1.424751
v 0.838089 0.086531 -1.346644
v 0.832568 0.038056 -1.359633
v 0.832568 0.065029 -1.424751
v 0.838089 0.143423 -1.445182
v 0.838089 0.108490 -1.399658
v 0.832568 0.163854 -1.523576
v 0.838089 0.143423 -1.445182
v 0.832568 0.107936 -1.480669
v 0.832568 0.163854 -1.523576
v 0.838089 0.241961 -1.502074
v 0.838089 0.188946 -1.480115
v 0.832568 0.298851 -1.559748
v 0.838089 0.241961 -1.502074
v 0.832568 0.228972 -1.550549
v 0.838089 0.298851 -1.289753
v 0.838089 0.298851 -1.509564
v 0.838089 0.355742 -1.502074
v 0.838089 0.408756 -1.480115
v 0.838089 0.454280 -1.445182
v 0.838089 0.489213 -1.399658
v 0.838089 0.511172 -1.346644
v 0.838089 0.518662 -1.289753
v 0.838089 0.511172 -1.232863
v 0.838089 0.489213 -1.179848
v 0.838089 0.454280 -1.134325
v 0.838089 0.408756 -1.099392
v 0.838089 0.355742 -1.077433
v 0.838089 0.298851 -1.069943
v 0.838089 0.241961 -1.077433
v 0.838089 0.188946 -1.099392
v 0.838089 0.143423 -1.134325
v 0.838089 0.108490 -1.179848
v 0.838089 0.086531 -1.232863
v 0.838089 0.079041 -1.289753
v 0.838089 0.086531 -1.346644
v 0.838089 0.108490 -1.399658
v 0.838089 0.143423 -1.445182
v 0.838089 0.188946 -1.480115
v 0.838089 0.241961 -1.502074
v 0.642367 0.298851 -1.289753
v 0.642367 0.355742 -1.502074
v 0.642367 0.298851 -1.509564
v 0.642367 0.408756 -1.480115
v 0.642367 0.454280 -1.445182
v 0.642367 0.489213 -1.399658
v 0.642367 0.511172 -1.346644
v 0.642367 0.518662 -1.289753
v 0.642367 0.511172 -1.232863
v 0.642367 0.489213 -1.179848
v 0.642367 0.454280 -1.134325
v 0.642367 0.408756 -1.099392
v 0.642367 0.355742 -1.077433
v 0.642367 0.298851 -1.069943
v 0.642367 0.241961 -1.077433
v 0.642367 0.188946 -1.099392
v 0.642367 0.143423 -1.134325
v 0.642367 0.108490 -1.179848
v 0.642367 0.086531 -1.232863
v 0.642367 0.079041 -1.289753
v 0.642367 0.086531 -1.346644
v 0.642367 0.108490 -1.399658
v 0.642367 0.143423 -1.445182
v 0.642367 0.188946 -1.480115
v 0.642367 0.241961 -1.502074
v 0.647888 0.368731 -1.550549
v 0.642367 0.408756 -1.480115
v 0.647888 0.489767 -1.480669
v 0.642367 0.489213 -1.399658
v 0.647888 0.559647 -1.359633
v 0.647888 0.568846 -1.289753
v 0.647888 0.559647 -1.219874
v 0.642367 0.489213 -1.179848
v 0.647888 0.489767 -1.098838
v 0.642367 0.408756 -1.099392
v 0.647888 0.368731 -1.028958
v 0.647888 0.298851 -1.019758
v 0.647888 0.228972 -1.028958
v 0.642367 0.188946 -1.099392
v 0.647888 0.107936 -1.098838
v 0.642367 0.108490 -1.179848
v 0.647888 0.038056 -1.219874
v 0.647888 0.028856 -1.289753
v 0.647888 0.038056 -1.359633
v 0.642367 0.108490 -1.399658
v 0.647888 0.107936 -1.480669
v 0.642367 0.188946 -1.480115
v 0.647888 0.228972 -1.550549
v 0.647888 0.298851 -1.559748
v 0.672980 0.376199 -1.578421
v 0.672980 0.448277 -1.548566
v 0.672980 0.510171 -1.501073
v 0.647888 0.532674 -1.424751
v 0.672980 0.587519 -1.367101
v 0.647888 0.568846 -1.289753
v 0.672980 0.587519 -1.212405
v 0.672980 0.557664 -1.140328
v 0.672980 0.510171 -1.078434
v 0.647888 0.433849 -1.055931
v 0.647888 0.368731 -1.028958
v 0.647888 0.298851 -1.019758
v 0.672980 0.221503 -1.001086
v 0.672980 0.149426 -1.030941
v 0.672980 0.087532 -1.078434
v 0.647888 0.065029 -1.154756
v 0.672980 0.010184 -1.212405
v 0.647888 0.028856 -1.289753
v 0.672980 0.010184 -1.367101
v 0.672980 0.040039 -1.439179
v 0.672980 0.087532 -1.501073
v 0.647888 0.163854 -1.523576
v 0.647888 0.228972 -1.550549
v 0.647888 0.298851 -1.559748
v 0.807476 0.376199 -1.578421
v 0.807476 0.448277 -1.548566
v 0.807476 0.510171 -1.501073
v 0.807476 0.557664 -1.439179
v 0.807476 0.587519 -1.367101
v 0.807476 0.597703 -1.289753
v 0.807476 0.587519 -1.212405
v 0.807476 0.557664 -1.140328
v 0.807476 0.510171 -1.078434
v 0.807476 0.448277 -1.030941
v 0.807476 0.376199 -1.001086
v 0.807476 0.298851 -0.990902
v 0.807476 0.221503 -1.001086
v 0.807476 0.149426 -1.030941
v 0.807476 0.087532 -1.078434
v 0.807476 0.040039 -1.140328
v 0.807476 0.010184 -1.212405
v 0.807476 0.000000 -1.289753
v 0.807476 0.010184 -1.367101
v 0.807476 0.040039 -1.439179
v 0.807476 0.087532 -1.501073
v 0.807476 0.149426 -1.548566
v 0.807476 0.221503 -1.578421
v 0.807476 0.298851 -1.588605
v 0.807476 0.376199 -1.578421
v 0.807476 0.448277 -1.548566
v 0.807476 0.510171 -1.501073
v 0.832568 0.532674 -1.424751
v 0.832568 0.559647 -1.359633
v 0.832568 0.568846 -1.289753
v 0.807476 0.587519 -1.212405
v 0.832568 0.532674 -1.154756
v 0.807476 0.510171 -1.078434
v 0.832568 0.433849 -1.055931
v 0.832568 0.368731 -1.028958
v 0.832568 0.298851 -1.019758
v 0.807476 0.221503 -1.001086
v 0.807476 0.149426 -1.030941
v 0.807476 0.087532 -1.078434
v 0.832568 0.065029 -1.154756
v 0.832568 0.038056 -1.219874
v 0.832568 0.028856 -1.289753
v 0.807476 0.010184 -1.367101
v 0.832568 0.065029 -1.424751
v 0.807476 0.087532 -1.501073
v 0.832568 0.163854 -1.523576
v 0.832568 0.228972 -1.550549
v 0.832568 0.298851 -1.559748
v 0.838089 0.355742 -1.502074
v 0.838089 0.408756 -1.480115
v 0.832568 0.489767 -1.480669
v 0.838089 0.489213 -1.399658
v 0.832568 0.559647 -1.359633
v 0.838089 0.518662 -1.289753
v 0.838089 0.511172 -1.232863
v 0.838089 0.489213 -1.179848
v 0.832568 0.489767 -1.098838
v 0.838089 0.408756 -1.099392
v 0.832568 0.368731 -1.028958
v 0.838089 0.298851 -1.069943
v 0.838089 0.241961 -1.077433
v 0.838089 0.188946 -1.099392
v 0.832568 0.107936 -1.098838
v 0.838089 0.108490 -1.179848
v 0.832568 0.038056 -1.219874
v 0.838089 0.079041 -1.289753
v 0.838089 0.086531 -1.346644
v 0.838089 0.108490 -1.399658
v 0.832568 0.107936 -1.480669
v 0.838089 0.188946 -1.480115
v 0.832568 0.228972 -1.550549
v 0.838089 0.298851 -1.509564
vt 0.164062 0.082031
vt 0.164062 0.023438
vt 0.175781 0.082031
vt 0.175781 0.023438
vt 0.187500 0.082031
vt 0.187500 0.023438
vt 0.199219 0.082031
vt 0.199219 0.023438
vt 0.210938 0.082031
vt 0.210938 0.023438
vt 0.436523 0.220703
vt 0.495007 0.252044
vt 0.497070 0.220703
vt 0.488959 0.281250
vt 0.479337 0.306329
vt 0.466797 0.325573
vt 0.452194 0.337671
vt 0.436523 0.341797
vt 0.420853 0.337671
vt 0.406250 0.325573
vt 0.393710 0.306329
vt 0.384088 0.281250
vt 0.378040 0.252044
vt 0.375977 0.220703
vt 0.378040 0.189362
vt 0.384088 0.160156
vt 0.393710 0.135077
vt 0.406250 0.115833
vt 0.420853 0.103736
vt 0.436523 0.099609
vt 0.452194 0.103736
vt 0.466797 0.115833
vt 0.479337 0.135077
vt 0.488959 0.160156
vt 0.495007 0.189362
vt 0.185547 0.042969
vt 0.164062 0.082031
vt 0.164062 0.023438
vt 0.175781 0.082031
vt 0.175781 0.023438
vt 0.187500 0.082031
vt 0.187500 0.023438
vt 0.199219 0.082031
vt 0.199219 0.023438
vt 0.210938 0.082031
vt 0.210938 0.023438
vt 0.436523 0.220703
vt 0.497070 0.220703
vt 0.495007 0.252044
vt 0.488959 0.281250
vt 0.479337 0.306329
vt 0.466797 0.325573
vt 0.452194 0.337671
vt 0.436523 0.341797
vt 0.420853 0.337671
vt 0.406250 0.325573
vt 0.393710 0.306329
vt 0.384088 0.281250
vt 0.378040 0.252044
vt 0.375977 0.220703
vt 0.378040 0.189362
vt 0.384088 0.160156
vt 0.393710 0.135077
vt 0.406250 0.115833
vt 0.420853 0.103736
vt 0.436523 0.099609
vt 0.452194 0.103736
vt 0.466797 0.115833
vt 0.479337 0.135077
vt 0.488959 0.160156
vt 0.495007 0.189362
vt 0.185547 0.042969
vn -0.998200 0.015300 -0.057300
vn -0.906800 0.000000 -0.421500
vn -0.998200 0.000000 -0.059300
vn -0.906900 0.210700 -0.365000
vn -0.906900 0.109100 -0.407100
vn -0.998200 0.041900 -0.041900
vn -0.998200 0.029600 -0.051400
vn -0.906900 0.365000 -0.210700
vn -0.906900 0.298000 -0.298000
vn -0.998200 0.057300 -0.015300
vn -0.998200 0.051400 -0.029600
vn -0.998200 0.059300 0.000000
vn -0.906900 0.407100 -0.109100
vn -0.998200 0.057300 0.015300
vn -0.906800 0.421500 0.000000
vn -0.906900 0.365000 0.210700
vn -0.906900 0.407100 0.109100
vn -0.998200 0.041900 0.041900
vn -0.998200 0.051400 0.029600
vn -0.906900 0.210700 0.365000
vn -0.906900 0.298000 0.298000
vn -0.998200 0.015300 0.057300
vn -0.998200 0.029600 0.051400
vn -0.998200 0.000000 0.059300
vn -0.906900 0.109100 0.407100
vn -0.998200 -0.015300 0.057300
vn -0.906800 0.000000 0.421500
vn -0.906900 -0.210700 0.365000
vn -0.906900 -0.109100 0.407100
vn -0.998200 -0.041900 0.041900
vn -0.998200 -0.029600 0.051400
vn -0.906900 -0.365000 0.210700
vn -0.906900 -0.298000 0.298000
vn -0.998200 -0.057300 0.015300
vn -0.998200 -0.051400 0.029600
vn -0.998200 -0.059300 0.000000
vn -0.906900 -0.407100 0.109100
vn -0.998200 -0.057300 -0.015300
vn -0.906800 -0.421500 0.000000
vn -0.906900 -0.365000 -0.210700
vn -0.906900 -0.407100 -0.109100
vn -0.998200 -0.041900 -0.041900
vn -0.998200 -0.051400 -0.029600
vn -0.906900 -0.210700 -0.365000
vn -0.906900 -0.298000 -0.298000
vn -0.998200 -0.015300 -0.057300
vn -0.998200 -0.029600 -0.051400
vn -0.906900 -0.109100 -0.407100
vn -0.906800 0.109100 -0.407100
vn -0.402100 0.000000 -0.915600
vn -0.906800 0.210700 -0.365000
vn -0.402200 0.237000 -0.884300
vn -0.906800 0.109100 -0.407200
vn -0.906800 0.298000 -0.298100
vn -0.402200 0.457800 -0.792900
vn -0.906800 0.298100 -0.298000
vn -0.402100 0.792900 -0.457800
vn -0.402200 0.647400 -0.647400
vn -0.906800 0.407200 -0.109200
vn -0.906800 0.365000 -0.210700
vn -0.906800 0.407100 -0.109100
vn -0.402100 0.915600 0.000000
vn -0.402200 0.884400 -0.237000
vn -0.906800 0.407100 0.109100
vn -0.906800 0.365000 0.210700
vn -0.402200 0.884300 0.237000
vn -0.906800 0.407200 0.109100
vn -0.906800 0.298100 0.298000
vn -0.402200 0.792900 0.457800
vn -0.906800 0.298000 0.298100
vn -0.402200 0.457800 0.792900
vn -0.402200 0.647400 0.647400
vn -0.906800 0.210700 0.365000
vn -0.402200 0.237000 0.884400
vn -0.906800 0.109100 0.407100
vn -0.402100 0.000000 0.915600
vn -0.906800 -0.109100 0.407100
vn -0.906800 -0.210700 0.365000
vn -0.402200 -0.237000 0.884300
vn -0.906800 -0.109100 0.407200
vn -0.906800 -0.298000 0.298100
vn -0.402200 -0.457800 0.792900
vn -0.906800 -0.298100 0.298000
vn -0.402100 -0.792900 0.457800
vn -0.402200 -0.647400 0.647400
vn -0.906800 -0.407200 0.109200
vn -0.906800 -0.365000 0.210700
vn -0.906800 -0.407100 0.109100
vn -0.402100 -0.915600 0.000000
vn -0.402200 -0.884400 0.237000
vn -0.906800 -0.407100 -0.109100
vn -0.906800 -0.365000 -0.210700
vn -0.402200 -0.884300 -0.237000
vn -0.906800 -0.407200 -0.109100
vn -0.906800 -0.298100 -0.298000
vn -0.402200 -0.792900 -0.457800
vn -0.906800 -0.298000 -0.298100
vn -0.402200 -0.457800 -0.792900
vn -0.402200 -0.647400 -0.647400
vn -0.906800 -0.210700 -0.365000
vn -0.402200 -0.237000 -0.884400
vn -0.906800 -0.109100 -0.407100
vn -0.402100 0.237000 -0.884400
vn 0.402100 0.000000 -0.915600
vn 0.402200 0.237000 -0.884400
vn 0.402200 0.457800 -0.792900
vn -0.402100 0.457800 -0.792900
vn 0.402200 0.647400 -0.647400
vn -0.402100 0.647400 -0.647400
vn 0.402100 0.792900 -0.457800
vn 0.402100 0.884400 -0.237000
vn -0.402200 0.884400 0.237000
vn 0.402100 0.915600 0.000000
vn 0.402200 0.884400 0.237000
vn -0.402100 0.884400 0.237000
vn 0.402100 0.792900 0.457800
vn -0.402100 0.792900 0.457800
vn 0.402200 0.647400 0.647400
vn -0.402100 0.647400 0.647400
vn 0.402100 0.457800 0.792900
vn -0.402100 0.457800 0.792900
vn 0.402100 0.237000 0.884400
vn -0.402100 -0.237000 0.884400
vn 0.402100 0.000000 0.915600
vn 0.402200 -0.237000 0.884400
vn 0.402200 -0.457800 0.792900
vn -0.402100 -0.457800 0.792900
vn 0.402200 -0.647400 0.647400
vn -0.402100 -0.647400 0.647400
vn 0.402100 -0.792900 0.457800
vn 0.402100 -0.884400 0.237000
vn -0.402200 -0.884400 -0.237000
vn 0.402100 -0.915600 0.000000
vn 0.402200 -0.884400 -0.237000
vn -0.402100 -0.884400 -0.237000
vn 0.402100 -0.792900 -0.457800
vn -0.402100 -0.792900 -0.457800
vn 0.402200 -0.647400 -0.647400
vn -0.402100 -0.647400 -0.647400
vn 0.402100 -0.457800 -0.792900
vn -0.402100 -0.457800 -0.792900
vn 0.402100 -0.237000 -0.884400
vn 0.906800 0.109100 -0.407100
vn 0.906800 0.000000 -0.421500
vn 0.906800 0.210700 -0.365000
vn 0.906800 0.109200 -0.407200
vn 0.906800 0.298000 -0.298100
vn 0.906800 0.210800 -0.365000
vn 0.402200 0.792900 -0.457800
vn 0.906800 0.298100 -0.298000
vn 0.402200 0.884300 -0.237000
vn 0.906800 0.365000 -0.210700
vn 0.906800 0.407100 -0.109100
vn 0.906800 0.407100 0.109100
vn 0.906800 0.421500 0.000000
vn 0.906800 0.407200 0.109200
vn 0.906800 0.298100 0.298000
vn 0.906800 0.365000 0.210800
vn 0.402200 0.457800 0.792900
vn 0.906800 0.298000 0.298100
vn 0.402200 0.237000 0.884300
vn 0.906800 0.210700 0.365000
vn 0.906800 0.109100 0.407100
vn 0.906800 -0.109100 0.407100
vn 0.906800 0.000000 0.421500
vn 0.906800 -0.210700 0.365000
vn 0.906800 -0.109200 0.407200
vn 0.906800 -0.298000 0.298100
vn 0.906800 -0.210800 0.365000
vn 0.402200 -0.792900 0.457800
vn 0.906800 -0.298100 0.298000
vn 0.402200 -0.884300 0.237000
vn 0.906800 -0.365000 0.210700
vn 0.906800 -0.407100 0.109100
vn 0.906800 -0.407100 -0.109100
vn 0.906800 -0.421500 0.000000
vn 0.906800 -0.407200 -0.109200
vn 0.906800 -0.298100 -0.298000
vn 0.906800 -0.365000 -0.210800
vn 0.402200 -0.457800 -0.792900
vn 0.906800 -0.298000 -0.298100
vn 0.402200 -0.237000 -0.884300
vn 0.906800 -0.210700 -0.365000
vn 0.906800 -0.109100 -0.407100
vn 0.906900 0.109100 -0.407100
vn 0.998200 0.000000 -0.059300
vn 0.906900 0.210700 -0.365000
vn 0.998200 0.015300 -0.057300
vn 0.998200 0.041900 -0.041900
vn 0.998200 0.029600 -0.051400
vn 0.906900 0.365000 -0.210700
vn 0.906900 0.298000 -0.298000
vn 0.998200 0.057300 -0.015300
vn 0.998200 0.051400 -0.029600
vn 0.906900 0.407100 -0.109100
vn 0.906900 0.407100 0.109100
vn 0.998200 0.059300 0.000000
vn 0.906900 0.365000 0.210700
vn 0.998200 0.057300 0.015300
vn 0.998200 0.041900 0.041900
vn 0.998200 0.051400 0.029600
vn 0.906900 0.210700 0.365000
vn 0.906900 0.298000 0.298000
vn 0.998200 0.015300 0.057300
vn 0.998200 0.029600 0.051400
vn 0.906900 0.109100 0.407100
vn 0.906900 -0.109100 0.407100
vn 0.998200 0.000000 0.059300
vn 0.906900 -0.210700 0.365000
vn 0.998200 -0.015300 0.057300
vn 0.998200 -0.041900 0.041900
vn 0.998200 -0.029600 0.051400
vn 0.906900 -0.365000 0.210700
vn 0.906900 -0.298000 0.298000
vn 0.998200 -0.057300 0.015300
vn 0.998200 -0.051400 0.029600
vn 0.906900 -0.407100 0.109100
vn 0.906900 -0.407100 -0.109100
vn 0.998200 -0.059300 0.000000
vn 0.906900 -0.365000 -0.210700
vn 0.998200 -0.057300 -0.015300
vn 0.998200 -0.041900 -0.041900
vn 0.998200 -0.051400 -0.029600
vn 0.906900 -0.210700 -0.365000
vn 0.906900 -0.298000 -0.298000
vn 0.998200 -0.015300 -0.057300
vn 0.998200 -0.029600 -0.051400
vn 0.906900 -0.109100 -0.407100
vn -1.000000 0.000000 0.000000
vn 1.000000 0.000000 0.000000
vn -0.906800 0.365000 -0.210800
vn -0.906800 0.210800 0.365000
vn -0.906800 0.109200 0.407200
vn -0.906800 -0.365000 0.210800
vn -0.906800 -0.210800 -0.365000
vn -0.906800 -0.109200 -0.407200
vn 0.402100 0.457800 -0.792900
vn 0.402100 0.647400 -0.647400
vn 0.402100 0.884400 0.237000
vn 0.402100 0.647400 0.647400
vn 0.402100 -0.457800 0.792900
vn 0.402100 -0.647400 0.647400
vn 0.402100 -0.884400 -0.237000
vn 0.402100 -0.647400 -0.647400
vn 0.906800 0.407200 -0.109100
vn 0.906800 0.365000 0.210700
vn 0.906800 0.109100 0.407200
vn 0.906800 -0.407200 0.109100
vn 0.906800 -0.365000 -0.210700
vn 0.906800 -0.109100 -0.407200
vn -0.998200 0.015300 -0.057300
vn -0.906800 0.000000 -0.421500
vn -0.998200 0.000000 -0.059300
vn -0.906900 0.210700 -0.365000
vn -0.906900 0.109100 -0.407100
vn -0.998200 0.041900 -0.041900
vn -0.998200 0.029600 -0.051400
vn -0.906900 0.365000 -0.210700
vn -0.906900 0.298000 -0.298000
vn -0.998200 0.057300 -0.015300
vn -0.998200 0.051400 -0.029600
vn -0.998200 0.059300 0.000000
vn -0.906900 0.407100 -0.109100
vn -0.998200 0.057300 0.015300
vn -0.906800 0.421500 0.000000
vn -0.906900 0.365000 0.210700
vn -0.906900 0.407100 0.109100
vn -0.998200 0.041900 0.041900
vn -0.998200 0.051400 0.029600
vn -0.906900 0.210700 0.365000
vn -0.906900 0.298000 0.298000
vn -0.998200 0.015300 0.057300
vn -0.998200 0.029600 0.051400
vn -0.998200 0.000000 0.059300
vn -0.906900 0.109100 0.407100
vn -0.998200 -0.015300 0.057300
vn -0.906800 0.000000 0.421500
vn -0.906900 -0.210700 0.365000
vn -0.906900 -0.109100 0.407100
vn -0.998200 -0.041900 0.041900
vn -0.998200 -0.029600 0.051400
vn -0.906900 -0.365000 0.210700
vn -0.906900 -0.298000 0.298000
vn -0.998200 -0.057300 0.015300
vn -0.998200 -0.051400 0.029600
vn -0.998200 -0.059300 0.000000
vn -0.906900 -0.407100 0.109100
vn -0.998200 -0.057300 -0.015300
vn -0.906800 -0.421500 0.000000
vn -0.906900 -0.365000 -0.210700
vn -0.906900 -0.407100 -0.109100
vn -0.998200 -0.041900 -0.041900
vn -0.998200 -0.051400 -0.029600
vn -0.906900 -0.210700 -0.365000
vn -0.906900 -0.298000 -0.298000
vn -0.998200 -0.015300 -0.057300
vn -0.998200 -0.029600 -0.051400
vn -0.906900 -0.109100 -0.407100
vn -0.906800 0.109100 -0.407100
vn -0.402100 0.000000 -0.915600
vn -0.906800 0.210700 -0.365000
vn -0.402200 0.237000 -0.884300
vn -0.906800 0.109100 -0.407200
vn -0.906800 0.298000 -0.298100
vn -0.402200 0.457800 -0.792900
vn -0.906800 0.298100 -0.298000
vn -0.402100 0.792900 -0.457800
vn -0.402200 0.647400 -0.647400
vn -0.906800 0.407200 -0.109200
vn -0.906800 0.365000 -0.210700
vn -0.906800 0.407100 -0.109100
vn -0.402100 0.915600 0.000000
vn -0.402200 0.884400 -0.237000
vn -0.906800 0.407100 0.109100
vn -0.906800 0.365000 0.210700
vn -0.402200 0.884300 0.237000
vn -0.906800 0.407200 0.109100
vn -0.906800 0.298100 0.298000
vn -0.402200 0.792900 0.457800
vn -0.906800 0.298000 0.298100
vn -0.402200 0.457800 0.792900
vn -0.402200 0.647400 0.647400
vn -0.906800 0.210700 0.365000
vn -0.402200 0.237000 0.884400
vn -0.906800 0.109100 0.407100
vn -0.402100 0.000000 0.915600
vn -0.906800 -0.109100 0.407100
vn -0.906800 -0.210700 0.365000
vn -0.402200 -0.237000 0.884300
vn -0.906800 -0.109100 0.407200
vn -0.906800 -0.298000 0.298100
vn -0.402200 -0.457800 0.792900
vn -0.906800 -0.298100 0.298000
vn -0.402100 -0.792900 0.457800
vn -0.402200 -0.647400 0.647400
vn -0.906800 -0.407200 0.109200
vn -0.906800 -0.365000 0.210700
vn -0.906800 -0.407100 0.109100
vn -0.402100 -0.915600 0.000000
vn -0.402200 -0.884400 0.237000
vn -0.906800 -0.407100 -0.109100
vn -0.906800 -0.365000 -0.210700
vn -0.402200 -0.884300 -0.237000
vn -0.906800 -0.407200 -0.109100
vn -0.906800 -0.298100 -0.298000
vn -0.402200 -0.792900 -0.457800
vn -0.906800 -0.298000 -0.298100
vn -0.402200 -0.457800 -0.792900
vn -0.402200 -0.647400 -0.647400
vn -0.906800 -0.210700 -0.365000
vn -0.402200 -0.237000 -0.884400
vn -0.906800 -0.109100 -0.407100
vn -0.402100 0.237000 -0.884400
vn 0.402100 0.000000 -0.915600
vn 0.402200 0.237000 -0.884400
vn 0.402200 0.457800 -0.792900
vn -0.402100 0.457800 -0.792900
vn 0.402200 0.647400 -0.647400
vn -0.402100 0.647400 -0.647400
vn 0.402100 0.792900 -0.457800
vn 0.402100 0.884400 -0.237000
vn -0.402200 0.884400 0.237000
vn 0.402100 0.915600 0.000000
vn 0.402200 0.884400 0.237000
vn -0.402100 0.884400 0.237000
vn 0.402100 0.792900 0.457800
vn -0.402100 0.792900 0.457800
vn 0.402200 0.647400 0.647400
vn -0.402100 0.647400 0.647400
vn 0.402100 0.457800 0.792900
vn -0.402100 0.457800 0.792900
vn 0.402100 0.237000 0.884400
vn -0.402100 -0.237000 0.884400
vn 0.402100 0.000000 0.915600
vn 0.402200 -0.237000 0.884400
vn 0.402200 -0.457800 0.792900
vn -0.402100 -0.457800 0.792900
vn 0.402200 -0.647400 0.647400
vn -0.402100 -0.647400 0.647400
vn 0.402100 -0.792900 0.457800
vn 0.402100 -0.884400 0.237000
vn -0.402200 -0.884400 -0.237000
vn 0.402100 -0.915600 0.000000
vn 0.402200 -0.884400 -0.237000
vn -0.402100 -0.884400 -0.237000
vn 0.402100 -0.792900 -0.457800
vn -0.402100 -0.792900 -0.457800
vn 0.402200 -0.647400 -0.647400
vn -0.402100 -0.647400 -0.647400
vn 0.402100 -0.457800 -0.792900
vn -0.402100 -0.457800 -0.792900
vn 0.402100 -0.237000 -0.884400
vn 0.906800 0.109100 -0.407100
vn 0.906800 0.000000 -0.421500
vn 0.906800 0.210700 -0.365000
vn 0.906800 0.109200 -0.407200
vn 0.906800 0.298000 -0.298100
vn 0.906800 0.210800 -0.365000
vn 0.402200 0.792900 -0.457800
vn 0.906800 0.298100 -0.298000
vn 0.402200 0.884300 -0.237000
vn 0.906800 0.365000 -0.210700
vn 0.906800 0.407100 -0.109100
vn 0.906800 0.407100 0.109100
vn 0.906800 0.421500 0.000000
vn 0.906800 0.407200 0.109200
vn 0.906800 0.298100 0.298000
vn 0.906800 0.365000 0.210800
vn 0.402200 0.457800 0.792900
vn 0.906800 0.298000 0.298100
vn 0.402200 0.237000 0.884300
vn 0.906800 0.210700 0.365000
vn 0.906800 0.109100 0.407100
vn 0.906800 -0.109100 0.407100
vn 0.906800 0.000000 0.421500
vn 0.906800 -0.210700 0.365000
vn 0.906800 -0.109200 0.407200
vn 0.906800 -0.298000 0.298100
vn 0.906800 -0.210800 0.365000
vn 0.402200 -0.792900 0.457800
vn 0.906800 -0.298100 0.298000
vn 0.402200 -0.884300 0.237000
vn 0.906800 -0.365000 0.210700
vn 0.906800 -0.407100 0.109100
vn 0.906800 -0.407100 -0.109100
vn 0.906800 -0.421500 0.000000
vn 0.906800 -0.407200 -0.109200
vn 0.906800 -0.298100 -0.298000
vn 0.906800 -0.365000 -0.210800
vn 0.402200 -0.457800 -0.792900
vn 0.906800 -0.298000 -0.298100
vn 0.402200 -0.237000 -0.884300
vn 0.906800 -0.210700 -0.365000
vn 0.906800 -0.109100 -0.407100
vn 0.906900 0.109100 -0.407100
vn 0.998200 0.000000 -0.059300
vn 0.906900 0.210700 -0.365000
vn 0.998200 0.015300 -0.057300
vn 0.998200 0.041900 -0.041900
vn 0.998200 0.029600 -0.051400
vn 0.906900 0.365000 -0.210700
vn 0.906900 0.298000 -0.298000
vn 0.998200 0.057300 -0.015300
vn 0.998200 0.051400 -0.029600
vn 0.906900 0.407100 -0.109100
vn 0.906900 0.407100 0.109100
vn 0.998200 0.059300 0.000000
vn 0.906900 0.365000 0.210700
vn 0.998200 0.057300 0.015300
vn 0.998200 0.041900 0.041900
vn 0.998200 0.051400 0.029600
vn 0.906900 0.210700 0.365000
vn 0.906900 0.298000 0.298000
vn 0.998200 0.015300 0.057300
vn 0.998200 0.029600 0.051400
vn 0.906900 0.109100 0.407100
vn 0.906900 -0.109100 0.407100
vn 0.998200 0.000000 0.059300
vn 0.906900 -0.210700 0.365000
vn 0.998200 -0.015300 0.057300
vn 0.998200 -0.041900 0.041900
vn 0.998200 -0.029600 0.051400
vn 0.906900 -0.365000 0.210700
vn 0.906900 -0.298000 0.298000
vn 0.998200 -0.057300 0.015300
vn 0.998200 -0.051400 0.029600
vn 0.906900 -0.407100 0.109100
vn 0.906900 -0.407100 -0.109100
vn 0.998200 -0.059300 0.000000
vn 0.906900 -0.365000 -0.210700
vn 0.998200 -0.057300 -0.015300
vn 0.998200 -0.041900 -0.041900
vn 0.998200 -0.051400 -0.029600
vn 0.906900 -0.210700 -0.365000
vn 0.906900 -0.298000 -0.298000
vn 0.998200 -0.015300 -0.057300
vn 0.998200 -0.029600 -0.051400
vn 0.906900 -0.109100 -0.407100
vn 1.000000 0.000000 0.000000
vn -1.000000 0.000000 0.000000
vn -0.906800 0.365000 -0.210800
vn -0.906800 0.210800 0.365000
vn -0.906800 0.109200 0.407200
vn -0.906800 -0.365000 0.210800
vn -0.906800 -0.210800 -0.365000
vn -0.906800 -0.109200 -0.407200
vn 0.402100 0.457800 -0.792900
vn 0.402100 0.647400 -0.647400
vn 0.402100 0.884400 0.237000
vn 0.402100 0.647400 0.647400
vn 0.402100 -0.457800 0.792900
vn 0.402100 -0.647400 0.647400
vn 0.402100 -0.884400 -0.237000
vn 0.402100 -0.647400 -0.647400
vn 0.906800 0.407200 -0.109100
vn 0.906800 0.365000 0.210700
vn 0.906800 0.109100 0.407200
vn 0.906800 -0.407200 0.109100
vn 0.906800 -0.365000 -0.210700
vn 0.906800 -0.109100 -0.407200
o civic_eg_wheels_f
usemtl civic_eg_wheels_f
f 1/1/1 2/1/2 3/1/3
f 4/2/1 5/2/4 6/2/5
f 7/1/6 8/1/4 9/1/7
f 10/2/6 11/2/8 12/2/9
f 13/1/10 14/1/8 15/1/11
f 16/2/12 17/2/13 18/2/10
f 19/1/14 20/1/15 21/1/12
f 22/2/14 23/2/16 24/2/17
f 25/1/18 26/1/16 27/1/19
f 28/2/18 29/2/20 30/2/21
f 31/1/22 32/1/20 33/1/23
f 34/2/24 35/2/25 36/2/22
f 37/1/26 38/1/27 39/1/24
f 40/2/26 41/2/28 42/2/29
f 43/1/30 44/1/28 45/1/31
f 46/2/30 47/2/32 48/2/33
f 49/1/34 50/1/32 51/1/35
f 52/2/36 53/2/37 54/2/34
f 55/1/38 56/1/39 57/1/36
f 58/2/38 59/2/40 60/2/41
f 61/1/42 62/1/40 63/1/43
f 64/2/42 65/2/44 66/2/45
f 67/1/46 68/1/44 69/1/47
f 70/2/3 71/2/48 72/2/46
f 73/3/49 74/3/50 75/3/2
f 76/4/51 77/4/52 78/4/53
f 79/3/54 80/3/55 81/3/51
f 82/4/56 83/4/57 84/4/58
f 85/3/59 86/3/57 87/3/60
f 88/4/61 89/4/62 90/4/63
f 91/3/64 92/3/62 93/3/15
f 94/4/65 95/4/66 96/4/67
f 97/3/68 98/3/69 99/3/65
f 100/4/70 101/4/71 102/4/72
f 103/3/73 104/3/74 105/3/71
f 106/4/75 107/4/76 108/4/74
f 109/3/77 110/3/76 111/3/27
f 112/4/78 113/4/79 114/4/80
f 115/3/81 116/3/82 117/3/78
f 118/4/83 119/4/84 120/4/85
f 121/3/86 122/3/84 123/3/87
f 124/4/88 125/4/89 126/4/90
f 127/3/91 128/3/89 129/3/39
f 130/4/92 131/4/93 132/4/94
f 133/3/95 134/3/96 135/3/92
f 136/4/97 137/4/98 138/4/99
f 139/3/100 140/3/101 141/3/98
f 142/4/102 143/4/50 144/4/101
f 145/5/103 146/5/104 147/5/50
f 148/6/55 149/6/105 150/6/103
f 151/5/58 152/5/106 153/5/107
f 154/6/57 155/6/108 156/6/109
f 157/5/63 158/5/110 159/5/57
f 160/6/62 161/6/111 162/6/63
f 163/5/112 164/5/113 165/5/62
f 166/6/69 167/6/114 168/6/115
f 169/5/72 170/5/116 171/5/117
f 172/6/71 173/6/118 174/6/119
f 175/5/74 176/5/120 177/5/121
f 178/6/76 179/6/122 180/6/74
f 181/5/123 182/5/124 183/5/76
f 184/6/82 185/6/125 186/6/123
f 187/5/85 188/5/126 189/5/127
f 190/6/84 191/6/128 192/6/129
f 193/5/90 194/5/130 195/5/84
f 196/6/89 197/6/131 198/6/90
f 199/5/132 200/5/133 201/5/89
f 202/6/96 203/6/134 204/6/135
f 205/5/99 206/5/136 207/5/137
f 208/6/98 209/6/138 210/6/139
f 211/5/101 212/5/140 213/5/141
f 214/6/50 215/6/142 216/6/101
f 217/7/104 218/7/143 219/7/144
f 220/8/105 221/8/145 222/8/146
f 223/7/106 224/7/147 225/7/148
f 226/8/149 227/8/150 228/8/108
f 229/7/151 230/7/152 231/7/149
f 232/8/113 233/8/153 234/8/151
f 235/7/113 236/7/154 237/7/155
f 238/8/116 239/8/156 240/8/114
f 241/7/116 242/7/157 243/7/158
f 244/8/159 245/8/160 246/8/118
f 247/7/161 248/7/162 249/7/159
f 250/8/124 251/8/163 252/8/161
f 253/7/124 254/7/164 255/7/165
f 256/8/125 257/8/166 258/8/167
f 259/7/126 260/7/168 261/7/169
f 262/8/170 263/8/171 264/8/128
f 265/7/172 266/7/173 267/7/170
f 268/8/133 269/8/174 270/8/172
f 271/7/133 272/7/175 273/7/176
f 274/8/136 275/8/177 276/8/134
f 277/7/136 278/7/178 279/7/179
f 280/8/180 281/8/181 282/8/138
f 283/7/182 284/7/183 285/7/180
f 286/8/104 287/8/184 288/8/182
f 289/9/185 290/9/186 291/9/144
f 292/10/187 293/10/188 294/10/185
f 295/9/187 296/9/189 297/9/190
f 298/10/191 299/10/189 300/10/192
f 301/9/191 302/9/193 303/9/194
f 304/10/155 305/10/193 306/10/195
f 307/9/196 308/9/197 309/9/155
f 310/10/198 311/10/199 312/10/196
f 313/9/198 314/9/200 315/9/201
f 316/10/202 317/10/200 318/10/203
f 319/9/202 320/9/204 321/9/205
f 322/10/165 323/10/204 324/10/206
f 325/9/207 326/9/208 327/9/165
f 328/10/209 329/10/210 330/10/207
f 331/9/209 332/9/211 333/9/212
f 334/10/213 335/10/211 336/10/214
f 337/9/213 338/9/215 339/9/216
f 340/10/176 341/10/215 342/10/217
f 343/9/218 344/9/219 345/9/176
f 346/10/220 347/10/221 348/10/218
f 349/9/220 350/9/222 351/9/223
f 352/10/224 353/10/222 354/10/225
f 355/9/224 356/9/226 357/9/227
f 358/10/144 359/10/226 360/10/228
f 361/11/229 362/12/1 363/13/3
f 361/11/229 364/14/7 362/12/1
f 361/11/229 365/15/6 364/14/7
f 361/11/229 366/16/11 365/15/6
f 361/11/229 367/17/10 366/16/11
f 361/11/229 368/18/12 367/17/10
f 361/11/229 369/19/14 368/18/12
f 361/11/229 370/20/19 369/19/14
f 361/11/229 371/21/18 370/20/19
f 361/11/229 372/22/23 371/21/18
f 361/11/229 373/23/22 372/22/23
f 361/11/229 374/24/24 373/23/22
f 361/11/229 375/25/26 374/24/24
f 361/11/229 376/26/31 375/25/26
f 361/11/229 377/27/30 376/26/31
f 361/11/229 378/28/35 377/27/30
f 361/11/229 379/29/34 378/28/35
f 361/11/229 380/30/36 379/29/34
f 361/11/229 381/31/38 380/30/36
f 361/11/229 382/32/43 381/31/38
f 361/11/229 383/33/42 382/32/43
f 361/11/229 384/34/47 383/33/42
f 361/11/229 385/35/46 384/34/47
f 361/11/229 363/13/3 385/35/46
f 386/36/230 387/36/186 388/36/188
f 386/36/230 388/36/188 389/36/190
f 386/36/230 389/36/190 390/36/189
f 386/36/230 390/36/189 391/36/194
f 386/36/230 391/36/194 392/36/193
f 386/36/230 392/36/193 393/36/197
f 386/36/230 393/36/197 394/36/199
f 386/36/230 394/36/199 395/36/201
f 386/36/230 395/36/201 396/36/200
f 386/36/230 396/36/200 397/36/205
f 386/36/230 397/36/205 398/36/204
f 386/36/230 398/36/204 399/36/208
f 386/36/230 399/36/208 400/36/210
f 386/36/230 400/36/210 401/36/212
f 386/36/230 401/36/212 402/36/211
f 386/36/230 402/36/211 403/36/216
f 386/36/230 403/36/216 404/36/215
f 386/36/230 404/36/215 405/36/219
f 386/36/230 405/36/219 406/36/221
f 386/36/230 406/36/221 407/36/223
f 386/36/230 407/36/223 408/36/222
f 386/36/230 408/36/222 409/36/227
f 386/36/230 409/36/227 410/36/226
f 386/36/230 410/36/226 387/36/186
f 1/1/1 411/1/5 2/1/2
f 4/2/1 412/2/7 5/2/4
f 7/1/6 413/1/9 8/1/4
f 10/2/6 414/2/11 11/2/8
f 13/1/10 415/1/13 14/1/8
f 16/2/12 416/2/15 17/2/13
f 19/1/14 417/1/17 20/1/15
f 22/2/14 418/2/19 23/2/16
f 25/1/18 419/1/21 26/1/16
f 28/2/18 420/2/23 29/2/20
f 31/1/22 421/1/25 32/1/20
f 34/2/24 422/2/27 35/2/25
f 37/1/26 423/1/29 38/1/27
f 40/2/26 424/2/31 41/2/28
f 43/1/30 425/1/33 44/1/28
f 46/2/30 426/2/35 47/2/32
f 49/1/34 427/1/37 50/1/32
f 52/2/36 428/2/39 53/2/37
f 55/1/38 429/1/41 56/1/39
f 58/2/38 430/2/43 59/2/40
f 61/1/42 431/1/45 62/1/40
f 64/2/42 432/2/47 65/2/44
f 67/1/46 433/1/48 68/1/44
f 70/2/3 434/2/2 71/2/48
f 73/3/49 435/3/52 74/3/50
f 76/4/51 436/4/55 77/4/52
f 79/3/54 437/3/58 80/3/55
f 82/4/56 438/4/231 83/4/57
f 85/3/59 439/3/63 86/3/57
f 88/4/61 440/4/15 89/4/62
f 91/3/64 441/3/66 92/3/62
f 94/4/65 442/4/69 95/4/66
f 97/3/68 443/3/72 98/3/69
f 100/4/70 444/4/232 101/4/71
f 103/3/73 445/3/233 104/3/74
f 106/4/75 446/4/27 107/4/76
f 109/3/77 447/3/79 110/3/76
f 112/4/78 448/4/82 113/4/79
f 115/3/81 449/3/85 116/3/82
f 118/4/83 450/4/234 119/4/84
f 121/3/86 451/3/90 122/3/84
f 124/4/88 452/4/39 125/4/89
f 127/3/91 453/3/93 128/3/89
f 130/4/92 454/4/96 131/4/93
f 133/3/95 455/3/99 134/3/96
f 136/4/97 456/4/235 137/4/98
f 139/3/100 457/3/236 140/3/101
f 142/4/102 458/4/2 143/4/50
f 145/5/103 459/5/105 146/5/104
f 148/6/55 460/6/237 149/6/105
f 151/5/58 461/5/238 152/5/106
f 154/6/57 462/6/110 155/6/108
f 157/5/63 463/5/111 158/5/110
f 160/6/62 464/6/113 161/6/111
f 163/5/112 465/5/239 164/5/113
f 166/6/69 466/6/116 167/6/114
f 169/5/72 467/5/240 170/5/116
f 172/6/71 468/6/120 173/6/118
f 175/5/74 469/5/122 176/5/120
f 178/6/76 470/6/124 179/6/122
f 181/5/123 471/5/125 182/5/124
f 184/6/82 472/6/241 185/6/125
f 187/5/85 473/5/242 188/5/126
f 190/6/84 474/6/130 191/6/128
f 193/5/90 475/5/131 194/5/130
f 196/6/89 476/6/133 197/6/131
f 199/5/132 477/5/243 200/5/133
f 202/6/96 478/6/136 203/6/134
f 205/5/99 479/5/244 206/5/136
f 208/6/98 480/6/140 209/6/138
f 211/5/101 481/5/142 212/5/140
f 214/6/50 482/6/104 215/6/142
f 217/7/104 483/7/105 218/7/143
f 220/8/105 484/8/106 221/8/145
f 223/7/106 485/7/108 224/7/147
f 226/8/149 486/8/152 227/8/150
f 229/7/151 487/7/245 230/7/152
f 232/8/113 488/8/155 233/8/153
f 235/7/113 489/7/114 236/7/154
f 238/8/116 490/8/246 239/8/156
f 241/7/116 491/7/118 242/7/157
f 244/8/159 492/8/162 245/8/160
f 247/7/161 493/7/247 248/7/162
f 250/8/124 494/8/165 251/8/163
f 253/7/124 495/7/125 254/7/164
f 256/8/125 496/8/126 257/8/166
f 259/7/126 497/7/128 260/7/168
f 262/8/170 498/8/173 263/8/171
f 265/7/172 499/7/248 266/7/173
f 268/8/133 500/8/176 269/8/174
f 271/7/133 501/7/134 272/7/175
f 274/8/136 502/8/249 275/8/177
f 277/7/136 503/7/138 278/7/178
f 280/8/180 504/8/183 281/8/181
f 283/7/182 505/7/250 284/7/183
f 286/8/104 506/8/144 287/8/184
f 289/9/185 507/9/188 290/9/186
f 292/10/187 508/10/190 293/10/188
f 295/9/187 509/9/192 296/9/189
f 298/10/191 510/10/194 299/10/189
f 301/9/191 511/9/195 302/9/193
f 304/10/155 512/10/197 305/10/193
f 307/9/196 513/9/199 308/9/197
f 310/10/198 514/10/201 311/10/199
f 313/9/198 515/9/203 314/9/200
f 316/10/202 516/10/205 317/10/200
f 319/9/202 517/9/206 320/9/204
f 322/10/165 518/10/208 323/10/204
f 325/9/207 519/9/210 326/9/208
f 328/10/209 520/10/212 329/10/210
f 331/9/209 521/9/214 332/9/211
f 334/10/213 522/10/216 335/10/211
f 337/9/213 523/9/217 338/9/215
f 340/10/176 524/10/219 341/10/215
f 343/9/218 525/9/221 344/9/219
f 346/10/220 526/10/223 347/10/221
f 349/9/220 527/9/225 350/9/222
f 352/10/224 528/10/227 353/10/222
f 355/9/224 529/9/228 356/9/226
f 358/10/144 530/10/186 359/10/226
f 531/37/251 532/37/252 533/37/253
f 534/38/251 535/38/254 536/38/255
f 537/37/256 538/37/254 539/37/257
f 540/38/256 541/38/258 542/38/259
f 543/37/260 544/37/258 545/37/261
f 546/38/262 547/38/263 548/38/260
f 549/37/264 550/37/265 551/37/262
f 552/38/264 553/38/266 554/38/267
f 555/37/268 556/37/266 557/37/269
f 558/38/268 559/38/270 560/38/271
f 561/37/272 562/37/270 563/37/273
f 564/38/274 565/38/275 566/38/272
f 567/37/276 568/37/277 569/37/274
f 570/38/276 571/38/278 572/38/279
f 573/37/280 574/37/278 575/37/281
f 576/38/280 577/38/282 578/38/283
f 579/37/284 580/37/282 581/37/285
f 582/38/286 583/38/287 584/38/284
f 585/37/288 586/37/289 587/37/286
f 588/38/288 589/38/290 590/38/291
f 591/37/292 592/37/290 593/37/293
f 594/38/292 595/38/294 596/38/295
f 597/37/296 598/37/294 599/37/297
f 600/38/253 601/38/298 602/38/296
f 603/39/299 604/39/300 605/39/252
f 606/40/301 607/40/302 608/40/303
f 609/39/304 610/39/305 611/39/301
f 612/40/306 613/40/307 614/40/308
f 615/39/309 616/39/307 617/39/310
f 618/40/311 619/40/312 620/40/313
f 621/39/314 622/39/312 623/39/265
f 624/40/315 625/40/316 626/40/317
f 627/39/318 628/39/319 629/39/315
f 630/40/320 631/40/321 632/40/322
f 633/39/323 634/39/324 635/39/321
f 636/40/325 637/40/326 638/40/324
f 639/39/327 640/39/326 641/39/277
f 642/40/328 643/40/329 644/40/330
f 645/39/331 646/39/332 647/39/328
f 648/40/333 649/40/334 650/40/335
f 651/39/336 652/39/334 653/39/337
f 654/40/338 655/40/339 656/40/340
f 657/39/341 658/39/339 659/39/289
f 660/40/342 661/40/343 662/40/344
f 663/39/345 664/39/346 665/39/342
f 666/40/347 667/40/348 668/40/349
f 669/39/350 670/39/351 671/39/348
f 672/40/352 673/40/300 674/40/351
f 675/41/353 676/41/354 677/41/300
f 678/42/305 679/42/355 680/42/353
f 681/41/308 682/41/356 683/41/357
f 684/42/307 685/42/358 686/42/359
f 687/41/313 688/41/360 689/41/307
f 690/42/312 691/42/361 692/42/313
f 693/41/362 694/41/363 695/41/312
f 696/42/319 697/42/364 698/42/365
f 699/41/322 700/41/366 701/41/367
f 702/42/321 703/42/368 704/42/369
f 705/41/324 706/41/370 707/41/371
f 708/42/326 709/42/372 710/42/324
f 711/41/373 712/41/374 713/41/326
f 714/42/332 715/42/375 716/42/373
f 717/41/335 718/41/376 719/41/377
f 720/42/334 721/42/378 722/42/379
f 723/41/340 724/41/380 725/41/334
f 726/42/339 727/42/381 728/42/340
f 729/41/382 730/41/383 731/41/339
f 732/42/346 733/42/384 734/42/385
f 735/41/349 736/41/386 737/41/387
f 738/42/348 739/42/388 740/42/389
f 741/41/351 742/41/390 743/41/391
f 744/42/300 745/42/392 746/42/351
f 747/43/354 748/43/393 749/43/394
f 750/44/355 751/44/395 752/44/396
f 753/43/356 754/43/397 755/43/398
f 756/44/399 757/44/400 758/44/358
f 759/43/401 760/43/402 761/43/399
f 762/44/363 763/44/403 764/44/401
f 765/43/363 766/43/404 767/43/405
f 768/44/366 769/44/406 770/44/364
f 771/43/366 772/43/407 773/43/408
f 774/44/409 775/44/410 776/44/368
f 777/43/411 778/43/412 779/43/409
f 780/44/374 781/44/413 782/44/411
f 783/43/374 784/43/414 785/43/415
f 786/44/375 787/44/416 788/44/417
f 789/43/376 790/43/418 791/43/419
f 792/44/420 793/44/421 794/44/378
f 795/43/422 796/43/423 797/43/420
f 798/44/383 799/44/424 800/44/422
f 801/43/383 802/43/425 803/43/426
f 804/44/386 805/44/427 806/44/384
f 807/43/386 808/43/428 809/43/429
f 810/44/430 811/44/431 812/44/388
f 813/43/432 814/43/433 815/43/430
f 816/44/354 817/44/434 818/44/432
f 819/45/435 820/45/436 821/45/394
f 822/46/437 823/46/438 824/46/435
f 825/45/437 826/45/439 827/45/440
f 828/46/441 829/46/439 830/46/442
f 831/45/441 832/45/443 833/45/444
f 834/46/405 835/46/443 836/46/445
f 837/45/446 838/45/447 839/45/405
f 840/46/448 841/46/449 842/46/446
f 843/45/448 844/45/450 845/45/451
f 846/46/452 847/46/450 848/46/453
f 849/45/452 850/45/454 851/45/455
f 852/46/415 853/46/454 854/46/456
f 855/45/457 856/45/458 857/45/415
f 858/46/459 859/46/460 860/46/457
f 861/45/459 862/45/461 863/45/462
f 864/46/463 865/46/461 866/46/464
f 867/45/463 868/45/465 869/45/466
f 870/46/426 871/46/465 872/46/467
f 873/45/468 874/45/469 875/45/426
f 876/46/470 877/46/471 878/46/468
f 879/45/470 880/45/472 881/45/473
f 882/46/474 883/46/472 884/46/475
f 885/45/474 886/45/476 887/45/477
f 888/46/394 889/46/476 890/46/478
f 891/47/479 892/48/436 893/49/438
f 891/47/479 893/49/438 894/50/440
f 891/47/479 894/50/440 895/51/439
f 891/47/479 895/51/439 896/52/444
f 891/47/479 896/52/444 897/53/443
f 891/47/479 897/53/443 898/54/447
f 891/47/479 898/54/447 899/55/449
f 891/47/479 899/55/449 900/56/451
f 891/47/479 900/56/451 901/57/450
f 891/47/479 901/57/450 902/58/455
f 891/47/479 902/58/455 903/59/454
f 891/47/479 903/59/454 904/60/458
f 891/47/479 904/60/458 905/61/460
f 891/47/479 905/61/460 906/62/462
f 891/47/479 906/62/462 907/63/461
f 891/47/479 907/63/461 908/64/466
f 891/47/479 908/64/466 909/65/465
f 891/47/479 909/65/465 910/66/469
f 891/47/479 910/66/469 911/67/471
f 891/47/479 911/67/471 912/68/473
f 891/47/479 912/68/473 913/69/472
f 891/47/479 913/69/472 914/70/477
f 891/47/479 914/70/477 915/71/476
f 891/47/479 915/71/476 892/48/436
f 916/72/480 917/72/251 918/72/253
f 916/72/480 919/72/257 917/72/251
f 916/72/480 920/72/256 919/72/257
f 916/72/480 921/72/261 920/72/256
f 916/72/480 922/72/260 921/72/261
f 916/72/480 923/72/262 922/72/260
f 916/72/480 924/72/264 923/72/262
f 916/72/480 925/72/269 924/72/264
f 916/72/480 926/72/268 925/72/269
f 916/72/480 927/72/273 926/72/268
f 916/72/480 928/72/272 927/72/273
f 916/72/480 929/72/274 928/72/272
f 916/72/480 930/72/276 929/72/274
f 916/72/480 931/72/281 930/72/276
f 916/72/480 932/72/280 931/72/281
f 916/72/480 933/72/285 932/72/280
f 916/72/480 934/72/284 933/72/285
f 916/72/480 935/72/286 934/72/284
f 916/72/480 936/72/288 935/72/286
f 916/72/480 937/72/293 936/72/288
f 916/72/480 938/72/292 937/72/293
f 916/72/480 939/72/297 938/72/292
f 916/72/480 940/72/296 939/72/297
f 916/72/480 918/72/253 940/72/296
f 531/37/251 941/37/255 532/37/252
f 534/38/251 942/38/257 535/38/254
f 537/37/256 943/37/259 538/37/254
f 540/38/256 944/38/261 541/38/258
f 543/37/260 945/37/263 544/37/258
f 546/38/262 946/38/265 547/38/263
f 549/37/264 947/37/267 550/37/265
f 552/38/264 948/38/269 553/38/266
f 555/37/268 949/37/271 556/37/266
f 558/38/268 950/38/273 559/38/270
f 561/37/272 951/37/275 562/37/270
f 564/38/274 952/38/277 565/38/275
f 567/37/276 953/37/279 568/37/277
f 570/38/276 954/38/281 571/38/278
f 573/37/280 955/37/283 574/37/278
f 576/38/280 956/38/285 577/38/282
f 579/37/284 957/37/287 580/37/282
f 582/38/286 958/38/289 583/38/287
f 585/37/288 959/37/291 586/37/289
f 588/38/288 960/38/293 589/38/290
f 591/37/292 961/37/295 592/37/290
f 594/38/292 962/38/297 595/38/294
f 597/37/296 963/37/298 598/37/294
f 600/38/253 964/38/252 601/38/298
f 603/39/299 965/39/302 604/39/300
f 606/40/301 966/40/305 607/40/302
f 609/39/304 967/39/308 610/39/305
f 612/40/306 968/40/481 613/40/307
f 615/39/309 969/39/313 616/39/307
f 618/40/311 970/40/265 619/40/312
f 621/39/314 971/39/316 622/39/312
f 624/40/315 972/40/319 625/40/316
f 627/39/318 973/39/322 628/39/319
f 630/40/320 974/40/482 631/40/321
f 633/39/323 975/39/483 634/39/324
f 636/40/325 976/40/277 637/40/326
f 639/39/327 977/39/329 640/39/326
f 642/40/328 978/40/332 643/40/329
f 645/39/331 979/39/335 646/39/332
f 648/40/333 980/40/484 649/40/334
f 651/39/336 981/39/340 652/39/334
f 654/40/338 982/40/289 655/40/339
f 657/39/341 983/39/343 658/39/339
f 660/40/342 984/40/346 661/40/343
f 663/39/345 985/39/349 664/39/346
f 666/40/347 986/40/485 667/40/348
f 669/39/350 987/39/486 670/39/351
f 672/40/352 988/40/252 673/40/300
f 675/41/353 989/41/355 676/41/354
f 678/42/305 990/42/487 679/42/355
f 681/41/308 991/41/488 682/41/356
f 684/42/307 992/42/360 685/42/358
f 687/41/313 993/41/361 688/41/360
f 690/42/312 994/42/363 691/42/361
f 693/41/362 995/41/489 694/41/363
f 696/42/319 996/42/366 697/42/364
f 699/41/322 997/41/490 700/41/366
f 702/42/321 998/42/370 703/42/368
f 705/41/324 999/41/372 706/41/370
f 708/42/326 1000/42/374 709/42/372
f 711/41/373 1001/41/375 712/41/374
f 714/42/332 1002/42/491 715/42/375
f 717/41/335 1003/41/492 718/41/376
f 720/42/334 1004/42/380 721/42/378
f 723/41/340 1005/41/381 724/41/380
f 726/42/339 1006/42/383 727/42/381
f 729/41/382 1007/41/493 730/41/383
f 732/42/346 1008/42/386 733/42/384
f 735/41/349 1009/41/494 736/41/386
f 738/42/348 1010/42/390 739/42/388
f 741/41/351 1011/41/392 742/41/390
f 744/42/300 1012/42/354 745/42/392
f 747/43/354 1013/43/355 748/43/393
f 750/44/355 1014/44/356 751/44/395
f 753/43/356 1015/43/358 754/43/397
f 756/44/399 1016/44/402 757/44/400
f 759/43/401 1017/43/495 760/43/402
f 762/44/363 1018/44/405 763/44/403
f 765/43/363 1019/43/364 766/43/404
f 768/44/366 1020/44/496 769/44/406
f 771/43/366 1021/43/368 772/43/407
f 774/44/409 1022/44/412 775/44/410
f 777/43/411 1023/43/497 778/43/412
f 780/44/374 1024/44/415 781/44/413
f 783/43/374 1025/43/375 784/43/414
f 786/44/375 1026/44/376 787/44/416
f 789/43/376 1027/43/378 790/43/418
f 792/44/420 1028/44/423 793/44/421
f 795/43/422 1029/43/498 796/43/423
f 798/44/383 1030/44/426 799/44/424
f 801/43/383 1031/43/384 802/43/425
f 804/44/386 1032/44/499 805/44/427
f 807/43/386 1033/43/388 808/43/428
f 810/44/430 1034/44/433 811/44/431
f 813/43/432 1035/43/500 814/43/433
f 816/44/354 1036/44/394 817/44/434
f 819/45/435 1037/45/438 820/45/436
f 822/46/437 1038/46/440 823/46/438
f 825/45/437 1039/45/442 826/45/439
f 828/46/441 1040/46/444 829/46/439
f 831/45/441 1041/45/445 832/45/443
f 834/46/405 1042/46/447 835/46/443
f 837/45/446 1043/45/449 838/45/447
f 840/46/448 1044/46/451 841/46/449
f 843/45/448 1045/45/453 844/45/450
f 846/46/452 1046/46/455 847/46/450
f 849/45/452 1047/45/456 850/45/454
f 852/46/415 1048/46/458 853/46/454
f 855/45/457 1049/45/460 856/45/458
f 858/46/459 1050/46/462 859/46/460
f 861/45/459 1051/45/464 862/45/461
f 864/46/463 1052/46/466 865/46/461
f 867/45/463 1053/45/467 868/45/465
f 870/46/426 1054/46/469 871/46/465
f 873/45/468 1055/45/471 874/45/469
f 876/46/470 1056/46/473 877/46/471
f 879/45/470 1057/45/475 880/45/472
f 882/46/474 1058/46/477 883/46/472
f 885/45/474 1059/45/478 886/45/476
f 888/46/394 1060/46/436 889/46/476
