# PSX Racing car model — generated by tools/carmodels/export_models.mjs
mtllib liftback_95_wheels_f.mtl
v 0.819114 0.573479 -1.271262
v 0.792372 0.596260 -1.271262
v 0.792372 0.556318 -1.122197
v 0.819114 0.536589 -1.133587
v 0.792372 0.447195 -1.013073
v 0.819114 0.435805 -1.032802
v 0.792372 0.298130 -0.973132
v 0.819114 0.298130 -0.995912
v 0.792372 0.149065 -1.013073
v 0.819114 0.160455 -1.032802
v 0.792372 0.039941 -1.122197
v 0.819114 0.059671 -1.133587
v 0.792372 0.000000 -1.271262
v 0.819114 0.022781 -1.271262
v 0.792372 0.039941 -1.420327
v 0.819114 0.059671 -1.408936
v 0.792372 0.149065 -1.529450
v 0.819114 0.160455 -1.509721
v 0.792372 0.298130 -1.569392
v 0.819114 0.298130 -1.546611
v 0.792372 0.447195 -1.529450
v 0.819114 0.435805 -1.509721
v 0.792372 0.556318 -1.420327
v 0.819114 0.536589 -1.408936
v 0.625974 0.596260 -1.271262
v 0.625974 0.556318 -1.122197
v 0.625974 0.447195 -1.013073
v 0.625974 0.298130 -0.973132
v 0.625974 0.149065 -1.013073
v 0.625974 0.039941 -1.122197
v 0.625974 0.000000 -1.271262
v 0.625974 0.039941 -1.420327
v 0.625974 0.149065 -1.529450
v 0.625974 0.298130 -1.569392
v 0.625974 0.447195 -1.529450
v 0.625974 0.556318 -1.420327
v 0.599231 0.573479 -1.271262
v 0.599231 0.536589 -1.133587
v 0.599231 0.435805 -1.032802
v 0.599231 0.298130 -0.995912
v 0.599231 0.160455 -1.032802
v 0.599231 0.059671 -1.133587
v 0.599231 0.022781 -1.271262
v 0.599231 0.059671 -1.408936
v 0.599231 0.160455 -1.509721
v 0.599231 0.298130 -1.546611
v 0.599231 0.435805 -1.509721
v 0.599231 0.536589 -1.408936
v -0.599231 0.573479 -1.271262
v -0.625974 0.596260 -1.271262
v -0.625974 0.556318 -1.122197
v -0.599231 0.536589 -1.133587
v -0.625974 0.447195 -1.013073
v -0.599231 0.435805 -1.032802
v -0.625974 0.298130 -0.973132
v -0.599231 0.298130 -0.995912
v -0.625974 0.149065 -1.013073
v -0.599231 0.160455 -1.032802
v -0.625974 0.039941 -1.122197
v -0.599231 0.059671 -1.133587
v -0.625974 0.000000 -1.271262
v -0.599231 0.022781 -1.271262
v -0.625974 0.039941 -1.420327
v -0.599231 0.059671 -1.408936
v -0.625974 0.149065 -1.529450
v -0.599231 0.160455 -1.509721
v -0.625974 0.298130 -1.569392
v -0.599231 0.298130 -1.546611
v -0.625974 0.447195 -1.529450
v -0.599231 0.435805 -1.509721
v -0.625974 0.556318 -1.420327
v -0.599231 0.536589 -1.408936
v -0.792372 0.596260 -1.271262
v -0.792372 0.556318 -1.122197
v -0.792372 0.447195 -1.013073
v -0.792372 0.298130 -0.973132
v -0.792372 0.149065 -1.013073
v -0.792372 0.039941 -1.122197
v -0.792372 0.000000 -1.271262
v -0.792372 0.039941 -1.420327
v -0.792372 0.149065 -1.529450
v -0.792372 0.298130 -1.569392
v -0.792372 0.447195 -1.529450
v -0.792372 0.556318 -1.420327
v -0.819114 0.573479 -1.271262
v -0.819114 0.536589 -1.133587
v -0.819114 0.435805 -1.032802
v -0.819114 0.298130 -0.995912
v -0.819114 0.160455 -1.032802
v -0.819114 0.059671 -1.133587
v -0.819114 0.022781 -1.271262
v -0.819114 0.059671 -1.408936
v -0.819114 0.160455 -1.509721
v -0.819114 0.298130 -1.546611
v -0.819114 0.435805 -1.509721
v -0.819114 0.536589 -1.408936
vt 0.485352 0.564453
vt 0.409016 0.473670
vt 0.437500 0.488934
vt 0.465984 0.473670
vt 0.486835 0.431967
vt 0.494467 0.375000
vt 0.486835 0.318033
vt 0.465984 0.276330
vt 0.437500 0.261066
vt 0.409016 0.276330
vt 0.388165 0.318033
vt 0.380533 0.375000
vt 0.388165 0.431967
vt 0.485352 0.564453
vt 0.409016 0.473670
vt 0.437500 0.488934
vt 0.465984 0.473670
vt 0.486835 0.431967
vt 0.494467 0.375000
vt 0.486835 0.318033
vt 0.465984 0.276330
vt 0.437500 0.261066
vt 0.409016 0.276330
vt 0.388165 0.318033
vt 0.380533 0.375000
vt 0.388165 0.431967
vn 0.648500 0.761200 0.000000
vn 0.328300 0.944600 0.000000
vn 0.328300 0.818000 0.472300
vn 0.648500 0.659300 0.380600
vn 0.328300 0.472300 0.818000
vn 0.648500 0.380600 0.659300
vn 0.328300 0.000000 0.944600
vn 0.648500 0.000000 0.761200
vn 0.328300 -0.472300 0.818000
vn 0.648500 -0.380600 0.659300
vn 0.328300 -0.818000 0.472300
vn 0.648500 -0.659300 0.380600
vn 0.328300 -0.944600 0.000000
vn 0.648500 -0.761200 0.000000
vn 0.328300 -0.818000 -0.472300
vn 0.648500 -0.659300 -0.380600
vn 0.328300 -0.472300 -0.818000
vn 0.648500 -0.380600 -0.659300
vn 0.328300 0.000000 -0.944600
vn 0.648500 0.000000 -0.761200
vn 0.328300 0.472300 -0.818000
vn 0.648500 0.380600 -0.659300
vn 0.328300 0.818000 -0.472300
vn 0.648500 0.659300 -0.380600
vn -0.328300 0.944600 0.000000
vn -0.328300 0.818000 0.472300
vn -0.328300 0.472300 0.818000
vn -0.328300 0.000000 0.944600
vn -0.328300 -0.472300 0.818000
vn -0.328300 -0.818000 0.472300
vn -0.328300 -0.944600 0.000000
vn -0.328300 -0.818000 -0.472300
vn -0.328300 -0.472300 -0.818000
vn -0.328300 0.000000 -0.944600
vn -0.328300 0.472300 -0.818000
vn -0.328300 0.818000 -0.472300
vn -0.648500 0.761200 0.000000
vn -0.648500 0.659300 0.380600
vn -0.648500 0.380600 0.659300
vn -0.648500 0.000000 0.761200
vn -0.648500 -0.380600 0.659300
vn -0.648500 -0.659300 0.380600
vn -0.648500 -0.761200 0.000000
vn -0.648500 -0.659300 -0.380600
vn -0.648500 -0.380600 -0.659300
vn -0.648500 0.000000 -0.761200
vn -0.648500 0.380600 -0.659300
vn -0.648500 0.659300 -0.380600
vn 1.000000 0.000000 0.000000
vn -1.000000 0.000000 0.000000
vn 0.648500 0.761200 0.000000
vn 0.328300 0.944600 0.000000
vn 0.328300 0.818000 0.472300
vn 0.648500 0.659300 0.380600
vn 0.328300 0.472300 0.818000
vn 0.648500 0.380600 0.659300
vn 0.328300 0.000000 0.944600
vn 0.648500 0.000000 0.761200
vn 0.328300 -0.472300 0.818000
vn 0.648500 -0.380600 0.659300
vn 0.328300 -0.818000 0.472300
vn 0.648500 -0.659300 0.380600
vn 0.328300 -0.944600 0.000000
vn 0.648500 -0.761200 0.000000
vn 0.328300 -0.818000 -0.472300
vn 0.648500 -0.659300 -0.380600
vn 0.328300 -0.472300 -0.818000
vn 0.648500 -0.380600 -0.659300
vn 0.328300 0.000000 -0.944600
vn 0.648500 0.000000 -0.761200
vn 0.328300 0.472300 -0.818000
vn 0.648500 0.380600 -0.659300
vn 0.328300 0.818000 -0.472300
vn 0.648500 0.659300 -0.380600
vn -0.328300 0.944600 0.000000
vn -0.328300 0.818000 0.472300
vn -0.328300 0.472300 0.818000
vn -0.328300 0.000000 0.944600
vn -0.328300 -0.472300 0.818000
vn -0.328300 -0.818000 0.472300
vn -0.328300 -0.944600 0.000000
vn -0.328300 -0.818000 -0.472300
vn -0.328300 -0.472300 -0.818000
vn -0.328300 0.000000 -0.944600
vn -0.328300 0.472300 -0.818000
vn -0.328300 0.818000 -0.472300
vn -0.648500 0.761200 0.000000
vn -0.648500 0.659300 0.380600
vn -0.648500 0.380600 0.659300
vn -0.648500 0.000000 0.761200
vn -0.648500 -0.380600 0.659300
vn -0.648500 -0.659300 0.380600
vn -0.648500 -0.761200 0.000000
vn -0.648500 -0.659300 -0.380600
vn -0.648500 -0.380600 -0.659300
vn -0.648500 0.000000 -0.761200
vn -0.648500 0.380600 -0.659300
vn -0.648500 0.659300 -0.380600
vn 1.000000 0.000000 0.000000
vn -1.000000 0.000000 0.000000
o liftback_95_wheels_f
usemtl liftback_95_wheels_f
f 1/1/1 2/1/2 3/1/3 4/1/4
f 4/1/4 3/1/3 5/1/5 6/1/6
f 6/1/6 5/1/5 7/1/7 8/1/8
f 8/1/8 7/1/7 9/1/9 10/1/10
f 10/1/10 9/1/9 11/1/11 12/1/12
f 12/1/12 11/1/11 13/1/13 14/1/14
f 14/1/14 13/1/13 15/1/15 16/1/16
f 16/1/16 15/1/15 17/1/17 18/1/18
f 18/1/18 17/1/17 19/1/19 20/1/20
f 20/1/20 19/1/19 21/1/21 22/1/22
f 22/1/22 21/1/21 23/1/23 24/1/24
f 24/1/24 23/1/23 2/1/2 1/1/1
f 2/1/2 25/1/25 26/1/26 3/1/3
f 3/1/3 26/1/26 27/1/27 5/1/5
f 5/1/5 27/1/27 28/1/28 7/1/7
f 7/1/7 28/1/28 29/1/29 9/1/9
f 9/1/9 29/1/29 30/1/30 11/1/11
f 11/1/11 30/1/30 31/1/31 13/1/13
f 13/1/13 31/1/31 32/1/32 15/1/15
f 15/1/15 32/1/32 33/1/33 17/1/17
f 17/1/17 33/1/33 34/1/34 19/1/19
f 19/1/19 34/1/34 35/1/35 21/1/21
f 21/1/21 35/1/35 36/1/36 23/1/23
f 23/1/23 36/1/36 25/1/25 2/1/2
f 25/1/25 37/1/37 38/1/38 26/1/26
f 26/1/26 38/1/38 39/1/39 27/1/27
f 27/1/27 39/1/39 40/1/40 28/1/28
f 28/1/28 40/1/40 41/1/41 29/1/29
f 29/1/29 41/1/41 42/1/42 30/1/30
f 30/1/30 42/1/42 43/1/43 31/1/31
f 31/1/31 43/1/43 44/1/44 32/1/32
f 32/1/32 44/1/44 45/1/45 33/1/33
f 33/1/33 45/1/45 46/1/46 34/1/34
f 34/1/34 46/1/46 47/1/47 35/1/35
f 35/1/35 47/1/47 48/1/48 36/1/36
f 36/1/36 48/1/48 37/1/37 25/1/25
f 24/2/49 1/3/49 4/4/49 6/5/49 8/6/49 10/7/49 12/8/49 14/9/49 16/10/49 18/11/49 20/12/49 22/13/49
f 37/3/50 48/2/50 47/13/50 46/12/50 45/11/50 44/10/50 43/9/50 42/8/50 41/7/50 40/6/50 39/5/50 38/4/50
f 49/14/51 50/14/52 51/14/53 52/14/54
f 52/14/54 51/14/53 53/14/55 54/14/56
f 54/14/56 53/14/55 55/14/57 56/14/58
f 56/14/58 55/14/57 57/14/59 58/14/60
f 58/14/60 57/14/59 59/14/61 60/14/62
f 60/14/62 59/14/61 61/14/63 62/14/64
f 62/14/64 61/14/63 63/14/65 64/14/66
f 64/14/66 63/14/65 65/14/67 66/14/68
f 66/14/68 65/14/67 67/14/69 68/14/70
f 68/14/70 67/14/69 69/14/71 70/14/72
f 70/14/72 69/14/71 71/14/73 72/14/74
f 72/14/74 71/14/73 50/14/52 49/14/51
f 50/14/52 73/14/75 74/14/76 51/14/53
f 51/14/53 74/14/76 75/14/77 53/14/55
f 53/14/55 75/14/77 76/14/78 55/14/57
f 55/14/57 76/14/78 77/14/79 57/14/59
f 57/14/59 77/14/79 78/14/80 59/14/61
f 59/14/61 78/14/80 79/14/81 61/14/63
f 61/14/63 79/14/81 80/14/82 63/14/65
f 63/14/65 80/14/82 81/14/83 65/14/67
f 65/14/67 81/14/83 82/14/84 67/14/69
f 67/14/69 82/14/84 83/14/85 69/14/71
f 69/14/71 83/14/85 84/14/86 71/14/73
f 71/14/73 84/14/86 73/14/75 50/14/52
f 73/14/75 85/14/87 86/14/88 74/14/76
f 74/14/76 86/14/88 87/14/89 75/14/77
f 75/14/77 87/14/89 88/14/90 76/14/78
f 76/14/78 88/14/90 89/14/91 77/14/79
f 77/14/79 89/14/91 90/14/92 78/14/80
f 78/14/80 90/14/92 91/14/93 79/14/81
f 79/14/81 91/14/93 92/14/94 80/14/82
f 80/14/82 92/14/94 93/14/95 81/14/83
f 81/14/83 93/14/95 94/14/96 82/14/84
f 82/14/84 94/14/96 95/14/97 83/14/85
f 83/14/85 95/14/97 96/14/98 84/14/86
f 84/14/86 96/14/98 85/14/87 73/14/75
f 72/15/99 49/16/99 52/17/99 54/18/99 56/19/99 58/20/99 60/21/99 62/22/99 64/23/99 66/24/99 68/25/99 70/26/99
f 85/16/100 96/15/100 95/26/100 94/25/100 93/24/100 92/23/100 91/22/100 90/21/100 89/20/100 88/19/100 87/18/100 86/17/100
