# PSX Racing car model — generated by tools/carmodels/export_models.mjs
mtllib hatch_76_wheels_r.mtl
v 0.769347 0.555999 1.193557
v 0.745476 0.572907 1.193557
v 0.745476 0.534530 1.336784
v 0.769347 0.519887 1.328330
v 0.745476 0.429681 1.441633
v 0.769347 0.421226 1.426990
v 0.745476 0.286454 1.480011
v 0.769347 0.286454 1.463102
v 0.745476 0.143227 1.441633
v 0.769347 0.151681 1.426990
v 0.745476 0.038378 1.336784
v 0.769347 0.053021 1.328330
v 0.745476 0.000000 1.193557
v 0.769347 0.016909 1.193557
v 0.745476 0.038378 1.050330
v 0.769347 0.053021 1.058785
v 0.745476 0.143227 0.945481
v 0.769347 0.151681 0.960124
v 0.745476 0.286454 0.907103
v 0.769347 0.286454 0.924012
v 0.745476 0.429681 0.945481
v 0.769347 0.421226 0.960124
v 0.745476 0.534530 1.050330
v 0.769347 0.519887 1.058785
v 0.619158 0.572907 1.193557
v 0.619158 0.534530 1.336784
v 0.619158 0.429681 1.441633
v 0.619158 0.286454 1.480011
v 0.619158 0.143227 1.441633
v 0.619158 0.038378 1.336784
v 0.619158 0.000000 1.193557
v 0.619158 0.038378 1.050330
v 0.619158 0.143227 0.945481
v 0.619158 0.286454 0.907103
v 0.619158 0.429681 0.945481
v 0.619158 0.534530 1.050330
v 0.595287 0.555999 1.193557
v 0.595287 0.519887 1.328330
v 0.595287 0.421226 1.426990
v 0.595287 0.286454 1.463102
v 0.595287 0.151681 1.426990
v 0.595287 0.053021 1.328330
v 0.595287 0.016909 1.193557
v 0.595287 0.053021 1.058785
v 0.595287 0.151681 0.960124
v 0.595287 0.286454 0.924012
v 0.595287 0.421226 0.960124
v 0.595287 0.519887 1.058785
v 0.769347 0.421226 0.960124
v 0.769347 0.519887 1.058785
v 0.769347 0.555999 1.193557
v 0.769347 0.519887 1.328330
v 0.769347 0.421226 1.426990
v 0.769347 0.286454 1.463102
v 0.769347 0.151681 1.426990
v 0.769347 0.053021 1.328330
v 0.769347 0.016909 1.193557
v 0.769347 0.053021 1.058785
v 0.769347 0.151681 0.960124
v 0.769347 0.286454 0.924012
v 0.595287 0.519887 1.328330
v 0.595287 0.555999 1.193557
v 0.595287 0.519887 1.058785
v 0.595287 0.421226 0.960124
v 0.595287 0.286454 0.924012
v 0.595287 0.151681 0.960124
v 0.595287 0.053021 1.058785
v 0.595287 0.016909 1.193557
v 0.595287 0.053021 1.328330
v 0.595287 0.151681 1.426990
v 0.595287 0.286454 1.463102
v 0.595287 0.421226 1.426990
v -0.595287 0.555999 1.193557
v -0.619158 0.572907 1.193557
v -0.619158 0.534530 1.336784
v -0.595287 0.519887 1.328330
v -0.619158 0.429681 1.441633
v -0.595287 0.421226 1.426990
v -0.619158 0.286454 1.480011
v -0.595287 0.286454 1.463102
v -0.619158 0.143227 1.441633
v -0.595287 0.151681 1.426990
v -0.619158 0.038378 1.336784
v -0.595287 0.053021 1.328330
v -0.619158 0.000000 1.193557
v -0.595287 0.016909 1.193557
v -0.619158 0.038378 1.050330
v -0.595287 0.053021 1.058785
v -0.619158 0.143227 0.945481
v -0.595287 0.151681 0.960124
v -0.619158 0.286454 0.907103
v -0.595287 0.286454 0.924012
v -0.619158 0.429681 0.945481
v -0.595287 0.421226 0.960124
v -0.619158 0.534530 1.050330
v -0.595287 0.519887 1.058785
v -0.745476 0.572907 1.193557
v -0.745476 0.534530 1.336784
v -0.745476 0.429681 1.441633
v -0.745476 0.286454 1.480011
v -0.745476 0.143227 1.441633
v -0.745476 0.038378 1.336784
v -0.745476 0.000000 1.193557
v -0.745476 0.038378 1.050330
v -0.745476 0.143227 0.945481
v -0.745476 0.286454 0.907103
v -0.745476 0.429681 0.945481
v -0.745476 0.534530 1.050330
v -0.769347 0.555999 1.193557
v -0.769347 0.519887 1.328330
v -0.769347 0.421226 1.426990
v -0.769347 0.286454 1.463102
v -0.769347 0.151681 1.426990
v -0.769347 0.053021 1.328330
v -0.769347 0.016909 1.193557
v -0.769347 0.053021 1.058785
v -0.769347 0.151681 0.960124
v -0.769347 0.286454 0.924012
v -0.769347 0.421226 0.960124
v -0.769347 0.519887 1.058785
v -0.595287 0.421226 0.960124
v -0.595287 0.519887 1.058785
v -0.595287 0.555999 1.193557
v -0.595287 0.519887 1.328330
v -0.595287 0.421226 1.426990
v -0.595287 0.286454 1.463102
v -0.595287 0.151681 1.426990
v -0.595287 0.053021 1.328330
v -0.595287 0.016909 1.193557
v -0.595287 0.053021 1.058785
v -0.595287 0.151681 0.960124
v -0.595287 0.286454 0.924012
v -0.769347 0.519887 1.328330
v -0.769347 0.555999 1.193557
v -0.769347 0.519887 1.058785
v -0.769347 0.421226 0.960124
v -0.769347 0.286454 0.924012
v -0.769347 0.151681 0.960124
v -0.769347 0.053021 1.058785
v -0.769347 0.016909 1.193557
v -0.769347 0.053021 1.328330
v -0.769347 0.151681 1.426990
v -0.769347 0.286454 1.463102
v -0.769347 0.421226 1.426990
vt 0.485352 0.595703
vt 0.322109 0.748573
vt 0.344464 0.793281
vt 0.375000 0.809645
vt 0.405536 0.793281
vt 0.427891 0.748573
vt 0.436073 0.687500
vt 0.427891 0.626427
vt 0.405536 0.581719
vt 0.375000 0.565355
vt 0.344464 0.581719
vt 0.322109 0.626427
vt 0.313927 0.687500
vt 0.485352 0.595703
vt 0.322109 0.748573
vt 0.344464 0.793281
vt 0.375000 0.809645
vt 0.405536 0.793281
vt 0.427891 0.748573
vt 0.436073 0.687500
vt 0.427891 0.626427
vt 0.405536 0.581719
vt 0.375000 0.565355
vt 0.344464 0.581719
vt 0.322109 0.626427
vt 0.313927 0.687500
vn 0.578000 0.816000 0.000000
vn 0.289700 0.957100 0.000000
vn 0.289700 0.828900 0.478600
vn 0.578000 0.706700 0.408000
vn 0.289700 0.478500 0.828900
vn 0.578000 0.408000 0.706700
vn 0.289700 0.000000 0.957100
vn 0.578000 0.000000 0.816000
vn 0.289700 -0.478600 0.828900
vn 0.578000 -0.408000 0.706700
vn 0.289700 -0.828900 0.478500
vn 0.578000 -0.706700 0.408000
vn 0.289700 -0.957100 0.000000
vn 0.578000 -0.816000 0.000000
vn 0.289700 -0.828900 -0.478600
vn 0.578000 -0.706700 -0.408000
vn 0.289700 -0.478500 -0.828900
vn 0.578000 -0.408000 -0.706700
vn 0.289700 0.000000 -0.957100
vn 0.578000 0.000000 -0.816000
vn 0.289700 0.478600 -0.828900
vn 0.578000 0.408000 -0.706700
vn 0.289700 0.828900 -0.478500
vn 0.578000 0.706700 -0.408000
vn -0.289700 0.957100 0.000000
vn -0.289700 0.828900 0.478500
vn -0.289700 0.478600 0.828900
vn -0.289700 0.000000 0.957100
vn -0.289700 -0.478500 0.828900
vn -0.289700 -0.828900 0.478600
vn -0.289700 -0.957100 0.000000
vn -0.289700 -0.828900 -0.478500
vn -0.289700 -0.478600 -0.828900
vn -0.289700 0.000000 -0.957100
vn -0.289700 0.478500 -0.828900
vn -0.289700 0.828900 -0.478600
vn -0.578000 0.816000 0.000000
vn -0.578000 0.706700 0.408000
vn -0.578000 0.408000 0.706700
vn -0.578000 0.000000 0.816000
vn -0.578000 -0.408000 0.706700
vn -0.578000 -0.706700 0.408000
vn -0.578000 -0.816000 0.000000
vn -0.578000 -0.706700 -0.408000
vn -0.578000 -0.408000 -0.706700
vn -0.578000 0.000000 -0.816000
vn -0.578000 0.408000 -0.706700
vn -0.578000 0.706700 -0.408000
vn 1.000000 0.000000 0.000000
vn -1.000000 0.000000 0.000000
vn 0.578000 0.816000 0.000000
vn 0.289700 0.957100 0.000000
vn 0.289700 0.828900 0.478600
vn 0.578000 0.706700 0.408000
vn 0.289700 0.478500 0.828900
vn 0.578000 0.408000 0.706700
vn 0.289700 0.000000 0.957100
vn 0.578000 0.000000 0.816000
vn 0.289700 -0.478600 0.828900
vn 0.578000 -0.408000 0.706700
vn 0.289700 -0.828900 0.478500
vn 0.578000 -0.706700 0.408000
vn 0.289700 -0.957100 0.000000
vn 0.578000 -0.816000 0.000000
vn 0.289700 -0.828900 -0.478600
vn 0.578000 -0.706700 -0.408000
vn 0.289700 -0.478500 -0.828900
vn 0.578000 -0.408000 -0.706700
vn 0.289700 0.000000 -0.957100
vn 0.578000 0.000000 -0.816000
vn 0.289700 0.478600 -0.828900
vn 0.578000 0.408000 -0.706700
vn 0.289700 0.828900 -0.478500
vn 0.578000 0.706700 -0.408000
vn -0.289700 0.957100 0.000000
vn -0.289700 0.828900 0.478500
vn -0.289700 0.478600 0.828900
vn -0.289700 0.000000 0.957100
vn -0.289700 -0.478500 0.828900
vn -0.289700 -0.828900 0.478600
vn -0.289700 -0.957100 0.000000
vn -0.289700 -0.828900 -0.478500
vn -0.289700 -0.478600 -0.828900
vn -0.289700 0.000000 -0.957100
vn -0.289700 0.478500 -0.828900
vn -0.289700 0.828900 -0.478600
vn -0.578000 0.816000 0.000000
vn -0.578000 0.706700 0.408000
vn -0.578000 0.408000 0.706700
vn -0.578000 0.000000 0.816000
vn -0.578000 -0.408000 0.706700
vn -0.578000 -0.706700 0.408000
vn -0.578000 -0.816000 0.000000
vn -0.578000 -0.706700 -0.408000
vn -0.578000 -0.408000 -0.706700
vn -0.578000 0.000000 -0.816000
vn -0.578000 0.408000 -0.706700
vn -0.578000 0.706700 -0.408000
vn 1.000000 0.000000 0.000000
vn -1.000000 0.000000 0.000000
o hatch_76_wheels_r
usemtl hatch_76_wheels_r
f 1/1/1 2/1/2 3/1/3
f 1/1/1 3/1/3 4/1/4
f 4/1/4 3/1/3 5/1/5
f 4/1/4 5/1/5 6/1/6
f 6/1/6 5/1/5 7/1/7
f 6/1/6 7/1/7 8/1/8
f 8/1/8 7/1/7 9/1/9
f 8/1/8 9/1/9 10/1/10
f 10/1/10 9/1/9 11/1/11
f 10/1/10 11/1/11 12/1/12
f 12/1/12 11/1/11 13/1/13
f 12/1/12 13/1/13 14/1/14
f 14/1/14 13/1/13 15/1/15
f 14/1/14 15/1/15 16/1/16
f 16/1/16 15/1/15 17/1/17
f 16/1/16 17/1/17 18/1/18
f 18/1/18 17/1/17 19/1/19
f 18/1/18 19/1/19 20/1/20
f 20/1/20 19/1/19 21/1/21
f 20/1/20 21/1/21 22/1/22
f 22/1/22 21/1/21 23/1/23
f 22/1/22 23/1/23 24/1/24
f 24/1/24 23/1/23 2/1/2
f 24/1/24 2/1/2 1/1/1
f 2/1/2 25/1/25 26/1/26
f 2/1/2 26/1/26 3/1/3
f 3/1/3 26/1/26 27/1/27
f 3/1/3 27/1/27 5/1/5
f 5/1/5 27/1/27 28/1/28
f 5/1/5 28/1/28 7/1/7
f 7/1/7 28/1/28 29/1/29
f 7/1/7 29/1/29 9/1/9
f 9/1/9 29/1/29 30/1/30
f 9/1/9 30/1/30 11/1/11
f 11/1/11 30/1/30 31/1/31
f 11/1/11 31/1/31 13/1/13
f 13/1/13 31/1/31 32/1/32
f 13/1/13 32/1/32 15/1/15
f 15/1/15 32/1/32 33/1/33
f 15/1/15 33/1/33 17/1/17
f 17/1/17 33/1/33 34/1/34
f 17/1/17 34/1/34 19/1/19
f 19/1/19 34/1/34 35/1/35
f 19/1/19 35/1/35 21/1/21
f 21/1/21 35/1/35 36/1/36
f 21/1/21 36/1/36 23/1/23
f 23/1/23 36/1/36 25/1/25
f 23/1/23 25/1/25 2/1/2
f 25/1/25 37/1/37 38/1/38
f 25/1/25 38/1/38 26/1/26
f 26/1/26 38/1/38 39/1/39
f 26/1/26 39/1/39 27/1/27
f 27/1/27 39/1/39 40/1/40
f 27/1/27 40/1/40 28/1/28
f 28/1/28 40/1/40 41/1/41
f 28/1/28 41/1/41 29/1/29
f 29/1/29 41/1/41 42/1/42
f 29/1/29 42/1/42 30/1/30
f 30/1/30 42/1/42 43/1/43
f 30/1/30 43/1/43 31/1/31
f 31/1/31 43/1/43 44/1/44
f 31/1/31 44/1/44 32/1/32
f 32/1/32 44/1/44 45/1/45
f 32/1/32 45/1/45 33/1/33
f 33/1/33 45/1/45 46/1/46
f 33/1/33 46/1/46 34/1/34
f 34/1/34 46/1/46 47/1/47
f 34/1/34 47/1/47 35/1/35
f 35/1/35 47/1/47 48/1/48
f 35/1/35 48/1/48 36/1/36
f 36/1/36 48/1/48 37/1/37
f 36/1/36 37/1/37 25/1/25
f 49/2/49 50/3/49 51/4/49
f 51/4/49 52/5/49 53/6/49
f 53/6/49 54/7/49 55/8/49
f 55/8/49 56/9/49 57/10/49
f 57/10/49 58/11/49 59/12/49
f 59/12/49 60/13/49 49/2/49
f 49/2/49 51/4/49 53/6/49
f 53/6/49 55/8/49 57/10/49
f 57/10/49 59/12/49 49/2/49
f 53/6/49 57/10/49 49/2/49
f 61/5/50 62/4/50 63/3/50
f 63/3/50 64/2/50 65/13/50
f 65/13/50 66/12/50 67/11/50
f 67/11/50 68/10/50 69/9/50
f 69/9/50 70/8/50 71/7/50
f 71/7/50 72/6/50 61/5/50
f 61/5/50 63/3/50 65/13/50
f 65/13/50 67/11/50 69/9/50
f 69/9/50 71/7/50 61/5/50
f 65/13/50 69/9/50 61/5/50
f 73/14/51 74/14/52 75/14/53
f 73/14/51 75/14/53 76/14/54
f 76/14/54 75/14/53 77/14/55
f 76/14/54 77/14/55 78/14/56
f 78/14/56 77/14/55 79/14/57
f 78/14/56 79/14/57 80/14/58
f 80/14/58 79/14/57 81/14/59
f 80/14/58 81/14/59 82/14/60
f 82/14/60 81/14/59 83/14/61
f 82/14/60 83/14/61 84/14/62
f 84/14/62 83/14/61 85/14/63
f 84/14/62 85/14/63 86/14/64
f 86/14/64 85/14/63 87/14/65
f 86/14/64 87/14/65 88/14/66
f 88/14/66 87/14/65 89/14/67
f 88/14/66 89/14/67 90/14/68
f 90/14/68 89/14/67 91/14/69
f 90/14/68 91/14/69 92/14/70
f 92/14/70 91/14/69 93/14/71
f 92/14/70 93/14/71 94/14/72
f 94/14/72 93/14/71 95/14/73
f 94/14/72 95/14/73 96/14/74
f 96/14/74 95/14/73 74/14/52
f 96/14/74 74/14/52 73/14/51
f 74/14/52 97/14/75 98/14/76
f 74/14/52 98/14/76 75/14/53
f 75/14/53 98/14/76 99/14/77
f 75/14/53 99/14/77 77/14/55
f 77/14/55 99/14/77 100/14/78
f 77/14/55 100/14/78 79/14/57
f 79/14/57 100/14/78 101/14/79
f 79/14/57 101/14/79 81/14/59
f 81/14/59 101/14/79 102/14/80
f 81/14/59 102/14/80 83/14/61
f 83/14/61 102/14/80 103/14/81
f 83/14/61 103/14/81 85/14/63
f 85/14/63 103/14/81 104/14/82
f 85/14/63 104/14/82 87/14/65
f 87/14/65 104/14/82 105/14/83
f 87/14/65 105/14/83 89/14/67
f 89/14/67 105/14/83 106/14/84
f 89/14/67 106/14/84 91/14/69
f 91/14/69 106/14/84 107/14/85
f 91/14/69 107/14/85 93/14/71
f 93/14/71 107/14/85 108/14/86
f 93/14/71 108/14/86 95/14/73
f 95/14/73 108/14/86 97/14/75
f 95/14/73 97/14/75 74/14/52
f 97/14/75 109/14/87 110/14/88
f 97/14/75 110/14/88 98/14/76
f 98/14/76 110/14/88 111/14/89
f 98/14/76 111/14/89 99/14/77
f 99/14/77 111/14/89 112/14/90
f 99/14/77 112/14/90 100/14/78
f 100/14/78 112/14/90 113/14/91
f 100/14/78 113/14/91 101/14/79
f 101/14/79 113/14/91 114/14/92
f 101/14/79 114/14/92 102/14/80
f 102/14/80 114/14/92 115/14/93
f 102/14/80 115/14/93 103/14/81
f 103/14/81 115/14/93 116/14/94
f 103/14/81 116/14/94 104/14/82
f 104/14/82 116/14/94 117/14/95
f 104/14/82 117/14/95 105/14/83
f 105/14/83 117/14/95 118/14/96
f 105/14/83 118/14/96 106/14/84
f 106/14/84 118/14/96 119/14/97
f 106/14/84 119/14/97 107/14/85
f 107/14/85 119/14/97 120/14/98
f 107/14/85 120/14/98 108/14/86
f 108/14/86 120/14/98 109/14/87
f 108/14/86 109/14/87 97/14/75
f 121/15/99 122/16/99 123/17/99
f 123/17/99 124/18/99 125/19/99
f 125/19/99 126/20/99 127/21/99
f 127/21/99 128/22/99 129/23/99
f 129/23/99 130/24/99 131/25/99
f 131/25/99 132/26/99 121/15/99
f 121/15/99 123/17/99 125/19/99
f 125/19/99 127/21/99 129/23/99
f 129/23/99 131/25/99 121/15/99
f 125/19/99 129/23/99 121/15/99
f 133/18/100 134/17/100 135/16/100
f 135/16/100 136/15/100 137/26/100
f 137/26/100 138/25/100 139/24/100
f 139/24/100 140/23/100 141/22/100
f 141/22/100 142/21/100 143/20/100
f 143/20/100 144/19/100 133/18/100
f 133/18/100 135/16/100 137/26/100
f 137/26/100 139/24/100 141/22/100
f 141/22/100 143/20/100 133/18/100
f 137/26/100 141/22/100 133/18/100
