# PSX Racing car model — generated by tools/carmodels/export_models.mjs
mtllib mb_pagoda_wheels_f.mtl
v 0.518788 0.075719 1.398918
v 0.518788 0.300000 1.491818
v 0.518788 0.300000 1.174637
v 0.518788 -0.017181 1.174637
v 0.764227 0.300000 1.174637
v 0.764227 0.300000 1.491818
v 0.764227 0.075719 1.398918
v 0.764227 -0.017181 1.174637
v 0.518788 0.300000 0.857457
v 0.764227 0.300000 0.857457
v 0.764227 0.075719 0.950357
v 0.518788 0.075719 0.950357
v 0.518788 0.524281 1.398918
v 0.518788 0.617181 1.174637
v 0.764227 0.617181 1.174637
v 0.764227 0.524281 1.398918
v 0.518788 0.524281 0.950357
v 0.764227 0.524281 0.950357
v -0.518788 0.075719 1.398918
v -0.518788 -0.017181 1.174637
v -0.518788 0.300000 1.174637
v -0.518788 0.300000 1.491818
v -0.764227 0.300000 1.174637
v -0.764227 -0.017181 1.174637
v -0.764227 0.075719 1.398918
v -0.764227 0.300000 1.491818
v -0.518788 0.300000 0.857457
v -0.518788 0.075719 0.950357
v -0.764227 0.075719 0.950357
v -0.764227 0.300000 0.857457
v -0.518788 0.524281 1.398918
v -0.518788 0.617181 1.174637
v -0.764227 0.524281 1.398918
v -0.764227 0.617181 1.174637
v -0.518788 0.524281 0.950357
v -0.764227 0.524281 0.950357
vt 0.962528 0.500132
vt 0.998797 0.586362
vt 0.874969 0.586362
vt 0.874969 0.464414
vt 0.874909 0.586127
vt 0.750934 0.586127
vt 0.787245 0.499794
vt 0.874909 0.464034
vt 0.622180 0.405673
vt 0.609545 0.405673
vt 0.609545 0.393176
vt 0.622180 0.393176
vt 0.609545 0.380678
vt 0.622180 0.380678
vt 0.962528 0.672592
vt 0.874969 0.708310
vt 0.874909 0.708221
vt 0.787245 0.672460
vt 0.622190 0.380678
vt 0.634826 0.380678
vt 0.634826 0.393176
vt 0.622190 0.393176
vt 0.634826 0.405673
vt 0.622190 0.405673
vt 0.787410 0.672592
vt 0.751142 0.586362
vt 0.998884 0.586127
vt 0.962572 0.672460
vt 0.634826 0.418171
vt 0.622190 0.418171
vt 0.634826 0.430668
vt 0.622190 0.430668
vt 0.787410 0.500132
vt 0.622180 0.430668
vt 0.609545 0.430668
vt 0.609545 0.418171
vt 0.622180 0.418171
vt 0.962572 0.499794
vt 0.962528 0.500132
vt 0.874969 0.464414
vt 0.874969 0.586362
vt 0.998797 0.586362
vt 0.874909 0.586127
vt 0.874909 0.464034
vt 0.787245 0.499794
vt 0.750934 0.586127
vt 0.622180 0.405673
vt 0.622180 0.393176
vt 0.609545 0.393176
vt 0.609545 0.405673
vt 0.622180 0.380678
vt 0.609545 0.380678
vt 0.962528 0.672592
vt 0.874969 0.708310
vt 0.787245 0.672460
vt 0.874909 0.708221
vt 0.622190 0.380678
vt 0.622190 0.393176
vt 0.634826 0.393176
vt 0.634826 0.380678
vt 0.622190 0.405673
vt 0.634826 0.405673
vt 0.787410 0.672592
vt 0.751142 0.586362
vt 0.962572 0.672460
vt 0.998884 0.586127
vt 0.622190 0.418171
vt 0.634826 0.418171
vt 0.622190 0.430668
vt 0.634826 0.430668
vt 0.787410 0.500132
vt 0.622180 0.430668
vt 0.622180 0.418171
vt 0.609545 0.418171
vt 0.609545 0.430668
vt 0.962572 0.499794
vn -0.630300 -0.549000 0.549000
vn -0.630200 0.000000 0.776400
vn -1.000000 0.000000 0.000000
vn -0.630200 -0.776400 0.000000
vn 1.000000 0.000000 0.000000
vn 0.630200 0.000000 0.776400
vn 0.630300 -0.549000 0.549000
vn 0.630200 -0.776400 0.000000
vn -0.630200 0.000000 -0.776400
vn 0.630200 0.000000 -0.776400
vn 0.630300 -0.549000 -0.549000
vn -0.630300 -0.549000 -0.549000
vn -0.630300 0.549000 0.549000
vn -0.630200 0.776400 0.000000
vn 0.630200 0.776400 0.000000
vn 0.630300 0.549000 0.549000
vn -0.630300 0.549000 -0.549000
vn 0.630300 0.549000 -0.549000
vn 0.630300 -0.549000 0.549000
vn 0.630200 -0.776400 0.000000
vn 1.000000 0.000000 0.000000
vn 0.630200 0.000000 0.776400
vn -1.000000 0.000000 0.000000
vn -0.630200 -0.776400 0.000000
vn -0.630300 -0.549000 0.549000
vn -0.630200 0.000000 0.776400
vn 0.630200 0.000000 -0.776400
vn 0.630300 -0.549000 -0.549000
vn -0.630300 -0.549000 -0.549000
vn -0.630200 0.000000 -0.776400
vn 0.630300 0.549000 0.549000
vn 0.630200 0.776400 0.000000
vn -0.630300 0.549000 0.549000
vn -0.630200 0.776400 0.000000
vn 0.630300 0.549000 -0.549000
vn -0.630300 0.549000 -0.549000
o mb_pagoda_wheels_f
usemtl mb_pagoda_wheels_f
f 1/1/1 2/2/2 3/3/3 4/4/4
f 5/5/5 6/6/6 7/7/7 8/8/8
f 9/9/9 10/10/10 11/11/11 12/12/12
f 12/12/12 11/11/11 8/13/8 4/14/4
f 13/15/13 14/16/14 3/3/3 2/2/2
f 5/5/5 15/17/15 16/18/16 6/6/6
f 4/19/4 8/20/8 7/21/7 1/22/1
f 1/22/1 7/21/7 6/23/6 2/24/2
f 17/25/17 9/26/9 3/3/3 14/16/14
f 5/5/5 10/27/10 18/28/18 15/17/15
f 2/24/2 6/23/6 16/29/16 13/30/13
f 13/30/13 16/29/16 15/31/15 14/32/14
f 12/33/12 4/4/4 3/3/3 9/26/9
f 14/34/14 15/35/15 18/36/18 17/37/17
f 17/37/17 18/36/18 10/10/10 9/9/9
f 5/5/5 8/8/8 11/38/11 10/27/10
f 19/39/19 20/40/20 21/41/21 22/42/22
f 23/43/23 24/44/24 25/45/25 26/46/26
f 27/47/27 28/48/28 29/49/29 30/50/30
f 28/48/28 20/51/20 24/52/24 29/49/29
f 31/53/31 22/42/22 21/41/21 32/54/32
f 23/43/23 26/46/26 33/55/33 34/56/34
f 20/57/20 19/58/19 25/59/25 24/60/24
f 19/58/19 22/61/22 26/62/26 25/59/25
f 35/63/35 32/54/32 21/41/21 27/64/27
f 23/43/23 34/56/34 36/65/36 30/66/30
f 22/61/22 31/67/31 33/68/33 26/62/26
f 31/67/31 32/69/32 34/70/34 33/68/33
f 28/71/28 27/64/27 21/41/21 20/40/20
f 32/72/32 35/73/35 36/74/36 34/75/34
f 35/73/35 27/47/27 30/50/30 36/74/36
f 23/43/23 30/66/30 29/76/29 24/44/24
