# PSX Racing car model — generated by tools/carmodels/export_models.mjs
mtllib mb_pagoda.mtl
v 0.804982 0.427790 -1.560202
v 0.821767 0.626902 -1.351289
v 0.442952 0.626902 -1.351289
v 0.442952 0.427790 -1.560202
v 0.573390 0.687313 1.795712
v 0.773802 0.700563 1.795712
v 0.667318 0.760111 1.795712
v 0.706772 0.875294 0.259602
v 0.706772 0.875294 -1.200000
v 0.522954 1.274074 -0.831492
v 0.522954 1.274074 0.042678
v 0.000000 1.292349 -0.831492
v 0.000000 1.292349 0.138875
v 0.000000 0.279732 0.507383
v 0.000000 0.279732 -0.819289
v 0.442952 0.279732 -0.819289
v 0.363530 0.279732 0.507383
v 0.000000 0.893569 0.507383
v 0.000000 0.893569 -1.250372
v 0.000000 0.626902 -2.110900
v 0.000000 0.853272 -2.005118
v 0.644259 0.834996 -2.005118
v 0.644259 0.608627 -2.110900
v 0.706772 0.867722 -1.351274
v 0.000000 0.887356 -1.366740
v 0.832932 0.675510 -1.200000
v 0.442952 0.675510 -1.200000
v 0.789360 0.626902 1.795712
v 0.573813 0.626902 1.795712
v 0.821767 0.626902 1.163903
v 0.808636 0.773455 1.061482
v 0.807767 0.757243 1.335109
v 0.821767 0.626902 1.336249
v 0.804982 0.427790 1.530249
v 0.442296 0.427790 1.530249
v 0.442296 0.626902 1.336249
v 0.772576 0.427790 1.795712
v 0.574561 0.427790 1.795712
v 0.832703 0.797975 -1.200000
v 0.832703 0.790403 -1.351279
v 0.000000 0.427790 -2.110900
v 0.644260 0.409514 -2.110900
v 0.442952 0.279732 -1.200000
v 0.000000 0.279732 -1.200000
v 0.821767 0.626902 -0.935892
v 0.804982 0.427790 -0.819289
v 0.442952 0.427790 -0.819289
v 0.442952 0.626902 -0.935892
v 0.442952 0.297728 -1.632955
v 0.000000 0.316003 -1.632955
v 0.000000 0.349694 -2.035108
v 0.449364 0.331418 -2.035108
v 0.727060 0.279732 1.795712
v 0.574423 0.279732 1.795712
v 0.804982 0.427790 0.841969
v 0.442296 0.626902 1.163903
v 0.442296 0.427790 0.841969
v 0.727060 0.279732 0.465925
v 0.804982 0.427790 0.465925
v 0.727060 0.279732 0.734004
v 0.821767 0.626902 0.462281
v 0.442296 0.279732 0.734004
v 0.442296 0.279732 1.163903
v 0.000000 0.279732 1.163903
v 0.000000 0.279732 0.734004
v 0.442296 0.279732 1.552179
v 0.000000 0.279732 1.552179
v 0.826502 0.774867 0.466211
v 0.442296 0.427790 1.163903
v 0.727060 0.279732 1.552179
v 0.442952 0.626902 -1.200000
v 0.727060 0.279732 -0.819289
v 0.727060 0.316003 -1.632955
v 0.664548 0.349694 -2.035108
v 0.724466 0.427790 -2.055763
v 0.741250 0.626902 -2.055763
v 0.442952 0.427790 -1.200000
v 0.000000 0.739654 1.926204
v 0.000000 0.626902 1.926204
v 0.000000 0.427790 1.926204
v 0.621965 0.785982 1.330823
v 0.649083 0.830896 1.046340
v 0.000000 0.874667 1.216793
v 0.000000 0.832823 1.470954
v 0.000000 0.279732 1.926204
v 0.770190 0.757677 -2.005118
v 0.696404 0.842387 1.335934
v 0.712642 0.865717 1.053411
v -0.804982 0.427790 -1.560202
v -0.442952 0.427790 -1.560202
v -0.442952 0.626902 -1.351289
v -0.821767 0.626902 -1.351289
v -0.573390 0.687313 1.795712
v -0.667318 0.760111 1.795712
v -0.773802 0.700563 1.795712
v -0.706772 0.875294 0.259602
v -0.522954 1.274074 0.042678
v -0.522954 1.274074 -0.831492
v -0.706772 0.875294 -1.200000
v -0.363530 0.279732 0.507383
v -0.442952 0.279732 -0.819289
v -0.644259 0.608627 -2.110900
v -0.644259 0.834996 -2.005118
v -0.706772 0.867722 -1.351274
v -0.442952 0.675510 -1.200000
v -0.832932 0.675510 -1.200000
v -0.789360 0.626902 1.795712
v -0.573813 0.626902 1.795712
v -0.821767 0.626902 1.163903
v -0.821767 0.626902 1.336249
v -0.807767 0.757243 1.335109
v -0.808636 0.773455 1.061482
v -0.442296 0.626902 1.336249
v -0.442296 0.427790 1.530249
v -0.804982 0.427790 1.530249
v -0.772576 0.427790 1.795712
v -0.574561 0.427790 1.795712
v -0.832703 0.797975 -1.200000
v -0.832703 0.790403 -1.351279
v -0.644260 0.409514 -2.110900
v -0.442952 0.279732 -1.200000
v -0.821767 0.626902 -0.935892
v -0.442952 0.626902 -0.935892
v -0.442952 0.427790 -0.819289
v -0.804982 0.427790 -0.819289
v -0.442952 0.297728 -1.632955
v -0.449364 0.331418 -2.035108
v -0.727060 0.279732 1.795712
v -0.574423 0.279732 1.795712
v -0.804982 0.427790 0.841969
v -0.442296 0.427790 0.841969
v -0.442296 0.626902 1.163903
v -0.727060 0.279732 0.465925
v -0.727060 0.279732 0.734004
v -0.804982 0.427790 0.465925
v -0.821767 0.626902 0.462281
v -0.442296 0.279732 0.734004
v -0.442296 0.279732 1.163903
v -0.442296 0.279732 1.552179
v -0.826502 0.774867 0.466211
v -0.442296 0.427790 1.163903
v -0.727060 0.279732 1.552179
v -0.442952 0.626902 -1.200000
v -0.727060 0.279732 -0.819289
v -0.724466 0.427790 -2.055763
v -0.664548 0.349694 -2.035108
v -0.727060 0.316003 -1.632955
v -0.741250 0.626902 -2.055763
v -0.442952 0.427790 -1.200000
v -0.621965 0.785982 1.330823
v -0.649083 0.830896 1.046340
v -0.770190 0.757677 -2.005118
v -0.696404 0.842387 1.335934
v -0.712642 0.865717 1.053411
v 0.778155 0.886483 0.211009
v 0.805902 0.884651 0.211009
v 0.799184 0.864516 0.211009
v 0.775959 0.853235 0.211009
v 0.822025 0.971644 0.216214
v 0.822025 1.010986 0.216214
v 0.794218 1.010986 0.216214
v 0.794218 0.971644 0.216214
v 0.794218 1.010986 0.195499
v 0.794218 0.971644 0.195499
v 0.822025 1.010986 0.195499
v 0.822025 0.971644 0.195499
v 0.799184 0.864516 0.231724
v 0.775959 0.853235 0.231724
v 0.736210 0.841370 0.262336
v 0.736210 0.841370 0.241620
v 0.805902 0.884651 0.231724
v 0.778155 0.886483 0.231724
v 0.711702 0.865286 0.242742
v 0.711702 0.865286 0.263458
v -0.778155 0.886483 0.211009
v -0.775959 0.853235 0.211009
v -0.799184 0.864516 0.211009
v -0.805902 0.884651 0.211009
v -0.822025 0.971644 0.216214
v -0.794218 0.971644 0.216214
v -0.794218 1.010986 0.216214
v -0.822025 1.010986 0.216214
v -0.794218 1.010986 0.195499
v -0.794218 0.971644 0.195499
v -0.822025 1.010986 0.195499
v -0.822025 0.971644 0.195499
v -0.775959 0.853235 0.231724
v -0.799184 0.864516 0.231724
v -0.736210 0.841370 0.241620
v -0.736210 0.841370 0.262336
v -0.805902 0.884651 0.231724
v -0.778155 0.886483 0.231724
v -0.711702 0.865286 0.263458
v -0.711702 0.865286 0.242742
v 0.722340 0.937315 0.200068
v 0.722340 1.045315 0.200068
v 0.717423 1.045315 0.185244
v 0.717423 0.937315 0.185244
v 0.871186 1.045315 0.134244
v 0.871186 0.937315 0.134244
v 0.876103 1.045315 0.149068
v 0.876103 0.937315 0.149068
v 0.792089 0.973611 0.205102
v 0.792089 1.009019 0.205102
v 0.823188 1.009019 0.194787
v 0.823188 0.973611 0.194787
v -0.722340 0.937315 0.200068
v -0.717423 0.937315 0.185244
v -0.717423 1.045315 0.185244
v -0.722340 1.045315 0.200068
v -0.871186 0.937315 0.134244
v -0.871186 1.045315 0.134244
v -0.876103 0.937315 0.149068
v -0.876103 1.045315 0.149068
v -0.792089 0.973611 0.205102
v -0.792089 1.009019 0.205102
v -0.823188 1.009019 0.194787
v -0.823188 0.973611 0.194787
v 0.783556 0.342570 1.607495
v 0.783556 0.448013 1.607495
v 0.860922 0.448013 1.578252
v 0.860922 0.342570 1.578252
v 0.837569 0.342570 1.729357
v 0.837569 0.448013 1.729357
v 0.779905 0.448013 1.853867
v 0.779905 0.342570 1.853867
v 0.000000 0.342570 1.875590
v 0.430461 0.342570 1.841504
v 0.430461 0.342570 1.924352
v 0.000000 0.342570 1.965940
v 0.764400 0.342570 1.749513
v 0.764400 0.448013 1.749513
v 0.430461 0.448013 1.841504
v 0.430461 0.448013 1.924352
v 0.000000 0.448013 1.875590
v 0.000000 0.448013 1.965940
v -0.783556 0.342570 1.607495
v -0.860922 0.342570 1.578252
v -0.860922 0.448013 1.578252
v -0.783556 0.448013 1.607495
v -0.837569 0.342570 1.729357
v -0.779905 0.342570 1.853867
v -0.779905 0.448013 1.853867
v -0.837569 0.448013 1.729357
v -0.430461 0.342570 1.924352
v -0.430461 0.342570 1.841504
v -0.764400 0.342570 1.749513
v -0.764400 0.448013 1.749513
v -0.430461 0.448013 1.924352
v -0.430461 0.448013 1.841504
v -0.776360 0.383402 -2.068809
v -0.776360 0.471481 -2.068809
v -0.760667 0.471481 -2.145108
v -0.760667 0.383402 -2.145108
v -0.726097 0.383402 -2.074444
v -0.726097 0.471481 -2.074444
v -0.274335 0.471481 -2.094412
v -0.310833 0.471481 -2.165271
v -0.310833 0.383402 -2.165271
v -0.274335 0.383402 -2.094412
v -0.726097 0.383402 -1.969423
v -0.776360 0.383402 -1.963787
v -0.776360 0.471481 -1.963787
v -0.726097 0.471481 -1.969423
v 0.776360 0.383402 -2.068809
v 0.760668 0.383402 -2.145109
v 0.760668 0.471481 -2.145109
v 0.776360 0.471481 -2.068809
v 0.726097 0.383402 -2.074445
v 0.726097 0.471481 -2.074445
v 0.310834 0.471481 -2.165271
v 0.274336 0.471481 -2.094412
v 0.310834 0.383402 -2.165271
v 0.274336 0.383402 -2.094412
v 0.776360 0.383402 -1.963788
v 0.726097 0.383402 -1.969423
v 0.776360 0.471481 -1.963788
v 0.726097 0.471481 -1.969423
vt 0.065687 0.496866
vt 0.066110 0.504142
vt 0.056560 0.504142
vt 0.056560 0.496866
vt 0.250378 0.817009
vt 0.355655 0.815288
vt 0.295079 0.846689
vt 0.415646 0.156498
vt 0.750275 0.156498
vt 0.665791 0.243001
vt 0.465378 0.243001
vt 0.682218 0.343716
vt 0.681974 0.460918
vt 0.453025 0.460918
vt 0.452611 0.367642
vt 0.009819 0.557295
vt 0.009825 0.523847
vt 0.020992 0.523849
vt 0.018984 0.557296
vt 0.365553 0.460918
vt 0.409458 0.297094
vt 0.748205 0.305232
vt 0.747288 0.460918
vt 0.779313 0.860670
vt 0.779313 0.964571
vt 0.454912 0.956183
vt 0.454912 0.852281
vt 0.748205 0.302519
vt 0.782108 0.302519
vt 0.785574 0.460918
vt 0.066392 0.508148
vt 0.056560 0.508148
vt 0.334855 0.776063
vt 0.328716 0.805125
vt 0.236858 0.799897
vt 0.237025 0.776063
vt 0.208325 0.094630
vt 0.231806 0.125197
vt 0.169074 0.121793
vt 0.168813 0.094630
vt 0.056247 0.543021
vt 0.055824 0.550030
vt 0.046680 0.550030
vt 0.046680 0.543021
vt 0.328233 0.697503
vt 0.237320 0.697503
vt 0.750275 0.133850
vt 0.750275 0.105774
vt 0.784960 0.094630
vt 0.784958 0.132114
vt 0.779313 0.769279
vt 0.454912 0.760891
vt 0.020994 0.514250
vt 0.009826 0.514248
vt 0.066110 0.514919
vt 0.065687 0.520736
vt 0.056560 0.520736
vt 0.056560 0.514919
vt 0.020996 0.503325
vt 0.009819 0.503294
vt 0.779313 0.733434
vt 0.573060 0.725045
vt 0.301499 0.609171
vt 0.333524 0.670021
vt 0.238823 0.670021
vt 0.238766 0.609171
vt 0.055824 0.529132
vt 0.056247 0.538675
vt 0.046680 0.538675
vt 0.046680 0.529132
vt 0.368344 0.015037
vt 0.368344 0.048981
vt 0.282132 0.048981
vt 0.306884 0.015037
vt 0.369179 0.094630
vt 0.020969 0.563010
vt 0.020967 0.573849
vt 0.009816 0.573847
vt 0.009818 0.563008
vt 0.020965 0.583638
vt 0.009814 0.583636
vt 0.368278 0.122713
vt 0.071454 0.502898
vt 0.066434 0.502898
vt 0.066434 0.498552
vt 0.071454 0.493661
vt 0.124336 0.048981
vt 0.057811 0.094630
vt 0.057811 0.048981
vt 0.119308 0.015037
vt 0.057811 0.015037
vt 0.053859 0.553803
vt 0.046680 0.553803
vt 0.075187 0.502898
vt 0.075187 0.493108
vt 0.071454 0.511014
vt 0.075187 0.513736
vt 0.053859 0.524512
vt 0.046680 0.524512
vt 0.067389 0.555135
vt 0.066165 0.555186
vt 0.067113 0.548482
vt 0.662993 0.015037
vt 0.662993 0.048981
vt 0.689726 0.094630
vt 0.832856 0.048981
vt 0.849535 0.023353
vt 0.941733 0.031077
vt 0.959109 0.048981
vt 0.959109 0.094630
vt 0.063723 0.493503
vt 0.056556 0.493108
vt 0.072405 0.554926
vt 0.076135 0.554771
vt 0.076135 0.565696
vt 0.072782 0.564000
vt 0.072007 0.545336
vt 0.075736 0.545181
vt 0.067548 0.558946
vt 0.063723 0.524469
vt 0.056560 0.524469
vt 0.753717 0.151509
vt 0.753717 0.134341
vt 0.771058 0.133473
vt 0.771057 0.150641
vt 0.010628 0.820549
vt 0.010628 0.776063
vt 0.010628 0.697503
vt 0.181007 0.321526
vt 0.244764 0.315448
vt 0.206563 0.460918
vt 0.149601 0.460918
vt 0.415646 0.151577
vt 0.750275 0.151577
vt 0.028150 0.556253
vt 0.028148 0.563012
vt 0.028155 0.523850
vt 0.024295 0.589779
vt 0.028145 0.583640
vt 0.028143 0.589780
vt 0.002686 0.670021
vt 0.002686 0.609171
vt 0.009812 0.593066
vt 0.021151 0.493150
vt 0.009812 0.493119
vt 0.402131 0.860670
vt 0.409835 0.769279
vt 0.397111 0.920694
vt 0.445600 0.733434
vt 0.026595 0.493108
vt 0.028174 0.503282
vt 0.168885 0.144032
vt 0.052867 0.125170
vt 0.056709 0.111518
vt 0.233656 0.149381
vt 0.041415 0.332412
vt 0.041057 0.311361
vt 0.179861 0.304843
vt 0.243180 0.301204
vt 0.022182 0.460918
vt 0.934857 0.124612
vt 0.782108 0.295156
vt 0.972438 0.295156
vt 0.972438 0.460918
vt 0.784957 0.149841
vt 0.934857 0.142338
vt 0.047383 0.496867
vt 0.056510 0.496866
vt 0.056511 0.504142
vt 0.046961 0.504143
vt 0.046607 0.557284
vt 0.037442 0.557291
vt 0.035411 0.523845
vt 0.046579 0.523835
vt 0.056512 0.508148
vt 0.046680 0.508149
vt 0.056556 0.543020
vt 0.066123 0.543020
vt 0.066123 0.550029
vt 0.056979 0.550029
vt 0.035403 0.514246
vt 0.046571 0.514237
vt 0.046962 0.514920
vt 0.056513 0.514919
vt 0.056513 0.520736
vt 0.047386 0.520737
vt 0.035394 0.503321
vt 0.046571 0.503283
vt 0.056979 0.529131
vt 0.066123 0.529131
vt 0.066123 0.538675
vt 0.056556 0.538675
vt 0.035461 0.563007
vt 0.046612 0.562997
vt 0.046621 0.573836
vt 0.035470 0.573845
vt 0.046630 0.583625
vt 0.035478 0.583635
vt 0.071185 0.535350
vt 0.071185 0.544586
vt 0.066165 0.539695
vt 0.066165 0.535350
vt 0.066123 0.553802
vt 0.058944 0.553802
vt 0.074918 0.535350
vt 0.074918 0.545139
vt 0.071185 0.527233
vt 0.074918 0.524511
vt 0.058944 0.524511
vt 0.066123 0.524511
vt 0.083705 0.534465
vt 0.083982 0.527812
vt 0.084930 0.534516
vt 0.049347 0.493504
vt 0.056514 0.493108
vt 0.078690 0.534256
vt 0.078312 0.543330
vt 0.074960 0.545026
vt 0.074960 0.534101
vt 0.079088 0.524666
vt 0.075359 0.524511
vt 0.083547 0.538276
vt 0.056514 0.524469
vt 0.049351 0.524470
vt 0.028276 0.556254
vt 0.028281 0.563013
vt 0.028248 0.523851
vt 0.032152 0.589777
vt 0.028304 0.589781
vt 0.028299 0.583641
vt 0.046638 0.593055
vt 0.035232 0.493147
vt 0.046571 0.493108
vt 0.028216 0.503284
vt 0.029787 0.493108
vt 0.129286 0.179391
vt 0.129007 0.180392
vt 0.128877 0.179159
vt 0.128687 0.178314
vt 0.132409 0.202493
vt 0.131982 0.210705
vt 0.129156 0.208518
vt 0.130726 0.202015
vt 0.126831 0.209646
vt 0.130573 0.201046
vt 0.133270 0.215501
vt 0.133270 0.202039
vt 0.128992 0.179120
vt 0.128953 0.178179
vt 0.127234 0.165505
vt 0.126911 0.167622
vt 0.129178 0.180350
vt 0.128527 0.179450
vt 0.127659 0.168661
vt 0.127263 0.168198
vt 0.138026 0.175746
vt 0.109429 0.174956
vt 0.104169 0.170171
vt 0.142296 0.170035
vt 0.199716 0.213669
vt 0.199716 0.192562
vt 0.236829 0.192562
vt 0.236829 0.213669
vt 0.141755 0.216290
vt 0.104169 0.220026
vt 0.108577 0.213775
vt 0.136851 0.211962
vt 0.128527 0.190486
vt 0.119839 0.189777
vt 0.119505 0.198358
vt 0.127982 0.198106
vt 0.130682 0.196175
vt 0.125077 0.196175
vt 0.125077 0.191778
vt 0.130682 0.191778
vt 0.116933 0.190570
vt 0.116933 0.196175
vt 0.109639 0.196175
vt 0.109639 0.190570
vt 0.158056 0.226712
vt 0.135836 0.220955
vt 0.137274 0.216792
vt 0.159624 0.222172
vt 0.117461 0.219782
vt 0.113435 0.219525
vt 0.121868 0.214723
vt 0.151802 0.207324
vt 0.133427 0.208497
vt 0.131989 0.204334
vt 0.147395 0.202265
vt 0.111207 0.214254
vt 0.109639 0.209714
vt 0.132628 0.196191
vt 0.132628 0.201796
vt 0.109639 0.201796
vt 0.109639 0.196191
vt 0.148172 0.196191
vt 0.148172 0.201796
vt 0.114034 0.226585
vt 0.109639 0.226712
vt 0.125061 0.190570
vt 0.125061 0.196175
vt 0.159624 0.214254
vt 0.155229 0.214127
vt 0.155828 0.207067
vt 0.150770 0.201812
vt 0.115452 0.213519
vt 0.108560 0.213519
vt 0.108560 0.207424
vt 0.115452 0.207424
vt 0.122335 0.206240
vt 0.121711 0.210148
vt 0.115467 0.202327
vt 0.137138 0.177852
vt 0.145059 0.212339
vt 0.138953 0.211065
vt 0.130270 0.181765
vt 0.115452 0.202312
vt 0.108560 0.202312
vt 0.108560 0.171752
vt 0.115452 0.171752
vt 0.136515 0.173943
vt 0.131088 0.176719
vt 0.130256 0.171752
vt 0.124150 0.173026
vt 0.130256 0.208431
vt 0.129632 0.212339
vt 0.115452 0.221737
vt 0.108560 0.221737
vt 0.144435 0.171752
vt 0.145059 0.175660
vt 0.145074 0.178644
vt 0.145074 0.171752
vt 0.151311 0.171752
vt 0.151311 0.178644
vn 0.754200 -0.544900 0.366400
vn 0.749100 -0.608500 0.261800
vn 0.660100 -0.645800 0.383700
vn 0.677100 -0.461300 0.573300
vn -0.041700 0.550000 0.834100
vn 0.631500 0.385600 0.672700
vn -0.048300 0.742500 0.668100
vn 0.529800 0.828700 0.180600
vn 0.433100 0.885100 -0.170200
vn 0.473800 0.831300 -0.290400
vn 0.503100 0.807300 0.308600
vn 0.000000 0.925500 -0.378800
vn 0.000000 0.885000 0.465500
vn 0.000000 -1.000000 0.000000
vn 0.301500 -0.904500 -0.301500
vn 0.000000 0.925500 0.378700
vn 0.000000 0.919100 -0.393900
vn 0.000000 0.220600 -0.975400
vn 0.000000 0.831900 -0.554900
vn 0.241700 0.812300 -0.530800
vn 0.228000 0.181700 -0.956600
vn 0.292200 0.954300 -0.062200
vn 0.000000 0.998600 -0.052200
vn 0.762000 -0.646900 0.028000
vn 0.656100 -0.753100 0.048600
vn 0.708500 0.036900 0.704800
vn 0.111400 0.000200 0.993800
vn 0.796900 -0.576900 0.179200
vn 0.894200 0.446500 0.030500
vn 0.862700 0.498200 0.086700
vn 0.847700 -0.495000 -0.190600
vn 0.796500 -0.423400 -0.431700
vn 0.644000 -0.339400 -0.685600
vn 0.629200 -0.716100 -0.302100
vn 0.684700 -0.152100 0.712800
vn 0.111300 0.000100 0.993800
vn 0.886800 0.461900 -0.017600
vn 0.891200 0.447100 -0.077100
vn 0.000000 -0.360600 -0.932700
vn 0.233800 -0.396600 -0.887700
vn 0.698900 -0.714900 -0.022400
vn 0.000000 -0.999500 -0.031300
vn 0.798800 -0.512800 -0.314700
vn 0.752300 -0.375600 -0.541200
vn 0.652700 -0.198400 -0.731200
vn 0.624300 -0.639600 -0.448500
vn 0.201300 -0.965800 0.163600
vn 0.000000 -0.997300 -0.073200
vn 0.000000 -0.897600 -0.440700
vn 0.015300 -0.904900 -0.425300
vn 0.444200 -0.664400 0.601000
vn 0.075800 -0.733100 0.675900
vn 0.725900 -0.575700 0.376300
vn 0.650400 -0.730600 0.207700
vn 0.666300 -0.547000 0.506800
vn 0.516900 -0.856100 0.000000
vn 0.959900 -0.280500 0.000000
vn 0.423500 -0.833100 0.355900
vn 0.999000 -0.045300 0.004500
vn 0.160700 -0.962900 0.216800
vn 0.707100 -0.707100 0.000000
vn 0.265000 -0.919900 -0.289200
vn 0.909000 0.416700 0.010900
vn 1.000000 0.000000 0.000000
vn 0.443600 -0.711500 -0.544900
vn 0.410700 -0.680200 -0.607200
vn 0.422300 -0.847100 0.322700
vn 0.394200 -0.844000 -0.363800
vn 0.785000 -0.326700 -0.526400
vn 0.775100 0.106000 -0.622900
vn 0.000000 0.609100 0.793100
vn 0.000000 0.000500 1.000000
vn 0.000000 0.000200 1.000000
vn -0.252600 0.957200 0.141500
vn -0.235100 0.969700 0.066800
vn 0.000000 0.993500 0.114100
vn 0.000000 0.981700 0.190500
vn 0.000000 -0.660500 0.750800
vn 0.782900 0.418400 -0.460400
vn 0.012100 0.992500 0.121800
vn 0.093600 0.994400 0.048300
vn -0.754200 -0.544900 0.366400
vn -0.677100 -0.461300 0.573300
vn -0.660100 -0.645800 0.383700
vn -0.749100 -0.608500 0.261800
vn 0.041700 0.550000 0.834100
vn 0.048300 0.742500 0.668100
vn -0.631500 0.385600 0.672700
vn -0.529800 0.828700 0.180600
vn -0.503100 0.807300 0.308600
vn -0.473800 0.831300 -0.290400
vn -0.433100 0.885100 -0.170200
vn -0.301500 -0.904500 -0.301500
vn -0.228000 0.181700 -0.956600
vn -0.241700 0.812300 -0.530800
vn -0.292200 0.954300 -0.062200
vn -0.656100 -0.753100 0.048600
vn -0.762000 -0.646900 0.028000
vn -0.708500 0.036900 0.704800
vn -0.111400 0.000200 0.993800
vn -0.796900 -0.576900 0.179200
vn -0.847700 -0.495000 -0.190600
vn -0.862700 0.498200 0.086700
vn -0.894200 0.446500 0.030500
vn -0.629200 -0.716100 -0.302100
vn -0.644000 -0.339400 -0.685600
vn -0.796500 -0.423400 -0.431700
vn -0.684700 -0.152100 0.712800
vn -0.111300 0.000100 0.993800
vn -0.886800 0.461900 -0.017600
vn -0.891200 0.447100 -0.077100
vn -0.233800 -0.396600 -0.887700
vn -0.698900 -0.714900 -0.022400
vn -0.798800 -0.512800 -0.314700
vn -0.624300 -0.639600 -0.448500
vn -0.652700 -0.198400 -0.731200
vn -0.752300 -0.375600 -0.541200
vn -0.201300 -0.965800 0.163600
vn -0.015300 -0.904900 -0.425300
vn -0.444200 -0.664400 0.601000
vn -0.075800 -0.733100 0.675900
vn -0.725900 -0.575700 0.376300
vn -0.666300 -0.547000 0.506800
vn -0.650400 -0.730600 0.207700
vn -0.516900 -0.856100 0.000000
vn -0.423500 -0.833100 0.355900
vn -0.959900 -0.280500 0.000000
vn -0.999000 -0.045300 0.004500
vn -0.160700 -0.962900 0.216800
vn -0.707100 -0.707100 0.000000
vn -0.265000 -0.919900 -0.289200
vn -0.909000 0.416700 0.010900
vn -1.000000 0.000000 0.000000
vn -0.443600 -0.711500 -0.544900
vn -0.410700 -0.680200 -0.607200
vn -0.785000 -0.326700 -0.526400
vn -0.394200 -0.844000 -0.363800
vn -0.422300 -0.847100 0.322700
vn -0.775100 0.106000 -0.622900
vn 0.252600 0.957200 0.141500
vn 0.235100 0.969700 0.066800
vn -0.782900 0.418400 -0.460400
vn -0.012100 0.992500 0.121800
vn -0.093600 0.994400 0.048300
vn 0.000000 0.000000 -1.000000
vn 0.000000 0.000000 1.000000
vn 0.000000 1.000000 0.000000
vn 0.436900 -0.899500 0.000000
vn 0.286000 -0.958200 0.000000
vn 0.948600 -0.316500 0.000000
vn 0.005800 0.176300 0.984300
vn 0.983300 -0.182200 0.000000
vn -0.982700 0.185300 0.000000
vn -0.005800 -0.176300 -0.984300
vn -0.303900 0.952700 0.000000
vn 0.461300 0.162900 0.872200
vn -0.461300 -0.162900 -0.872200
vn -0.436900 -0.899500 0.000000
vn -0.286000 -0.958200 0.000000
vn -0.948600 -0.316500 0.000000
vn -0.005800 0.176300 0.984300
vn -0.983300 -0.182200 0.000000
vn 0.982700 0.185300 0.000000
vn 0.005800 -0.176300 -0.984300
vn 0.303900 0.952700 0.000000
vn -0.461300 0.162900 0.872200
vn 0.461300 -0.162900 -0.872200
vn -0.449000 -0.613000 0.650100
vn -0.449000 0.613000 0.650100
vn -0.729800 0.577400 -0.366200
vn -0.729800 -0.577400 -0.366200
vn 0.366200 0.577400 -0.729800
vn 0.366200 -0.577400 -0.729800
vn 0.748500 0.613000 0.253000
vn 0.748500 -0.613000 0.253000
vn 0.115400 -0.350700 0.929300
vn 0.115400 0.350700 0.929300
vn 0.462800 0.350700 0.814100
vn 0.462800 -0.350700 0.814100
vn 0.449000 -0.613000 0.650100
vn 0.729800 -0.577300 -0.366200
vn 0.729800 0.577300 -0.366200
vn 0.449000 0.613000 0.650100
vn -0.366200 -0.577400 -0.729800
vn -0.366200 0.577400 -0.729800
vn -0.748500 -0.613000 0.253000
vn -0.748500 0.613000 0.253000
vn -0.115400 -0.350700 0.929300
vn -0.115400 0.350700 0.929300
vn -0.462800 0.350700 0.814100
vn -0.462800 -0.350700 0.814100
vn -0.214000 -0.796100 -0.566100
vn -0.214000 0.796100 -0.566100
vn 0.523900 0.555000 -0.646100
vn 0.523900 -0.555000 -0.646100
vn 0.704500 -0.677000 0.212900
vn 0.704500 0.677000 0.212900
vn 0.487000 0.618100 0.617100
vn 0.487000 -0.618100 0.617100
vn 0.105700 -0.695700 0.710500
vn 0.000000 -0.686100 0.727500
vn 0.105700 0.695700 0.710500
vn 0.000000 0.686100 0.727500
vn 0.214000 -0.796100 -0.566100
vn -0.523900 -0.555000 -0.646100
vn -0.523900 0.555000 -0.646100
vn 0.214000 0.796100 -0.566100
vn -0.704500 -0.677000 0.212900
vn -0.487000 -0.618100 0.617100
vn -0.487000 0.618100 0.617100
vn -0.704500 0.677000 0.212900
vn -0.105700 -0.695700 0.710500
vn -0.105700 0.695700 0.710500
vn -0.724800 -0.685000 -0.073800
vn -0.724800 0.685000 -0.073800
vn -0.523400 0.591500 -0.613400
vn -0.523400 -0.591500 -0.613400
vn 0.719600 0.587100 -0.370700
vn 0.399800 0.603500 -0.689900
vn 0.399800 -0.603500 -0.689900
vn 0.719600 -0.587100 -0.370700
vn -0.732700 -0.680600 0.000000
vn -0.732700 0.680600 0.000000
vn 0.724800 -0.685000 -0.073800
vn 0.523400 -0.591500 -0.613400
vn 0.523400 0.591500 -0.613400
vn 0.724800 0.685000 -0.073800
vn -0.399800 0.603500 -0.689900
vn -0.719600 0.587100 -0.370700
vn -0.399800 -0.603500 -0.689900
vn -0.719600 -0.587100 -0.370700
vn 0.732700 -0.680600 0.000000
vn 0.732700 0.680600 0.000000
o mb_pagoda
usemtl mb_pagoda
f 1/1/1 2/2/2 3/3/3 4/4/4
f 5/5/5 6/6/6 7/7/7
f 8/8/8 9/9/9 10/10/10 11/11/11
f 10/12/10 12/13/12 13/14/13 11/15/11
f 14/16/14 15/17/14 16/18/15 17/19/14
f 18/20/16 8/21/8 11/15/11 13/14/13
f 9/22/9 19/23/17 12/13/12 10/12/10
f 20/24/18 21/25/19 22/26/20 23/27/21
f 19/23/17 9/28/9 24/29/22 25/30/23
f 2/2/2 26/31/24 27/32/25 3/3/3
f 28/33/26 6/34/6 5/35/5 29/36/27
f 30/37/28 31/38/29 32/39/30 33/40/31
f 33/41/31 34/42/32 35/43/33 36/44/34
f 37/45/35 28/33/26 29/36/27 38/46/36
f 39/47/37 26/48/24 2/49/2 40/50/38
f 41/51/39 20/24/18 23/27/21 42/52/40
f 43/53/41 16/18/15 15/17/14 44/54/42
f 45/55/43 46/56/44 47/57/45 48/58/46
f 49/59/47 43/53/41 44/54/42 50/60/48
f 51/61/49 41/51/39 42/52/40 52/62/50
f 53/63/51 37/64/35 38/65/36 54/66/52
f 55/67/53 30/68/28 56/69/54 57/70/55
f 58/71/56 59/72/57 55/73/53 60/74/58
f 59/72/57 61/75/59 30/37/28 55/73/53
f 62/76/60 63/77/61 64/78/14 65/79/14
f 63/77/61 66/80/62 67/81/14 64/78/14
f 31/38/29 30/37/28 61/75/59 68/82/63
f 69/83/64 56/84/54 36/85/34 35/86/33
f 34/87/32 33/40/31 28/88/26 37/89/35
f 70/90/65 34/87/32 37/89/35 53/91/51
f 34/42/32 70/92/65 66/93/62 35/43/33
f 63/94/61 69/83/64 35/86/33 66/95/62
f 57/96/55 56/84/54 69/83/64
f 62/97/60 57/96/55 69/83/64 63/94/61
f 30/68/28 33/41/31 36/44/34 56/69/54
f 60/98/58 55/67/53 57/70/55 62/99/60
f 71/100/64 27/101/25 48/102/46
f 72/103/66 46/104/44 59/72/57 58/71/56
f 46/104/44 45/105/43 61/75/59 59/72/57
f 1/106/1 73/107/67 74/108/68 75/109/69
f 2/49/2 1/106/1 75/109/69 76/110/70
f 73/111/67 1/1/1 4/4/4 49/112/47
f 26/48/24 39/47/37 68/82/63 61/75/59 45/105/43
f 77/113/64 43/114/41 49/115/47 4/116/4
f 77/113/64 71/100/64 48/102/46 47/117/45
f 43/114/41 77/113/64 47/117/45 16/118/15
f 71/100/64 77/113/64 4/116/4 3/119/3
f 3/119/3 27/101/25 71/100/64
f 26/31/24 45/55/43 48/58/46 27/32/25
f 46/56/44 72/120/66 16/121/15 47/57/45
f 9/122/9 39/123/37 40/124/38 24/125/22
f 29/36/27 5/35/5 78/126/71 79/127/72
f 38/46/36 29/36/27 79/127/72 80/128/73
f 81/129/74 82/130/75 83/131/76 84/132/77
f 82/130/75 8/21/8 18/20/16 83/131/76
f 8/133/8 68/82/63 39/47/37 9/134/9
f 58/135/56 60/136/58 62/76/60 17/19/14
f 14/16/14 17/19/14 62/76/60 65/79/14
f 58/135/56 17/19/14 16/18/15 72/137/66
f 54/138/52 66/80/62 70/139/65 53/140/51
f 54/66/52 38/65/36 80/141/73 85/142/78
f 66/80/62 54/138/52 85/143/78 67/81/14
f 52/144/50 49/59/47 50/60/48 51/145/49
f 42/52/40 23/27/21 76/146/70 75/147/69
f 76/146/70 23/27/21 22/26/20 86/148/79
f 52/62/50 42/52/40 75/147/69 74/149/68
f 49/59/47 52/144/50 74/150/68 73/151/67
f 32/39/30 87/152/80 7/153/7 6/154/6
f 31/38/29 68/82/63 8/133/8 88/155/81
f 81/129/74 5/156/5 7/157/7 87/158/80
f 82/130/75 81/129/74 87/158/80 88/159/81
f 8/21/8 82/130/75 88/159/81
f 31/38/29 88/155/81 87/152/80 32/39/30
f 5/156/5 81/129/74 84/132/77 78/160/71
f 33/40/31 32/39/30 6/154/6 28/88/26
f 40/50/38 2/49/2 76/110/70 86/161/79
f 25/30/23 24/162/22 22/163/20 21/164/19
f 24/165/22 40/50/38 86/161/79 22/166/20
f 89/167/82 90/168/83 91/169/84 92/170/85
f 93/5/86 94/7/87 95/6/88
f 96/133/89 97/11/90 98/10/91 99/134/92
f 98/12/91 97/15/90 13/14/13 12/13/12
f 14/171/14 100/172/14 101/173/93 15/174/14
f 18/20/16 13/14/13 97/15/90 96/21/89
f 99/28/92 98/12/91 12/13/12 19/23/17
f 20/24/18 102/27/94 103/26/95 21/25/19
f 19/23/17 25/30/23 104/29/96 99/28/92
f 92/170/85 91/169/84 105/175/97 106/176/98
f 107/33/99 108/36/100 93/35/86 95/34/88
f 109/37/101 110/40/102 111/39/103 112/38/104
f 110/177/102 113/178/105 114/179/106 115/180/107
f 116/45/108 117/46/109 108/36/100 107/33/99
f 118/47/110 119/50/111 92/49/85 106/48/98
f 41/51/39 120/52/112 102/27/94 20/24/18
f 121/181/113 44/182/42 15/174/14 101/173/93
f 122/183/114 123/184/115 124/185/116 125/186/117
f 126/187/118 50/188/48 44/182/42 121/181/113
f 51/61/49 127/62/119 120/52/112 41/51/39
f 128/63/120 129/66/121 117/65/109 116/64/108
f 130/189/122 131/190/123 132/191/124 109/192/101
f 133/71/125 134/74/126 130/73/122 135/72/127
f 135/72/127 130/73/122 109/37/101 136/75/128
f 137/193/129 65/194/14 64/195/14 138/196/130
f 138/196/130 64/195/14 67/197/14 139/198/131
f 112/38/104 140/82/132 136/75/128 109/37/101
f 141/199/133 114/200/106 113/201/105 132/202/124
f 115/87/107 116/89/108 107/88/99 110/40/102
f 142/90/134 128/91/120 116/89/108 115/87/107
f 115/180/107 114/179/106 139/203/131 142/204/134
f 138/205/130 139/206/131 114/200/106 141/199/133
f 131/207/123 141/199/133 132/202/124
f 137/208/129 138/205/130 141/199/133 131/207/123
f 109/192/101 132/191/124 113/178/105 110/177/102
f 134/209/126 137/210/129 131/190/123 130/189/122
f 143/211/133 123/212/115 105/213/97
f 144/103/135 133/71/125 135/72/127 125/104/117
f 125/104/117 135/72/127 136/75/128 122/105/114
f 89/106/82 145/109/136 146/108/137 147/107/138
f 92/49/85 148/110/139 145/109/136 89/106/82
f 147/214/138 126/215/118 90/168/83 89/167/82
f 106/48/98 122/105/114 136/75/128 140/82/132 118/47/110
f 149/216/133 90/217/83 126/218/118 121/219/113
f 149/216/133 124/220/116 123/212/115 143/211/133
f 121/219/113 101/221/93 124/220/116 149/216/133
f 143/211/133 91/222/84 90/217/83 149/216/133
f 91/222/84 143/211/133 105/213/97
f 106/176/98 105/175/97 123/184/115 122/183/114
f 125/186/117 124/185/116 101/223/93 144/224/135
f 99/134/92 104/165/96 119/50/111 118/47/110
f 108/36/100 79/127/72 78/126/71 93/35/86
f 117/46/109 80/128/73 79/127/72 108/36/100
f 150/129/140 84/132/77 83/131/76 151/130/141
f 151/130/141 83/131/76 18/20/16 96/21/89
f 96/133/89 99/134/92 118/47/110 140/82/132
f 133/225/125 100/172/14 137/193/129 134/226/126
f 14/171/14 65/194/14 137/193/129 100/172/14
f 133/225/125 144/227/135 101/173/93 100/172/14
f 129/228/121 128/229/120 142/230/134 139/198/131
f 129/66/121 85/142/78 80/141/73 117/65/109
f 139/198/131 67/197/14 85/231/78 129/228/121
f 127/232/119 51/233/49 50/188/48 126/187/118
f 120/52/112 145/147/136 148/146/139 102/27/94
f 148/146/139 152/148/142 103/26/95 102/27/94
f 127/62/119 146/149/137 145/147/136 120/52/112
f 126/187/118 147/234/138 146/235/137 127/232/119
f 111/39/103 95/154/88 94/153/87 153/152/143
f 112/38/104 154/155/144 96/133/89 140/82/132
f 150/129/140 153/158/143 94/157/87 93/156/86
f 151/130/141 154/159/144 153/158/143 150/129/140
f 96/21/89 154/159/144 151/130/141
f 112/38/104 111/39/103 153/152/143 154/155/144
f 93/156/86 78/160/71 84/132/77 150/129/140
f 110/40/102 107/88/99 95/154/88 111/39/103
f 119/50/111 152/161/142 148/110/139 92/49/85
f 25/30/23 21/164/19 103/163/95 104/162/96
f 104/165/96 103/166/95 152/161/142 119/50/111
f 155/236/145 156/237/145 157/238/145 158/239/145
f 159/240/146 160/241/146 161/242/146 162/243/146
f 163/244/133 164/245/133 162/243/133 161/242/133
f 165/246/147 163/244/147 161/242/147 160/241/147
f 166/247/64 165/246/64 160/241/64 159/240/64
f 158/239/148 157/238/148 167/248/148 168/249/148
f 158/239/149 168/249/149 169/250/149 170/251/149
f 156/237/150 171/252/150 167/248/150 157/238/150
f 171/252/146 172/253/146 168/249/146 167/248/146
f 159/240/151 162/243/151 172/253/151 171/252/151
f 166/247/152 159/240/152 171/252/152 156/237/152
f 162/243/153 164/245/153 155/236/153 172/253/153
f 164/245/154 166/247/154 156/237/154 155/236/154
f 172/253/155 155/236/155 173/254/155 174/255/155
f 168/249/156 172/253/156 174/255/156 169/250/156
f 155/236/157 158/239/157 170/251/157 173/254/157
f 175/236/145 176/239/145 177/238/145 178/237/145
f 179/240/146 180/243/146 181/242/146 182/241/146
f 183/244/64 181/242/64 180/243/64 184/245/64
f 185/246/147 182/241/147 181/242/147 183/244/147
f 186/247/133 179/240/133 182/241/133 185/246/133
f 176/239/158 187/249/158 188/248/158 177/238/158
f 176/239/159 189/251/159 190/250/159 187/249/159
f 178/237/160 177/238/160 188/248/160 191/252/160
f 191/252/146 188/248/146 187/249/146 192/253/146
f 179/240/161 191/252/161 192/253/161 180/243/161
f 186/247/162 178/237/162 191/252/162 179/240/162
f 180/243/163 192/253/163 175/236/163 184/245/163
f 184/245/164 175/236/164 178/237/164 186/247/164
f 192/253/165 193/255/165 194/254/165 175/236/165
f 187/249/166 190/250/166 193/255/166 192/253/166
f 175/236/167 194/254/167 189/251/167 176/239/167
f 195/256/168 196/257/169 197/258/170 198/259/171
f 198/260/171 197/261/170 199/262/172 200/263/173
f 200/264/173 199/265/172 201/266/174 202/267/175
f 198/259/171 200/264/173 202/267/175 195/256/168
f 199/265/172 197/258/170 196/257/169 201/266/174
f 203/268/176 204/269/177 196/257/169 195/256/168
f 205/270/178 206/271/179 202/267/175 201/266/174
f 206/271/179 203/268/176 195/256/168 202/267/175
f 204/269/177 205/270/178 201/266/174 196/257/169
f 207/256/180 208/259/181 209/258/182 210/257/183
f 208/260/181 211/263/184 212/262/185 209/261/182
f 211/264/184 213/267/186 214/266/187 212/265/185
f 208/259/181 207/256/180 213/267/186 211/264/184
f 212/265/185 214/266/187 210/257/183 209/258/182
f 215/268/188 207/256/180 210/257/183 216/269/189
f 217/270/190 214/266/187 213/267/186 218/271/191
f 218/271/191 213/267/186 207/256/180 215/268/188
f 216/269/189 210/257/183 214/266/187 217/270/190
f 219/272/192 220/273/193 221/274/194 222/275/195
f 223/276/196 224/277/197 225/278/198 226/279/199
f 227/280/14 228/281/14 229/282/200 230/283/201
f 231/284/14 223/285/196 226/286/199
f 232/287/147 233/288/147 234/289/202 225/290/198
f 233/288/147 235/291/147 236/292/203 234/289/202
f 229/293/200 234/294/202 236/295/203 230/296/201
f 226/297/199 225/298/198 234/294/202 229/293/200
f 219/299/192 222/300/195 223/285/196 231/284/14
f 222/301/195 221/302/194 224/277/197 223/276/196
f 221/303/194 220/304/193 232/287/147 224/305/197
f 224/305/197 232/287/147 225/306/198
f 228/281/14 231/284/14 226/286/199 229/282/200
f 237/272/204 238/275/205 239/274/206 240/273/207
f 241/276/208 242/279/209 243/278/210 244/277/211
f 227/280/14 230/283/201 245/282/212 246/281/14
f 247/284/14 242/286/209 241/285/208
f 248/287/147 243/290/210 249/289/213 250/288/147
f 250/288/147 249/289/213 236/292/203 235/291/147
f 245/293/212 230/296/201 236/295/203 249/294/213
f 242/297/209 245/293/212 249/294/213 243/298/210
f 237/299/204 247/284/14 241/285/208 238/300/205
f 238/301/205 241/276/208 244/277/211 239/302/206
f 239/303/206 244/305/211 248/287/147 240/304/207
f 244/305/211 243/306/210 248/287/147
f 246/281/14 245/282/212 242/286/209 247/284/14
f 251/307/214 252/308/215 253/309/216 254/310/217
f 255/311/14 251/312/214 254/313/217
f 256/314/147 257/315/218 258/316/219 253/317/216
f 254/318/217 253/319/216 258/320/219 259/321/220
f 252/322/215 256/314/147 253/323/216
f 260/324/221 255/311/14 254/313/217 259/325/220
f 251/312/214 255/311/14 261/326/14 262/327/222
f 252/308/215 251/307/214 262/328/222 263/329/223
f 256/314/147 252/322/215 263/330/223 264/331/147
f 259/332/220 258/333/219 257/334/218 260/335/221
f 265/307/224 266/310/225 267/309/226 268/308/227
f 269/311/14 266/313/225 265/312/224
f 270/314/147 267/317/226 271/316/228 272/315/229
f 266/318/225 273/321/230 271/320/228 267/319/226
f 268/322/227 267/323/226 270/314/147
f 274/324/231 273/325/230 266/313/225 269/311/14
f 265/312/224 275/327/232 276/326/14 269/311/14
f 268/308/227 277/329/233 275/328/232 265/307/224
f 270/314/147 278/331/147 277/330/233 268/322/227
f 273/332/230 274/335/231 272/334/229 271/333/228
