# PSX Racing car model — generated by tools/carmodels/export_models.mjs
mtllib bmw_e30_wheels_r.mtl
v -0.602697 0.625685 -1.153922
v -0.602697 0.531224 -1.381970
v -0.817303 0.531224 -1.381970
v -0.817303 0.625685 -1.153922
v -0.602697 0.303176 -1.476430
v -0.817303 0.303176 -1.476430
v -0.602697 0.075128 -1.381970
v -0.817303 0.075128 -1.381970
v -0.602697 -0.019333 -1.153922
v -0.817303 -0.019333 -1.153922
v -0.602697 0.075128 -0.925874
v -0.817303 0.075128 -0.925874
v -0.602697 0.303176 -0.831413
v -0.817303 0.303176 -0.831413
v -0.817303 0.303176 -1.153922
v -0.602697 0.531224 -0.925874
v -0.817303 0.531224 -0.925874
v -0.602697 0.303176 -1.153922
v 0.602697 0.625685 -1.153922
v 0.817303 0.625685 -1.153922
v 0.817303 0.531224 -1.381970
v 0.602697 0.531224 -1.381970
v 0.817303 0.303176 -1.476430
v 0.602697 0.303176 -1.476430
v 0.817303 0.075128 -1.381970
v 0.602697 0.075128 -1.381970
v 0.817303 -0.019333 -1.153922
v 0.602697 -0.019333 -1.153922
v 0.817303 0.075128 -0.925874
v 0.602697 0.075128 -0.925874
v 0.817303 0.303176 -0.831413
v 0.602697 0.303176 -0.831413
v 0.817303 0.303176 -1.153922
v 0.817303 0.531224 -0.925874
v 0.602697 0.531224 -0.925874
v 0.602697 0.303176 -1.153922
vt 0.749939 0.178604
vt 0.749939 0.168347
vt 0.741022 0.168347
vt 0.741022 0.178604
vt 0.749939 0.158089
vt 0.741022 0.158089
vt 0.739939 0.178604
vt 0.739939 0.168347
vt 0.731022 0.168347
vt 0.731022 0.178604
vt 0.739939 0.158089
vt 0.731022 0.158089
vt 0.701565 0.186225
vt 0.701565 0.196483
vt 0.710483 0.196483
vt 0.710483 0.186225
vt 0.701565 0.206740
vt 0.710483 0.206740
vt 0.727579 0.196282
vt 0.761134 0.115273
vt 0.646570 0.115273
vt 0.646570 0.229837
vt 0.720483 0.206740
vt 0.720483 0.196483
vt 0.711565 0.196483
vt 0.711565 0.206740
vt 0.720483 0.186225
vt 0.711565 0.186225
vt 0.646240 0.230268
vt 0.564683 0.196486
vt 0.530902 0.114930
vt 0.646240 0.114930
vt 0.646570 0.000709
vt 0.565561 0.034264
vt 0.532006 0.115273
vt 0.727579 0.034264
vt 0.565561 0.196282
vt 0.564683 0.033373
vt 0.646240 -0.000409
vt 0.761578 0.114930
vt 0.727796 0.196486
vt 0.727796 0.033373
vt 0.749939 0.178604
vt 0.741022 0.178604
vt 0.741022 0.168347
vt 0.749939 0.168347
vt 0.741022 0.158089
vt 0.749939 0.158089
vt 0.739939 0.178604
vt 0.731022 0.178604
vt 0.731022 0.168347
vt 0.739939 0.168347
vt 0.731022 0.158089
vt 0.739939 0.158089
vt 0.701565 0.186225
vt 0.710483 0.186225
vt 0.710483 0.196483
vt 0.701565 0.196483
vt 0.710483 0.206740
vt 0.701565 0.206740
vt 0.727579 0.196282
vt 0.646570 0.229837
vt 0.646570 0.115273
vt 0.761134 0.115273
vt 0.720483 0.206740
vt 0.711565 0.206740
vt 0.711565 0.196483
vt 0.720483 0.196483
vt 0.711565 0.186225
vt 0.720483 0.186225
vt 0.646240 0.230268
vt 0.646240 0.114930
vt 0.530902 0.114930
vt 0.564683 0.196486
vt 0.646570 0.000709
vt 0.532006 0.115273
vt 0.565561 0.034264
vt 0.727579 0.034264
vt 0.565561 0.196282
vt 0.646240 -0.000409
vt 0.564683 0.033373
vt 0.727796 0.196486
vt 0.761578 0.114930
vt 0.727796 0.033373
vn 0.000000 0.923900 -0.382700
vn 0.000000 0.382700 -0.923900
vn 0.000000 -0.382700 -0.923900
vn 0.000000 -0.923900 -0.382700
vn 0.000000 -0.923900 0.382700
vn 0.000000 -0.382700 0.923900
vn -1.000000 0.000000 0.000000
vn 0.000000 0.382700 0.923900
vn 0.000000 0.923900 0.382700
vn 1.000000 0.000000 0.000000
vn 0.000000 0.923900 -0.382700
vn 0.000000 0.382700 -0.923900
vn 0.000000 -0.382700 -0.923900
vn 0.000000 -0.923900 -0.382700
vn 0.000000 -0.923900 0.382700
vn 0.000000 -0.382700 0.923900
vn 1.000000 0.000000 0.000000
vn 0.000000 0.382700 0.923900
vn 0.000000 0.923900 0.382700
vn -1.000000 0.000000 0.000000
o bmw_e30_wheels_r
usemtl bmw_e30_wheels_r
f 1/1/1 2/2/1 3/3/1 4/4/1
f 2/2/2 5/5/2 6/6/2 3/3/2
f 5/7/3 7/8/3 8/9/3 6/10/3
f 7/8/4 9/11/4 10/12/4 8/9/4
f 9/13/5 11/14/5 12/15/5 10/16/5
f 11/14/6 13/17/6 14/18/6 12/15/6
f 3/19/7 6/20/7 15/21/7 4/22/7
f 13/23/8 16/24/8 17/25/8 14/26/8
f 16/24/9 1/27/9 4/28/9 17/25/9
f 1/29/10 16/30/10 13/31/10 18/32/10
f 10/33/7 12/34/7 14/35/7 15/21/7
f 6/20/7 8/36/7 10/33/7 15/21/7
f 14/35/7 17/37/7 4/22/7 15/21/7
f 13/31/10 11/38/10 9/39/10 18/32/10
f 18/32/10 5/40/10 2/41/10 1/29/10
f 9/39/10 7/42/10 5/40/10 18/32/10
f 19/43/11 20/44/11 21/45/11 22/46/11
f 22/46/12 21/45/12 23/47/12 24/48/12
f 24/49/13 23/50/13 25/51/13 26/52/13
f 26/52/14 25/51/14 27/53/14 28/54/14
f 28/55/15 27/56/15 29/57/15 30/58/15
f 30/58/16 29/57/16 31/59/16 32/60/16
f 21/61/17 20/62/17 33/63/17 23/64/17
f 32/65/18 31/66/18 34/67/18 35/68/18
f 35/68/19 34/67/19 20/69/19 19/70/19
f 19/71/20 36/72/20 32/73/20 35/74/20
f 27/75/17 33/63/17 31/76/17 29/77/17
f 23/64/17 33/63/17 27/75/17 25/78/17
f 31/76/17 33/63/17 20/62/17 34/79/17
f 32/73/20 36/72/20 28/80/20 30/81/20
f 36/72/20 19/71/20 22/82/20 24/83/20
f 28/80/20 36/72/20 24/83/20 26/84/20
