# PSX Racing car model — generated by tools/carmodels/export_models.mjs
mtllib bmw_e30.mtl
v 0.789310 0.696729 -0.344409
v 0.708021 0.877464 -0.347620
v 0.708021 0.870559 0.346369
v 0.789310 0.696729 0.346369
v 0.277039 1.359677 -0.418592
v 0.000000 1.381073 -0.418592
v 0.000000 1.349390 0.346369
v 0.277039 1.327993 0.346369
v 0.776593 0.699290 0.954103
v 0.692856 0.846618 0.817217
v 0.692856 0.834403 1.388015
v 0.753130 0.769380 1.388015
v 0.753130 0.684633 1.710845
v 0.692856 0.800656 1.752057
v 0.622206 0.711820 2.003863
v 0.687028 0.635799 1.987672
v 0.387781 0.900656 -1.471948
v 0.277039 1.328453 -1.023899
v 0.493975 1.312793 -0.987780
v 0.677462 0.880194 -1.417906
v 0.708021 0.874413 -0.807105
v 0.493975 1.328695 -0.792573
v 0.493975 1.342922 -0.418592
v 0.417420 0.737693 -2.068485
v 0.419991 0.892411 -2.051832
v 0.658450 0.873591 -2.004320
v 0.699074 0.725814 -2.016128
v 0.402844 0.831266 1.752057
v 0.000000 0.865619 1.752057
v 0.000000 0.748301 2.119262
v 0.363220 0.733599 2.079675
v 0.402844 0.865013 1.388015
v 0.000000 0.899367 1.388015
v 0.277039 1.357520 -0.796547
v 0.000000 1.375089 -0.797430
v 0.650678 0.281150 -1.928579
v 0.694825 0.407140 -1.977853
v 0.751441 0.396001 -1.450200
v 0.706622 0.218272 -1.516399
v 0.789310 0.696729 -0.843795
v 0.364924 0.284348 -1.981162
v 0.389491 0.407783 -2.032325
v 0.392443 0.646688 2.063484
v 0.000000 0.663865 2.103071
v 0.493975 1.311239 0.291935
v 0.691136 0.880194 -1.181975
v 0.720763 0.218272 0.346369
v 0.813403 0.522899 0.346369
v 0.813403 0.522899 1.090988
v 0.720763 0.218272 1.038000
v 0.757210 0.749717 -1.172020
v 0.000000 1.342113 -1.037824
v 0.720763 0.218272 -0.802287
v 0.813403 0.522899 -0.885302
v 0.813403 0.522899 -0.344409
v 0.720763 0.218272 -0.344409
v 0.738988 0.696729 -1.421551
v 0.668219 0.542383 1.971481
v 0.624424 0.542383 2.050737
v 0.711976 0.542383 2.017869
v 0.754720 0.542383 1.952079
v 0.402844 0.897460 1.001325
v 0.000000 0.931813 1.038000
v 0.421665 0.542383 2.047294
v 0.000000 0.542383 2.086880
v 0.000000 0.542383 2.152670
v 0.421665 0.542383 2.113083
v 0.401457 0.268272 2.007106
v 0.411427 0.419015 2.063700
v 0.000000 0.419015 2.103286
v 0.000000 0.268272 2.041988
v 0.733480 0.268272 1.752057
v 0.777398 0.419015 1.739359
v 0.657397 0.419015 1.987888
v 0.639621 0.268272 1.934979
v 0.405765 0.218272 -0.802287
v 0.405765 0.522899 -0.885302
v 0.405765 0.268272 1.752057
v 0.405765 0.419015 1.739359
v 0.405765 0.396001 -1.450200
v 0.405765 0.218272 -1.516399
v 0.786544 0.535199 -1.398353
v 0.809315 0.628875 -1.172020
v 0.392580 0.628875 -1.172020
v 0.405765 0.535199 -1.398353
v 0.813403 0.695524 1.388015
v 0.813403 0.542383 1.683013
v 0.405765 0.542383 1.683013
v 0.405765 0.695524 1.388015
v 0.405765 0.522899 1.090988
v 0.405765 0.218272 1.038000
v 0.000000 0.939090 -1.516399
v 0.000000 0.910342 -2.052539
v 0.411427 0.419015 2.110711
v 0.000000 0.419015 2.150298
v 0.000000 0.288433 -1.976322
v 0.000000 0.407821 -2.029481
v 0.000000 0.749811 -2.069368
v 0.405786 0.218272 0.346369
v 0.000000 0.218272 0.692184
v 0.000000 0.218272 -1.159343
v 0.000000 0.535199 -2.086197
v 0.414850 0.535199 -2.085138
v 0.739698 0.535199 -2.027935
v 0.613706 0.419015 2.048365
v 0.693720 0.419015 2.015496
v 0.816007 0.419015 1.739359
v 0.816007 0.542383 1.683013
v 0.736465 0.419015 1.968485
v 0.694825 0.407140 -2.067505
v 0.389491 0.407783 -2.121977
v 0.414850 0.535199 -2.174790
v 0.739698 0.535199 -2.117588
v 0.823347 0.535199 -1.398353
v 0.776501 0.535199 -2.027935
v 0.000000 0.535199 -2.175850
v 0.000000 0.407821 -2.119133
v 0.766821 0.535199 -2.100810
v 0.788244 0.396001 -1.450200
v 0.731628 0.407140 -1.977853
v 0.721949 0.407140 -2.050727
v 0.715197 1.022232 0.608722
v 0.715197 0.892856 0.608722
v 0.688540 0.875634 0.608722
v 0.638278 0.984002 0.608722
v 0.869814 1.031459 0.556238
v 0.869814 0.902084 0.556238
v 0.905930 1.031459 0.583500
v 0.905930 0.902084 0.583500
v 0.715197 1.022232 0.647005
v 0.715197 0.892856 0.715827
v 0.638278 0.984002 0.647005
v 0.688199 0.876571 0.779032
v -0.789310 0.696729 -0.344409
v -0.789310 0.696729 0.346369
v -0.708021 0.870559 0.346369
v -0.708021 0.877464 -0.347620
v -0.277039 1.359677 -0.418592
v -0.277039 1.327993 0.346369
v -0.776593 0.699290 0.954103
v -0.753130 0.769380 1.388015
v -0.692856 0.834403 1.388015
v -0.692856 0.846618 0.817217
v -0.753130 0.684633 1.710845
v -0.687028 0.635799 1.987672
v -0.622206 0.711820 2.003863
v -0.692856 0.800656 1.752057
v -0.387781 0.900656 -1.471948
v -0.677462 0.880194 -1.417906
v -0.493975 1.312793 -0.987780
v -0.277039 1.328453 -1.023899
v -0.708021 0.874413 -0.807105
v -0.493975 1.342922 -0.418592
v -0.493975 1.328695 -0.792573
v -0.417420 0.737693 -2.068485
v -0.699074 0.725814 -2.016128
v -0.658450 0.873591 -2.004320
v -0.419991 0.892411 -2.051832
v -0.402844 0.831266 1.752057
v -0.363220 0.733599 2.079675
v -0.402844 0.865013 1.388015
v -0.277039 1.357520 -0.796547
v -0.650678 0.281150 -1.928579
v -0.706622 0.218272 -1.516399
v -0.751441 0.396001 -1.450200
v -0.694825 0.407140 -1.977853
v -0.789310 0.696729 -0.843795
v -0.364924 0.284348 -1.981162
v -0.389491 0.407783 -2.032325
v -0.392443 0.646688 2.063484
v -0.493975 1.311239 0.291935
v -0.691136 0.880194 -1.181975
v -0.720763 0.218272 0.346369
v -0.720763 0.218272 1.038000
v -0.813403 0.522899 1.090988
v -0.813403 0.522899 0.346369
v -0.757210 0.749717 -1.172020
v -0.720763 0.218272 -0.802287
v -0.720763 0.218272 -0.344409
v -0.813403 0.522899 -0.344409
v -0.813403 0.522899 -0.885302
v -0.738988 0.696729 -1.421551
v -0.668219 0.542383 1.971481
v -0.754720 0.542383 1.952079
v -0.711976 0.542383 2.017869
v -0.624424 0.542383 2.050737
v -0.402844 0.897460 1.001325
v -0.421665 0.542383 2.047294
v -0.421665 0.542383 2.113083
v -0.401457 0.268272 2.007106
v -0.411427 0.419015 2.063700
v -0.733480 0.268272 1.752057
v -0.639621 0.268272 1.934979
v -0.657397 0.419015 1.987888
v -0.777398 0.419015 1.739359
v -0.405765 0.522899 -0.885302
v -0.405765 0.218272 -0.802287
v -0.405765 0.419015 1.739359
v -0.405765 0.268272 1.752057
v -0.405765 0.218272 -1.516399
v -0.405765 0.396001 -1.450200
v -0.786544 0.535199 -1.398353
v -0.405765 0.535199 -1.398353
v -0.392580 0.628875 -1.172020
v -0.809315 0.628875 -1.172020
v -0.813403 0.695524 1.388015
v -0.405765 0.695524 1.388015
v -0.405765 0.542383 1.683013
v -0.813403 0.542383 1.683013
v -0.405765 0.522899 1.090988
v -0.405765 0.218272 1.038000
v -0.411427 0.419015 2.110711
v -0.405786 0.218272 0.346369
v -0.414850 0.535199 -2.085138
v -0.739698 0.535199 -2.027935
v -0.613706 0.419015 2.048365
v -0.693720 0.419015 2.015496
v -0.816007 0.419015 1.739359
v -0.736465 0.419015 1.968485
v -0.816007 0.542383 1.683013
v -0.694825 0.407140 -2.067505
v -0.739698 0.535199 -2.117588
v -0.414850 0.535199 -2.174790
v -0.389491 0.407783 -2.121977
v -0.776501 0.535199 -2.027935
v -0.823347 0.535199 -1.398353
v -0.766821 0.535199 -2.100810
v -0.788244 0.396001 -1.450200
v -0.731628 0.407140 -1.977853
v -0.721949 0.407140 -2.050727
v -0.715197 1.022232 0.608722
v -0.638278 0.984002 0.608722
v -0.688540 0.875634 0.608722
v -0.715197 0.892856 0.608722
v -0.869814 0.902084 0.556238
v -0.869814 1.031459 0.556238
v -0.905930 0.902084 0.583500
v -0.905930 1.031459 0.583500
v -0.715197 0.892856 0.715827
v -0.715197 1.022232 0.647005
v -0.688199 0.876571 0.779032
v -0.638278 0.984002 0.647005
vt 0.586536 0.626732
vt 0.587325 0.671148
vt 0.416777 0.669451
vt 0.416777 0.626732
vt 0.740263 0.768338
vt 0.740263 0.833674
vt 0.559856 0.833675
vt 0.559856 0.768338
vt 0.267427 0.627362
vt 0.277777 0.663114
vt 0.160793 0.660566
vt 0.160793 0.644586
vt 0.081458 0.623760
vt 0.071330 0.652272
vt 0.009449 0.630441
vt 0.013427 0.611759
vt 0.278261 0.716518
vt 0.312248 0.820606
vt 0.258357 0.820080
vt 0.206305 0.715927
vt 0.862637 0.861374
vt 0.859438 0.961384
vt 0.777107 0.964516
vt 0.761483 0.862046
vt 0.087762 0.165514
vt 0.087152 0.202226
vt 0.021474 0.197760
vt 0.011835 0.162695
vt 0.594419 0.347244
vt 0.594419 0.442250
vt 0.507818 0.442250
vt 0.517154 0.356589
vt 0.680274 0.347244
vt 0.680274 0.442250
vt 0.829400 0.768338
vt 0.829608 0.833674
vt 0.972505 0.522116
vt 0.983536 0.553705
vt 0.858731 0.553705
vt 0.874263 0.510596
vt 0.709260 0.626732
vt 0.700243 0.670398
vt 0.097046 0.052484
vt 0.091445 0.080627
vt 0.021829 0.080481
vt 0.031894 0.051755
vt 0.323883 0.192487
vt 0.337084 0.162079
vt 0.489550 0.157542
vt 0.489550 0.184697
vt 0.616687 0.956003
vt 0.608702 0.860526
vt 0.945164 0.862647
vt 0.902413 0.957883
vt 0.416777 0.509152
vt 0.416777 0.584014
vt 0.233787 0.584014
vt 0.246809 0.509152
vt 0.789921 0.639754
vt 0.792367 0.671819
vt 0.883018 0.768338
vt 0.886302 0.833674
vt 0.699059 0.509152
vt 0.719460 0.584014
vt 0.586536 0.584014
vt 0.586536 0.509152
vt 0.483206 0.862330
vt 0.851243 0.626732
vt 0.850347 0.671819
vt 0.997104 0.862647
vt 0.460533 0.435664
vt 0.483352 0.431774
vt 0.463296 0.454435
vt 0.444960 0.456458
vt 0.729945 0.348167
vt 0.755439 0.442865
vt 0.997360 0.633880
vt 0.994458 0.670196
vt 0.432798 0.411833
vt 0.333515 0.419534
vt 0.330882 0.404290
vt 0.430166 0.396590
vt 0.082655 0.817036
vt 0.116928 0.722303
vt 0.178447 0.716643
vt 0.128277 0.817609
vt 0.857694 0.350796
vt 0.844949 0.282478
vt 0.983248 0.286962
vt 0.994453 0.343200
vt 0.370343 0.031354
vt 0.372100 0.091637
vt 0.188890 0.090120
vt 0.188890 0.029962
vt 0.071080 0.523866
vt 0.074115 0.559902
vt 0.014703 0.559902
vt 0.027351 0.523866
vt 0.328288 0.363121
vt 0.307755 0.356797
vt 0.308030 0.336231
vt 0.328644 0.336507
vt 0.411536 0.359976
vt 0.401658 0.357108
vt 0.401658 0.335710
vt 0.411536 0.335710
vt 0.386411 0.356925
vt 0.373990 0.359686
vt 0.374292 0.337117
vt 0.386674 0.337283
vt 0.364261 0.361848
vt 0.348249 0.363121
vt 0.348612 0.335913
vt 0.364594 0.336987
vt 0.442094 0.362327
vt 0.420392 0.362327
vt 0.420392 0.335710
vt 0.442094 0.335710
vt 0.464526 0.362327
vt 0.464526 0.335710
vt 0.484715 0.356278
vt 0.484715 0.335710
vt 0.426940 0.308050
vt 0.426800 0.298173
vt 0.473538 0.298173
vt 0.430047 0.316343
vt 0.448563 0.327663
vt 0.468698 0.317774
vt 0.477305 0.035652
vt 0.476856 0.096373
vt 0.868177 0.442250
vt 0.994620 0.442250
vt 0.024392 0.816305
vt 0.032148 0.721971
vt 0.425178 0.488475
vt 0.328288 0.480918
vt 0.330962 0.465682
vt 0.427853 0.473239
vt 0.680274 0.278848
vt 0.793051 0.285923
vt 0.874500 0.717176
vt 0.828463 0.717176
vt 0.185537 0.195951
vt 0.213153 0.163969
vt 0.180248 0.053415
vt 0.180248 0.080636
vt 0.740263 0.717176
vt 0.594419 0.278848
vt 0.535034 0.295510
vt 0.186808 0.168390
vt 0.186808 0.202501
vt 0.374754 0.720040
vt 0.380972 0.819709
vt 0.568695 0.715638
vt 0.022320 0.321382
vt 0.015277 0.297916
vt 0.040387 0.298402
vt 0.040306 0.330668
vt 0.246954 0.329531
vt 0.178957 0.298488
vt 0.292049 0.298538
vt 0.178943 0.329499
vt 0.110847 0.329468
vt 0.110862 0.298455
vt 0.292034 0.329552
vt 0.403530 0.322474
vt 0.362508 0.328191
vt 0.362357 0.298571
vt 0.408554 0.294311
vt 0.453079 0.288442
vt 0.434343 0.281509
vt 0.428943 0.261613
vt 0.475571 0.261613
vt 0.471248 0.273218
vt 0.011941 0.258382
vt 0.144928 0.258520
vt 0.327221 0.258604
vt 0.407953 0.258381
vt 0.186808 0.117466
vt 0.088371 0.117466
vt 0.191697 0.239896
vt 0.310709 0.240360
vt 1.000262 0.587036
vt 0.845542 0.587036
vt 0.789921 0.610057
vt 0.489550 0.239896
vt 0.160793 0.626436
vt 0.088297 0.588802
vt 0.011291 0.117466
vt 0.017406 0.588802
vt 0.358529 0.095274
vt 0.361690 0.145882
vt 0.189007 0.142357
vt 0.190038 0.091835
vt 0.441368 0.096965
vt 0.444726 0.147578
vt 0.492958 0.419534
vt 0.479639 0.402922
vt 0.474136 0.097634
vt 0.480581 0.148310
vt 0.268242 0.488475
vt 0.281582 0.471897
vt 0.086993 0.558849
vt 0.097606 0.583003
vt 0.047080 0.583522
vt 0.043102 0.559204
vt 0.491641 0.097992
vt 0.498086 0.148667
vt 0.994254 0.824251
vt 0.960876 0.815786
vt 0.960876 0.815173
vt 0.994254 0.815173
vt 0.074829 0.702509
vt 0.009937 0.702509
vt 0.005990 0.694334
vt 0.060360 0.683036
vt 0.384599 0.435664
vt 0.384324 0.436211
vt 0.097683 0.707150
vt 0.078660 0.685360
vt 0.085663 0.109678
vt 0.011598 0.109678
vt 0.513802 0.705540
vt 0.513802 0.824293
vt 0.506898 0.824807
vt 0.506898 0.706054
vt 0.589314 0.470893
vt 0.540683 0.467187
vt 0.541510 0.456680
vt 0.590141 0.460385
vt 0.467878 0.282313
vt 0.543721 0.478520
vt 0.589360 0.474794
vt 0.590141 0.485305
vt 0.544502 0.489031
vt 0.180248 0.109678
vt 0.507448 0.474794
vt 0.508229 0.485305
vt 0.502082 0.470893
vt 0.502910 0.460385
vt 0.512551 0.688723
vt 0.507697 0.692249
vt 0.869903 0.551989
vt 0.984512 0.553958
vt 0.994302 0.583619
vt 0.857970 0.582714
vt 0.003207 0.109678
vt 0.013438 0.080481
vt 0.015644 0.080481
vt 0.005414 0.109678
vt 0.920477 0.835750
vt 0.956365 0.835750
vt 0.954375 0.844171
vt 0.918487 0.844171
vt 0.520611 0.705490
vt 0.522410 0.688723
vt 0.527146 0.692405
vt 0.527494 0.706229
vt 0.520611 0.805335
vt 0.527494 0.806073
vt 0.883045 0.109585
vt 0.883564 0.086537
vt 0.888382 0.083576
vt 0.896902 0.103083
vt 0.876869 0.083934
vt 0.876143 0.102211
vt 0.850268 0.102696
vt 0.850994 0.084419
vt 0.971199 0.036868
vt 0.994253 0.036868
vt 0.994253 0.044932
vt 0.971199 0.044932
vt 0.967073 0.051005
vt 0.971579 0.073614
vt 0.936127 0.079004
vt 0.925866 0.054991
vt 0.939759 0.025844
vt 0.966668 0.037032
vt 0.968285 0.044932
vt 0.927160 0.040180
vt 0.960872 0.019197
vt 0.931913 0.015937
vt 0.930460 0.009272
vt 0.966118 0.013073
vt 0.920821 0.079004
vt 0.915505 0.047845
vt 0.916958 0.019197
vt 0.915505 0.012532
vt 0.915505 0.044932
vt 0.935511 0.022111
vn 0.960300 0.279100 0.000200
vn 0.907400 0.420200 0.001400
vn 0.898200 0.438800 0.025100
vn 0.953200 0.302200 0.010900
vn 0.083500 0.996400 0.012900
vn 0.000000 0.999900 0.015300
vn 0.000000 0.957100 0.289800
vn 0.157400 0.938400 0.307800
vn 0.927000 0.374900 -0.009900
vn 0.692700 0.702400 0.163800
vn 0.526900 0.847800 0.059400
vn 0.875000 0.482100 0.044500
vn 0.889300 0.389000 0.240600
vn 0.542000 0.805800 0.238500
vn 0.449800 0.523500 0.723700
vn 0.722700 0.140300 0.676700
vn 0.115900 0.928000 -0.354100
vn 0.118200 0.902100 -0.415100
vn 0.525200 0.800800 -0.288000
vn 0.714700 0.667200 -0.210000
vn 0.905900 0.423200 -0.017100
vn 0.578100 0.814600 -0.048400
vn 0.569200 0.822200 0.006500
vn 0.095700 0.097900 -0.990600
vn 0.114400 0.717800 -0.686800
vn 0.549300 0.660900 -0.511400
vn 0.726700 0.233000 -0.646300
vn 0.101500 0.973700 0.203900
vn 0.000000 0.980600 0.196000
vn 0.000000 0.513800 0.857900
vn 0.166400 0.521300 0.837000
vn 0.107900 0.991000 0.079300
vn 0.000000 0.995900 0.090000
vn 0.086300 0.994000 -0.067500
vn 0.000000 0.997500 -0.071200
vn 0.502800 -0.711200 -0.491200
vn 0.245100 -0.937800 -0.245900
vn 0.212000 -0.651200 0.728700
vn 0.521500 -0.767300 0.373200
vn 0.953300 0.302000 -0.005200
vn 0.025600 -0.787500 -0.615800
vn 0.046700 -0.852100 -0.521300
vn 0.180800 -0.112300 0.977100
vn 0.000000 -0.150700 0.988600
vn 0.559400 0.806500 0.191400
vn 0.907500 0.416400 -0.055800
vn 0.595400 -0.803400 0.000000
vn 0.997600 -0.069200 0.002300
vn 0.857900 -0.283500 0.428500
vn 0.482200 -0.695500 0.532700
vn 0.933200 0.351800 -0.073000
vn 0.000000 0.908800 -0.417100
vn 0.485100 -0.719300 -0.497300
vn 0.855900 -0.351100 -0.379600
vn 0.996900 -0.078700 0.000000
vn 0.948200 0.302800 -0.095900
vn 0.404600 0.793800 0.454100
vn 0.242700 0.681400 0.690500
vn 0.488600 0.611700 0.622200
vn 0.678800 0.661000 0.320000
vn 0.171500 0.947600 0.269400
vn 0.000000 0.951600 0.307300
vn 0.144200 0.682500 0.716600
vn 0.000000 0.682500 0.730900
vn 0.000000 0.678200 0.734900
vn 0.148300 0.672400 0.725100
vn 0.114100 -0.807300 0.579100
vn 0.104000 -0.841700 0.529900
vn 0.000000 -0.842700 0.538300
vn 0.000000 -0.803600 0.595100
vn 0.612600 -0.663300 -0.429900
vn 0.225800 -0.708400 -0.668700
vn 0.289700 -0.886100 0.361800
vn 0.451100 -0.744000 0.492800
vn 0.237500 -0.930700 -0.278300
vn 0.597600 -0.534700 -0.597500
vn 0.293000 -0.915400 -0.276000
vn 0.670500 -0.188000 -0.717700
vn 0.706100 -0.235000 0.668000
vn 0.204100 -0.961400 0.184400
vn 0.629000 -0.052800 0.775600
vn 0.893600 -0.442500 -0.075600
vn 0.652600 -0.757500 0.016600
vn 0.623500 -0.529900 0.574800
vn 0.943200 -0.325100 0.068600
vn 0.617100 0.016600 -0.786700
vn 0.640600 -0.529100 -0.556500
vn 0.613100 -0.789800 0.018800
vn 0.623200 -0.446900 0.641800
vn 0.244200 -0.920000 0.306400
vn 0.000000 0.935800 -0.352600
vn 0.000000 0.740400 -0.672200
vn 0.136600 -0.696800 0.704100
vn 0.000000 -0.694600 0.719400
vn 0.000000 -0.805600 -0.592500
vn 0.000000 -0.833600 -0.552300
vn 0.000000 0.093000 -0.995700
vn 0.000000 -1.000000 0.000000
vn 0.000000 -0.999900 0.013300
vn 0.000000 -0.999600 -0.028200
vn 0.000000 0.735400 -0.677600
vn 0.059400 0.755200 -0.652800
vn 0.317000 0.910500 -0.265400
vn 0.229400 -0.715300 0.660100
vn 0.425200 -0.691100 0.584400
vn 0.675600 -0.665600 -0.317200
vn 0.643900 0.408700 -0.646800
vn 0.649900 -0.679100 0.341300
vn 0.192000 -0.819400 -0.540100
vn 0.043700 -0.822400 -0.567200
vn 0.080300 0.526600 -0.846300
vn 0.326400 0.486900 -0.810100
vn 0.652700 0.388300 0.650600
vn 0.816400 0.569600 -0.095000
vn 0.000000 0.549500 -0.835500
vn 0.000000 -0.836300 -0.548300
vn 0.739900 0.439700 -0.509200
vn 0.517500 -0.745300 0.420400
vn 0.584400 -0.808500 -0.070100
vn 0.530700 -0.787400 -0.313600
vn -0.297000 0.749800 -0.591200
vn 0.090400 -0.664800 -0.741500
vn 0.394200 -0.626400 -0.672500
vn -0.312000 0.627800 -0.713100
vn 0.105600 0.631200 -0.768400
vn 0.145900 -0.602100 -0.785000
vn 0.763800 0.643700 0.047300
vn 0.886800 -0.457000 0.068400
vn 0.030700 0.843500 0.536300
vn 0.586100 -0.378700 0.716200
vn -0.189400 0.883800 0.427900
vn 0.480000 0.188200 0.856800
vn -0.960300 0.279100 0.000200
vn -0.953200 0.302200 0.010900
vn -0.898200 0.438800 0.025100
vn -0.907400 0.420200 0.001400
vn -0.083500 0.996400 0.012900
vn -0.157400 0.938400 0.307800
vn -0.927000 0.374900 -0.009900
vn -0.875000 0.482100 0.044500
vn -0.526900 0.847800 0.059400
vn -0.692700 0.702400 0.163800
vn -0.889300 0.389000 0.240600
vn -0.722700 0.140300 0.676700
vn -0.449800 0.523500 0.723700
vn -0.542000 0.805800 0.238500
vn -0.115900 0.928000 -0.354100
vn -0.714700 0.667200 -0.210000
vn -0.525200 0.800800 -0.288000
vn -0.118200 0.902100 -0.415100
vn -0.905900 0.423200 -0.017100
vn -0.569200 0.822200 0.006500
vn -0.578100 0.814600 -0.048400
vn -0.095700 0.097900 -0.990600
vn -0.726700 0.233000 -0.646300
vn -0.549300 0.660900 -0.511400
vn -0.114400 0.717800 -0.686800
vn -0.101500 0.973700 0.203900
vn -0.166400 0.521300 0.837000
vn -0.107900 0.991000 0.079300
vn -0.086300 0.994000 -0.067500
vn -0.502800 -0.711200 -0.491200
vn -0.521500 -0.767300 0.373200
vn -0.212000 -0.651200 0.728700
vn -0.245100 -0.937800 -0.245900
vn -0.953300 0.302000 -0.005200
vn -0.025600 -0.787500 -0.615800
vn -0.046700 -0.852100 -0.521300
vn -0.180800 -0.112300 0.977100
vn -0.559400 0.806500 0.191400
vn -0.907500 0.416400 -0.055800
vn -0.595400 -0.803400 0.000000
vn -0.482200 -0.695500 0.532700
vn -0.857900 -0.283500 0.428500
vn -0.997600 -0.069200 0.002300
vn -0.933200 0.351800 -0.073000
vn -0.485100 -0.719300 -0.497300
vn -0.996900 -0.078700 0.000000
vn -0.855900 -0.351100 -0.379600
vn -0.948200 0.302800 -0.095900
vn -0.404600 0.793800 0.454100
vn -0.678800 0.661000 0.320000
vn -0.488600 0.611700 0.622200
vn -0.242700 0.681400 0.690500
vn -0.171500 0.947600 0.269400
vn -0.144200 0.682500 0.716600
vn -0.148300 0.672400 0.725100
vn -0.114100 -0.807300 0.579100
vn -0.104000 -0.841700 0.529900
vn -0.612600 -0.663300 -0.429900
vn -0.451100 -0.744000 0.492800
vn -0.289700 -0.886100 0.361800
vn -0.225800 -0.708400 -0.668700
vn -0.597600 -0.534700 -0.597500
vn -0.237500 -0.930700 -0.278300
vn -0.670500 -0.188000 -0.717700
vn -0.293000 -0.915400 -0.276000
vn -0.204100 -0.961400 0.184400
vn -0.706100 -0.235000 0.668000
vn -0.629000 -0.052800 0.775600
vn -0.623500 -0.529900 0.574800
vn -0.652600 -0.757500 0.016600
vn -0.893600 -0.442500 -0.075600
vn -0.943200 -0.325100 0.068600
vn -0.613100 -0.789800 0.018800
vn -0.640600 -0.529100 -0.556500
vn -0.617100 0.016600 -0.786700
vn -0.623200 -0.446900 0.641800
vn -0.244200 -0.920000 0.306400
vn -0.136600 -0.696800 0.704100
vn -0.059400 0.755200 -0.652800
vn -0.317000 0.910500 -0.265400
vn -0.229400 -0.715300 0.660100
vn -0.425200 -0.691100 0.584400
vn -0.675600 -0.665600 -0.317200
vn -0.649900 -0.679100 0.341300
vn -0.643900 0.408700 -0.646800
vn -0.192000 -0.819400 -0.540100
vn -0.326400 0.486900 -0.810100
vn -0.080300 0.526600 -0.846300
vn -0.043700 -0.822400 -0.567200
vn -0.816400 0.569600 -0.095000
vn -0.652700 0.388300 0.650600
vn -0.739900 0.439700 -0.509200
vn -0.517500 -0.745300 0.420400
vn -0.584400 -0.808500 -0.070100
vn -0.530700 -0.787400 -0.313600
vn 0.297000 0.749800 -0.591200
vn 0.312000 0.627800 -0.713100
vn -0.394200 -0.626400 -0.672500
vn -0.090400 -0.664800 -0.741500
vn -0.145900 -0.602100 -0.785000
vn -0.105600 0.631200 -0.768400
vn -0.886800 -0.457000 0.068400
vn -0.763800 0.643700 0.047300
vn -0.586100 -0.378700 0.716200
vn -0.030700 0.843500 0.536300
vn -0.480000 0.188200 0.856800
vn 0.189400 0.883800 0.427900
o bmw_e30
usemtl bmw_e30
f 1/1/1 2/2/2 3/3/3 4/4/4
f 5/5/5 6/6/6 7/7/7 8/8/8
f 9/9/9 10/10/10 11/11/11 12/12/12
f 13/13/13 14/14/14 15/15/15 16/16/16
f 17/17/17 18/18/18 19/19/19 20/20/20
f 21/21/21 22/22/22 23/23/23 2/24/2
f 24/25/24 25/26/25 26/27/26 27/28/27
f 28/29/28 29/30/29 30/31/30 31/32/31
f 28/29/28 32/33/32 33/34/33 29/30/29
f 34/35/34 35/36/35 6/6/6 5/5/5
f 36/37/36 37/38/37 38/39/38 39/40/39
f 40/41/40 21/42/21 2/2/2 1/1/1
f 41/43/41 42/44/42 37/45/37 36/46/36
f 12/12/12 11/11/11 14/14/14 13/13/13
f 43/47/43 31/48/31 30/49/30 44/50/44
f 2/24/2 23/23/23 45/51/45 3/52/3
f 46/53/46 19/54/19 22/22/22 21/21/21
f 47/55/47 48/56/48 49/57/49 50/58/50
f 51/59/51 46/60/46 21/42/21 40/41/40
f 18/61/18 52/62/52 35/36/35 34/35/34
f 53/63/53 54/64/54 55/65/55 56/66/47
f 10/67/10 3/52/3 45/51/45
f 57/68/56 20/69/20 46/60/46 51/59/51
f 56/66/47 55/65/55 48/56/48 47/55/47
f 20/70/20 19/54/19 46/53/46
f 58/71/57 59/72/58 60/73/59 61/74/60
f 4/4/4 3/3/3 10/10/10 9/9/9
f 32/33/32 62/75/61 63/76/62 33/34/33
f 27/77/27 26/78/26 20/69/20 57/68/56
f 64/79/63 65/80/64 66/81/65 67/82/66
f 8/83/8 62/84/61 10/85/10 45/86/45
f 17/87/17 20/88/20 26/89/26 25/90/25
f 68/91/67 69/92/68 70/93/69 71/94/70
f 72/95/71 73/96/72 74/97/73 75/98/74
f 54/99/54 53/100/53 76/101/75 77/102/76
f 73/103/72 72/104/71 78/105/77 79/106/78
f 39/107/39 38/108/38 80/109/79 81/110/80
f 82/111/81 83/112/82 84/113/83 85/114/84
f 83/112/82 54/99/54 77/102/76 84/113/83
f 86/115/85 87/116/86 88/117/87 89/118/88
f 87/116/86 73/103/72 79/106/78 88/117/87
f 49/119/49 86/115/85 89/118/88 90/120/89
f 50/121/50 49/119/49 90/120/89 91/122/90
f 79/123/78 78/124/77 91/125/90 88/126/87
f 89/127/88 88/126/87 91/125/90 90/128/89
f 75/129/74 74/130/73 69/92/68 68/91/67
f 92/131/91 17/87/17 25/90/25 93/132/92
f 7/133/7 63/134/62 62/84/61 8/83/8
f 70/135/69 69/136/68 94/137/93 95/138/94
f 11/139/11 10/140/10 62/75/61 32/33/32
f 19/141/19 18/61/18 34/35/34 22/142/22
f 16/143/16 15/144/15 31/48/31 43/47/43
f 96/145/95 97/146/96 42/44/42 41/43/41
f 22/142/22 34/35/34 5/5/5 23/147/23
f 14/148/14 11/139/11 32/33/32 28/29/28
f 14/148/14 28/29/28 31/32/31 15/149/15
f 98/150/97 93/151/92 25/26/25 24/25/24
f 92/152/91 52/153/52 18/18/18 17/17/17
f 23/147/23 5/5/5 8/8/8 45/154/45
f 75/155/74 68/156/67 78/157/77 72/158/71
f 56/159/47 99/160/98 76/161/75
f 56/159/47 47/162/47 99/160/98
f 47/162/47 50/163/50 91/164/90 99/160/98
f 56/159/47 76/161/75 53/165/53
f 36/166/36 39/167/39 81/168/80 41/169/41
f 84/170/83 77/171/76 76/172/75
f 81/173/80 80/174/79 76/172/75
f 91/164/90 78/157/77 71/175/70 100/176/99
f 99/160/98 91/164/90 100/176/99
f 76/161/75 99/160/98 100/176/99 101/177/100
f 81/168/80 76/161/75 101/177/100
f 71/175/70 78/157/77 68/156/67
f 41/169/41 81/168/80 101/177/100 96/178/95
f 102/179/101 98/150/97 24/25/24 103/180/102
f 58/181/57 16/143/16 43/47/43 64/182/63
f 104/183/103 27/77/27 57/68/56 82/184/81
f 48/56/48 4/4/4 9/9/9 49/57/49
f 82/184/81 57/68/56 51/59/51 83/185/82
f 83/185/82 51/59/51 40/41/40 54/64/54
f 64/182/63 43/47/43 44/50/44 65/186/64
f 86/187/85 12/12/12 13/13/13 87/188/86
f 54/64/54 40/41/40 1/1/1 55/65/55
f 103/180/102 24/25/24 27/28/27 104/189/103
f 87/188/86 13/13/13 16/16/16 58/190/57
f 49/57/49 9/9/9 12/12/12 86/187/85
f 55/65/55 1/1/1 4/4/4 48/56/48
f 94/191/93 67/192/66 66/193/65 95/194/94
f 105/195/104 59/196/58 67/192/66 94/191/93
f 58/197/57 64/79/63 67/82/66 59/198/58
f 59/196/58 105/195/104 106/199/105 60/200/59
f 69/136/68 74/201/73 105/202/104 94/137/93
f 107/203/106 108/204/107 61/205/60 109/206/108
f 109/207/108 61/208/60 60/200/59 106/199/105
f 73/209/72 87/210/86 108/211/107 107/212/106
f 74/213/73 73/214/72 107/215/106 109/216/108
f 87/217/86 58/71/57 61/74/60 108/218/107
f 105/219/104 74/213/73 109/216/108 106/220/105
f 110/45/109 111/44/110 112/221/111 113/222/112
f 104/223/103 82/224/81 114/225/113 115/226/114
f 80/109/79 38/108/38 82/111/81 85/114/84
f 102/227/101 103/228/102 112/229/111 116/230/115
f 76/172/75 80/174/79 85/231/84 84/170/83
f 42/232/42 97/233/96 117/234/116 111/235/110
f 111/44/110 117/146/116 116/236/115 112/221/111
f 37/237/37 42/232/42 111/235/110 110/238/109
f 103/228/102 104/239/103 113/240/112 112/229/111
f 113/241/112 104/223/103 115/226/114 118/242/117
f 119/243/118 120/244/119 115/245/114 114/246/113
f 115/247/114 120/248/119 121/249/120 118/250/117
f 82/251/81 38/252/38 119/253/118 114/254/113
f 37/255/37 110/256/109 121/257/120 120/258/119
f 38/259/38 37/255/37 120/258/119 119/260/118
f 110/45/109 113/222/112 118/250/117 121/249/120
f 122/261/121 123/262/122 124/263/123 125/264/124
f 123/265/122 122/266/121 126/267/125 127/268/126
f 127/269/126 126/270/125 128/271/127 129/272/128
f 129/273/128 128/274/127 130/275/129 131/276/130
f 123/277/122 127/278/126 129/279/128 131/280/130
f 126/281/125 122/282/121 130/283/129 128/284/127
f 131/276/130 130/275/129 132/285/131 133/286/132
f 130/283/129 122/282/121 125/287/124 132/288/131
f 123/277/122 131/280/130 133/289/132 124/290/123
f 134/1/133 135/4/134 136/3/135 137/2/136
f 138/5/137 139/8/138 7/7/7 6/6/6
f 140/9/139 141/12/140 142/11/141 143/10/142
f 144/13/143 145/16/144 146/15/145 147/14/146
f 148/17/147 149/20/148 150/19/149 151/18/150
f 152/21/151 137/24/136 153/23/152 154/22/153
f 155/25/154 156/28/155 157/27/156 158/26/157
f 159/29/158 160/32/159 30/31/30 29/30/29
f 159/29/158 29/30/29 33/34/33 161/33/160
f 162/35/161 138/5/137 6/6/6 35/36/35
f 163/37/162 164/40/163 165/39/164 166/38/165
f 167/41/166 134/1/133 137/2/136 152/42/151
f 168/43/167 163/46/162 166/45/165 169/44/168
f 141/12/140 144/13/143 147/14/146 142/11/141
f 170/47/169 44/50/44 30/49/30 160/48/159
f 137/24/136 136/52/135 171/51/170 153/23/152
f 172/53/171 152/21/151 154/22/153 150/54/149
f 173/55/172 174/58/173 175/57/174 176/56/175
f 177/59/176 167/41/166 152/42/151 172/60/171
f 151/61/150 162/35/161 35/36/35 52/62/52
f 178/63/177 179/66/172 180/65/178 181/64/179
f 143/67/142 171/51/170 136/52/135
f 182/68/180 177/59/176 172/60/171 149/69/148
f 179/66/172 173/55/172 176/56/175 180/65/178
f 149/70/148 172/53/171 150/54/149
f 183/71/181 184/74/182 185/73/183 186/72/184
f 135/4/134 140/9/139 143/10/142 136/3/135
f 161/33/160 33/34/33 63/76/62 187/75/185
f 156/77/155 182/68/180 149/69/148 157/78/156
f 188/79/186 189/82/187 66/81/65 65/80/64
f 139/83/138 171/86/170 143/85/142 187/84/185
f 148/87/147 158/90/157 157/89/156 149/88/148
f 190/91/188 71/94/70 70/93/69 191/92/189
f 192/95/190 193/98/191 194/97/192 195/96/193
f 181/99/179 196/102/194 197/101/195 178/100/177
f 195/103/193 198/106/196 199/105/197 192/104/190
f 164/107/163 200/110/198 201/109/199 165/108/164
f 202/111/200 203/114/201 204/113/202 205/112/203
f 205/112/203 204/113/202 196/102/194 181/99/179
f 206/115/204 207/118/205 208/117/206 209/116/207
f 209/116/207 208/117/206 198/106/196 195/103/193
f 175/119/174 210/120/208 207/118/205 206/115/204
f 174/121/173 211/122/209 210/120/208 175/119/174
f 198/123/196 208/126/206 211/125/209 199/124/197
f 207/127/205 210/128/208 211/125/209 208/126/206
f 193/129/191 190/91/188 191/92/189 194/130/192
f 92/131/91 93/132/92 158/90/157 148/87/147
f 7/133/7 139/83/138 187/84/185 63/134/62
f 70/135/69 95/138/94 212/137/210 191/136/189
f 142/139/141 161/33/160 187/75/185 143/140/142
f 150/141/149 154/142/153 162/35/161 151/61/150
f 145/143/144 170/47/169 160/48/159 146/144/145
f 96/145/95 168/43/167 169/44/168 97/146/96
f 154/142/153 153/147/152 138/5/137 162/35/161
f 147/148/146 159/29/158 161/33/160 142/139/141
f 147/148/146 146/149/145 160/32/159 159/29/158
f 98/150/97 155/25/154 158/26/157 93/151/92
f 92/152/91 148/17/147 151/18/150 52/153/52
f 153/147/152 171/154/170 139/8/138 138/5/137
f 193/155/191 192/158/190 199/157/197 190/156/188
f 179/159/172 197/161/195 213/160/98
f 179/159/172 213/160/98 173/162/172
f 173/162/172 213/160/98 211/164/209 174/163/173
f 179/159/172 178/165/177 197/161/195
f 163/166/162 168/169/167 200/168/198 164/167/163
f 204/170/202 197/172/195 196/171/194
f 200/173/198 197/172/195 201/174/199
f 211/164/209 100/176/99 71/175/70 199/157/197
f 213/160/98 100/176/99 211/164/209
f 197/161/195 101/177/100 100/176/99 213/160/98
f 200/168/198 101/177/100 197/161/195
f 71/175/70 190/156/188 199/157/197
f 168/169/167 96/178/95 101/177/100 200/168/198
f 102/179/101 214/180/211 155/25/154 98/150/97
f 183/181/181 188/182/186 170/47/169 145/143/144
f 215/183/212 202/184/200 182/68/180 156/77/155
f 176/56/175 175/57/174 140/9/139 135/4/134
f 202/184/200 205/185/203 177/59/176 182/68/180
f 205/185/203 181/64/179 167/41/166 177/59/176
f 188/182/186 65/186/64 44/50/44 170/47/169
f 206/187/204 209/188/207 144/13/143 141/12/140
f 181/64/179 180/65/178 134/1/133 167/41/166
f 214/180/211 215/189/212 156/28/155 155/25/154
f 209/188/207 183/190/181 145/16/144 144/13/143
f 175/57/174 206/187/204 141/12/140 140/9/139
f 180/65/178 176/56/175 135/4/134 134/1/133
f 212/191/210 95/194/94 66/193/65 189/192/187
f 216/195/213 212/191/210 189/192/187 186/196/184
f 183/197/181 186/198/184 189/82/187 188/79/186
f 186/196/184 185/200/183 217/199/214 216/195/213
f 191/136/189 212/137/210 216/202/213 194/201/192
f 218/203/215 219/206/216 184/205/182 220/204/217
f 219/207/216 217/199/214 185/200/183 184/208/182
f 195/209/193 218/212/215 220/211/217 209/210/207
f 194/213/192 219/216/216 218/215/215 195/214/193
f 209/217/207 220/218/217 184/74/182 183/71/181
f 216/219/213 217/220/214 219/216/216 194/213/192
f 221/45/218 222/222/219 223/221/220 224/44/221
f 215/223/212 225/226/222 226/225/223 202/224/200
f 201/109/199 203/114/201 202/111/200 165/108/164
f 102/227/101 116/230/115 223/229/220 214/228/211
f 197/172/195 204/170/202 203/231/201 201/174/199
f 169/232/168 224/235/221 117/234/116 97/233/96
f 224/44/221 223/221/220 116/236/115 117/146/116
f 166/237/165 221/238/218 224/235/221 169/232/168
f 214/228/211 223/229/220 222/240/219 215/239/212
f 222/241/219 227/242/224 225/226/222 215/223/212
f 228/243/225 226/246/223 225/245/222 229/244/226
f 225/247/222 227/250/224 230/249/227 229/248/226
f 202/251/200 226/254/223 228/253/225 165/252/164
f 166/255/165 229/258/226 230/257/227 221/256/218
f 165/259/164 228/260/225 229/258/226 166/255/165
f 221/45/218 230/249/227 227/250/224 222/222/219
f 231/261/228 232/264/229 233/263/230 234/262/231
f 234/265/231 235/268/232 236/267/233 231/266/228
f 235/269/232 237/272/234 238/271/235 236/270/233
f 237/273/234 239/276/236 240/275/237 238/274/235
f 234/277/231 239/280/236 237/279/234 235/278/232
f 236/281/233 238/284/235 240/283/237 231/282/228
f 239/276/236 241/286/238 242/285/239 240/275/237
f 240/283/237 242/288/239 232/287/229 231/282/228
f 234/277/231 233/290/230 241/289/238 239/280/236
