# PSX Racing car model — generated by tools/carmodels/export_models.mjs
mtllib jdm_pickup_wheels_f.mtl
v -0.525345 0.596186 1.269182
v -0.525345 0.507435 1.483446
v -0.525345 0.293171 1.269182
v -0.525344 0.507435 1.054918
v -0.676008 0.293171 1.572197
v -0.676008 0.507435 1.483446
v -0.676008 0.293171 1.269182
v -0.676008 0.078907 1.483446
v -0.676008 0.596186 1.269182
v -0.525345 0.293171 1.572197
v -0.525345 0.078907 1.483446
v -0.676008 -0.009844 1.269182
v -0.676008 0.078907 1.054918
v -0.525345 -0.009844 1.269182
v -0.525345 0.078907 1.054918
v -0.676008 0.293171 0.966166
v -0.676008 0.507435 1.054918
v -0.525344 0.293171 0.966166
v 0.525345 0.596186 1.269182
v 0.525344 0.507435 1.054918
v 0.525345 0.293171 1.269182
v 0.525345 0.507435 1.483446
v 0.676008 0.293171 1.572197
v 0.676008 0.078907 1.483446
v 0.676008 0.293171 1.269182
v 0.676008 0.507435 1.483446
v 0.676008 0.596186 1.269182
v 0.525345 0.078907 1.483446
v 0.525345 0.293171 1.572197
v 0.676008 -0.009844 1.269182
v 0.676008 0.078907 1.054918
v 0.525345 0.078907 1.054918
v 0.525345 -0.009844 1.269182
v 0.676008 0.293171 0.966166
v 0.676008 0.507435 1.054918
v 0.525344 0.293171 0.966166
vt 0.003829 0.351967
vt 0.148033 0.496171
vt 0.250000 0.250000
vt 0.003829 0.148033
vt 0.351967 0.996171
vt 0.496171 0.851967
vt 0.250000 0.750000
vt 0.148033 0.996171
vt 0.636313 0.207764
vt 0.636313 0.003829
vt 0.503829 0.003829
vt 0.503829 0.207764
vt 0.351967 0.496171
vt 0.496171 0.351967
vt 0.003829 0.851968
vt 0.003829 0.648033
vt 0.776456 0.411698
vt 0.776456 0.207764
vt 0.643972 0.207764
vt 0.643972 0.411698
vt 0.776456 0.003829
vt 0.643972 0.003829
vt 0.496171 0.148033
vt 0.351967 0.003829
vt 0.148032 0.503829
vt 0.351967 0.503829
vt 0.643972 0.419356
vt 0.643972 0.623291
vt 0.776456 0.623291
vt 0.776456 0.419356
vt 0.643972 0.827226
vt 0.776456 0.827226
vt 0.148032 0.003829
vt 0.503829 0.419357
vt 0.503829 0.623291
vt 0.636314 0.623291
vt 0.636314 0.419357
vt 0.503829 0.827226
vt 0.636314 0.827226
vt 0.636313 0.411698
vt 0.503829 0.411698
vt 0.496171 0.648033
vt 0.003829 0.351967
vt 0.003829 0.148033
vt 0.250000 0.250000
vt 0.148033 0.496171
vt 0.351967 0.996171
vt 0.148033 0.996171
vt 0.250000 0.750000
vt 0.496171 0.851967
vt 0.636313 0.207764
vt 0.503829 0.207764
vt 0.503829 0.003829
vt 0.636313 0.003829
vt 0.496171 0.351967
vt 0.351967 0.496171
vt 0.003829 0.851968
vt 0.003829 0.648033
vt 0.776456 0.411698
vt 0.643972 0.411698
vt 0.643972 0.207764
vt 0.776456 0.207764
vt 0.643972 0.003829
vt 0.776456 0.003829
vt 0.351967 0.003829
vt 0.496171 0.148033
vt 0.148032 0.503829
vt 0.351967 0.503829
vt 0.643972 0.419356
vt 0.776456 0.419356
vt 0.776456 0.623291
vt 0.643972 0.623291
vt 0.776456 0.827226
vt 0.643972 0.827226
vt 0.148032 0.003829
vt 0.503829 0.419357
vt 0.636314 0.419357
vt 0.636314 0.623291
vt 0.503829 0.623291
vt 0.636314 0.827226
vt 0.503829 0.827226
vt 0.636313 0.411698
vt 0.503829 0.411698
vt 0.496171 0.648033
vn 1.000000 0.000000 0.000000
vn -1.000000 0.000000 0.000000
vn 0.000000 0.923900 0.382700
vn 0.000000 0.382700 0.923900
vn 0.000000 -0.382700 0.923900
vn 0.000000 -0.923900 0.382700
vn 0.000000 -0.923900 -0.382700
vn 0.000000 -0.382700 -0.923900
vn 0.000000 0.382700 -0.923900
vn 0.000000 0.923900 -0.382700
vn -1.000000 0.000000 0.000000
vn 1.000000 0.000000 0.000000
vn 0.000000 0.923900 0.382700
vn 0.000000 0.382700 0.923900
vn 0.000000 -0.382700 0.923900
vn 0.000000 -0.923900 0.382700
vn 0.000000 -0.923900 -0.382700
vn 0.000000 -0.382700 -0.923900
vn 0.000000 0.382700 -0.923900
vn 0.000000 0.923900 -0.382700
o jdm_pickup_wheels_f
usemtl jdm_pickup_wheels_f
f 1/1/1 2/2/1 3/3/1 4/4/1
f 5/5/2 6/6/2 7/7/2 8/8/2
f 9/9/3 6/10/3 2/11/3 1/12/3
f 3/3/1 2/2/1 10/13/1 11/14/1
f 12/15/2 8/8/2 7/7/2 13/16/2
f 6/17/4 5/18/4 10/19/4 2/20/4
f 5/18/5 8/21/5 11/22/5 10/19/5
f 3/3/1 11/14/1 14/23/1 15/24/1
f 16/25/2 13/16/2 7/7/2 17/26/2
f 8/27/6 12/28/6 14/29/6 11/30/6
f 12/28/7 13/31/7 15/32/7 14/29/7
f 3/3/1 15/24/1 18/33/1 4/4/1
f 13/34/8 16/35/8 18/36/8 15/37/8
f 16/35/9 17/38/9 4/39/9 18/36/9
f 17/40/10 9/9/10 1/12/10 4/41/10
f 7/7/2 6/6/2 9/42/2 17/26/2
f 19/43/11 20/44/11 21/45/11 22/46/11
f 23/47/12 24/48/12 25/49/12 26/50/12
f 27/51/13 19/52/13 22/53/13 26/54/13
f 21/45/11 28/55/11 29/56/11 22/46/11
f 30/57/12 31/58/12 25/49/12 24/48/12
f 26/59/14 22/60/14 29/61/14 23/62/14
f 23/62/15 29/61/15 28/63/15 24/64/15
f 21/45/11 32/65/11 33/66/11 28/55/11
f 34/67/12 35/68/12 25/49/12 31/58/12
f 24/69/16 28/70/16 33/71/16 30/72/16
f 30/72/17 33/71/17 32/73/17 31/74/17
f 21/45/11 20/44/11 36/75/11 32/65/11
f 31/76/18 32/77/18 36/78/18 34/79/18
f 34/79/19 36/78/19 20/80/19 35/81/19
f 35/82/20 20/83/20 19/52/20 27/51/20
f 25/49/12 35/68/12 27/84/12 26/50/12
