# PSX Racing car model — generated by tools/carmodels/export_models.mjs
mtllib jdm_pickup.mtl
v 0.000000 0.943932 0.831530
v 0.350211 0.922980 0.813656
v 0.254623 1.337504 0.262579
v 0.000000 1.347448 0.269107
v 0.734357 0.753267 1.887063
v 0.771275 0.761757 1.292997
v 0.700423 0.840490 1.299115
v 0.700423 0.782350 1.890385
v 0.000000 0.898161 1.319894
v 0.350211 0.881841 1.309505
v 0.787000 0.575160 1.867458
v 0.367178 0.771693 1.910559
v 0.393500 0.575160 1.888800
v 0.659784 0.199001 0.709650
v 0.778872 0.418321 0.725375
v 0.778872 0.427636 0.941704
v 0.659784 0.200244 0.912184
v 0.771275 0.829227 -1.903933
v 0.787000 0.578880 -1.903933
v 0.322216 0.571862 -1.922607
v 0.385637 0.825718 -1.922607
v 0.659784 0.203448 -0.478435
v 0.778872 0.418321 -0.485141
v 0.509246 1.319108 -0.362316
v 0.254623 1.354577 -0.367189
v 0.509246 1.319108 0.241546
v 0.000000 0.203448 -0.478435
v 0.329892 0.203448 -0.478435
v 0.329892 0.199001 0.709650
v 0.000000 0.199001 0.709650
v 0.700423 0.908128 -0.490882
v 0.700423 0.881697 0.719191
v 0.778872 0.425339 -1.897939
v 0.778872 0.463924 -1.343019
v 0.727633 0.295698 -1.403930
v 0.592541 0.209255 -0.720721
v 0.778872 0.468083 -0.775424
v 0.787000 0.558790 0.725370
v 0.787000 0.564649 -0.490046
v 0.771275 0.822208 -0.497747
v 0.771275 0.801887 0.725375
v 0.787000 0.566669 -0.880326
v 0.784234 0.611550 -1.051136
v 0.771275 0.822208 -1.051136
v 0.787000 0.557112 1.507011
v 0.700423 0.908128 -1.051136
v 0.734510 0.748841 1.916665
v 0.367331 0.767267 1.940162
v 0.778872 0.459980 1.824817
v 0.389436 0.459980 1.846159
v 0.329892 0.316925 1.788140
v 0.659784 0.316925 1.766798
v 0.778872 0.450643 1.585060
v 0.525298 0.467742 -0.775344
v 0.525298 0.566669 -0.880326
v 0.000000 0.459980 1.846159
v 0.389436 0.483905 1.986481
v 0.000000 0.483905 1.986481
v 0.700423 0.915146 -1.858787
v 0.350211 0.911637 -1.877461
v 0.322216 0.495091 -1.919610
v 0.000000 0.495091 -1.919610
v 0.322216 0.418321 -1.916614
v 0.000000 0.418321 -1.916614
v 0.270805 0.571862 -1.959269
v 0.270805 0.495091 -1.959269
v 0.000000 0.495091 -1.959269
v 0.000000 0.571862 -1.959269
v 0.000000 0.571862 -1.922607
v 0.650423 0.908128 -0.500628
v 0.650423 0.908128 -1.808787
v 0.650423 0.908128 -1.051136
v 0.325211 0.908128 -1.827461
v 0.000000 0.914498 -0.500628
v 0.000000 1.364260 -0.372061
v 0.325211 0.911313 -0.500628
v 0.325211 0.468130 -0.500628
v 0.000000 0.468130 -0.500628
v 0.787000 0.568385 -1.224874
v 0.525298 0.568385 -1.224874
v 0.525298 0.467742 -1.341754
v 0.325211 0.468130 -1.852024
v 0.650423 0.468130 -1.833350
v 0.525298 0.467742 -1.051109
v 0.525298 0.611550 -1.051136
v 0.778872 0.483905 1.965139
v 0.787000 0.554228 1.962829
v 0.393500 0.554228 1.984171
v 0.659784 0.256266 1.631496
v 0.780032 0.652196 1.268498
v 0.787000 0.558067 1.037346
v 0.000000 0.805037 1.919996
v 0.350211 0.806209 1.915861
v 0.475298 0.596169 -0.852183
v 0.475298 0.467997 -0.729729
v 0.650976 0.467997 -0.729729
v 0.650976 0.596169 -0.852183
v 0.475298 0.649511 -1.049731
v 0.650976 0.649511 -1.049731
v 0.475298 0.468234 -1.390101
v 0.475298 0.600997 -1.250887
v 0.650976 0.600997 -1.250887
v 0.650976 0.468234 -1.390101
v 0.650423 0.468130 -0.500628
v 0.475298 0.468115 -1.059915
v 0.525298 0.214047 -1.051109
v 0.525298 0.295698 -1.403930
v 0.525298 0.209600 -0.720765
v 0.433518 0.450643 1.585060
v 0.433518 0.557112 1.507011
v 0.433518 0.652196 1.268498
v 0.433518 0.558067 1.037346
v 0.433518 0.256266 1.631496
v 0.433518 0.427636 0.941705
v 0.433518 0.200244 0.912184
v 0.000000 0.575160 1.888800
v 0.000000 0.554228 1.984171
v 0.000000 0.765088 1.912714
v 0.000000 0.316925 1.788140
v 0.433518 0.202181 1.272208
v 0.000000 0.202181 1.272208
v 0.000000 0.200244 0.912184
v 0.000000 0.256266 1.631496
v 0.433518 0.427189 1.270353
v 0.000000 0.760662 1.942316
v 0.000000 0.209600 -0.720765
v 0.000000 0.214047 -1.051109
v 0.000000 0.295698 -1.403930
v 0.000000 0.468130 -1.852024
v 0.000000 0.468130 -1.176326
v 0.000000 0.822208 -1.922607
v 0.000000 0.908128 -1.877461
v 0.000000 0.908128 -1.827461
v 0.656178 0.941117 0.545542
v 0.671163 1.067251 0.535187
v 0.671163 1.067251 0.515187
v 0.656178 0.941117 0.515187
v 0.765539 1.034917 0.515187
v 0.759544 0.959840 0.515187
v 0.765539 1.034917 0.535187
v 0.759544 0.959840 0.535187
v -0.254623 1.337504 0.262579
v -0.350211 0.922980 0.813656
v -0.734357 0.753267 1.887063
v -0.700423 0.782350 1.890385
v -0.700423 0.840490 1.299115
v -0.771275 0.761757 1.292997
v -0.350211 0.881841 1.309505
v -0.787000 0.575160 1.867458
v -0.393500 0.575160 1.888800
v -0.367178 0.771693 1.910559
v -0.659784 0.199001 0.709650
v -0.659784 0.200244 0.912184
v -0.778872 0.427636 0.941704
v -0.778872 0.418321 0.725375
v -0.771275 0.829227 -1.903933
v -0.385637 0.825718 -1.922607
v -0.322216 0.571862 -1.922607
v -0.787000 0.578880 -1.903933
v -0.659784 0.203448 -0.478435
v -0.778872 0.418321 -0.485141
v -0.509246 1.319108 -0.362316
v -0.509246 1.319108 0.241546
v -0.254623 1.354577 -0.367189
v -0.329892 0.199001 0.709650
v -0.329892 0.203448 -0.478435
v -0.700423 0.908128 -0.490882
v -0.700423 0.881697 0.719191
v -0.778872 0.425339 -1.897939
v -0.727633 0.295698 -1.403930
v -0.778872 0.463924 -1.343019
v -0.592541 0.209255 -0.720721
v -0.778872 0.468083 -0.775424
v -0.787000 0.558790 0.725370
v -0.771275 0.801887 0.725375
v -0.771275 0.822208 -0.497747
v -0.787000 0.564649 -0.490046
v -0.787000 0.566669 -0.880326
v -0.771275 0.822208 -1.051136
v -0.784234 0.611550 -1.051136
v -0.787000 0.557112 1.507011
v -0.700423 0.908128 -1.051136
v -0.367331 0.767267 1.940162
v -0.734510 0.748841 1.916665
v -0.778872 0.459980 1.824817
v -0.659784 0.316925 1.766798
v -0.329892 0.316925 1.788140
v -0.389436 0.459980 1.846159
v -0.778872 0.450643 1.585060
v -0.525298 0.566669 -0.880326
v -0.525298 0.467742 -0.775344
v -0.389436 0.483905 1.986481
v -0.700423 0.915146 -1.858787
v -0.350211 0.911637 -1.877461
v -0.322216 0.495091 -1.919610
v -0.322216 0.418321 -1.916614
v -0.270805 0.571862 -1.959269
v -0.270805 0.495091 -1.959269
v -0.650423 0.908128 -0.500628
v -0.650423 0.908128 -1.808787
v -0.650423 0.908128 -1.051136
v -0.325211 0.908128 -1.827461
v -0.325211 0.911313 -0.500628
v -0.325211 0.468130 -0.500628
v -0.525298 0.467742 -1.341754
v -0.525298 0.568385 -1.224874
v -0.787000 0.568385 -1.224874
v -0.650423 0.468130 -1.833350
v -0.325211 0.468130 -1.852024
v -0.525298 0.611550 -1.051136
v -0.525298 0.467742 -1.051109
v -0.778872 0.483905 1.965139
v -0.393500 0.554228 1.984171
v -0.787000 0.554228 1.962829
v -0.659784 0.256266 1.631496
v -0.787000 0.558067 1.037346
v -0.780032 0.652196 1.268498
v -0.350211 0.806209 1.915861
v -0.475298 0.596169 -0.852183
v -0.650976 0.596169 -0.852183
v -0.650976 0.467997 -0.729729
v -0.475298 0.467997 -0.729729
v -0.475298 0.649511 -1.049731
v -0.650976 0.649511 -1.049731
v -0.475298 0.468234 -1.390101
v -0.650976 0.468234 -1.390101
v -0.650976 0.600997 -1.250887
v -0.475298 0.600997 -1.250887
v -0.650423 0.468130 -0.500628
v -0.475298 0.468115 -1.059915
v -0.525298 0.295698 -1.403930
v -0.525298 0.214047 -1.051109
v -0.525298 0.209600 -0.720765
v -0.433518 0.557112 1.507011
v -0.433518 0.450643 1.585060
v -0.433518 0.558067 1.037346
v -0.433518 0.652196 1.268498
v -0.433518 0.256266 1.631496
v -0.433518 0.427636 0.941705
v -0.433518 0.200244 0.912184
v -0.433518 0.202181 1.272208
v -0.433518 0.427189 1.270353
v -0.656178 0.941117 0.545542
v -0.656178 0.941117 0.515187
v -0.671163 1.067251 0.515187
v -0.671163 1.067251 0.535187
v -0.759544 0.959840 0.515187
v -0.765539 1.034917 0.515187
v -0.759544 0.959840 0.535187
v -0.765539 1.034917 0.535187
vt 0.943726 0.791475
vt 0.944098 0.867713
vt 0.794242 0.848482
vt 0.793512 0.793168
vt 0.661329 0.333639
vt 0.663699 0.462613
vt 0.640752 0.461098
vt 0.651654 0.332717
vt 0.550976 0.140188
vt 0.627058 0.142227
vt 0.627024 0.250191
vt 0.550843 0.246662
vt 0.573623 0.610750
vt 0.612480 0.622276
vt 0.616766 0.702110
vt 0.573870 0.696273
vt 0.794454 0.586983
vt 0.740181 0.584588
vt 0.737512 0.537622
vt 0.793388 0.542994
vt 0.217503 0.643656
vt 0.271993 0.640669
vt 0.272582 0.741732
vt 0.217758 0.727270
vt 0.008389 0.347125
vt 0.061700 0.345495
vt 0.062562 0.608203
vt 0.008389 0.604968
vt 0.493084 0.989282
vt 0.437295 0.990499
vt 0.437300 0.853774
vt 0.492712 0.858231
vt 0.776733 0.861605
vt 0.705139 0.861605
vt 0.705139 0.603761
vt 0.776733 0.603761
vt 0.720543 0.008389
vt 0.819448 0.034331
vt 0.822051 0.165357
vt 0.720543 0.271065
vt 0.306223 0.316102
vt 0.297210 0.195725
vt 0.335482 0.208622
vt 0.365219 0.062671
vt 0.295702 0.072582
vt 0.306196 0.009536
vt 0.359515 0.008389
vt 0.093098 0.608102
vt 0.093501 0.344326
vt 0.149496 0.342471
vt 0.145965 0.607929
vt 0.274397 0.010746
vt 0.274336 0.095442
vt 0.218408 0.012666
vt 0.264754 0.132555
vt 0.218937 0.132781
vt 0.701742 0.337098
vt 0.707048 0.415301
vt 0.194766 0.132879
vt 0.194231 0.011282
vt 0.173664 0.343971
vt 0.169127 0.606608
vt 0.656696 0.585739
vt 0.633545 0.586983
vt 0.174870 0.704868
vt 0.176756 0.784795
vt 0.170263 0.784620
vt 0.168377 0.704693
vt 0.872667 0.008389
vt 0.873385 0.093030
vt 0.839724 0.105533
vt 0.838830 0.033794
vt 0.726981 0.345910
vt 0.729933 0.397938
vt 0.306528 0.423307
vt 0.308291 0.392065
vt 0.363322 0.391998
vt 0.363324 0.423303
vt 0.811233 0.496294
vt 0.813515 0.411808
vt 0.844396 0.412643
vt 0.842114 0.497128
vt 0.195984 0.658469
vt 0.196578 0.734482
vt 0.305360 0.642690
vt 0.289272 0.741860
vt 0.288734 0.811858
vt 0.305962 0.741988
vt 0.305424 0.811986
vt 0.838830 0.194318
vt 0.855491 0.194318
vt 0.855491 0.253089
vt 0.838830 0.253089
vt 0.819839 0.513907
vt 0.819839 0.583835
vt 0.811233 0.583835
vt 0.811233 0.525064
vt 0.593469 0.303352
vt 0.593081 0.286683
vt 0.607172 0.286691
vt 0.607172 0.303352
vt 0.836618 0.583835
vt 0.836618 0.513907
vt 0.844575 0.525064
vt 0.844575 0.583835
vt 0.381997 0.733470
vt 0.393028 0.732746
vt 0.423586 0.826873
vt 0.392945 0.024406
vt 0.392889 0.188833
vt 0.382038 0.188830
vt 0.381997 0.013544
vt 0.457974 0.008956
vt 0.463488 0.019789
vt 0.534193 0.734122
vt 0.534215 0.835636
vt 0.478935 0.833918
vt 0.463610 0.733450
vt 0.463612 0.637263
vt 0.534181 0.637258
vt 0.308299 0.534711
vt 0.306533 0.500486
vt 0.363328 0.500483
vt 0.363332 0.533956
vt 0.194586 0.967201
vt 0.194812 0.896507
vt 0.290450 0.896507
vt 0.290224 0.967201
vt 0.891296 0.059598
vt 0.907075 0.032560
vt 0.920569 0.090867
vt 0.890164 0.097909
vt 0.808780 0.772921
vt 0.793512 0.774697
vt 0.793584 0.689173
vt 0.808854 0.688278
vt 0.573623 0.798573
vt 0.598369 0.808634
vt 0.593183 0.829180
vt 0.577812 0.829180
vt 0.339888 0.761860
vt 0.342149 0.676366
vt 0.363332 0.675805
vt 0.361071 0.761299
vt 0.779358 0.387453
vt 0.767731 0.357421
vt 0.687552 0.467456
vt 0.708837 0.517237
vt 0.551530 0.008389
vt 0.627533 0.009634
vt 0.709615 0.585010
vt 0.218430 0.317881
vt 0.194231 0.308173
vt 0.274333 0.170210
vt 0.272864 0.317583
vt 0.934790 0.152319
vt 0.907792 0.132531
vt 0.392849 0.308306
vt 0.381997 0.310417
vt 0.307131 0.461635
vt 0.363326 0.461631
vt 0.860669 0.734825
vt 0.860669 0.773296
vt 0.822543 0.773296
vt 0.822543 0.734825
vt 0.860669 0.690417
vt 0.822543 0.690417
vt 0.860669 0.603761
vt 0.860669 0.645510
vt 0.822543 0.645510
vt 0.822543 0.603761
vt 0.194231 0.504418
vt 0.194231 0.339990
vt 0.260886 0.461067
vt 0.250357 0.504722
vt 0.194231 0.623890
vt 0.261933 0.547595
vt 0.289750 0.574170
vt 0.289721 0.623890
vt 0.289698 0.430854
vt 0.289721 0.334659
vt 0.377076 0.570760
vt 0.415202 0.570760
vt 0.447774 0.620480
vt 0.377196 0.620480
vt 0.377076 0.427444
vt 0.377196 0.331249
vt 0.447774 0.327196
vt 0.415202 0.427444
vt 0.363332 0.848100
vt 0.323964 0.850296
vt 0.323964 0.778638
vt 0.351771 0.805224
vt 0.352788 0.891752
vt 0.323964 0.921954
vt 0.974209 0.078453
vt 0.974209 0.157047
vt 0.348738 0.334659
vt 0.363332 0.334737
vt 0.958985 0.008389
vt 0.363247 0.573657
vt 0.319336 0.573563
vt 0.616766 0.521950
vt 0.615003 0.550600
vt 0.540053 0.550600
vt 0.540053 0.521950
vt 0.616766 0.412060
vt 0.615254 0.466226
vt 0.540053 0.466226
vt 0.540053 0.412060
vt 0.589158 0.593971
vt 0.540053 0.593971
vt 0.615003 0.376959
vt 0.540053 0.376959
vt 0.589158 0.327196
vt 0.540053 0.327196
vt 0.079983 0.862385
vt 0.102476 0.825932
vt 0.151581 0.825905
vt 0.151598 0.858085
vt 0.339888 0.590997
vt 0.361071 0.590436
vt 0.615167 0.781794
vt 0.573623 0.781671
vt 0.793512 0.603774
vt 0.808782 0.603761
vt 0.811233 0.327196
vt 0.842114 0.328030
vt 0.872330 0.177539
vt 0.838830 0.177121
vt 0.102483 0.747080
vt 0.008399 0.747072
vt 0.008406 0.668937
vt 0.102489 0.668945
vt 0.008389 0.862379
vt 0.008393 0.825924
vt 0.861175 0.483374
vt 0.861175 0.404521
vt 0.909522 0.411392
vt 0.904389 0.479687
vt 0.872390 0.327196
vt 0.920235 0.340877
vt 0.957870 0.418263
vt 0.945137 0.365616
vt 0.929759 0.466377
vt 0.551426 0.012127
vt 0.551376 0.001347
vt 0.631102 0.002426
vt 0.627435 0.012406
vt 0.703596 0.143724
vt 0.703765 0.269904
vt 0.933856 0.946277
vt 0.793512 0.904068
vt 0.703765 0.014765
vt 0.711044 0.001347
vt 0.703796 0.010707
vt 0.176756 0.625190
vt 0.170264 0.624982
vt 0.662116 0.327196
vt 0.122391 0.273084
vt 0.008389 0.273084
vt 0.008389 0.201386
vt 0.122391 0.201386
vt 0.122391 0.122792
vt 0.008389 0.122792
vt 0.151578 0.325692
vt 0.079983 0.325692
vt 0.136984 0.273095
vt 0.633545 0.861605
vt 0.633545 0.603761
vt 0.008389 0.325692
vt 0.008410 0.624982
vt 0.080004 0.624988
vt 0.151594 0.668949
vt 0.151598 0.624994
vt 0.166302 0.122803
vt 0.078318 0.008389
vt 0.177452 0.011965
vt 0.008389 0.008389
vt 0.415202 0.499102
vt 0.518353 0.327196
vt 0.518353 0.473838
vt 0.518352 0.620480
vt 0.381997 0.991611
vt 0.381997 0.852415
vt 0.393035 0.637258
vt 0.271434 0.811733
vt 0.217046 0.810841
vt 0.195984 0.810490
vt 0.533980 0.008389
vt 0.534064 0.019240
vt 0.194812 0.825929
vt 0.290450 0.825929
vt 0.310869 0.590436
vt 0.310869 0.618003
vt 0.306528 0.618003
vt 0.306528 0.590436
vt 0.860627 0.269868
vt 0.860627 0.297434
vt 0.839461 0.292882
vt 0.838830 0.276549
vt 0.556844 0.610750
vt 0.556844 0.627095
vt 0.552504 0.627095
vt 0.552504 0.610750
vt 0.595420 0.852640
vt 0.594789 0.868973
vt 0.573623 0.873525
vt 0.573623 0.845959
vt 0.550843 0.309481
vt 0.550843 0.286683
vt 0.555183 0.286683
vt 0.555183 0.309481
vt 0.571962 0.308333
vt 0.571962 0.286683
vt 0.576302 0.286683
vt 0.576302 0.308333
vn 0.000000 0.808600 0.588400
vn 0.130700 0.795300 0.592000
vn 0.122900 0.796800 0.591600
vn 0.803700 0.591700 0.063100
vn 0.912800 0.406000 0.044300
vn 0.731800 0.679400 0.054200
vn 0.350200 0.848600 0.396500
vn 0.000000 0.993500 0.113700
vn 0.076700 0.991700 0.103100
vn 0.095500 0.992100 0.081300
vn 0.000000 0.996100 0.088000
vn 0.056200 -0.097900 0.993600
vn 0.027400 -0.108500 0.993700
vn 0.032300 -0.106700 0.993800
vn 0.879200 -0.476400 0.005200
vn 0.961000 -0.276400 0.003200
vn 0.974500 -0.224300 0.005300
vn 0.881800 -0.471400 0.011900
vn 0.679700 0.346000 -0.646700
vn 0.729800 -0.014500 -0.683500
vn 0.026000 -0.014800 -0.999600
vn 0.024700 0.243700 -0.969500
vn 0.851400 -0.517900 -0.082500
vn 0.949100 -0.311300 -0.047800
vn 0.105600 0.994300 0.013800
vn 0.071700 0.997200 0.020300
vn 0.071000 0.997300 0.020400
vn 0.000000 -1.000000 -0.003700
vn -0.000200 -1.000000 -0.008400
vn 0.000000 -1.000000 0.001200
vn 0.814900 0.579600 0.006400
vn 0.910700 0.412900 0.006000
vn 0.789500 0.613200 0.024500
vn 0.760600 -0.104600 -0.640700
vn 0.990200 -0.139500 0.007700
vn 0.954300 -0.298200 0.020700
vn 0.819900 -0.549500 -0.160900
vn 0.970100 -0.235400 -0.058600
vn 1.000000 0.002600 0.000400
vn 1.000000 -0.000400 -0.001100
vn 0.928100 0.372400 0.003400
vn 0.922100 0.386600 0.017100
vn 0.999400 0.034600 -0.001000
vn 0.998100 0.061400 0.000300
vn 0.930700 0.365800 0.001500
vn 0.931900 0.357300 0.063000
vn 0.995000 0.095200 0.031200
vn 0.771900 0.635800 0.002700
vn -0.021700 -0.988800 -0.147700
vn -0.059000 -0.987300 -0.147300
vn -0.020400 -0.988800 -0.147700
vn 0.797000 -0.552200 0.244600
vn 0.021400 -0.789300 0.613600
vn 0.021000 -0.387000 0.921800
vn 0.519100 -0.590400 0.618000
vn 0.958700 -0.280800 0.046000
vn 0.000200 -0.876300 -0.481700
vn 0.000200 -0.559200 -0.829000
vn 0.000100 -0.489700 -0.871900
vn 0.000200 -0.874700 -0.484700
vn 0.000000 -0.779300 0.626600
vn 0.020500 -0.627600 0.778200
vn 0.000000 -0.632300 0.774700
vn 0.473100 0.680000 -0.560100
vn 0.013100 0.472300 -0.881300
vn 0.027500 -0.039500 -0.998800
vn 0.000000 -0.039000 -0.999200
vn 0.020600 -0.039000 -0.999000
vn 0.240600 0.642000 -0.728000
vn 0.240200 -0.643700 -0.726600
vn 0.000000 -0.707100 -0.707100
vn 0.000000 0.707100 -0.707100
vn 0.545400 -0.403100 -0.734800
vn 0.000000 -1.000000 0.000000
vn 0.558400 0.349600 -0.752300
vn 0.000000 1.000000 0.000000
vn 0.100800 0.850000 -0.517000
vn 0.068300 0.536000 -0.841500
vn 0.036000 0.312600 -0.949200
vn -0.039600 0.998000 0.050200
vn -0.033900 0.999400 0.002200
vn -0.038300 0.997900 0.052200
vn -0.008600 0.997200 0.074300
vn -0.007100 0.998400 0.056800
vn 0.000000 0.143600 -0.989600
vn 0.000000 0.282600 -0.959200
vn 0.020400 0.294000 -0.955600
vn 0.011200 0.150400 -0.988600
vn 0.000000 0.000000 -1.000000
vn -0.002400 -0.586500 0.809900
vn -0.002000 -0.888000 0.459800
vn -0.002000 -0.886700 0.462300
vn -0.002200 -0.566700 0.823900
vn -0.057200 -0.055600 0.996800
vn -0.028700 -0.055700 0.998000
vn -0.028600 -0.055700 0.998000
vn 1.000000 0.000000 0.000000
vn 0.571100 -0.538600 0.619500
vn 0.634800 0.488000 0.599100
vn 0.021600 0.633300 0.773600
vn 0.005900 0.976700 0.214400
vn 0.810500 -0.575800 0.107500
vn 0.994900 0.098000 0.025100
vn 0.999300 0.037100 0.002400
vn 0.000000 0.823700 0.567000
vn 0.053100 0.843200 0.535000
vn 0.999300 0.036100 0.000800
vn 0.000000 -1.000000 -0.006700
vn 0.000000 0.859800 0.510700
vn 0.000000 0.690800 0.723100
vn 0.000000 0.999900 0.013500
vn 0.000000 0.723700 -0.690100
vn 0.000000 0.878000 -0.478700
vn -1.000000 -0.001900 0.000000
vn -1.000000 -0.000800 0.000700
vn -1.000000 -0.001300 0.000400
vn -1.000000 -0.001100 -0.001000
vn -1.000000 -0.001200 -0.000800
vn -1.000000 -0.000400 -0.001700
vn -1.000000 -0.000300 0.001000
vn 0.000000 1.000000 -0.000600
vn 0.000100 1.000000 -0.000300
vn 0.000000 1.000000 -0.000200
vn -0.000100 1.000000 -0.000100
vn -1.000000 0.000000 0.000000
vn -0.000100 -0.206800 -0.978400
vn -0.000200 -0.340100 0.940400
vn 0.000000 -0.792700 -0.609600
vn 0.000000 -0.460700 -0.887500
vn 0.000000 -0.420100 -0.907500
vn 0.000000 -0.790700 -0.612200
vn 0.000000 -0.789800 0.613400
vn 0.000000 -1.000000 0.003800
vn 0.000000 -1.000000 0.003700
vn 0.000000 -0.788500 0.615000
vn 0.000000 -0.232400 -0.972600
vn 0.000000 -0.417800 0.908500
vn 0.000000 -0.371800 0.928300
vn 0.000000 -0.128700 0.991700
vn 0.004600 -0.929200 0.369600
vn 0.010100 -0.925200 0.379500
vn 0.014900 -0.921500 0.388200
vn 0.000000 0.976800 0.214400
vn 0.000000 0.639500 0.768800
vn 0.000000 -0.117100 0.993100
vn 0.000000 -0.375800 0.926700
vn 0.000000 -1.000000 0.005400
vn 0.000000 -0.932500 0.361100
vn 0.000000 -0.988900 0.148900
vn 0.000000 0.488700 0.872500
vn 0.055900 0.566100 0.822500
vn 0.113100 0.989200 0.092900
vn 0.128000 0.988900 0.075700
vn 0.190600 0.781500 0.594100
vn 0.425800 0.763000 0.486300
vn 0.000000 -0.989000 -0.147900
vn 0.000000 -0.999900 -0.013500
vn 0.007100 -0.971800 -0.235500
vn 0.000000 -0.974300 -0.225500
vn 0.000000 -0.973400 -0.229000
vn -0.000400 -0.999900 -0.013300
vn -0.000900 -0.999700 -0.024900
vn 0.000000 -0.999700 -0.025400
vn 0.000000 -1.000000 0.006100
vn 0.017300 -0.969200 -0.245500
vn 0.006500 -0.971400 -0.237500
vn 0.000000 -0.972600 -0.232600
vn 0.000000 1.000000 0.000100
vn 0.000000 1.000000 -0.000100
vn 0.000000 0.999600 0.026700
vn 0.000000 0.237800 -0.971300
vn 0.000000 0.464400 -0.885600
vn 0.000000 0.999400 0.033800
vn 0.000000 -0.055700 0.998400
vn -0.993000 0.118000 0.000000
vn 0.996800 -0.079600 0.000000
vn 0.055400 0.045600 0.997400
vn 0.178200 -0.984000 0.000000
vn 0.324100 0.946000 0.000000
vn -0.122900 0.796800 0.591600
vn -0.130700 0.795300 0.592000
vn -0.803700 0.591700 0.063100
vn -0.350200 0.848600 0.396500
vn -0.731800 0.679400 0.054200
vn -0.912800 0.406000 0.044300
vn -0.095500 0.992100 0.081300
vn -0.076700 0.991700 0.103100
vn -0.056200 -0.097900 0.993600
vn -0.032300 -0.106700 0.993800
vn -0.027400 -0.108500 0.993700
vn -0.879200 -0.476400 0.005200
vn -0.881800 -0.471400 0.011900
vn -0.974500 -0.224300 0.005300
vn -0.961000 -0.276400 0.003200
vn -0.679700 0.346000 -0.646700
vn -0.024700 0.243700 -0.969500
vn -0.026000 -0.014800 -0.999600
vn -0.729800 -0.014500 -0.683500
vn -0.851400 -0.517900 -0.082500
vn -0.949100 -0.311300 -0.047800
vn -0.105600 0.994300 0.013800
vn -0.071000 0.997300 0.020400
vn -0.071700 0.997200 0.020300
vn 0.000200 -1.000000 -0.008400
vn -0.814900 0.579600 0.006400
vn -0.789500 0.613200 0.024500
vn -0.910700 0.412900 0.006000
vn -0.760600 -0.104600 -0.640700
vn -0.954300 -0.298200 0.020700
vn -0.990200 -0.139500 0.007700
vn -0.819900 -0.549500 -0.160900
vn -0.970100 -0.235400 -0.058600
vn -1.000000 0.002600 0.000400
vn -0.922100 0.386600 0.017100
vn -0.928100 0.372400 0.003400
vn -1.000000 -0.000400 -0.001100
vn -0.999400 0.034600 -0.001000
vn -0.930700 0.365800 0.001500
vn -0.998100 0.061400 0.000300
vn -0.931900 0.357300 0.063000
vn -0.995000 0.095200 0.031200
vn -0.771900 0.635800 0.002700
vn 0.021700 -0.988800 -0.147700
vn 0.020400 -0.988800 -0.147700
vn 0.059000 -0.987300 -0.147300
vn -0.797000 -0.552200 0.244600
vn -0.519100 -0.590400 0.618000
vn -0.021000 -0.387000 0.921800
vn -0.021400 -0.789300 0.613600
vn -0.958700 -0.280800 0.046000
vn -0.000200 -0.876300 -0.481700
vn -0.000200 -0.874700 -0.484700
vn -0.000100 -0.489700 -0.871900
vn -0.000200 -0.559200 -0.829000
vn -0.020500 -0.627600 0.778200
vn -0.473100 0.680000 -0.560100
vn -0.013100 0.472300 -0.881300
vn -0.027500 -0.039500 -0.998800
vn -0.020600 -0.039000 -0.999000
vn -0.240600 0.642000 -0.728000
vn -0.240200 -0.643700 -0.726600
vn -0.545400 -0.403100 -0.734800
vn -0.558400 0.349600 -0.752300
vn -0.100800 0.850000 -0.517000
vn -0.036000 0.312600 -0.949200
vn -0.068300 0.536000 -0.841500
vn 0.039600 0.998000 0.050200
vn 0.038300 0.997900 0.052200
vn 0.033900 0.999400 0.002200
vn 0.007100 0.998400 0.056800
vn 0.008600 0.997200 0.074300
vn -0.011200 0.150400 -0.988600
vn -0.020400 0.294000 -0.955600
vn 0.002400 -0.586500 0.809900
vn 0.002200 -0.566700 0.823900
vn 0.002000 -0.886700 0.462300
vn 0.002000 -0.888000 0.459800
vn 0.057200 -0.055600 0.996800
vn 0.028600 -0.055700 0.998000
vn 0.028700 -0.055700 0.998000
vn -0.571100 -0.538600 0.619500
vn -0.021600 0.633300 0.773600
vn -0.634800 0.488000 0.599100
vn -0.005900 0.976700 0.214400
vn -0.810500 -0.575800 0.107500
vn -0.999300 0.037100 0.002400
vn -0.994900 0.098000 0.025100
vn -0.053100 0.843200 0.535000
vn -0.999300 0.036100 0.000800
vn 1.000000 -0.001900 0.000000
vn 1.000000 -0.001300 0.000400
vn 1.000000 -0.000800 0.000700
vn 1.000000 -0.001100 -0.001000
vn 1.000000 -0.001200 -0.000800
vn 1.000000 -0.000400 -0.001700
vn 1.000000 -0.000300 0.001000
vn -0.000100 1.000000 -0.000300
vn 0.000100 1.000000 -0.000100
vn 0.000100 -0.206800 -0.978400
vn 0.000200 -0.340100 0.940400
vn -0.004600 -0.929200 0.369600
vn -0.014900 -0.921500 0.388200
vn -0.010100 -0.925200 0.379500
vn -0.055900 0.566100 0.822500
vn -0.128000 0.988900 0.075700
vn -0.113100 0.989200 0.092900
vn -0.190600 0.781500 0.594100
vn -0.425800 0.763000 0.486300
vn -0.007100 -0.971800 -0.235500
vn 0.000400 -0.999900 -0.013300
vn 0.000900 -0.999700 -0.024900
vn -0.017300 -0.969200 -0.245500
vn -0.006500 -0.971400 -0.237500
vn 0.993000 0.118000 0.000000
vn -0.996800 -0.079600 0.000000
vn -0.055400 0.045600 0.997400
vn -0.178200 -0.984000 0.000000
vn -0.324100 0.946000 0.000000
o jdm_pickup
usemtl jdm_pickup
f 1/1/1 2/2/2 3/3/3 4/4/1
f 5/5/4 6/6/5 7/7/6 8/8/7
f 9/9/8 10/10/9 2/11/10 1/12/11
f 11/13/12 5/14/12 12/15/13 13/16/14
f 14/17/15 15/18/16 16/19/17 17/20/18
f 18/21/19 19/22/20 20/23/21 21/24/22
f 22/25/23 23/26/24 15/27/16 14/28/15
f 24/29/25 25/30/26 3/31/27 26/32/25
f 27/33/28 28/34/29 29/35/30 30/36/30
f 31/37/31 24/38/32 26/39/32 32/40/33
f 33/41/34 34/42/35 35/43/36
f 36/44/37 37/45/38 23/46/24 22/47/23
f 38/48/39 39/49/40 40/50/41 41/51/42
f 39/52/40 42/53/43 40/54/41
f 42/53/43 43/55/44 44/56/45 40/54/41
f 11/57/46 45/58/47 5/5/4
f 40/54/41 44/56/45 46/59/48 31/60/31
f 41/51/42 40/50/41 31/61/31 32/62/33
f 6/6/5 41/63/42 32/64/33 7/7/6
f 12/65/49 5/66/50 47/67/50 48/68/51
f 49/69/52 50/70/53 51/71/54 52/72/55
f 49/73/52 53/74/56 45/58/47 11/57/46
f 42/75/57 37/76/58 54/77/59 55/78/60
f 23/46/24 37/45/38 42/53/43 39/52/40
f 15/27/16 23/26/24 39/49/40 38/48/39
f 56/79/61 50/80/53 57/81/62 58/82/63
f 59/83/64 18/21/19 21/24/22 60/84/65
f 19/22/20 33/85/34 61/86/66 20/23/21
f 62/87/67 61/86/66 63/88/68 64/89/67
f 63/88/68 61/86/66 33/85/34
f 65/90/69 66/91/70 67/92/71 68/93/72
f 61/94/73 62/95/74 67/96/71 66/97/70
f 20/98/75 61/99/73 66/100/70 65/101/69
f 69/102/76 20/103/75 65/104/69 68/105/72
f 31/106/77 70/107/78 24/108/79
f 71/109/80 72/110/81 46/111/81 59/112/82
f 71/109/80 59/112/82 60/113/83 73/114/84
f 74/115/85 75/116/86 25/117/87 76/118/88
f 74/115/85 76/118/88 77/119/89 78/120/89
f 34/121/90 79/122/91 80/123/92 81/124/93
f 71/125/94 73/126/95 82/127/96 83/128/94
f 55/129/97 54/130/97 84/131/97 85/132/97
f 86/133/98 87/134/99 88/135/100 57/136/62
f 49/137/52 11/138/46 87/139/99 86/140/98
f 11/141/46 13/142/101 88/143/100 87/144/99
f 89/145/102 53/74/56 49/73/52 52/146/55
f 6/6/5 90/147/103 91/148/104 41/63/42
f 92/149/105 93/150/106 10/10/9 9/9/8
f 91/148/104 16/19/17 15/18/16 38/151/39
f 46/59/48 44/56/45 18/152/19 59/153/64
f 79/154/107 34/42/35 33/41/34 19/155/20
f 84/131/97 81/156/97 80/157/97 85/132/97
f 46/111/81 72/110/81 70/158/78 31/159/77
f 44/56/45 43/55/44 79/154/107 18/152/19
f 18/152/19 79/154/107 19/155/20
f 43/160/108 42/75/57 55/78/60 85/161/108
f 79/122/91 43/160/108 85/161/108 80/123/92
f 94/162/109 95/163/110 96/164/110 97/165/109
f 98/166/111 94/162/109 97/165/109 99/167/111
f 100/168/112 101/169/113 102/170/113 103/171/112
f 101/169/113 98/166/111 99/167/111 102/170/113
f 72/172/114 71/173/115 102/174/116 99/175/114
f 70/176/117 72/172/114 99/175/114 97/177/118
f 96/178/119 104/179/119 70/176/117 97/177/118
f 103/180/120 102/174/116 71/173/115 83/181/120
f 96/182/121 95/183/122 77/184/121 104/185/121
f 103/186/123 83/187/123 82/188/123 100/189/124
f 98/190/125 105/191/125 95/192/125 94/193/125
f 105/191/125 98/190/125 101/194/125 100/195/125
f 81/156/97 84/131/97 106/196/97 107/197/97
f 36/198/126 108/199/126 54/77/59 37/76/58
f 108/200/97 106/196/97 84/131/97 54/130/97
f 34/121/90 81/124/93 107/201/127 35/202/127
f 45/203/128 53/204/129 109/205/130 110/206/131
f 91/207/132 90/208/133 111/209/134 112/210/135
f 53/204/129 89/211/136 113/212/136 109/205/130
f 16/213/137 91/207/132 112/210/135 114/214/138
f 17/215/139 16/213/137 114/214/138 115/216/139
f 90/208/133 45/203/128 110/206/131 111/209/134
f 51/217/140 113/218/141 89/219/142 52/220/142
f 88/143/100 13/142/101 116/221/143 117/222/144
f 13/16/14 12/15/13 118/223/145 116/224/145
f 57/136/62 88/135/100 117/225/144 58/226/63
f 57/81/62 50/80/53 49/227/52 86/228/98
f 51/71/54 50/70/53 56/229/61 119/230/146
f 120/231/147 121/232/147 122/233/147 115/234/147
f 51/217/140 119/235/148 123/236/148 113/218/141
f 113/218/149 123/236/149 121/232/149 120/231/149
f 113/237/97 120/238/97 124/239/97 109/240/97
f 115/241/97 114/242/97 124/239/97 120/238/97
f 111/243/97 124/239/97 114/242/97 112/244/97
f 111/243/97 110/245/97 109/240/97 124/239/97
f 92/246/105 125/247/150 48/248/151 93/249/106
f 2/11/10 10/10/9 7/250/152 32/251/153
f 3/3/3 2/2/2 32/252/154 26/253/154
f 10/10/9 93/150/106 8/254/7 7/250/152
f 93/249/106 48/248/151 47/255/155 8/256/7
f 118/257/156 12/65/49 48/68/51 125/258/156
f 5/5/4 8/8/7 47/259/155
f 108/260/157 126/261/157 127/262/157 106/263/157
f 107/264/158 106/263/159 127/262/159 128/265/160
f 22/266/161 28/267/29 108/260/162 36/268/162
f 29/35/30 28/34/29 22/269/161 14/270/30
f 126/261/163 108/260/163 28/267/163 27/271/163
f 30/272/30 29/273/30 115/234/164 122/233/164
f 17/274/164 115/234/164 29/273/30 14/275/30
f 35/276/165 107/264/158 63/277/166 33/278/165
f 63/277/166 107/264/158 128/265/160 64/279/167
f 105/280/168 100/189/124 129/281/169 130/282/168
f 95/183/122 105/280/168 130/282/168 78/283/169
f 3/31/27 25/30/26 75/284/170 4/285/170
f 41/63/42 91/148/104 38/151/39
f 5/5/4 45/58/47 90/147/103 6/6/5
f 76/118/88 25/117/87 24/108/79 70/107/78
f 77/119/89 76/118/88 70/107/78 104/286/89
f 77/184/121 95/183/122 78/283/169
f 21/24/22 20/23/21 69/287/89 131/288/171
f 60/84/65 21/24/22 131/288/171 132/289/172
f 73/114/84 60/113/83 132/290/173 133/291/173
f 82/127/96 73/126/95 133/292/174 129/293/174
f 100/189/124 82/188/123 129/281/169
f 134/294/175 135/295/175 136/296/175 137/297/175
f 137/298/89 136/299/89 138/300/89 139/301/89
f 139/302/176 138/303/176 140/304/176 141/305/176
f 141/306/177 140/307/177 135/308/177 134/309/177
f 137/310/178 139/311/178 141/312/178 134/313/178
f 138/314/179 136/315/179 135/316/179 140/317/179
f 1/1/1 4/4/1 142/3/180 143/2/181
f 144/5/182 145/8/183 146/7/184 147/6/185
f 9/9/8 1/12/11 143/11/186 148/10/187
f 149/13/188 150/16/189 151/15/190 144/14/188
f 152/17/191 153/20/192 154/19/193 155/18/194
f 156/21/195 157/24/196 158/23/197 159/22/198
f 160/25/199 152/28/191 155/27/194 161/26/200
f 162/29/201 163/32/201 142/31/202 164/30/203
f 27/33/28 30/36/30 165/35/30 166/34/204
f 167/37/205 168/40/206 163/39/207 162/38/207
f 169/41/208 170/43/209 171/42/210
f 172/44/211 160/47/199 161/46/200 173/45/212
f 174/48/213 175/51/214 176/50/215 177/49/216
f 177/52/216 176/54/215 178/53/217
f 178/53/217 176/54/215 179/56/218 180/55/219
f 149/57/220 144/5/182 181/58/221
f 176/54/215 167/60/205 182/59/222 179/56/218
f 175/51/214 168/62/206 167/61/205 176/50/215
f 147/6/185 146/7/184 168/64/206 175/63/214
f 151/65/223 183/68/224 184/67/225 144/66/225
f 185/69/226 186/72/227 187/71/228 188/70/229
f 185/73/226 149/57/220 181/58/221 189/74/230
f 178/75/231 190/78/232 191/77/233 173/76/234
f 161/46/200 177/52/216 178/53/217 173/45/212
f 155/27/194 174/48/213 177/49/216 161/26/200
f 56/79/61 58/82/63 192/81/235 188/80/229
f 193/83/236 194/84/237 157/24/196 156/21/195
f 159/22/198 158/23/197 195/86/238 169/85/208
f 62/87/67 64/89/67 196/88/239 195/86/238
f 196/88/239 169/85/208 195/86/238
f 197/90/240 68/93/72 67/92/71 198/91/241
f 195/94/242 198/97/241 67/96/71 62/95/74
f 158/98/243 197/101/240 198/100/241 195/99/242
f 69/102/76 68/105/72 197/104/240 158/103/243
f 167/106/244 162/108/245 199/107/246
f 200/109/247 193/112/248 182/111/249 201/110/249
f 200/109/247 202/114/250 194/113/251 193/112/248
f 74/115/85 203/118/252 164/117/253 75/116/86
f 74/115/85 78/120/89 204/119/89 203/118/252
f 171/121/254 205/124/255 206/123/256 207/122/257
f 200/125/258 208/128/258 209/127/259 202/126/260
f 190/129/125 210/132/125 211/131/125 191/130/125
f 212/133/261 192/136/235 213/135/262 214/134/263
f 185/137/226 212/140/261 214/139/263 149/138/220
f 149/141/220 214/144/263 213/143/262 150/142/264
f 215/145/265 186/146/227 185/73/226 189/74/230
f 147/6/185 175/63/214 216/148/266 217/147/267
f 92/149/105 9/9/8 148/10/187 218/150/268
f 216/148/266 174/151/213 155/18/194 154/19/193
f 182/59/222 193/153/236 156/152/195 179/56/218
f 207/154/269 159/155/198 169/41/208 171/42/210
f 211/131/125 210/132/125 206/157/125 205/156/125
f 182/111/249 167/159/244 199/158/246 201/110/249
f 179/56/218 156/152/195 207/154/269 180/55/219
f 156/152/195 159/155/198 207/154/269
f 180/160/108 210/161/108 190/78/232 178/75/231
f 207/122/257 206/123/256 210/161/108 180/160/108
f 219/162/109 220/165/109 221/164/110 222/163/110
f 223/166/111 224/167/111 220/165/109 219/162/109
f 225/168/112 226/171/112 227/170/113 228/169/113
f 228/169/113 227/170/113 224/167/111 223/166/111
f 201/172/270 224/175/270 227/174/271 200/173/272
f 199/176/273 220/177/274 224/175/270 201/172/270
f 221/178/275 220/177/274 199/176/273 229/179/275
f 226/180/276 208/181/276 200/173/272 227/174/271
f 221/182/121 229/185/121 204/184/121 222/183/277
f 226/186/123 225/189/278 209/188/123 208/187/123
f 223/190/97 219/193/97 222/192/97 230/191/97
f 230/191/97 225/195/97 228/194/97 223/190/97
f 205/156/125 231/197/125 232/196/125 211/131/125
f 172/198/279 173/76/234 191/77/233 233/199/279
f 233/200/125 191/130/125 211/131/125 232/196/125
f 171/121/254 170/202/280 231/201/280 205/124/255
f 181/203/128 234/206/131 235/205/130 189/204/129
f 216/207/132 236/210/135 237/209/134 217/208/133
f 189/204/129 235/205/130 238/212/136 215/211/136
f 154/213/137 239/214/138 236/210/135 216/207/132
f 153/215/139 240/216/139 239/214/138 154/213/137
f 217/208/133 237/209/134 234/206/131 181/203/128
f 187/217/281 186/220/282 215/219/282 238/218/283
f 213/143/262 117/222/144 116/221/143 150/142/264
f 150/16/189 116/224/145 118/223/145 151/15/190
f 192/136/235 58/226/63 117/225/144 213/135/262
f 192/81/235 212/228/261 185/227/226 188/80/229
f 187/71/228 119/230/146 56/229/61 188/70/229
f 241/231/147 240/234/147 122/233/147 121/232/147
f 187/217/281 238/218/283 123/236/148 119/235/148
f 238/218/149 241/231/149 121/232/149 123/236/149
f 238/237/125 235/240/125 242/239/125 241/238/125
f 240/241/125 241/238/125 242/239/125 239/242/125
f 237/243/125 236/244/125 239/242/125 242/239/125
f 237/243/125 242/239/125 235/240/125 234/245/125
f 92/246/105 218/249/268 183/248/284 125/247/150
f 143/11/186 168/251/285 146/250/286 148/10/187
f 142/3/180 163/253/287 168/252/287 143/2/181
f 148/10/187 146/250/286 145/254/183 218/150/268
f 218/249/268 145/256/183 184/255/288 183/248/284
f 118/257/156 125/258/156 183/68/224 151/65/223
f 144/5/182 184/259/288 145/8/183
f 233/260/157 232/263/157 127/262/157 126/261/157
f 231/264/289 128/265/160 127/262/159 232/263/159
f 160/266/290 172/268/291 233/260/291 166/267/204
f 165/35/30 152/270/30 160/269/290 166/34/204
f 126/261/163 27/271/163 166/267/163 233/260/163
f 30/272/30 122/233/164 240/234/164 165/273/30
f 153/274/164 152/275/30 165/273/30 240/234/164
f 170/276/292 169/278/292 196/277/293 231/264/289
f 196/277/293 64/279/167 128/265/160 231/264/289
f 230/280/168 130/282/168 129/281/169 225/189/278
f 222/183/277 78/283/169 130/282/168 230/280/168
f 142/31/202 4/285/170 75/284/170 164/30/203
f 175/63/214 174/151/213 216/148/266
f 144/5/182 147/6/185 217/147/267 181/58/221
f 203/118/252 199/107/246 162/108/245 164/117/253
f 204/119/89 229/286/89 199/107/246 203/118/252
f 204/184/121 78/283/169 222/183/277
f 157/24/196 131/288/171 69/287/89 158/23/197
f 194/84/237 132/289/172 131/288/171 157/24/196
f 202/114/250 133/291/173 132/290/173 194/113/251
f 209/127/259 129/293/174 133/292/174 202/126/260
f 225/189/278 129/281/169 209/188/123
f 243/294/294 244/297/294 245/296/294 246/295/294
f 244/298/89 247/301/89 248/300/89 245/299/89
f 247/302/295 249/305/295 250/304/295 248/303/295
f 249/306/296 243/309/296 246/308/296 250/307/296
f 244/310/297 243/313/297 249/312/297 247/311/297
f 248/314/298 250/317/298 246/316/298 245/315/298
