# PSX Racing car model — generated by tools/carmodels/export_models.mjs
mtllib audi_saloon.mtl
v 0.252016 1.357739 -0.263323
v 0.000000 1.371216 -0.263323
v 0.000000 1.342602 0.378180
v 0.252016 1.335826 0.361891
v 0.688114 0.261115 1.763529
v 0.848522 0.556323 1.691122
v 0.794086 0.554177 2.198166
v 0.713989 0.261115 2.014431
v 0.360220 0.554177 2.268409
v 0.336845 0.554177 2.368427
v 0.673690 0.554177 2.292721
v 0.343838 0.736985 2.235930
v 0.335960 0.786410 2.204102
v 0.000000 0.786410 2.230574
v 0.000000 0.736985 2.260906
v 0.310851 1.158175 0.695440
v 0.000000 1.161563 0.734178
v 0.340250 0.820308 -2.327841
v 0.329189 0.953055 -2.317100
v 0.707160 0.953055 -2.286597
v 0.729284 0.820308 -2.299401
v 0.797530 0.782271 1.533351
v 0.740382 0.876982 1.565710
v 0.714881 0.786410 2.143980
v 0.730637 0.736985 2.177305
v 0.767275 0.980524 -1.637169
v 0.832826 0.830962 -1.597888
v 0.383638 0.991559 -1.721836
v 0.742726 0.261115 -0.122489
v 0.841312 0.562623 -0.119443
v 0.841312 0.558776 1.112057
v 0.742726 0.261115 1.038762
v 0.313857 0.351258 -2.351308
v 0.358323 0.570411 -2.405322
v 0.765429 0.570411 -2.380731
v 0.676497 0.351258 -2.331922
v 0.832826 0.830962 -0.164790
v 0.755789 0.980524 -0.186598
v 0.742644 0.962849 0.899384
v 0.832826 0.830962 1.088358
v 0.697494 0.291162 -2.215375
v 0.775286 0.570411 -2.326024
v 0.841312 0.567839 -1.516212
v 0.742726 0.261115 -1.637169
v 0.569240 0.261115 2.158245
v 0.636480 1.162393 -0.224961
v 0.504031 1.344262 -0.263323
v 0.504031 1.329051 0.326767
v 0.621701 1.154787 0.624123
v 0.345390 0.928753 1.300108
v 0.348819 0.962849 1.018348
v 0.000000 0.962849 1.068081
v 0.000000 0.928753 1.356621
v 0.328260 1.168179 -1.380261
v 0.000000 1.174255 -1.397462
v 0.000000 1.345914 -1.052927
v 0.252016 1.344798 -1.038687
v 0.000000 0.554177 2.395753
v 0.000000 0.261115 2.237679
v 0.284620 0.261115 2.222152
v 0.000000 0.261115 2.077247
v 0.320172 0.261115 2.070029
v 0.363251 0.570411 -2.350175
v 0.000000 0.570411 -2.404461
v 0.000000 0.570411 -2.348874
v 0.000000 0.291162 -2.226819
v 0.000000 0.351258 -2.345242
v 0.324355 0.291162 -2.233823
v 0.651959 1.163437 -1.056581
v 0.504031 1.351465 -0.829505
v 0.504031 1.349019 -0.617549
v 0.647398 1.164771 -0.792215
v 0.832826 0.830962 -1.293269
v 0.758154 0.980524 -1.302025
v 0.749033 0.980524 -0.966880
v 0.832826 0.830962 -0.987140
v 0.252016 1.357031 -0.829505
v 0.000000 1.362597 -0.829505
v 0.000000 1.369051 -0.616666
v 0.252016 1.359035 -0.617108
v 0.742726 0.261115 -0.936156
v 0.841312 0.565465 -0.998134
v 0.341960 0.876982 1.620095
v 0.000000 0.876982 1.674480
v 0.817598 0.808157 1.294947
v 0.747241 0.928753 1.243594
v 0.853640 0.687560 -1.007399
v 0.853640 0.687560 -0.142981
v 0.853640 0.668471 1.255239
v 0.751408 0.687560 -2.312205
v 0.853640 0.687560 -1.558608
v 0.859008 0.687560 1.501009
v 0.746394 0.687560 2.201890
v 0.351312 0.687560 -2.338582
v 0.351717 0.687560 2.259020
v 0.000000 0.687560 2.282498
v 0.000000 0.554177 2.290272
v 0.656520 1.162103 -1.298555
v 0.504031 1.343682 -0.993293
v 0.852296 0.687345 -1.285140
v 0.857413 0.649594 -1.283003
v 0.435530 0.261115 -0.936156
v 0.435530 0.565465 -0.998134
v 0.435530 0.558776 1.112057
v 0.435530 0.261115 1.038762
v 0.435530 0.556323 1.691393
v 0.435530 0.687560 1.500991
v 0.435530 0.567839 -1.516212
v 0.435530 0.261115 -1.637169
v 0.435530 0.649594 -1.283003
v 0.867527 0.687560 1.346553
v 0.435530 0.687560 1.346300
v 0.435530 0.668471 1.255239
v 0.435530 0.261115 1.763529
v 0.000000 0.261115 1.038762
v 0.000000 0.261115 -0.936156
v 0.000000 0.261115 -1.637169
v 0.435530 0.261115 0.051303
v 0.000000 0.261115 0.051303
v 0.000000 1.002595 -1.741996
v 0.000000 0.687560 -2.339507
v 0.000000 0.820308 -2.330829
v 0.000000 0.953055 -2.322151
v 0.754125 0.906362 0.669887
v 0.754125 1.043749 0.669887
v 0.754125 1.043749 0.617220
v 0.754125 0.906362 0.617220
v 0.954125 1.043749 0.617220
v 0.954125 0.906362 0.617220
v 0.954125 1.043749 0.669887
v 0.954125 0.906362 0.669887
v -0.252016 1.357739 -0.263323
v -0.252016 1.335826 0.361891
v -0.688114 0.261115 1.763529
v -0.713989 0.261115 2.014431
v -0.794086 0.554177 2.198166
v -0.848522 0.556323 1.691122
v -0.360220 0.554177 2.268409
v -0.673690 0.554177 2.292721
v -0.336845 0.554177 2.368427
v -0.343838 0.736985 2.235930
v -0.335960 0.786410 2.204102
v -0.310851 1.158175 0.695440
v -0.340250 0.820308 -2.327841
v -0.729284 0.820308 -2.299401
v -0.707160 0.953055 -2.286597
v -0.329189 0.953055 -2.317100
v -0.797530 0.782271 1.533351
v -0.730637 0.736985 2.177305
v -0.714881 0.786410 2.143980
v -0.740382 0.876982 1.565710
v -0.832826 0.830962 -1.597888
v -0.767275 0.980524 -1.637169
v -0.383638 0.991559 -1.721836
v -0.742726 0.261115 -0.122489
v -0.742726 0.261115 1.038762
v -0.841312 0.558776 1.112057
v -0.841312 0.562623 -0.119443
v -0.313857 0.351258 -2.351308
v -0.676497 0.351258 -2.331922
v -0.765429 0.570411 -2.380731
v -0.358323 0.570411 -2.405322
v -0.832826 0.830962 -0.164790
v -0.832826 0.830962 1.088358
v -0.742644 0.962849 0.899384
v -0.755789 0.980524 -0.186598
v -0.697494 0.291162 -2.215375
v -0.742726 0.261115 -1.637169
v -0.841312 0.567839 -1.516212
v -0.775286 0.570411 -2.326024
v -0.569240 0.261115 2.158245
v -0.636480 1.162393 -0.224961
v -0.621701 1.154787 0.624123
v -0.504031 1.329051 0.326767
v -0.504031 1.344262 -0.263323
v -0.345390 0.928753 1.300108
v -0.348819 0.962849 1.018348
v -0.328260 1.168179 -1.380261
v -0.252016 1.344798 -1.038687
v -0.284620 0.261115 2.222152
v -0.320172 0.261115 2.070029
v -0.363251 0.570411 -2.350175
v -0.324355 0.291162 -2.233823
v -0.651959 1.163437 -1.056581
v -0.647398 1.164771 -0.792215
v -0.504031 1.349019 -0.617549
v -0.504031 1.351465 -0.829505
v -0.832826 0.830962 -1.293269
v -0.832826 0.830962 -0.987140
v -0.749033 0.980524 -0.966880
v -0.758154 0.980524 -1.302025
v -0.252016 1.357031 -0.829505
v -0.252016 1.359035 -0.617108
v -0.742726 0.261115 -0.936156
v -0.841312 0.565465 -0.998134
v -0.341960 0.876982 1.620095
v -0.817598 0.808157 1.294947
v -0.747241 0.928753 1.243594
v -0.853640 0.687560 -0.142981
v -0.853640 0.687560 -1.007399
v -0.853640 0.668471 1.255239
v -0.853640 0.687560 -1.558608
v -0.751408 0.687560 -2.312205
v -0.746394 0.687560 2.201890
v -0.859008 0.687560 1.501009
v -0.351312 0.687560 -2.338582
v -0.351717 0.687560 2.259020
v -0.656520 1.162103 -1.298555
v -0.504031 1.343682 -0.993293
v -0.857413 0.649594 -1.283003
v -0.852296 0.687345 -1.285140
v -0.435530 0.565465 -0.998134
v -0.435530 0.261115 -0.936156
v -0.435530 0.261115 1.038762
v -0.435530 0.558776 1.112057
v -0.435530 0.687560 1.500991
v -0.435530 0.556323 1.691393
v -0.435530 0.261115 -1.637169
v -0.435530 0.567839 -1.516212
v -0.435530 0.649594 -1.283003
v -0.435530 0.668471 1.255239
v -0.435530 0.687560 1.346300
v -0.867527 0.687560 1.346553
v -0.435530 0.261115 1.763529
v -0.435530 0.261115 0.051303
v -0.754125 0.906362 0.669887
v -0.754125 0.906362 0.617220
v -0.754125 1.043749 0.617220
v -0.754125 1.043749 0.669887
v -0.954125 0.906362 0.617220
v -0.954125 1.043749 0.617220
v -0.954125 0.906362 0.669887
v -0.954125 1.043749 0.669887
vt 0.452575 0.558153
vt 0.452612 0.612941
vt 0.313215 0.612726
vt 0.316766 0.557999
vt 0.091333 0.015904
vt 0.105757 0.074713
vt 0.004747 0.074286
vt 0.041349 0.015904
vt 0.689327 0.578215
vt 0.668344 0.570673
vt 0.676244 0.645204
vt 0.693623 0.673531
vt 0.879236 0.637047
vt 0.878363 0.649878
vt 0.805193 0.651027
vt 0.804478 0.638455
vt 0.101711 0.374362
vt 0.099372 0.457342
vt 0.044703 0.461811
vt 0.033729 0.375794
vt 0.848741 0.434081
vt 0.845507 0.475104
vt 0.962263 0.475425
vt 0.968853 0.434326
vt 0.148548 0.125253
vt 0.141386 0.149498
vt 0.013666 0.135064
vt 0.006125 0.123841
vt 0.981371 0.129659
vt 0.978738 0.158721
vt 0.837893 0.163006
vt 0.828825 0.128034
vt 0.613632 0.441552
vt 0.529820 0.458188
vt 0.545212 0.317433
vt 0.627181 0.312036
vt 0.508524 0.000932
vt 0.508055 0.069787
vt 0.241042 0.069786
vt 0.256713 0.001745
vt 0.905915 0.204347
vt 0.896496 0.253392
vt 0.807962 0.252510
vt 0.827081 0.203695
vt 0.518056 0.128577
vt 0.522902 0.165097
vt 0.287075 0.163729
vt 0.246636 0.129045
vt 0.965701 0.011186
vt 0.986937 0.074605
vt 0.811845 0.070827
vt 0.840821 0.002543
vt 0.964926 0.510394
vt 0.984073 0.580452
vt 0.955292 0.580452
vt 0.930322 0.510394
vt 0.531314 0.212316
vt 0.539678 0.261178
vt 0.411505 0.258539
vt 0.346907 0.212922
vt 0.205770 0.574125
vt 0.267383 0.573386
vt 0.256661 0.649120
vt 0.193588 0.649120
vt 0.373823 0.375169
vt 0.482813 0.377186
vt 0.482813 0.434181
vt 0.399138 0.433810
vt 0.794242 0.580452
vt 0.794242 0.510394
vt 0.862282 0.510394
vt 0.874767 0.580452
vt 0.950368 0.982065
vt 0.957322 0.981908
vt 0.956549 0.985212
vt 0.950368 0.985549
vt 0.724870 0.580412
vt 0.736804 0.578990
vt 0.734326 0.501242
vt 0.722264 0.501598
vt 0.950371 0.888577
vt 0.950368 0.885692
vt 0.957186 0.885568
vt 0.957412 0.888433
vt 0.991774 0.023000
vt 0.998919 0.074561
vt 0.712037 0.210329
vt 0.662714 0.262347
vt 0.616653 0.261953
vt 0.654580 0.211201
vt 0.763234 0.127987
vt 0.765228 0.164285
vt 0.692428 0.165379
vt 0.696753 0.128108
vt 0.575495 0.558062
vt 0.575543 0.612784
vt 0.529319 0.612866
vt 0.529381 0.558113
vt 0.685337 0.000441
vt 0.705763 0.069911
vt 0.007104 0.576006
vt 0.135400 0.574804
vt 0.123676 0.649052
vt 0.001365 0.648939
vt 0.201491 0.125603
vt 0.212464 0.156426
vt 0.141386 0.146996
vt 0.148548 0.122751
vt 0.705763 0.079915
vt 0.701098 0.106604
vt 0.513233 0.107024
vt 0.508055 0.079792
vt 0.210085 0.103813
vt 0.241042 0.079791
vt 0.984219 0.078886
vt 0.984379 0.099498
vt 0.820755 0.098923
vt 0.811589 0.078311
vt 0.112052 0.078677
vt 0.155742 0.097980
vt 0.000455 0.110092
vt 0.000366 0.079000
vt 0.855476 0.356783
vt 0.851975 0.393052
vt 0.975449 0.393234
vt 0.982563 0.356865
vt 0.881757 0.596150
vt 0.880322 0.625161
vt 0.803919 0.626745
vt 0.803240 0.597600
vt 0.620983 0.557966
vt 0.624178 0.612669
vt 0.764618 0.209440
vt 0.698322 0.261014
vt 0.761498 0.104945
vt 0.761006 0.096669
vt 0.984735 0.903900
vt 0.982594 0.910812
vt 0.975923 0.910812
vt 0.975923 0.903901
vt 0.973194 0.885568
vt 0.975335 0.892225
vt 0.966522 0.892225
vt 0.966523 0.885568
vt 0.975719 0.901523
vt 0.975491 0.906540
vt 0.966522 0.906544
vt 0.966522 0.901522
vt 0.982594 0.885568
vt 0.984735 0.892728
vt 0.975923 0.892728
vt 0.975923 0.885568
vt 0.985085 0.898095
vt 0.975923 0.898095
vt 0.975602 0.896143
vt 0.975904 0.898168
vt 0.966522 0.898163
vt 0.966522 0.896142
vt 0.972010 0.913142
vt 0.966525 0.913144
vt 0.210085 0.093809
vt 0.189681 0.097052
vt 0.701098 0.096599
vt 0.513233 0.097020
vt 0.984122 0.100485
vt 0.820536 0.096917
vt 0.006125 0.121339
vt 0.959827 0.975252
vt 0.965312 0.975252
vt 0.965874 0.980701
vt 0.950369 0.959512
vt 0.959827 0.959512
vt 0.965513 0.888816
vt 0.966503 0.901395
vt 0.959829 0.901399
vt 0.966522 0.913163
vt 0.973183 0.915790
vt 0.973132 0.926365
vt 0.966522 0.928387
vt 0.959829 0.916623
vt 0.950370 0.916623
vt 0.950371 0.901399
vt 0.966500 0.916623
vt 0.966499 0.934294
vt 0.959828 0.938068
vt 0.966499 0.959513
vt 0.950370 0.938067
vt 0.974959 0.920854
vt 0.975923 0.910831
vt 0.982387 0.912423
vt 0.982334 0.925004
vt 0.975923 0.926571
vt 0.971734 0.916460
vt 0.969134 0.949941
vt 0.969134 0.896430
vt 0.984769 0.915532
vt 0.985184 0.920869
vt 0.761006 0.098237
vt 0.761498 0.106513
vt 0.761498 0.096508
vt 0.355436 0.316527
vt 0.482813 0.320191
vt 0.099995 0.292057
vt 0.023497 0.292057
vt 0.188557 0.303634
vt 0.170782 0.379007
vt 0.962731 0.983824
vt 0.228059 0.312863
vt 0.264833 0.373151
vt 0.966744 0.625643
vt 0.964043 0.637853
vt 0.743791 0.393504
vt 0.743965 0.434464
vt 0.611048 0.503273
vt 0.575453 0.503338
vt 0.147134 0.488303
vt 0.217959 0.486876
vt 0.977272 0.596704
vt 0.743630 0.357324
vt 0.020066 0.493734
vt 0.529439 0.503359
vt 0.452536 0.503366
vt 0.722264 0.669975
vt 0.734072 0.667486
vt 0.315463 0.433440
vt 0.293048 0.487844
vt 0.974059 0.203695
vt 0.974282 0.252976
vt 0.697090 0.438140
vt 0.698617 0.311808
vt 0.744136 0.475425
vt 0.154647 0.456435
vt 0.961617 0.651027
vt 0.693623 0.499990
vt 0.670877 0.497352
vt 0.324396 0.503273
vt 0.965065 0.885963
vt 0.922070 0.676336
vt 0.922070 0.696694
vt 0.914266 0.696694
vt 0.914266 0.676336
vt 0.092537 0.198430
vt 0.092537 0.239145
vt 0.033267 0.239145
vt 0.033267 0.198430
vt 0.914266 0.746686
vt 0.914266 0.726329
vt 0.922070 0.726329
vt 0.922070 0.746686
vt 0.922085 0.717066
vt 0.922085 0.696709
vt 0.951720 0.696709
vt 0.951720 0.717066
vt 0.914266 0.776321
vt 0.922070 0.776321
vn 0.041400 0.998300 0.039800
vn 0.922900 -0.383700 0.033700
vn 0.000000 1.000000 0.000000
vn 0.063800 0.534900 0.842500
vn 0.060700 0.887600 0.456600
vn 0.076300 0.097500 -0.992300
vn 0.885900 0.448900 0.116900
vn 0.950900 0.283800 -0.123200
vn 0.022800 0.998200 -0.055000
vn 0.949900 -0.312500 -0.000500
vn 0.055300 -0.244000 -0.968200
vn 0.856800 0.515600 0.008700
vn 0.954600 -0.285900 -0.083200
vn 0.569700 -0.523400 0.633700
vn 0.810300 0.585700 0.017600
vn 0.018200 0.992800 0.118800
vn 0.035400 0.892700 -0.449200
vn 0.060900 -0.464200 0.883600
vn 0.000000 -1.000000 0.000000
vn -0.009300 -0.891200 -0.453600
vn 0.874500 -0.386300 -0.293100
vn 0.792200 0.610200 0.009000
vn 0.883800 0.467700 0.012600
vn 0.030900 0.999300 -0.019900
vn 0.801200 0.598300 0.014100
vn 0.880800 0.473500 -0.003700
vn 0.950900 -0.309500 -0.000500
vn 0.046600 0.998900 -0.001200
vn 0.018700 0.987400 0.157000
vn 0.850700 0.513600 0.112000
vn 0.995100 -0.099300 -0.000200
vn 0.994600 -0.104000 -0.000900
vn 0.993600 0.035600 -0.106900
vn 0.964000 0.229700 0.133700
vn 0.061700 0.116900 -0.991200
vn 0.063400 0.066100 0.995800
vn 0.807100 0.585600 0.076100
vn 0.025900 0.986700 0.160300
vn 0.015100 0.997700 -0.066700
vn 0.904600 0.426100 0.012900
vn 0.772000 0.635600 -0.005600
vn 0.998500 -0.051600 -0.020800
vn 0.872600 0.488000 0.019600
vn 0.000000 -0.199500 -0.979900
vn 0.000000 -0.239100 0.971000
vn -0.000200 -0.823200 -0.567800
vn 0.000000 -0.366900 0.930300
vn 0.000000 -0.959100 -0.283200
vn -0.000100 -0.978800 0.204900
vn -0.000400 -0.237700 -0.971300
vn 0.000000 -0.943700 0.330800
vn 0.000000 -0.793800 0.608200
vn 0.856800 0.515700 0.003600
vn 0.968800 0.247800 0.007500
vn 0.880700 0.464200 0.094700
vn 0.989600 0.143600 0.000000
vn 0.879300 0.476000 0.019000
vn 0.990800 0.135400 0.001000
vn 0.980400 0.139000 -0.139700
vn 0.876600 0.462600 0.132600
vn 0.069000 0.096700 -0.992900
vn 0.063200 0.415300 0.907500
vn 0.001400 -0.998700 -0.051300
vn 1.000000 0.000000 0.000000
vn 0.000000 -0.998700 -0.050900
vn 0.998900 -0.043700 0.019700
vn 0.990300 0.139100 -0.002300
vn 0.990200 0.139400 0.002400
vn 0.045000 0.892300 -0.449300
vn 0.833700 0.551900 0.019200
vn 0.072800 0.857100 0.510000
vn 0.142100 0.847700 0.511100
vn -0.001100 -0.998700 -0.050100
vn 0.123900 0.890100 -0.438500
vn 0.130400 0.455800 0.880500
vn 0.005600 0.073200 -0.997300
vn 0.018100 0.998400 -0.053600
vn 0.022100 0.986900 0.159500
vn 0.151700 0.052900 0.987000
vn -0.000500 0.089100 -0.996000
vn 0.022800 0.987700 0.154600
vn 0.046600 0.998900 0.008500
vn 0.030900 0.999500 0.001000
vn 0.109900 0.885500 -0.451500
vn 0.023900 0.993800 0.108200
vn -0.010000 -0.249200 -0.968400
vn 0.018100 0.997000 -0.075500
vn 0.012000 0.073400 -0.997200
vn 0.103300 0.880700 0.462300
vn 0.126300 0.566800 0.814100
vn 0.042300 0.998600 0.030500
vn 0.194000 -0.465500 0.863500
vn 0.023600 -0.888000 -0.459200
vn -1.000000 0.000000 0.000000
vn 0.000000 0.000000 -1.000000
vn 0.000000 0.000000 1.000000
vn -0.041400 0.998300 0.039800
vn -0.922900 -0.383700 0.033700
vn -0.063800 0.534900 0.842500
vn -0.060700 0.887600 0.456600
vn -0.076300 0.097500 -0.992300
vn -0.885900 0.448900 0.116900
vn -0.950900 0.283800 -0.123200
vn -0.022800 0.998200 -0.055000
vn -0.949900 -0.312500 -0.000500
vn -0.055300 -0.244000 -0.968200
vn -0.856800 0.515600 0.008700
vn -0.954600 -0.285900 -0.083200
vn -0.569700 -0.523400 0.633700
vn -0.810300 0.585700 0.017600
vn -0.018200 0.992800 0.118800
vn -0.035400 0.892700 -0.449200
vn -0.060900 -0.464200 0.883600
vn 0.009300 -0.891200 -0.453600
vn -0.874500 -0.386300 -0.293100
vn -0.792200 0.610200 0.009000
vn -0.883800 0.467700 0.012600
vn -0.030900 0.999300 -0.019900
vn -0.801200 0.598300 0.014100
vn -0.880800 0.473500 -0.003700
vn -0.950900 -0.309500 -0.000500
vn -0.046600 0.998900 -0.001200
vn -0.018700 0.987400 0.157000
vn -0.850700 0.513600 0.112000
vn -0.995100 -0.099300 -0.000200
vn -0.994600 -0.104000 -0.000900
vn -0.993600 0.035600 -0.106900
vn -0.964000 0.229700 0.133700
vn -0.061700 0.116900 -0.991200
vn -0.063400 0.066100 0.995800
vn -0.807100 0.585600 0.076100
vn -0.025900 0.986700 0.160300
vn -0.015100 0.997700 -0.066700
vn -0.904600 0.426100 0.012900
vn -0.772000 0.635600 -0.005600
vn -0.998500 -0.051600 -0.020800
vn -0.872600 0.488000 0.019600
vn 0.000200 -0.823200 -0.567800
vn 0.000100 -0.978800 0.204900
vn 0.000400 -0.237700 -0.971300
vn -0.856800 0.515700 0.003600
vn -0.968800 0.247800 0.007500
vn -0.880700 0.464200 0.094700
vn -0.989600 0.143600 0.000000
vn -0.879300 0.476000 0.019000
vn -0.990800 0.135400 0.001000
vn -0.980400 0.139000 -0.139700
vn -0.876600 0.462600 0.132600
vn -0.069000 0.096700 -0.992900
vn -0.063200 0.415300 0.907500
vn -0.001400 -0.998700 -0.051300
vn -0.998900 -0.043700 0.019700
vn -0.990300 0.139100 -0.002300
vn -0.990200 0.139400 0.002400
vn -0.045000 0.892300 -0.449300
vn -0.833700 0.551900 0.019200
vn -0.072800 0.857100 0.510000
vn -0.142100 0.847700 0.511100
vn 0.001100 -0.998700 -0.050100
vn -0.123900 0.890100 -0.438500
vn -0.130400 0.455800 0.880500
vn -0.005600 0.073200 -0.997300
vn -0.018100 0.998400 -0.053600
vn -0.022100 0.986900 0.159500
vn -0.151700 0.052900 0.987000
vn 0.000500 0.089100 -0.996000
vn -0.022800 0.987700 0.154600
vn -0.046600 0.998900 0.008500
vn -0.030900 0.999500 0.001000
vn -0.109900 0.885500 -0.451500
vn -0.023900 0.993800 0.108200
vn 0.010000 -0.249200 -0.968400
vn -0.018100 0.997000 -0.075500
vn -0.012000 0.073400 -0.997200
vn -0.103300 0.880700 0.462300
vn -0.126300 0.566800 0.814100
vn -0.042300 0.998600 0.030500
vn -0.194000 -0.465500 0.863500
vn -0.023600 -0.888000 -0.459200
o audi_saloon
usemtl audi_saloon
f 1/1/1 2/2/1 3/3/1 4/4/1
f 5/5/2 6/6/2 7/7/2 8/8/2
f 9/9/3 10/10/3 11/11/3 7/12/3
f 12/13/4 13/14/4 14/15/4 15/16/4
f 16/17/5 4/18/5 3/19/5 17/20/5
f 18/21/6 19/22/6 20/23/6 21/24/6
f 22/25/7 23/26/7 24/27/7 25/28/7
f 21/29/8 20/30/8 26/31/8 27/32/8
f 28/33/9 26/34/9 20/35/9 19/36/9
f 29/37/10 30/38/10 31/39/10 32/40/10
f 33/41/11 34/42/11 35/43/11 36/44/11
f 37/45/12 38/46/12 39/47/12 40/48/12
f 41/49/13 42/50/13 43/51/13 44/52/13
f 8/53/14 7/54/14 11/55/14 45/56/14
f 46/57/15 47/58/15 48/59/15 49/60/15
f 50/61/16 51/62/16 52/63/16 53/64/16
f 54/65/17 55/66/17 56/67/17 57/68/17
f 58/69/18 59/70/18 60/71/18 10/72/18
f 61/73/19 62/74/19 60/75/19 59/76/19
f 63/77/3 34/78/3 64/79/3 65/80/3
f 66/81/20 67/82/20 33/83/20 68/84/20
f 41/49/21 36/85/21 35/86/21 42/50/21
f 69/87/22 70/88/22 71/89/22 72/90/22
f 73/91/23 74/92/23 75/93/23 76/94/23
f 77/95/24 78/96/24 79/97/24 80/98/24
f 72/90/25 71/89/25 47/58/25 46/57/25
f 76/94/26 75/93/26 38/46/26 37/45/26
f 81/99/27 82/100/27 30/38/27 29/37/27
f 80/98/28 79/97/28 2/2/28 1/1/28
f 13/101/29 83/102/29 84/103/29 14/104/29
f 85/105/30 86/106/30 23/107/30 22/108/30
f 82/109/31 87/110/31 88/111/31 30/112/31
f 30/112/32 88/111/32 89/113/32 31/114/32
f 42/115/33 90/116/33 91/117/33 43/118/33
f 6/119/34 92/120/34 93/121/34 7/122/34
f 63/123/35 94/124/35 90/125/35 42/126/35
f 9/127/36 95/128/36 96/129/36 97/130/36
f 40/48/37 39/47/37 86/106/37 85/105/37
f 83/102/38 50/61/38 53/64/38 84/103/38
f 57/131/39 56/132/39 78/96/39 77/95/39
f 27/32/40 26/31/40 74/92/40 73/91/40
f 98/133/41 99/134/41 70/88/41 69/87/41
f 91/117/42 100/135/42 101/136/42 43/118/42
f 26/31/43 98/133/43 69/87/43 74/92/43
f 82/137/44 81/138/44 102/139/44 103/140/44
f 32/141/45 31/142/45 104/143/45 105/144/45
f 92/145/46 6/146/46 106/147/46 107/148/46
f 44/149/47 43/150/47 108/151/47 109/152/47
f 101/153/48 82/137/48 103/140/48 110/154/48
f 89/155/49 111/156/49 112/157/49 113/158/49
f 111/156/19 92/145/19 107/148/19 112/157/19
f 6/146/50 5/159/50 114/160/50 106/147/50
f 43/150/51 101/153/51 110/154/51 108/151/51
f 31/142/52 89/155/52 113/158/52 104/143/52
f 75/93/53 72/90/53 46/57/53 38/46/53
f 89/161/54 40/48/54 85/105/54 111/162/54
f 111/162/55 85/105/55 22/108/55 92/120/55
f 87/163/56 76/94/56 37/45/56 88/164/56
f 74/92/57 69/87/57 72/90/57 75/93/57
f 88/164/58 37/45/58 40/48/58 89/161/58
f 90/165/59 21/29/59 27/32/59 91/166/59
f 92/120/60 22/108/60 25/167/60 93/121/60
f 94/124/61 18/21/61 21/24/61 90/125/61
f 95/128/62 12/13/62 15/16/62 96/129/62
f 61/73/19 114/168/19 5/169/19 8/170/19 62/74/19
f 115/171/19 105/172/19 114/168/19 61/73/19
f 41/173/63 44/174/63 109/175/63 68/84/63
f 109/176/64 108/177/64 103/178/64 102/179/64
f 109/175/19 102/180/19 116/181/19 117/182/19
f 109/175/65 117/182/65 66/81/65
f 81/183/19 29/184/19 118/185/19 102/180/19
f 29/184/19 32/186/19 105/172/19 118/185/19
f 115/171/19 119/187/19 118/185/19 105/172/19
f 116/181/19 102/180/19 118/185/19 119/187/19
f 103/178/64 108/177/64 110/188/64
f 105/189/64 104/190/64 106/191/64 114/192/64
f 112/193/64 107/194/64 113/195/64
f 104/190/64 113/196/64 107/197/64 106/191/64
f 101/198/66 100/199/66 87/110/66 82/109/66
f 87/163/67 100/200/67 73/91/67 76/94/67
f 100/200/68 91/166/68 27/32/68 73/91/68
f 28/201/69 120/202/69 55/66/69 54/65/69
f 38/46/70 46/57/70 49/60/70 39/47/70
f 51/203/71 16/17/71 17/20/71 52/204/71
f 39/205/72 49/206/72 16/17/72 51/203/72
f 109/175/73 66/81/73 68/84/73
f 60/75/19 62/74/19 8/170/19 45/207/19
f 26/208/74 28/201/74 54/65/74 98/209/74
f 93/210/75 25/211/75 12/13/75 95/128/75
f 121/212/76 122/213/76 18/21/76 94/124/76
f 99/214/77 57/131/77 77/95/77 70/215/77
f 23/216/78 86/217/78 50/61/78 83/102/78
f 7/218/79 93/210/79 95/128/79 9/127/79
f 65/219/80 121/212/80 94/124/80 63/123/80
f 24/220/81 23/216/81 83/102/81 13/101/81
f 71/221/82 80/98/82 1/1/82 47/222/82
f 70/215/83 77/95/83 80/98/83 71/221/83
f 42/223/3 35/224/3 34/78/3 63/77/3
f 98/209/84 54/65/84 57/68/84 99/225/84
f 86/217/85 39/226/85 51/62/85 50/61/85
f 67/227/86 64/228/86 34/42/86 33/41/86
f 120/229/87 28/33/87 19/36/87 123/230/87
f 122/213/88 123/231/88 19/22/88 18/21/88
f 49/206/89 48/232/89 4/18/89 16/17/89
f 25/211/90 24/233/90 13/14/90 12/13/90
f 97/234/3 58/235/3 10/10/3 9/9/3
f 47/222/91 1/1/91 4/4/91 48/236/91
f 60/71/92 45/56/92 11/55/92 10/72/92
f 33/83/93 36/237/93 41/173/93 68/84/93
f 124/238/94 125/239/94 126/240/94 127/241/94
f 127/242/95 126/243/95 128/244/95 129/245/95
f 129/246/64 128/247/64 130/248/64 131/249/64
f 131/250/96 130/251/96 125/252/96 124/253/96
f 127/254/19 129/246/19 131/249/19 124/255/19
f 128/247/3 126/240/3 125/239/3 130/248/3
f 132/1/97 133/4/97 3/3/97 2/2/97
f 134/5/98 135/8/98 136/7/98 137/6/98
f 138/9/3 136/12/3 139/11/3 140/10/3
f 141/13/99 15/16/99 14/15/99 142/14/99
f 143/17/100 17/20/100 3/19/100 133/18/100
f 144/21/101 145/24/101 146/23/101 147/22/101
f 148/25/102 149/28/102 150/27/102 151/26/102
f 145/29/103 152/32/103 153/31/103 146/30/103
f 154/33/104 147/36/104 146/35/104 153/34/104
f 155/37/105 156/40/105 157/39/105 158/38/105
f 159/41/106 160/44/106 161/43/106 162/42/106
f 163/45/107 164/48/107 165/47/107 166/46/107
f 167/49/108 168/52/108 169/51/108 170/50/108
f 135/53/109 171/56/109 139/55/109 136/54/109
f 172/57/110 173/60/110 174/59/110 175/58/110
f 176/61/111 53/64/111 52/63/111 177/62/111
f 178/65/112 179/68/112 56/67/112 55/66/112
f 58/69/113 140/72/113 180/71/113 59/70/113
f 61/73/19 59/76/19 180/75/19 181/74/19
f 182/77/3 65/80/3 64/79/3 162/78/3
f 66/81/114 183/84/114 159/83/114 67/82/114
f 167/49/115 170/50/115 161/86/115 160/85/115
f 184/87/116 185/90/116 186/89/116 187/88/116
f 188/91/117 189/94/117 190/93/117 191/92/117
f 192/95/118 193/98/118 79/97/118 78/96/118
f 185/90/119 172/57/119 175/58/119 186/89/119
f 189/94/120 163/45/120 166/46/120 190/93/120
f 194/99/121 155/37/121 158/38/121 195/100/121
f 193/98/122 132/1/122 2/2/122 79/97/122
f 142/101/123 14/104/123 84/103/123 196/102/123
f 197/105/124 148/108/124 151/107/124 198/106/124
f 195/109/125 158/112/125 199/111/125 200/110/125
f 158/112/126 157/114/126 201/113/126 199/111/126
f 170/115/127 169/118/127 202/117/127 203/116/127
f 137/119/128 136/122/128 204/121/128 205/120/128
f 182/123/129 170/126/129 203/125/129 206/124/129
f 138/127/130 97/130/130 96/129/130 207/128/130
f 164/48/131 197/105/131 198/106/131 165/47/131
f 196/102/132 84/103/132 53/64/132 176/61/132
f 179/131/133 192/95/133 78/96/133 56/132/133
f 152/32/134 188/91/134 191/92/134 153/31/134
f 208/133/135 184/87/135 187/88/135 209/134/135
f 202/117/136 169/118/136 210/136/136 211/135/136
f 153/31/137 191/92/137 184/87/137 208/133/137
f 195/137/44 212/140/44 213/139/44 194/138/44
f 156/141/45 214/144/45 215/143/45 157/142/45
f 205/145/138 216/148/138 217/147/138 137/146/138
f 168/149/47 218/152/47 219/151/47 169/150/47
f 210/153/48 220/154/48 212/140/48 195/137/48
f 201/155/139 221/158/139 222/157/139 223/156/139
f 223/156/19 222/157/19 216/148/19 205/145/19
f 137/146/140 217/147/140 224/160/140 134/159/140
f 169/150/51 219/151/51 220/154/51 210/153/51
f 157/142/52 215/143/52 221/158/52 201/155/52
f 190/93/141 166/46/141 172/57/141 185/90/141
f 201/161/142 223/162/142 197/105/142 164/48/142
f 223/162/143 205/120/143 148/108/143 197/105/143
f 200/163/144 199/164/144 163/45/144 189/94/144
f 191/92/145 190/93/145 185/90/145 184/87/145
f 199/164/146 201/161/146 164/48/146 163/45/146
f 203/165/147 202/166/147 152/32/147 145/29/147
f 205/120/148 204/121/148 149/167/148 148/108/148
f 206/124/149 203/125/149 145/24/149 144/21/149
f 207/128/150 96/129/150 15/16/150 141/13/150
f 61/73/19 181/74/19 135/170/19 134/169/19 224/168/19
f 115/171/19 61/73/19 224/168/19 214/172/19
f 167/173/151 183/84/151 218/175/151 168/174/151
f 218/176/94 213/179/94 212/178/94 219/177/94
f 218/175/19 117/182/19 116/181/19 213/180/19
f 218/175/65 66/81/65 117/182/65
f 194/183/19 213/180/19 225/185/19 155/184/19
f 155/184/19 225/185/19 214/172/19 156/186/19
f 115/171/19 214/172/19 225/185/19 119/187/19
f 116/181/19 119/187/19 225/185/19 213/180/19
f 212/178/94 220/188/94 219/177/94
f 214/189/94 224/192/94 217/191/94 215/190/94
f 222/193/94 221/195/94 216/194/94
f 215/190/94 217/191/94 216/197/94 221/196/94
f 210/198/152 195/109/152 200/110/152 211/199/152
f 200/163/153 189/94/153 188/91/153 211/200/153
f 211/200/154 188/91/154 152/32/154 202/166/154
f 154/201/155 178/65/155 55/66/155 120/202/155
f 166/46/156 165/47/156 173/60/156 172/57/156
f 177/203/157 52/204/157 17/20/157 143/17/157
f 165/205/158 177/203/158 143/17/158 173/206/158
f 218/175/159 183/84/159 66/81/159
f 180/75/19 171/207/19 135/170/19 181/74/19
f 153/208/160 208/209/160 178/65/160 154/201/160
f 204/210/161 207/128/161 141/13/161 149/211/161
f 121/212/162 206/124/162 144/21/162 122/213/162
f 209/214/163 187/215/163 192/95/163 179/131/163
f 151/216/164 196/102/164 176/61/164 198/217/164
f 136/218/165 138/127/165 207/128/165 204/210/165
f 65/219/166 182/123/166 206/124/166 121/212/166
f 150/220/167 142/101/167 196/102/167 151/216/167
f 186/221/168 175/222/168 132/1/168 193/98/168
f 187/215/169 186/221/169 193/98/169 192/95/169
f 170/223/3 182/77/3 162/78/3 161/224/3
f 208/209/170 209/225/170 179/68/170 178/65/170
f 198/217/171 176/61/171 177/62/171 165/226/171
f 67/227/172 159/41/172 162/42/172 64/228/172
f 120/229/173 123/230/173 147/36/173 154/33/173
f 122/213/174 144/21/174 147/22/174 123/231/174
f 173/206/175 143/17/175 133/18/175 174/232/175
f 149/211/176 141/13/176 142/14/176 150/233/176
f 97/234/3 138/9/3 140/10/3 58/235/3
f 175/222/177 174/236/177 133/4/177 132/1/177
f 180/71/178 140/72/178 139/55/178 171/56/178
f 159/83/179 183/84/179 167/173/179 160/237/179
f 226/238/64 227/241/64 228/240/64 229/239/64
f 227/242/95 230/245/95 231/244/95 228/243/95
f 230/246/94 232/249/94 233/248/94 231/247/94
f 232/250/96 226/253/96 229/252/96 233/251/96
f 227/254/19 226/255/19 232/249/19 230/246/19
f 231/247/3 233/248/3 229/239/3 228/240/3
