# PSX Racing car model — generated by tools/carmodels/export_models.mjs
mtllib audi_saloon_wheels_r.mtl
v -0.834394 0.322783 -1.258075
v -0.834394 0.322783 -1.599268
v -0.834394 0.081523 -1.499335
v -0.834394 -0.018410 -1.258075
v -0.638849 0.081523 -1.016814
v -0.638849 -0.018410 -1.258075
v -0.638849 0.322783 -1.258075
v -0.638849 0.322783 -0.916881
v -0.638849 0.322783 -1.599268
v -0.638849 0.081523 -1.499335
v -0.834394 0.081523 -1.016814
v -0.834394 0.322783 -0.916881
v -0.638849 0.564044 -1.016814
v -0.638849 0.663977 -1.258075
v -0.834394 0.564044 -1.016814
v -0.834394 0.663977 -1.258075
v -0.638849 0.564044 -1.499335
v -0.834394 0.564044 -1.499335
v 0.834394 0.322783 -1.258075
v 0.834394 -0.018410 -1.258075
v 0.834394 0.081523 -1.499335
v 0.834394 0.322783 -1.599268
v 0.638849 0.081523 -1.016814
v 0.638849 0.322783 -0.916881
v 0.638849 0.322783 -1.258075
v 0.638849 -0.018410 -1.258075
v 0.638849 0.322783 -1.599268
v 0.638849 0.081523 -1.499335
v 0.834394 0.322783 -0.916881
v 0.834394 0.081523 -1.016814
v 0.638849 0.564044 -1.016814
v 0.638849 0.663977 -1.258075
v 0.834394 0.663977 -1.258075
v 0.834394 0.564044 -1.016814
v 0.638849 0.564044 -1.499335
v 0.834394 0.564044 -1.499335
vt 0.125000 0.876035
vt 0.125000 1.000468
vt 0.212988 0.964023
vt 0.249433 0.876035
vt 0.212988 0.788047
vt 0.125000 0.751602
vt 0.921211 0.837958
vt 0.914961 0.837958
vt 0.914961 0.862958
vt 0.921211 0.862958
vt 0.908711 0.837958
vt 0.908711 0.862958
vt 0.037012 0.788047
vt 0.000567 0.876035
vt 0.902461 0.837958
vt 0.902461 0.862958
vt 0.896211 0.837958
vt 0.896211 0.862958
vt 0.037012 0.964023
vt 0.889961 0.837958
vt 0.889961 0.862958
vt 0.883711 0.837958
vt 0.883711 0.862958
vt 0.877461 0.837958
vt 0.877461 0.862958
vt 0.871211 0.837958
vt 0.871211 0.862958
vt 0.125000 0.876035
vt 0.249433 0.876035
vt 0.212988 0.964023
vt 0.125000 1.000468
vt 0.212988 0.788047
vt 0.125000 0.751602
vt 0.921211 0.837958
vt 0.921211 0.862958
vt 0.914961 0.862958
vt 0.914961 0.837958
vt 0.908711 0.862958
vt 0.908711 0.837958
vt 0.037012 0.788047
vt 0.000567 0.876035
vt 0.902461 0.862958
vt 0.902461 0.837958
vt 0.896211 0.862958
vt 0.896211 0.837958
vt 0.037012 0.964023
vt 0.889961 0.862958
vt 0.889961 0.837958
vt 0.883711 0.862958
vt 0.883711 0.837958
vt 0.877461 0.862958
vt 0.877461 0.837958
vt 0.871211 0.862958
vt 0.871211 0.837958
vn -1.000000 0.000000 0.000000
vn 1.000000 0.000000 0.000000
vn 0.000000 -0.382700 -0.923900
vn 0.000000 -0.923900 -0.382700
vn 0.000000 -0.923900 0.382700
vn 0.000000 -0.382700 0.923900
vn 0.000000 0.382700 0.923900
vn 0.000000 0.923900 0.382700
vn 0.000000 0.923900 -0.382700
vn 0.000000 0.382700 -0.923900
vn 1.000000 0.000000 0.000000
vn -1.000000 0.000000 0.000000
vn 0.000000 -0.382700 -0.923900
vn 0.000000 -0.923900 -0.382700
vn 0.000000 -0.923900 0.382700
vn 0.000000 -0.382700 0.923900
vn 0.000000 0.382700 0.923900
vn 0.000000 0.923900 0.382700
vn 0.000000 0.923900 -0.382700
vn 0.000000 0.382700 -0.923900
o audi_saloon_wheels_r
usemtl audi_saloon_wheels_r
f 1/1/1 2/2/1 3/3/1 4/4/1
f 5/5/2 6/4/2 7/1/2 8/6/2
f 9/7/3 10/8/3 3/9/3 2/10/3
f 10/8/4 6/11/4 4/12/4 3/9/4
f 1/1/1 4/4/1 11/5/1 12/6/1
f 13/13/2 8/6/2 7/1/2 14/14/2
f 6/11/5 5/15/5 11/16/5 4/12/5
f 5/15/6 8/17/6 12/18/6 11/16/6
f 1/1/1 12/6/1 15/13/1 16/14/1
f 17/19/2 14/14/2 7/1/2 9/2/2
f 8/17/7 13/20/7 15/21/7 12/18/7
f 13/20/8 14/22/8 16/23/8 15/21/8
f 1/1/1 16/14/1 18/19/1 2/2/1
f 14/22/9 17/24/9 18/25/9 16/23/9
f 17/24/10 9/26/10 2/27/10 18/25/10
f 10/3/2 9/2/2 7/1/2 6/4/2
f 19/28/11 20/29/11 21/30/11 22/31/11
f 23/32/12 24/33/12 25/28/12 26/29/12
f 27/34/13 22/35/13 21/36/13 28/37/13
f 28/37/14 21/36/14 20/38/14 26/39/14
f 19/28/11 29/33/11 30/32/11 20/29/11
f 31/40/12 32/41/12 25/28/12 24/33/12
f 26/39/15 20/38/15 30/42/15 23/43/15
f 23/43/16 30/42/16 29/44/16 24/45/16
f 19/28/11 33/41/11 34/40/11 29/33/11
f 35/46/12 27/31/12 25/28/12 32/41/12
f 24/45/17 29/44/17 34/47/17 31/48/17
f 31/48/18 34/47/18 33/49/18 32/50/18
f 19/28/11 22/31/11 36/46/11 33/41/11
f 32/50/19 33/49/19 36/51/19 35/52/19
f 35/52/20 36/51/20 22/53/20 27/54/20
f 28/30/12 26/29/12 25/28/12 27/31/12
