# PSX Racing car model — generated by tools/carmodels/export_models.mjs
mtllib viper_gts_wheels_r.mtl
v -0.627910 0.334819 0.890202
v -0.596117 0.428350 0.999218
v -0.596117 0.334819 0.980613
v -0.627910 0.571572 0.988268
v -0.596117 0.507642 1.052199
v -0.596117 0.560622 1.131490
v -0.627910 0.644151 1.096892
v -0.596117 0.579227 1.225021
v -0.627910 0.669638 1.225021
v -0.596117 0.560622 1.318552
v -0.627910 0.644151 1.353150
v -0.596117 0.507642 1.397843
v -0.627910 0.571572 1.461774
v -0.596117 0.428350 1.450824
v -0.627910 0.462949 1.534353
v -0.596117 0.334819 1.469429
v -0.627910 0.206690 1.534353
v -0.596117 0.241288 1.450824
v -0.627910 0.098066 1.461774
v -0.596117 0.161997 1.397843
v -0.627910 0.025487 1.353150
v -0.596117 0.109016 1.318552
v -0.596117 0.090411 1.225021
v -0.627910 0.025487 1.096892
v -0.596117 0.109016 1.131490
v -0.627910 0.098066 0.988268
v -0.596117 0.161997 1.052199
v -0.627910 0.206690 0.915689
v -0.596117 0.241288 0.999218
v -0.894176 0.334819 0.890202
v -0.627910 0.462949 0.915689
v -0.894176 0.462949 0.915689
v -0.894176 0.571572 0.988268
v -0.894176 0.644151 1.096892
v -0.894176 0.669638 1.225021
v -0.894176 0.644151 1.353150
v -0.894176 0.571572 1.461774
v -0.894176 0.462949 1.534353
v -0.627910 0.334819 1.559840
v -0.894176 0.334819 1.559840
v -0.894176 0.206690 1.534353
v -0.894176 0.098066 1.461774
v -0.894176 0.025487 1.353150
v -0.627910 0.000000 1.225021
v -0.894176 0.000000 1.225021
v -0.894176 0.025487 1.096892
v -0.894176 0.098066 0.988268
v -0.894176 0.206690 0.915689
v -0.929943 0.334819 0.914046
v -0.929943 0.453824 0.937718
v -0.929943 0.554711 1.005129
v -0.929943 0.622122 1.106016
v -0.929943 0.645794 1.225021
v -0.929943 0.554711 1.444913
v -0.929943 0.453824 1.512324
v -0.929943 0.334819 1.535995
v -0.929943 0.215814 1.512324
v -0.929943 0.047517 1.344026
v -0.929943 0.023845 1.225021
v -0.929943 0.047517 1.106016
v -0.929943 0.215814 0.937718
v -0.928949 0.420746 1.017575
v -0.928949 0.493591 1.066249
v -0.928949 0.542265 1.139095
v -0.928949 0.542265 1.310947
v -0.929943 0.622122 1.344026
v -0.928949 0.493591 1.383793
v -0.928949 0.420746 1.432467
v -0.928949 0.334819 1.449558
v -0.928949 0.248893 1.432467
v -0.929943 0.114927 1.444913
v -0.928949 0.127373 1.310947
v -0.928949 0.127373 1.139095
v -0.928949 0.176047 1.066249
v -0.929943 0.114927 1.005129
v -0.928949 0.248893 1.017575
v -0.920008 0.334819 1.022341
v -0.928949 0.420746 1.017575
v -0.928949 0.334819 1.000483
v -0.920008 0.412381 1.037770
v -0.928949 0.493591 1.066249
v -0.920008 0.522071 1.147459
v -0.928949 0.542265 1.139095
v -0.928949 0.559357 1.225021
v -0.920008 0.537499 1.225021
v -0.928949 0.542265 1.310947
v -0.920008 0.522071 1.302583
v -0.928949 0.493591 1.383793
v -0.920008 0.478136 1.368338
v -0.928949 0.420746 1.432467
v -0.920008 0.334819 1.427701
v -0.928949 0.334819 1.449558
v -0.920008 0.257257 1.412272
v -0.928949 0.248893 1.432467
v -0.920008 0.191503 1.368338
v -0.928949 0.176047 1.383793
v -0.928949 0.127373 1.310947
v -0.920008 0.132139 1.225021
v -0.928949 0.110282 1.225021
v -0.928949 0.127373 1.139095
v -0.920008 0.191503 1.081704
v -0.928949 0.176047 1.066249
v -0.920008 0.257257 1.037770
v -0.928949 0.248893 1.017575
v -0.596117 0.428350 1.450824
v -0.596117 0.109016 1.318552
v -0.596117 0.241288 0.999218
v -0.920008 0.412381 1.412272
v -0.920008 0.522071 1.302583
v -0.920008 0.412381 1.037770
v -0.928949 0.334819 1.000483
v -0.928949 0.559357 1.225021
v -0.928949 0.176047 1.383793
v -0.928949 0.110282 1.225021
v -0.920008 0.478136 1.081704
v -0.920008 0.412381 1.412272
v -0.920008 0.147568 1.302583
v -0.920008 0.147568 1.147459
v -0.596117 0.334819 0.980613
v -0.596117 0.428350 0.999218
v -0.596117 0.507642 1.052199
v -0.596117 0.560622 1.131490
v -0.596117 0.579227 1.225021
v -0.596117 0.560622 1.318552
v -0.596117 0.507642 1.397843
v -0.596117 0.334819 1.469429
v -0.596117 0.241288 1.450824
v -0.596117 0.161997 1.397843
v -0.596117 0.090411 1.225021
v -0.596117 0.109016 1.131490
v -0.596117 0.161997 1.052199
v -0.920008 0.334819 1.022341
v -0.920008 0.257257 1.037770
v -0.920008 0.191503 1.081704
v -0.920008 0.147568 1.147459
v -0.920008 0.132139 1.225021
v -0.920008 0.147568 1.302583
v -0.920008 0.191503 1.368338
v -0.920008 0.257257 1.412272
v -0.920008 0.334819 1.427701
v -0.920008 0.478136 1.368338
v -0.920008 0.537499 1.225021
v -0.920008 0.522071 1.147459
v -0.920008 0.478136 1.081704
v 0.596117 0.428350 0.999218
v 0.627910 0.334819 0.890202
v 0.596117 0.334819 0.980613
v 0.596117 0.507642 1.052199
v 0.627910 0.462949 0.915689
v 0.596117 0.560622 1.131490
v 0.627910 0.571572 0.988268
v 0.596117 0.579227 1.225021
v 0.627910 0.644151 1.096892
v 0.596117 0.560622 1.318552
v 0.627910 0.669638 1.225021
v 0.596117 0.507642 1.397843
v 0.627910 0.644151 1.353150
v 0.596117 0.428350 1.450824
v 0.627910 0.571572 1.461774
v 0.596117 0.334819 1.469429
v 0.627910 0.462949 1.534353
v 0.627910 0.206690 1.534353
v 0.627910 0.334819 1.559840
v 0.596117 0.241288 1.450824
v 0.627910 0.098066 1.461774
v 0.596117 0.161997 1.397843
v 0.627910 0.025487 1.353150
v 0.596117 0.090411 1.225021
v 0.596117 0.109016 1.318552
v 0.627910 0.025487 1.096892
v 0.627910 0.000000 1.225021
v 0.596117 0.109016 1.131490
v 0.627910 0.098066 0.988268
v 0.596117 0.241288 0.999218
v 0.596117 0.161997 1.052199
v 0.627910 0.206690 0.915689
v 0.894176 0.334819 0.890202
v 0.894176 0.462949 0.915689
v 0.894176 0.571572 0.988268
v 0.894176 0.644151 1.096892
v 0.894176 0.669638 1.225021
v 0.894176 0.644151 1.353150
v 0.894176 0.571572 1.461774
v 0.894176 0.462949 1.534353
v 0.894176 0.334819 1.559840
v 0.894176 0.206690 1.534353
v 0.894176 0.098066 1.461774
v 0.894176 0.025487 1.353150
v 0.894176 0.000000 1.225021
v 0.894176 0.025487 1.096892
v 0.894176 0.098066 0.988268
v 0.894176 0.206690 0.915689
v 0.929943 0.334819 0.914046
v 0.929943 0.453824 0.937718
v 0.929943 0.554711 1.005129
v 0.929943 0.622122 1.106016
v 0.929943 0.645794 1.225021
v 0.929943 0.554711 1.444913
v 0.929943 0.622122 1.344026
v 0.929943 0.453824 1.512324
v 0.929943 0.334819 1.535995
v 0.929943 0.215814 1.512324
v 0.929943 0.114927 1.444913
v 0.929943 0.023845 1.225021
v 0.929943 0.047517 1.344026
v 0.929943 0.047517 1.106016
v 0.929943 0.215814 0.937718
v 0.929943 0.114927 1.005129
v 0.928949 0.420746 1.017575
v 0.928949 0.334819 1.000483
v 0.928949 0.493591 1.066249
v 0.928949 0.542265 1.139095
v 0.928949 0.542265 1.310947
v 0.928949 0.559357 1.225021
v 0.928949 0.420746 1.432467
v 0.928949 0.493591 1.383793
v 0.928949 0.334819 1.449558
v 0.928949 0.248893 1.432467
v 0.928949 0.127373 1.310947
v 0.928949 0.176047 1.383793
v 0.928949 0.127373 1.139095
v 0.928949 0.110282 1.225021
v 0.928949 0.176047 1.066249
v 0.928949 0.248893 1.017575
v 0.928949 0.420746 1.017575
v 0.920008 0.334819 1.022341
v 0.928949 0.334819 1.000483
v 0.928949 0.493591 1.066249
v 0.920008 0.412381 1.037770
v 0.920008 0.522071 1.147459
v 0.920008 0.478136 1.081704
v 0.928949 0.542265 1.139095
v 0.920008 0.537499 1.225021
v 0.928949 0.542265 1.310947
v 0.928949 0.559357 1.225021
v 0.928949 0.493591 1.383793
v 0.920008 0.522071 1.302583
v 0.928949 0.420746 1.432467
v 0.920008 0.478136 1.368338
v 0.920008 0.334819 1.427701
v 0.920008 0.412381 1.412272
v 0.928949 0.334819 1.449558
v 0.920008 0.257257 1.412272
v 0.928949 0.248893 1.432467
v 0.920008 0.191503 1.368338
v 0.928949 0.127373 1.310947
v 0.928949 0.176047 1.383793
v 0.920008 0.132139 1.225021
v 0.920008 0.147568 1.302583
v 0.928949 0.110282 1.225021
v 0.920008 0.147568 1.147459
v 0.928949 0.127373 1.139095
v 0.920008 0.191503 1.081704
v 0.928949 0.176047 1.066249
v 0.920008 0.257257 1.037770
v 0.928949 0.248893 1.017575
v 0.596117 0.241288 1.450824
v 0.596117 0.560622 1.318552
v 0.596117 0.428350 0.999218
v 0.920008 0.147568 1.302583
v 0.920008 0.147568 1.147459
v 0.920008 0.257257 1.037770
v 0.596117 0.334819 0.980613
v 0.596117 0.241288 0.999218
v 0.596117 0.161997 1.052199
v 0.596117 0.109016 1.131490
v 0.596117 0.090411 1.225021
v 0.596117 0.109016 1.318552
v 0.596117 0.161997 1.397843
v 0.596117 0.334819 1.469429
v 0.596117 0.428350 1.450824
v 0.596117 0.507642 1.397843
v 0.596117 0.579227 1.225021
v 0.596117 0.560622 1.131490
v 0.596117 0.507642 1.052199
v 0.920008 0.334819 1.022341
v 0.920008 0.412381 1.037770
v 0.920008 0.478136 1.081704
v 0.920008 0.522071 1.147459
v 0.920008 0.537499 1.225021
v 0.920008 0.522071 1.302583
v 0.920008 0.478136 1.368338
v 0.920008 0.412381 1.412272
v 0.920008 0.334819 1.427701
v 0.920008 0.257257 1.412272
v 0.920008 0.191503 1.368338
v 0.920008 0.132139 1.225021
v 0.920008 0.191503 1.081704
vt 0.429688 0.220703
vt 0.421420 0.198334
vt 0.422831 0.220703
vt 0.422251 0.164079
vt 0.417403 0.179369
vt 0.411390 0.166698
vt 0.414013 0.146721
vt 0.404297 0.162248
vt 0.404297 0.140625
vt 0.397204 0.166698
vt 0.394580 0.146721
vt 0.391191 0.179369
vt 0.386343 0.164079
vt 0.387173 0.198334
vt 0.380839 0.190059
vt 0.385762 0.220703
vt 0.380839 0.251348
vt 0.387173 0.243073
vt 0.386343 0.277327
vt 0.391191 0.262037
vt 0.394580 0.294686
vt 0.397204 0.274708
vt 0.404297 0.279158
vt 0.414013 0.294686
vt 0.411390 0.274708
vt 0.422251 0.277327
vt 0.417403 0.262037
vt 0.427755 0.251348
vt 0.421420 0.243073
vt 0.427755 0.190059
vt 0.378906 0.220703
vt 0.404297 0.300781
vt 0.427879 0.220703
vt 0.426084 0.192241
vt 0.420972 0.168112
vt 0.413321 0.151989
vt 0.404297 0.146328
vt 0.387622 0.168112
vt 0.382510 0.192241
vt 0.380714 0.220703
vt 0.382510 0.249165
vt 0.395272 0.289417
vt 0.404297 0.295078
vt 0.413321 0.289417
vt 0.426084 0.249165
vt 0.420028 0.200152
vt 0.416337 0.182730
vt 0.410813 0.171089
vt 0.397781 0.171089
vt 0.395272 0.151989
vt 0.392257 0.182730
vt 0.388565 0.200152
vt 0.387269 0.220703
vt 0.388565 0.241254
vt 0.387622 0.273294
vt 0.397781 0.270318
vt 0.410813 0.270318
vt 0.416337 0.258676
vt 0.420972 0.273294
vt 0.420028 0.241254
vt 0.363532 0.376953
vt 0.364755 0.421051
vt 0.369141 0.376953
vt 0.359573 0.416759
vt 0.352265 0.458436
vt 0.331426 0.473052
vt 0.333573 0.483416
vt 0.311523 0.492188
vt 0.311523 0.480970
vt 0.289474 0.483416
vt 0.291621 0.473052
vt 0.270782 0.458436
vt 0.274748 0.450504
vt 0.258292 0.421051
vt 0.259515 0.376953
vt 0.253906 0.376953
vt 0.263474 0.337148
vt 0.258292 0.332855
vt 0.274748 0.303402
vt 0.270782 0.295470
vt 0.289474 0.270490
vt 0.311523 0.272936
vt 0.311523 0.261719
vt 0.333573 0.270490
vt 0.348299 0.303402
vt 0.352265 0.295470
vt 0.359573 0.337148
vt 0.364755 0.332855
vt 0.445312 0.265625
vt 0.263474 0.416759
vt 0.421324 0.220703
vt 0.404297 0.167001
vt 0.392257 0.258676
vt 0.404297 0.274405
vt 0.348299 0.450504
vt 0.291621 0.280854
vt 0.331426 0.280854
vt 0.421420 0.198334
vt 0.429688 0.220703
vt 0.422831 0.220703
vt 0.417403 0.179369
vt 0.427755 0.190059
vt 0.411390 0.166698
vt 0.422251 0.164079
vt 0.404297 0.162248
vt 0.414013 0.146721
vt 0.397204 0.166698
vt 0.404297 0.140625
vt 0.391191 0.179369
vt 0.394580 0.146721
vt 0.387173 0.198334
vt 0.386343 0.164079
vt 0.385762 0.220703
vt 0.380839 0.190059
vt 0.380839 0.251348
vt 0.378906 0.220703
vt 0.387173 0.243073
vt 0.386343 0.277327
vt 0.391191 0.262037
vt 0.394580 0.294686
vt 0.404297 0.279158
vt 0.397204 0.274708
vt 0.414013 0.294686
vt 0.404297 0.300781
vt 0.411390 0.274708
vt 0.422251 0.277327
vt 0.421420 0.243073
vt 0.417403 0.262037
vt 0.427755 0.251348
vt 0.427879 0.220703
vt 0.426084 0.192241
vt 0.420972 0.168112
vt 0.413321 0.151989
vt 0.404297 0.146328
vt 0.387622 0.168112
vt 0.395272 0.151989
vt 0.382510 0.192241
vt 0.380714 0.220703
vt 0.382510 0.249165
vt 0.387622 0.273294
vt 0.404297 0.295078
vt 0.395272 0.289417
vt 0.413321 0.289417
vt 0.426084 0.249165
vt 0.420972 0.273294
vt 0.420028 0.200152
vt 0.421324 0.220703
vt 0.416337 0.182730
vt 0.410813 0.171089
vt 0.397781 0.171089
vt 0.404297 0.167001
vt 0.388565 0.200152
vt 0.392257 0.182730
vt 0.387269 0.220703
vt 0.388565 0.241254
vt 0.397781 0.270318
vt 0.392257 0.258676
vt 0.410813 0.270318
vt 0.404297 0.274405
vt 0.416337 0.258676
vt 0.420028 0.241254
vt 0.364755 0.421051
vt 0.363532 0.376953
vt 0.369141 0.376953
vt 0.352265 0.458436
vt 0.359573 0.416759
vt 0.331426 0.473052
vt 0.348299 0.450504
vt 0.333573 0.483416
vt 0.311523 0.480970
vt 0.289474 0.483416
vt 0.311523 0.492188
vt 0.270782 0.458436
vt 0.291621 0.473052
vt 0.258292 0.421051
vt 0.274748 0.450504
vt 0.259515 0.376953
vt 0.263474 0.416759
vt 0.253906 0.376953
vt 0.263474 0.337148
vt 0.258292 0.332855
vt 0.274748 0.303402
vt 0.289474 0.270490
vt 0.270782 0.295470
vt 0.311523 0.272936
vt 0.291621 0.280854
vt 0.311523 0.261719
vt 0.331426 0.280854
vt 0.333573 0.270490
vt 0.348299 0.303402
vt 0.352265 0.295470
vt 0.359573 0.337148
vt 0.364755 0.332855
vt 0.445312 0.265625
vn 0.546400 0.000000 -0.837500
vn 0.982100 0.072200 -0.174200
vn 0.982100 0.000000 -0.188600
vn 0.546400 0.592200 -0.592200
vn 0.982100 0.133300 -0.133300
vn 0.982100 0.174200 -0.072200
vn 0.546400 0.773800 -0.320500
vn 0.982100 0.188600 0.000000
vn 0.546400 0.837500 0.000000
vn 0.982100 0.174200 0.072200
vn 0.546400 0.773800 0.320500
vn 0.982100 0.133300 0.133300
vn 0.546400 0.592200 0.592200
vn 0.982100 0.072200 0.174200
vn 0.546400 0.320500 0.773800
vn 0.982100 0.000000 0.188600
vn 0.546400 -0.320500 0.773800
vn 0.982100 -0.072200 0.174200
vn 0.546400 -0.592200 0.592200
vn 0.982100 -0.133300 0.133300
vn 0.546400 -0.773800 0.320500
vn 0.982100 -0.174200 0.072200
vn 0.982100 -0.188600 0.000000
vn 0.546400 -0.773800 -0.320500
vn 0.982100 -0.174200 -0.072200
vn 0.546400 -0.592200 -0.592200
vn 0.982100 -0.133300 -0.133300
vn 0.546400 -0.320500 -0.773800
vn 0.982100 -0.072200 -0.174200
vn -0.280300 0.000000 -0.959900
vn 0.546400 0.320500 -0.773800
vn -0.280300 0.367300 -0.886900
vn -0.280300 0.678800 -0.678800
vn -0.280300 0.886900 -0.367300
vn -0.280300 0.959900 0.000000
vn -0.280300 0.886900 0.367300
vn -0.280300 0.678800 0.678800
vn -0.280300 0.367400 0.886900
vn 0.546400 0.000000 0.837500
vn -0.280300 0.000000 0.959900
vn -0.280300 -0.367300 0.886900
vn -0.280300 -0.678800 0.678800
vn -0.280300 -0.886900 0.367400
vn 0.546400 -0.837500 0.000000
vn -0.280300 -0.959900 0.000000
vn -0.280300 -0.886900 -0.367300
vn -0.280300 -0.678800 -0.678800
vn -0.280300 -0.367300 -0.886900
vn -0.859700 0.000000 -0.510800
vn -0.859700 0.195500 -0.471900
vn -0.859700 0.361200 -0.361200
vn -0.859700 0.471900 -0.195500
vn -0.859700 0.510800 0.000000
vn -0.859700 0.361200 0.361200
vn -0.859700 0.195500 0.471900
vn -0.859700 0.000000 0.510800
vn -0.859700 -0.195500 0.471900
vn -0.859700 -0.471900 0.195500
vn -0.859700 -0.510800 0.000000
vn -0.859700 -0.471900 -0.195500
vn -0.859700 -0.195500 -0.471900
vn -0.984400 -0.067300 0.162400
vn -0.984400 -0.124400 0.124400
vn -0.984400 -0.162500 0.067300
vn -0.984400 -0.162400 -0.067300
vn -0.859700 0.471900 0.195500
vn -0.984400 -0.124400 -0.124400
vn -0.984400 -0.067300 -0.162500
vn -0.984400 0.000000 -0.175900
vn -0.984400 0.067300 -0.162500
vn -0.859700 -0.361200 0.361200
vn -0.984400 0.162400 -0.067300
vn -0.984400 0.162500 0.067300
vn -0.984400 0.124400 0.124400
vn -0.859700 -0.361200 -0.361200
vn -0.984400 0.067300 0.162500
vn -0.976400 0.000000 0.216000
vn -0.984400 -0.067300 0.162500
vn -0.984400 0.000000 0.176000
vn -0.976400 -0.082700 0.199600
vn -0.976400 -0.199600 0.082700
vn -0.984400 -0.176000 0.000000
vn -0.976400 -0.216000 0.000000
vn -0.984400 -0.162500 -0.067300
vn -0.976400 -0.199500 -0.082700
vn -0.976400 -0.152700 -0.152700
vn -0.976400 0.000000 -0.216000
vn -0.984400 0.000000 -0.176000
vn -0.976400 0.082700 -0.199500
vn -0.976400 0.152700 -0.152700
vn -0.984400 0.124400 -0.124400
vn -0.984400 0.162500 -0.067300
vn -0.976400 0.215900 0.000000
vn -0.984400 0.175900 0.000000
vn -0.976400 0.152700 0.152700
vn -0.976400 0.082700 0.199600
vn 0.982100 0.072200 0.174100
vn 0.982100 -0.174100 0.072200
vn 0.982100 -0.072200 -0.174100
vn -1.000000 0.000000 0.000000
vn -0.984400 0.000000 0.175900
vn -0.984400 -0.175900 0.000000
vn -0.976400 -0.152700 0.152700
vn -0.976400 -0.082600 -0.199500
vn -0.976400 0.199500 -0.082600
vn -0.976400 0.199500 0.082600
vn 0.982100 0.072200 -0.174100
vn 0.982100 0.174100 -0.072200
vn 0.982100 0.174100 0.072200
vn 0.982100 -0.072200 0.174100
vn 0.982100 -0.174100 -0.072200
vn -0.982100 0.072200 -0.174200
vn -0.546400 0.000000 -0.837500
vn -0.982100 0.000000 -0.188600
vn -0.982100 0.133300 -0.133300
vn -0.546400 0.320500 -0.773800
vn -0.982100 0.174200 -0.072200
vn -0.546400 0.592200 -0.592200
vn -0.982100 0.188600 0.000000
vn -0.546400 0.773800 -0.320500
vn -0.982100 0.174200 0.072200
vn -0.546400 0.837500 0.000000
vn -0.982100 0.133300 0.133300
vn -0.546400 0.773800 0.320500
vn -0.982100 0.072200 0.174200
vn -0.546400 0.592200 0.592200
vn -0.982100 0.000000 0.188600
vn -0.546400 0.320500 0.773800
vn -0.546400 -0.320500 0.773800
vn -0.546400 0.000000 0.837500
vn -0.982100 -0.072200 0.174200
vn -0.546400 -0.592200 0.592200
vn -0.982100 -0.133300 0.133300
vn -0.546400 -0.773800 0.320500
vn -0.982100 -0.188600 0.000000
vn -0.982100 -0.174200 0.072200
vn -0.546400 -0.773800 -0.320500
vn -0.546400 -0.837500 0.000000
vn -0.982100 -0.174200 -0.072200
vn -0.546400 -0.592200 -0.592200
vn -0.982100 -0.072200 -0.174200
vn -0.982100 -0.133300 -0.133300
vn -0.546400 -0.320500 -0.773800
vn 0.280300 0.000000 -0.959900
vn 0.280300 0.367300 -0.886900
vn 0.280300 0.678800 -0.678800
vn 0.280300 0.886900 -0.367300
vn 0.280300 0.959900 0.000000
vn 0.280300 0.886900 0.367300
vn 0.280300 0.678800 0.678800
vn 0.280300 0.367400 0.886900
vn 0.280300 0.000000 0.959900
vn 0.280300 -0.367300 0.886900
vn 0.280300 -0.678800 0.678800
vn 0.280300 -0.886900 0.367300
vn 0.280300 -0.959900 0.000000
vn 0.280300 -0.886900 -0.367300
vn 0.280300 -0.678800 -0.678800
vn 0.280300 -0.367300 -0.886900
vn 0.859700 0.000000 -0.510800
vn 0.859700 0.195500 -0.471900
vn 0.859700 0.361200 -0.361200
vn 0.859700 0.471900 -0.195500
vn 0.859700 0.510800 0.000000
vn 0.859700 0.361200 0.361200
vn 0.859700 0.471900 0.195500
vn 0.859700 0.195500 0.471900
vn 0.859700 0.000000 0.510800
vn 0.859700 -0.195500 0.471900
vn 0.859700 -0.361200 0.361200
vn 0.859700 -0.510800 0.000000
vn 0.859700 -0.471900 0.195500
vn 0.859700 -0.471900 -0.195500
vn 0.859700 -0.195500 -0.471900
vn 0.859700 -0.361200 -0.361200
vn 0.984400 -0.067300 0.162400
vn 0.984400 0.000000 0.175900
vn 0.984400 -0.124400 0.124400
vn 0.984400 -0.162500 0.067300
vn 0.984400 -0.162400 -0.067300
vn 0.984400 -0.175900 0.000000
vn 0.984400 -0.067300 -0.162400
vn 0.984400 -0.124400 -0.124400
vn 0.984400 0.000000 -0.175900
vn 0.984400 0.067300 -0.162500
vn 0.984400 0.162400 -0.067300
vn 0.984400 0.124400 -0.124400
vn 0.984400 0.162500 0.067300
vn 0.984400 0.175900 0.000000
vn 0.984400 0.124400 0.124400
vn 0.984400 0.067300 0.162500
vn 0.984400 -0.067300 0.162500
vn 0.976400 0.000000 0.216000
vn 0.984400 0.000000 0.176000
vn 0.976400 -0.082600 0.199500
vn 0.976400 -0.199500 0.082700
vn 0.976400 -0.152700 0.152700
vn 0.976400 -0.215900 0.000000
vn 0.984400 -0.162500 -0.067300
vn 0.976400 -0.199500 -0.082600
vn 0.984400 -0.067300 -0.162500
vn 0.976400 -0.152700 -0.152700
vn 0.976400 0.000000 -0.216000
vn 0.976400 -0.082600 -0.199500
vn 0.984400 0.000000 -0.176000
vn 0.976400 0.082600 -0.199500
vn 0.976400 0.152700 -0.152700
vn 0.984400 0.162500 -0.067300
vn 0.976400 0.216000 0.000000
vn 0.976400 0.199500 -0.082600
vn 0.984400 0.176000 0.000000
vn 0.976400 0.199500 0.082600
vn 0.976400 0.152700 0.152700
vn 0.976400 0.082700 0.199500
vn -0.982100 -0.072200 0.174100
vn -0.982100 0.174100 0.072200
vn -0.982100 0.072200 -0.174100
vn 1.000000 0.000000 0.000000
vn -0.982100 -0.072200 -0.174100
vn -0.982100 -0.174100 -0.072200
vn -0.982100 -0.174100 0.072200
vn -0.982100 0.072200 0.174100
vn -0.982100 0.174100 -0.072200
o viper_gts_wheels_r
usemtl viper_gts_wheels_r
f 1/1/1 2/2/2 3/3/3
f 2/2/2 4/4/4 5/5/5
f 4/4/4 6/6/6 5/5/5
f 7/7/7 8/8/8 6/6/6
f 9/9/9 10/10/10 8/8/8
f 11/11/11 12/12/12 10/10/10
f 13/13/13 14/14/14 12/12/12
f 15/15/15 16/16/16 14/14/14
f 16/16/16 17/17/17 18/18/18
f 18/18/18 19/19/19 20/20/20
f 20/20/20 21/21/21 22/22/22
f 21/21/21 23/23/23 22/22/22
f 23/23/23 24/24/24 25/25/25
f 25/25/25 26/26/26 27/27/27
f 27/27/27 28/28/28 29/29/29
f 28/28/28 3/3/3 29/29/29
f 30/1/30 31/30/31 1/1/1
f 32/30/32 4/4/4 31/30/31
f 33/4/33 7/7/7 4/4/4
f 34/7/34 9/9/9 7/7/7
f 35/9/35 11/11/11 9/9/9
f 36/11/36 13/13/13 11/11/11
f 37/13/37 15/15/15 13/13/13
f 38/15/38 39/31/39 15/15/15
f 40/31/40 17/17/17 39/31/39
f 41/17/41 19/19/19 17/17/17
f 42/19/42 21/21/21 19/19/19
f 43/21/43 44/32/44 21/21/21
f 45/32/45 24/24/24 44/32/44
f 46/24/46 26/26/26 24/24/24
f 47/26/47 28/28/28 26/26/26
f 48/28/48 1/1/1 28/28/28
f 49/33/49 32/30/32 30/1/30
f 50/34/50 33/4/33 32/30/32
f 51/35/51 34/7/34 33/4/33
f 52/36/52 35/9/35 34/7/34
f 53/37/53 36/11/36 35/9/35
f 36/11/36 54/38/54 37/13/37
f 37/13/37 55/39/55 38/15/38
f 38/15/38 56/40/56 40/31/40
f 56/40/56 41/17/41 40/31/40
f 57/41/57 42/19/42 41/17/41
f 42/19/42 58/42/58 43/21/43
f 43/21/43 59/43/59 45/32/45
f 59/43/59 46/24/46 45/32/45
f 60/44/60 47/26/47 46/24/46
f 47/26/47 61/45/61 48/28/48
f 61/45/61 30/1/30 48/28/48
f 49/33/49 62/46/62 50/34/50
f 62/46/62 51/35/51 50/34/50
f 63/47/63 52/36/52 51/35/51
f 64/48/64 53/37/53 52/36/52
f 53/37/53 65/49/65 66/50/66
f 65/49/65 54/38/54 66/50/66
f 67/51/67 55/39/55 54/38/54
f 68/52/68 56/40/56 55/39/55
f 69/53/69 57/41/57 56/40/56
f 70/54/70 71/55/71 57/41/57
f 71/55/71 72/56/72 58/42/58
f 72/56/72 59/43/59 58/42/58
f 59/43/59 73/57/73 60/44/60
f 60/44/60 74/58/74 75/59/75
f 74/58/74 61/45/61 75/59/75
f 76/60/76 49/33/49 61/45/61
f 77/61/77 78/62/78 79/63/79
f 80/64/80 81/65/63 78/62/78
f 81/65/63 82/66/81 83/67/64
f 82/66/81 84/68/82 83/67/64
f 85/69/83 86/70/84 84/68/82
f 87/71/85 88/72/67 86/70/84
f 89/73/86 90/74/68 88/72/67
f 90/74/68 91/75/87 92/76/88
f 92/76/88 93/77/89 94/78/70
f 94/78/70 95/79/90 96/80/91
f 95/79/90 97/81/92 96/80/91
f 97/81/92 98/82/93 99/83/94
f 98/82/93 100/84/73 99/83/94
f 100/84/73 101/85/95 102/86/74
f 102/86/74 103/87/96 104/88/76
f 103/87/96 79/63/79 104/88/76
f 105/89/97 106/89/98 107/89/99
f 108/90/100 109/71/100 110/64/100
f 1/1/1 31/30/31 2/2/2
f 2/2/2 31/30/31 4/4/4
f 4/4/4 7/7/7 6/6/6
f 7/7/7 9/9/9 8/8/8
f 9/9/9 11/11/11 10/10/10
f 11/11/11 13/13/13 12/12/12
f 13/13/13 15/15/15 14/14/14
f 15/15/15 39/31/39 16/16/16
f 16/16/16 39/31/39 17/17/17
f 18/18/18 17/17/17 19/19/19
f 20/20/20 19/19/19 21/21/21
f 21/21/21 44/32/44 23/23/23
f 23/23/23 44/32/44 24/24/24
f 25/25/25 24/24/24 26/26/26
f 27/27/27 26/26/26 28/28/28
f 28/28/28 1/1/1 3/3/3
f 30/1/30 32/30/32 31/30/31
f 32/30/32 33/4/33 4/4/4
f 33/4/33 34/7/34 7/7/7
f 34/7/34 35/9/35 9/9/9
f 35/9/35 36/11/36 11/11/11
f 36/11/36 37/13/37 13/13/13
f 37/13/37 38/15/38 15/15/15
f 38/15/38 40/31/40 39/31/39
f 40/31/40 41/17/41 17/17/17
f 41/17/41 42/19/42 19/19/19
f 42/19/42 43/21/43 21/21/21
f 43/21/43 45/32/45 44/32/44
f 45/32/45 46/24/46 24/24/24
f 46/24/46 47/26/47 26/26/26
f 47/26/47 48/28/48 28/28/28
f 48/28/48 30/1/30 1/1/1
f 49/33/49 50/34/50 32/30/32
f 50/34/50 51/35/51 33/4/33
f 51/35/51 52/36/52 34/7/34
f 52/36/52 53/37/53 35/9/35
f 53/37/53 66/50/66 36/11/36
f 36/11/36 66/50/66 54/38/54
f 37/13/37 54/38/54 55/39/55
f 38/15/38 55/39/55 56/40/56
f 56/40/56 57/41/57 41/17/41
f 57/41/57 71/55/71 42/19/42
f 42/19/42 71/55/71 58/42/58
f 43/21/43 58/42/58 59/43/59
f 59/43/59 60/44/60 46/24/46
f 60/44/60 75/59/75 47/26/47
f 47/26/47 75/59/75 61/45/61
f 61/45/61 49/33/49 30/1/30
f 49/33/49 111/91/101 62/46/62
f 62/46/62 63/47/63 51/35/51
f 63/47/63 64/48/64 52/36/52
f 64/48/64 112/92/102 53/37/53
f 53/37/53 112/92/102 65/49/65
f 65/49/65 67/51/67 54/38/54
f 67/51/67 68/52/68 55/39/55
f 68/52/68 69/53/69 56/40/56
f 69/53/69 70/54/70 57/41/57
f 70/54/70 113/93/91 71/55/71
f 71/55/71 113/93/91 72/56/72
f 72/56/72 114/94/94 59/43/59
f 59/43/59 114/94/94 73/57/73
f 60/44/60 73/57/73 74/58/74
f 74/58/74 76/60/76 61/45/61
f 76/60/76 111/91/101 49/33/49
f 77/61/77 80/64/80 78/62/78
f 80/64/80 115/95/103 81/65/63
f 81/65/63 115/95/103 82/66/81
f 82/66/81 85/69/83 84/68/82
f 85/69/83 87/71/85 86/70/84
f 87/71/85 89/73/86 88/72/67
f 89/73/86 116/90/104 90/74/68
f 90/74/68 116/90/104 91/75/87
f 92/76/88 91/75/87 93/77/89
f 94/78/70 93/77/89 95/79/90
f 95/79/90 117/96/105 97/81/92
f 97/81/92 117/96/105 98/82/93
f 98/82/93 118/97/106 100/84/73
f 100/84/73 118/97/106 101/85/95
f 102/86/74 101/85/95 103/87/96
f 103/87/96 77/61/77 79/63/79
f 107/89/99 119/89/3 120/89/107
f 120/89/107 121/89/5 107/89/99
f 121/89/5 122/89/108 107/89/99
f 122/89/108 123/89/8 124/89/109
f 124/89/109 125/89/12 122/89/108
f 125/89/12 105/89/97 122/89/108
f 105/89/97 126/89/16 127/89/110
f 127/89/110 128/89/20 105/89/97
f 128/89/20 106/89/98 105/89/97
f 106/89/98 129/89/23 130/89/111
f 130/89/111 131/89/27 106/89/98
f 131/89/27 107/89/99 106/89/98
f 107/89/99 122/89/108 105/89/97
f 110/64/100 132/61/100 133/87/100
f 133/87/100 134/85/100 135/97/100
f 135/97/100 136/82/100 137/96/100
f 137/96/100 138/79/100 139/77/100
f 139/77/100 140/75/100 108/90/100
f 108/90/100 141/73/100 109/71/100
f 109/71/100 142/69/100 143/66/100
f 143/66/100 144/95/100 109/71/100
f 144/95/100 110/64/100 109/71/100
f 110/64/100 133/87/100 139/77/100
f 133/87/100 135/97/100 139/77/100
f 135/97/100 137/96/100 139/77/100
f 139/77/100 108/90/100 110/64/100
f 145/98/112 146/99/113 147/100/114
f 148/101/115 149/102/116 145/98/112
f 150/103/117 151/104/118 148/101/115
f 152/105/119 153/106/120 150/103/117
f 154/107/121 155/108/122 152/105/119
f 156/109/123 157/110/124 154/107/121
f 158/111/125 159/112/126 156/109/123
f 160/113/127 161/114/128 158/111/125
f 160/113/127 162/115/129 163/116/130
f 164/117/131 165/118/132 162/115/129
f 166/119/133 167/120/134 165/118/132
f 168/121/135 167/120/134 169/122/136
f 168/121/135 170/123/137 171/124/138
f 172/125/139 173/126/140 170/123/137
f 174/127/141 173/126/140 175/128/142
f 147/100/114 176/129/143 174/127/141
f 149/102/116 177/99/144 146/99/113
f 151/104/118 178/102/145 149/102/116
f 153/106/120 179/104/146 151/104/118
f 155/108/122 180/106/147 153/106/120
f 157/110/124 181/108/148 155/108/122
f 159/112/126 182/110/149 157/110/124
f 161/114/128 183/112/150 159/112/126
f 163/116/130 184/114/151 161/114/128
f 162/115/129 185/116/152 163/116/130
f 165/118/132 186/115/153 162/115/129
f 167/120/134 187/118/154 165/118/132
f 171/124/138 188/120/155 167/120/134
f 170/123/137 189/124/156 171/124/138
f 173/126/140 190/123/157 170/123/137
f 176/129/143 191/126/158 173/126/140
f 146/99/113 192/129/159 176/129/143
f 178/102/145 193/130/160 177/99/144
f 179/104/146 194/131/161 178/102/145
f 180/106/147 195/132/162 179/104/146
f 181/108/148 196/133/163 180/106/147
f 182/110/149 197/134/164 181/108/148
f 182/110/149 198/135/165 199/136/166
f 183/112/150 200/137/167 198/135/165
f 184/114/151 201/138/168 200/137/167
f 186/115/153 201/138/168 185/116/152
f 187/118/154 202/139/169 186/115/153
f 188/120/155 203/140/170 187/118/154
f 188/120/155 204/141/171 205/142/172
f 190/123/157 204/141/171 189/124/156
f 191/126/158 206/143/173 190/123/157
f 191/126/158 207/144/174 208/145/175
f 177/99/144 207/144/174 192/129/159
f 193/130/160 209/146/176 210/147/177
f 195/132/162 209/146/176 194/131/161
f 196/133/163 211/148/178 195/132/162
f 197/134/164 212/149/179 196/133/163
f 197/134/164 213/150/180 214/151/181
f 198/135/165 213/150/180 199/136/166
f 198/135/165 215/152/182 216/153/183
f 201/138/168 215/152/182 200/137/167
f 202/139/169 217/154/184 201/138/168
f 203/140/170 218/155/185 202/139/169
f 203/140/170 219/156/186 220/157/187
f 204/141/171 219/156/186 205/142/172
f 204/141/171 221/158/188 222/159/189
f 206/143/173 223/160/190 221/158/188
f 207/144/174 223/160/190 208/145/175
f 193/130/160 224/161/191 207/144/174
f 225/162/192 226/163/193 227/164/194
f 228/165/178 229/166/195 225/162/192
f 228/165/178 230/167/196 231/168/197
f 232/169/179 233/170/198 230/167/196
f 234/171/199 233/170/198 235/172/181
f 236/173/183 237/174/200 234/171/199
f 238/175/201 239/176/202 236/173/183
f 238/175/201 240/177/203 241/178/204
f 242/179/205 243/180/206 240/177/203
f 244/181/185 245/182/207 243/180/206
f 246/183/208 245/182/207 247/184/187
f 246/183/208 248/185/209 249/186/210
f 250/187/211 251/188/212 248/185/209
f 252/189/188 253/190/213 251/188/212
f 254/191/190 255/192/214 253/190/213
f 227/164/194 255/192/214 256/193/191
f 257/194/215 258/194/216 259/194/217
f 260/186/218 261/188/218 262/192/218
f 145/98/112 149/102/116 146/99/113
f 148/101/115 151/104/118 149/102/116
f 150/103/117 153/106/120 151/104/118
f 152/105/119 155/108/122 153/106/120
f 154/107/121 157/110/124 155/108/122
f 156/109/123 159/112/126 157/110/124
f 158/111/125 161/114/128 159/112/126
f 160/113/127 163/116/130 161/114/128
f 160/113/127 164/117/131 162/115/129
f 164/117/131 166/119/133 165/118/132
f 166/119/133 169/122/136 167/120/134
f 168/121/135 171/124/138 167/120/134
f 168/121/135 172/125/139 170/123/137
f 172/125/139 175/128/142 173/126/140
f 174/127/141 176/129/143 173/126/140
f 147/100/114 146/99/113 176/129/143
f 149/102/116 178/102/145 177/99/144
f 151/104/118 179/104/146 178/102/145
f 153/106/120 180/106/147 179/104/146
f 155/108/122 181/108/148 180/106/147
f 157/110/124 182/110/149 181/108/148
f 159/112/126 183/112/150 182/110/149
f 161/114/128 184/114/151 183/112/150
f 163/116/130 185/116/152 184/114/151
f 162/115/129 186/115/153 185/116/152
f 165/118/132 187/118/154 186/115/153
f 167/120/134 188/120/155 187/118/154
f 171/124/138 189/124/156 188/120/155
f 170/123/137 190/123/157 189/124/156
f 173/126/140 191/126/158 190/123/157
f 176/129/143 192/129/159 191/126/158
f 146/99/113 177/99/144 192/129/159
f 178/102/145 194/131/161 193/130/160
f 179/104/146 195/132/162 194/131/161
f 180/106/147 196/133/163 195/132/162
f 181/108/148 197/134/164 196/133/163
f 182/110/149 199/136/166 197/134/164
f 182/110/149 183/112/150 198/135/165
f 183/112/150 184/114/151 200/137/167
f 184/114/151 185/116/152 201/138/168
f 186/115/153 202/139/169 201/138/168
f 187/118/154 203/140/170 202/139/169
f 188/120/155 205/142/172 203/140/170
f 188/120/155 189/124/156 204/141/171
f 190/123/157 206/143/173 204/141/171
f 191/126/158 208/145/175 206/143/173
f 191/126/158 192/129/159 207/144/174
f 177/99/144 193/130/160 207/144/174
f 193/130/160 194/131/161 209/146/176
f 195/132/162 211/148/178 209/146/176
f 196/133/163 212/149/179 211/148/178
f 197/134/164 214/151/181 212/149/179
f 197/134/164 199/136/166 213/150/180
f 198/135/165 216/153/183 213/150/180
f 198/135/165 200/137/167 215/152/182
f 201/138/168 217/154/184 215/152/182
f 202/139/169 218/155/185 217/154/184
f 203/140/170 220/157/187 218/155/185
f 203/140/170 205/142/172 219/156/186
f 204/141/171 222/159/189 219/156/186
f 204/141/171 206/143/173 221/158/188
f 206/143/173 208/145/175 223/160/190
f 207/144/174 224/161/191 223/160/190
f 193/130/160 210/147/177 224/161/191
f 225/162/192 229/166/195 226/163/193
f 228/165/178 231/168/197 229/166/195
f 228/165/178 232/169/179 230/167/196
f 232/169/179 235/172/181 233/170/198
f 234/171/199 237/174/200 233/170/198
f 236/173/183 239/176/202 237/174/200
f 238/175/201 241/178/204 239/176/202
f 238/175/201 242/179/205 240/177/203
f 242/179/205 244/181/185 243/180/206
f 244/181/185 247/184/187 245/182/207
f 246/183/208 249/186/210 245/182/207
f 246/183/208 250/187/211 248/185/209
f 250/187/211 252/189/188 251/188/212
f 252/189/188 254/191/190 253/190/213
f 254/191/190 256/193/191 255/192/214
f 227/164/194 226/163/193 255/192/214
f 259/194/217 263/194/114 264/194/219
f 264/194/219 265/194/142 259/194/217
f 265/194/142 266/194/220 259/194/217
f 266/194/220 267/194/135 268/194/221
f 268/194/221 269/194/133 266/194/220
f 269/194/133 257/194/215 266/194/220
f 257/194/215 270/194/127 271/194/222
f 271/194/222 272/194/123 257/194/215
f 272/194/123 258/194/216 257/194/215
f 258/194/216 273/194/119 274/194/223
f 274/194/223 275/194/115 258/194/216
f 275/194/115 259/194/217 258/194/216
f 259/194/217 266/194/220 257/194/215
f 262/192/218 276/163/218 277/166/218
f 277/166/218 278/168/218 279/167/218
f 279/167/218 280/170/218 281/174/218
f 281/174/218 282/176/218 279/167/218
f 282/176/218 283/178/218 279/167/218
f 283/178/218 284/177/218 285/180/218
f 285/180/218 286/182/218 260/186/218
f 260/186/218 287/185/218 261/188/218
f 261/188/218 288/190/218 262/192/218
f 262/192/218 277/166/218 283/178/218
f 277/166/218 279/167/218 283/178/218
f 283/178/218 285/180/218 262/192/218
f 285/180/218 260/186/218 262/192/218
