# PSX Racing car model — generated by tools/carmodels/export_models.mjs
mtllib viper_gts_wheels_f.mtl
v -0.645297 0.325877 -1.550898
v -0.613504 0.419408 -1.450824
v -0.613504 0.325877 -1.469429
v -0.645297 0.450585 -1.526092
v -0.613504 0.498700 -1.397843
v -0.645297 0.626948 -1.349729
v -0.613504 0.551681 -1.318552
v -0.645297 0.651755 -1.225021
v -0.613504 0.570286 -1.225021
v -0.645297 0.626948 -1.100313
v -0.613504 0.551681 -1.131490
v -0.613504 0.498700 -1.052199
v -0.645297 0.556308 -0.994591
v -0.613504 0.419408 -0.999218
v -0.645297 0.325877 -0.899144
v -0.613504 0.325877 -0.980613
v -0.645297 0.201170 -0.923950
v -0.613504 0.232347 -0.999218
v -0.645297 0.095447 -0.994591
v -0.613504 0.153055 -1.052199
v -0.613504 0.100074 -1.131490
v -0.645297 0.000000 -1.225021
v -0.613504 0.081469 -1.225021
v -0.645297 0.024806 -1.349729
v -0.613504 0.100074 -1.318552
v -0.645297 0.095447 -1.455451
v -0.613504 0.153055 -1.397843
v -0.645297 0.201170 -1.526092
v -0.613504 0.232347 -1.450824
v -0.851951 0.325877 -1.550898
v -0.851951 0.450585 -1.526092
v -0.645297 0.556308 -1.455451
v -0.851951 0.556308 -1.455451
v -0.851951 0.626948 -1.349729
v -0.851951 0.651755 -1.225021
v -0.851951 0.626948 -1.100313
v -0.851951 0.556308 -0.994591
v -0.645297 0.450585 -0.923950
v -0.851951 0.450585 -0.923950
v -0.851951 0.325877 -0.899144
v -0.851951 0.201170 -0.923950
v -0.851951 0.095447 -0.994591
v -0.645297 0.024806 -1.100313
v -0.851951 0.024806 -1.100313
v -0.851951 0.000000 -1.225021
v -0.851951 0.024806 -1.349729
v -0.851951 0.095447 -1.455451
v -0.851951 0.201170 -1.526092
v -0.887718 0.325877 -1.527054
v -0.887718 0.539446 -1.438590
v -0.887718 0.604919 -1.340604
v -0.887718 0.604919 -1.109438
v -0.887718 0.539446 -1.011452
v -0.887718 0.441461 -0.945979
v -0.887718 0.325877 -0.922988
v -0.887718 0.112308 -1.011452
v -0.887718 0.046836 -1.109438
v -0.887718 0.023845 -1.225021
v -0.887718 0.046836 -1.340604
v -0.887718 0.112308 -1.438590
v -0.886724 0.411804 -1.432467
v -0.887718 0.441461 -1.504062
v -0.886724 0.484649 -1.383793
v -0.886724 0.533323 -1.310947
v -0.887718 0.627910 -1.225021
v -0.886724 0.533323 -1.139095
v -0.886724 0.484649 -1.066249
v -0.886724 0.411804 -1.017575
v -0.886724 0.239951 -1.017575
v -0.887718 0.210294 -0.945979
v -0.886724 0.167106 -1.066249
v -0.886724 0.118432 -1.139095
v -0.886724 0.118432 -1.310947
v -0.886724 0.167106 -1.383793
v -0.887718 0.210294 -1.504062
v -0.886724 0.239951 -1.432467
v -0.886724 0.325877 -1.449558
v -0.877783 0.403439 -1.412272
v -0.886724 0.411804 -1.432467
v -0.877783 0.469194 -1.368338
v -0.886724 0.484649 -1.383793
v -0.886724 0.533323 -1.310947
v -0.877783 0.528557 -1.225021
v -0.886724 0.550415 -1.225021
v -0.886724 0.533323 -1.139095
v -0.877783 0.513129 -1.147459
v -0.886724 0.484649 -1.066249
v -0.877783 0.403439 -1.037770
v -0.886724 0.411804 -1.017575
v -0.877783 0.325877 -1.022341
v -0.886724 0.325877 -1.000483
v -0.886724 0.239951 -1.017575
v -0.877783 0.248316 -1.037770
v -0.886724 0.167106 -1.066249
v -0.877783 0.182561 -1.081704
v -0.886724 0.118432 -1.139095
v -0.877783 0.138626 -1.147459
v -0.886724 0.101340 -1.225021
v -0.877783 0.123198 -1.225021
v -0.886724 0.118432 -1.310947
v -0.877783 0.138626 -1.302583
v -0.886724 0.167106 -1.383793
v -0.877783 0.182561 -1.368338
v -0.886724 0.239951 -1.432467
v -0.877783 0.248316 -1.412272
v -0.613504 0.419408 -0.999218
v -0.613504 0.100074 -1.131490
v -0.613504 0.232347 -1.450824
v -0.877783 0.403439 -1.037770
v -0.877783 0.513129 -1.147459
v -0.877783 0.403439 -1.412272
v -0.886724 0.325877 -1.449558
v -0.886724 0.550415 -1.225021
v -0.886724 0.325877 -1.000483
v -0.886724 0.101340 -1.225021
v -0.877783 0.325877 -1.427701
v -0.877783 0.513129 -1.302583
v -0.877783 0.469194 -1.081704
v -0.613504 0.325877 -1.469429
v -0.613504 0.419408 -1.450824
v -0.613504 0.498700 -1.397843
v -0.613504 0.551681 -1.318552
v -0.613504 0.570286 -1.225021
v -0.613504 0.551681 -1.131490
v -0.613504 0.498700 -1.052199
v -0.613504 0.325877 -0.980613
v -0.613504 0.232347 -0.999218
v -0.613504 0.153055 -1.052199
v -0.613504 0.081469 -1.225021
v -0.613504 0.100074 -1.318552
v -0.613504 0.153055 -1.397843
v -0.877783 0.325877 -1.427701
v -0.877783 0.248316 -1.412272
v -0.877783 0.182561 -1.368338
v -0.877783 0.138626 -1.302583
v -0.877783 0.123198 -1.225021
v -0.877783 0.138626 -1.147459
v -0.877783 0.182561 -1.081704
v -0.877783 0.248316 -1.037770
v -0.877783 0.325877 -1.022341
v -0.877783 0.469194 -1.081704
v -0.877783 0.528557 -1.225021
v -0.877783 0.513129 -1.302583
v -0.877783 0.469194 -1.368338
v 0.613504 0.419408 -1.450824
v 0.645297 0.325877 -1.550898
v 0.613504 0.325877 -1.469429
v 0.613504 0.498700 -1.397843
v 0.645297 0.450585 -1.526092
v 0.645297 0.626948 -1.349729
v 0.645297 0.556308 -1.455451
v 0.613504 0.551681 -1.318552
v 0.645297 0.651755 -1.225021
v 0.613504 0.570286 -1.225021
v 0.645297 0.626948 -1.100313
v 0.613504 0.498700 -1.052199
v 0.613504 0.551681 -1.131490
v 0.645297 0.450585 -0.923950
v 0.645297 0.556308 -0.994591
v 0.613504 0.325877 -0.980613
v 0.613504 0.419408 -0.999218
v 0.613504 0.232347 -0.999218
v 0.645297 0.325877 -0.899144
v 0.613504 0.153055 -1.052199
v 0.645297 0.201170 -0.923950
v 0.645297 0.024806 -1.100313
v 0.645297 0.095447 -0.994591
v 0.613504 0.100074 -1.131490
v 0.645297 0.000000 -1.225021
v 0.613504 0.081469 -1.225021
v 0.645297 0.024806 -1.349729
v 0.613504 0.100074 -1.318552
v 0.645297 0.095447 -1.455451
v 0.613504 0.153055 -1.397843
v 0.645297 0.201170 -1.526092
v 0.613504 0.232347 -1.450824
v 0.851951 0.325877 -1.550898
v 0.851951 0.450585 -1.526092
v 0.851951 0.556308 -1.455451
v 0.851951 0.626948 -1.349729
v 0.851951 0.651755 -1.225021
v 0.851951 0.626948 -1.100313
v 0.851951 0.556308 -0.994591
v 0.851951 0.450585 -0.923950
v 0.851951 0.325877 -0.899144
v 0.851951 0.201170 -0.923950
v 0.851951 0.095447 -0.994591
v 0.851951 0.024806 -1.100313
v 0.851951 0.000000 -1.225021
v 0.851951 0.024806 -1.349729
v 0.851951 0.095447 -1.455451
v 0.851951 0.201170 -1.526092
v 0.887718 0.325877 -1.527054
v 0.887718 0.539446 -1.438590
v 0.887718 0.441461 -1.504062
v 0.887718 0.604919 -1.340604
v 0.887718 0.604919 -1.109438
v 0.887718 0.627910 -1.225021
v 0.887718 0.539446 -1.011452
v 0.887718 0.441461 -0.945979
v 0.887718 0.325877 -0.922988
v 0.887718 0.210294 -0.945979
v 0.887718 0.046836 -1.109438
v 0.887718 0.112308 -1.011452
v 0.887718 0.023845 -1.225021
v 0.887718 0.046836 -1.340604
v 0.887718 0.112308 -1.438590
v 0.887718 0.210294 -1.504062
v 0.886724 0.411804 -1.432467
v 0.886724 0.325877 -1.449558
v 0.886724 0.484649 -1.383793
v 0.886724 0.533323 -1.310947
v 0.886724 0.550415 -1.225021
v 0.886724 0.484649 -1.066249
v 0.886724 0.533323 -1.139095
v 0.886724 0.411804 -1.017575
v 0.886724 0.239951 -1.017575
v 0.886724 0.325877 -1.000483
v 0.886724 0.167106 -1.066249
v 0.886724 0.118432 -1.139095
v 0.886724 0.118432 -1.310947
v 0.886724 0.101340 -1.225021
v 0.886724 0.167106 -1.383793
v 0.886724 0.239951 -1.432467
v 0.886724 0.325877 -1.449558
v 0.877783 0.403439 -1.412272
v 0.877783 0.325877 -1.427701
v 0.886724 0.411804 -1.432467
v 0.877783 0.469194 -1.368338
v 0.886724 0.533323 -1.310947
v 0.886724 0.484649 -1.383793
v 0.886724 0.550415 -1.225021
v 0.877783 0.513129 -1.302583
v 0.886724 0.533323 -1.139095
v 0.877783 0.528557 -1.225021
v 0.886724 0.484649 -1.066249
v 0.877783 0.513129 -1.147459
v 0.886724 0.411804 -1.017575
v 0.877783 0.469194 -1.081704
v 0.886724 0.325877 -1.000483
v 0.877783 0.403439 -1.037770
v 0.886724 0.239951 -1.017575
v 0.877783 0.325877 -1.022341
v 0.886724 0.167106 -1.066249
v 0.877783 0.248316 -1.037770
v 0.886724 0.118432 -1.139095
v 0.877783 0.182561 -1.081704
v 0.886724 0.101340 -1.225021
v 0.877783 0.138626 -1.147459
v 0.886724 0.118432 -1.310947
v 0.877783 0.123198 -1.225021
v 0.886724 0.167106 -1.383793
v 0.877783 0.138626 -1.302583
v 0.886724 0.239951 -1.432467
v 0.877783 0.182561 -1.368338
v 0.877783 0.248316 -1.412272
v 0.613504 0.232347 -0.999218
v 0.613504 0.551681 -1.131490
v 0.613504 0.419408 -1.450824
v 0.877783 0.138626 -1.147459
v 0.877783 0.138626 -1.302583
v 0.877783 0.248316 -1.412272
v 0.613504 0.325877 -1.469429
v 0.613504 0.232347 -1.450824
v 0.613504 0.153055 -1.397843
v 0.613504 0.100074 -1.318552
v 0.613504 0.081469 -1.225021
v 0.613504 0.100074 -1.131490
v 0.613504 0.153055 -1.052199
v 0.613504 0.325877 -0.980613
v 0.613504 0.419408 -0.999218
v 0.613504 0.498700 -1.052199
v 0.613504 0.570286 -1.225021
v 0.613504 0.551681 -1.318552
v 0.613504 0.498700 -1.397843
v 0.877783 0.325877 -1.427701
v 0.877783 0.403439 -1.412272
v 0.877783 0.469194 -1.368338
v 0.877783 0.513129 -1.302583
v 0.877783 0.528557 -1.225021
v 0.877783 0.513129 -1.147459
v 0.877783 0.469194 -1.081704
v 0.877783 0.403439 -1.037770
v 0.877783 0.325877 -1.022341
v 0.877783 0.248316 -1.037770
v 0.877783 0.182561 -1.081704
v 0.877783 0.123198 -1.225021
v 0.877783 0.182561 -1.368338
vt 0.429688 0.220703
vt 0.421890 0.197720
vt 0.423340 0.220703
vt 0.427755 0.190059
vt 0.417762 0.178235
vt 0.414013 0.146721
vt 0.411584 0.165216
vt 0.404297 0.140625
vt 0.404297 0.160645
vt 0.394580 0.146721
vt 0.397009 0.165216
vt 0.390831 0.178235
vt 0.386343 0.164079
vt 0.386703 0.197720
vt 0.378906 0.220703
vt 0.385254 0.220703
vt 0.380839 0.251348
vt 0.386703 0.243687
vt 0.386343 0.277327
vt 0.390831 0.263171
vt 0.397009 0.276190
vt 0.404297 0.300781
vt 0.404297 0.280762
vt 0.414013 0.294686
vt 0.411584 0.276190
vt 0.422251 0.277327
vt 0.417762 0.263171
vt 0.427755 0.251348
vt 0.421890 0.243687
vt 0.422251 0.164079
vt 0.380839 0.190059
vt 0.394580 0.294686
vt 0.427830 0.220703
vt 0.420937 0.168223
vt 0.413302 0.152134
vt 0.395291 0.152134
vt 0.387657 0.168223
vt 0.382555 0.192301
vt 0.380764 0.220703
vt 0.387657 0.273184
vt 0.395291 0.289272
vt 0.404297 0.294922
vt 0.413302 0.289272
vt 0.420937 0.273184
vt 0.420460 0.199588
vt 0.426038 0.192301
vt 0.416668 0.181688
vt 0.410992 0.169727
vt 0.404297 0.146484
vt 0.397602 0.169727
vt 0.391926 0.181688
vt 0.388134 0.199588
vt 0.388134 0.241818
vt 0.382555 0.249105
vt 0.391926 0.259718
vt 0.397602 0.271679
vt 0.410992 0.271679
vt 0.416668 0.259718
vt 0.426038 0.249105
vt 0.420460 0.241818
vt 0.369141 0.376953
vt 0.359573 0.416759
vt 0.364755 0.421051
vt 0.348299 0.450504
vt 0.352265 0.458436
vt 0.333573 0.483416
vt 0.311523 0.480970
vt 0.311523 0.492188
vt 0.289474 0.483416
vt 0.291621 0.473052
vt 0.270782 0.458436
vt 0.263474 0.416759
vt 0.258292 0.421051
vt 0.259515 0.376953
vt 0.253906 0.376953
vt 0.258292 0.332855
vt 0.263474 0.337148
vt 0.270782 0.295470
vt 0.274748 0.303402
vt 0.289474 0.270490
vt 0.291621 0.280854
vt 0.311523 0.261719
vt 0.311523 0.272936
vt 0.333573 0.270490
vt 0.331426 0.280854
vt 0.352265 0.295470
vt 0.348299 0.303402
vt 0.364755 0.332855
vt 0.359573 0.337148
vt 0.445312 0.265625
vt 0.421792 0.220703
vt 0.404297 0.165527
vt 0.386802 0.220703
vt 0.404297 0.275879
vt 0.363532 0.376953
vt 0.331426 0.473052
vt 0.274748 0.450504
vt 0.421890 0.197720
vt 0.429688 0.220703
vt 0.423340 0.220703
vt 0.417762 0.178235
vt 0.427755 0.190059
vt 0.414013 0.146721
vt 0.422251 0.164079
vt 0.411584 0.165216
vt 0.404297 0.140625
vt 0.404297 0.160645
vt 0.394580 0.146721
vt 0.390831 0.178235
vt 0.397009 0.165216
vt 0.380839 0.190059
vt 0.386343 0.164079
vt 0.385254 0.220703
vt 0.386703 0.197720
vt 0.386703 0.243687
vt 0.378906 0.220703
vt 0.390831 0.263171
vt 0.380839 0.251348
vt 0.394580 0.294686
vt 0.386343 0.277327
vt 0.397009 0.276190
vt 0.404297 0.300781
vt 0.404297 0.280762
vt 0.414013 0.294686
vt 0.411584 0.276190
vt 0.422251 0.277327
vt 0.417762 0.263171
vt 0.427755 0.251348
vt 0.421890 0.243687
vt 0.427830 0.220703
vt 0.420937 0.168223
vt 0.426038 0.192301
vt 0.413302 0.152134
vt 0.395291 0.152134
vt 0.404297 0.146484
vt 0.387657 0.168223
vt 0.382555 0.192301
vt 0.380764 0.220703
vt 0.382555 0.249105
vt 0.395291 0.289272
vt 0.387657 0.273184
vt 0.404297 0.294922
vt 0.413302 0.289272
vt 0.420937 0.273184
vt 0.426038 0.249105
vt 0.420460 0.199588
vt 0.421792 0.220703
vt 0.416668 0.181688
vt 0.410992 0.169727
vt 0.404297 0.165527
vt 0.391926 0.181688
vt 0.397602 0.169727
vt 0.388134 0.199588
vt 0.388134 0.241818
vt 0.386802 0.220703
vt 0.391926 0.259718
vt 0.397602 0.271679
vt 0.410992 0.271679
vt 0.404297 0.275879
vt 0.416668 0.259718
vt 0.420460 0.241818
vt 0.369141 0.376953
vt 0.359573 0.416759
vt 0.363532 0.376953
vt 0.364755 0.421051
vt 0.348299 0.450504
vt 0.333573 0.483416
vt 0.352265 0.458436
vt 0.311523 0.492188
vt 0.331426 0.473052
vt 0.289474 0.483416
vt 0.311523 0.480970
vt 0.270782 0.458436
vt 0.291621 0.473052
vt 0.258292 0.421051
vt 0.274748 0.450504
vt 0.253906 0.376953
vt 0.263474 0.416759
vt 0.258292 0.332855
vt 0.259515 0.376953
vt 0.270782 0.295470
vt 0.263474 0.337148
vt 0.289474 0.270490
vt 0.274748 0.303402
vt 0.311523 0.261719
vt 0.291621 0.280854
vt 0.333573 0.270490
vt 0.311523 0.272936
vt 0.352265 0.295470
vt 0.331426 0.280854
vt 0.364755 0.332855
vt 0.348299 0.303402
vt 0.359573 0.337148
vt 0.445312 0.265625
vn 0.533600 0.000000 -0.845700
vn 0.978300 0.079300 -0.191300
vn 0.978300 0.000000 -0.207100
vn 0.533600 0.323600 -0.781300
vn 0.978300 0.146400 -0.146400
vn 0.533600 0.781300 -0.323600
vn 0.978300 0.191300 -0.079300
vn 0.533600 0.845700 0.000000
vn 0.978300 0.207100 0.000000
vn 0.533700 0.781300 0.323600
vn 0.978300 0.191300 0.079300
vn 0.978300 0.146400 0.146400
vn 0.533600 0.598000 0.598000
vn 0.978300 0.079300 0.191300
vn 0.533600 0.000000 0.845700
vn 0.978300 0.000000 0.207100
vn 0.533600 -0.323600 0.781300
vn 0.978300 -0.079300 0.191300
vn 0.533700 -0.598000 0.598000
vn 0.978300 -0.146400 0.146400
vn 0.978300 -0.191300 0.079300
vn 0.533600 -0.845700 0.000000
vn 0.978300 -0.207100 0.000000
vn 0.533600 -0.781300 -0.323600
vn 0.978300 -0.191300 -0.079300
vn 0.533600 -0.598000 -0.598000
vn 0.978300 -0.146400 -0.146400
vn 0.533700 -0.323600 -0.781300
vn 0.978300 -0.079200 -0.191400
vn -0.280300 0.000000 -0.959900
vn -0.280300 0.367300 -0.886900
vn 0.533600 0.598000 -0.598000
vn -0.280300 0.678800 -0.678800
vn -0.280300 0.886900 -0.367300
vn -0.280300 0.959900 0.000000
vn -0.280300 0.886900 0.367300
vn -0.280300 0.678800 0.678800
vn 0.533600 0.323600 0.781300
vn -0.280300 0.367300 0.886900
vn -0.280300 0.000000 0.959900
vn -0.280300 -0.367300 0.886900
vn -0.280300 -0.678800 0.678800
vn 0.533600 -0.781300 0.323600
vn -0.280300 -0.886900 0.367300
vn -0.280300 -0.959900 0.000000
vn -0.280300 -0.886900 -0.367400
vn -0.280300 -0.678800 -0.678800
vn -0.280300 -0.367300 -0.886900
vn -0.860000 0.000000 -0.510300
vn -0.860000 0.360800 -0.360800
vn -0.860000 0.471500 -0.195300
vn -0.860000 0.471500 0.195300
vn -0.860000 0.360800 0.360800
vn -0.860000 0.195300 0.471500
vn -0.860000 0.000000 0.510300
vn -0.860000 -0.360800 0.360800
vn -0.860000 -0.471500 0.195300
vn -0.860000 -0.510300 0.000000
vn -0.860000 -0.471500 -0.195300
vn -0.860000 -0.360800 -0.360800
vn -0.984300 -0.067600 0.163200
vn -0.860000 0.195300 -0.471500
vn -0.984300 -0.124900 0.124900
vn -0.984300 -0.163200 0.067600
vn -0.860000 0.510300 0.000000
vn -0.984300 -0.163200 -0.067600
vn -0.984300 -0.124900 -0.124900
vn -0.984300 -0.067600 -0.163200
vn -0.984300 0.067600 -0.163200
vn -0.860000 -0.195300 0.471500
vn -0.984300 0.124900 -0.124900
vn -0.984300 0.163200 -0.067600
vn -0.984300 0.163200 0.067600
vn -0.984300 0.124900 0.124900
vn -0.860000 -0.195300 -0.471500
vn -0.984300 0.067600 0.163200
vn -0.984300 0.000000 0.176700
vn -0.976400 -0.082700 0.199500
vn -0.976400 -0.152700 0.152700
vn -0.984300 -0.163300 0.067600
vn -0.976400 -0.215900 0.000000
vn -0.984300 -0.176600 0.000000
vn -0.976400 -0.199500 -0.082700
vn -0.976400 -0.082600 -0.199500
vn -0.976400 0.000000 -0.215900
vn -0.984300 0.000000 -0.176600
vn -0.976400 0.082700 -0.199600
vn -0.976400 0.152700 -0.152700
vn -0.976400 0.199500 -0.082600
vn -0.984300 0.176600 0.000000
vn -0.976400 0.216000 0.000000
vn -0.976400 0.199500 0.082700
vn -0.976400 0.152700 0.152700
vn -0.976400 0.082600 0.199500
vn 0.978300 -0.079200 -0.191300
vn -1.000000 0.000000 0.000000
vn -0.984300 0.000000 0.176600
vn -0.976400 0.000000 0.216000
vn -0.976400 -0.199500 0.082600
vn -0.976400 -0.152700 -0.152700
vn 0.978300 -0.079300 0.191200
vn -0.978300 0.079300 -0.191300
vn -0.533600 0.000000 -0.845700
vn -0.978300 0.000000 -0.207100
vn -0.978300 0.146400 -0.146400
vn -0.533600 0.323600 -0.781300
vn -0.533600 0.781300 -0.323600
vn -0.533600 0.598000 -0.598000
vn -0.978300 0.191300 -0.079300
vn -0.533600 0.845700 0.000000
vn -0.978300 0.207100 0.000000
vn -0.533700 0.781300 0.323600
vn -0.978300 0.146400 0.146400
vn -0.978300 0.191300 0.079300
vn -0.533700 0.323600 0.781300
vn -0.533600 0.598000 0.598000
vn -0.978300 0.000000 0.207100
vn -0.978300 0.079300 0.191300
vn -0.978300 -0.079200 0.191300
vn -0.533600 0.000000 0.845700
vn -0.978300 -0.146400 0.146400
vn -0.533600 -0.323600 0.781300
vn -0.533600 -0.781300 0.323600
vn -0.533600 -0.598000 0.598000
vn -0.978300 -0.191300 0.079300
vn -0.533600 -0.845700 0.000000
vn -0.978300 -0.207100 0.000000
vn -0.533600 -0.781300 -0.323600
vn -0.978300 -0.191300 -0.079300
vn -0.533600 -0.598000 -0.598000
vn -0.978300 -0.146400 -0.146400
vn -0.533700 -0.323600 -0.781300
vn -0.978300 -0.079300 -0.191300
vn 0.280300 0.000000 -0.959900
vn 0.280300 0.367300 -0.886900
vn 0.280300 0.678800 -0.678800
vn 0.280300 0.886900 -0.367300
vn 0.280300 0.959900 0.000000
vn 0.280300 0.886900 0.367300
vn 0.280300 0.678800 0.678800
vn 0.280300 0.367300 0.886900
vn 0.280300 0.000000 0.959900
vn 0.280300 -0.367300 0.886900
vn 0.280300 -0.678800 0.678800
vn 0.280300 -0.886900 0.367300
vn 0.280300 -0.959900 0.000000
vn 0.280300 -0.886900 -0.367400
vn 0.280300 -0.678800 -0.678800
vn 0.280300 -0.367300 -0.886900
vn 0.860000 0.000000 -0.510300
vn 0.860000 0.360800 -0.360800
vn 0.860000 0.195300 -0.471500
vn 0.860000 0.471500 -0.195300
vn 0.860000 0.471400 0.195300
vn 0.860000 0.510300 0.000000
vn 0.860000 0.360800 0.360800
vn 0.860000 0.195300 0.471500
vn 0.860000 0.000000 0.510300
vn 0.860000 -0.195300 0.471500
vn 0.860000 -0.471500 0.195300
vn 0.860000 -0.360800 0.360800
vn 0.860000 -0.510300 0.000000
vn 0.860000 -0.471500 -0.195300
vn 0.860000 -0.360800 -0.360800
vn 0.860000 -0.195300 -0.471500
vn 0.984300 -0.067600 0.163200
vn 0.984300 0.000000 0.176600
vn 0.984300 -0.124900 0.124900
vn 0.984300 -0.163200 0.067600
vn 0.984300 -0.176600 0.000000
vn 0.984300 -0.124900 -0.124900
vn 0.984300 -0.163200 -0.067600
vn 0.984300 -0.067600 -0.163200
vn 0.984300 0.067600 -0.163200
vn 0.984300 0.000000 -0.176600
vn 0.984300 0.124900 -0.124900
vn 0.984300 0.163200 -0.067600
vn 0.984300 0.163200 0.067600
vn 0.984300 0.176600 0.000000
vn 0.984300 0.124900 0.124900
vn 0.984300 0.067600 0.163200
vn 0.984300 0.000000 0.176700
vn 0.976400 -0.082600 0.199500
vn 0.976400 0.000000 0.216000
vn 0.976400 -0.152700 0.152700
vn 0.976400 -0.199500 0.082600
vn 0.976400 -0.216000 0.000000
vn 0.984300 -0.125000 -0.124900
vn 0.976400 -0.199500 -0.082600
vn 0.976400 -0.152700 -0.152700
vn 0.976400 -0.082700 -0.199600
vn 0.976400 0.000000 -0.216000
vn 0.984300 0.124900 -0.125000
vn 0.976400 0.082600 -0.199500
vn 0.976400 0.152700 -0.152700
vn 0.976400 0.199500 -0.082600
vn 0.976400 0.216000 0.000000
vn 0.984300 0.125000 0.124900
vn 0.976400 0.199500 0.082600
vn 0.976400 0.152700 0.152700
vn 0.976400 0.082700 0.199500
vn 1.000000 0.000000 0.000000
vn -0.978300 -0.079300 -0.191200
o viper_gts_wheels_f
usemtl viper_gts_wheels_f
f 1/1/1 2/2/2 3/3/3
f 4/4/4 5/5/5 2/2/2
f 5/5/5 6/6/6 7/7/7
f 7/7/7 8/8/8 9/9/9
f 9/9/9 10/10/10 11/11/11
f 10/10/10 12/12/12 11/11/11
f 13/13/13 14/14/14 12/12/12
f 14/14/14 15/15/15 16/16/16
f 16/16/16 17/17/17 18/18/18
f 18/18/18 19/19/19 20/20/20
f 19/19/19 21/21/21 20/20/20
f 21/21/21 22/22/22 23/23/23
f 23/23/23 24/24/24 25/25/25
f 25/25/25 26/26/26 27/27/27
f 27/27/27 28/28/28 29/29/29
f 28/28/28 3/3/3 29/29/29
f 30/1/30 4/4/4 1/1/1
f 31/4/31 32/30/32 4/4/4
f 33/30/33 6/6/6 32/30/32
f 34/6/34 8/8/8 6/6/6
f 35/8/35 10/10/10 8/8/8
f 36/10/36 13/13/13 10/10/10
f 37/13/37 38/31/38 13/13/13
f 39/31/39 15/15/15 38/31/38
f 40/15/40 17/17/17 15/15/15
f 41/17/41 19/19/19 17/17/17
f 42/19/42 43/32/43 19/19/19
f 44/32/44 22/22/22 43/32/43
f 45/22/45 24/24/24 22/22/22
f 46/24/46 26/26/26 24/24/24
f 47/26/47 28/28/28 26/26/26
f 48/28/48 1/1/1 28/28/28
f 49/33/49 31/4/31 30/1/30
f 31/4/31 50/34/50 33/30/33
f 50/34/50 34/6/34 33/30/33
f 51/35/51 35/8/35 34/6/34
f 35/8/35 52/36/52 36/10/36
f 36/10/36 53/37/53 37/13/37
f 37/13/37 54/38/54 39/31/39
f 54/38/54 40/15/40 39/31/39
f 55/39/55 41/17/41 40/15/40
f 41/17/41 56/40/56 42/19/42
f 56/40/56 44/32/44 42/19/42
f 57/41/57 45/22/45 44/32/44
f 58/42/58 46/24/46 45/22/45
f 59/43/59 47/26/47 46/24/46
f 60/44/60 48/28/48 47/26/47
f 48/28/48 49/33/49 30/1/30
f 49/33/49 61/45/61 62/46/62
f 61/45/61 50/34/50 62/46/62
f 63/47/63 51/35/51 50/34/50
f 64/48/64 65/49/65 51/35/51
f 65/49/65 66/50/66 52/36/52
f 52/36/52 67/51/67 53/37/53
f 53/37/53 68/52/68 54/38/54
f 68/52/68 55/39/55 54/38/54
f 55/39/55 69/53/69 70/54/70
f 69/53/69 56/40/56 70/54/70
f 71/55/71 57/41/57 56/40/56
f 72/56/72 58/42/58 57/41/57
f 58/42/58 73/57/73 59/43/59
f 59/43/59 74/58/74 60/44/60
f 74/58/74 75/59/75 60/44/60
f 76/60/76 49/33/49 75/59/75
f 77/61/77 78/62/78 79/63/61
f 79/63/61 80/64/79 81/65/63
f 80/64/79 82/66/80 81/65/63
f 82/66/80 83/67/81 84/68/82
f 83/67/81 85/69/66 84/68/82
f 86/70/83 87/71/67 85/69/66
f 87/71/67 88/72/84 89/73/68
f 89/73/68 90/74/85 91/75/86
f 90/74/85 92/76/69 91/75/86
f 93/77/87 94/78/71 92/76/69
f 95/79/88 96/80/72 94/78/71
f 97/81/89 98/82/90 96/80/72
f 99/83/91 100/84/73 98/82/90
f 101/85/92 102/86/74 100/84/73
f 103/87/93 104/88/76 102/86/74
f 105/89/94 77/61/77 104/88/76
f 106/90/14 107/90/21 108/90/95
f 109/72/96 110/70/96 111/62/96
f 1/1/1 4/4/4 2/2/2
f 4/4/4 32/30/32 5/5/5
f 5/5/5 32/30/32 6/6/6
f 7/7/7 6/6/6 8/8/8
f 9/9/9 8/8/8 10/10/10
f 10/10/10 13/13/13 12/12/12
f 13/13/13 38/31/38 14/14/14
f 14/14/14 38/31/38 15/15/15
f 16/16/16 15/15/15 17/17/17
f 18/18/18 17/17/17 19/19/19
f 19/19/19 43/32/43 21/21/21
f 21/21/21 43/32/43 22/22/22
f 23/23/23 22/22/22 24/24/24
f 25/25/25 24/24/24 26/26/26
f 27/27/27 26/26/26 28/28/28
f 28/28/28 1/1/1 3/3/3
f 30/1/30 31/4/31 4/4/4
f 31/4/31 33/30/33 32/30/32
f 33/30/33 34/6/34 6/6/6
f 34/6/34 35/8/35 8/8/8
f 35/8/35 36/10/36 10/10/10
f 36/10/36 37/13/37 13/13/13
f 37/13/37 39/31/39 38/31/38
f 39/31/39 40/15/40 15/15/15
f 40/15/40 41/17/41 17/17/17
f 41/17/41 42/19/42 19/19/19
f 42/19/42 44/32/44 43/32/43
f 44/32/44 45/22/45 22/22/22
f 45/22/45 46/24/46 24/24/24
f 46/24/46 47/26/47 26/26/26
f 47/26/47 48/28/48 28/28/28
f 48/28/48 30/1/30 1/1/1
f 49/33/49 62/46/62 31/4/31
f 31/4/31 62/46/62 50/34/50
f 50/34/50 51/35/51 34/6/34
f 51/35/51 65/49/65 35/8/35
f 35/8/35 65/49/65 52/36/52
f 36/10/36 52/36/52 53/37/53
f 37/13/37 53/37/53 54/38/54
f 54/38/54 55/39/55 40/15/40
f 55/39/55 70/54/70 41/17/41
f 41/17/41 70/54/70 56/40/56
f 56/40/56 57/41/57 44/32/44
f 57/41/57 58/42/58 45/22/45
f 58/42/58 59/43/59 46/24/46
f 59/43/59 60/44/60 47/26/47
f 60/44/60 75/59/75 48/28/48
f 48/28/48 75/59/75 49/33/49
f 49/33/49 112/91/97 61/45/61
f 61/45/61 63/47/63 50/34/50
f 63/47/63 64/48/64 51/35/51
f 64/48/64 113/92/82 65/49/65
f 65/49/65 113/92/82 66/50/66
f 52/36/52 66/50/66 67/51/67
f 53/37/53 67/51/67 68/52/68
f 68/52/68 114/93/86 55/39/55
f 55/39/55 114/93/86 69/53/69
f 69/53/69 71/55/71 56/40/56
f 71/55/71 72/56/72 57/41/57
f 72/56/72 115/94/90 58/42/58
f 58/42/58 115/94/90 73/57/73
f 59/43/59 73/57/73 74/58/74
f 74/58/74 76/60/76 75/59/75
f 76/60/76 112/91/97 49/33/49
f 77/61/77 116/95/98 78/62/78
f 79/63/61 78/62/78 80/64/79
f 80/64/79 117/96/99 82/66/80
f 82/66/80 117/96/99 83/67/81
f 83/67/81 86/70/83 85/69/66
f 86/70/83 118/97/100 87/71/67
f 87/71/67 118/97/100 88/72/84
f 89/73/68 88/72/84 90/74/85
f 90/74/85 93/77/87 92/76/69
f 93/77/87 95/79/88 94/78/71
f 95/79/88 97/81/89 96/80/72
f 97/81/89 99/83/91 98/82/90
f 99/83/91 101/85/92 100/84/73
f 101/85/92 103/87/93 102/86/74
f 103/87/93 105/89/94 104/88/76
f 105/89/94 116/95/98 77/61/77
f 108/90/95 119/90/3 120/90/2
f 120/90/2 121/90/5 122/90/7
f 122/90/7 123/90/9 124/90/11
f 124/90/11 125/90/12 106/90/14
f 106/90/14 126/90/16 127/90/101
f 127/90/101 128/90/20 106/90/14
f 128/90/20 107/90/21 106/90/14
f 107/90/21 129/90/23 130/90/25
f 130/90/25 131/90/27 107/90/21
f 131/90/27 108/90/95 107/90/21
f 108/90/95 120/90/2 122/90/7
f 122/90/7 124/90/11 106/90/14
f 108/90/95 122/90/7 106/90/14
f 111/62/96 132/95/96 133/89/96
f 133/89/96 134/87/96 135/85/96
f 135/85/96 136/83/96 137/81/96
f 137/81/96 138/79/96 139/77/96
f 139/77/96 140/74/96 109/72/96
f 109/72/96 141/97/96 110/70/96
f 110/70/96 142/67/96 143/96/96
f 143/96/96 144/64/96 110/70/96
f 144/64/96 111/62/96 110/70/96
f 111/62/96 133/89/96 139/77/96
f 133/89/96 135/85/96 139/77/96
f 135/85/96 137/81/96 139/77/96
f 139/77/96 109/72/96 111/62/96
f 145/98/102 146/99/103 147/100/104
f 148/101/105 149/102/106 145/98/102
f 148/101/105 150/103/107 151/104/108
f 152/105/109 153/106/110 150/103/107
f 154/107/111 155/108/112 153/106/110
f 156/109/113 155/108/112 157/110/114
f 156/109/113 158/111/115 159/112/116
f 160/113/117 158/111/115 161/114/118
f 162/115/119 163/116/120 160/113/117
f 164/117/121 165/118/122 162/115/119
f 164/117/121 166/119/123 167/120/124
f 168/121/125 169/122/126 166/119/123
f 170/123/127 171/124/128 169/122/126
f 172/125/129 173/126/130 171/124/128
f 174/127/131 175/128/132 173/126/130
f 147/100/104 175/128/132 176/129/133
f 149/102/106 177/99/134 146/99/103
f 151/104/108 178/102/135 149/102/106
f 150/103/107 179/104/136 151/104/108
f 153/106/110 180/103/137 150/103/107
f 155/108/112 181/106/138 153/106/110
f 159/112/116 182/108/139 155/108/112
f 158/111/115 183/112/140 159/112/116
f 163/116/120 184/111/141 158/111/115
f 165/118/122 185/116/142 163/116/120
f 167/120/124 186/118/143 165/118/122
f 166/119/123 187/120/144 167/120/124
f 169/122/126 188/119/145 166/119/123
f 171/124/128 189/122/146 169/122/126
f 173/126/130 190/124/147 171/124/128
f 175/128/132 191/126/148 173/126/130
f 146/99/103 192/128/149 175/128/132
f 178/102/135 193/130/150 177/99/134
f 178/102/135 194/131/151 195/132/152
f 179/104/136 196/133/153 194/131/151
f 181/106/138 196/133/153 180/103/137
f 181/106/138 197/134/154 198/135/155
f 182/108/139 199/136/156 197/134/154
f 184/111/141 199/136/156 183/112/140
f 185/116/142 200/137/157 184/111/141
f 186/118/143 201/138/158 185/116/142
f 187/120/144 202/139/159 186/118/143
f 187/120/144 203/140/160 204/141/161
f 189/122/146 203/140/160 188/119/145
f 190/124/147 205/142/162 189/122/146
f 191/126/148 206/143/163 190/124/147
f 192/128/149 207/144/164 191/126/148
f 192/128/149 193/130/150 208/145/165
f 193/130/150 209/146/166 210/147/167
f 194/131/151 209/146/166 195/132/152
f 196/133/153 211/148/168 194/131/151
f 198/135/155 212/149/169 196/133/153
f 197/134/154 213/150/170 198/135/155
f 197/134/154 214/151/171 215/152/172
f 199/136/156 216/153/173 214/151/171
f 201/138/158 216/153/173 200/137/157
f 201/138/158 217/154/174 218/155/175
f 204/141/161 217/154/174 202/139/159
f 203/140/160 219/156/176 204/141/161
f 205/142/162 220/157/177 203/140/160
f 205/142/162 221/158/178 222/159/179
f 206/143/163 223/160/180 221/158/178
f 208/145/165 223/160/180 207/144/164
f 193/130/150 224/161/181 208/145/165
f 225/162/182 226/163/183 227/164/184
f 228/165/166 229/166/185 226/163/183
f 230/167/169 229/166/185 231/168/168
f 232/169/170 233/170/186 230/167/169
f 234/171/172 235/172/187 232/169/170
f 236/173/188 237/174/189 234/171/172
f 238/175/173 239/176/190 236/173/188
f 240/177/175 241/178/191 238/175/173
f 242/179/174 243/180/192 240/177/175
f 244/181/193 245/182/194 242/179/174
f 246/183/177 247/184/195 244/181/193
f 248/185/179 249/186/196 246/183/177
f 250/187/178 251/188/197 248/185/179
f 252/189/198 253/190/199 250/187/178
f 254/191/181 255/192/200 252/189/198
f 225/162/182 256/193/201 254/191/181
f 257/194/119 258/194/114 259/194/102
f 260/186/202 261/190/202 262/193/202
f 145/98/102 149/102/106 146/99/103
f 148/101/105 151/104/108 149/102/106
f 148/101/105 152/105/109 150/103/107
f 152/105/109 154/107/111 153/106/110
f 154/107/111 157/110/114 155/108/112
f 156/109/113 159/112/116 155/108/112
f 156/109/113 161/114/118 158/111/115
f 160/113/117 163/116/120 158/111/115
f 162/115/119 165/118/122 163/116/120
f 164/117/121 167/120/124 165/118/122
f 164/117/121 168/121/125 166/119/123
f 168/121/125 170/123/127 169/122/126
f 170/123/127 172/125/129 171/124/128
f 172/125/129 174/127/131 173/126/130
f 174/127/131 176/129/133 175/128/132
f 147/100/104 146/99/103 175/128/132
f 149/102/106 178/102/135 177/99/134
f 151/104/108 179/104/136 178/102/135
f 150/103/107 180/103/137 179/104/136
f 153/106/110 181/106/138 180/103/137
f 155/108/112 182/108/139 181/106/138
f 159/112/116 183/112/140 182/108/139
f 158/111/115 184/111/141 183/112/140
f 163/116/120 185/116/142 184/111/141
f 165/118/122 186/118/143 185/116/142
f 167/120/124 187/120/144 186/118/143
f 166/119/123 188/119/145 187/120/144
f 169/122/126 189/122/146 188/119/145
f 171/124/128 190/124/147 189/122/146
f 173/126/130 191/126/148 190/124/147
f 175/128/132 192/128/149 191/126/148
f 146/99/103 177/99/134 192/128/149
f 178/102/135 195/132/152 193/130/150
f 178/102/135 179/104/136 194/131/151
f 179/104/136 180/103/137 196/133/153
f 181/106/138 198/135/155 196/133/153
f 181/106/138 182/108/139 197/134/154
f 182/108/139 183/112/140 199/136/156
f 184/111/141 200/137/157 199/136/156
f 185/116/142 201/138/158 200/137/157
f 186/118/143 202/139/159 201/138/158
f 187/120/144 204/141/161 202/139/159
f 187/120/144 188/119/145 203/140/160
f 189/122/146 205/142/162 203/140/160
f 190/124/147 206/143/163 205/142/162
f 191/126/148 207/144/164 206/143/163
f 192/128/149 208/145/165 207/144/164
f 192/128/149 177/99/134 193/130/150
f 193/130/150 195/132/152 209/146/166
f 194/131/151 211/148/168 209/146/166
f 196/133/153 212/149/169 211/148/168
f 198/135/155 213/150/170 212/149/169
f 197/134/154 215/152/172 213/150/170
f 197/134/154 199/136/156 214/151/171
f 199/136/156 200/137/157 216/153/173
f 201/138/158 218/155/175 216/153/173
f 201/138/158 202/139/159 217/154/174
f 204/141/161 219/156/176 217/154/174
f 203/140/160 220/157/177 219/156/176
f 205/142/162 222/159/179 220/157/177
f 205/142/162 206/143/163 221/158/178
f 206/143/163 207/144/164 223/160/180
f 208/145/165 224/161/181 223/160/180
f 193/130/150 210/147/167 224/161/181
f 225/162/182 228/165/166 226/163/183
f 228/165/166 231/168/168 229/166/185
f 230/167/169 233/170/186 229/166/185
f 232/169/170 235/172/187 233/170/186
f 234/171/172 237/174/189 235/172/187
f 236/173/188 239/176/190 237/174/189
f 238/175/173 241/178/191 239/176/190
f 240/177/175 243/180/192 241/178/191
f 242/179/174 245/182/194 243/180/192
f 244/181/193 247/184/195 245/182/194
f 246/183/177 249/186/196 247/184/195
f 248/185/179 251/188/197 249/186/196
f 250/187/178 253/190/199 251/188/197
f 252/189/198 255/192/200 253/190/199
f 254/191/181 256/193/201 255/192/200
f 225/162/182 227/164/184 256/193/201
f 259/194/102 263/194/104 264/194/203
f 264/194/203 265/194/131 259/194/102
f 265/194/131 266/194/129 259/194/102
f 266/194/129 267/194/127 268/194/125
f 268/194/125 269/194/121 266/194/129
f 269/194/121 257/194/119 266/194/129
f 257/194/119 270/194/117 271/194/118
f 271/194/118 272/194/113 258/194/114
f 258/194/114 273/194/111 274/194/109
f 274/194/109 275/194/105 259/194/102
f 257/194/119 271/194/118 258/194/114
f 258/194/114 274/194/109 259/194/102
f 259/194/102 266/194/129 257/194/119
f 262/193/202 276/164/202 277/163/202
f 277/163/202 278/166/202 279/170/202
f 279/170/202 280/172/202 281/174/202
f 281/174/202 282/176/202 279/170/202
f 282/176/202 283/178/202 279/170/202
f 283/178/202 284/180/202 285/182/202
f 285/182/202 286/184/202 260/186/202
f 260/186/202 287/188/202 261/190/202
f 261/190/202 288/192/202 262/193/202
f 262/193/202 277/163/202 283/178/202
f 277/163/202 279/170/202 283/178/202
f 283/178/202 285/182/202 262/193/202
f 285/182/202 260/186/202 262/193/202
