# PSX Racing car model — generated by tools/carmodels/export_models.mjs
mtllib hatch_83_popup_wheels_r.mtl
v -0.783414 0.569962 1.110212
v -0.790427 0.550995 1.207180
v -0.783414 0.587060 1.207180
v -0.790427 0.493103 1.048124
v -0.790427 0.536072 1.122548
v -0.783414 0.445304 0.961651
v -0.783414 0.520731 1.024942
v -0.783414 0.352779 0.927974
v -0.790427 0.427271 0.992885
v -0.783414 0.254317 0.927974
v -0.790427 0.346517 0.963493
v -0.783414 0.161792 0.961651
v -0.790427 0.260579 0.963493
v -0.783414 0.086365 1.024942
v -0.790427 0.179825 0.992885
v -0.783414 0.037134 1.110212
v -0.790427 0.113993 1.048124
v -0.790427 0.056101 1.207180
v -0.790427 0.071024 1.122548
v -0.783414 0.037134 1.304147
v -0.783414 0.020036 1.207180
v -0.790427 0.113993 1.366236
v -0.790427 0.071024 1.291811
v -0.783414 0.161792 1.452708
v -0.783414 0.086365 1.389418
v -0.783414 0.254317 1.486385
v -0.790427 0.179825 1.421474
v -0.783414 0.352779 1.486385
v -0.790427 0.260579 1.450867
v -0.783414 0.445304 1.452708
v -0.790427 0.346517 1.450867
v -0.783414 0.520731 1.389418
v -0.790427 0.427271 1.421474
v -0.783414 0.569962 1.304147
v -0.790427 0.493103 1.366236
v -0.790427 0.536072 1.291811
v -0.760373 0.588790 1.103360
v -0.760373 0.607096 1.207180
v -0.760373 0.536079 1.012062
v -0.760373 0.455322 0.944299
v -0.760373 0.356258 0.908243
v -0.760373 0.250838 0.908243
v -0.760373 0.151774 0.944299
v -0.760373 0.071017 1.012062
v -0.760373 0.018306 1.103360
v -0.760373 0.018306 1.310999
v -0.760373 0.000000 1.207180
v -0.760373 0.071017 1.402297
v -0.760373 0.151774 1.470060
v -0.760373 0.250838 1.506116
v -0.760373 0.356258 1.506116
v -0.760373 0.455322 1.470060
v -0.760373 0.536079 1.402297
v -0.760373 0.588790 1.310999
v -0.620120 0.588790 1.103360
v -0.760373 0.607096 1.207180
v -0.620120 0.607096 1.207180
v -0.620120 0.536079 1.012062
v -0.760373 0.588790 1.103360
v -0.620120 0.455322 0.944299
v -0.760373 0.536079 1.012062
v -0.620120 0.356258 0.908243
v -0.760373 0.455322 0.944299
v -0.620120 0.250838 0.908243
v -0.760373 0.356258 0.908243
v -0.620120 0.151774 0.944299
v -0.760373 0.250838 0.908243
v -0.620120 0.071017 1.012062
v -0.760373 0.151774 0.944299
v -0.620120 0.018306 1.103360
v -0.760373 0.071017 1.012062
v -0.620120 0.000000 1.207180
v -0.760373 0.018306 1.103360
v -0.620120 0.018306 1.310999
v -0.760373 0.000000 1.207180
v -0.620120 0.071017 1.402297
v -0.760373 0.018306 1.310999
v -0.620120 0.151774 1.470060
v -0.760373 0.071017 1.402297
v -0.620120 0.250838 1.506116
v -0.760373 0.151774 1.470060
v -0.620120 0.356258 1.506116
v -0.760373 0.250838 1.506116
v -0.620120 0.455322 1.470060
v -0.760373 0.356258 1.506116
v -0.620120 0.536079 1.402297
v -0.760373 0.455322 1.470060
v -0.620120 0.588790 1.310999
v -0.760373 0.536079 1.402297
v -0.760373 0.588790 1.310999
v -0.597078 0.569962 1.110212
v -0.620120 0.607096 1.207180
v -0.597078 0.587060 1.207180
v -0.620120 0.536079 1.012062
v -0.620120 0.588790 1.103360
v -0.597078 0.520731 1.024942
v -0.620120 0.455322 0.944299
v -0.597078 0.445304 0.961651
v -0.620120 0.356258 0.908243
v -0.597078 0.254317 0.927974
v -0.597078 0.352779 0.927974
v -0.597078 0.161792 0.961651
v -0.620120 0.250838 0.908243
v -0.597078 0.086365 1.024942
v -0.620120 0.151774 0.944299
v -0.597078 0.037134 1.110212
v -0.620120 0.071017 1.012062
v -0.597078 0.020036 1.207180
v -0.620120 0.018306 1.103360
v -0.597078 0.037134 1.304147
v -0.620120 0.000000 1.207180
v -0.620120 0.071017 1.402297
v -0.620120 0.018306 1.310999
v -0.597078 0.086365 1.389418
v -0.620120 0.151774 1.470060
v -0.597078 0.161792 1.452708
v -0.620120 0.250838 1.506116
v -0.597078 0.352779 1.486385
v -0.597078 0.254317 1.486385
v -0.597078 0.445304 1.452708
v -0.620120 0.356258 1.506116
v -0.597078 0.520731 1.389418
v -0.620120 0.455322 1.470060
v -0.597078 0.569962 1.304147
v -0.620120 0.536079 1.402297
v -0.620120 0.588790 1.310999
v -0.590065 0.536072 1.122548
v -0.590065 0.550995 1.207180
v -0.590065 0.493103 1.048124
v -0.590065 0.427271 0.992885
v -0.590065 0.346517 0.963493
v -0.590065 0.260579 0.963493
v -0.590065 0.179825 0.992885
v -0.590065 0.113993 1.048124
v -0.590065 0.071024 1.122548
v -0.590065 0.071024 1.291811
v -0.590065 0.056101 1.207180
v -0.590065 0.113993 1.366236
v -0.590065 0.179825 1.421474
v -0.590065 0.260579 1.450867
v -0.590065 0.346517 1.450867
v -0.590065 0.427271 1.421474
v -0.590065 0.493103 1.366236
v -0.590065 0.536072 1.291811
v -0.791429 0.303548 1.207180
v -0.791429 0.550995 1.207180
v -0.791429 0.536072 1.122548
v -0.791429 0.493103 1.048124
v -0.791429 0.427271 0.992885
v -0.791429 0.346517 0.963493
v -0.791429 0.260579 0.963493
v -0.791429 0.179825 0.992885
v -0.791429 0.113993 1.048124
v -0.791429 0.071024 1.122548
v -0.791429 0.056101 1.207180
v -0.791429 0.071024 1.291811
v -0.791429 0.113993 1.366236
v -0.791429 0.179825 1.421474
v -0.791429 0.260579 1.450867
v -0.791429 0.346517 1.450867
v -0.791429 0.427271 1.421474
v -0.791429 0.493103 1.366236
v -0.791429 0.536072 1.291811
v -0.589064 0.536072 1.122548
v -0.589064 0.550995 1.207180
v -0.589064 0.303548 1.207180
v -0.589064 0.493103 1.048124
v -0.589064 0.427271 0.992885
v -0.589064 0.346517 0.963493
v -0.589064 0.260579 0.963493
v -0.589064 0.179825 0.992885
v -0.589064 0.113993 1.048124
v -0.589064 0.071024 1.122548
v -0.589064 0.056101 1.207180
v -0.589064 0.071024 1.291811
v -0.589064 0.113993 1.366236
v -0.589064 0.179825 1.421474
v -0.589064 0.260579 1.450867
v -0.589064 0.346517 1.450867
v -0.589064 0.427271 1.421474
v -0.589064 0.493103 1.366236
v -0.589064 0.536072 1.291811
v 0.597078 0.569962 1.110212
v 0.590065 0.550995 1.207180
v 0.597078 0.587060 1.207180
v 0.590065 0.493103 1.048124
v 0.590065 0.536072 1.122548
v 0.597078 0.445304 0.961651
v 0.597078 0.520731 1.024942
v 0.597078 0.352779 0.927974
v 0.590065 0.427271 0.992885
v 0.597078 0.254317 0.927974
v 0.590065 0.346517 0.963493
v 0.597078 0.161792 0.961651
v 0.590065 0.260579 0.963493
v 0.597078 0.086365 1.024942
v 0.590065 0.179825 0.992885
v 0.597078 0.037134 1.110212
v 0.590065 0.113993 1.048124
v 0.590065 0.056101 1.207180
v 0.590065 0.071024 1.122548
v 0.597078 0.037134 1.304147
v 0.597078 0.020036 1.207180
v 0.590065 0.113993 1.366236
v 0.590065 0.071024 1.291811
v 0.597078 0.161792 1.452708
v 0.597078 0.086365 1.389418
v 0.597078 0.254317 1.486385
v 0.590065 0.179825 1.421474
v 0.597078 0.352779 1.486385
v 0.590065 0.260579 1.450867
v 0.597078 0.445304 1.452708
v 0.590065 0.346517 1.450867
v 0.597078 0.520731 1.389418
v 0.590065 0.427271 1.421474
v 0.597078 0.569962 1.304147
v 0.590065 0.493103 1.366236
v 0.590065 0.536072 1.291811
v 0.620120 0.588790 1.103360
v 0.620120 0.607096 1.207180
v 0.620120 0.536079 1.012062
v 0.620120 0.455322 0.944299
v 0.620120 0.356258 0.908243
v 0.620120 0.250838 0.908243
v 0.620120 0.151774 0.944299
v 0.620120 0.071017 1.012062
v 0.620120 0.018306 1.103360
v 0.620120 0.018306 1.310999
v 0.620120 0.000000 1.207180
v 0.620120 0.071017 1.402297
v 0.620120 0.151774 1.470060
v 0.620120 0.250838 1.506116
v 0.620120 0.356258 1.506116
v 0.620120 0.455322 1.470060
v 0.620120 0.536079 1.402297
v 0.620120 0.588790 1.310999
v 0.760373 0.588790 1.103360
v 0.620120 0.607096 1.207180
v 0.760373 0.607096 1.207180
v 0.760373 0.536079 1.012062
v 0.620120 0.588790 1.103360
v 0.760373 0.455322 0.944299
v 0.620120 0.536079 1.012062
v 0.760373 0.356258 0.908243
v 0.620120 0.455322 0.944299
v 0.760373 0.250838 0.908243
v 0.620120 0.356258 0.908243
v 0.760373 0.151774 0.944299
v 0.620120 0.250838 0.908243
v 0.760373 0.071017 1.012062
v 0.620120 0.151774 0.944299
v 0.760373 0.018306 1.103360
v 0.620120 0.071017 1.012062
v 0.760373 0.000000 1.207180
v 0.620120 0.018306 1.103360
v 0.760373 0.018306 1.310999
v 0.620120 0.000000 1.207180
v 0.760373 0.071017 1.402297
v 0.620120 0.018306 1.310999
v 0.760373 0.151774 1.470060
v 0.620120 0.071017 1.402297
v 0.760373 0.250838 1.506116
v 0.620120 0.151774 1.470060
v 0.760373 0.356258 1.506116
v 0.620120 0.250838 1.506116
v 0.760373 0.455322 1.470060
v 0.620120 0.356258 1.506116
v 0.760373 0.536079 1.402297
v 0.620120 0.455322 1.470060
v 0.760373 0.588790 1.310999
v 0.620120 0.536079 1.402297
v 0.620120 0.588790 1.310999
v 0.783414 0.569962 1.110212
v 0.760373 0.607096 1.207180
v 0.783414 0.587060 1.207180
v 0.760373 0.536079 1.012062
v 0.760373 0.588790 1.103360
v 0.783414 0.520731 1.024942
v 0.760373 0.455322 0.944299
v 0.783414 0.445304 0.961651
v 0.760373 0.356258 0.908243
v 0.783414 0.254317 0.927974
v 0.783414 0.352779 0.927974
v 0.783414 0.161792 0.961651
v 0.760373 0.250838 0.908243
v 0.783414 0.086365 1.024942
v 0.760373 0.151774 0.944299
v 0.783414 0.037134 1.110212
v 0.760373 0.071017 1.012062
v 0.783414 0.020036 1.207180
v 0.760373 0.018306 1.103360
v 0.783414 0.037134 1.304147
v 0.760373 0.000000 1.207180
v 0.760373 0.071017 1.402297
v 0.760373 0.018306 1.310999
v 0.783414 0.086365 1.389418
v 0.760373 0.151774 1.470060
v 0.783414 0.161792 1.452708
v 0.760373 0.250838 1.506116
v 0.783414 0.352779 1.486385
v 0.783414 0.254317 1.486385
v 0.783414 0.445304 1.452708
v 0.760373 0.356258 1.506116
v 0.783414 0.520731 1.389418
v 0.760373 0.455322 1.470060
v 0.783414 0.569962 1.304147
v 0.760373 0.536079 1.402297
v 0.760373 0.588790 1.310999
v 0.790427 0.536072 1.122548
v 0.790427 0.550995 1.207180
v 0.790427 0.493103 1.048124
v 0.790427 0.427271 0.992885
v 0.790427 0.346517 0.963493
v 0.790427 0.260579 0.963493
v 0.790427 0.179825 0.992885
v 0.790427 0.113993 1.048124
v 0.790427 0.071024 1.122548
v 0.790427 0.071024 1.291811
v 0.790427 0.056101 1.207180
v 0.790427 0.113993 1.366236
v 0.790427 0.179825 1.421474
v 0.790427 0.260579 1.450867
v 0.790427 0.346517 1.450867
v 0.790427 0.427271 1.421474
v 0.790427 0.493103 1.366236
v 0.790427 0.536072 1.291811
v 0.589064 0.303548 1.207180
v 0.589064 0.550995 1.207180
v 0.589064 0.536072 1.122548
v 0.589064 0.493103 1.048124
v 0.589064 0.427271 0.992885
v 0.589064 0.346517 0.963493
v 0.589064 0.260579 0.963493
v 0.589064 0.179825 0.992885
v 0.589064 0.113993 1.048124
v 0.589064 0.071024 1.122548
v 0.589064 0.056101 1.207180
v 0.589064 0.071024 1.291811
v 0.589064 0.113993 1.366236
v 0.589064 0.179825 1.421474
v 0.589064 0.260579 1.450867
v 0.589064 0.346517 1.450867
v 0.589064 0.427271 1.421474
v 0.589064 0.493103 1.366236
v 0.589064 0.536072 1.291811
v 0.791429 0.536072 1.122548
v 0.791429 0.550995 1.207180
v 0.791429 0.303548 1.207180
v 0.791429 0.493103 1.048124
v 0.791429 0.427271 0.992885
v 0.791429 0.346517 0.963493
v 0.791429 0.260579 0.963493
v 0.791429 0.179825 0.992885
v 0.791429 0.113993 1.048124
v 0.791429 0.071024 1.122548
v 0.791429 0.056101 1.207180
v 0.791429 0.071024 1.291811
v 0.791429 0.113993 1.366236
v 0.791429 0.179825 1.421474
v 0.791429 0.260579 1.450867
v 0.791429 0.346517 1.450867
v 0.791429 0.427271 1.421474
v 0.791429 0.493103 1.366236
v 0.791429 0.536072 1.291811
vt 0.218750 0.937500
vt 0.097656 0.679688
vt 0.097656 0.865234
vt 0.129387 0.854045
vt 0.157290 0.821825
vt 0.178000 0.772461
vt 0.189020 0.711907
vt 0.189020 0.647468
vt 0.178000 0.586914
vt 0.157290 0.537550
vt 0.129387 0.505330
vt 0.097656 0.494141
vt 0.065926 0.505330
vt 0.038023 0.537550
vt 0.017312 0.586914
vt 0.006292 0.647468
vt 0.006292 0.711907
vt 0.017312 0.772461
vt 0.038023 0.821825
vt 0.065926 0.854045
vt 0.218750 0.937500
vt 0.097656 0.679688
vt 0.097656 0.865234
vt 0.129387 0.854045
vt 0.157290 0.821825
vt 0.178000 0.772461
vt 0.189020 0.711907
vt 0.189020 0.647468
vt 0.178000 0.586914
vt 0.157290 0.537550
vt 0.129387 0.505330
vt 0.097656 0.494141
vt 0.065926 0.505330
vt 0.038023 0.537550
vt 0.017312 0.586914
vt 0.006292 0.647468
vt 0.006292 0.711907
vt 0.017312 0.772461
vt 0.038023 0.821825
vt 0.065926 0.854045
vn -0.850400 0.494400 -0.179900
vn -0.981600 0.190900 0.000000
vn -0.850400 0.526100 0.000000
vn -0.981600 0.146200 -0.122700
vn -0.981600 0.179400 -0.065300
vn -0.850400 0.263000 -0.455600
vn -0.850400 0.403000 -0.338200
vn -0.850400 0.091400 -0.518100
vn -0.981600 0.095400 -0.165300
vn -0.850400 -0.091400 -0.518100
vn -0.981600 0.033100 -0.188000
vn -0.850400 -0.263000 -0.455600
vn -0.981600 -0.033100 -0.188000
vn -0.850400 -0.403000 -0.338200
vn -0.981600 -0.095400 -0.165300
vn -0.850400 -0.494400 -0.179900
vn -0.981600 -0.146200 -0.122700
vn -0.981600 -0.190900 0.000000
vn -0.981600 -0.179400 -0.065300
vn -0.850400 -0.494400 0.179900
vn -0.850400 -0.526100 0.000000
vn -0.981600 -0.146200 0.122700
vn -0.981600 -0.179400 0.065300
vn -0.850400 -0.263000 0.455600
vn -0.850400 -0.403000 0.338200
vn -0.850400 -0.091400 0.518100
vn -0.981600 -0.095400 0.165300
vn -0.850400 0.091400 0.518100
vn -0.981600 -0.033100 0.188000
vn -0.850400 0.263000 0.455600
vn -0.981600 0.033100 0.188000
vn -0.850400 0.403000 0.338200
vn -0.981600 0.095400 0.165300
vn -0.850400 0.494400 0.179900
vn -0.981600 0.146200 0.122700
vn -0.981600 0.179400 0.065300
vn -0.656200 0.709100 -0.258100
vn -0.656200 0.754600 0.000000
vn -0.656200 0.578100 -0.485100
vn -0.656200 0.377300 -0.653500
vn -0.656200 0.131000 -0.743100
vn -0.656200 -0.131000 -0.743100
vn -0.656200 -0.377300 -0.653500
vn -0.656200 -0.578100 -0.485100
vn -0.656200 -0.709100 -0.258100
vn -0.656200 -0.709100 0.258100
vn -0.656200 -0.754600 0.000000
vn -0.656200 -0.578100 0.485100
vn -0.656200 -0.377300 0.653500
vn -0.656200 -0.131000 0.743100
vn -0.656200 0.131000 0.743100
vn -0.656200 0.377300 0.653500
vn -0.656200 0.578100 0.485100
vn -0.656200 0.709100 0.258100
vn 0.000000 0.939700 -0.342000
vn 0.000000 1.000000 0.000000
vn 0.000000 0.766000 -0.642800
vn 0.000000 0.500000 -0.866000
vn 0.000000 0.173700 -0.984800
vn 0.000000 -0.173600 -0.984800
vn 0.000000 0.173600 -0.984800
vn 0.000000 -0.500000 -0.866000
vn 0.000000 -0.173700 -0.984800
vn 0.000000 -0.766000 -0.642800
vn 0.000000 -0.939700 -0.342000
vn 0.000000 -1.000000 0.000000
vn 0.000000 -0.939700 0.342000
vn 0.000000 -0.766000 0.642800
vn 0.000000 -0.500000 0.866000
vn 0.000000 -0.173700 0.984800
vn 0.000000 0.173600 0.984800
vn 0.000000 -0.173600 0.984800
vn 0.000000 0.500000 0.866000
vn 0.000000 0.173700 0.984800
vn 0.000000 0.766000 0.642800
vn 0.000000 0.939700 0.342000
vn 0.850400 0.494400 -0.179900
vn 0.656200 0.754600 0.000000
vn 0.850400 0.526100 0.000000
vn 0.656200 0.578100 -0.485100
vn 0.656200 0.709100 -0.258100
vn 0.850400 0.403000 -0.338200
vn 0.656200 0.377300 -0.653500
vn 0.850400 0.263000 -0.455600
vn 0.656200 0.131000 -0.743100
vn 0.850400 -0.091400 -0.518100
vn 0.850400 0.091400 -0.518100
vn 0.850400 -0.263000 -0.455600
vn 0.656200 -0.131000 -0.743100
vn 0.850400 -0.403000 -0.338200
vn 0.656200 -0.377300 -0.653500
vn 0.850400 -0.494400 -0.179900
vn 0.656200 -0.578100 -0.485100
vn 0.850400 -0.526100 0.000000
vn 0.656200 -0.709100 -0.258100
vn 0.850400 -0.494400 0.179900
vn 0.656200 -0.754600 0.000000
vn 0.656200 -0.578100 0.485100
vn 0.656200 -0.709100 0.258100
vn 0.850400 -0.403000 0.338200
vn 0.656200 -0.377300 0.653500
vn 0.850400 -0.263000 0.455600
vn 0.656200 -0.131000 0.743100
vn 0.850400 0.091400 0.518100
vn 0.850400 -0.091400 0.518100
vn 0.850400 0.263000 0.455600
vn 0.656200 0.131000 0.743100
vn 0.850400 0.403000 0.338200
vn 0.656200 0.377300 0.653500
vn 0.850400 0.494400 0.179900
vn 0.656200 0.578100 0.485100
vn 0.656200 0.709100 0.258100
vn 0.981600 0.179400 -0.065300
vn 0.981600 0.190900 0.000000
vn 0.981600 0.146200 -0.122700
vn 0.981600 0.095400 -0.165300
vn 0.981600 0.033100 -0.188000
vn 0.981600 -0.033100 -0.188000
vn 0.981600 -0.095400 -0.165300
vn 0.981600 -0.146200 -0.122700
vn 0.981600 -0.179400 -0.065300
vn 0.981600 -0.179400 0.065300
vn 0.981600 -0.190900 0.000000
vn 0.981600 -0.146200 0.122700
vn 0.981600 -0.095400 0.165300
vn 0.981600 -0.033100 0.188000
vn 0.981600 0.033100 0.188000
vn 0.981600 0.095400 0.165300
vn 0.981600 0.146200 0.122700
vn 0.981600 0.179400 0.065300
vn -1.000000 0.000000 0.000000
vn 1.000000 0.000000 0.000000
vn -0.850400 0.494400 -0.179900
vn -0.981600 0.190900 0.000000
vn -0.850400 0.526100 0.000000
vn -0.981600 0.146200 -0.122700
vn -0.981600 0.179400 -0.065300
vn -0.850400 0.263000 -0.455600
vn -0.850400 0.403000 -0.338200
vn -0.850400 0.091400 -0.518100
vn -0.981600 0.095400 -0.165300
vn -0.850400 -0.091400 -0.518100
vn -0.981600 0.033100 -0.188000
vn -0.850400 -0.263000 -0.455600
vn -0.981600 -0.033100 -0.188000
vn -0.850400 -0.403000 -0.338200
vn -0.981600 -0.095400 -0.165300
vn -0.850400 -0.494400 -0.179900
vn -0.981600 -0.146200 -0.122700
vn -0.981600 -0.190900 0.000000
vn -0.981600 -0.179400 -0.065300
vn -0.850400 -0.494400 0.179900
vn -0.850400 -0.526100 0.000000
vn -0.981600 -0.146200 0.122700
vn -0.981600 -0.179400 0.065300
vn -0.850400 -0.263000 0.455600
vn -0.850400 -0.403000 0.338200
vn -0.850400 -0.091400 0.518100
vn -0.981600 -0.095400 0.165300
vn -0.850400 0.091400 0.518100
vn -0.981600 -0.033100 0.188000
vn -0.850400 0.263000 0.455600
vn -0.981600 0.033100 0.188000
vn -0.850400 0.403000 0.338200
vn -0.981600 0.095400 0.165300
vn -0.850400 0.494400 0.179900
vn -0.981600 0.146200 0.122700
vn -0.981600 0.179400 0.065300
vn -0.656200 0.709100 -0.258100
vn -0.656200 0.754600 0.000000
vn -0.656200 0.578100 -0.485100
vn -0.656200 0.377300 -0.653500
vn -0.656200 0.131000 -0.743100
vn -0.656200 -0.131000 -0.743100
vn -0.656200 -0.377300 -0.653500
vn -0.656200 -0.578100 -0.485100
vn -0.656200 -0.709100 -0.258100
vn -0.656200 -0.709100 0.258100
vn -0.656200 -0.754600 0.000000
vn -0.656200 -0.578100 0.485100
vn -0.656200 -0.377300 0.653500
vn -0.656200 -0.131000 0.743100
vn -0.656200 0.131000 0.743100
vn -0.656200 0.377300 0.653500
vn -0.656200 0.578100 0.485100
vn -0.656200 0.709100 0.258100
vn 0.000000 0.939700 -0.342000
vn 0.000000 1.000000 0.000000
vn 0.000000 0.766000 -0.642800
vn 0.000000 0.500000 -0.866000
vn 0.000000 0.173700 -0.984800
vn 0.000000 -0.173600 -0.984800
vn 0.000000 0.173600 -0.984800
vn 0.000000 -0.500000 -0.866000
vn 0.000000 -0.173700 -0.984800
vn 0.000000 -0.766000 -0.642800
vn 0.000000 -0.939700 -0.342000
vn 0.000000 -1.000000 0.000000
vn 0.000000 -0.939700 0.342000
vn 0.000000 -0.766000 0.642800
vn 0.000000 -0.500000 0.866000
vn 0.000000 -0.173700 0.984800
vn 0.000000 0.173600 0.984800
vn 0.000000 -0.173600 0.984800
vn 0.000000 0.500000 0.866000
vn 0.000000 0.173700 0.984800
vn 0.000000 0.766000 0.642800
vn 0.000000 0.939700 0.342000
vn 0.850400 0.494400 -0.179900
vn 0.656200 0.754600 0.000000
vn 0.850400 0.526100 0.000000
vn 0.656200 0.578100 -0.485100
vn 0.656200 0.709100 -0.258100
vn 0.850400 0.403000 -0.338200
vn 0.656200 0.377300 -0.653500
vn 0.850400 0.263000 -0.455600
vn 0.656200 0.131000 -0.743100
vn 0.850400 -0.091400 -0.518100
vn 0.850400 0.091400 -0.518100
vn 0.850400 -0.263000 -0.455600
vn 0.656200 -0.131000 -0.743100
vn 0.850400 -0.403000 -0.338200
vn 0.656200 -0.377300 -0.653500
vn 0.850400 -0.494400 -0.179900
vn 0.656200 -0.578100 -0.485100
vn 0.850400 -0.526100 0.000000
vn 0.656200 -0.709100 -0.258100
vn 0.850400 -0.494400 0.179900
vn 0.656200 -0.754600 0.000000
vn 0.656200 -0.578100 0.485100
vn 0.656200 -0.709100 0.258100
vn 0.850400 -0.403000 0.338200
vn 0.656200 -0.377300 0.653500
vn 0.850400 -0.263000 0.455600
vn 0.656200 -0.131000 0.743100
vn 0.850400 0.091400 0.518100
vn 0.850400 -0.091400 0.518100
vn 0.850400 0.263000 0.455600
vn 0.656200 0.131000 0.743100
vn 0.850400 0.403000 0.338200
vn 0.656200 0.377300 0.653500
vn 0.850400 0.494400 0.179900
vn 0.656200 0.578100 0.485100
vn 0.656200 0.709100 0.258100
vn 0.981600 0.179400 -0.065300
vn 0.981600 0.190900 0.000000
vn 0.981600 0.146200 -0.122700
vn 0.981600 0.095400 -0.165300
vn 0.981600 0.033100 -0.188000
vn 0.981600 -0.033100 -0.188000
vn 0.981600 -0.095400 -0.165300
vn 0.981600 -0.146200 -0.122700
vn 0.981600 -0.179400 -0.065300
vn 0.981600 -0.179400 0.065300
vn 0.981600 -0.190900 0.000000
vn 0.981600 -0.146200 0.122700
vn 0.981600 -0.095400 0.165300
vn 0.981600 -0.033100 0.188000
vn 0.981600 0.033100 0.188000
vn 0.981600 0.095400 0.165300
vn 0.981600 0.146200 0.122700
vn 0.981600 0.179400 0.065300
vn -1.000000 0.000000 0.000000
vn 1.000000 0.000000 0.000000
o hatch_83_popup_wheels_r
usemtl hatch_83_popup_wheels_r
f 1/1/1 2/1/2 3/1/3
f 1/1/1 4/1/4 5/1/5
f 6/1/6 4/1/4 7/1/7
f 8/1/8 9/1/9 6/1/6
f 10/1/10 11/1/11 8/1/8
f 12/1/12 13/1/13 10/1/10
f 14/1/14 15/1/15 12/1/12
f 16/1/16 17/1/17 14/1/14
f 16/1/16 18/1/18 19/1/19
f 20/1/20 18/1/18 21/1/21
f 20/1/20 22/1/22 23/1/23
f 24/1/24 22/1/22 25/1/25
f 26/1/26 27/1/27 24/1/24
f 28/1/28 29/1/29 26/1/26
f 30/1/30 31/1/31 28/1/28
f 32/1/32 33/1/33 30/1/30
f 34/1/34 35/1/35 32/1/32
f 34/1/34 2/1/2 36/1/36
f 37/1/37 3/1/3 38/1/38
f 39/1/39 1/1/1 37/1/37
f 40/1/40 7/1/7 39/1/39
f 41/1/41 6/1/6 40/1/40
f 42/1/42 8/1/8 41/1/41
f 43/1/43 10/1/10 42/1/42
f 43/1/43 14/1/14 12/1/12
f 44/1/44 16/1/16 14/1/14
f 45/1/45 21/1/21 16/1/16
f 46/1/46 21/1/21 47/1/47
f 48/1/48 20/1/20 46/1/46
f 49/1/49 25/1/25 48/1/48
f 50/1/50 24/1/24 49/1/49
f 51/1/51 26/1/26 50/1/50
f 52/1/52 28/1/28 51/1/51
f 52/1/52 32/1/32 30/1/30
f 53/1/53 34/1/34 32/1/32
f 54/1/54 3/1/3 34/1/34
f 55/1/55 56/1/56 57/1/56
f 58/1/57 59/1/55 55/1/55
f 60/1/58 61/1/57 58/1/57
f 62/1/59 63/1/58 60/1/58
f 64/1/60 65/1/61 62/1/59
f 66/1/62 67/1/63 64/1/60
f 68/1/64 69/1/62 66/1/62
f 70/1/65 71/1/64 68/1/64
f 72/1/66 73/1/65 70/1/65
f 74/1/67 75/1/66 72/1/66
f 76/1/68 77/1/67 74/1/67
f 78/1/69 79/1/68 76/1/68
f 80/1/70 81/1/69 78/1/69
f 82/1/71 83/1/72 80/1/70
f 84/1/73 85/1/74 82/1/71
f 86/1/75 87/1/73 84/1/73
f 88/1/76 89/1/75 86/1/75
f 57/1/56 90/1/76 88/1/76
f 91/1/77 92/1/78 93/1/79
f 91/1/77 94/1/80 95/1/81
f 96/1/82 97/1/83 94/1/80
f 98/1/84 99/1/85 97/1/83
f 100/1/86 99/1/85 101/1/87
f 102/1/88 103/1/89 100/1/86
f 104/1/90 105/1/91 102/1/88
f 106/1/92 107/1/93 104/1/90
f 108/1/94 109/1/95 106/1/92
f 110/1/96 111/1/97 108/1/94
f 110/1/96 112/1/98 113/1/99
f 114/1/100 115/1/101 112/1/98
f 116/1/102 117/1/103 115/1/101
f 118/1/104 117/1/103 119/1/105
f 120/1/106 121/1/107 118/1/104
f 122/1/108 123/1/109 120/1/106
f 124/1/110 125/1/111 122/1/108
f 93/1/79 126/1/112 124/1/110
f 127/1/113 93/1/79 128/1/114
f 129/1/115 91/1/77 127/1/113
f 130/1/116 96/1/82 129/1/115
f 131/1/117 98/1/84 130/1/116
f 132/1/118 101/1/87 131/1/117
f 133/1/119 100/1/86 132/1/118
f 133/1/119 104/1/90 102/1/88
f 134/1/120 106/1/92 104/1/90
f 135/1/121 108/1/94 106/1/92
f 136/1/122 108/1/94 137/1/123
f 138/1/124 110/1/96 136/1/122
f 139/1/125 114/1/100 138/1/124
f 140/1/126 116/1/102 139/1/125
f 141/1/127 119/1/105 140/1/126
f 142/1/128 118/1/104 141/1/127
f 142/1/128 122/1/108 120/1/106
f 143/1/129 124/1/110 122/1/108
f 144/1/130 93/1/79 124/1/110
f 145/2/131 146/3/131 147/4/131
f 145/2/131 147/4/131 148/5/131
f 145/2/131 148/5/131 149/6/131
f 145/2/131 149/6/131 150/7/131
f 145/2/131 150/7/131 151/8/131
f 145/2/131 151/8/131 152/9/131
f 145/2/131 152/9/131 153/10/131
f 145/2/131 153/10/131 154/11/131
f 145/2/131 154/11/131 155/12/131
f 145/2/131 155/12/131 156/13/131
f 145/2/131 156/13/131 157/14/131
f 145/2/131 157/14/131 158/15/131
f 145/2/131 158/15/131 159/16/131
f 145/2/131 159/16/131 160/17/131
f 145/2/131 160/17/131 161/18/131
f 145/2/131 161/18/131 162/19/131
f 145/2/131 162/19/131 163/20/131
f 145/2/131 163/20/131 146/3/131
f 164/4/132 165/3/132 166/2/132
f 167/5/132 164/4/132 166/2/132
f 168/6/132 167/5/132 166/2/132
f 169/7/132 168/6/132 166/2/132
f 170/8/132 169/7/132 166/2/132
f 171/9/132 170/8/132 166/2/132
f 172/10/132 171/9/132 166/2/132
f 173/11/132 172/10/132 166/2/132
f 174/12/132 173/11/132 166/2/132
f 175/13/132 174/12/132 166/2/132
f 176/14/132 175/13/132 166/2/132
f 177/15/132 176/14/132 166/2/132
f 178/16/132 177/15/132 166/2/132
f 179/17/132 178/16/132 166/2/132
f 180/18/132 179/17/132 166/2/132
f 181/19/132 180/18/132 166/2/132
f 182/20/132 181/19/132 166/2/132
f 165/3/132 182/20/132 166/2/132
f 1/1/1 5/1/5 2/1/2
f 1/1/1 7/1/7 4/1/4
f 6/1/6 9/1/9 4/1/4
f 8/1/8 11/1/11 9/1/9
f 10/1/10 13/1/13 11/1/11
f 12/1/12 15/1/15 13/1/13
f 14/1/14 17/1/17 15/1/15
f 16/1/16 19/1/19 17/1/17
f 16/1/16 21/1/21 18/1/18
f 20/1/20 23/1/23 18/1/18
f 20/1/20 25/1/25 22/1/22
f 24/1/24 27/1/27 22/1/22
f 26/1/26 29/1/29 27/1/27
f 28/1/28 31/1/31 29/1/29
f 30/1/30 33/1/33 31/1/31
f 32/1/32 35/1/35 33/1/33
f 34/1/34 36/1/36 35/1/35
f 34/1/34 3/1/3 2/1/2
f 37/1/37 1/1/1 3/1/3
f 39/1/39 7/1/7 1/1/1
f 40/1/40 6/1/6 7/1/7
f 41/1/41 8/1/8 6/1/6
f 42/1/42 10/1/10 8/1/8
f 43/1/43 12/1/12 10/1/10
f 43/1/43 44/1/44 14/1/14
f 44/1/44 45/1/45 16/1/16
f 45/1/45 47/1/47 21/1/21
f 46/1/46 20/1/20 21/1/21
f 48/1/48 25/1/25 20/1/20
f 49/1/49 24/1/24 25/1/25
f 50/1/50 26/1/26 24/1/24
f 51/1/51 28/1/28 26/1/26
f 52/1/52 30/1/30 28/1/28
f 52/1/52 53/1/53 32/1/32
f 53/1/53 54/1/54 34/1/34
f 54/1/54 38/1/38 3/1/3
f 55/1/55 59/1/55 56/1/56
f 58/1/57 61/1/57 59/1/55
f 60/1/58 63/1/58 61/1/57
f 62/1/59 65/1/61 63/1/58
f 64/1/60 67/1/63 65/1/61
f 66/1/62 69/1/62 67/1/63
f 68/1/64 71/1/64 69/1/62
f 70/1/65 73/1/65 71/1/64
f 72/1/66 75/1/66 73/1/65
f 74/1/67 77/1/67 75/1/66
f 76/1/68 79/1/68 77/1/67
f 78/1/69 81/1/69 79/1/68
f 80/1/70 83/1/72 81/1/69
f 82/1/71 85/1/74 83/1/72
f 84/1/73 87/1/73 85/1/74
f 86/1/75 89/1/75 87/1/73
f 88/1/76 90/1/76 89/1/75
f 57/1/56 56/1/56 90/1/76
f 91/1/77 95/1/81 92/1/78
f 91/1/77 96/1/82 94/1/80
f 96/1/82 98/1/84 97/1/83
f 98/1/84 101/1/87 99/1/85
f 100/1/86 103/1/89 99/1/85
f 102/1/88 105/1/91 103/1/89
f 104/1/90 107/1/93 105/1/91
f 106/1/92 109/1/95 107/1/93
f 108/1/94 111/1/97 109/1/95
f 110/1/96 113/1/99 111/1/97
f 110/1/96 114/1/100 112/1/98
f 114/1/100 116/1/102 115/1/101
f 116/1/102 119/1/105 117/1/103
f 118/1/104 121/1/107 117/1/103
f 120/1/106 123/1/109 121/1/107
f 122/1/108 125/1/111 123/1/109
f 124/1/110 126/1/112 125/1/111
f 93/1/79 92/1/78 126/1/112
f 127/1/113 91/1/77 93/1/79
f 129/1/115 96/1/82 91/1/77
f 130/1/116 98/1/84 96/1/82
f 131/1/117 101/1/87 98/1/84
f 132/1/118 100/1/86 101/1/87
f 133/1/119 102/1/88 100/1/86
f 133/1/119 134/1/120 104/1/90
f 134/1/120 135/1/121 106/1/92
f 135/1/121 137/1/123 108/1/94
f 136/1/122 110/1/96 108/1/94
f 138/1/124 114/1/100 110/1/96
f 139/1/125 116/1/102 114/1/100
f 140/1/126 119/1/105 116/1/102
f 141/1/127 118/1/104 119/1/105
f 142/1/128 120/1/106 118/1/104
f 142/1/128 143/1/129 122/1/108
f 143/1/129 144/1/130 124/1/110
f 144/1/130 128/1/114 93/1/79
f 183/21/133 184/21/134 185/21/135
f 183/21/133 186/21/136 187/21/137
f 188/21/138 186/21/136 189/21/139
f 190/21/140 191/21/141 188/21/138
f 192/21/142 193/21/143 190/21/140
f 194/21/144 195/21/145 192/21/142
f 196/21/146 197/21/147 194/21/144
f 198/21/148 199/21/149 196/21/146
f 198/21/148 200/21/150 201/21/151
f 202/21/152 200/21/150 203/21/153
f 202/21/152 204/21/154 205/21/155
f 206/21/156 204/21/154 207/21/157
f 208/21/158 209/21/159 206/21/156
f 210/21/160 211/21/161 208/21/158
f 212/21/162 213/21/163 210/21/160
f 214/21/164 215/21/165 212/21/162
f 216/21/166 217/21/167 214/21/164
f 216/21/166 184/21/134 218/21/168
f 219/21/169 185/21/135 220/21/170
f 221/21/171 183/21/133 219/21/169
f 222/21/172 189/21/139 221/21/171
f 223/21/173 188/21/138 222/21/172
f 224/21/174 190/21/140 223/21/173
f 225/21/175 192/21/142 224/21/174
f 225/21/175 196/21/146 194/21/144
f 226/21/176 198/21/148 196/21/146
f 227/21/177 203/21/153 198/21/148
f 228/21/178 203/21/153 229/21/179
f 230/21/180 202/21/152 228/21/178
f 231/21/181 207/21/157 230/21/180
f 232/21/182 206/21/156 231/21/181
f 233/21/183 208/21/158 232/21/182
f 234/21/184 210/21/160 233/21/183
f 234/21/184 214/21/164 212/21/162
f 235/21/185 216/21/166 214/21/164
f 236/21/186 185/21/135 216/21/166
f 237/21/187 238/21/188 239/21/188
f 240/21/189 241/21/187 237/21/187
f 242/21/190 243/21/189 240/21/189
f 244/21/191 245/21/190 242/21/190
f 246/21/192 247/21/193 244/21/191
f 248/21/194 249/21/195 246/21/192
f 250/21/196 251/21/194 248/21/194
f 252/21/197 253/21/196 250/21/196
f 254/21/198 255/21/197 252/21/197
f 256/21/199 257/21/198 254/21/198
f 258/21/200 259/21/199 256/21/199
f 260/21/201 261/21/200 258/21/200
f 262/21/202 263/21/201 260/21/201
f 264/21/203 265/21/204 262/21/202
f 266/21/205 267/21/206 264/21/203
f 268/21/207 269/21/205 266/21/205
f 270/21/208 271/21/207 268/21/207
f 239/21/188 272/21/208 270/21/208
f 273/21/209 274/21/210 275/21/211
f 273/21/209 276/21/212 277/21/213
f 278/21/214 279/21/215 276/21/212
f 280/21/216 281/21/217 279/21/215
f 282/21/218 281/21/217 283/21/219
f 284/21/220 285/21/221 282/21/218
f 286/21/222 287/21/223 284/21/220
f 288/21/224 289/21/225 286/21/222
f 290/21/226 291/21/227 288/21/224
f 292/21/228 293/21/229 290/21/226
f 292/21/228 294/21/230 295/21/231
f 296/21/232 297/21/233 294/21/230
f 298/21/234 299/21/235 297/21/233
f 300/21/236 299/21/235 301/21/237
f 302/21/238 303/21/239 300/21/236
f 304/21/240 305/21/241 302/21/238
f 306/21/242 307/21/243 304/21/240
f 275/21/211 308/21/244 306/21/242
f 309/21/245 275/21/211 310/21/246
f 311/21/247 273/21/209 309/21/245
f 312/21/248 278/21/214 311/21/247
f 313/21/249 280/21/216 312/21/248
f 314/21/250 283/21/219 313/21/249
f 315/21/251 282/21/218 314/21/250
f 315/21/251 286/21/222 284/21/220
f 316/21/252 288/21/224 286/21/222
f 317/21/253 290/21/226 288/21/224
f 318/21/254 290/21/226 319/21/255
f 320/21/256 292/21/228 318/21/254
f 321/21/257 296/21/232 320/21/256
f 322/21/258 298/21/234 321/21/257
f 323/21/259 301/21/237 322/21/258
f 324/21/260 300/21/236 323/21/259
f 324/21/260 304/21/240 302/21/238
f 325/21/261 306/21/242 304/21/240
f 326/21/262 275/21/211 306/21/242
f 327/22/263 328/23/263 329/24/263
f 327/22/263 329/24/263 330/25/263
f 327/22/263 330/25/263 331/26/263
f 327/22/263 331/26/263 332/27/263
f 327/22/263 332/27/263 333/28/263
f 327/22/263 333/28/263 334/29/263
f 327/22/263 334/29/263 335/30/263
f 327/22/263 335/30/263 336/31/263
f 327/22/263 336/31/263 337/32/263
f 327/22/263 337/32/263 338/33/263
f 327/22/263 338/33/263 339/34/263
f 327/22/263 339/34/263 340/35/263
f 327/22/263 340/35/263 341/36/263
f 327/22/263 341/36/263 342/37/263
f 327/22/263 342/37/263 343/38/263
f 327/22/263 343/38/263 344/39/263
f 327/22/263 344/39/263 345/40/263
f 327/22/263 345/40/263 328/23/263
f 346/24/264 347/23/264 348/22/264
f 349/25/264 346/24/264 348/22/264
f 350/26/264 349/25/264 348/22/264
f 351/27/264 350/26/264 348/22/264
f 352/28/264 351/27/264 348/22/264
f 353/29/264 352/28/264 348/22/264
f 354/30/264 353/29/264 348/22/264
f 355/31/264 354/30/264 348/22/264
f 356/32/264 355/31/264 348/22/264
f 357/33/264 356/32/264 348/22/264
f 358/34/264 357/33/264 348/22/264
f 359/35/264 358/34/264 348/22/264
f 360/36/264 359/35/264 348/22/264
f 361/37/264 360/36/264 348/22/264
f 362/38/264 361/37/264 348/22/264
f 363/39/264 362/38/264 348/22/264
f 364/40/264 363/39/264 348/22/264
f 347/23/264 364/40/264 348/22/264
f 183/21/133 187/21/137 184/21/134
f 183/21/133 189/21/139 186/21/136
f 188/21/138 191/21/141 186/21/136
f 190/21/140 193/21/143 191/21/141
f 192/21/142 195/21/145 193/21/143
f 194/21/144 197/21/147 195/21/145
f 196/21/146 199/21/149 197/21/147
f 198/21/148 201/21/151 199/21/149
f 198/21/148 203/21/153 200/21/150
f 202/21/152 205/21/155 200/21/150
f 202/21/152 207/21/157 204/21/154
f 206/21/156 209/21/159 204/21/154
f 208/21/158 211/21/161 209/21/159
f 210/21/160 213/21/163 211/21/161
f 212/21/162 215/21/165 213/21/163
f 214/21/164 217/21/167 215/21/165
f 216/21/166 218/21/168 217/21/167
f 216/21/166 185/21/135 184/21/134
f 219/21/169 183/21/133 185/21/135
f 221/21/171 189/21/139 183/21/133
f 222/21/172 188/21/138 189/21/139
f 223/21/173 190/21/140 188/21/138
f 224/21/174 192/21/142 190/21/140
f 225/21/175 194/21/144 192/21/142
f 225/21/175 226/21/176 196/21/146
f 226/21/176 227/21/177 198/21/148
f 227/21/177 229/21/179 203/21/153
f 228/21/178 202/21/152 203/21/153
f 230/21/180 207/21/157 202/21/152
f 231/21/181 206/21/156 207/21/157
f 232/21/182 208/21/158 206/21/156
f 233/21/183 210/21/160 208/21/158
f 234/21/184 212/21/162 210/21/160
f 234/21/184 235/21/185 214/21/164
f 235/21/185 236/21/186 216/21/166
f 236/21/186 220/21/170 185/21/135
f 237/21/187 241/21/187 238/21/188
f 240/21/189 243/21/189 241/21/187
f 242/21/190 245/21/190 243/21/189
f 244/21/191 247/21/193 245/21/190
f 246/21/192 249/21/195 247/21/193
f 248/21/194 251/21/194 249/21/195
f 250/21/196 253/21/196 251/21/194
f 252/21/197 255/21/197 253/21/196
f 254/21/198 257/21/198 255/21/197
f 256/21/199 259/21/199 257/21/198
f 258/21/200 261/21/200 259/21/199
f 260/21/201 263/21/201 261/21/200
f 262/21/202 265/21/204 263/21/201
f 264/21/203 267/21/206 265/21/204
f 266/21/205 269/21/205 267/21/206
f 268/21/207 271/21/207 269/21/205
f 270/21/208 272/21/208 271/21/207
f 239/21/188 238/21/188 272/21/208
f 273/21/209 277/21/213 274/21/210
f 273/21/209 278/21/214 276/21/212
f 278/21/214 280/21/216 279/21/215
f 280/21/216 283/21/219 281/21/217
f 282/21/218 285/21/221 281/21/217
f 284/21/220 287/21/223 285/21/221
f 286/21/222 289/21/225 287/21/223
f 288/21/224 291/21/227 289/21/225
f 290/21/226 293/21/229 291/21/227
f 292/21/228 295/21/231 293/21/229
f 292/21/228 296/21/232 294/21/230
f 296/21/232 298/21/234 297/21/233
f 298/21/234 301/21/237 299/21/235
f 300/21/236 303/21/239 299/21/235
f 302/21/238 305/21/241 303/21/239
f 304/21/240 307/21/243 305/21/241
f 306/21/242 308/21/244 307/21/243
f 275/21/211 274/21/210 308/21/244
f 309/21/245 273/21/209 275/21/211
f 311/21/247 278/21/214 273/21/209
f 312/21/248 280/21/216 278/21/214
f 313/21/249 283/21/219 280/21/216
f 314/21/250 282/21/218 283/21/219
f 315/21/251 284/21/220 282/21/218
f 315/21/251 316/21/252 286/21/222
f 316/21/252 317/21/253 288/21/224
f 317/21/253 319/21/255 290/21/226
f 318/21/254 292/21/228 290/21/226
f 320/21/256 296/21/232 292/21/228
f 321/21/257 298/21/234 296/21/232
f 322/21/258 301/21/237 298/21/234
f 323/21/259 300/21/236 301/21/237
f 324/21/260 302/21/238 300/21/236
f 324/21/260 325/21/261 304/21/240
f 325/21/261 326/21/262 306/21/242
f 326/21/262 310/21/246 275/21/211
