# PSX Racing car model — generated by tools/carmodels/export_models.mjs
mtllib roadster_na_popup_wheels_f.mtl
v -0.795690 0.572872 -1.130429
v -0.779726 0.571055 -1.244018
v -0.795690 0.551859 -1.236067
v -0.795690 0.492020 -1.325624
v -0.779726 0.506711 -1.340315
v -0.795690 0.402464 -1.385463
v -0.779726 0.410414 -1.404659
v -0.795690 0.296825 -1.406476
v -0.779726 0.183235 -1.404659
v -0.795690 0.191186 -1.385463
v -0.795690 0.101630 -1.325624
v -0.779726 0.086938 -1.340315
v -0.795690 0.041791 -1.236067
v -0.779726 0.000000 -1.130429
v -0.795690 0.020778 -1.130429
v -0.779726 0.022595 -1.016839
v -0.795690 0.041791 -1.024790
v -0.795690 0.101630 -0.935234
v -0.779726 0.086938 -0.920542
v -0.795690 0.191186 -0.875395
v -0.779726 0.183235 -0.856199
v -0.795690 0.296825 -0.854382
v -0.779726 0.410414 -0.856199
v -0.795690 0.402464 -0.875395
v -0.795690 0.492020 -0.935234
v -0.779726 0.506711 -0.920542
v -0.795690 0.551859 -1.024790
v -0.779726 0.593650 -1.130429
v -0.627074 0.593650 -1.130429
v -0.779726 0.571055 -1.244018
v -0.779726 0.593650 -1.130429
v -0.627074 0.571055 -1.244018
v -0.779726 0.506711 -1.340315
v -0.627074 0.506711 -1.340315
v -0.779726 0.410414 -1.404659
v -0.627074 0.410414 -1.404659
v -0.779726 0.296825 -1.427254
v -0.627074 0.296825 -1.427254
v -0.779726 0.183235 -1.404659
v -0.627074 0.183235 -1.404659
v -0.779726 0.086938 -1.340315
v -0.627074 0.086938 -1.340315
v -0.779726 0.022595 -1.244018
v -0.627074 0.022595 -1.244018
v -0.779726 0.000000 -1.130429
v -0.627074 0.000000 -1.130429
v -0.779726 0.022595 -1.016839
v -0.627074 0.022595 -1.016839
v -0.779726 0.086938 -0.920542
v -0.627074 0.086938 -0.920542
v -0.779726 0.183235 -0.856199
v -0.627074 0.183235 -0.856199
v -0.779726 0.296825 -0.833604
v -0.627074 0.296825 -0.833604
v -0.779726 0.410414 -0.856199
v -0.627074 0.410414 -0.856199
v -0.779726 0.506711 -0.920542
v -0.627074 0.506711 -0.920542
v -0.779726 0.571055 -1.016839
v -0.627074 0.571055 -1.016839
v -0.611110 0.572872 -1.130429
v -0.627074 0.571055 -1.244018
v -0.627074 0.593650 -1.130429
v -0.611110 0.551859 -1.236067
v -0.627074 0.506711 -1.340315
v -0.611110 0.492020 -1.325624
v -0.627074 0.410414 -1.404659
v -0.611110 0.296825 -1.406476
v -0.627074 0.296825 -1.427254
v -0.627074 0.183235 -1.404659
v -0.611110 0.191186 -1.385463
v -0.627074 0.086938 -1.340315
v -0.611110 0.041791 -1.236067
v -0.627074 0.022595 -1.244018
v -0.627074 0.000000 -1.130429
v -0.611110 0.020778 -1.130429
v -0.627074 0.022595 -1.016839
v -0.611110 0.041791 -1.024790
v -0.627074 0.086938 -0.920542
v -0.611110 0.101630 -0.935234
v -0.627074 0.183235 -0.856199
v -0.611110 0.296825 -0.854382
v -0.627074 0.296825 -0.833604
v -0.627074 0.410414 -0.856199
v -0.611110 0.402464 -0.875395
v -0.627074 0.506711 -0.920542
v -0.611110 0.551859 -1.024790
v -0.627074 0.571055 -1.016839
v -0.795690 0.402464 -0.875395
v -0.795690 0.551859 -1.024790
v -0.795690 0.041791 -1.236067
v -0.611110 0.402464 -1.385463
v -0.611110 0.551859 -1.236067
v -0.611110 0.041791 -1.024790
v -0.779726 0.296825 -1.427254
v -0.779726 0.022595 -1.244018
v -0.779726 0.296825 -0.833604
v -0.779726 0.571055 -1.016839
v -0.611110 0.402464 -1.385463
v -0.611110 0.101630 -1.325624
v -0.611110 0.191186 -0.875395
v -0.611110 0.492020 -0.935234
v -0.795690 0.572872 -1.130429
v -0.795690 0.551859 -1.236067
v -0.795690 0.492020 -1.325624
v -0.795690 0.402464 -1.385463
v -0.795690 0.296825 -1.406476
v -0.795690 0.191186 -1.385463
v -0.795690 0.101630 -1.325624
v -0.795690 0.020778 -1.130429
v -0.795690 0.191186 -0.875395
v -0.795690 0.041791 -1.024790
v -0.795690 0.101630 -0.935234
v -0.795690 0.296825 -0.854382
v -0.795690 0.492020 -0.935234
v -0.611110 0.572872 -1.130429
v -0.611110 0.551859 -1.024790
v -0.611110 0.492020 -0.935234
v -0.611110 0.402464 -0.875395
v -0.611110 0.296825 -0.854382
v -0.611110 0.191186 -0.875395
v -0.611110 0.101630 -0.935234
v -0.611110 0.020778 -1.130429
v -0.611110 0.191186 -1.385463
v -0.611110 0.041791 -1.236067
v -0.611110 0.101630 -1.325624
v -0.611110 0.296825 -1.406476
v -0.611110 0.492020 -1.325624
v 0.611110 0.572872 -1.130429
v 0.627074 0.571055 -1.244018
v 0.611110 0.551859 -1.236067
v 0.611110 0.492020 -1.325624
v 0.627074 0.506711 -1.340315
v 0.611110 0.402464 -1.385463
v 0.627074 0.410414 -1.404659
v 0.611110 0.296825 -1.406476
v 0.627074 0.183235 -1.404659
v 0.611110 0.191186 -1.385463
v 0.611110 0.101630 -1.325624
v 0.627074 0.086938 -1.340315
v 0.611110 0.041791 -1.236067
v 0.627074 0.000000 -1.130429
v 0.611110 0.020778 -1.130429
v 0.627074 0.022595 -1.016839
v 0.611110 0.041791 -1.024790
v 0.611110 0.101630 -0.935234
v 0.627074 0.086938 -0.920542
v 0.611110 0.191186 -0.875395
v 0.627074 0.183235 -0.856199
v 0.611110 0.296825 -0.854382
v 0.627074 0.410414 -0.856199
v 0.611110 0.402464 -0.875395
v 0.611110 0.492020 -0.935234
v 0.627074 0.506711 -0.920542
v 0.611110 0.551859 -1.024790
v 0.627074 0.593650 -1.130429
v 0.779726 0.593650 -1.130429
v 0.627074 0.571055 -1.244018
v 0.627074 0.593650 -1.130429
v 0.779726 0.571055 -1.244018
v 0.627074 0.506711 -1.340315
v 0.779726 0.506711 -1.340315
v 0.627074 0.410414 -1.404659
v 0.779726 0.410414 -1.404659
v 0.627074 0.296825 -1.427254
v 0.779726 0.296825 -1.427254
v 0.627074 0.183235 -1.404659
v 0.779726 0.183235 -1.404659
v 0.627074 0.086938 -1.340315
v 0.779726 0.086938 -1.340315
v 0.627074 0.022595 -1.244018
v 0.779726 0.022595 -1.244018
v 0.627074 0.000000 -1.130429
v 0.779726 0.000000 -1.130429
v 0.627074 0.022595 -1.016839
v 0.779726 0.022595 -1.016839
v 0.627074 0.086938 -0.920542
v 0.779726 0.086938 -0.920542
v 0.627074 0.183235 -0.856199
v 0.779726 0.183235 -0.856199
v 0.627074 0.296825 -0.833604
v 0.779726 0.296825 -0.833604
v 0.627074 0.410414 -0.856199
v 0.779726 0.410414 -0.856199
v 0.627074 0.506711 -0.920542
v 0.779726 0.506711 -0.920542
v 0.627074 0.571055 -1.016839
v 0.779726 0.571055 -1.016839
v 0.795690 0.572872 -1.130429
v 0.779726 0.571055 -1.244018
v 0.779726 0.593650 -1.130429
v 0.795690 0.551859 -1.236067
v 0.779726 0.506711 -1.340315
v 0.795690 0.492020 -1.325624
v 0.779726 0.410414 -1.404659
v 0.795690 0.296825 -1.406476
v 0.779726 0.296825 -1.427254
v 0.779726 0.183235 -1.404659
v 0.795690 0.191186 -1.385463
v 0.779726 0.086938 -1.340315
v 0.795690 0.041791 -1.236067
v 0.779726 0.022595 -1.244018
v 0.779726 0.000000 -1.130429
v 0.795690 0.020778 -1.130429
v 0.779726 0.022595 -1.016839
v 0.795690 0.041791 -1.024790
v 0.779726 0.086938 -0.920542
v 0.795690 0.101630 -0.935234
v 0.779726 0.183235 -0.856199
v 0.795690 0.296825 -0.854382
v 0.779726 0.296825 -0.833604
v 0.779726 0.410414 -0.856199
v 0.795690 0.402464 -0.875395
v 0.779726 0.506711 -0.920542
v 0.795690 0.551859 -1.024790
v 0.779726 0.571055 -1.016839
v 0.611110 0.402464 -0.875395
v 0.611110 0.551859 -1.024790
v 0.611110 0.041791 -1.236067
v 0.795690 0.402464 -1.385463
v 0.795690 0.551859 -1.236067
v 0.795690 0.041791 -1.024790
v 0.627074 0.296825 -1.427254
v 0.627074 0.022595 -1.244018
v 0.627074 0.296825 -0.833604
v 0.627074 0.571055 -1.016839
v 0.795690 0.402464 -1.385463
v 0.795690 0.101630 -1.325624
v 0.795690 0.191186 -0.875395
v 0.795690 0.492020 -0.935234
v 0.611110 0.572872 -1.130429
v 0.611110 0.551859 -1.236067
v 0.611110 0.492020 -1.325624
v 0.611110 0.402464 -1.385463
v 0.611110 0.296825 -1.406476
v 0.611110 0.191186 -1.385463
v 0.611110 0.101630 -1.325624
v 0.611110 0.020778 -1.130429
v 0.611110 0.191186 -0.875395
v 0.611110 0.041791 -1.024790
v 0.611110 0.101630 -0.935234
v 0.611110 0.296825 -0.854382
v 0.611110 0.492020 -0.935234
v 0.795690 0.572872 -1.130429
v 0.795690 0.551859 -1.024790
v 0.795690 0.492020 -0.935234
v 0.795690 0.402464 -0.875395
v 0.795690 0.296825 -0.854382
v 0.795690 0.191186 -0.875395
v 0.795690 0.101630 -0.935234
v 0.795690 0.020778 -1.130429
v 0.795690 0.191186 -1.385463
v 0.795690 0.041791 -1.236067
v 0.795690 0.101630 -1.325624
v 0.795690 0.296825 -1.406476
v 0.795690 0.492020 -1.325624
vt 0.091797 0.937500
vt 0.017395 0.750755
vt 0.062123 0.840211
vt 0.125377 0.534789
vt 0.170105 0.750755
vt 0.125377 0.840211
vt 0.062123 0.534789
vt 0.093750 0.852793
vt 0.152190 0.804380
vt 0.176396 0.687500
vt 0.170105 0.624245
vt 0.152190 0.570620
vt 0.093750 0.522207
vt 0.017395 0.624245
vt 0.035310 0.570620
vt 0.011104 0.687500
vt 0.035310 0.804380
vt 0.091797 0.937500
vt 0.017395 0.750755
vt 0.062123 0.840211
vt 0.125377 0.534789
vt 0.170105 0.750755
vt 0.125377 0.840211
vt 0.062123 0.534789
vt 0.093750 0.852793
vt 0.152190 0.804380
vt 0.176396 0.687500
vt 0.170105 0.624245
vt 0.152190 0.570620
vt 0.093750 0.522207
vt 0.017395 0.624245
vt 0.035310 0.570620
vt 0.011104 0.687500
vt 0.035310 0.804380
vn -0.793000 0.609300 0.000000
vn -0.793000 0.562900 -0.233200
vn -0.793000 0.430800 -0.430800
vn -0.793000 0.233200 -0.562900
vn -0.793000 0.000000 -0.609300
vn -0.793000 -0.233200 -0.562900
vn -0.793000 -0.430800 -0.430800
vn -0.793000 -0.562900 -0.233200
vn -0.793000 -0.609300 0.000000
vn -0.793000 -0.562900 0.233200
vn -0.793000 -0.430800 0.430800
vn -0.793000 -0.233200 0.562900
vn -0.793000 0.000000 0.609300
vn -0.793000 0.233200 0.562900
vn -0.793000 0.430800 0.430800
vn -0.793000 0.562900 0.233200
vn 0.000000 1.000000 0.000000
vn 0.000000 0.923900 -0.382700
vn 0.000000 0.707100 -0.707100
vn 0.000000 0.382700 -0.923900
vn 0.000000 0.000000 -1.000000
vn 0.000000 -0.382700 -0.923900
vn 0.000000 -0.707100 -0.707100
vn 0.000000 -0.923900 -0.382700
vn 0.000000 -1.000000 0.000000
vn 0.000000 -0.923900 0.382700
vn 0.000000 -0.707100 0.707100
vn 0.000000 -0.382700 0.923900
vn 0.000000 0.000000 1.000000
vn 0.000000 0.382700 0.923900
vn 0.000000 0.707100 0.707100
vn 0.000000 0.923900 0.382700
vn 0.793000 0.609300 0.000000
vn 0.793000 0.562900 -0.233200
vn 0.793000 0.430800 -0.430800
vn 0.793000 0.233200 -0.562900
vn 0.793000 0.000000 -0.609300
vn 0.793000 -0.233200 -0.562900
vn 0.793000 -0.430800 -0.430800
vn 0.793000 -0.562900 -0.233200
vn 0.793000 -0.609300 0.000000
vn 0.793000 -0.562900 0.233200
vn 0.793000 -0.430800 0.430800
vn 0.793000 -0.233200 0.562900
vn 0.793000 0.000000 0.609300
vn 0.793000 0.233200 0.562900
vn 0.793000 0.430800 0.430800
vn 0.793000 0.562900 0.233200
vn -1.000000 0.000000 0.000000
vn 1.000000 0.000000 0.000000
vn -0.793000 0.609300 0.000000
vn -0.793000 0.562900 -0.233200
vn -0.793000 0.430800 -0.430800
vn -0.793000 0.233200 -0.562900
vn -0.793000 0.000000 -0.609300
vn -0.793000 -0.233200 -0.562900
vn -0.793000 -0.430800 -0.430800
vn -0.793000 -0.562900 -0.233200
vn -0.793000 -0.609300 0.000000
vn -0.793000 -0.562900 0.233200
vn -0.793000 -0.430800 0.430800
vn -0.793000 -0.233200 0.562900
vn -0.793000 0.000000 0.609300
vn -0.793000 0.233200 0.562900
vn -0.793000 0.430800 0.430800
vn -0.793000 0.562900 0.233200
vn 0.000000 1.000000 0.000000
vn 0.000000 0.923900 -0.382700
vn 0.000000 0.707100 -0.707100
vn 0.000000 0.382700 -0.923900
vn 0.000000 0.000000 -1.000000
vn 0.000000 -0.382700 -0.923900
vn 0.000000 -0.707100 -0.707100
vn 0.000000 -0.923900 -0.382700
vn 0.000000 -1.000000 0.000000
vn 0.000000 -0.923900 0.382700
vn 0.000000 -0.707100 0.707100
vn 0.000000 -0.382700 0.923900
vn 0.000000 0.000000 1.000000
vn 0.000000 0.382700 0.923900
vn 0.000000 0.707100 0.707100
vn 0.000000 0.923900 0.382700
vn 0.793000 0.609300 0.000000
vn 0.793000 0.562900 -0.233200
vn 0.793000 0.430800 -0.430800
vn 0.793000 0.233200 -0.562900
vn 0.793000 0.000000 -0.609300
vn 0.793000 -0.233200 -0.562900
vn 0.793000 -0.430800 -0.430800
vn 0.793000 -0.562900 -0.233200
vn 0.793000 -0.609300 0.000000
vn 0.793000 -0.562900 0.233200
vn 0.793000 -0.430800 0.430800
vn 0.793000 -0.233200 0.562900
vn 0.793000 0.000000 0.609300
vn 0.793000 0.233200 0.562900
vn 0.793000 0.430800 0.430800
vn 0.793000 0.562900 0.233200
vn -1.000000 0.000000 0.000000
vn 1.000000 0.000000 0.000000
o roadster_na_popup_wheels_f
usemtl roadster_na_popup_wheels_f
f 1/1/1 2/1/2 3/1/2
f 2/1/2 4/1/3 3/1/2
f 5/1/3 6/1/4 4/1/3
f 7/1/4 8/1/5 6/1/4
f 8/1/5 9/1/6 10/1/6
f 9/1/6 11/1/7 10/1/6
f 12/1/7 13/1/8 11/1/7
f 13/1/8 14/1/9 15/1/9
f 15/1/9 16/1/10 17/1/10
f 16/1/10 18/1/11 17/1/10
f 19/1/11 20/1/12 18/1/11
f 21/1/12 22/1/13 20/1/12
f 22/1/13 23/1/14 24/1/14
f 23/1/14 25/1/15 24/1/14
f 26/1/15 27/1/16 25/1/15
f 27/1/16 28/1/1 1/1/1
f 29/1/17 30/1/18 31/1/17
f 32/1/18 33/1/19 30/1/18
f 34/1/19 35/1/20 33/1/19
f 36/1/20 37/1/21 35/1/20
f 38/1/21 39/1/22 37/1/21
f 40/1/22 41/1/23 39/1/22
f 42/1/23 43/1/24 41/1/23
f 44/1/24 45/1/25 43/1/24
f 46/1/25 47/1/26 45/1/25
f 48/1/26 49/1/27 47/1/26
f 50/1/27 51/1/28 49/1/27
f 52/1/28 53/1/29 51/1/28
f 54/1/29 55/1/30 53/1/29
f 56/1/30 57/1/31 55/1/30
f 58/1/31 59/1/32 57/1/31
f 60/1/32 31/1/17 59/1/32
f 61/1/33 62/1/34 63/1/33
f 64/1/34 65/1/35 62/1/34
f 66/1/35 67/1/36 65/1/35
f 67/1/36 68/1/37 69/1/37
f 68/1/37 70/1/38 69/1/37
f 71/1/38 72/1/39 70/1/38
f 72/1/39 73/1/40 74/1/40
f 73/1/40 75/1/41 74/1/40
f 76/1/41 77/1/42 75/1/41
f 78/1/42 79/1/43 77/1/42
f 80/1/43 81/1/44 79/1/43
f 81/1/44 82/1/45 83/1/45
f 82/1/45 84/1/46 83/1/45
f 85/1/46 86/1/47 84/1/46
f 86/1/47 87/1/48 88/1/48
f 87/1/48 63/1/33 88/1/48
f 89/2/49 90/3/49 91/4/49
f 92/5/50 93/6/50 94/7/50
f 1/1/1 28/1/1 2/1/2
f 2/1/2 5/1/3 4/1/3
f 5/1/3 7/1/4 6/1/4
f 7/1/4 95/1/5 8/1/5
f 8/1/5 95/1/5 9/1/6
f 9/1/6 12/1/7 11/1/7
f 12/1/7 96/1/8 13/1/8
f 13/1/8 96/1/8 14/1/9
f 15/1/9 14/1/9 16/1/10
f 16/1/10 19/1/11 18/1/11
f 19/1/11 21/1/12 20/1/12
f 21/1/12 97/1/13 22/1/13
f 22/1/13 97/1/13 23/1/14
f 23/1/14 26/1/15 25/1/15
f 26/1/15 98/1/16 27/1/16
f 27/1/16 98/1/16 28/1/1
f 29/1/17 32/1/18 30/1/18
f 32/1/18 34/1/19 33/1/19
f 34/1/19 36/1/20 35/1/20
f 36/1/20 38/1/21 37/1/21
f 38/1/21 40/1/22 39/1/22
f 40/1/22 42/1/23 41/1/23
f 42/1/23 44/1/24 43/1/24
f 44/1/24 46/1/25 45/1/25
f 46/1/25 48/1/26 47/1/26
f 48/1/26 50/1/27 49/1/27
f 50/1/27 52/1/28 51/1/28
f 52/1/28 54/1/29 53/1/29
f 54/1/29 56/1/30 55/1/30
f 56/1/30 58/1/31 57/1/31
f 58/1/31 60/1/32 59/1/32
f 60/1/32 29/1/17 31/1/17
f 61/1/33 64/1/34 62/1/34
f 64/1/34 66/1/35 65/1/35
f 66/1/35 99/1/36 67/1/36
f 67/1/36 99/1/36 68/1/37
f 68/1/37 71/1/38 70/1/38
f 71/1/38 100/1/39 72/1/39
f 72/1/39 100/1/39 73/1/40
f 73/1/40 76/1/41 75/1/41
f 76/1/41 78/1/42 77/1/42
f 78/1/42 80/1/43 79/1/43
f 80/1/43 101/1/44 81/1/44
f 81/1/44 101/1/44 82/1/45
f 82/1/45 85/1/46 84/1/46
f 85/1/46 102/1/47 86/1/47
f 86/1/47 102/1/47 87/1/48
f 87/1/48 61/1/33 63/1/33
f 90/3/49 103/8/49 104/6/49
f 104/6/49 105/9/49 106/5/49
f 106/5/49 107/10/49 91/4/49
f 107/10/49 108/11/49 91/4/49
f 108/11/49 109/12/49 91/4/49
f 91/4/49 110/13/49 111/14/49
f 110/13/49 112/7/49 111/14/49
f 112/7/49 113/15/49 111/14/49
f 111/14/49 114/16/49 89/2/49
f 89/2/49 115/17/49 90/3/49
f 90/3/49 104/6/49 91/4/49
f 104/6/49 106/5/49 91/4/49
f 111/14/49 89/2/49 91/4/49
f 93/6/50 116/8/50 117/3/50
f 117/3/50 118/17/50 119/2/50
f 119/2/50 120/16/50 94/7/50
f 120/16/50 121/14/50 94/7/50
f 121/14/50 122/15/50 94/7/50
f 94/7/50 123/13/50 124/11/50
f 123/13/50 125/4/50 124/11/50
f 125/4/50 126/12/50 124/11/50
f 124/11/50 127/10/50 92/5/50
f 92/5/50 128/9/50 93/6/50
f 93/6/50 117/3/50 94/7/50
f 117/3/50 119/2/50 94/7/50
f 124/11/50 92/5/50 94/7/50
f 129/18/51 130/18/52 131/18/52
f 130/18/52 132/18/53 131/18/52
f 133/18/53 134/18/54 132/18/53
f 135/18/54 136/18/55 134/18/54
f 136/18/55 137/18/56 138/18/56
f 137/18/56 139/18/57 138/18/56
f 140/18/57 141/18/58 139/18/57
f 141/18/58 142/18/59 143/18/59
f 143/18/59 144/18/60 145/18/60
f 144/18/60 146/18/61 145/18/60
f 147/18/61 148/18/62 146/18/61
f 149/18/62 150/18/63 148/18/62
f 150/18/63 151/18/64 152/18/64
f 151/18/64 153/18/65 152/18/64
f 154/18/65 155/18/66 153/18/65
f 155/18/66 156/18/51 129/18/51
f 157/18/67 158/18/68 159/18/67
f 160/18/68 161/18/69 158/18/68
f 162/18/69 163/18/70 161/18/69
f 164/18/70 165/18/71 163/18/70
f 166/18/71 167/18/72 165/18/71
f 168/18/72 169/18/73 167/18/72
f 170/18/73 171/18/74 169/18/73
f 172/18/74 173/18/75 171/18/74
f 174/18/75 175/18/76 173/18/75
f 176/18/76 177/18/77 175/18/76
f 178/18/77 179/18/78 177/18/77
f 180/18/78 181/18/79 179/18/78
f 182/18/79 183/18/80 181/18/79
f 184/18/80 185/18/81 183/18/80
f 186/18/81 187/18/82 185/18/81
f 188/18/82 159/18/67 187/18/82
f 189/18/83 190/18/84 191/18/83
f 192/18/84 193/18/85 190/18/84
f 194/18/85 195/18/86 193/18/85
f 195/18/86 196/18/87 197/18/87
f 196/18/87 198/18/88 197/18/87
f 199/18/88 200/18/89 198/18/88
f 200/18/89 201/18/90 202/18/90
f 201/18/90 203/18/91 202/18/90
f 204/18/91 205/18/92 203/18/91
f 206/18/92 207/18/93 205/18/92
f 208/18/93 209/18/94 207/18/93
f 209/18/94 210/18/95 211/18/95
f 210/18/95 212/18/96 211/18/95
f 213/18/96 214/18/97 212/18/96
f 214/18/97 215/18/98 216/18/98
f 215/18/98 191/18/83 216/18/98
f 217/19/99 218/20/99 219/21/99
f 220/22/100 221/23/100 222/24/100
f 129/18/51 156/18/51 130/18/52
f 130/18/52 133/18/53 132/18/53
f 133/18/53 135/18/54 134/18/54
f 135/18/54 223/18/55 136/18/55
f 136/18/55 223/18/55 137/18/56
f 137/18/56 140/18/57 139/18/57
f 140/18/57 224/18/58 141/18/58
f 141/18/58 224/18/58 142/18/59
f 143/18/59 142/18/59 144/18/60
f 144/18/60 147/18/61 146/18/61
f 147/18/61 149/18/62 148/18/62
f 149/18/62 225/18/63 150/18/63
f 150/18/63 225/18/63 151/18/64
f 151/18/64 154/18/65 153/18/65
f 154/18/65 226/18/66 155/18/66
f 155/18/66 226/18/66 156/18/51
f 157/18/67 160/18/68 158/18/68
f 160/18/68 162/18/69 161/18/69
f 162/18/69 164/18/70 163/18/70
f 164/18/70 166/18/71 165/18/71
f 166/18/71 168/18/72 167/18/72
f 168/18/72 170/18/73 169/18/73
f 170/18/73 172/18/74 171/18/74
f 172/18/74 174/18/75 173/18/75
f 174/18/75 176/18/76 175/18/76
f 176/18/76 178/18/77 177/18/77
f 178/18/77 180/18/78 179/18/78
f 180/18/78 182/18/79 181/18/79
f 182/18/79 184/18/80 183/18/80
f 184/18/80 186/18/81 185/18/81
f 186/18/81 188/18/82 187/18/82
f 188/18/82 157/18/67 159/18/67
f 189/18/83 192/18/84 190/18/84
f 192/18/84 194/18/85 193/18/85
f 194/18/85 227/18/86 195/18/86
f 195/18/86 227/18/86 196/18/87
f 196/18/87 199/18/88 198/18/88
f 199/18/88 228/18/89 200/18/89
f 200/18/89 228/18/89 201/18/90
f 201/18/90 204/18/91 203/18/91
f 204/18/91 206/18/92 205/18/92
f 206/18/92 208/18/93 207/18/93
f 208/18/93 229/18/94 209/18/94
f 209/18/94 229/18/94 210/18/95
f 210/18/95 213/18/96 212/18/96
f 213/18/96 230/18/97 214/18/97
f 214/18/97 230/18/97 215/18/98
f 215/18/98 189/18/83 191/18/83
f 218/20/99 231/25/99 232/23/99
f 232/23/99 233/26/99 234/22/99
f 234/22/99 235/27/99 219/21/99
f 235/27/99 236/28/99 219/21/99
f 236/28/99 237/29/99 219/21/99
f 219/21/99 238/30/99 239/31/99
f 238/30/99 240/24/99 239/31/99
f 240/24/99 241/32/99 239/31/99
f 239/31/99 242/33/99 217/19/99
f 217/19/99 243/34/99 218/20/99
f 218/20/99 232/23/99 219/21/99
f 232/23/99 234/22/99 219/21/99
f 239/31/99 217/19/99 219/21/99
f 221/23/100 244/25/100 245/20/100
f 245/20/100 246/34/100 247/19/100
f 247/19/100 248/33/100 222/24/100
f 248/33/100 249/31/100 222/24/100
f 249/31/100 250/32/100 222/24/100
f 222/24/100 251/30/100 252/28/100
f 251/30/100 253/21/100 252/28/100
f 253/21/100 254/29/100 252/28/100
f 252/28/100 255/27/100 220/22/100
f 220/22/100 256/26/100 221/23/100
f 221/23/100 245/20/100 222/24/100
f 245/20/100 247/19/100 222/24/100
f 252/28/100 220/22/100 222/24/100
