# PSX Racing car model — generated by tools/carmodels/export_models.mjs
mtllib charger_69.mtl
v 0.476499 0.263408 -2.500810
v 0.476499 0.523668 -2.571252
v 0.714748 0.523668 -2.553442
v 0.714748 0.278863 -2.486827
v 0.932539 0.187971 2.089134
v 1.036456 0.517516 1.937897
v 0.944318 0.518620 2.542044
v 0.936218 0.229131 2.450732
v 0.490717 0.177269 2.092579
v 0.500000 0.205826 2.486941
v 0.490717 0.117886 -0.315420
v 0.925732 0.123665 -0.315420
v 0.925732 0.127495 1.263723
v 0.490717 0.121716 1.263723
v 1.036456 0.525938 -0.336792
v 1.036456 0.504057 1.422811
v 0.000000 0.518714 2.593501
v 0.472159 0.518667 2.567772
v 0.458949 0.690593 2.574522
v 0.000000 0.714632 2.595801
v 0.000000 0.118069 -0.315420
v 0.000000 0.121900 1.263723
v 0.932539 0.186266 -1.745844
v 0.490717 0.177974 -1.745844
v 0.952998 0.294318 -2.472844
v 0.952998 0.523668 -2.535632
v 1.036456 0.545615 -1.441478
v 0.476499 0.796291 -2.564685
v 0.000000 0.796291 -2.564685
v 0.000000 0.861411 -1.894340
v 0.630393 0.873908 -1.708150
v 0.435906 0.850516 1.178227
v 0.944296 0.785431 0.999801
v 0.856591 0.853893 0.867075
v 0.421567 0.877927 0.939375
v 0.458949 0.782142 2.019859
v 0.000000 0.808452 2.025065
v 0.000000 0.205826 2.523149
v 0.350294 1.262621 -0.342519
v 0.000000 1.261321 -0.342519
v 0.000000 1.259107 0.437901
v 0.350294 1.260408 0.437901
v 0.000000 1.200375 -1.029632
v 0.576886 1.131037 -1.029632
v 0.891178 0.760965 -2.529065
v 0.755150 0.765511 -2.550605
v 0.737973 0.882726 -1.576779
v 0.940617 0.813451 -1.569447
v 0.984994 0.796612 -0.336792
v 0.984994 0.812919 -0.896334
v 0.852540 0.892199 -0.896334
v 0.854399 0.860487 -0.267908
v 0.446408 0.804652 1.598975
v 0.000000 0.838543 1.616656
v 1.036456 0.544500 -1.072588
v 1.036456 0.511232 1.697392
v 0.949227 0.767909 1.515580
v 0.000000 0.523668 -2.571252
v 0.917898 0.738170 2.014654
v 0.917898 0.666554 2.553243
v 0.736764 1.081196 -1.029632
v 0.687636 1.224027 -0.369191
v 0.672623 1.234037 0.388445
v 0.000000 0.857938 1.200192
v 0.000000 0.880884 0.950566
v 0.000000 0.263408 -2.500810
v 0.000000 0.177974 -1.745844
v 0.000000 0.176415 2.093153
v 0.490717 0.517516 1.937897
v 0.490717 0.511232 1.697392
v 0.490717 0.544500 -1.072588
v 0.490717 0.545615 -1.441478
v 0.490717 0.504057 1.422811
v 0.925732 0.120415 -0.886167
v 0.490717 0.114636 -0.886166
v 0.490717 0.151330 1.705568
v 0.000000 0.114820 -0.886167
v 0.000000 0.150961 1.705874
v 0.917675 0.877257 0.449661
v 0.986901 0.851469 0.449661
v 0.961242 0.859618 0.470513
v 0.939476 0.867726 0.470513
v 0.943463 0.946483 0.449661
v 0.928189 0.971548 0.423903
v 0.886299 0.859098 0.423903
v 0.998749 0.817207 0.423903
v 1.012689 0.920694 0.449661
v 1.040640 0.929658 0.423903
v 0.943463 0.946483 0.470513
v 0.939476 0.867726 0.488912
v 1.012689 0.920694 0.470513
v 0.961242 0.859618 0.488912
v 0.916220 0.807477 0.488912
v 0.937986 0.799369 0.488912
v 0.937986 0.799369 0.470513
v 0.916220 0.807477 0.470513
v -0.476499 0.263408 -2.500810
v -0.714748 0.278863 -2.486827
v -0.714748 0.523668 -2.553442
v -0.476499 0.523668 -2.571252
v -0.932539 0.187971 2.089134
v -0.936218 0.229131 2.450732
v -0.944318 0.518620 2.542044
v -1.036456 0.517516 1.937897
v -0.490717 0.177269 2.092579
v -0.500000 0.205826 2.486941
v -0.490717 0.117886 -0.315420
v -0.490717 0.121716 1.263723
v -0.925732 0.127495 1.263723
v -0.925732 0.123665 -0.315420
v -1.036456 0.504057 1.422811
v -1.036456 0.525938 -0.336792
v -0.458949 0.690593 2.574522
v -0.472159 0.518667 2.567772
v -0.490717 0.177974 -1.745844
v -0.932539 0.186266 -1.745844
v -0.952998 0.294318 -2.472844
v -1.036456 0.545615 -1.441478
v -0.952998 0.523668 -2.535632
v -0.476499 0.796291 -2.564685
v -0.630393 0.873908 -1.708150
v -0.435906 0.850516 1.178227
v -0.421567 0.877927 0.939375
v -0.856591 0.853893 0.867075
v -0.944296 0.785431 0.999801
v -0.458949 0.782142 2.019859
v -0.350294 1.262621 -0.342519
v -0.350294 1.260408 0.437901
v -0.576886 1.131037 -1.029632
v -0.891178 0.760965 -2.529065
v -0.940617 0.813451 -1.569447
v -0.737973 0.882726 -1.576779
v -0.755150 0.765511 -2.550605
v -0.984994 0.796612 -0.336792
v -0.854399 0.860487 -0.267908
v -0.852540 0.892199 -0.896334
v -0.984994 0.812919 -0.896334
v -0.446408 0.804652 1.598975
v -1.036456 0.544500 -1.072588
v -1.036456 0.511232 1.697392
v -0.949227 0.767909 1.515580
v -0.917898 0.666554 2.553243
v -0.917898 0.738170 2.014654
v -0.736764 1.081196 -1.029632
v -0.687636 1.224027 -0.369191
v -0.672623 1.234037 0.388445
v -0.490717 0.511232 1.697392
v -0.490717 0.517516 1.937897
v -0.490717 0.545615 -1.441478
v -0.490717 0.544500 -1.072588
v -0.490717 0.504057 1.422811
v -0.490717 0.114636 -0.886166
v -0.925732 0.120415 -0.886167
v -0.490717 0.151330 1.705568
v -0.917675 0.877257 0.449661
v -0.939476 0.867726 0.470513
v -0.961242 0.859618 0.470513
v -0.986901 0.851469 0.449661
v -0.886299 0.859098 0.423903
v -0.928189 0.971548 0.423903
v -0.943463 0.946483 0.449661
v -0.998749 0.817207 0.423903
v -1.012689 0.920694 0.449661
v -1.040640 0.929658 0.423903
v -0.943463 0.946483 0.470513
v -0.939476 0.867726 0.488912
v -1.012689 0.920694 0.470513
v -0.961242 0.859618 0.488912
v -0.937986 0.799369 0.488912
v -0.916220 0.807477 0.488912
v -0.916220 0.807477 0.470513
v -0.937986 0.799369 0.470513
vt 0.231082 0.187357
vt 0.231340 0.253336
vt 0.172902 0.252834
vt 0.172363 0.190527
vt 0.462379 0.702546
vt 0.408137 0.627685
vt 0.555621 0.601532
vt 0.547382 0.675498
vt 0.073427 0.576197
vt 0.058426 0.576298
vt 0.058280 0.563945
vt 0.073112 0.562776
vt 0.042619 0.524981
vt 0.057386 0.524982
vt 0.057386 0.578583
vt 0.042618 0.578582
vt 0.569845 0.172516
vt 0.563588 0.070297
vt 0.994925 0.071339
vt 0.956861 0.167886
vt 0.527884 0.941240
vt 0.643781 0.941714
vt 0.640277 0.983864
vt 0.527647 0.989260
vt 0.025962 0.524981
vt 0.025962 0.578582
vt 0.074495 0.560656
vt 0.066388 0.560244
vt 0.059013 0.534892
vt 0.074012 0.534867
vt 0.136299 0.485953
vt 0.124975 0.428784
vt 0.393760 0.439560
vt 0.312203 0.525111
vt 0.517046 0.870857
vt 0.517046 0.987643
vt 0.351976 0.987643
vt 0.306257 0.833134
vt 0.645217 0.671846
vt 0.603446 0.798295
vt 0.568267 0.774639
vt 0.586216 0.667919
vt 0.852459 0.677274
vt 0.853229 0.564656
vt 0.994925 0.565403
vt 0.990143 0.678011
vt 0.652012 0.862653
vt 0.529149 0.862653
vt 0.800034 0.461057
vt 0.803544 0.375252
vt 0.994925 0.383546
vt 0.991202 0.469448
vt 0.450054 0.524069
vt 0.406406 0.368795
vt 0.634268 0.368795
vt 0.627648 0.510872
vt 0.509201 0.768737
vt 0.514372 0.802112
vt 0.273981 0.806773
vt 0.273788 0.754255
vt 0.667975 0.235846
vt 0.530863 0.240709
vt 0.528957 0.202922
vt 0.683137 0.199449
vt 0.749152 0.674523
vt 0.752852 0.564703
vt 0.383192 0.067789
vt 0.425649 0.000349
vt 0.562822 0.002760
vt 0.292805 0.068961
vt 0.260348 -0.000241
vt 0.349656 0.635226
vt 0.282957 0.644361
vt 0.171861 0.583760
vt 0.297988 0.574146
vt 0.128973 0.368795
vt 0.364831 0.368795
vt 0.347893 0.253454
vt 0.347764 0.320312
vt 0.230942 0.320087
vt 0.114266 0.252248
vt 0.162536 0.312088
vt 0.128742 0.310709
vt 0.420397 0.564656
vt 0.553563 0.564656
vt 0.759676 0.942192
vt 0.752909 0.978499
vt 0.729790 0.798242
vt 0.852194 0.790182
vt 0.481162 0.552010
vt 0.623832 0.551604
vt 0.789485 0.543921
vt 0.975551 0.548353
vt 0.759322 0.867770
vt 0.985316 0.790637
vt 0.650676 0.564867
vt 0.589323 0.564656
vt 0.090669 0.560656
vt 0.090669 0.534867
vt 0.090084 0.576180
vt 0.090084 0.561551
vt 0.347893 0.187357
vt 0.110087 0.574507
vt 0.110087 0.582674
vt 0.091563 0.582674
vt 0.091563 0.574507
vt 0.110088 0.521809
vt 0.110088 0.534330
vt 0.091563 0.534330
vt 0.091564 0.521808
vt 0.106560 0.594981
vt 0.091563 0.595360
vt 0.110087 0.565184
vt 0.091563 0.565184
vt 0.091563 0.551128
vt 0.106329 0.551309
vt 0.106329 0.550054
vt 0.091563 0.550233
vt 0.091563 0.505608
vt 0.106561 0.505824
vt 0.111362 0.518234
vt 0.111695 0.510074
vt 0.123570 0.505608
vt 0.123570 0.518774
vt 0.111864 0.571001
vt 0.110981 0.558510
vt 0.125068 0.551128
vt 0.125068 0.580387
vt 0.090669 0.505608
vt 0.074012 0.505608
vt 0.090084 0.589354
vt 0.073427 0.589363
vt 0.672006 0.253355
vt 0.826097 0.259646
vt 0.859192 0.313709
vt 0.697438 0.351227
vt 0.994925 0.269822
vt 0.144359 0.157797
vt 0.036325 0.151065
vt 0.076091 -0.000241
vt 0.156223 0.002689
vt 0.247702 0.155801
vt 0.242028 -0.000241
vt 0.393825 0.253355
vt 0.511760 0.356148
vt 0.890588 -0.000241
vt 0.994925 0.212942
vt 0.961054 0.187357
vt 0.025962 0.505608
vt 0.042618 0.505608
vt 0.429989 0.174711
vt 0.057385 0.505609
vt 0.365533 0.239638
vt 0.360539 0.187357
vt 0.390110 0.714783
vt 0.390110 0.702625
vt 0.393549 0.707050
vt 0.393549 0.710873
vt 0.336912 0.673268
vt 0.336912 0.685426
vt 0.331221 0.688415
vt 0.331221 0.668665
vt 0.383852 0.718578
vt 0.383852 0.698829
vt 0.385989 0.682711
vt 0.385989 0.670553
vt 0.391679 0.665950
vt 0.391679 0.685700
vt 0.327592 0.693947
vt 0.327592 0.706105
vt 0.322406 0.709901
vt 0.322406 0.690151
vt 0.371314 0.722436
vt 0.371314 0.709458
vt 0.374342 0.709458
vt 0.382557 0.682711
vt 0.380444 0.669740
vt 0.342070 0.672564
vt 0.340343 0.685426
vt 0.331024 0.693947
vt 0.331024 0.706105
vt 0.362685 0.676578
vt 0.366508 0.676578
vt 0.370933 0.689318
vt 0.358775 0.689318
vt 0.362560 0.665950
vt 0.366382 0.665950
vt 0.361803 0.709458
vt 0.361803 0.722600
vt 0.358775 0.709458
vt 0.635057 0.323348
vt 0.595558 0.323348
vt 0.595558 0.283849
vt 0.635057 0.283849
vt 0.344357 0.700780
vt 0.340534 0.700825
vt 0.340534 0.690196
vt 0.344357 0.690151
vt 0.371314 0.698829
vt 0.374342 0.698829
vt 0.358775 0.698829
vt 0.361803 0.698829
vt 0.090083 0.604394
vt 0.073427 0.604394
vt 0.113707 0.193833
vt 0.058280 0.559839
vt 0.110982 0.527549
vt 0.123570 0.533805
vn 0.072700 -0.261200 -0.962500
vn 0.981000 -0.168100 0.097200
vn 0.042600 -0.994900 0.091000
vn 0.013300 -0.999900 0.002400
vn 0.961900 -0.273200 -0.001500
vn 0.049800 -0.022800 0.998500
vn -0.000400 -1.000000 0.002400
vn 0.037200 -0.991600 -0.123800
vn 0.986700 -0.157100 -0.041600
vn 0.004500 0.995600 -0.093500
vn 0.146900 0.966800 0.209100
vn 0.058700 0.985000 0.162200
vn 0.061800 -0.231800 0.970800
vn -0.003700 1.000000 0.002800
vn 0.098600 0.929400 -0.355600
vn 0.219400 0.971600 -0.088900
vn 0.484700 0.874000 0.034600
vn 0.067800 0.995800 0.062100
vn 0.982500 0.186000 0.005000
vn 0.962600 0.268000 -0.040600
vn 0.949300 0.314500 -0.001800
vn 0.956900 0.281300 -0.072100
vn 0.000000 0.024100 -0.999700
vn 0.104800 0.024200 -0.994200
vn 0.933900 0.344300 0.096500
vn 0.049100 -0.049900 0.997500
vn 0.088800 0.994300 0.058300
vn 0.295800 0.899600 -0.321200
vn 0.097500 0.995200 -0.004100
vn 0.072400 -0.271900 0.959600
vn 0.077300 0.986100 0.147200
vn 0.016000 0.994600 0.102100
vn 0.000000 -0.993700 -0.112400
vn 0.003500 -0.997500 0.070100
vn 0.000000 -0.261300 -0.965300
vn 0.000000 -0.999700 0.026100
vn 0.000000 -1.000000 -0.003000
vn 0.001300 -0.415600 -0.909500
vn 0.002300 -0.386900 0.922100
vn 0.002400 -0.400400 -0.916300
vn 0.005400 -0.642400 0.766300
vn 1.000000 0.000000 0.000000
vn -0.000200 -0.997300 -0.073400
vn 0.001300 -0.997800 0.066200
vn 0.891400 0.453100 -0.006400
vn 0.887400 0.434000 -0.155500
vn 0.146900 0.798800 0.583300
vn 0.010400 0.800300 0.599500
vn 0.902800 0.430000 0.005300
vn 0.164200 0.972600 -0.164500
vn 0.964700 0.262800 0.015500
vn 0.515300 0.856900 0.014200
vn 0.072600 0.989300 -0.126600
vn -0.000400 -1.000000 0.005700
vn 0.965700 -0.259600 -0.003000
vn 0.013300 -0.999900 0.005700
vn 0.405700 0.912400 -0.053700
vn 0.098600 0.988700 -0.112600
vn -0.348400 -0.935200 -0.063200
vn -0.698100 0.260100 0.667100
vn -0.236500 -0.634800 0.735600
vn 0.698100 -0.260100 0.667100
vn 0.285300 0.765900 0.576200
vn -0.998700 0.050600 0.000000
vn 0.728200 -0.431600 0.532400
vn -0.856200 0.172300 0.487000
vn 0.349100 0.937100 0.000000
vn 0.083000 0.222700 0.971300
vn 0.000000 0.000000 1.000000
vn 0.764800 -0.644200 0.000000
vn 0.000000 0.000000 -1.000000
vn -0.932900 0.360100 0.000000
vn 0.932900 -0.360100 0.000000
vn 0.000200 -0.997800 0.066200
vn 0.072700 -0.262600 -0.962200
vn 0.062400 0.013300 -0.998000
vn 0.072500 -0.986800 -0.144600
vn 0.116700 0.991000 0.065200
vn 0.912900 0.404900 0.051500
vn 0.050100 0.995800 0.077000
vn -0.072700 -0.261200 -0.962500
vn -0.981000 -0.168100 0.097200
vn -0.042600 -0.994900 0.091000
vn -0.013300 -0.999900 0.002400
vn -0.961900 -0.273200 -0.001500
vn -0.049800 -0.022800 0.998500
vn 0.000400 -1.000000 0.002400
vn -0.037200 -0.991600 -0.123800
vn -0.986700 -0.157100 -0.041600
vn -0.004500 0.995600 -0.093500
vn -0.146900 0.966800 0.209100
vn -0.058700 0.985000 0.162200
vn -0.061800 -0.231800 0.970800
vn 0.003700 1.000000 0.002800
vn -0.098600 0.929400 -0.355600
vn -0.219400 0.971600 -0.088900
vn -0.484700 0.874000 0.034600
vn -0.067800 0.995800 0.062100
vn -0.982500 0.186000 0.005000
vn -0.962600 0.268000 -0.040600
vn -0.949300 0.314500 -0.001800
vn -0.956900 0.281300 -0.072100
vn -0.104800 0.024200 -0.994200
vn -0.933900 0.344300 0.096500
vn -0.049100 -0.049900 0.997500
vn -0.088800 0.994300 0.058300
vn -0.295800 0.899600 -0.321200
vn -0.097500 0.995200 -0.004100
vn -0.072400 -0.271900 0.959600
vn -0.077300 0.986100 0.147200
vn -0.016000 0.994600 0.102100
vn -0.003500 -0.997500 0.070100
vn -0.001300 -0.415600 -0.909500
vn -0.002300 -0.386900 0.922100
vn -0.002400 -0.400400 -0.916300
vn -0.005400 -0.642400 0.766300
vn -1.000000 0.000000 0.000000
vn 0.000200 -0.997300 -0.073400
vn -0.001300 -0.997800 0.066200
vn -0.891400 0.453100 -0.006400
vn -0.887400 0.434000 -0.155500
vn -0.146900 0.798800 0.583300
vn -0.010400 0.800300 0.599500
vn -0.902800 0.430000 0.005300
vn -0.164200 0.972600 -0.164500
vn -0.964700 0.262800 0.015500
vn -0.515300 0.856900 0.014200
vn -0.072600 0.989300 -0.126600
vn 0.000400 -1.000000 0.005700
vn -0.965700 -0.259600 -0.003000
vn -0.013300 -0.999900 0.005700
vn -0.405700 0.912400 -0.053700
vn -0.098600 0.988700 -0.112600
vn 0.348400 -0.935200 -0.063200
vn 0.698100 0.260100 0.667100
vn 0.236500 -0.634800 0.735600
vn -0.698100 -0.260100 0.667100
vn -0.285300 0.765900 0.576200
vn 0.998700 0.050600 0.000000
vn -0.728200 -0.431600 0.532400
vn 0.856200 0.172300 0.487000
vn -0.349100 0.937100 0.000000
vn -0.083000 0.222700 0.971300
vn -0.764800 -0.644200 0.000000
vn 0.932900 0.360100 0.000000
vn -0.932900 -0.360100 0.000000
vn -0.000200 -0.997800 0.066200
vn -0.072700 -0.262600 -0.962200
vn -0.062400 0.013300 -0.998000
vn -0.072500 -0.986800 -0.144600
vn -0.116700 0.991000 0.065200
vn -0.912900 0.404900 0.051500
vn -0.050100 0.995800 0.077000
o charger_69
usemtl charger_69
f 1/1/1 2/2/1 3/3/1 4/4/1
f 5/5/2 6/6/2 7/7/2 8/8/2
f 9/9/3 5/10/3 8/11/3 10/12/3
f 11/13/4 12/14/4 13/15/4 14/16/4
f 12/17/5 15/18/5 16/19/5 13/20/5
f 17/21/6 18/22/6 19/23/6 20/24/6
f 21/25/7 11/13/7 14/16/7 22/26/7
f 1/27/8 4/28/8 23/29/8 24/30/8
f 25/31/9 26/32/9 27/33/9 23/34/9
f 28/35/10 29/36/10 30/37/10 31/38/10
f 32/39/11 33/40/11 34/41/11 35/42/11
f 36/43/12 37/44/12 20/45/12 19/46/12
f 10/47/13 18/22/13 17/21/13 38/48/13
f 39/49/14 40/50/14 41/51/14 42/52/14
f 31/53/15 30/54/15 43/55/15 44/56/15
f 45/57/16 46/58/16 47/59/16 48/60/16
f 49/61/17 50/62/17 51/63/17 52/64/17
f 53/65/18 54/66/18 37/44/18 36/43/18
f 15/18/19 55/67/19 50/68/19 49/69/19
f 55/67/20 27/70/20 48/71/20 50/68/20
f 56/72/21 16/73/21 33/74/21 57/75/21
f 27/33/22 26/32/22 45/76/22 48/77/22
f 2/2/23 58/78/23 29/79/23 28/80/23
f 26/81/24 3/3/24 46/82/24 45/83/24
f 7/7/25 6/6/25 59/84/25 60/85/25
f 18/22/26 7/86/26 60/87/26 19/23/26
f 57/88/27 53/65/27 36/43/27 59/89/27
f 47/90/28 31/53/28 44/56/28 61/91/28
f 62/92/29 39/49/29 42/52/29 63/93/29
f 8/94/30 7/86/30 18/22/30 10/47/30
f 59/89/31 36/43/31 19/46/31 60/95/31
f 64/96/32 32/39/32 35/42/32 65/97/32
f 66/98/33 1/27/33 24/30/33 67/99/33
f 68/100/34 9/9/34 10/12/34 38/101/34
f 66/102/35 58/78/35 2/2/35 1/1/35
f 56/103/36 6/104/36 69/105/36 70/106/36
f 27/107/37 55/108/37 71/109/37 72/110/37
f 6/104/38 5/111/38 9/112/38 69/105/38
f 16/113/39 73/114/39 14/115/39 13/116/39
f 55/108/40 74/117/40 75/118/40 71/109/40
f 27/107/41 72/110/41 24/119/41 23/120/41
f 70/121/42 69/122/42 9/123/42 76/124/42
f 72/125/42 71/126/42 75/127/42 24/128/42
f 77/129/43 67/99/43 24/30/43 75/130/43
f 78/131/44 76/132/44 9/9/44 68/100/44
f 52/133/45 51/134/45 61/135/45 62/136/45
f 51/134/46 47/137/46 61/135/46
f 35/138/47 34/139/47 63/140/47 42/141/47
f 65/142/48 35/138/48 42/141/48 41/143/48
f 34/144/49 52/133/49 62/136/49 63/145/49
f 61/91/50 44/56/50 39/49/50 62/92/50
f 16/19/51 15/18/51 49/69/51 33/146/51
f 33/147/52 49/61/52 52/64/52 34/148/52
f 44/56/53 43/55/53 40/50/53 39/49/53
f 77/149/54 75/150/54 11/13/54 21/25/54
f 74/151/55 55/67/55 15/18/55 12/17/55
f 75/150/56 74/152/56 12/14/56 11/13/56
f 50/62/57 48/153/57 47/154/57 51/63/57
f 47/59/58 46/58/58 28/35/58 31/38/58
f 79/155/59 80/156/59 81/157/59 82/158/59
f 79/159/60 83/160/60 84/161/60 85/162/60
f 80/156/61 79/155/61 85/163/61 86/164/61
f 87/165/62 80/166/62 86/167/62 88/168/62
f 83/169/63 87/170/63 88/171/63 84/172/63
f 89/173/64 82/174/64 90/175/64
f 80/166/65 87/165/65 91/176/65 81/177/65
f 83/160/66 79/159/66 82/178/66 89/179/66
f 87/170/67 83/169/67 89/180/67 91/181/67
f 90/182/68 92/183/68 91/184/68 89/185/68
f 92/183/69 90/182/69 93/186/69 94/187/69
f 81/188/70 91/189/70 92/190/70
f 84/191/71 88/192/71 86/193/71 85/194/71
f 82/195/71 81/196/71 95/197/71 96/198/71
f 90/175/72 82/174/72 96/199/72 93/200/72
f 81/188/73 92/190/73 94/201/73 95/202/73
f 22/203/74 14/204/74 76/132/74 78/131/74
f 4/4/75 3/3/75 26/81/75 25/205/75
f 46/82/76 3/3/76 2/2/76 28/80/76
f 23/29/77 4/28/77 25/206/77
f 73/207/42 70/121/42 76/124/42 14/208/42
f 16/113/36 56/103/36 70/106/36 73/114/36
f 33/40/78 32/39/78 53/65/78 57/88/78
f 6/6/79 56/72/79 57/75/79 59/84/79
f 32/39/80 64/96/80 54/66/80 53/65/80
f 97/1/81 98/4/81 99/3/81 100/2/81
f 101/5/82 102/8/82 103/7/82 104/6/82
f 105/9/83 106/12/83 102/11/83 101/10/83
f 107/13/84 108/16/84 109/15/84 110/14/84
f 110/17/85 109/20/85 111/19/85 112/18/85
f 17/21/86 20/24/86 113/23/86 114/22/86
f 21/25/87 22/26/87 108/16/87 107/13/87
f 97/27/88 115/30/88 116/29/88 98/28/88
f 117/31/89 116/34/89 118/33/89 119/32/89
f 120/35/90 121/38/90 30/37/90 29/36/90
f 122/39/91 123/42/91 124/41/91 125/40/91
f 126/43/92 113/46/92 20/45/92 37/44/92
f 106/47/93 38/48/93 17/21/93 114/22/93
f 127/49/94 128/52/94 41/51/94 40/50/94
f 121/53/95 129/56/95 43/55/95 30/54/95
f 130/57/96 131/60/96 132/59/96 133/58/96
f 134/61/97 135/64/97 136/63/97 137/62/97
f 138/65/98 126/43/98 37/44/98 54/66/98
f 112/18/99 134/69/99 137/68/99 139/67/99
f 139/67/100 137/68/100 131/71/100 118/70/100
f 140/72/101 141/75/101 125/74/101 111/73/101
f 118/33/102 131/77/102 130/76/102 119/32/102
f 100/2/23 120/80/23 29/79/23 58/78/23
f 119/81/103 130/83/103 133/82/103 99/3/103
f 103/7/104 142/85/104 143/84/104 104/6/104
f 114/22/105 113/23/105 142/87/105 103/86/105
f 141/88/106 143/89/106 126/43/106 138/65/106
f 132/90/107 144/91/107 129/56/107 121/53/107
f 145/92/108 146/93/108 128/52/108 127/49/108
f 102/94/109 106/47/109 114/22/109 103/86/109
f 143/89/110 142/95/110 113/46/110 126/43/110
f 64/96/111 65/97/111 123/42/111 122/39/111
f 66/98/33 67/99/33 115/30/33 97/27/33
f 68/100/112 38/101/112 106/12/112 105/9/112
f 66/102/35 97/1/35 100/2/35 58/78/35
f 140/103/36 147/106/36 148/105/36 104/104/36
f 118/107/37 149/110/37 150/109/37 139/108/37
f 104/104/113 148/105/113 105/112/113 101/111/113
f 111/113/114 109/116/114 108/115/114 151/114/114
f 139/108/115 150/109/115 152/118/115 153/117/115
f 118/107/116 116/120/116 115/119/116 149/110/116
f 147/121/117 154/124/117 105/123/117 148/122/117
f 149/125/117 115/128/117 152/127/117 150/126/117
f 77/129/118 152/130/118 115/30/118 67/99/118
f 78/131/119 68/100/119 105/9/119 154/132/119
f 135/133/120 145/136/120 144/135/120 136/134/120
f 136/134/121 144/135/121 132/137/121
f 123/138/122 128/141/122 146/140/122 124/139/122
f 65/142/123 41/143/123 128/141/123 123/138/123
f 124/144/124 146/145/124 145/136/124 135/133/124
f 144/91/125 145/92/125 127/49/125 129/56/125
f 111/19/126 125/146/126 134/69/126 112/18/126
f 125/147/127 124/148/127 135/64/127 134/61/127
f 129/56/128 127/49/128 40/50/128 43/55/128
f 77/149/129 21/25/129 107/13/129 152/150/129
f 153/151/130 110/17/130 112/18/130 139/67/130
f 152/150/131 107/13/131 110/14/131 153/152/131
f 137/62/132 136/63/132 132/154/132 131/153/132
f 132/59/133 121/38/133 120/35/133 133/58/133
f 155/155/134 156/158/134 157/157/134 158/156/134
f 155/159/135 159/162/135 160/161/135 161/160/135
f 158/156/136 162/164/136 159/163/136 155/155/136
f 163/165/137 164/168/137 162/167/137 158/166/137
f 161/169/138 160/172/138 164/171/138 163/170/138
f 165/173/139 166/175/139 156/174/139
f 158/166/140 157/177/140 167/176/140 163/165/140
f 161/160/141 165/179/141 156/178/141 155/159/141
f 163/170/142 167/181/142 165/180/142 161/169/142
f 166/182/143 165/185/143 167/184/143 168/183/143
f 168/183/69 169/187/69 170/186/69 166/182/69
f 157/188/144 168/190/144 167/189/144
f 160/191/71 159/194/71 162/193/71 164/192/71
f 156/195/71 171/198/71 172/197/71 157/196/71
f 166/175/145 170/200/145 171/199/145 156/174/145
f 157/188/146 172/202/146 169/201/146 168/190/146
f 22/203/147 78/131/147 154/132/147 108/204/147
f 98/4/148 117/205/148 119/81/148 99/3/148
f 133/82/149 120/80/149 100/2/149 99/3/149
f 116/29/150 117/206/150 98/28/150
f 151/207/117 108/208/117 154/124/117 147/121/117
f 111/113/36 151/114/36 147/106/36 140/103/36
f 125/40/151 141/88/151 138/65/151 122/39/151
f 104/6/152 143/84/152 141/75/152 140/72/152
f 122/39/153 138/65/153 54/66/153 64/96/153
