# PSX Racing car model — generated by tools/carmodels/export_models.mjs
mtllib midship_coupe_wheels_r.mtl
v -0.886000 0.601699 1.267431
v -0.871984 0.636719 1.267431
v -0.871984 0.612485 1.145600
v -0.886000 0.580131 1.159001
v -0.871984 0.543473 1.042316
v -0.886000 0.518710 1.067079
v -0.871984 0.440190 0.973305
v -0.886000 0.426789 1.005659
v -0.871984 0.318359 0.949071
v -0.886000 0.318359 0.984091
v -0.871984 0.196529 0.973305
v -0.886000 0.209930 1.005659
v -0.871984 0.093245 1.042316
v -0.886000 0.118008 1.067079
v -0.871984 0.024233 1.145600
v -0.886000 0.056588 1.159001
v -0.871984 0.000000 1.267431
v -0.886000 0.035020 1.267431
v -0.871984 0.024233 1.389261
v -0.886000 0.056588 1.375860
v -0.871984 0.093245 1.492545
v -0.886000 0.118008 1.467782
v -0.871984 0.196529 1.561556
v -0.886000 0.209930 1.529202
v -0.871984 0.318359 1.585790
v -0.886000 0.318359 1.550770
v -0.871984 0.440190 1.561556
v -0.886000 0.426789 1.529202
v -0.871984 0.543473 1.492545
v -0.886000 0.518710 1.467782
v -0.871984 0.612485 1.389261
v -0.886000 0.580131 1.375860
v -0.871984 0.636719 1.267431
v -0.685774 0.636719 1.267431
v -0.685774 0.612485 1.145600
v -0.871984 0.612485 1.145600
v -0.685774 0.543473 1.042316
v -0.871984 0.543473 1.042316
v -0.685774 0.440190 0.973305
v -0.871984 0.440190 0.973305
v -0.685774 0.318359 0.949071
v -0.871984 0.318359 0.949071
v -0.685774 0.196529 0.973305
v -0.871984 0.196529 0.973305
v -0.685774 0.093245 1.042316
v -0.871984 0.093245 1.042316
v -0.685774 0.024233 1.145600
v -0.871984 0.024233 1.145600
v -0.685774 0.000000 1.267431
v -0.871984 0.000000 1.267431
v -0.685774 0.024233 1.389261
v -0.871984 0.024233 1.389261
v -0.685774 0.093245 1.492545
v -0.871984 0.093245 1.492545
v -0.685774 0.196529 1.561556
v -0.871984 0.196529 1.561556
v -0.685774 0.318359 1.585790
v -0.871984 0.318359 1.585790
v -0.685774 0.440190 1.561556
v -0.871984 0.440190 1.561556
v -0.685774 0.543473 1.492545
v -0.871984 0.543473 1.492545
v -0.685774 0.612485 1.389261
v -0.871984 0.612485 1.389261
v -0.685774 0.636719 1.267431
v -0.671758 0.601699 1.267431
v -0.671758 0.580131 1.159001
v -0.685774 0.612485 1.145600
v -0.671758 0.518710 1.067079
v -0.685774 0.543473 1.042316
v -0.671758 0.426789 1.005659
v -0.685774 0.440190 0.973305
v -0.671758 0.318359 0.984091
v -0.685774 0.318359 0.949071
v -0.671758 0.209930 1.005659
v -0.685774 0.196529 0.973305
v -0.671758 0.118008 1.067079
v -0.685774 0.093245 1.042316
v -0.671758 0.056588 1.159001
v -0.685774 0.024233 1.145600
v -0.671758 0.035020 1.267431
v -0.685774 0.000000 1.267431
v -0.671758 0.056588 1.375860
v -0.685774 0.024233 1.389261
v -0.671758 0.118008 1.467782
v -0.685774 0.093245 1.492545
v -0.671758 0.209930 1.529202
v -0.685774 0.196529 1.561556
v -0.671758 0.318359 1.550770
v -0.685774 0.318359 1.585790
v -0.671758 0.426789 1.529202
v -0.685774 0.440190 1.561556
v -0.671758 0.518710 1.467782
v -0.685774 0.543473 1.492545
v -0.671758 0.580131 1.375860
v -0.685774 0.612485 1.389261
v -0.886000 0.518710 1.467782
v -0.886000 0.580131 1.375860
v -0.886000 0.601699 1.267431
v -0.886000 0.580131 1.159001
v -0.886000 0.518710 1.067079
v -0.886000 0.426789 1.005659
v -0.886000 0.318359 0.984091
v -0.886000 0.209930 1.005659
v -0.886000 0.118008 1.067079
v -0.886000 0.056588 1.159001
v -0.886000 0.035020 1.267431
v -0.886000 0.056588 1.375860
v -0.886000 0.118008 1.467782
v -0.886000 0.209930 1.529202
v -0.886000 0.318359 1.550770
v -0.886000 0.426789 1.529202
v -0.671758 0.580131 1.159001
v -0.671758 0.601699 1.267431
v -0.671758 0.580131 1.375860
v -0.671758 0.518710 1.467782
v -0.671758 0.426789 1.529202
v -0.671758 0.318359 1.550770
v -0.671758 0.209930 1.529202
v -0.671758 0.118008 1.467782
v -0.671758 0.056588 1.375860
v -0.671758 0.035020 1.267431
v -0.671758 0.056588 1.159001
v -0.671758 0.118008 1.067079
v -0.671758 0.209930 1.005659
v -0.671758 0.318359 0.984091
v -0.671758 0.426789 1.005659
v -0.671758 0.518710 1.067079
v 0.671758 0.601699 1.267431
v 0.685774 0.636719 1.267431
v 0.685774 0.612485 1.145600
v 0.671758 0.580131 1.159001
v 0.685774 0.543473 1.042316
v 0.671758 0.518710 1.067079
v 0.685774 0.440190 0.973305
v 0.671758 0.426789 1.005659
v 0.685774 0.318359 0.949071
v 0.671758 0.318359 0.984091
v 0.685774 0.196529 0.973305
v 0.671758 0.209930 1.005659
v 0.685774 0.093245 1.042316
v 0.671758 0.118008 1.067079
v 0.685774 0.024233 1.145600
v 0.671758 0.056588 1.159001
v 0.685774 0.000000 1.267431
v 0.671758 0.035020 1.267431
v 0.685774 0.024233 1.389261
v 0.671758 0.056588 1.375860
v 0.685774 0.093245 1.492545
v 0.671758 0.118008 1.467782
v 0.685774 0.196529 1.561556
v 0.671758 0.209930 1.529202
v 0.685774 0.318359 1.585790
v 0.671758 0.318359 1.550770
v 0.685774 0.440190 1.561556
v 0.671758 0.426789 1.529202
v 0.685774 0.543473 1.492545
v 0.671758 0.518710 1.467782
v 0.685774 0.612485 1.389261
v 0.671758 0.580131 1.375860
v 0.685774 0.636719 1.267431
v 0.871984 0.636719 1.267431
v 0.871984 0.612485 1.145600
v 0.685774 0.612485 1.145600
v 0.871984 0.543473 1.042316
v 0.685774 0.543473 1.042316
v 0.871984 0.440190 0.973305
v 0.685774 0.440190 0.973305
v 0.871984 0.318359 0.949071
v 0.685774 0.318359 0.949071
v 0.871984 0.196529 0.973305
v 0.685774 0.196529 0.973305
v 0.871984 0.093245 1.042316
v 0.685774 0.093245 1.042316
v 0.871984 0.024233 1.145600
v 0.685774 0.024233 1.145600
v 0.871984 0.000000 1.267431
v 0.685774 0.000000 1.267431
v 0.871984 0.024233 1.389261
v 0.685774 0.024233 1.389261
v 0.871984 0.093245 1.492545
v 0.685774 0.093245 1.492545
v 0.871984 0.196529 1.561556
v 0.685774 0.196529 1.561556
v 0.871984 0.318359 1.585790
v 0.685774 0.318359 1.585790
v 0.871984 0.440190 1.561556
v 0.685774 0.440190 1.561556
v 0.871984 0.543473 1.492545
v 0.685774 0.543473 1.492545
v 0.871984 0.612485 1.389261
v 0.685774 0.612485 1.389261
v 0.871984 0.636719 1.267431
v 0.886000 0.601699 1.267431
v 0.886000 0.580131 1.159001
v 0.871984 0.612485 1.145600
v 0.886000 0.518710 1.067079
v 0.871984 0.543473 1.042316
v 0.886000 0.426789 1.005659
v 0.871984 0.440190 0.973305
v 0.886000 0.318359 0.984091
v 0.871984 0.318359 0.949071
v 0.886000 0.209930 1.005659
v 0.871984 0.196529 0.973305
v 0.886000 0.118008 1.067079
v 0.871984 0.093245 1.042316
v 0.886000 0.056588 1.159001
v 0.871984 0.024233 1.145600
v 0.886000 0.035020 1.267431
v 0.871984 0.000000 1.267431
v 0.886000 0.056588 1.375860
v 0.871984 0.024233 1.389261
v 0.886000 0.118008 1.467782
v 0.871984 0.093245 1.492545
v 0.886000 0.209930 1.529202
v 0.871984 0.196529 1.561556
v 0.886000 0.318359 1.550770
v 0.871984 0.318359 1.585790
v 0.886000 0.426789 1.529202
v 0.871984 0.440190 1.561556
v 0.886000 0.518710 1.467782
v 0.871984 0.543473 1.492545
v 0.886000 0.580131 1.375860
v 0.871984 0.612485 1.389261
v 0.671758 0.518710 1.467782
v 0.671758 0.580131 1.375860
v 0.671758 0.601699 1.267431
v 0.671758 0.580131 1.159001
v 0.671758 0.518710 1.067079
v 0.671758 0.426789 1.005659
v 0.671758 0.318359 0.984091
v 0.671758 0.209930 1.005659
v 0.671758 0.118008 1.067079
v 0.671758 0.056588 1.159001
v 0.671758 0.035020 1.267431
v 0.671758 0.056588 1.375860
v 0.671758 0.118008 1.467782
v 0.671758 0.209930 1.529202
v 0.671758 0.318359 1.550770
v 0.671758 0.426789 1.529202
v 0.886000 0.580131 1.159001
v 0.886000 0.601699 1.267431
v 0.886000 0.580131 1.375860
v 0.886000 0.518710 1.467782
v 0.886000 0.426789 1.529202
v 0.886000 0.318359 1.550770
v 0.886000 0.209930 1.529202
v 0.886000 0.118008 1.467782
v 0.886000 0.056588 1.375860
v 0.886000 0.035020 1.267431
v 0.886000 0.056588 1.159001
v 0.886000 0.118008 1.067079
v 0.886000 0.209930 1.005659
v 0.886000 0.318359 0.984091
v 0.886000 0.426789 1.005659
v 0.886000 0.518710 1.067079
vt 0.323242 0.179688
vt 0.325031 0.179688
vt 0.325031 0.172119
vt 0.323242 0.172119
vt 0.325031 0.164551
vt 0.323242 0.164551
vt 0.325031 0.156982
vt 0.323242 0.156982
vt 0.325031 0.149414
vt 0.323242 0.149414
vt 0.325031 0.141846
vt 0.323242 0.141846
vt 0.325031 0.134277
vt 0.323242 0.134277
vt 0.325031 0.126709
vt 0.323242 0.126709
vt 0.325031 0.119141
vt 0.323242 0.119141
vt 0.325031 0.232666
vt 0.323242 0.232666
vt 0.325031 0.225098
vt 0.323242 0.225098
vt 0.325031 0.217529
vt 0.323242 0.217529
vt 0.325031 0.209961
vt 0.323242 0.209961
vt 0.325031 0.202393
vt 0.323242 0.202393
vt 0.325031 0.194824
vt 0.323242 0.194824
vt 0.325031 0.187256
vt 0.323242 0.187256
vt 0.348797 0.179688
vt 0.348797 0.172119
vt 0.348797 0.164551
vt 0.348797 0.156982
vt 0.348797 0.149414
vt 0.348797 0.141846
vt 0.348797 0.134277
vt 0.348797 0.126709
vt 0.348797 0.119141
vt 0.348797 0.232666
vt 0.348797 0.225098
vt 0.348797 0.217529
vt 0.348797 0.209961
vt 0.348797 0.202393
vt 0.348797 0.194824
vt 0.348797 0.187256
vt 0.350586 0.179688
vt 0.350586 0.172119
vt 0.350586 0.164551
vt 0.350586 0.156982
vt 0.350586 0.149414
vt 0.350586 0.141846
vt 0.350586 0.134277
vt 0.350586 0.126709
vt 0.350586 0.119141
vt 0.350586 0.232666
vt 0.350586 0.225098
vt 0.350586 0.217529
vt 0.350586 0.209961
vt 0.350586 0.202393
vt 0.350586 0.194824
vt 0.350586 0.187256
vt 0.238584 0.210333
vt 0.250990 0.226912
vt 0.265625 0.232734
vt 0.280260 0.226912
vt 0.292666 0.210333
vt 0.300956 0.185519
vt 0.303867 0.156250
vt 0.300956 0.126981
vt 0.292666 0.102167
vt 0.280260 0.085588
vt 0.265625 0.079766
vt 0.250990 0.085588
vt 0.238584 0.102167
vt 0.230294 0.126981
vt 0.227383 0.156250
vt 0.230294 0.185519
vt 0.323242 0.179688
vt 0.325031 0.179688
vt 0.325031 0.172119
vt 0.323242 0.172119
vt 0.325031 0.164551
vt 0.323242 0.164551
vt 0.325031 0.156982
vt 0.323242 0.156982
vt 0.325031 0.149414
vt 0.323242 0.149414
vt 0.325031 0.141846
vt 0.323242 0.141846
vt 0.325031 0.134277
vt 0.323242 0.134277
vt 0.325031 0.126709
vt 0.323242 0.126709
vt 0.325031 0.119141
vt 0.323242 0.119141
vt 0.325031 0.232666
vt 0.323242 0.232666
vt 0.325031 0.225098
vt 0.323242 0.225098
vt 0.325031 0.217529
vt 0.323242 0.217529
vt 0.325031 0.209961
vt 0.323242 0.209961
vt 0.325031 0.202393
vt 0.323242 0.202393
vt 0.325031 0.194824
vt 0.323242 0.194824
vt 0.325031 0.187256
vt 0.323242 0.187256
vt 0.348797 0.179688
vt 0.348797 0.172119
vt 0.348797 0.164551
vt 0.348797 0.156982
vt 0.348797 0.149414
vt 0.348797 0.141846
vt 0.348797 0.134277
vt 0.348797 0.126709
vt 0.348797 0.119141
vt 0.348797 0.232666
vt 0.348797 0.225098
vt 0.348797 0.217529
vt 0.348797 0.209961
vt 0.348797 0.202393
vt 0.348797 0.194824
vt 0.348797 0.187256
vt 0.350586 0.179688
vt 0.350586 0.172119
vt 0.350586 0.164551
vt 0.350586 0.156982
vt 0.350586 0.149414
vt 0.350586 0.141846
vt 0.350586 0.134277
vt 0.350586 0.126709
vt 0.350586 0.119141
vt 0.350586 0.232666
vt 0.350586 0.225098
vt 0.350586 0.217529
vt 0.350586 0.209961
vt 0.350586 0.202393
vt 0.350586 0.194824
vt 0.350586 0.187256
vt 0.238584 0.210333
vt 0.250990 0.226912
vt 0.265625 0.232734
vt 0.280260 0.226912
vt 0.292666 0.210333
vt 0.300956 0.185519
vt 0.303867 0.156250
vt 0.300956 0.126981
vt 0.292666 0.102167
vt 0.280260 0.085588
vt 0.265625 0.079766
vt 0.250990 0.085588
vt 0.238584 0.102167
vt 0.230294 0.126981
vt 0.227383 0.156250
vt 0.230294 0.185519
vn -0.977300 0.211800 0.000000
vn -0.928400 0.371600 0.000000
vn -0.928400 0.343300 -0.142200
vn -0.977300 0.195700 -0.081000
vn -0.928400 0.262700 -0.262700
vn -0.977300 0.149800 -0.149800
vn -0.928400 0.142200 -0.343300
vn -0.977300 0.081000 -0.195700
vn -0.928400 0.000000 -0.371600
vn -0.977300 0.000000 -0.211800
vn -0.928400 -0.142200 -0.343300
vn -0.977300 -0.081000 -0.195700
vn -0.928400 -0.262700 -0.262700
vn -0.977300 -0.149800 -0.149800
vn -0.928400 -0.343300 -0.142200
vn -0.977300 -0.195700 -0.081000
vn -0.928400 -0.371600 0.000000
vn -0.977300 -0.211800 0.000000
vn -0.928400 -0.343300 0.142200
vn -0.977300 -0.195700 0.081000
vn -0.928400 -0.262700 0.262700
vn -0.977300 -0.149800 0.149800
vn -0.928400 -0.142200 0.343300
vn -0.977300 -0.081000 0.195700
vn -0.928400 0.000000 0.371600
vn -0.977300 0.000000 0.211800
vn -0.928400 0.142200 0.343300
vn -0.977300 0.081000 0.195700
vn -0.928400 0.262700 0.262700
vn -0.977300 0.149800 0.149800
vn -0.928400 0.343300 0.142200
vn -0.977300 0.195700 0.081000
vn 0.000000 1.000000 0.000000
vn 0.000000 0.923900 -0.382700
vn 0.000000 0.707100 -0.707100
vn 0.000000 0.382700 -0.923900
vn 0.000000 0.000000 -1.000000
vn 0.000000 -0.382700 -0.923900
vn 0.000000 -0.707100 -0.707100
vn 0.000000 -0.923900 -0.382700
vn 0.000000 -1.000000 0.000000
vn 0.000000 -0.923900 0.382700
vn 0.000000 -0.707100 0.707100
vn 0.000000 -0.382700 0.923900
vn 0.000000 0.000000 1.000000
vn 0.000000 0.382700 0.923900
vn 0.000000 0.707100 0.707100
vn 0.000000 0.923900 0.382700
vn 0.928400 0.371600 0.000000
vn 0.977300 0.211800 0.000000
vn 0.977300 0.195700 -0.081000
vn 0.928400 0.343300 -0.142200
vn 0.977300 0.149800 -0.149800
vn 0.928400 0.262700 -0.262700
vn 0.977300 0.081000 -0.195700
vn 0.928400 0.142200 -0.343300
vn 0.977300 0.000000 -0.211800
vn 0.928400 0.000000 -0.371600
vn 0.977300 -0.081000 -0.195700
vn 0.928400 -0.142200 -0.343300
vn 0.977300 -0.149800 -0.149800
vn 0.928400 -0.262700 -0.262700
vn 0.977300 -0.195700 -0.081000
vn 0.928400 -0.343300 -0.142200
vn 0.977300 -0.211800 0.000000
vn 0.928400 -0.371600 0.000000
vn 0.977300 -0.195700 0.081000
vn 0.928400 -0.343300 0.142200
vn 0.977300 -0.149800 0.149800
vn 0.928400 -0.262700 0.262700
vn 0.977300 -0.081000 0.195700
vn 0.928400 -0.142200 0.343300
vn 0.977300 0.000000 0.211800
vn 0.928400 0.000000 0.371600
vn 0.977300 0.081000 0.195700
vn 0.928400 0.142200 0.343300
vn 0.977300 0.149800 0.149800
vn 0.928400 0.262700 0.262700
vn 0.977300 0.195700 0.081000
vn 0.928400 0.343300 0.142200
vn -0.977300 0.211800 0.000000
vn -0.928400 0.371600 0.000000
vn -0.928400 0.343300 -0.142200
vn -0.977300 0.195700 -0.081000
vn -0.928400 0.262700 -0.262700
vn -0.977300 0.149800 -0.149800
vn -0.928400 0.142200 -0.343300
vn -0.977300 0.081000 -0.195700
vn -0.928400 0.000000 -0.371600
vn -0.977300 0.000000 -0.211800
vn -0.928400 -0.142200 -0.343300
vn -0.977300 -0.081000 -0.195700
vn -0.928400 -0.262700 -0.262700
vn -0.977300 -0.149800 -0.149800
vn -0.928400 -0.343300 -0.142200
vn -0.977300 -0.195700 -0.081000
vn -0.928400 -0.371600 0.000000
vn -0.977300 -0.211800 0.000000
vn -0.928400 -0.343300 0.142200
vn -0.977300 -0.195700 0.081000
vn -0.928400 -0.262700 0.262700
vn -0.977300 -0.149800 0.149800
vn -0.928400 -0.142200 0.343300
vn -0.977300 -0.081000 0.195700
vn -0.928400 0.000000 0.371600
vn -0.977300 0.000000 0.211800
vn -0.928400 0.142200 0.343300
vn -0.977300 0.081000 0.195700
vn -0.928400 0.262700 0.262700
vn -0.977300 0.149800 0.149800
vn -0.928400 0.343300 0.142200
vn -0.977300 0.195700 0.081000
vn 0.000000 1.000000 0.000000
vn 0.000000 0.923900 -0.382700
vn 0.000000 0.707100 -0.707100
vn 0.000000 0.382700 -0.923900
vn 0.000000 0.000000 -1.000000
vn 0.000000 -0.382700 -0.923900
vn 0.000000 -0.707100 -0.707100
vn 0.000000 -0.923900 -0.382700
vn 0.000000 -1.000000 0.000000
vn 0.000000 -0.923900 0.382700
vn 0.000000 -0.707100 0.707100
vn 0.000000 -0.382700 0.923900
vn 0.000000 0.000000 1.000000
vn 0.000000 0.382700 0.923900
vn 0.000000 0.707100 0.707100
vn 0.000000 0.923900 0.382700
vn 0.928400 0.371600 0.000000
vn 0.977300 0.211800 0.000000
vn 0.977300 0.195700 -0.081000
vn 0.928400 0.343300 -0.142200
vn 0.977300 0.149800 -0.149800
vn 0.928400 0.262700 -0.262700
vn 0.977300 0.081000 -0.195700
vn 0.928400 0.142200 -0.343300
vn 0.977300 0.000000 -0.211800
vn 0.928400 0.000000 -0.371600
vn 0.977300 -0.081000 -0.195700
vn 0.928400 -0.142200 -0.343300
vn 0.977300 -0.149800 -0.149800
vn 0.928400 -0.262700 -0.262700
vn 0.977300 -0.195700 -0.081000
vn 0.928400 -0.343300 -0.142200
vn 0.977300 -0.211800 0.000000
vn 0.928400 -0.371600 0.000000
vn 0.977300 -0.195700 0.081000
vn 0.928400 -0.343300 0.142200
vn 0.977300 -0.149800 0.149800
vn 0.928400 -0.262700 0.262700
vn 0.977300 -0.081000 0.195700
vn 0.928400 -0.142200 0.343300
vn 0.977300 0.000000 0.211800
vn 0.928400 0.000000 0.371600
vn 0.977300 0.081000 0.195700
vn 0.928400 0.142200 0.343300
vn 0.977300 0.149800 0.149800
vn 0.928400 0.262700 0.262700
vn 0.977300 0.195700 0.081000
vn 0.928400 0.343300 0.142200
o midship_coupe_wheels_r
usemtl midship_coupe_wheels_r
f 1/1/1 2/2/2 3/3/3
f 1/1/1 3/3/3 4/4/4
f 4/4/4 3/3/3 5/5/5
f 4/4/4 5/5/5 6/6/6
f 6/6/6 5/5/5 7/7/7
f 6/6/6 7/7/7 8/8/8
f 8/8/8 7/7/7 9/9/9
f 8/8/8 9/9/9 10/10/10
f 10/10/10 9/9/9 11/11/11
f 10/10/10 11/11/11 12/12/12
f 12/12/12 11/11/11 13/13/13
f 12/12/12 13/13/13 14/14/14
f 14/14/14 13/13/13 15/15/15
f 14/14/14 15/15/15 16/16/16
f 16/16/16 15/15/15 17/17/17
f 16/16/16 17/17/17 18/18/18
f 18/18/18 17/17/17 19/19/19
f 18/18/18 19/19/19 20/20/20
f 20/20/20 19/19/19 21/21/21
f 20/20/20 21/21/21 22/22/22
f 22/22/22 21/21/21 23/23/23
f 22/22/22 23/23/23 24/24/24
f 24/24/24 23/23/23 25/25/25
f 24/24/24 25/25/25 26/26/26
f 26/26/26 25/25/25 27/27/27
f 26/26/26 27/27/27 28/28/28
f 28/28/28 27/27/27 29/29/29
f 28/28/28 29/29/29 30/30/30
f 30/30/30 29/29/29 31/31/31
f 30/30/30 31/31/31 32/32/32
f 32/32/32 31/31/31 2/2/2
f 32/32/32 2/2/2 1/1/1
f 33/2/33 34/33/33 35/34/34
f 33/2/33 35/34/34 36/3/34
f 36/3/34 35/34/34 37/35/35
f 36/3/34 37/35/35 38/5/35
f 38/5/35 37/35/35 39/36/36
f 38/5/35 39/36/36 40/7/36
f 40/7/36 39/36/36 41/37/37
f 40/7/36 41/37/37 42/9/37
f 42/9/37 41/37/37 43/38/38
f 42/9/37 43/38/38 44/11/38
f 44/11/38 43/38/38 45/39/39
f 44/11/38 45/39/39 46/13/39
f 46/13/39 45/39/39 47/40/40
f 46/13/39 47/40/40 48/15/40
f 48/15/40 47/40/40 49/41/41
f 48/15/40 49/41/41 50/17/41
f 50/17/41 49/41/41 51/42/42
f 50/17/41 51/42/42 52/19/42
f 52/19/42 51/42/42 53/43/43
f 52/19/42 53/43/43 54/21/43
f 54/21/43 53/43/43 55/44/44
f 54/21/43 55/44/44 56/23/44
f 56/23/44 55/44/44 57/45/45
f 56/23/44 57/45/45 58/25/45
f 58/25/45 57/45/45 59/46/46
f 58/25/45 59/46/46 60/27/46
f 60/27/46 59/46/46 61/47/47
f 60/27/46 61/47/47 62/29/47
f 62/29/47 61/47/47 63/48/48
f 62/29/47 63/48/48 64/31/48
f 64/31/48 63/48/48 34/33/33
f 64/31/48 34/33/33 33/2/33
f 65/33/49 66/49/50 67/50/51
f 65/33/49 67/50/51 68/34/52
f 68/34/52 67/50/51 69/51/53
f 68/34/52 69/51/53 70/35/54
f 70/35/54 69/51/53 71/52/55
f 70/35/54 71/52/55 72/36/56
f 72/36/56 71/52/55 73/53/57
f 72/36/56 73/53/57 74/37/58
f 74/37/58 73/53/57 75/54/59
f 74/37/58 75/54/59 76/38/60
f 76/38/60 75/54/59 77/55/61
f 76/38/60 77/55/61 78/39/62
f 78/39/62 77/55/61 79/56/63
f 78/39/62 79/56/63 80/40/64
f 80/40/64 79/56/63 81/57/65
f 80/40/64 81/57/65 82/41/66
f 82/41/66 81/57/65 83/58/67
f 82/41/66 83/58/67 84/42/68
f 84/42/68 83/58/67 85/59/69
f 84/42/68 85/59/69 86/43/70
f 86/43/70 85/59/69 87/60/71
f 86/43/70 87/60/71 88/44/72
f 88/44/72 87/60/71 89/61/73
f 88/44/72 89/61/73 90/45/74
f 90/45/74 89/61/73 91/62/75
f 90/45/74 91/62/75 92/46/76
f 92/46/76 91/62/75 93/63/77
f 92/46/76 93/63/77 94/47/78
f 94/47/78 93/63/77 95/64/79
f 94/47/78 95/64/79 96/48/80
f 96/48/80 95/64/79 66/49/50
f 96/48/80 66/49/50 65/33/49
f 97/65/30 98/66/32 99/67/1
f 99/67/1 100/68/4 101/69/6
f 101/69/6 102/70/8 103/71/10
f 103/71/10 104/72/12 105/73/14
f 105/73/14 106/74/16 107/75/18
f 107/75/18 108/76/20 109/77/22
f 109/77/22 110/78/24 111/79/26
f 111/79/26 112/80/28 97/65/30
f 97/65/30 99/67/1 101/69/6
f 101/69/6 103/71/10 105/73/14
f 105/73/14 107/75/18 109/77/22
f 109/77/22 111/79/26 97/65/30
f 97/65/30 101/69/6 105/73/14
f 105/73/14 109/77/22 97/65/30
f 113/68/51 114/67/50 115/66/79
f 115/66/79 116/65/77 117/80/75
f 117/80/75 118/79/73 119/78/71
f 119/78/71 120/77/69 121/76/67
f 121/76/67 122/75/65 123/74/63
f 123/74/63 124/73/61 125/72/59
f 125/72/59 126/71/57 127/70/55
f 127/70/55 128/69/53 113/68/51
f 113/68/51 115/66/79 117/80/75
f 117/80/75 119/78/71 121/76/67
f 121/76/67 123/74/63 125/72/59
f 125/72/59 127/70/55 113/68/51
f 113/68/51 117/80/75 121/76/67
f 121/76/67 125/72/59 113/68/51
f 129/81/81 130/82/82 131/83/83
f 129/81/81 131/83/83 132/84/84
f 132/84/84 131/83/83 133/85/85
f 132/84/84 133/85/85 134/86/86
f 134/86/86 133/85/85 135/87/87
f 134/86/86 135/87/87 136/88/88
f 136/88/88 135/87/87 137/89/89
f 136/88/88 137/89/89 138/90/90
f 138/90/90 137/89/89 139/91/91
f 138/90/90 139/91/91 140/92/92
f 140/92/92 139/91/91 141/93/93
f 140/92/92 141/93/93 142/94/94
f 142/94/94 141/93/93 143/95/95
f 142/94/94 143/95/95 144/96/96
f 144/96/96 143/95/95 145/97/97
f 144/96/96 145/97/97 146/98/98
f 146/98/98 145/97/97 147/99/99
f 146/98/98 147/99/99 148/100/100
f 148/100/100 147/99/99 149/101/101
f 148/100/100 149/101/101 150/102/102
f 150/102/102 149/101/101 151/103/103
f 150/102/102 151/103/103 152/104/104
f 152/104/104 151/103/103 153/105/105
f 152/104/104 153/105/105 154/106/106
f 154/106/106 153/105/105 155/107/107
f 154/106/106 155/107/107 156/108/108
f 156/108/108 155/107/107 157/109/109
f 156/108/108 157/109/109 158/110/110
f 158/110/110 157/109/109 159/111/111
f 158/110/110 159/111/111 160/112/112
f 160/112/112 159/111/111 130/82/82
f 160/112/112 130/82/82 129/81/81
f 161/82/113 162/113/113 163/114/114
f 161/82/113 163/114/114 164/83/114
f 164/83/114 163/114/114 165/115/115
f 164/83/114 165/115/115 166/85/115
f 166/85/115 165/115/115 167/116/116
f 166/85/115 167/116/116 168/87/116
f 168/87/116 167/116/116 169/117/117
f 168/87/116 169/117/117 170/89/117
f 170/89/117 169/117/117 171/118/118
f 170/89/117 171/118/118 172/91/118
f 172/91/118 171/118/118 173/119/119
f 172/91/118 173/119/119 174/93/119
f 174/93/119 173/119/119 175/120/120
f 174/93/119 175/120/120 176/95/120
f 176/95/120 175/120/120 177/121/121
f 176/95/120 177/121/121 178/97/121
f 178/97/121 177/121/121 179/122/122
f 178/97/121 179/122/122 180/99/122
f 180/99/122 179/122/122 181/123/123
f 180/99/122 181/123/123 182/101/123
f 182/101/123 181/123/123 183/124/124
f 182/101/123 183/124/124 184/103/124
f 184/103/124 183/124/124 185/125/125
f 184/103/124 185/125/125 186/105/125
f 186/105/125 185/125/125 187/126/126
f 186/105/125 187/126/126 188/107/126
f 188/107/126 187/126/126 189/127/127
f 188/107/126 189/127/127 190/109/127
f 190/109/127 189/127/127 191/128/128
f 190/109/127 191/128/128 192/111/128
f 192/111/128 191/128/128 162/113/113
f 192/111/128 162/113/113 161/82/113
f 193/113/129 194/129/130 195/130/131
f 193/113/129 195/130/131 196/114/132
f 196/114/132 195/130/131 197/131/133
f 196/114/132 197/131/133 198/115/134
f 198/115/134 197/131/133 199/132/135
f 198/115/134 199/132/135 200/116/136
f 200/116/136 199/132/135 201/133/137
f 200/116/136 201/133/137 202/117/138
f 202/117/138 201/133/137 203/134/139
f 202/117/138 203/134/139 204/118/140
f 204/118/140 203/134/139 205/135/141
f 204/118/140 205/135/141 206/119/142
f 206/119/142 205/135/141 207/136/143
f 206/119/142 207/136/143 208/120/144
f 208/120/144 207/136/143 209/137/145
f 208/120/144 209/137/145 210/121/146
f 210/121/146 209/137/145 211/138/147
f 210/121/146 211/138/147 212/122/148
f 212/122/148 211/138/147 213/139/149
f 212/122/148 213/139/149 214/123/150
f 214/123/150 213/139/149 215/140/151
f 214/123/150 215/140/151 216/124/152
f 216/124/152 215/140/151 217/141/153
f 216/124/152 217/141/153 218/125/154
f 218/125/154 217/141/153 219/142/155
f 218/125/154 219/142/155 220/126/156
f 220/126/156 219/142/155 221/143/157
f 220/126/156 221/143/157 222/127/158
f 222/127/158 221/143/157 223/144/159
f 222/127/158 223/144/159 224/128/160
f 224/128/160 223/144/159 194/129/130
f 224/128/160 194/129/130 193/113/129
f 225/145/110 226/146/112 227/147/81
f 227/147/81 228/148/84 229/149/86
f 229/149/86 230/150/88 231/151/90
f 231/151/90 232/152/92 233/153/94
f 233/153/94 234/154/96 235/155/98
f 235/155/98 236/156/100 237/157/102
f 237/157/102 238/158/104 239/159/106
f 239/159/106 240/160/108 225/145/110
f 225/145/110 227/147/81 229/149/86
f 229/149/86 231/151/90 233/153/94
f 233/153/94 235/155/98 237/157/102
f 237/157/102 239/159/106 225/145/110
f 225/145/110 229/149/86 233/153/94
f 233/153/94 237/157/102 225/145/110
f 241/148/131 242/147/130 243/146/159
f 243/146/159 244/145/157 245/160/155
f 245/160/155 246/159/153 247/158/151
f 247/158/151 248/157/149 249/156/147
f 249/156/147 250/155/145 251/154/143
f 251/154/143 252/153/141 253/152/139
f 253/152/139 254/151/137 255/150/135
f 255/150/135 256/149/133 241/148/131
f 241/148/131 243/146/159 245/160/155
f 245/160/155 247/158/151 249/156/147
f 249/156/147 251/154/143 253/152/139
f 253/152/139 255/150/135 241/148/131
f 241/148/131 245/160/155 249/156/147
f 249/156/147 253/152/139 241/148/131
