# PSX Racing car model — generated by tools/carmodels/export_models.mjs
mtllib midship_coupe_wheels_f.mtl
v -0.875989 0.560072 -1.267431
v -0.861973 0.592669 -1.267431
v -0.861973 0.570111 -1.380833
v -0.875989 0.539996 -1.368358
v -0.861973 0.505875 -1.476971
v -0.875989 0.482825 -1.453921
v -0.861973 0.409736 -1.541208
v -0.875989 0.397262 -1.511093
v -0.861973 0.296334 -1.563765
v -0.875989 0.296334 -1.531168
v -0.861973 0.182932 -1.541208
v -0.875989 0.195407 -1.511093
v -0.861973 0.086794 -1.476971
v -0.875989 0.109844 -1.453921
v -0.861973 0.022557 -1.380833
v -0.875989 0.052672 -1.368358
v -0.861973 0.000000 -1.267431
v -0.875989 0.032597 -1.267431
v -0.861973 0.022557 -1.154029
v -0.875989 0.052672 -1.166503
v -0.861973 0.086794 -1.057890
v -0.875989 0.109844 -1.080940
v -0.861973 0.182932 -0.993654
v -0.875989 0.195407 -1.023768
v -0.861973 0.296334 -0.971096
v -0.875989 0.296334 -1.003693
v -0.861973 0.409736 -0.993654
v -0.875989 0.397262 -1.023768
v -0.861973 0.505875 -1.057890
v -0.875989 0.482825 -1.080940
v -0.861973 0.570111 -1.154029
v -0.875989 0.539996 -1.166503
v -0.861973 0.592669 -1.267431
v -0.675763 0.592669 -1.267431
v -0.675763 0.570111 -1.380833
v -0.861973 0.570111 -1.380833
v -0.675763 0.505875 -1.476971
v -0.861973 0.505875 -1.476971
v -0.675763 0.409736 -1.541208
v -0.861973 0.409736 -1.541208
v -0.675763 0.296334 -1.563765
v -0.861973 0.296334 -1.563765
v -0.675763 0.182932 -1.541208
v -0.861973 0.182932 -1.541208
v -0.675763 0.086794 -1.476971
v -0.861973 0.086794 -1.476971
v -0.675763 0.022557 -1.380833
v -0.861973 0.022557 -1.380833
v -0.675763 0.000000 -1.267431
v -0.861973 0.000000 -1.267431
v -0.675763 0.022557 -1.154029
v -0.861973 0.022557 -1.154029
v -0.675763 0.086794 -1.057890
v -0.861973 0.086794 -1.057890
v -0.675763 0.182932 -0.993654
v -0.861973 0.182932 -0.993654
v -0.675763 0.296334 -0.971096
v -0.861973 0.296334 -0.971096
v -0.675763 0.409736 -0.993654
v -0.861973 0.409736 -0.993654
v -0.675763 0.505875 -1.057890
v -0.861973 0.505875 -1.057890
v -0.675763 0.570111 -1.154029
v -0.861973 0.570111 -1.154029
v -0.675763 0.592669 -1.267431
v -0.661747 0.560072 -1.267431
v -0.661747 0.539996 -1.368358
v -0.675763 0.570111 -1.380833
v -0.661747 0.482825 -1.453921
v -0.675763 0.505875 -1.476971
v -0.661747 0.397262 -1.511093
v -0.675763 0.409736 -1.541208
v -0.661747 0.296334 -1.531168
v -0.675763 0.296334 -1.563765
v -0.661747 0.195407 -1.511093
v -0.675763 0.182932 -1.541208
v -0.661747 0.109844 -1.453921
v -0.675763 0.086794 -1.476971
v -0.661747 0.052672 -1.368358
v -0.675763 0.022557 -1.380833
v -0.661747 0.032597 -1.267431
v -0.675763 0.000000 -1.267431
v -0.661747 0.052672 -1.166503
v -0.675763 0.022557 -1.154029
v -0.661747 0.109844 -1.080940
v -0.675763 0.086794 -1.057890
v -0.661747 0.195407 -1.023768
v -0.675763 0.182932 -0.993654
v -0.661747 0.296334 -1.003693
v -0.675763 0.296334 -0.971096
v -0.661747 0.397262 -1.023768
v -0.675763 0.409736 -0.993654
v -0.661747 0.482825 -1.080940
v -0.675763 0.505875 -1.057890
v -0.661747 0.539996 -1.166503
v -0.675763 0.570111 -1.154029
v -0.875989 0.482825 -1.080940
v -0.875989 0.539996 -1.166503
v -0.875989 0.560072 -1.267431
v -0.875989 0.539996 -1.368358
v -0.875989 0.482825 -1.453921
v -0.875989 0.397262 -1.511093
v -0.875989 0.296334 -1.531168
v -0.875989 0.195407 -1.511093
v -0.875989 0.109844 -1.453921
v -0.875989 0.052672 -1.368358
v -0.875989 0.032597 -1.267431
v -0.875989 0.052672 -1.166503
v -0.875989 0.109844 -1.080940
v -0.875989 0.195407 -1.023768
v -0.875989 0.296334 -1.003693
v -0.875989 0.397262 -1.023768
v -0.661747 0.539996 -1.368358
v -0.661747 0.560072 -1.267431
v -0.661747 0.539996 -1.166503
v -0.661747 0.482825 -1.080940
v -0.661747 0.397262 -1.023768
v -0.661747 0.296334 -1.003693
v -0.661747 0.195407 -1.023768
v -0.661747 0.109844 -1.080940
v -0.661747 0.052672 -1.166503
v -0.661747 0.032597 -1.267431
v -0.661747 0.052672 -1.368358
v -0.661747 0.109844 -1.453921
v -0.661747 0.195407 -1.511093
v -0.661747 0.296334 -1.531168
v -0.661747 0.397262 -1.511093
v -0.661747 0.482825 -1.453921
v 0.661747 0.560072 -1.267431
v 0.675763 0.592669 -1.267431
v 0.675763 0.570111 -1.380833
v 0.661747 0.539996 -1.368358
v 0.675763 0.505875 -1.476971
v 0.661747 0.482825 -1.453921
v 0.675763 0.409736 -1.541208
v 0.661747 0.397262 -1.511093
v 0.675763 0.296334 -1.563765
v 0.661747 0.296334 -1.531168
v 0.675763 0.182932 -1.541208
v 0.661747 0.195407 -1.511093
v 0.675763 0.086794 -1.476971
v 0.661747 0.109844 -1.453921
v 0.675763 0.022557 -1.380833
v 0.661747 0.052672 -1.368358
v 0.675763 0.000000 -1.267431
v 0.661747 0.032597 -1.267431
v 0.675763 0.022557 -1.154029
v 0.661747 0.052672 -1.166503
v 0.675763 0.086794 -1.057890
v 0.661747 0.109844 -1.080940
v 0.675763 0.182932 -0.993654
v 0.661747 0.195407 -1.023768
v 0.675763 0.296334 -0.971096
v 0.661747 0.296334 -1.003693
v 0.675763 0.409736 -0.993654
v 0.661747 0.397262 -1.023768
v 0.675763 0.505875 -1.057890
v 0.661747 0.482825 -1.080940
v 0.675763 0.570111 -1.154029
v 0.661747 0.539996 -1.166503
v 0.675763 0.592669 -1.267431
v 0.861973 0.592669 -1.267431
v 0.861973 0.570111 -1.380833
v 0.675763 0.570111 -1.380833
v 0.861973 0.505875 -1.476971
v 0.675763 0.505875 -1.476971
v 0.861973 0.409736 -1.541208
v 0.675763 0.409736 -1.541208
v 0.861973 0.296334 -1.563765
v 0.675763 0.296334 -1.563765
v 0.861973 0.182932 -1.541208
v 0.675763 0.182932 -1.541208
v 0.861973 0.086794 -1.476971
v 0.675763 0.086794 -1.476971
v 0.861973 0.022557 -1.380833
v 0.675763 0.022557 -1.380833
v 0.861973 0.000000 -1.267431
v 0.675763 0.000000 -1.267431
v 0.861973 0.022557 -1.154029
v 0.675763 0.022557 -1.154029
v 0.861973 0.086794 -1.057890
v 0.675763 0.086794 -1.057890
v 0.861973 0.182932 -0.993654
v 0.675763 0.182932 -0.993654
v 0.861973 0.296334 -0.971096
v 0.675763 0.296334 -0.971096
v 0.861973 0.409736 -0.993654
v 0.675763 0.409736 -0.993654
v 0.861973 0.505875 -1.057890
v 0.675763 0.505875 -1.057890
v 0.861973 0.570111 -1.154029
v 0.675763 0.570111 -1.154029
v 0.861973 0.592669 -1.267431
v 0.875989 0.560072 -1.267431
v 0.875989 0.539996 -1.368358
v 0.861973 0.570111 -1.380833
v 0.875989 0.482825 -1.453921
v 0.861973 0.505875 -1.476971
v 0.875989 0.397262 -1.511093
v 0.861973 0.409736 -1.541208
v 0.875989 0.296334 -1.531168
v 0.861973 0.296334 -1.563765
v 0.875989 0.195407 -1.511093
v 0.861973 0.182932 -1.541208
v 0.875989 0.109844 -1.453921
v 0.861973 0.086794 -1.476971
v 0.875989 0.052672 -1.368358
v 0.861973 0.022557 -1.380833
v 0.875989 0.032597 -1.267431
v 0.861973 0.000000 -1.267431
v 0.875989 0.052672 -1.166503
v 0.861973 0.022557 -1.154029
v 0.875989 0.109844 -1.080940
v 0.861973 0.086794 -1.057890
v 0.875989 0.195407 -1.023768
v 0.861973 0.182932 -0.993654
v 0.875989 0.296334 -1.003693
v 0.861973 0.296334 -0.971096
v 0.875989 0.397262 -1.023768
v 0.861973 0.409736 -0.993654
v 0.875989 0.482825 -1.080940
v 0.861973 0.505875 -1.057890
v 0.875989 0.539996 -1.166503
v 0.861973 0.570111 -1.154029
v 0.661747 0.482825 -1.080940
v 0.661747 0.539996 -1.166503
v 0.661747 0.560072 -1.267431
v 0.661747 0.539996 -1.368358
v 0.661747 0.482825 -1.453921
v 0.661747 0.397262 -1.511093
v 0.661747 0.296334 -1.531168
v 0.661747 0.195407 -1.511093
v 0.661747 0.109844 -1.453921
v 0.661747 0.052672 -1.368358
v 0.661747 0.032597 -1.267431
v 0.661747 0.052672 -1.166503
v 0.661747 0.109844 -1.080940
v 0.661747 0.195407 -1.023768
v 0.661747 0.296334 -1.003693
v 0.661747 0.397262 -1.023768
v 0.875989 0.539996 -1.368358
v 0.875989 0.560072 -1.267431
v 0.875989 0.539996 -1.166503
v 0.875989 0.482825 -1.080940
v 0.875989 0.397262 -1.023768
v 0.875989 0.296334 -1.003693
v 0.875989 0.195407 -1.023768
v 0.875989 0.109844 -1.080940
v 0.875989 0.052672 -1.166503
v 0.875989 0.032597 -1.267431
v 0.875989 0.052672 -1.368358
v 0.875989 0.109844 -1.453921
v 0.875989 0.195407 -1.511093
v 0.875989 0.296334 -1.531168
v 0.875989 0.397262 -1.511093
v 0.875989 0.482825 -1.453921
vt 0.323242 0.179688
vt 0.325031 0.179688
vt 0.325031 0.172119
vt 0.323242 0.172119
vt 0.325031 0.164551
vt 0.323242 0.164551
vt 0.325031 0.156982
vt 0.323242 0.156982
vt 0.325031 0.149414
vt 0.323242 0.149414
vt 0.325031 0.141846
vt 0.323242 0.141846
vt 0.325031 0.134277
vt 0.323242 0.134277
vt 0.325031 0.126709
vt 0.323242 0.126709
vt 0.325031 0.119141
vt 0.323242 0.119141
vt 0.325031 0.232666
vt 0.323242 0.232666
vt 0.325031 0.225098
vt 0.323242 0.225098
vt 0.325031 0.217529
vt 0.323242 0.217529
vt 0.325031 0.209961
vt 0.323242 0.209961
vt 0.325031 0.202393
vt 0.323242 0.202393
vt 0.325031 0.194824
vt 0.323242 0.194824
vt 0.325031 0.187256
vt 0.323242 0.187256
vt 0.348797 0.179688
vt 0.348797 0.172119
vt 0.348797 0.164551
vt 0.348797 0.156982
vt 0.348797 0.149414
vt 0.348797 0.141846
vt 0.348797 0.134277
vt 0.348797 0.126709
vt 0.348797 0.119141
vt 0.348797 0.232666
vt 0.348797 0.225098
vt 0.348797 0.217529
vt 0.348797 0.209961
vt 0.348797 0.202393
vt 0.348797 0.194824
vt 0.348797 0.187256
vt 0.350586 0.179688
vt 0.350586 0.172119
vt 0.350586 0.164551
vt 0.350586 0.156982
vt 0.350586 0.149414
vt 0.350586 0.141846
vt 0.350586 0.134277
vt 0.350586 0.126709
vt 0.350586 0.119141
vt 0.350586 0.232666
vt 0.350586 0.225098
vt 0.350586 0.217529
vt 0.350586 0.209961
vt 0.350586 0.202393
vt 0.350586 0.194824
vt 0.350586 0.187256
vt 0.238584 0.210333
vt 0.250990 0.226912
vt 0.265625 0.232734
vt 0.280260 0.226912
vt 0.292666 0.210333
vt 0.300956 0.185519
vt 0.303867 0.156250
vt 0.300956 0.126981
vt 0.292666 0.102167
vt 0.280260 0.085588
vt 0.265625 0.079766
vt 0.250990 0.085588
vt 0.238584 0.102167
vt 0.230294 0.126981
vt 0.227383 0.156250
vt 0.230294 0.185519
vt 0.323242 0.179688
vt 0.325031 0.179688
vt 0.325031 0.172119
vt 0.323242 0.172119
vt 0.325031 0.164551
vt 0.323242 0.164551
vt 0.325031 0.156982
vt 0.323242 0.156982
vt 0.325031 0.149414
vt 0.323242 0.149414
vt 0.325031 0.141846
vt 0.323242 0.141846
vt 0.325031 0.134277
vt 0.323242 0.134277
vt 0.325031 0.126709
vt 0.323242 0.126709
vt 0.325031 0.119141
vt 0.323242 0.119141
vt 0.325031 0.232666
vt 0.323242 0.232666
vt 0.325031 0.225098
vt 0.323242 0.225098
vt 0.325031 0.217529
vt 0.323242 0.217529
vt 0.325031 0.209961
vt 0.323242 0.209961
vt 0.325031 0.202393
vt 0.323242 0.202393
vt 0.325031 0.194824
vt 0.323242 0.194824
vt 0.325031 0.187256
vt 0.323242 0.187256
vt 0.348797 0.179688
vt 0.348797 0.172119
vt 0.348797 0.164551
vt 0.348797 0.156982
vt 0.348797 0.149414
vt 0.348797 0.141846
vt 0.348797 0.134277
vt 0.348797 0.126709
vt 0.348797 0.119141
vt 0.348797 0.232666
vt 0.348797 0.225098
vt 0.348797 0.217529
vt 0.348797 0.209961
vt 0.348797 0.202393
vt 0.348797 0.194824
vt 0.348797 0.187256
vt 0.350586 0.179688
vt 0.350586 0.172119
vt 0.350586 0.164551
vt 0.350586 0.156982
vt 0.350586 0.149414
vt 0.350586 0.141846
vt 0.350586 0.134277
vt 0.350586 0.126709
vt 0.350586 0.119141
vt 0.350586 0.232666
vt 0.350586 0.225098
vt 0.350586 0.217529
vt 0.350586 0.209961
vt 0.350586 0.202393
vt 0.350586 0.194824
vt 0.350586 0.187256
vt 0.238584 0.210333
vt 0.250990 0.226912
vt 0.265625 0.232734
vt 0.280260 0.226912
vt 0.292666 0.210333
vt 0.300956 0.185519
vt 0.303867 0.156250
vt 0.300956 0.126981
vt 0.292666 0.102167
vt 0.280260 0.085588
vt 0.265625 0.079766
vt 0.250990 0.085588
vt 0.238584 0.102167
vt 0.230294 0.126981
vt 0.227383 0.156250
vt 0.230294 0.185519
vn -0.974200 0.225700 0.000000
vn -0.918700 0.395000 0.000000
vn -0.918700 0.364900 -0.151200
vn -0.974200 0.208500 -0.086300
vn -0.918700 0.279300 -0.279300
vn -0.974200 0.159500 -0.159500
vn -0.918700 0.151200 -0.364900
vn -0.974200 0.086300 -0.208500
vn -0.918700 0.000000 -0.395000
vn -0.974200 0.000000 -0.225700
vn -0.918700 -0.151200 -0.364900
vn -0.974200 -0.086300 -0.208500
vn -0.918700 -0.279300 -0.279300
vn -0.974200 -0.159500 -0.159500
vn -0.918700 -0.364900 -0.151200
vn -0.974200 -0.208500 -0.086300
vn -0.918700 -0.395000 0.000000
vn -0.974200 -0.225700 0.000000
vn -0.918700 -0.364900 0.151200
vn -0.974200 -0.208500 0.086300
vn -0.918700 -0.279300 0.279300
vn -0.974200 -0.159500 0.159500
vn -0.918700 -0.151200 0.364900
vn -0.974200 -0.086300 0.208500
vn -0.918700 0.000000 0.395000
vn -0.974200 0.000000 0.225700
vn -0.918700 0.151200 0.364900
vn -0.974200 0.086300 0.208500
vn -0.918700 0.279300 0.279300
vn -0.974200 0.159500 0.159500
vn -0.918700 0.364900 0.151200
vn -0.974200 0.208500 0.086300
vn 0.000000 1.000000 0.000000
vn 0.000000 0.923900 -0.382700
vn 0.000000 0.707100 -0.707100
vn 0.000000 0.382700 -0.923900
vn 0.000000 0.000000 -1.000000
vn 0.000000 -0.382700 -0.923900
vn 0.000000 -0.707100 -0.707100
vn 0.000000 -0.923900 -0.382700
vn 0.000000 -1.000000 0.000000
vn 0.000000 -0.923900 0.382700
vn 0.000000 -0.707100 0.707100
vn 0.000000 -0.382700 0.923900
vn 0.000000 0.000000 1.000000
vn 0.000000 0.382700 0.923900
vn 0.000000 0.707100 0.707100
vn 0.000000 0.923900 0.382700
vn 0.918700 0.395000 0.000000
vn 0.974200 0.225700 0.000000
vn 0.974200 0.208500 -0.086300
vn 0.918700 0.364900 -0.151200
vn 0.974200 0.159500 -0.159500
vn 0.918700 0.279300 -0.279300
vn 0.974200 0.086300 -0.208500
vn 0.918700 0.151200 -0.364900
vn 0.974200 0.000000 -0.225700
vn 0.918700 0.000000 -0.395000
vn 0.974200 -0.086300 -0.208500
vn 0.918700 -0.151200 -0.364900
vn 0.974200 -0.159500 -0.159500
vn 0.918700 -0.279300 -0.279300
vn 0.974200 -0.208500 -0.086300
vn 0.918700 -0.364900 -0.151200
vn 0.974200 -0.225700 0.000000
vn 0.918700 -0.395000 0.000000
vn 0.974200 -0.208500 0.086300
vn 0.918700 -0.364900 0.151200
vn 0.974200 -0.159500 0.159500
vn 0.918700 -0.279300 0.279300
vn 0.974200 -0.086300 0.208500
vn 0.918700 -0.151200 0.364900
vn 0.974200 0.000000 0.225700
vn 0.918700 0.000000 0.395000
vn 0.974200 0.086300 0.208500
vn 0.918700 0.151200 0.364900
vn 0.974200 0.159500 0.159500
vn 0.918700 0.279300 0.279300
vn 0.974200 0.208500 0.086300
vn 0.918700 0.364900 0.151200
vn -0.974200 0.208400 0.086300
vn -0.974200 0.225600 0.000000
vn -0.974200 0.208300 -0.086300
vn -0.974200 0.086300 -0.208400
vn -0.974200 0.000000 -0.225600
vn -0.974200 -0.086300 -0.208300
vn -0.974200 -0.208400 -0.086300
vn -0.974200 -0.225600 0.000000
vn -0.974200 -0.208300 0.086300
vn -0.974200 -0.086300 0.208400
vn -0.974200 0.000000 0.225600
vn -0.974200 0.086300 0.208300
vn 0.974200 0.208400 -0.086300
vn 0.974200 0.225600 0.000000
vn 0.974200 0.208300 0.086300
vn 0.974200 0.086300 0.208400
vn 0.974200 0.000000 0.225600
vn 0.974200 -0.086300 0.208300
vn 0.974200 -0.208400 0.086300
vn 0.974200 -0.225600 0.000000
vn 0.974200 -0.208300 -0.086300
vn 0.974200 -0.086300 -0.208400
vn 0.974200 0.000000 -0.225600
vn 0.974200 0.086300 -0.208300
vn -0.974200 0.225700 0.000000
vn -0.918700 0.395000 0.000000
vn -0.918700 0.364900 -0.151200
vn -0.974200 0.208500 -0.086300
vn -0.918700 0.279300 -0.279300
vn -0.974200 0.159500 -0.159500
vn -0.918700 0.151200 -0.364900
vn -0.974200 0.086300 -0.208500
vn -0.918700 0.000000 -0.395000
vn -0.974200 0.000000 -0.225700
vn -0.918700 -0.151200 -0.364900
vn -0.974200 -0.086300 -0.208500
vn -0.918700 -0.279300 -0.279300
vn -0.974200 -0.159500 -0.159500
vn -0.918700 -0.364900 -0.151200
vn -0.974200 -0.208500 -0.086300
vn -0.918700 -0.395000 0.000000
vn -0.974200 -0.225700 0.000000
vn -0.918700 -0.364900 0.151200
vn -0.974200 -0.208500 0.086300
vn -0.918700 -0.279300 0.279300
vn -0.974200 -0.159500 0.159500
vn -0.918700 -0.151200 0.364900
vn -0.974200 -0.086300 0.208500
vn -0.918700 0.000000 0.395000
vn -0.974200 0.000000 0.225700
vn -0.918700 0.151200 0.364900
vn -0.974200 0.086300 0.208500
vn -0.918700 0.279300 0.279300
vn -0.974200 0.159500 0.159500
vn -0.918700 0.364900 0.151200
vn -0.974200 0.208500 0.086300
vn 0.000000 1.000000 0.000000
vn 0.000000 0.923900 -0.382700
vn 0.000000 0.707100 -0.707100
vn 0.000000 0.382700 -0.923900
vn 0.000000 0.000000 -1.000000
vn 0.000000 -0.382700 -0.923900
vn 0.000000 -0.707100 -0.707100
vn 0.000000 -0.923900 -0.382700
vn 0.000000 -1.000000 0.000000
vn 0.000000 -0.923900 0.382700
vn 0.000000 -0.707100 0.707100
vn 0.000000 -0.382700 0.923900
vn 0.000000 0.000000 1.000000
vn 0.000000 0.382700 0.923900
vn 0.000000 0.707100 0.707100
vn 0.000000 0.923900 0.382700
vn 0.918700 0.395000 0.000000
vn 0.974200 0.225700 0.000000
vn 0.974200 0.208500 -0.086300
vn 0.918700 0.364900 -0.151200
vn 0.974200 0.159500 -0.159500
vn 0.918700 0.279300 -0.279300
vn 0.974200 0.086300 -0.208500
vn 0.918700 0.151200 -0.364900
vn 0.974200 0.000000 -0.225700
vn 0.918700 0.000000 -0.395000
vn 0.974200 -0.086300 -0.208500
vn 0.918700 -0.151200 -0.364900
vn 0.974200 -0.159500 -0.159500
vn 0.918700 -0.279300 -0.279300
vn 0.974200 -0.208500 -0.086300
vn 0.918700 -0.364900 -0.151200
vn 0.974200 -0.225700 0.000000
vn 0.918700 -0.395000 0.000000
vn 0.974200 -0.208500 0.086300
vn 0.918700 -0.364900 0.151200
vn 0.974200 -0.159500 0.159500
vn 0.918700 -0.279300 0.279300
vn 0.974200 -0.086300 0.208500
vn 0.918700 -0.151200 0.364900
vn 0.974200 0.000000 0.225700
vn 0.918700 0.000000 0.395000
vn 0.974200 0.086300 0.208500
vn 0.918700 0.151200 0.364900
vn 0.974200 0.159500 0.159500
vn 0.918700 0.279300 0.279300
vn 0.974200 0.208500 0.086300
vn 0.918700 0.364900 0.151200
vn -0.974200 0.208400 0.086300
vn -0.974200 0.225600 0.000000
vn -0.974200 0.208300 -0.086300
vn -0.974200 0.086300 -0.208400
vn -0.974200 0.000000 -0.225600
vn -0.974200 -0.086300 -0.208300
vn -0.974200 -0.208400 -0.086300
vn -0.974200 -0.225600 0.000000
vn -0.974200 -0.208300 0.086300
vn -0.974200 -0.086300 0.208400
vn -0.974200 0.000000 0.225600
vn -0.974200 0.086300 0.208300
vn 0.974200 0.208400 -0.086300
vn 0.974200 0.225600 0.000000
vn 0.974200 0.208300 0.086300
vn 0.974200 0.086300 0.208400
vn 0.974200 0.000000 0.225600
vn 0.974200 -0.086300 0.208300
vn 0.974200 -0.208400 0.086300
vn 0.974200 -0.225600 0.000000
vn 0.974200 -0.208300 -0.086300
vn 0.974200 -0.086300 -0.208400
vn 0.974200 0.000000 -0.225600
vn 0.974200 0.086300 -0.208300
o midship_coupe_wheels_f
usemtl midship_coupe_wheels_f
f 1/1/1 2/2/2 3/3/3
f 1/1/1 3/3/3 4/4/4
f 4/4/4 3/3/3 5/5/5
f 4/4/4 5/5/5 6/6/6
f 6/6/6 5/5/5 7/7/7
f 6/6/6 7/7/7 8/8/8
f 8/8/8 7/7/7 9/9/9
f 8/8/8 9/9/9 10/10/10
f 10/10/10 9/9/9 11/11/11
f 10/10/10 11/11/11 12/12/12
f 12/12/12 11/11/11 13/13/13
f 12/12/12 13/13/13 14/14/14
f 14/14/14 13/13/13 15/15/15
f 14/14/14 15/15/15 16/16/16
f 16/16/16 15/15/15 17/17/17
f 16/16/16 17/17/17 18/18/18
f 18/18/18 17/17/17 19/19/19
f 18/18/18 19/19/19 20/20/20
f 20/20/20 19/19/19 21/21/21
f 20/20/20 21/21/21 22/22/22
f 22/22/22 21/21/21 23/23/23
f 22/22/22 23/23/23 24/24/24
f 24/24/24 23/23/23 25/25/25
f 24/24/24 25/25/25 26/26/26
f 26/26/26 25/25/25 27/27/27
f 26/26/26 27/27/27 28/28/28
f 28/28/28 27/27/27 29/29/29
f 28/28/28 29/29/29 30/30/30
f 30/30/30 29/29/29 31/31/31
f 30/30/30 31/31/31 32/32/32
f 32/32/32 31/31/31 2/2/2
f 32/32/32 2/2/2 1/1/1
f 33/2/33 34/33/33 35/34/34
f 33/2/33 35/34/34 36/3/34
f 36/3/34 35/34/34 37/35/35
f 36/3/34 37/35/35 38/5/35
f 38/5/35 37/35/35 39/36/36
f 38/5/35 39/36/36 40/7/36
f 40/7/36 39/36/36 41/37/37
f 40/7/36 41/37/37 42/9/37
f 42/9/37 41/37/37 43/38/38
f 42/9/37 43/38/38 44/11/38
f 44/11/38 43/38/38 45/39/39
f 44/11/38 45/39/39 46/13/39
f 46/13/39 45/39/39 47/40/40
f 46/13/39 47/40/40 48/15/40
f 48/15/40 47/40/40 49/41/41
f 48/15/40 49/41/41 50/17/41
f 50/17/41 49/41/41 51/42/42
f 50/17/41 51/42/42 52/19/42
f 52/19/42 51/42/42 53/43/43
f 52/19/42 53/43/43 54/21/43
f 54/21/43 53/43/43 55/44/44
f 54/21/43 55/44/44 56/23/44
f 56/23/44 55/44/44 57/45/45
f 56/23/44 57/45/45 58/25/45
f 58/25/45 57/45/45 59/46/46
f 58/25/45 59/46/46 60/27/46
f 60/27/46 59/46/46 61/47/47
f 60/27/46 61/47/47 62/29/47
f 62/29/47 61/47/47 63/48/48
f 62/29/47 63/48/48 64/31/48
f 64/31/48 63/48/48 34/33/33
f 64/31/48 34/33/33 33/2/33
f 65/33/49 66/49/50 67/50/51
f 65/33/49 67/50/51 68/34/52
f 68/34/52 67/50/51 69/51/53
f 68/34/52 69/51/53 70/35/54
f 70/35/54 69/51/53 71/52/55
f 70/35/54 71/52/55 72/36/56
f 72/36/56 71/52/55 73/53/57
f 72/36/56 73/53/57 74/37/58
f 74/37/58 73/53/57 75/54/59
f 74/37/58 75/54/59 76/38/60
f 76/38/60 75/54/59 77/55/61
f 76/38/60 77/55/61 78/39/62
f 78/39/62 77/55/61 79/56/63
f 78/39/62 79/56/63 80/40/64
f 80/40/64 79/56/63 81/57/65
f 80/40/64 81/57/65 82/41/66
f 82/41/66 81/57/65 83/58/67
f 82/41/66 83/58/67 84/42/68
f 84/42/68 83/58/67 85/59/69
f 84/42/68 85/59/69 86/43/70
f 86/43/70 85/59/69 87/60/71
f 86/43/70 87/60/71 88/44/72
f 88/44/72 87/60/71 89/61/73
f 88/44/72 89/61/73 90/45/74
f 90/45/74 89/61/73 91/62/75
f 90/45/74 91/62/75 92/46/76
f 92/46/76 91/62/75 93/63/77
f 92/46/76 93/63/77 94/47/78
f 94/47/78 93/63/77 95/64/79
f 94/47/78 95/64/79 96/48/80
f 96/48/80 95/64/79 66/49/50
f 96/48/80 66/49/50 65/33/49
f 97/65/30 98/66/81 99/67/82
f 99/67/82 100/68/83 101/69/6
f 101/69/6 102/70/84 103/71/85
f 103/71/85 104/72/86 105/73/14
f 105/73/14 106/74/87 107/75/88
f 107/75/88 108/76/89 109/77/22
f 109/77/22 110/78/90 111/79/91
f 111/79/91 112/80/92 97/65/30
f 97/65/30 99/67/82 101/69/6
f 101/69/6 103/71/85 105/73/14
f 105/73/14 107/75/88 109/77/22
f 109/77/22 111/79/91 97/65/30
f 97/65/30 101/69/6 105/73/14
f 105/73/14 109/77/22 97/65/30
f 113/68/93 114/67/94 115/66/95
f 115/66/95 116/65/77 117/80/96
f 117/80/96 118/79/97 119/78/98
f 119/78/98 120/77/69 121/76/99
f 121/76/99 122/75/100 123/74/101
f 123/74/101 124/73/61 125/72/102
f 125/72/102 126/71/103 127/70/104
f 127/70/104 128/69/53 113/68/93
f 113/68/93 115/66/95 117/80/96
f 117/80/96 119/78/98 121/76/99
f 121/76/99 123/74/101 125/72/102
f 125/72/102 127/70/104 113/68/93
f 113/68/93 117/80/96 121/76/99
f 121/76/99 125/72/102 113/68/93
f 129/81/105 130/82/106 131/83/107
f 129/81/105 131/83/107 132/84/108
f 132/84/108 131/83/107 133/85/109
f 132/84/108 133/85/109 134/86/110
f 134/86/110 133/85/109 135/87/111
f 134/86/110 135/87/111 136/88/112
f 136/88/112 135/87/111 137/89/113
f 136/88/112 137/89/113 138/90/114
f 138/90/114 137/89/113 139/91/115
f 138/90/114 139/91/115 140/92/116
f 140/92/116 139/91/115 141/93/117
f 140/92/116 141/93/117 142/94/118
f 142/94/118 141/93/117 143/95/119
f 142/94/118 143/95/119 144/96/120
f 144/96/120 143/95/119 145/97/121
f 144/96/120 145/97/121 146/98/122
f 146/98/122 145/97/121 147/99/123
f 146/98/122 147/99/123 148/100/124
f 148/100/124 147/99/123 149/101/125
f 148/100/124 149/101/125 150/102/126
f 150/102/126 149/101/125 151/103/127
f 150/102/126 151/103/127 152/104/128
f 152/104/128 151/103/127 153/105/129
f 152/104/128 153/105/129 154/106/130
f 154/106/130 153/105/129 155/107/131
f 154/106/130 155/107/131 156/108/132
f 156/108/132 155/107/131 157/109/133
f 156/108/132 157/109/133 158/110/134
f 158/110/134 157/109/133 159/111/135
f 158/110/134 159/111/135 160/112/136
f 160/112/136 159/111/135 130/82/106
f 160/112/136 130/82/106 129/81/105
f 161/82/137 162/113/137 163/114/138
f 161/82/137 163/114/138 164/83/138
f 164/83/138 163/114/138 165/115/139
f 164/83/138 165/115/139 166/85/139
f 166/85/139 165/115/139 167/116/140
f 166/85/139 167/116/140 168/87/140
f 168/87/140 167/116/140 169/117/141
f 168/87/140 169/117/141 170/89/141
f 170/89/141 169/117/141 171/118/142
f 170/89/141 171/118/142 172/91/142
f 172/91/142 171/118/142 173/119/143
f 172/91/142 173/119/143 174/93/143
f 174/93/143 173/119/143 175/120/144
f 174/93/143 175/120/144 176/95/144
f 176/95/144 175/120/144 177/121/145
f 176/95/144 177/121/145 178/97/145
f 178/97/145 177/121/145 179/122/146
f 178/97/145 179/122/146 180/99/146
f 180/99/146 179/122/146 181/123/147
f 180/99/146 181/123/147 182/101/147
f 182/101/147 181/123/147 183/124/148
f 182/101/147 183/124/148 184/103/148
f 184/103/148 183/124/148 185/125/149
f 184/103/148 185/125/149 186/105/149
f 186/105/149 185/125/149 187/126/150
f 186/105/149 187/126/150 188/107/150
f 188/107/150 187/126/150 189/127/151
f 188/107/150 189/127/151 190/109/151
f 190/109/151 189/127/151 191/128/152
f 190/109/151 191/128/152 192/111/152
f 192/111/152 191/128/152 162/113/137
f 192/111/152 162/113/137 161/82/137
f 193/113/153 194/129/154 195/130/155
f 193/113/153 195/130/155 196/114/156
f 196/114/156 195/130/155 197/131/157
f 196/114/156 197/131/157 198/115/158
f 198/115/158 197/131/157 199/132/159
f 198/115/158 199/132/159 200/116/160
f 200/116/160 199/132/159 201/133/161
f 200/116/160 201/133/161 202/117/162
f 202/117/162 201/133/161 203/134/163
f 202/117/162 203/134/163 204/118/164
f 204/118/164 203/134/163 205/135/165
f 204/118/164 205/135/165 206/119/166
f 206/119/166 205/135/165 207/136/167
f 206/119/166 207/136/167 208/120/168
f 208/120/168 207/136/167 209/137/169
f 208/120/168 209/137/169 210/121/170
f 210/121/170 209/137/169 211/138/171
f 210/121/170 211/138/171 212/122/172
f 212/122/172 211/138/171 213/139/173
f 212/122/172 213/139/173 214/123/174
f 214/123/174 213/139/173 215/140/175
f 214/123/174 215/140/175 216/124/176
f 216/124/176 215/140/175 217/141/177
f 216/124/176 217/141/177 218/125/178
f 218/125/178 217/141/177 219/142/179
f 218/125/178 219/142/179 220/126/180
f 220/126/180 219/142/179 221/143/181
f 220/126/180 221/143/181 222/127/182
f 222/127/182 221/143/181 223/144/183
f 222/127/182 223/144/183 224/128/184
f 224/128/184 223/144/183 194/129/154
f 224/128/184 194/129/154 193/113/153
f 225/145/134 226/146/185 227/147/186
f 227/147/186 228/148/187 229/149/110
f 229/149/110 230/150/188 231/151/189
f 231/151/189 232/152/190 233/153/118
f 233/153/118 234/154/191 235/155/192
f 235/155/192 236/156/193 237/157/126
f 237/157/126 238/158/194 239/159/195
f 239/159/195 240/160/196 225/145/134
f 225/145/134 227/147/186 229/149/110
f 229/149/110 231/151/189 233/153/118
f 233/153/118 235/155/192 237/157/126
f 237/157/126 239/159/195 225/145/134
f 225/145/134 229/149/110 233/153/118
f 233/153/118 237/157/126 225/145/134
f 241/148/197 242/147/198 243/146/199
f 243/146/199 244/145/181 245/160/200
f 245/160/200 246/159/201 247/158/202
f 247/158/202 248/157/173 249/156/203
f 249/156/203 250/155/204 251/154/205
f 251/154/205 252/153/165 253/152/206
f 253/152/206 254/151/207 255/150/208
f 255/150/208 256/149/157 241/148/197
f 241/148/197 243/146/199 245/160/200
f 245/160/200 247/158/202 249/156/203
f 249/156/203 251/154/205 253/152/206
f 253/152/206 255/150/208 241/148/197
f 241/148/197 245/160/200 249/156/203
f 249/156/203 253/152/206 241/148/197
