# PSX Racing car model — generated by tools/carmodels/export_models.mjs
mtllib rally_coupe_98_wheels_r.mtl
v -0.632066 0.604413 1.163405
v -0.866904 0.619574 1.259135
v -0.632066 0.619574 1.259135
v -0.632066 0.560410 1.077047
v -0.866904 0.604413 1.163405
v -0.632066 0.491875 1.008512
v -0.866904 0.560410 1.077047
v -0.632066 0.405516 0.964509
v -0.866904 0.491875 1.008512
v -0.632066 0.309787 0.949348
v -0.866904 0.405516 0.964509
v -0.632066 0.214058 0.964509
v -0.866904 0.309787 0.949348
v -0.632066 0.127699 1.008512
v -0.866904 0.214058 0.964509
v -0.632066 0.059164 1.077047
v -0.866904 0.127699 1.008512
v -0.632066 0.015162 1.163405
v -0.866904 0.059164 1.077047
v -0.632066 0.000000 1.259135
v -0.866904 0.015162 1.163405
v -0.632066 0.015162 1.354864
v -0.866904 0.000000 1.259135
v -0.632066 0.059164 1.441222
v -0.866904 0.015162 1.354864
v -0.632066 0.127699 1.509757
v -0.866904 0.059164 1.441222
v -0.632066 0.214058 1.553760
v -0.866904 0.127699 1.509757
v -0.632066 0.309787 1.568922
v -0.866904 0.214058 1.553760
v -0.632066 0.405516 1.553760
v -0.866904 0.309787 1.568922
v -0.632066 0.491875 1.509757
v -0.866904 0.405516 1.553760
v -0.632066 0.560410 1.441222
v -0.866904 0.491875 1.509757
v -0.632066 0.604413 1.354864
v -0.866904 0.560410 1.441222
v -0.866904 0.604413 1.354864
v -0.866904 0.490883 1.390708
v -0.866904 0.441361 1.440230
v -0.866904 0.491875 1.509757
v -0.866904 0.015162 1.163405
v -0.866904 0.096896 1.189962
v -0.866904 0.128692 1.127561
v -0.866904 0.178214 1.078039
v -0.866904 0.309787 1.482981
v -0.866904 0.522678 1.328307
v -0.632066 0.059164 1.441222
v -0.632066 0.059164 1.077047
v -0.632066 0.405516 0.964509
v -0.866904 0.560410 1.441222
v -0.866904 0.604413 1.354864
v -0.866904 0.619574 1.259135
v -0.866904 0.522678 1.328307
v -0.866904 0.533633 1.259135
v -0.866904 0.405516 1.553760
v -0.866904 0.378960 1.472025
v -0.866904 0.000000 1.259135
v -0.866904 0.015162 1.354864
v -0.866904 0.096896 1.328307
v -0.866904 0.059164 1.441222
v -0.866904 0.127699 1.509757
v -0.866904 0.178214 1.440230
v -0.866904 0.214058 1.553760
v -0.866904 0.240615 1.472025
v -0.866904 0.309787 1.568922
v -0.866904 0.309787 1.482981
v -0.866904 0.085941 1.259135
v -0.866904 0.127699 1.008512
v -0.866904 0.059164 1.077047
v -0.866904 0.178214 1.078039
v -0.866904 0.309787 0.949348
v -0.866904 0.214058 0.964509
v -0.866904 0.240615 1.046244
v -0.866904 0.491875 1.008512
v -0.866904 0.405516 0.964509
v -0.866904 0.441361 1.078039
v -0.866904 0.378960 1.046244
v -0.866904 0.604413 1.163405
v -0.866904 0.560410 1.077047
v -0.866904 0.490883 1.127561
v -0.866904 0.522678 1.189962
v -0.866904 0.128692 1.390708
v -0.866904 0.309787 1.035288
v -0.866904 0.533633 1.259135
v -0.866904 0.441361 1.078039
v -0.866904 0.522678 1.189962
v -0.866904 0.490883 1.127561
v -0.866904 0.378960 1.046244
v -0.866904 0.309787 1.035288
v -0.866904 0.240615 1.046244
v -0.866904 0.128692 1.127561
v -0.866904 0.096896 1.189962
v -0.866904 0.085941 1.259135
v -0.866904 0.096896 1.328307
v -0.866904 0.128692 1.390708
v -0.866904 0.178214 1.440230
v -0.866904 0.240615 1.472025
v -0.866904 0.378960 1.472025
v -0.866904 0.441361 1.440230
v -0.866904 0.490883 1.390708
v -0.632066 0.619574 1.259135
v -0.632066 0.604413 1.354864
v -0.632066 0.560410 1.441222
v -0.632066 0.491875 1.509757
v -0.632066 0.405516 1.553760
v -0.632066 0.309787 1.568922
v -0.632066 0.214058 1.553760
v -0.632066 0.127699 1.509757
v -0.632066 0.015162 1.354864
v -0.632066 0.000000 1.259135
v -0.632066 0.015162 1.163405
v -0.632066 0.127699 1.008512
v -0.632066 0.214058 0.964509
v -0.632066 0.309787 0.949348
v -0.632066 0.491875 1.008512
v -0.632066 0.560410 1.077047
v -0.632066 0.604413 1.163405
v 0.866904 0.619574 1.259135
v 0.632066 0.604413 1.163405
v 0.632066 0.619574 1.259135
v 0.866904 0.604413 1.163405
v 0.632066 0.560410 1.077047
v 0.866904 0.560410 1.077047
v 0.632066 0.491875 1.008512
v 0.866904 0.491875 1.008512
v 0.632066 0.405516 0.964509
v 0.866904 0.405516 0.964509
v 0.632066 0.309787 0.949348
v 0.866904 0.309787 0.949348
v 0.632066 0.214058 0.964509
v 0.866904 0.214058 0.964509
v 0.632066 0.127699 1.008512
v 0.866904 0.127699 1.008512
v 0.632066 0.059164 1.077047
v 0.866904 0.059164 1.077047
v 0.632066 0.015162 1.163405
v 0.866904 0.015162 1.163405
v 0.632066 0.000000 1.259135
v 0.866904 0.000000 1.259135
v 0.632066 0.015162 1.354864
v 0.866904 0.015162 1.354864
v 0.632066 0.059164 1.441222
v 0.866904 0.059164 1.441222
v 0.632066 0.127699 1.509757
v 0.866904 0.127699 1.509757
v 0.632066 0.214058 1.553760
v 0.866904 0.214058 1.553760
v 0.632066 0.309787 1.568922
v 0.866904 0.309787 1.568922
v 0.632066 0.405516 1.553760
v 0.866904 0.405516 1.553760
v 0.632066 0.491875 1.509757
v 0.866904 0.491875 1.509757
v 0.632066 0.560410 1.441222
v 0.866904 0.560410 1.441222
v 0.632066 0.604413 1.354864
v 0.866904 0.604413 1.354864
v 0.866904 0.619574 1.259135
v 0.866904 0.533633 1.259135
v 0.866904 0.522678 1.189962
v 0.866904 0.000000 1.259135
v 0.866904 0.085941 1.259135
v 0.866904 0.096896 1.328307
v 0.866904 0.128692 1.390708
v 0.866904 0.378960 1.046244
v 0.866904 0.533633 1.259135
v 0.632066 0.604413 1.354864
v 0.632066 0.491875 1.008512
v 0.632066 0.127699 1.008512
v 0.866904 0.490883 1.127561
v 0.866904 0.560410 1.077047
v 0.866904 0.604413 1.163405
v 0.866904 0.522678 1.328307
v 0.866904 0.604413 1.354864
v 0.866904 0.560410 1.441222
v 0.866904 0.491875 1.509757
v 0.866904 0.441361 1.440230
v 0.866904 0.405516 1.553760
v 0.866904 0.378960 1.472025
v 0.866904 0.309787 1.568922
v 0.866904 0.214058 1.553760
v 0.866904 0.309787 1.482981
v 0.866904 0.127699 1.509757
v 0.866904 0.178214 1.440230
v 0.866904 0.059164 1.441222
v 0.866904 0.128692 1.390708
v 0.866904 0.015162 1.354864
v 0.866904 0.015162 1.163405
v 0.866904 0.096896 1.189962
v 0.866904 0.059164 1.077047
v 0.866904 0.128692 1.127561
v 0.866904 0.127699 1.008512
v 0.866904 0.214058 0.964509
v 0.866904 0.178214 1.078039
v 0.866904 0.309787 0.949348
v 0.866904 0.309787 1.035288
v 0.866904 0.405516 0.964509
v 0.866904 0.378960 1.046244
v 0.866904 0.491875 1.008512
v 0.866904 0.441361 1.078039
v 0.866904 0.490883 1.390708
v 0.866904 0.240615 1.046244
v 0.866904 0.240615 1.472025
v 0.866904 0.522678 1.328307
v 0.866904 0.490883 1.390708
v 0.866904 0.441361 1.440230
v 0.866904 0.378960 1.472025
v 0.866904 0.309787 1.482981
v 0.866904 0.240615 1.472025
v 0.866904 0.178214 1.440230
v 0.866904 0.096896 1.328307
v 0.866904 0.085941 1.259135
v 0.866904 0.096896 1.189962
v 0.866904 0.128692 1.127561
v 0.866904 0.178214 1.078039
v 0.866904 0.240615 1.046244
v 0.866904 0.309787 1.035288
v 0.866904 0.441361 1.078039
v 0.866904 0.490883 1.127561
v 0.866904 0.522678 1.189962
v 0.632066 0.619574 1.259135
v 0.632066 0.604413 1.163405
v 0.632066 0.560410 1.077047
v 0.632066 0.405516 0.964509
v 0.632066 0.309787 0.949348
v 0.632066 0.214058 0.964509
v 0.632066 0.059164 1.077047
v 0.632066 0.015162 1.163405
v 0.632066 0.000000 1.259135
v 0.632066 0.015162 1.354864
v 0.632066 0.059164 1.441222
v 0.632066 0.127699 1.509757
v 0.632066 0.214058 1.553760
v 0.632066 0.309787 1.568922
v 0.632066 0.405516 1.553760
v 0.632066 0.491875 1.509757
v 0.632066 0.560410 1.441222
vt 0.328125 0.093750
vt 0.359717 0.306924
vt 0.251953 0.376953
vt 0.293115 0.490263
vt 0.996094 0.011719
vt 0.311523 0.496094
vt 0.359717 0.446982
vt 0.329932 0.490263
vt 0.346538 0.473340
vt 0.368178 0.413770
vt 0.371094 0.376953
vt 0.368178 0.340137
vt 0.346538 0.280566
vt 0.329932 0.263644
vt 0.311523 0.257812
vt 0.293115 0.263644
vt 0.276509 0.280566
vt 0.263330 0.306924
vt 0.254869 0.340137
vt 0.254869 0.413770
vt 0.263330 0.446982
vt 0.276509 0.473340
vt 0.328125 0.093750
vt 0.276509 0.280566
vt 0.368178 0.413770
vt 0.311523 0.496094
vt 0.996094 0.011719
vt 0.293115 0.490263
vt 0.276509 0.473340
vt 0.263330 0.446982
vt 0.254869 0.413770
vt 0.251953 0.376953
vt 0.254869 0.340137
vt 0.263330 0.306924
vt 0.293115 0.263644
vt 0.311523 0.257812
vt 0.329932 0.263644
vt 0.346538 0.280566
vt 0.359717 0.306924
vt 0.368178 0.340137
vt 0.371094 0.376953
vt 0.359717 0.446982
vt 0.346538 0.473340
vt 0.329932 0.490263
vn 0.000000 0.951100 -0.309000
vn 0.000000 1.000000 0.000000
vn 0.000000 0.809000 -0.587800
vn 0.000000 0.587800 -0.809000
vn 0.000000 0.309000 -0.951100
vn 0.000000 0.000000 -1.000000
vn 0.000000 -0.309000 -0.951100
vn 0.000000 -0.587800 -0.809000
vn 0.000000 -0.809000 -0.587800
vn 0.000000 -0.951100 -0.309000
vn 0.000000 -1.000000 0.000000
vn 0.000000 -0.951100 0.309000
vn 0.000000 -0.809000 0.587800
vn 0.000000 -0.587800 0.809000
vn 0.000000 -0.309000 0.951100
vn 0.000000 0.000000 1.000000
vn 0.000000 0.309000 0.951100
vn 0.000000 0.587800 0.809000
vn 0.000000 0.809000 0.587800
vn 0.000000 0.951100 0.309000
vn -1.000000 0.000000 0.000000
vn 1.000000 0.000000 0.000000
vn 0.000000 1.000000 0.000000
vn 0.000000 0.951100 -0.309000
vn 0.000000 0.809000 -0.587800
vn 0.000000 0.587800 -0.809000
vn 0.000000 0.309000 -0.951100
vn 0.000000 0.000000 -1.000000
vn 0.000000 -0.309000 -0.951100
vn 0.000000 -0.587800 -0.809000
vn 0.000000 -0.809000 -0.587800
vn 0.000000 -0.951100 -0.309000
vn 0.000000 -1.000000 0.000000
vn 0.000000 -0.951100 0.309000
vn 0.000000 -0.809000 0.587800
vn 0.000000 -0.587800 0.809000
vn 0.000000 -0.309000 0.951100
vn 0.000000 0.000000 1.000000
vn 0.000000 0.309000 0.951100
vn 0.000000 0.587800 0.809000
vn 0.000000 0.809000 0.587800
vn 0.000000 0.951100 0.309000
vn 1.000000 0.000000 0.000000
vn -1.000000 0.000000 0.000000
o rally_coupe_98_wheels_r
usemtl rally_coupe_98_wheels_r
f 1/1/1 2/1/2 3/1/2
f 4/1/3 5/1/1 1/1/1
f 6/1/4 7/1/3 4/1/3
f 8/1/5 9/1/4 6/1/4
f 10/1/6 11/1/5 8/1/5
f 12/1/7 13/1/6 10/1/6
f 14/1/8 15/1/7 12/1/7
f 16/1/9 17/1/8 14/1/8
f 18/1/10 19/1/9 16/1/9
f 20/1/11 21/1/10 18/1/10
f 22/1/12 23/1/11 20/1/11
f 24/1/13 25/1/12 22/1/12
f 26/1/14 27/1/13 24/1/13
f 28/1/15 29/1/14 26/1/14
f 30/1/16 31/1/15 28/1/15
f 32/1/17 33/1/16 30/1/16
f 34/1/18 35/1/17 32/1/17
f 36/1/19 37/1/18 34/1/18
f 38/1/20 39/1/19 36/1/19
f 3/1/2 40/1/20 38/1/20
f 8/1/5 11/1/5 9/1/4
f 16/1/9 19/1/9 17/1/8
f 26/1/14 29/1/14 27/1/13
f 14/1/8 17/1/8 15/1/7
f 41/1/21 42/1/21 43/1/21
f 6/1/4 9/1/4 7/1/3
f 24/1/13 27/1/13 25/1/12
f 30/1/16 33/1/16 31/1/15
f 34/1/18 37/1/18 35/1/17
f 12/1/7 15/1/7 13/1/6
f 22/1/12 25/1/12 23/1/11
f 38/1/20 40/1/20 39/1/19
f 20/1/11 23/1/11 21/1/10
f 10/1/6 13/1/6 11/1/5
f 44/1/21 45/1/21 46/1/21
f 1/1/1 5/1/1 2/1/2
f 18/1/10 21/1/10 19/1/9
f 28/1/15 31/1/15 29/1/14
f 36/1/19 39/1/19 37/1/18
f 4/1/3 7/1/3 5/1/1
f 47/2/21 48/3/21 49/4/21
f 50/5/22 51/5/22 52/5/22
f 32/1/17 35/1/17 33/1/16
f 3/1/2 2/1/2 40/1/20
f 43/1/21 53/1/21 41/1/21
f 53/1/21 54/1/21 41/1/21
f 54/1/21 55/1/21 56/1/21
f 55/1/21 57/1/21 56/1/21
f 58/1/21 43/1/21 42/1/21
f 42/1/21 59/1/21 58/1/21
f 54/1/21 56/1/21 41/1/21
f 60/1/21 61/1/21 62/1/21
f 61/1/21 63/1/21 62/1/21
f 63/1/21 64/1/21 65/1/21
f 64/1/21 66/1/21 67/1/21
f 66/1/21 68/1/21 67/1/21
f 68/1/21 58/1/21 69/1/21
f 67/1/21 68/1/21 69/1/21
f 58/1/21 59/1/21 69/1/21
f 64/1/21 67/1/21 65/1/21
f 44/1/21 60/1/21 70/1/21
f 71/1/21 72/1/21 73/1/21
f 72/1/21 44/1/21 46/1/21
f 73/1/21 72/1/21 46/1/21
f 74/1/21 75/1/21 76/1/21
f 75/1/21 71/1/21 73/1/21
f 77/1/21 78/1/21 79/1/21
f 78/1/21 74/1/21 80/1/21
f 79/1/21 78/1/21 80/1/21
f 81/1/21 82/1/21 83/1/21
f 82/1/21 77/1/21 79/1/21
f 57/1/21 55/1/21 81/1/21
f 84/1/21 57/1/21 81/1/21
f 82/1/21 79/1/21 83/1/21
f 75/1/21 73/1/21 76/1/21
f 83/1/21 84/1/21 81/1/21
f 63/1/21 65/1/21 85/1/21
f 63/1/21 85/1/21 62/1/21
f 60/1/21 62/1/21 70/1/21
f 86/1/21 80/1/21 74/1/21
f 76/1/21 86/1/21 74/1/21
f 44/1/21 70/1/21 45/1/21
f 49/4/21 87/6/21 88/7/21
f 87/6/21 89/8/21 88/7/21
f 89/8/21 90/9/21 88/7/21
f 88/7/21 91/10/21 92/11/21
f 92/11/21 93/12/21 47/2/21
f 47/2/21 94/13/21 95/14/21
f 95/14/21 96/15/21 97/16/21
f 97/16/21 98/17/21 99/18/21
f 99/18/21 100/19/21 48/3/21
f 48/3/21 101/20/21 102/21/21
f 102/21/21 103/22/21 49/4/21
f 88/7/21 92/11/21 49/4/21
f 92/11/21 47/2/21 49/4/21
f 47/2/21 95/14/21 97/16/21
f 97/16/21 99/18/21 47/2/21
f 99/18/21 48/3/21 47/2/21
f 48/3/21 102/21/21 49/4/21
f 104/5/22 105/5/22 106/5/22
f 106/5/22 107/5/22 108/5/22
f 108/5/22 109/5/22 110/5/22
f 110/5/22 111/5/22 108/5/22
f 111/5/22 50/5/22 108/5/22
f 50/5/22 112/5/22 113/5/22
f 113/5/22 114/5/22 51/5/22
f 51/5/22 115/5/22 52/5/22
f 115/5/22 116/5/22 52/5/22
f 116/5/22 117/5/22 52/5/22
f 52/5/22 118/5/22 119/5/22
f 119/5/22 120/5/22 104/5/22
f 104/5/22 106/5/22 50/5/22
f 106/5/22 108/5/22 50/5/22
f 50/5/22 113/5/22 51/5/22
f 52/5/22 119/5/22 50/5/22
f 119/5/22 104/5/22 50/5/22
f 121/23/23 122/23/24 123/23/23
f 124/23/24 125/23/25 122/23/24
f 126/23/25 127/23/26 125/23/25
f 128/23/26 129/23/27 127/23/26
f 130/23/27 131/23/28 129/23/27
f 132/23/28 133/23/29 131/23/28
f 134/23/29 135/23/30 133/23/29
f 136/23/30 137/23/31 135/23/30
f 138/23/31 139/23/32 137/23/31
f 140/23/32 141/23/33 139/23/32
f 142/23/33 143/23/34 141/23/33
f 144/23/34 145/23/35 143/23/34
f 146/23/35 147/23/36 145/23/35
f 148/23/36 149/23/37 147/23/36
f 150/23/37 151/23/38 149/23/37
f 152/23/38 153/23/39 151/23/38
f 154/23/39 155/23/40 153/23/39
f 156/23/40 157/23/41 155/23/40
f 158/23/41 159/23/42 157/23/41
f 160/23/42 123/23/23 159/23/42
f 130/23/27 132/23/28 131/23/28
f 148/23/36 150/23/37 149/23/37
f 140/23/32 142/23/33 141/23/33
f 124/23/24 126/23/25 125/23/25
f 158/23/41 160/23/42 159/23/42
f 121/23/23 124/23/24 122/23/24
f 161/23/43 162/23/43 163/23/43
f 142/23/33 144/23/34 143/23/34
f 154/23/39 156/23/40 155/23/40
f 132/23/28 134/23/29 133/23/29
f 152/23/38 154/23/39 153/23/39
f 136/23/30 138/23/31 137/23/31
f 134/23/29 136/23/30 135/23/30
f 138/23/31 140/23/32 139/23/32
f 126/23/25 128/23/26 127/23/26
f 128/23/26 130/23/27 129/23/27
f 164/23/43 165/23/43 166/23/43
f 144/23/34 146/23/35 145/23/35
f 150/23/37 152/23/38 151/23/38
f 156/23/40 158/23/41 157/23/41
f 167/24/43 168/25/43 169/26/43
f 170/27/44 171/27/44 172/27/44
f 146/23/35 148/23/36 147/23/36
f 160/23/42 121/23/23 123/23/23
f 163/23/43 173/23/43 174/23/43
f 174/23/43 175/23/43 163/23/43
f 175/23/43 161/23/43 163/23/43
f 176/23/43 162/23/43 161/23/43
f 161/23/43 177/23/43 176/23/43
f 177/23/43 178/23/43 176/23/43
f 178/23/43 179/23/43 180/23/43
f 179/23/43 181/23/43 182/23/43
f 181/23/43 183/23/43 182/23/43
f 183/23/43 184/23/43 185/23/43
f 182/23/43 183/23/43 185/23/43
f 184/23/43 186/23/43 187/23/43
f 186/23/43 188/23/43 189/23/43
f 188/23/43 190/23/43 189/23/43
f 190/23/43 164/23/43 166/23/43
f 189/23/43 190/23/43 166/23/43
f 164/23/43 191/23/43 192/23/43
f 191/23/43 193/23/43 194/23/43
f 193/23/43 195/23/43 194/23/43
f 195/23/43 196/23/43 197/23/43
f 194/23/43 195/23/43 197/23/43
f 196/23/43 198/23/43 199/23/43
f 198/23/43 200/23/43 201/23/43
f 200/23/43 202/23/43 201/23/43
f 202/23/43 174/23/43 203/23/43
f 201/23/43 202/23/43 203/23/43
f 174/23/43 173/23/43 203/23/43
f 198/23/43 201/23/43 199/23/43
f 191/23/43 194/23/43 192/23/43
f 186/23/43 189/23/43 187/23/43
f 179/23/43 182/23/43 180/23/43
f 204/23/43 176/23/43 178/23/43
f 180/23/43 204/23/43 178/23/43
f 196/23/43 199/23/43 205/23/43
f 196/23/43 205/23/43 197/23/43
f 206/23/43 185/23/43 184/23/43
f 187/23/43 206/23/43 184/23/43
f 164/23/43 192/23/43 165/23/43
f 169/26/43 207/28/43 208/29/43
f 208/29/43 209/30/43 169/26/43
f 209/30/43 210/31/43 169/26/43
f 210/31/43 211/32/43 167/24/43
f 211/32/43 212/33/43 167/24/43
f 212/33/43 213/34/43 167/24/43
f 167/24/43 214/35/43 215/36/43
f 215/36/43 216/37/43 217/38/43
f 217/38/43 218/39/43 219/40/43
f 219/40/43 220/41/43 217/38/43
f 220/41/43 168/25/43 217/38/43
f 168/25/43 221/42/43 169/26/43
f 221/42/43 222/43/43 169/26/43
f 222/43/43 223/44/43 169/26/43
f 167/24/43 215/36/43 168/25/43
f 215/36/43 217/38/43 168/25/43
f 169/26/43 210/31/43 167/24/43
f 170/27/44 224/27/44 225/27/44
f 225/27/44 226/27/44 170/27/44
f 226/27/44 171/27/44 170/27/44
f 171/27/44 227/27/44 228/27/44
f 228/27/44 229/27/44 172/27/44
f 172/27/44 230/27/44 231/27/44
f 231/27/44 232/27/44 233/27/44
f 233/27/44 234/27/44 235/27/44
f 235/27/44 236/27/44 237/27/44
f 237/27/44 238/27/44 239/27/44
f 239/27/44 240/27/44 170/27/44
f 171/27/44 228/27/44 172/27/44
f 172/27/44 231/27/44 233/27/44
f 233/27/44 235/27/44 172/27/44
f 235/27/44 237/27/44 172/27/44
f 237/27/44 239/27/44 172/27/44
f 239/27/44 170/27/44 172/27/44
