# Blender 4.1.1
# www.blender.org
mtllib 4WD_Sport.mtl
o 4WD_Sport
v 0.000000 1.304111 -1.000943
v 0.000000 1.304111 -1.000943
v 0.000000 1.304111 -1.000943
v 0.000000 1.304111 -1.000943
v 0.900912 0.213840 -0.948741
v 0.900912 0.213840 -0.948741
v 0.900912 0.213840 -0.948741
v 0.000000 0.168336 2.199082
v 0.000000 0.168336 2.199082
v 0.000000 0.168336 2.199082
v 0.000000 0.168336 2.199082
v 0.000000 0.168336 2.199082
v 0.000000 0.298773 -2.246253
v 0.000000 0.298773 -2.246253
v 0.000000 0.298773 -2.246253
v 0.000000 0.298773 -2.246253
v 0.000000 0.298773 -2.246253
v 0.847500 0.509847 -0.610177
v 0.847500 0.509847 -0.610177
v 0.847500 0.509847 -0.610177
v 0.900912 0.555248 -1.612022
v 0.900912 0.555248 -1.612022
v 0.900912 0.555248 -1.612022
v 0.900912 0.555248 -1.612022
v 0.000000 0.604644 -2.327641
v 0.000000 0.604644 -2.327641
v 0.000000 0.604644 -2.327641
v 0.000000 0.604644 -2.327641
v 0.000000 0.929458 0.841092
v 0.000000 0.929458 0.841092
v 0.000000 0.929458 0.841092
v 0.000000 0.929458 0.841092
v 0.847500 0.189998 -0.609059
v 0.847500 0.189998 -0.609059
v 0.847500 0.189998 -0.609059
v 0.847500 0.189998 -0.609059
v 0.900912 0.267692 -1.716002
v 0.900912 0.267692 -1.716002
v 0.900912 0.267692 -1.716002
v 0.817996 0.609842 -2.222162
v 0.817996 0.609842 -2.222162
v 0.817996 0.609842 -2.222162
v 0.817996 0.609842 -2.222162
v 0.536186 1.262298 0.104732
v 0.536186 1.262298 0.104732
v 0.536186 1.262298 0.104732
v 0.847500 0.180364 0.694897
v 0.847500 0.180364 0.694897
v 0.847500 0.180364 0.694897
v 0.847500 0.180364 0.694897
v 0.804771 0.435677 2.049427
v 0.804771 0.435677 2.049427
v 0.804771 0.435677 2.049427
v 0.804771 0.435677 2.049427
v 0.804771 0.168336 2.021449
v 0.804771 0.168336 2.021449
v 0.804771 0.168336 2.021449
v 0.536186 1.262913 -0.949721
v 0.536186 1.262913 -0.949721
v 0.536186 1.262913 -0.949721
v 0.817996 0.289617 -2.131799
v 0.817996 0.289617 -2.131799
v 0.817996 0.289617 -2.131799
v 0.000000 1.328597 -0.385800
v 0.000000 1.328597 -0.385800
v 0.000000 1.328597 -0.385800
v 0.000000 1.328597 -0.385800
v 0.817996 0.930028 -2.123152
v 0.817996 0.930028 -2.123152
v 0.817996 0.930028 -2.123152
v 0.711622 0.707928 1.989412
v 0.711622 0.707928 1.989412
v 0.711622 0.707928 1.989412
v 0.756242 0.882456 0.694897
v 0.756242 0.882456 0.694897
v 0.756242 0.882456 0.694897
v 0.756242 0.882456 0.694897
v 0.756242 0.882456 0.694897
v 0.000000 0.435677 2.280471
v 0.000000 0.435677 2.280471
v 0.000000 0.435677 2.280471
v 0.000000 0.435677 2.280471
v 0.756242 0.921833 -1.479464
v 0.756242 0.921833 -1.479464
v 0.756242 0.921833 -1.479464
v 0.756242 0.921833 -1.479464
v 0.756242 0.921833 -1.479464
v 0.756242 0.921833 -1.479464
v 0.756242 0.917601 -0.611603
v 0.756242 0.917601 -0.611603
v 0.756242 0.917601 -0.611603
v 0.756242 0.917601 -0.611603
v 0.900912 0.576083 1.557495
v 0.900912 0.576083 1.557495
v 0.900912 0.576083 1.557495
v 0.900912 0.576083 1.557495
v 0.900912 0.576083 1.557495
v 0.000000 0.983122 -1.695937
v 0.000000 0.983122 -1.695937
v 0.000000 0.983122 -1.695937
v 0.000000 0.983122 -1.695937
v 0.900912 0.600293 1.064474
v 0.900912 0.600293 1.064474
v 0.900912 0.600293 1.064474
v 0.900912 0.600293 1.064474
v 0.900912 0.600293 1.064474
v 0.536186 1.262672 -0.535862
v 0.536186 1.262672 -0.535862
v 0.536186 1.262672 -0.535862
v 0.536186 1.262672 -0.535862
v 0.000000 1.294955 0.182256
v 0.000000 1.294955 0.182256
v 0.000000 1.294955 0.182256
v 0.000000 1.294955 0.182256
v 0.900912 0.668601 -1.202297
v 0.900912 0.668601 -1.202297
v 0.900912 0.668601 -1.202297
v 0.900912 0.668601 -1.202297
v 0.900912 0.668601 -1.202297
v 0.847500 0.627150 0.694897
v 0.847500 0.627150 0.694897
v 0.847500 0.627150 0.694897
v 0.847500 0.627150 0.694897
v 0.000000 0.707928 2.147450
v 0.000000 0.707928 2.147450
v 0.000000 0.707928 2.147450
v 0.000000 0.707928 2.147450
v 0.000000 0.952919 -2.194424
v 0.000000 0.952919 -2.194424
v 0.000000 0.952919 -2.194424
v 0.000000 0.952919 -2.194424
v 0.847500 0.653018 -0.610678
v 0.847500 0.653018 -0.610678
v 0.847500 0.653018 -0.610678
v 0.847500 0.653018 -0.610678
v 0.900912 0.683963 -1.409821
v 0.900912 0.683963 -1.409821
v 0.900912 0.683963 -1.409821
v 0.900912 0.683963 -1.409821
v 0.900912 0.683963 -1.409821
v 0.900912 0.178290 0.927130
v 0.900912 0.178290 0.927130
v 0.900912 0.178290 0.927130
v 0.000000 0.675370 -2.264602
v 0.000000 0.675370 -2.264602
v 0.000000 0.675370 -2.264602
v 0.000000 0.675370 -2.264602
v 0.000000 0.893222 1.217786
v 0.000000 0.893222 1.217786
v 0.000000 0.893222 1.217786
v 0.000000 0.893222 1.217786
v 0.755168 0.840929 1.105691
v 0.755168 0.840929 1.105691
v 0.755168 0.840929 1.105691
v 0.755168 0.840929 1.105691
v 0.817996 0.676064 -2.172219
v 0.817996 0.676064 -2.172219
v 0.817996 0.676064 -2.172219
v 0.817996 0.676064 -2.172219
v 0.900912 0.171706 1.664319
v 0.900912 0.171706 1.664319
v 0.900912 0.171706 1.664319
v 0.000000 0.788451 1.863146
v 0.000000 0.788451 1.863146
v 0.000000 0.788451 1.863146
v 0.000000 0.788451 1.863146
v 0.727649 0.769222 1.664163
v 0.727649 0.769222 1.664163
v 0.727649 0.769222 1.664163
v 0.727649 0.769222 1.664163
v 0.804771 0.555344 2.021449
v 0.804771 0.555344 2.021449
v 0.804771 0.555344 2.021449
v 0.804771 0.555344 2.021449
v 0.000000 0.555344 2.199082
v 0.000000 0.555344 2.199082
v 0.000000 0.555344 2.199082
v 0.000000 0.555344 2.199082
v 0.847500 0.488999 0.694897
v 0.847500 0.488999 0.694897
v 0.847500 0.488999 0.694897
v 0.900912 0.527984 -1.007674
v 0.900912 0.527984 -1.007674
v 0.900912 0.527984 -1.007674
v 0.900912 0.527984 -1.007674
v 0.900912 0.469805 0.927130
v 0.900912 0.469805 0.927130
v 0.900912 0.469805 0.927130
v 0.900912 0.469805 0.927130
v 0.900912 0.451045 1.649025
v 0.900912 0.451045 1.649025
v 0.900912 0.451045 1.649025
v 0.900912 0.451045 1.649025
v 0.900912 0.685855 1.331434
v 0.900912 0.685855 1.331434
v 0.900912 0.685855 1.331434
v 0.900912 0.685855 1.331434
v 0.000000 0.840836 1.540466
v 0.000000 0.840836 1.540466
v 0.000000 0.840836 1.540466
v 0.000000 0.840836 1.540466
v 0.741408 0.805076 1.384927
v 0.741408 0.805076 1.384927
v 0.741408 0.805076 1.384927
v 0.741408 0.805076 1.384927
v 0.428333 0.213840 -0.948741
v 0.428333 0.213840 -0.948741
v 0.428333 0.213840 -0.948741
v 0.428333 0.213840 -0.948741
v 0.429955 0.555248 -1.612022
v 0.429955 0.555248 -1.612022
v 0.429955 0.555248 -1.612022
v 0.429955 0.555248 -1.612022
v 0.428333 0.267692 -1.716002
v 0.428333 0.267692 -1.716002
v 0.428333 0.267692 -1.716002
v 0.428333 0.267692 -1.716002
v 0.428333 0.267692 -1.716002
v 0.429955 0.576083 1.557495
v 0.429955 0.576083 1.557495
v 0.429955 0.576083 1.557495
v 0.429955 0.600293 1.064474
v 0.429955 0.600293 1.064474
v 0.429955 0.600293 1.064474
v 0.429955 0.668601 -1.202297
v 0.429955 0.668601 -1.202297
v 0.429955 0.668601 -1.202297
v 0.429955 0.683963 -1.409821
v 0.429955 0.683963 -1.409821
v 0.429955 0.683963 -1.409821
v 0.428333 0.178290 0.927130
v 0.428333 0.178290 0.927130
v 0.428333 0.178290 0.927130
v 0.428333 0.178290 0.927130
v 0.428333 0.171706 1.664319
v 0.428333 0.171706 1.664319
v 0.428333 0.171706 1.664319
v 0.428333 0.171706 1.664319
v 0.428333 0.171706 1.664319
v 0.429955 0.527984 -1.007674
v 0.429955 0.527984 -1.007674
v 0.429955 0.527984 -1.007674
v 0.429955 0.527984 -1.007674
v 0.429955 0.469805 0.927130
v 0.429955 0.469805 0.927130
v 0.429955 0.469805 0.927130
v 0.429955 0.469805 0.927130
v 0.429955 0.451045 1.649025
v 0.429955 0.451045 1.649025
v 0.429955 0.451045 1.649025
v 0.429955 0.451045 1.649025
v 0.429955 0.685855 1.331434
v 0.429955 0.685855 1.331434
v 0.429955 0.685855 1.331434
v 0.428333 0.189998 -0.609059
v 0.428333 0.189998 -0.609059
v 0.428333 0.180364 0.694897
v 0.428333 0.180364 0.694897
v 0.000000 0.213840 -0.948741
v 0.000000 0.213840 -0.948741
v 0.000000 0.267692 -1.716002
v 0.000000 0.267692 -1.716002
v 0.000000 0.178290 0.927130
v 0.000000 0.178290 0.927130
v 0.000000 0.171706 1.664319
v 0.000000 0.171706 1.664319
v 0.000000 0.189998 -0.609059
v 0.000000 0.189998 -0.609059
v 0.000000 0.180364 0.694897
v 0.000000 0.180364 0.694897
v 0.694977 0.940716 -1.819780
v 0.694977 0.940716 -1.819780
v 0.615622 1.072892 -1.968146
v 0.615622 1.072892 -1.968146
v 0.615622 1.072892 -1.968146
v 0.694977 0.921640 -2.086250
v 0.694977 0.921640 -2.086250
v 0.615622 1.108923 -2.166792
v 0.615622 1.108923 -2.166792
v 0.615622 1.108923 -2.166792
v 0.000000 1.108923 -2.166792
v 0.000000 1.108923 -2.166792
v 0.000000 1.072892 -1.968146
v 0.000000 1.072892 -1.968146
v 0.652106 1.022818 -2.129762
v 0.652106 1.022818 -2.129762
v 0.652106 1.022818 -2.129762
v 0.652106 1.012122 -1.899933
v 0.652106 1.012122 -1.899933
v 0.652106 1.012122 -1.899933
v 0.000000 1.012122 -1.899933
v 0.000000 1.012122 -1.899933
v 0.000000 1.022818 -2.129762
v 0.000000 1.022818 -2.129762
v 0.582011 1.108923 -2.166792
v 0.582011 1.108923 -2.166792
v 0.657033 0.940716 -1.819780
v 0.657033 0.940716 -1.819780
v 0.657033 0.921640 -2.086250
v 0.657033 0.921640 -2.086250
v 0.582011 1.072892 -1.968146
v 0.582011 1.072892 -1.968146
v 0.616503 1.012122 -1.899933
v 0.616503 1.012122 -1.899933
v 0.616503 1.012122 -1.899933
v 0.616503 1.022818 -2.129762
v 0.616503 1.022818 -2.129762
v 0.616503 1.022818 -2.129762
v 0.817096 0.875110 0.472635
v 0.817096 0.875110 0.472635
v 0.817096 0.875110 0.472635
v 0.817096 1.000264 0.472635
v 0.817096 1.000264 0.472635
v 0.817096 1.000264 0.472635
v 0.785916 0.875110 0.391854
v 0.785916 0.875110 0.391854
v 0.785916 0.875110 0.391854
v 0.785916 1.000264 0.391854
v 0.785916 1.000264 0.391854
v 0.785916 1.000264 0.391854
v 0.965740 0.875110 0.355250
v 0.965740 0.875110 0.355250
v 0.965740 0.875110 0.355250
v 0.965740 1.000264 0.355250
v 0.965740 1.000264 0.355250
v 0.965740 1.000264 0.355250
v 0.962072 0.875110 0.309317
v 0.962072 0.875110 0.309317
v 0.962072 0.875110 0.309317
v 0.962072 1.000264 0.309317
v 0.962072 1.000264 0.309317
v 0.962072 1.000264 0.309317
v -0.900912 0.213840 -0.948741
v -0.900912 0.213840 -0.948741
v -0.900912 0.213840 -0.948741
v -0.847500 0.509847 -0.610177
v -0.847500 0.509847 -0.610177
v -0.847500 0.509847 -0.610177
v -0.900912 0.555248 -1.612022
v -0.900912 0.555248 -1.612022
v -0.900912 0.555248 -1.612022
v -0.900912 0.555248 -1.612022
v -0.847500 0.189998 -0.609059
v -0.847500 0.189998 -0.609059
v -0.847500 0.189998 -0.609059
v -0.847500 0.189998 -0.609059
v -0.900912 0.267692 -1.716002
v -0.900912 0.267692 -1.716002
v -0.900912 0.267692 -1.716002
v -0.817996 0.609842 -2.222162
v -0.817996 0.609842 -2.222162
v -0.817996 0.609842 -2.222162
v -0.817996 0.609842 -2.222162
v -0.536186 1.262298 0.104732
v -0.536186 1.262298 0.104732
v -0.536186 1.262298 0.104732
v -0.847500 0.180364 0.694897
v -0.847500 0.180364 0.694897
v -0.847500 0.180364 0.694897
v -0.847500 0.180364 0.694897
v -0.804771 0.435677 2.049427
v -0.804771 0.435677 2.049427
v -0.804771 0.435677 2.049427
v -0.804771 0.435677 2.049427
v -0.804771 0.168336 2.021449
v -0.804771 0.168336 2.021449
v -0.804771 0.168336 2.021449
v -0.536186 1.262913 -0.949721
v -0.536186 1.262913 -0.949721
v -0.536186 1.262913 -0.949721
v -0.817996 0.289617 -2.131799
v -0.817996 0.289617 -2.131799
v -0.817996 0.289617 -2.131799
v -0.817996 0.930028 -2.123152
v -0.817996 0.930028 -2.123152
v -0.817996 0.930028 -2.123152
v -0.711622 0.707928 1.989412
v -0.711622 0.707928 1.989412
v -0.711622 0.707928 1.989412
v -0.756242 0.882456 0.694897
v -0.756242 0.882456 0.694897
v -0.756242 0.882456 0.694897
v -0.756242 0.882456 0.694897
v -0.756242 0.882456 0.694897
v -0.756242 0.921833 -1.479464
v -0.756242 0.921833 -1.479464
v -0.756242 0.921833 -1.479464
v -0.756242 0.921833 -1.479464
v -0.756242 0.921833 -1.479464
v -0.756242 0.921833 -1.479464
v -0.756242 0.917601 -0.611603
v -0.756242 0.917601 -0.611603
v -0.756242 0.917601 -0.611603
v -0.756242 0.917601 -0.611603
v -0.900912 0.576083 1.557495
v -0.900912 0.576083 1.557495
v -0.900912 0.576083 1.557495
v -0.900912 0.576083 1.557495
v -0.900912 0.576083 1.557495
v -0.900912 0.600293 1.064474
v -0.900912 0.600293 1.064474
v -0.900912 0.600293 1.064474
v -0.900912 0.600293 1.064474
v -0.900912 0.600293 1.064474
v -0.536186 1.262672 -0.535862
v -0.536186 1.262672 -0.535862
v -0.536186 1.262672 -0.535862
v -0.536186 1.262672 -0.535862
v -0.900912 0.668601 -1.202297
v -0.900912 0.668601 -1.202297
v -0.900912 0.668601 -1.202297
v -0.900912 0.668601 -1.202297
v -0.900912 0.668601 -1.202297
v -0.847500 0.627150 0.694897
v -0.847500 0.627150 0.694897
v -0.847500 0.627150 0.694897
v -0.847500 0.627150 0.694897
v -0.847500 0.653018 -0.610678
v -0.847500 0.653018 -0.610678
v -0.847500 0.653018 -0.610678
v -0.847500 0.653018 -0.610678
v -0.900912 0.683963 -1.409821
v -0.900912 0.683963 -1.409821
v -0.900912 0.683963 -1.409821
v -0.900912 0.683963 -1.409821
v -0.900912 0.683963 -1.409821
v -0.900912 0.178290 0.927130
v -0.900912 0.178290 0.927130
v -0.900912 0.178290 0.927130
v -0.755168 0.840929 1.105691
v -0.755168 0.840929 1.105691
v -0.755168 0.840929 1.105691
v -0.755168 0.840929 1.105691
v -0.817996 0.676064 -2.172219
v -0.817996 0.676064 -2.172219
v -0.817996 0.676064 -2.172219
v -0.817996 0.676064 -2.172219
v -0.900912 0.171706 1.664319
v -0.900912 0.171706 1.664319
v -0.900912 0.171706 1.664319
v -0.727649 0.769222 1.664163
v -0.727649 0.769222 1.664163
v -0.727649 0.769222 1.664163
v -0.727649 0.769222 1.664163
v -0.804771 0.555344 2.021449
v -0.804771 0.555344 2.021449
v -0.804771 0.555344 2.021449
v -0.804771 0.555344 2.021449
v -0.847500 0.488999 0.694897
v -0.847500 0.488999 0.694897
v -0.847500 0.488999 0.694897
v -0.900912 0.527984 -1.007674
v -0.900912 0.527984 -1.007674
v -0.900912 0.527984 -1.007674
v -0.900912 0.527984 -1.007674
v -0.900912 0.469805 0.927130
v -0.900912 0.469805 0.927130
v -0.900912 0.469805 0.927130
v -0.900912 0.469805 0.927130
v -0.900912 0.451045 1.649025
v -0.900912 0.451045 1.649025
v -0.900912 0.451045 1.649025
v -0.900912 0.451045 1.649025
v -0.900912 0.685855 1.331434
v -0.900912 0.685855 1.331434
v -0.900912 0.685855 1.331434
v -0.900912 0.685855 1.331434
v -0.741408 0.805076 1.384927
v -0.741408 0.805076 1.384927
v -0.741408 0.805076 1.384927
v -0.741408 0.805076 1.384927
v -0.428333 0.213840 -0.948741
v -0.428333 0.213840 -0.948741
v -0.428333 0.213840 -0.948741
v -0.428333 0.213840 -0.948741
v -0.429955 0.555248 -1.612022
v -0.429955 0.555248 -1.612022
v -0.429955 0.555248 -1.612022
v -0.429955 0.555248 -1.612022
v -0.428333 0.267692 -1.716002
v -0.428333 0.267692 -1.716002
v -0.428333 0.267692 -1.716002
v -0.428333 0.267692 -1.716002
v -0.428333 0.267692 -1.716002
v -0.429955 0.576083 1.557495
v -0.429955 0.576083 1.557495
v -0.429955 0.576083 1.557495
v -0.429955 0.600293 1.064474
v -0.429955 0.600293 1.064474
v -0.429955 0.600293 1.064474
v -0.429955 0.668601 -1.202297
v -0.429955 0.668601 -1.202297
v -0.429955 0.668601 -1.202297
v -0.429955 0.683963 -1.409821
v -0.429955 0.683963 -1.409821
v -0.429955 0.683963 -1.409821
v -0.428333 0.178290 0.927130
v -0.428333 0.178290 0.927130
v -0.428333 0.178290 0.927130
v -0.428333 0.178290 0.927130
v -0.428333 0.171706 1.664319
v -0.428333 0.171706 1.664319
v -0.428333 0.171706 1.664319
v -0.428333 0.171706 1.664319
v -0.428333 0.171706 1.664319
v -0.429955 0.527984 -1.007674
v -0.429955 0.527984 -1.007674
v -0.429955 0.527984 -1.007674
v -0.429955 0.527984 -1.007674
v -0.429955 0.469805 0.927130
v -0.429955 0.469805 0.927130
v -0.429955 0.469805 0.927130
v -0.429955 0.469805 0.927130
v -0.429955 0.451045 1.649025
v -0.429955 0.451045 1.649025
v -0.429955 0.451045 1.649025
v -0.429955 0.451045 1.649025
v -0.429955 0.685855 1.331434
v -0.429955 0.685855 1.331434
v -0.429955 0.685855 1.331434
v -0.428333 0.189998 -0.609059
v -0.428333 0.189998 -0.609059
v -0.428333 0.180364 0.694897
v -0.428333 0.180364 0.694897
v -0.694977 0.940716 -1.819780
v -0.694977 0.940716 -1.819780
v -0.615622 1.072892 -1.968146
v -0.615622 1.072892 -1.968146
v -0.615622 1.072892 -1.968146
v -0.694977 0.921640 -2.086250
v -0.694977 0.921640 -2.086250
v -0.615622 1.108923 -2.166792
v -0.615622 1.108923 -2.166792
v -0.615622 1.108923 -2.166792
v -0.652106 1.022818 -2.129762
v -0.652106 1.022818 -2.129762
v -0.652106 1.022818 -2.129762
v -0.652106 1.012122 -1.899933
v -0.652106 1.012122 -1.899933
v -0.652106 1.012122 -1.899933
v -0.582011 1.108923 -2.166792
v -0.582011 1.108923 -2.166792
v -0.657033 0.940716 -1.819780
v -0.657033 0.940716 -1.819780
v -0.657033 0.921640 -2.086250
v -0.657033 0.921640 -2.086250
v -0.582011 1.072892 -1.968146
v -0.582011 1.072892 -1.968146
v -0.616503 1.012122 -1.899933
v -0.616503 1.012122 -1.899933
v -0.616503 1.012122 -1.899933
v -0.616503 1.022818 -2.129762
v -0.616503 1.022818 -2.129762
v -0.616503 1.022818 -2.129762
v -0.817096 0.875110 0.472635
v -0.817096 0.875110 0.472635
v -0.817096 0.875110 0.472635
v -0.817096 1.000264 0.472635
v -0.817096 1.000264 0.472635
v -0.817096 1.000264 0.472635
v -0.785916 0.875110 0.391854
v -0.785916 0.875110 0.391854
v -0.785916 0.875110 0.391854
v -0.785916 1.000264 0.391854
v -0.785916 1.000264 0.391854
v -0.785916 1.000264 0.391854
v -0.965740 0.875110 0.355250
v -0.965740 0.875110 0.355250
v -0.965740 0.875110 0.355250
v -0.965740 1.000264 0.355250
v -0.965740 1.000264 0.355250
v -0.965740 1.000264 0.355250
v -0.962072 0.875110 0.309317
v -0.962072 0.875110 0.309317
v -0.962072 0.875110 0.309317
v -0.962072 1.000264 0.309317
v -0.962072 1.000264 0.309317
v -0.962072 1.000264 0.309317
vn 0.9693 -0.0057 0.2459
vn 0.1381 0.8609 0.4897
vn 0.1378 0.8610 0.4895
vn 0.9013 0.4315 0.0388
vn 0.9013 0.4314 0.0388
vn 0.8486 0.5276 0.0391
vn 0.0906 0.6338 -0.7682
vn 0.9746 -0.0000 -0.2241
vn 1.0000 -0.0000 -0.0000
vn 0.8517 0.5239 0.0096
vn 0.2250 0.4050 0.8862
vn 0.1621 0.8801 -0.4464
vn 0.1623 0.8799 -0.4465
vn 0.9826 0.1471 -0.1137
vn 0.9911 0.0754 0.1096
vn 0.0695 0.9712 0.2278
vn 0.9594 0.2816 -0.0144
vn 0.9594 0.2817 -0.0144
vn 0.0819 0.9918 0.0981
vn 0.0819 0.9918 0.0982
vn 0.9435 0.3312 0.0077
vn 0.7978 0.5774 0.1734
vn 0.1001 0.2178 -0.9708
vn 0.2050 0.3165 0.9262
vn 0.0563 0.9983 -0.0162
vn 0.9872 0.0036 -0.1593
vn 0.0974 0.9949 0.0280
vn 0.0973 0.9949 0.0280
vn 0.8423 0.5390 0.0018
vn 0.8425 0.5387 0.0019
vn 0.8426 0.5386 0.0019
vn 0.9013 0.4326 -0.0225
vn 0.0972 0.9950 -0.0234
vn 0.9895 0.0137 0.1442
vn 0.9695 0.1075 0.2202
vn 0.7210 0.6604 0.2100
vn 0.7209 0.6604 0.2100
vn 0.0722 0.9866 0.1463
vn 0.9821 0.0858 -0.1678
vn 0.2414 -0.1945 0.9507
vn 0.1279 -0.2624 -0.9564
vn 0.0842 0.9856 0.1464
vn 0.7567 0.6525 -0.0403
vn -0.0000 -0.0547 -0.9985
vn -0.0000 -0.7250 0.6888
vn -0.0000 -0.5907 -0.8069
vn -0.0000 -0.8436 0.5370
vn -0.0000 -0.8106 -0.5856
vn -0.0000 -0.9523 0.3052
vn -0.0000 -0.8996 -0.4368
vn -0.0000 -0.9973 -0.0738
vn -0.0000 -0.1844 -0.9829
vn -0.0000 -0.0000 1.0000
vn -0.0000 -0.3401 0.9404
vn 1.0000 -0.0056 -0.0001
vn 1.0000 -0.0058 -0.0001
vn 1.0000 -0.0056 -0.0003
vn 1.0000 -0.0057 -0.0002
vn -0.0000 -1.0000 -0.0074
vn -0.0000 -1.0000 -0.0089
vn -0.0000 -0.9975 -0.0700
vn -0.0022 -0.9985 -0.0547
vn -0.0021 -0.9985 -0.0547
vn -0.0011 -1.0000 -0.0082
vn -0.0010 -1.0000 -0.0081
vn -0.0000 -1.0000 -0.0063
vn -0.0000 -0.9983 -0.0585
vn -0.0000 -0.3951 -0.9186
vn -0.0000 -0.3951 -0.9187
vn 0.8791 0.4738 0.0517
vn -0.0000 0.9839 0.1785
vn -0.0000 0.7467 0.6652
vn 0.8977 0.4406 -0.0074
vn -0.0000 -0.9989 -0.0465
vn -0.9071 -0.4209 0.0071
vn -0.9329 -0.0000 0.3601
vn -0.4243 -0.0000 -0.9055
vn 0.9968 -0.0000 -0.0796
vn 0.6198 -0.0000 0.7848
vn -0.0000 -1.0000 -0.0000
vn -0.0000 1.0000 -0.0000
vn -0.9693 -0.0057 0.2459
vn -0.1381 0.8609 0.4897
vn -0.1378 0.8610 0.4895
vn -0.9013 0.4315 0.0388
vn -0.9013 0.4314 0.0388
vn -0.8486 0.5276 0.0391
vn -0.0906 0.6338 -0.7682
vn -0.9746 -0.0000 -0.2241
vn -1.0000 -0.0000 -0.0000
vn -0.8517 0.5239 0.0096
vn -0.2250 0.4050 0.8862
vn -0.1621 0.8801 -0.4464
vn -0.1623 0.8799 -0.4465
vn -0.9826 0.1471 -0.1137
vn -0.9911 0.0754 0.1096
vn -0.0695 0.9712 0.2278
vn -0.9594 0.2816 -0.0144
vn -0.9594 0.2817 -0.0144
vn -0.0819 0.9918 0.0981
vn -0.0819 0.9918 0.0982
vn -0.9435 0.3312 0.0077
vn -0.7978 0.5774 0.1734
vn -0.1001 0.2178 -0.9708
vn -0.2050 0.3165 0.9262
vn -0.0563 0.9983 -0.0162
vn -0.9872 0.0036 -0.1593
vn -0.0974 0.9949 0.0280
vn -0.0973 0.9949 0.0280
vn -0.8423 0.5390 0.0018
vn -0.8425 0.5387 0.0019
vn -0.8426 0.5386 0.0019
vn -0.9013 0.4326 -0.0225
vn -0.0972 0.9950 -0.0234
vn -0.9895 0.0137 0.1442
vn -0.9695 0.1075 0.2202
vn -0.7210 0.6604 0.2100
vn -0.7209 0.6604 0.2100
vn -0.0722 0.9866 0.1463
vn -0.9821 0.0858 -0.1678
vn -0.2414 -0.1945 0.9507
vn -0.1279 -0.2624 -0.9564
vn -0.0842 0.9856 0.1464
vn -0.7567 0.6525 -0.0403
vn -1.0000 -0.0058 -0.0001
vn -1.0000 -0.0056 -0.0001
vn -1.0000 -0.0057 -0.0002
vn -1.0000 -0.0056 -0.0003
vn 0.0022 -0.9985 -0.0547
vn 0.0021 -0.9985 -0.0547
vn 0.0011 -1.0000 -0.0082
vn 0.0010 -1.0000 -0.0081
vn -0.8791 0.4738 0.0517
vn -0.8977 0.4406 -0.0074
vn 0.9071 -0.4209 0.0071
vn 0.9329 -0.0000 0.3601
vn 0.4243 -0.0000 -0.9055
vn -0.9968 -0.0000 -0.0796
vn -0.6198 -0.0000 0.7848
vt 0.257121 0.335787
vt 0.274608 0.393069
vt 0.188262 0.411141
vt 0.180105 0.354176
vt 0.340329 0.983098
vt 0.340329 0.817896
vt 0.495428 0.845080
vt 0.500128 0.961177
vt 0.069008 0.417022
vt 0.006792 0.476301
vt 0.007340 0.290933
vt 0.067313 0.289710
vt 0.066246 0.461382
vt 0.627910 0.569045
vt 0.629335 0.548812
vt 0.805564 0.547862
vt 0.804448 0.565583
vt 0.491452 0.320523
vt 0.489816 0.386576
vt 0.438918 0.381205
vt 0.440464 0.318816
vt 0.166522 0.285898
vt 0.098043 0.288530
vt 0.094128 0.008782
vt 0.160176 0.006792
vt 0.365890 0.096687
vt 0.380756 0.008832
vt 0.517881 0.006792
vt 0.645682 0.098779
vt 0.807157 0.709862
vt 0.809111 0.736099
vt 0.632733 0.740555
vt 0.627910 0.709951
vt 0.166650 0.817896
vt 0.326745 0.852952
vt 0.308157 0.967095
vt 0.166650 0.986807
vt 0.075080 0.993208
vt 0.061298 0.982012
vt 0.066137 0.817896
vt 0.092360 0.862003
vt 0.097573 0.374524
vt 0.007553 0.553138
vt 0.008402 0.489885
vt 0.160576 0.524483
vt 0.163486 0.595362
vt 0.006792 0.972245
vt 0.006792 0.833799
vt 0.006792 0.774120
vt 0.006792 0.693105
vt 0.169018 0.715920
vt 0.169212 0.804312
vt 0.006792 0.011290
vt 0.064545 0.009668
vt 0.299677 0.414796
vt 0.282543 0.472359
vt 0.211607 0.471775
vt 0.200102 0.434635
vt 0.630740 0.487540
vt 0.806521 0.492495
vt 0.791993 0.771009
vt 0.635983 0.774887
vt 0.832407 0.502912
vt 0.998275 0.470996
vt 0.999178 0.609439
vt 0.823328 0.609439
vt 0.144438 0.976977
vt 0.153066 0.886499
vt 0.781891 0.358314
vt 0.749731 0.473957
vt 0.627910 0.473229
vt 0.644751 0.358264
vt 0.180105 0.098779
vt 0.292166 0.010150
vt 0.489084 0.416142
vt 0.491452 0.474137
vt 0.403185 0.469441
vt 0.409265 0.408875
vt 0.870491 0.358264
vt 0.881526 0.473384
vt 0.164161 0.359489
vt 0.352065 0.427038
vt 0.342847 0.470208
vt 0.007178 0.623121
vt 0.166247 0.655641
vt 0.809111 0.652350
vt 0.632688 0.650315
vt 0.631053 0.636732
vt 0.807888 0.636732
vt 0.748671 0.834545
vt 0.748671 0.835527
vt 0.747011 0.835527
vt 0.747017 0.834545
vt 0.748671 0.831468
vt 0.748671 0.832133
vt 0.747017 0.832133
vt 0.747017 0.831468
vt 0.748671 0.834000
vt 0.747017 0.834000
vt 0.750419 0.836173
vt 0.750419 0.837015
vt 0.748764 0.837015
vt 0.748764 0.836173
vt 0.750419 0.837746
vt 0.750419 0.838589
vt 0.748764 0.838589
vt 0.748764 0.837746
vt 0.748671 0.833118
vt 0.747017 0.833118
vt 0.750419 0.839712
vt 0.748759 0.839712
vt 0.748671 0.830444
vt 0.747011 0.830444
vt 0.750419 0.835099
vt 0.748759 0.835099
vt 0.745554 0.839713
vt 0.744530 0.839722
vt 0.744573 0.837186
vt 0.745554 0.837124
vt 0.747011 0.835615
vt 0.748044 0.835909
vt 0.748097 0.838033
vt 0.747011 0.838317
vt 0.743946 0.835840
vt 0.743946 0.831260
vt 0.745419 0.831260
vt 0.745419 0.835840
vt 0.743759 0.830444
vt 0.745419 0.830444
vt 0.745419 0.837036
vt 0.743759 0.837036
vt 0.751632 0.830847
vt 0.751923 0.832309
vt 0.750263 0.832309
vt 0.748759 0.830444
vt 0.750507 0.836977
vt 0.750844 0.835723
vt 0.753671 0.835099
vt 0.752166 0.836977
vt 0.746923 0.830444
vt 0.746923 0.831260
vt 0.750263 0.835011
vt 0.748759 0.835011
vt 0.748759 0.832309
vt 0.752166 0.839566
vt 0.753671 0.836977
vt 0.753671 0.839566
vt 0.746923 0.835840
vt 0.746923 0.837036
vt 0.744068 0.839244
vt 0.744137 0.837511
vt 0.743759 0.838309
vt 0.748545 0.836586
vt 0.748542 0.837317
vt 0.901561 0.428775
vt 0.910677 0.423571
vt 0.911261 0.427055
vt 0.902179 0.432465
vt 0.967285 0.431293
vt 0.977325 0.427986
vt 0.972636 0.448679
vt 0.964728 0.455338
vt 0.955470 0.424413
vt 0.955470 0.363245
vt 0.976688 0.363245
vt 0.976688 0.424413
vt 0.921748 0.373204
vt 0.930640 0.378330
vt 0.920777 0.438697
vt 0.911301 0.437149
vt 0.955470 0.435128
vt 0.955470 0.463205
vt 0.890849 0.434890
vt 0.891508 0.438823
vt 0.911944 0.363245
vt 0.922352 0.369511
vt 0.911301 0.367181
vt 0.931209 0.374843
vt 0.955470 0.427945
vt 0.976688 0.427945
vt 0.890849 0.364874
vt 0.900564 0.363245
vt 0.955430 0.363245
vt 0.955430 0.428038
vt 0.931249 0.428038
vt 0.931249 0.363245
vt 0.987976 0.368308
vt 0.984976 0.396224
vt 0.976729 0.387426
vt 0.976729 0.363245
vt 0.853351 0.710815
vt 0.853351 0.678721
vt 0.875556 0.678721
vt 0.875556 0.710815
vt 0.526442 0.039162
vt 0.526442 0.071256
vt 0.476557 0.071256
vt 0.476557 0.039162
vt 0.898425 0.678721
vt 0.898425 0.710815
vt 0.886609 0.710815
vt 0.886609 0.678721
vt 0.899197 0.677173
vt 0.931291 0.677173
vt 0.931291 0.725742
vt 0.899197 0.725742
vt 0.898425 0.628064
vt 0.898425 0.677948
vt 0.887360 0.673803
vt 0.876274 0.626515
vt 0.853351 0.677948
vt 0.853351 0.628064
vt 0.875502 0.626515
vt 0.864416 0.673803
s 1
usemtl 4WD_Sport
f 161/1/1 192/2/1 53/3/1
f 161/1/1 53/3/1 56/4/1
f 30/5/2 75/6/3 45/7/3
f 30/5/2 45/7/3 112/8/3
f 118/9/4 87/10/4 91/11/4
f 118/9/4 91/11/4 132/12/5
s 0
f 138/13/6 86/10/6 117/9/6
s 1
f 25/14/7 144/15/7 156/16/7
f 25/14/7 156/16/7 40/17/7
s 0
f 49/18/8 179/19/8 188/20/8
f 49/18/8 188/20/8 143/21/8
f 36/22/9 20/23/9 181/24/9
f 36/22/9 181/24/9 50/25/9
s 1
f 90/26/10 110/27/10 46/28/10
f 90/26/10 46/28/10 76/29/10
f 51/30/11 172/31/11 176/32/11
f 51/30/11 176/32/11 79/33/11
f 99/34/12 2/35/13 59/36/13
f 99/34/12 59/36/13 84/37/13
f 42/38/14 159/39/14 140/40/14
f 42/38/14 140/40/14 23/41/14
f 185/42/15 119/9/15 134/12/15
f 185/42/15 134/12/15 19/23/15
f 163/43/16 124/44/16 71/45/16
f 163/43/16 71/45/16 167/46/16
f 158/39/17 70/47/17 88/48/18
f 158/39/17 88/48/18 139/40/17
f 29/49/19 148/50/19 152/51/20
f 29/49/19 152/51/20 74/52/19
f 133/12/21 92/11/21 78/53/21
f 133/12/21 78/53/21 121/54/21
s 0
f 20/23/9 135/12/9 123/54/9
f 20/23/9 123/54/9 181/24/9
s 1
f 96/55/22 170/56/22 73/57/22
f 96/55/22 73/57/22 173/58/22
f 145/15/23 129/59/23 69/60/23
f 145/15/23 69/60/23 157/16/23
f 171/31/24 72/61/24 125/62/24
f 171/31/24 125/62/24 175/32/24
f 98/63/25 83/64/25 68/65/25
f 98/63/25 68/65/25 128/66/25
f 62/67/26 43/38/26 24/41/26
f 62/67/26 24/41/26 38/68/26
f 108/69/27 65/70/27 111/71/28
f 108/69/27 111/71/28 44/72/27
f 85/73/29 60/74/30 109/27/31
f 85/73/29 109/27/31 89/26/30
f 120/75/32 77/76/32 155/77/32
f 120/75/32 155/77/32 105/78/32
f 58/79/33 1/80/33 64/70/33
f 58/79/33 64/70/33 107/69/33
f 7/81/34 184/42/34 18/23/34
f 7/81/34 18/23/34 35/22/34
f 193/2/35 97/55/35 174/58/35
f 193/2/35 174/58/35 54/3/35
f 196/82/36 204/83/37 169/56/36
f 196/82/36 169/56/36 95/55/36
f 198/84/38 164/43/38 168/46/38
f 198/84/38 168/46/38 202/85/38
f 180/19/39 122/75/39 106/78/39
f 180/19/39 106/78/39 189/20/39
f 55/86/40 52/30/40 80/33/40
f 55/86/40 80/33/40 10/87/40
f 15/88/41 26/14/41 41/17/41
f 15/88/41 41/17/41 61/89/41
f 149/50/42 199/84/42 203/85/42
f 149/50/42 203/85/42 153/51/42
f 104/78/43 154/77/43 205/83/43
f 104/78/43 205/83/43 197/82/43
s 0
f 190/90/44 160/91/44 235/92/44
f 190/90/44 235/92/44 248/93/44
f 187/94/45 102/95/45 222/96/45
f 187/94/45 222/96/45 245/97/45
f 93/98/46 191/90/46 249/93/46
f 93/98/46 249/93/46 219/99/46
f 22/100/47 136/101/47 228/102/47
f 22/100/47 228/102/47 211/103/47
f 115/104/48 183/105/48 241/106/48
f 115/104/48 241/106/48 225/107/48
f 103/95/49 195/108/49 253/109/49
f 103/95/49 253/109/49 223/96/49
f 194/108/50 94/98/50 220/99/50
f 194/108/50 220/99/50 252/109/50
f 137/101/51 116/104/51 226/107/51
f 137/101/51 226/107/51 229/102/51
f 182/105/52 5/110/52 206/111/52
f 182/105/52 206/111/52 240/106/52
f 141/112/53 186/94/53 244/97/53
f 141/112/53 244/97/53 231/113/53
f 37/114/54 21/100/54 210/103/54
f 37/114/54 210/103/54 214/115/54
f 234/116/55 246/117/55 250/118/55
f 234/116/56 250/118/56 238/119/56
f 217/120/57 212/121/57 242/122/57
s 1
f 217/120/58 242/122/58 209/123/58
s 0
f 34/124/59 48/125/59 258/126/59
f 34/124/59 258/126/59 256/127/59
f 47/125/60 142/128/60 232/129/60
f 47/125/60 232/129/60 257/126/60
f 33/124/61 255/127/61 207/130/61
f 33/124/61 207/130/61 6/131/61
s 1
f 63/132/62 39/133/62 218/134/63
f 63/132/62 218/134/63 16/135/62
f 162/136/64 57/137/64 11/138/65
f 162/136/64 11/138/65 239/139/64
s 0
f 257/126/60 232/129/60 263/140/60
f 257/126/60 263/140/60 269/141/60
f 215/134/61 208/142/61 260/143/61
f 215/134/61 260/143/61 261/144/61
f 233/145/60 236/139/60 265/146/60
f 233/145/60 265/146/60 264/147/60
f 207/130/61 255/127/61 267/148/61
f 207/130/61 267/148/61 259/149/61
f 256/127/59 258/126/59 270/141/59
f 256/127/59 270/141/59 268/148/59
f 237/139/66 8/138/66 266/146/66
f 216/134/67 262/144/67 13/135/67
f 247/117/9 224/150/9 221/151/9
f 247/117/9 221/151/9 251/118/9
f 254/152/9 221/151/9 224/150/9
f 213/121/9 230/153/9 227/154/9
f 213/121/9 227/154/9 243/122/9
f 306/155/68 296/156/68 279/157/68
f 306/155/69 279/157/69 285/158/69
s 1
f 286/159/70 280/160/70 275/161/70
f 286/159/70 275/161/70 289/162/70
s 0
f 295/163/71 281/164/71 284/165/71
s 1
f 295/163/71 284/165/71 302/166/71
s 0
f 303/167/72 301/168/72 283/169/72
f 303/167/72 283/169/72 291/170/72
s 1
f 277/171/73 287/159/73 290/162/73
f 277/171/73 290/162/73 272/172/73
s 0
f 299/173/69 306/155/69 285/158/69
f 299/173/69 285/158/69 276/174/69
f 271/175/72 288/176/72 303/167/72
f 271/175/72 303/167/72 297/177/72
f 288/176/72 273/178/72 301/168/72
f 288/176/72 301/168/72 303/167/72
f 278/179/71 295/163/71 302/166/71
f 278/179/71 302/166/71 274/180/71
f 293/181/69 282/182/69 296/156/69
f 293/181/69 296/156/69 306/155/69
f 304/183/74 292/184/74 294/185/74
f 304/183/74 294/185/74 307/186/74
s 1
f 300/187/75 298/188/75 305/189/75
f 300/187/75 305/189/75 308/190/75
s 0
f 311/191/76 314/192/76 320/193/76
f 311/191/76 320/193/76 317/194/76
f 316/195/77 319/196/77 332/197/77
f 316/195/77 332/197/77 329/198/77
f 328/199/78 331/200/78 326/201/78
f 328/199/78 326/201/78 323/202/78
f 322/203/79 325/204/79 313/205/79
f 322/203/79 313/205/79 310/206/79
f 315/207/80 327/208/80 321/209/80
f 315/207/80 321/209/80 309/210/80
f 330/211/81 318/212/81 312/213/81
f 330/211/81 312/213/81 324/214/81
s 1
f 440/1/82 367/4/82 363/3/82
f 440/1/82 363/3/82 462/2/82
f 32/5/83 114/8/84 355/7/84
f 32/5/83 355/7/84 381/6/84
f 412/9/85 418/12/86 393/11/85
f 412/9/85 393/11/85 389/10/85
s 0
f 424/13/87 411/9/87 388/10/87
s 1
f 27/14/88 350/17/88 434/16/88
f 27/14/88 434/16/88 146/15/88
s 0
f 359/18/89 429/21/89 458/20/89
f 359/18/89 458/20/89 449/19/89
f 346/22/90 360/25/90 451/24/90
f 346/22/90 451/24/90 338/23/90
s 1
f 392/26/91 382/29/91 356/28/91
f 392/26/91 356/28/91 408/27/91
f 361/30/92 81/33/92 178/32/92
f 361/30/92 178/32/92 446/31/92
f 101/34/93 386/37/94 369/36/94
f 101/34/93 369/36/94 4/35/94
f 352/38/95 341/41/95 426/40/95
f 352/38/95 426/40/95 437/39/95
f 455/42/96 337/23/96 420/12/96
f 455/42/96 420/12/96 413/9/96
f 165/43/97 441/46/97 377/45/97
f 165/43/97 377/45/97 126/44/97
f 436/39/98 425/40/98 390/48/99
f 436/39/98 390/48/99 376/47/98
f 31/49/100 380/52/100 430/51/101
f 31/49/100 430/51/101 150/50/100
f 419/12/102 415/54/102 384/53/102
f 419/12/102 384/53/102 394/11/102
s 0
f 338/23/90 451/24/90 417/54/90
f 338/23/90 417/54/90 421/12/90
s 1
f 398/55/103 447/58/103 379/57/103
f 398/55/103 379/57/103 444/56/103
f 147/15/104 435/16/104 375/60/104
f 147/15/104 375/60/104 131/59/104
f 445/31/105 177/32/105 127/62/105
f 445/31/105 127/62/105 378/61/105
f 100/63/106 130/66/106 374/65/106
f 100/63/106 374/65/106 385/64/106
f 373/67/107 349/68/107 342/41/107
f 373/67/107 342/41/107 353/38/107
f 406/69/108 354/72/108 113/71/109
f 406/69/108 113/71/109 67/70/108
f 387/73/110 391/26/111 407/27/112
f 387/73/110 407/27/112 370/74/111
f 414/75/113 403/78/113 433/77/113
f 414/75/113 433/77/113 383/76/113
f 368/79/114 405/69/114 66/70/114
f 368/79/114 66/70/114 3/80/114
f 335/81/115 345/22/115 336/23/115
f 335/81/115 336/23/115 454/42/115
f 463/2/116 364/3/116 448/58/116
f 463/2/116 448/58/116 399/55/116
f 466/82/117 397/55/117 443/56/117
f 466/82/117 443/56/117 470/83/118
f 200/84/119 468/85/119 442/46/119
f 200/84/119 442/46/119 166/43/119
f 450/19/120 459/20/120 404/78/120
f 450/19/120 404/78/120 416/75/120
f 366/86/121 12/87/121 82/33/121
f 366/86/121 82/33/121 362/30/121
f 17/88/122 372/89/122 351/17/122
f 17/88/122 351/17/122 28/14/122
f 151/50/123 431/51/123 469/85/123
f 151/50/123 469/85/123 201/84/123
f 402/78/124 467/82/124 471/83/124
f 402/78/124 471/83/124 432/77/124
s 0
f 460/90/44 514/93/44 501/92/44
f 460/90/44 501/92/44 438/91/44
f 457/94/45 511/97/45 488/96/45
f 457/94/45 488/96/45 400/95/45
f 395/98/46 485/99/46 515/93/46
f 395/98/46 515/93/46 461/90/46
f 340/100/47 477/103/47 494/102/47
f 340/100/47 494/102/47 422/101/47
f 409/104/48 491/107/48 507/106/48
f 409/104/48 507/106/48 453/105/48
f 401/95/49 489/96/49 519/109/49
f 401/95/49 519/109/49 465/108/49
f 464/108/50 518/109/50 486/99/50
f 464/108/50 486/99/50 396/98/50
f 423/101/51 495/102/51 492/107/51
f 423/101/51 492/107/51 410/104/51
f 452/105/52 506/106/52 472/111/52
f 452/105/52 472/111/52 333/110/52
f 427/112/53 497/113/53 510/97/53
f 427/112/53 510/97/53 456/94/53
f 347/114/54 480/115/54 476/103/54
f 347/114/54 476/103/54 339/100/54
f 500/116/125 505/119/125 516/118/125
f 500/116/126 516/118/126 512/117/126
s 1
f 484/120/127 475/123/127 508/122/127
s 0
f 484/120/128 508/122/128 478/121/128
f 344/124/59 522/127/59 524/126/59
f 344/124/59 524/126/59 358/125/59
f 357/125/60 523/126/60 498/129/60
f 357/125/60 498/129/60 428/128/60
f 343/124/61 334/131/61 473/130/61
f 343/124/61 473/130/61 521/127/61
s 1
f 371/132/129 14/135/129 483/134/130
f 371/132/129 483/134/130 348/133/129
f 439/136/131 504/139/131 9/138/132
f 439/136/131 9/138/132 365/137/131
s 0
f 523/126/60 269/141/60 263/140/60
f 523/126/60 263/140/60 498/129/60
f 481/134/61 261/144/61 260/143/61
f 481/134/61 260/143/61 474/142/61
f 499/145/60 264/147/60 265/146/60
f 499/145/60 265/146/60 502/139/60
f 473/130/61 259/149/61 267/148/61
f 473/130/61 267/148/61 521/127/61
f 522/127/59 268/148/59 270/141/59
f 522/127/59 270/141/59 524/126/59
f 503/139/66 266/146/66 8/138/66
f 482/134/67 13/135/67 262/144/67
f 513/117/90 517/118/90 487/151/90
f 513/117/90 487/151/90 490/150/90
f 520/152/90 490/150/90 487/151/90
f 479/121/90 509/122/90 493/154/90
f 479/121/90 493/154/90 496/153/90
f 552/155/69 535/158/69 533/157/69
f 552/155/68 533/157/68 542/156/68
s 1
f 536/159/133 539/162/133 529/161/133
f 536/159/133 529/161/133 534/160/133
f 541/163/71 548/166/71 284/165/71
s 0
f 541/163/71 284/165/71 281/164/71
f 549/167/72 291/170/72 283/169/72
f 549/167/72 283/169/72 547/168/72
s 1
f 531/171/134 526/172/134 540/162/134
f 531/171/134 540/162/134 537/159/134
s 0
f 545/173/69 530/174/69 535/158/69
f 545/173/69 535/158/69 552/155/69
f 525/175/72 543/177/72 549/167/72
f 525/175/72 549/167/72 538/176/72
f 538/176/72 549/167/72 547/168/72
f 538/176/72 547/168/72 527/178/72
f 532/179/71 528/180/71 548/166/71
f 532/179/71 548/166/71 541/163/71
f 293/181/69 552/155/69 542/156/69
f 293/181/69 542/156/69 282/182/69
f 550/183/74 553/186/74 294/185/74
f 550/183/74 294/185/74 292/184/74
s 1
f 546/187/135 554/190/135 551/189/135
f 546/187/135 551/189/135 544/188/135
s 0
f 556/191/136 563/194/136 566/193/136
f 556/191/136 566/193/136 559/192/136
f 562/195/137 574/198/137 577/197/137
f 562/195/137 577/197/137 565/196/137
f 575/199/138 569/202/138 572/201/138
f 575/199/138 572/201/138 578/200/138
f 568/203/139 557/206/139 560/205/139
f 568/203/139 560/205/139 571/204/139
f 561/207/80 555/210/80 567/209/80
f 561/207/80 567/209/80 573/208/80
f 576/211/81 570/214/81 558/213/81
f 576/211/81 558/213/81 564/212/81
o WheelFR
v -0.601385 0.334917 1.296840
v -0.913362 0.334917 1.296840
v -0.601385 0.334917 0.957926
v -0.601385 0.334917 0.957926
v -0.601385 0.334917 0.957926
v -0.913362 0.334917 0.957926
v -0.913362 0.334917 0.957926
v -0.913362 0.334917 0.957926
v -0.601385 0.095269 1.057191
v -0.601385 0.095269 1.057191
v -0.601385 0.095269 1.057191
v -0.913362 0.095269 1.057191
v -0.913362 0.095269 1.057191
v -0.913362 0.095269 1.057191
v -0.601385 -0.003996 1.296840
v -0.601385 -0.003996 1.296840
v -0.601385 -0.003996 1.296840
v -0.913362 -0.003996 1.296840
v -0.913362 -0.003996 1.296840
v -0.913362 -0.003996 1.296840
v -0.601385 0.095269 1.536487
v -0.601385 0.095269 1.536487
v -0.601385 0.095269 1.536487
v -0.913362 0.095269 1.536487
v -0.913362 0.095269 1.536487
v -0.913362 0.095269 1.536487
v -0.601385 0.334917 1.635753
v -0.601385 0.334917 1.635753
v -0.601385 0.334917 1.635753
v -0.913362 0.334917 1.635753
v -0.913362 0.334917 1.635753
v -0.913362 0.334917 1.635753
v -0.601385 0.574565 1.536487
v -0.601385 0.574565 1.536487
v -0.601385 0.574565 1.536487
v -0.913362 0.574565 1.536487
v -0.913362 0.574565 1.536487
v -0.913362 0.574565 1.536487
v -0.601385 0.673831 1.296840
v -0.601385 0.673831 1.296840
v -0.601385 0.673831 1.296840
v -0.913362 0.673831 1.296840
v -0.913362 0.673831 1.296840
v -0.913362 0.673831 1.296840
v -0.601385 0.574565 1.057191
v -0.601385 0.574565 1.057191
v -0.601385 0.574565 1.057191
v -0.913362 0.574565 1.057191
v -0.913362 0.574565 1.057191
v -0.913362 0.574565 1.057191
vn -1.0000 -0.0000 -0.0000
vn 1.0000 -0.0000 -0.0000
vn -0.0000 -0.3827 -0.9239
vn -0.0000 -0.9239 -0.3827
vn -0.0000 -0.9239 0.3827
vn -0.0000 -0.3827 0.9239
vn -0.0000 0.3827 0.9239
vn -0.0000 0.9239 0.3827
vn -0.0000 0.9239 -0.3827
vn -0.0000 0.3827 -0.9239
vt 0.996131 0.825349
vt 0.925110 0.754329
vt 0.874891 0.875568
vt 0.996131 0.925787
vt 0.753651 0.925830
vt 0.824672 0.996850
vt 0.874891 0.875611
vt 0.753651 0.825392
vt 0.982163 0.681434
vt 0.982163 0.668939
vt 0.967135 0.668939
vt 0.967135 0.681434
vt 0.824672 0.754329
vt 0.753651 0.825349
vt 0.824672 0.754371
vt 0.925110 0.754371
vt 0.982163 0.656444
vt 0.967135 0.656444
vt 0.982163 0.756404
vt 0.982163 0.743909
vt 0.967135 0.743909
vt 0.967135 0.756404
vt 0.753651 0.925787
vt 0.824672 0.996808
vt 0.996131 0.825391
vt 0.996131 0.925830
vt 0.982163 0.731414
vt 0.967135 0.731414
vt 0.982163 0.718919
vt 0.967135 0.718919
vt 0.925110 0.996808
vt 0.982163 0.706424
vt 0.967135 0.706424
vt 0.982163 0.693929
vt 0.967135 0.693929
vt 0.925110 0.996850
s 0
usemtl 4WD_Sport
f 586/215/140 592/216/140 580/217/140
f 586/215/140 580/217/140 628/218/140
f 595/219/141 589/220/141 579/221/141
f 595/219/141 579/221/141 601/222/141
f 582/223/142 587/224/142 590/225/142
f 582/223/142 590/225/142 585/226/142
f 580/217/140 592/216/140 598/227/140
f 580/217/140 598/227/140 604/228/140
f 607/229/141 601/222/141 579/221/141
f 607/229/141 579/221/141 613/230/141
f 588/224/143 594/231/143 597/232/143
f 588/224/143 597/232/143 591/225/143
f 593/233/144 600/234/144 603/235/144
f 593/233/144 603/235/144 596/236/144
f 580/217/140 604/228/140 610/237/140
f 580/217/140 610/237/140 616/238/140
f 619/239/141 613/230/141 579/221/141
f 619/239/141 579/221/141 625/240/141
f 599/234/145 606/241/145 609/242/145
f 599/234/145 609/242/145 602/235/145
f 605/241/146 611/243/146 614/244/146
f 605/241/146 614/244/146 608/242/146
f 580/217/140 616/238/140 622/245/140
f 580/217/140 622/245/140 628/218/140
f 612/243/147 617/246/147 620/247/147
f 612/243/147 620/247/147 615/244/147
f 618/246/148 624/248/148 627/249/148
f 618/246/148 627/249/148 621/247/148
s 1
f 623/248/149 581/223/149 584/226/149
s 0
f 623/248/149 584/226/149 626/249/149
f 579/221/141 589/220/141 583/250/141
f 579/221/141 583/250/141 625/240/141
o WheelRR
v -0.601385 0.334917 -1.321812
v -0.913362 0.334917 -1.321812
v -0.601385 0.334917 -1.660726
v -0.601385 0.334917 -1.660726
v -0.601385 0.334917 -1.660726
v -0.913362 0.334917 -1.660726
v -0.913362 0.334917 -1.660726
v -0.913362 0.334917 -1.660726
v -0.601385 0.095269 -1.561460
v -0.601385 0.095269 -1.561460
v -0.601385 0.095269 -1.561460
v -0.913362 0.095269 -1.561460
v -0.913362 0.095269 -1.561460
v -0.913362 0.095269 -1.561460
v -0.601385 -0.003996 -1.321812
v -0.601385 -0.003996 -1.321812
v -0.601385 -0.003996 -1.321812
v -0.913362 -0.003996 -1.321812
v -0.913362 -0.003996 -1.321812
v -0.913362 -0.003996 -1.321812
v -0.601385 0.095269 -1.082164
v -0.601385 0.095269 -1.082164
v -0.601385 0.095269 -1.082164
v -0.913362 0.095269 -1.082164
v -0.913362 0.095269 -1.082164
v -0.913362 0.095269 -1.082164
v -0.601385 0.334917 -0.982899
v -0.601385 0.334917 -0.982899
v -0.601385 0.334917 -0.982899
v -0.913362 0.334917 -0.982899
v -0.913362 0.334917 -0.982899
v -0.913362 0.334917 -0.982899
v -0.601385 0.574565 -1.082164
v -0.601385 0.574565 -1.082164
v -0.601385 0.574565 -1.082164
v -0.913362 0.574565 -1.082164
v -0.913362 0.574565 -1.082164
v -0.913362 0.574565 -1.082164
v -0.601385 0.673831 -1.321812
v -0.601385 0.673831 -1.321812
v -0.601385 0.673831 -1.321812
v -0.913362 0.673831 -1.321812
v -0.913362 0.673831 -1.321812
v -0.913362 0.673831 -1.321812
v -0.601385 0.574565 -1.561460
v -0.601385 0.574565 -1.561460
v -0.601385 0.574565 -1.561460
v -0.913362 0.574565 -1.561460
v -0.913362 0.574565 -1.561460
v -0.913362 0.574565 -1.561460
vn -1.0000 -0.0000 -0.0000
vn 1.0000 -0.0000 -0.0000
vn -0.0000 -0.3827 -0.9239
vn -0.0000 -0.9239 -0.3827
vn -0.0000 -0.9239 0.3827
vn -0.0000 -0.3827 0.9239
vn -0.0000 0.3827 0.9239
vn -0.0000 0.9239 0.3827
vn -0.0000 0.9239 -0.3827
vn -0.0000 0.3827 -0.9239
vt 0.996285 0.825349
vt 0.925265 0.754329
vt 0.875046 0.875568
vt 0.996285 0.925787
vt 0.925265 0.996850
vt 0.996286 0.925830
vt 0.875046 0.875611
vt 0.824827 0.996850
vt 0.982095 0.681434
vt 0.982095 0.668939
vt 0.967067 0.668939
vt 0.967067 0.681434
vt 0.824827 0.754329
vt 0.753806 0.825349
vt 0.753806 0.925830
vt 0.753806 0.825392
vt 0.982095 0.656444
vt 0.967067 0.656444
vt 0.982095 0.756404
vt 0.982095 0.743909
vt 0.967067 0.743909
vt 0.967067 0.756404
vt 0.753806 0.925787
vt 0.824827 0.996808
vt 0.824827 0.754371
vt 0.925265 0.754371
vt 0.982095 0.731414
vt 0.967067 0.731414
vt 0.982095 0.718919
vt 0.967067 0.718919
vt 0.925265 0.996808
vt 0.982095 0.706424
vt 0.967067 0.706424
vt 0.982095 0.693929
vt 0.967067 0.693929
vt 0.996286 0.825392
s 0
usemtl 4WD_Sport
f 636/251/150 642/252/150 630/253/150
f 636/251/150 630/253/150 678/254/150
f 645/255/151 639/256/151 629/257/151
f 645/255/151 629/257/151 651/258/151
f 632/259/152 637/260/152 640/261/152
f 632/259/152 640/261/152 635/262/152
f 630/253/150 642/252/150 648/263/150
f 630/253/150 648/263/150 654/264/150
f 657/265/151 651/258/151 629/257/151
f 657/265/151 629/257/151 663/266/151
f 638/260/153 644/267/153 647/268/153
f 638/260/153 647/268/153 641/261/153
f 643/269/154 650/270/154 653/271/154
f 643/269/154 653/271/154 646/272/154
f 630/253/150 654/264/150 660/273/150
f 630/253/150 660/273/150 666/274/150
f 669/275/151 663/266/151 629/257/151
f 669/275/151 629/257/151 675/276/151
s 1
f 649/270/155 656/277/155 659/278/155
f 649/270/155 659/278/155 652/271/155
s 0
f 655/277/156 661/279/156 664/280/156
s 1
f 655/277/156 664/280/156 658/278/156
s 0
f 630/253/150 666/274/150 672/281/150
f 630/253/150 672/281/150 678/254/150
f 662/279/157 667/282/157 670/283/157
f 662/279/157 670/283/157 665/280/157
f 668/282/158 674/284/158 677/285/158
f 668/282/158 677/285/158 671/283/158
f 673/284/159 631/259/159 634/262/159
f 673/284/159 634/262/159 676/285/159
f 629/257/151 639/256/151 633/286/151
f 629/257/151 633/286/151 675/276/151
o WheelFL
v 0.601385 0.334917 1.296840
v 0.913362 0.334917 1.296840
v 0.601385 0.334917 0.957926
v 0.601385 0.334917 0.957926
v 0.601385 0.334917 0.957926
v 0.913362 0.334917 0.957926
v 0.913362 0.334917 0.957926
v 0.913362 0.334917 0.957926
v 0.601385 0.095269 1.057191
v 0.601385 0.095269 1.057191
v 0.601385 0.095269 1.057191
v 0.913362 0.095269 1.057191
v 0.913362 0.095269 1.057191
v 0.913362 0.095269 1.057191
v 0.601385 -0.003996 1.296840
v 0.601385 -0.003996 1.296840
v 0.601385 -0.003996 1.296840
v 0.913362 -0.003996 1.296840
v 0.913362 -0.003996 1.296840
v 0.913362 -0.003996 1.296840
v 0.601385 0.095269 1.536487
v 0.601385 0.095269 1.536487
v 0.601385 0.095269 1.536487
v 0.913362 0.095269 1.536487
v 0.913362 0.095269 1.536487
v 0.913362 0.095269 1.536487
v 0.601385 0.334917 1.635753
v 0.601385 0.334917 1.635753
v 0.601385 0.334917 1.635753
v 0.913362 0.334917 1.635753
v 0.913362 0.334917 1.635753
v 0.913362 0.334917 1.635753
v 0.601385 0.574565 1.536487
v 0.601385 0.574565 1.536487
v 0.601385 0.574565 1.536487
v 0.913362 0.574565 1.536487
v 0.913362 0.574565 1.536487
v 0.913362 0.574565 1.536487
v 0.601385 0.673831 1.296840
v 0.601385 0.673831 1.296840
v 0.601385 0.673831 1.296840
v 0.913362 0.673831 1.296840
v 0.913362 0.673831 1.296840
v 0.913362 0.673831 1.296840
v 0.601385 0.574565 1.057191
v 0.601385 0.574565 1.057191
v 0.601385 0.574565 1.057191
v 0.913362 0.574565 1.057191
v 0.913362 0.574565 1.057191
v 0.913362 0.574565 1.057191
vn 1.0000 -0.0000 -0.0000
vn -1.0000 -0.0000 -0.0000
vn -0.0000 -0.3827 -0.9239
vn -0.0000 -0.9239 -0.3827
vn -0.0000 -0.9239 0.3827
vn -0.0000 -0.3827 0.9239
vn -0.0000 0.3827 0.9239
vn -0.0000 0.9239 0.3827
vn -0.0000 0.9239 -0.3827
vn -0.0000 0.3827 -0.9239
vt 0.996131 0.825349
vt 0.996131 0.925787
vt 0.874891 0.875568
vt 0.925110 0.754329
vt 0.753651 0.925830
vt 0.753651 0.825392
vt 0.874891 0.875611
vt 0.824672 0.996850
vt 0.982163 0.681434
vt 0.967135 0.681434
vt 0.967135 0.668939
vt 0.982163 0.668939
vt 0.753651 0.825349
vt 0.824672 0.754329
vt 0.824672 0.754371
vt 0.925110 0.754371
vt 0.967135 0.656444
vt 0.982163 0.656444
vt 0.982163 0.756404
vt 0.967135 0.756404
vt 0.967135 0.743909
vt 0.982163 0.743909
vt 0.824672 0.996808
vt 0.753651 0.925787
vt 0.996131 0.825391
vt 0.996131 0.925830
vt 0.967135 0.731414
vt 0.982163 0.731414
vt 0.967135 0.718919
vt 0.982163 0.718919
vt 0.925110 0.996808
vt 0.967135 0.706424
vt 0.982163 0.706424
vt 0.967135 0.693929
vt 0.982163 0.693929
vt 0.925110 0.996850
s 0
usemtl 4WD_Sport
f 686/287/160 728/288/160 680/289/160
f 686/287/160 680/289/160 692/290/160
f 695/291/161 701/292/161 679/293/161
f 695/291/161 679/293/161 689/294/161
f 682/295/162 685/296/162 690/297/162
f 682/295/162 690/297/162 687/298/162
f 680/289/160 704/299/160 698/300/160
f 680/289/160 698/300/160 692/290/160
f 707/301/161 713/302/161 679/293/161
f 707/301/161 679/293/161 701/292/161
f 688/298/163 691/297/163 697/303/163
f 688/298/163 697/303/163 694/304/163
f 693/305/164 696/306/164 703/307/164
f 693/305/164 703/307/164 700/308/164
f 680/289/160 716/309/160 710/310/160
f 680/289/160 710/310/160 704/299/160
f 719/311/161 725/312/161 679/293/161
f 719/311/161 679/293/161 713/302/161
f 699/308/165 702/307/165 709/313/165
f 699/308/165 709/313/165 706/314/165
f 705/314/166 708/313/166 714/315/166
f 705/314/166 714/315/166 711/316/166
f 680/289/160 728/288/160 722/317/160
f 680/289/160 722/317/160 716/309/160
f 712/316/167 715/315/167 720/318/167
f 712/316/167 720/318/167 717/319/167
f 718/319/168 721/318/168 727/320/168
f 718/319/168 727/320/168 724/321/168
f 723/321/169 726/320/169 684/296/169
s 1
f 723/321/169 684/296/169 681/295/169
s 0
f 679/293/161 725/312/161 683/322/161
f 679/293/161 683/322/161 689/294/161
o WheelRL
v 0.601385 0.334917 -1.321812
v 0.913362 0.334917 -1.321812
v 0.601385 0.334917 -1.660726
v 0.601385 0.334917 -1.660726
v 0.601385 0.334917 -1.660726
v 0.913362 0.334917 -1.660726
v 0.913362 0.334917 -1.660726
v 0.913362 0.334917 -1.660726
v 0.601385 0.095269 -1.561460
v 0.601385 0.095269 -1.561460
v 0.601385 0.095269 -1.561460
v 0.913362 0.095269 -1.561460
v 0.913362 0.095269 -1.561460
v 0.913362 0.095269 -1.561460
v 0.601385 -0.003996 -1.321812
v 0.601385 -0.003996 -1.321812
v 0.601385 -0.003996 -1.321812
v 0.913362 -0.003996 -1.321812
v 0.913362 -0.003996 -1.321812
v 0.913362 -0.003996 -1.321812
v 0.601385 0.095269 -1.082164
v 0.601385 0.095269 -1.082164
v 0.601385 0.095269 -1.082164
v 0.913362 0.095269 -1.082164
v 0.913362 0.095269 -1.082164
v 0.913362 0.095269 -1.082164
v 0.601385 0.334917 -0.982899
v 0.601385 0.334917 -0.982899
v 0.601385 0.334917 -0.982899
v 0.913362 0.334917 -0.982899
v 0.913362 0.334917 -0.982899
v 0.913362 0.334917 -0.982899
v 0.601385 0.574565 -1.082164
v 0.601385 0.574565 -1.082164
v 0.601385 0.574565 -1.082164
v 0.913362 0.574565 -1.082164
v 0.913362 0.574565 -1.082164
v 0.913362 0.574565 -1.082164
v 0.601385 0.673831 -1.321812
v 0.601385 0.673831 -1.321812
v 0.601385 0.673831 -1.321812
v 0.913362 0.673831 -1.321812
v 0.913362 0.673831 -1.321812
v 0.913362 0.673831 -1.321812
v 0.601385 0.574565 -1.561460
v 0.601385 0.574565 -1.561460
v 0.601385 0.574565 -1.561460
v 0.913362 0.574565 -1.561460
v 0.913362 0.574565 -1.561460
v 0.913362 0.574565 -1.561460
vn 1.0000 -0.0000 -0.0000
vn -1.0000 -0.0000 -0.0000
vn -0.0000 -0.3827 -0.9239
vn -0.0000 -0.9239 -0.3827
vn -0.0000 -0.9239 0.3827
vn -0.0000 -0.3827 0.9239
vn -0.0000 0.3827 0.9239
vn -0.0000 0.9239 0.3827
vn -0.0000 0.9239 -0.3827
vn -0.0000 0.3827 -0.9239
vt 0.996285 0.825349
vt 0.996285 0.925787
vt 0.875046 0.875568
vt 0.925265 0.754329
vt 0.925265 0.996850
vt 0.824827 0.996850
vt 0.875046 0.875611
vt 0.996286 0.925830
vt 0.982095 0.681434
vt 0.967067 0.681434
vt 0.967067 0.668939
vt 0.982095 0.668939
vt 0.753806 0.825349
vt 0.824827 0.754329
vt 0.753806 0.925830
vt 0.753806 0.825392
vt 0.967067 0.656444
vt 0.982095 0.656444
vt 0.982095 0.756404
vt 0.967067 0.756404
vt 0.967067 0.743909
vt 0.982095 0.743909
vt 0.824827 0.996808
vt 0.753806 0.925787
vt 0.824827 0.754371
vt 0.925265 0.754371
vt 0.967067 0.731414
vt 0.982095 0.731414
vt 0.967067 0.718919
vt 0.982095 0.718919
vt 0.925265 0.996808
vt 0.967067 0.706424
vt 0.982095 0.706424
vt 0.967067 0.693929
vt 0.982095 0.693929
vt 0.996286 0.825392
s 0
usemtl 4WD_Sport
f 736/323/170 778/324/170 730/325/170
f 736/323/170 730/325/170 742/326/170
f 745/327/171 751/328/171 729/329/171
f 745/327/171 729/329/171 739/330/171
f 732/331/172 735/332/172 740/333/172
f 732/331/172 740/333/172 737/334/172
f 730/325/170 754/335/170 748/336/170
f 730/325/170 748/336/170 742/326/170
f 757/337/171 763/338/171 729/329/171
f 757/337/171 729/329/171 751/328/171
f 738/334/173 741/333/173 747/339/173
f 738/334/173 747/339/173 744/340/173
f 743/341/174 746/342/174 753/343/174
f 743/341/174 753/343/174 750/344/174
f 730/325/170 766/345/170 760/346/170
f 730/325/170 760/346/170 754/335/170
f 769/347/171 775/348/171 729/329/171
f 769/347/171 729/329/171 763/338/171
s 1
f 749/344/175 752/343/175 759/349/175
f 749/344/175 759/349/175 756/350/175
f 755/350/176 758/349/176 764/351/176
s 0
f 755/350/176 764/351/176 761/352/176
f 730/325/170 778/324/170 772/353/170
f 730/325/170 772/353/170 766/345/170
f 762/352/177 765/351/177 770/354/177
f 762/352/177 770/354/177 767/355/177
f 768/355/178 771/354/178 777/356/178
f 768/355/178 777/356/178 774/357/178
f 773/357/179 776/356/179 734/332/179
f 773/357/179 734/332/179 731/331/179
f 729/329/171 775/348/171 733/358/171
f 729/329/171 733/358/171 739/330/171
